<?xml version="1.0" encoding="utf-8"?>
<!-- Generator: Adobe Illustrator 21.0.0, SVG Export Plug-In . SVG Version: 6.00 Build 0)  -->
<svg version="1.1" id="图层_1" xmlns="http://www.w3.org/2000/svg" xmlns:xlink="http://www.w3.org/1999/xlink" x="0px" y="0px"
	 viewBox="0 0 210 130" style="enable-background:new 0 0 210 130;" xml:space="preserve">
<style type="text/css">
	.st0{fill:#436BB3;}
</style>
<g id="图层_2">
	<g id="图层_1-2">
		<path class="st0" d="M182,86.7h-12.4c-2.4,0-4.3-2-4.3-4.4c0,0,0,0,0,0V69.7c0-2.4,1.9-4.4,4.3-4.4c0,0,0,0,0,0H182
			c2.4,0,4.3,1.9,4.3,4.3c0,0,0,0,0,0v12.6C186.3,84.7,184.4,86.6,182,86.7C182,86.7,182,86.7,182,86.7z M151.1,61.6h-15.9
			c-2.5,0-4.4-2-4.4-4.4c0,0,0,0,0,0V41.3c0-2.5,2-4.4,4.4-4.5c0,0,0,0,0,0h12.2c2.5,0,4.4-2,4.4-4.4V19.6c0-2.5-2-4.4-4.4-4.5
			c0,0,0,0,0,0h-12.7c-2.5,0-4.4,2-4.4,4.4c0,0,0,0,0,0v12.5c0,2.5-2,4.4-4.4,4.4c0,0,0,0,0,0h-15.9c-2.5,0-4.4,2-4.4,4.5v16.5
			c0,2.5,2,4.4,4.4,4.5c0,0,0,0,0,0h15.9c2.5,0,4.4,2,4.5,4.4c0,0,0,0,0,0v16.2c0,2.5,2,4.4,4.4,4.5c0,0,0,0,0,0h16.5
			c2.5,0,4.4-2,4.4-4.4c0,0,0,0,0,0V66.1C155.5,63.6,153.5,61.6,151.1,61.6z"/>
		<g>
			<path class="st0" d="M182,86.7h-12.4c-2.4,0-4.3-2-4.3-4.4c0,0,0,0,0,0V69.7c0-2.4,1.9-4.4,4.3-4.4c0,0,0,0,0,0H182
				c2.4,0,4.3,1.9,4.3,4.3c0,0,0,0,0,0v12.6C186.3,84.7,184.4,86.6,182,86.7C182,86.7,182,86.7,182,86.7z M151.1,61.6h-15.9
				c-2.5,0-4.4-2-4.4-4.4c0,0,0,0,0,0V41.3c0-2.5,2-4.4,4.4-4.5c0,0,0,0,0,0h12.2c2.5,0,4.4-2,4.4-4.4V19.6c0-2.5-2-4.4-4.4-4.5
				c0,0,0,0,0,0h-12.7c-2.5,0-4.4,2-4.4,4.4c0,0,0,0,0,0v12.5c0,2.5-2,4.4-4.4,4.4c0,0,0,0,0,0h-15.9c-2.5,0-4.4,2-4.4,4.5v16.5
				c0,2.5,2,4.4,4.4,4.5c0,0,0,0,0,0h15.9c2.5,0,4.4,2,4.5,4.4c0,0,0,0,0,0v16.2c0,2.5,2,4.4,4.4,4.5c0,0,0,0,0,0h16.5
				c2.5,0,4.4-2,4.4-4.4c0,0,0,0,0,0V66.1C155.5,63.6,153.5,61.6,151.1,61.6z"/>
		</g>
		<path class="st0" d="M182,86.7h-12.4c-2.4,0-4.3-2-4.3-4.4c0,0,0,0,0,0V69.7c0-2.4,1.9-4.4,4.3-4.4c0,0,0,0,0,0H182
			c2.4,0,4.3,1.9,4.3,4.3c0,0,0,0,0,0v12.6C186.3,84.7,184.4,86.6,182,86.7C182,86.7,182,86.7,182,86.7z M151.1,61.6h-15.9
			c-2.5,0-4.4-2-4.4-4.4c0,0,0,0,0,0V41.3c0-2.5,2-4.4,4.4-4.5c0,0,0,0,0,0h12.2c2.5,0,4.4-2,4.4-4.4V19.6c0-2.5-2-4.4-4.4-4.5
			c0,0,0,0,0,0h-12.7c-2.5,0-4.4,2-4.4,4.4c0,0,0,0,0,0v12.5c0,2.5-2,4.4-4.4,4.4c0,0,0,0,0,0h-15.9c-2.5,0-4.4,2-4.4,4.5v16.5
			c0,2.5,2,4.4,4.4,4.5c0,0,0,0,0,0h15.9c2.5,0,4.4,2,4.5,4.4c0,0,0,0,0,0v16.2c0,2.5,2,4.4,4.4,4.5c0,0,0,0,0,0h16.5
			c2.5,0,4.4-2,4.4-4.4c0,0,0,0,0,0V66.1C155.5,63.6,153.5,61.6,151.1,61.6z"/>
		<path class="st0" d="M87.3,36.4h14.8c2.8,0,5-2.3,5-5V20.5c0-11.7-10.1-20.9-25.7-20.9c-15.2,0-29.3,12.8-30.2,27l0,0
			C34.6,29,23.1,44.4,25.5,61c0.7,5.1,2.7,9.9,5.8,14C36,69.9,40,64.1,42.9,57.9c-2.2-2.6-1.9-6.6,0.8-8.8s6.6-1.9,8.8,0.8
			s1.9,6.6-0.8,8.8c-1,0.9-2.3,1.4-3.7,1.5c-3.2,7-7.6,13.4-12.9,19c5.2,4.7,11.9,7.5,19,7.8c3.7-3.7,7.1-7.6,10.2-11.8
			c-1.8-1.8-1.7-4.8,0.1-6.5c1.8-1.8,4.8-1.7,6.5,0.1c1.8,1.8,1.7,4.8-0.1,6.5c-1,1-2.5,1.5-3.9,1.2c-2.5,3.6-5.3,7.1-8.3,10.4h43.5
			c2.8,0,5-2.3,5-5c0,0,0,0,0,0V67c0-2.8-2.3-5-5-5.1c0,0,0,0,0,0H87.3c-1,0-1.9-0.3-2.7-0.8c-1.1-0.7-1.9-1.8-2.2-3.1
			c-0.1-0.4-0.1-0.8-0.1-1.1V41.4C82.2,38.6,84.5,36.4,87.3,36.4z"/>
		<path class="st0" d="M50.4,55c0.6-1.5-0.1-3.2-1.6-3.9c-1.5-0.6-3.2,0.1-3.9,1.6c-0.6,1.5,0.1,3.2,1.6,3.9
			C48.1,57.2,49.8,56.5,50.4,55C50.4,55,50.4,55,50.4,55z"/>
		<path class="st0" d="M69.8,72.8c0.4-1.2-0.2-2.4-1.3-2.9c-1.2-0.4-2.4,0.2-2.9,1.3s0.2,2.4,1.3,2.9c0,0,0,0,0,0
			C68.1,74.5,69.3,73.9,69.8,72.8z"/>
		<path class="st0" d="M149.5,49.3c0.4,0.9,0.6,1.8,0.6,2.7c0,1-0.3,2-0.8,2.9c-0.7,1.2-1.9,2.1-3.3,2.3c-0.9,0.1-1.9,0.2-2.8,0.1
			h-8.5V53h7.8c0.6,0.1,1.2,0,1.8-0.2c0.3-0.1,0.4-0.4,0.4-0.7c0-0.4-0.2-0.7-0.5-0.9c-0.4-0.2-0.9-0.2-1.3-0.2h-0.5v-4.4h1.2
			c1,0,2.1,0.1,3.1,0.4C148,47.3,149,48.2,149.5,49.3z"/>
		<path class="st0" d="M157.5,48.6l2.9,8.5l-0.1,0.2H156l-5.3-12.6h-9.2c-0.6,0-1.3,0-1.9,0.1c-0.2,0-0.4,0.1-0.4,0.8
			c0,0.5,0.2,0.7,0.4,0.7l0,0c0.5,0.2,1,0.2,1.6,0.2h0.7v4.4h-1.8c-2,0-3.4-0.4-4.3-1.1c-0.6-0.5-1-1.1-1.4-1.8
			c-0.3-0.7-0.5-1.5-0.5-2.3c0-1.2,0.4-2.4,1.1-3.4c0.9-1.1,2.2-1.8,3.6-1.9c0.5,0,1.2-0.1,2.1-0.1h13.6L157.5,48.6L157.5,48.6z"/>
		<polygon class="st0" points="180.1,40.4 181,40.4 181,51.3 178.9,57.4 174.4,57.4 172,50.2 172,57.4 167.3,57.4 167.3,41.6 
			160.8,56.4 158.6,49.8 162.3,40.4 173.4,40.4 176.7,50.6 		"/>
		<rect x="181.6" y="40.4" class="st0" width="4.7" height="17"/>
	</g>
</g>
</svg>
