<?xml version="1.0" encoding="utf-8"?>
<!-- Generator: Adobe Illustrator 16.0.0, SVG Export Plug-In . SVG Version: 6.00 Build 0)  -->
<!DOCTYPE svg PUBLIC "-//W3C//DTD SVG 1.1//EN" "http://www.w3.org/Graphics/SVG/1.1/DTD/svg11.dtd">
<svg version="1.1" id="图层_1" xmlns="http://www.w3.org/2000/svg" xmlns:xlink="http://www.w3.org/1999/xlink" x="0px" y="0px"
	 width="16px" height="16px" viewBox="0 0 16 16" enable-background="new 0 0 16 16" xml:space="preserve">
<g>
	<path fill="#6686B9" d="M1.964,5.555h5.652C7.829,5.28,8.089,5.054,8.379,4.884H1.964V5.555z"/>
	<path fill="#6686B9" d="M5.212,3.948V3.014c0-0.023-0.052-0.044-0.108-0.044H2.665c-0.065,0-0.113,0.021-0.113,0.044v0.934
		C2.552,3.97,2.6,3.99,2.665,3.99h2.438C5.16,3.99,5.212,3.97,5.212,3.948z"/>
	<path fill="#6686B9" d="M1.245,8.3c-0.229,0-0.416-0.187-0.416-0.415V2.074h9.133v2.479c0.289,0.027,0.571,0.089,0.831,0.205V1.245
		c0-0.688-0.558-1.246-1.245-1.246H1.245C0.558-0.001,0,0.556,0,1.245v6.641c0,0.688,0.558,1.246,1.245,1.246h4.461
		C5.604,8.873,5.543,8.595,5.538,8.3H1.245z"/>
	<path fill="#6686B9" d="M8.391,3.948V3.014c0-0.023-0.039-0.044-0.081-0.044H6.466c-0.043,0-0.082,0.021-0.082,0.044v0.934
		c0,0.022,0.039,0.042,0.082,0.042H8.31C8.352,3.99,8.391,3.97,8.391,3.948z"/>
	<path fill="#6686B9" d="M1.964,6.417v0.671h3.871C5.98,6.829,6.176,6.604,6.399,6.417H1.964z"/>
	<path fill="#6686B9" d="M15.472,5.268c-0.434-0.433-1.033-0.598-1.593-0.496c-0.071-0.112-0.152-0.22-0.25-0.317
		c-0.717-0.717-1.879-0.717-2.596,0c-0.095,0.095-0.172,0.201-0.24,0.311c0.25,0.124,0.484,0.279,0.687,0.481
		c0.019,0.019,0.036,0.037,0.054,0.055c0.677,0.013,1.311,0.28,1.788,0.759c0.492,0.491,0.763,1.145,0.763,1.84
		c0,0.151-0.018,0.3-0.044,0.444h0.224V8.338c0.438-0.016,0.873-0.186,1.208-0.521C16.175,7.114,16.177,5.972,15.472,5.268z"/>
	<g>
		<path fill="#6686B9" d="M12.982,6.597c-0.461-0.459-1.096-0.635-1.689-0.527c-0.076-0.119-0.162-0.233-0.267-0.337
			c-0.76-0.76-1.991-0.76-2.753,0c-0.229,0.23-0.386,0.503-0.477,0.793C6.89,6.542,6.158,7.281,6.158,8.191
			c0,0.907,0.722,1.637,1.619,1.665v0.006h3.922V9.855c0.466-0.018,0.927-0.199,1.282-0.555C13.728,8.554,13.729,7.343,12.982,6.597
			z M7.701,8.99c-0.467-0.009-0.707-0.178-0.72-0.508h0.455C7.45,8.607,7.539,8.673,7.701,8.68c0.146-0.005,0.222-0.066,0.227-0.186
			c-0.002-0.09-0.111-0.156-0.325-0.2C7.182,8.221,6.981,8.047,7,7.772c0.021-0.293,0.256-0.456,0.701-0.488
			C8.113,7.289,8.33,7.45,8.352,7.765H7.915C7.904,7.667,7.833,7.613,7.701,7.607C7.566,7.604,7.5,7.653,7.505,7.752
			c0,0.064,0.104,0.124,0.313,0.181c0.341,0.03,0.545,0.21,0.616,0.539C8.407,8.779,8.163,8.951,7.701,8.99z M9.682,7.659H9.323
			v0.749C9.322,8.52,9.334,8.592,9.362,8.625C9.387,8.664,9.439,8.682,9.521,8.68c0.038,0,0.09-0.005,0.153-0.014v0.284
			C9.608,8.968,9.48,8.981,9.291,8.99c-0.168,0-0.286-0.04-0.353-0.12c-0.068-0.076-0.102-0.216-0.1-0.416V7.659H8.51V7.33h0.329
			V7.013l0.484-0.175V7.33h0.358V7.659z M10.942,8.951c-0.013-0.066-0.02-0.138-0.02-0.213h-0.007
			c-0.095,0.17-0.26,0.254-0.497,0.252c-0.343-0.014-0.52-0.173-0.529-0.481c0.016-0.242,0.131-0.411,0.346-0.511
			c0.162-0.066,0.376-0.096,0.639-0.087V7.758c-0.018-0.13-0.093-0.196-0.229-0.204c-0.133,0.01-0.203,0.088-0.214,0.236H9.966
			c0.005-0.183,0.078-0.316,0.221-0.403c0.119-0.068,0.276-0.104,0.478-0.104c0.454,0.007,0.684,0.21,0.688,0.607v0.883
			c0.001,0.038,0.008,0.082,0.02,0.132c0.002,0.021,0.003,0.036,0.006,0.045H10.942z M12.726,7.659h-0.359v0.749
			c-0.002,0.112,0.012,0.185,0.039,0.217c0.023,0.039,0.076,0.058,0.159,0.056c0.038,0,0.09-0.005,0.154-0.014v0.284
			c-0.067,0.018-0.195,0.03-0.384,0.039c-0.168,0-0.286-0.04-0.354-0.12c-0.068-0.076-0.103-0.216-0.1-0.416V7.659h-0.329V7.33
			h0.329V7.013l0.484-0.175V7.33h0.359V7.659z"/>
		<path fill="#6686B9" d="M10.358,8.447c0.008,0.146,0.087,0.225,0.238,0.233c0.191,0.002,0.284-0.16,0.277-0.485
			C10.529,8.18,10.358,8.264,10.358,8.447z"/>
	</g>
</g>
</svg>
