<?xml version="1.0" encoding="utf-8"?>
<!-- Generator: Adobe Illustrator 16.0.0, SVG Export Plug-In . SVG Version: 6.00 Build 0)  -->
<!DOCTYPE svg PUBLIC "-//W3C//DTD SVG 1.1//EN" "http://www.w3.org/Graphics/SVG/1.1/DTD/svg11.dtd">
<svg version="1.1" id="图层_1" xmlns="http://www.w3.org/2000/svg" xmlns:xlink="http://www.w3.org/1999/xlink" x="0px" y="0px"
	 width="16px" height="16px" viewBox="0 0 16 16" enable-background="new 0 0 16 16" xml:space="preserve">
<g>
	<path fill="#217BCC" d="M6.96,12.125c0-1.903,1.341-3.494,3.127-3.89V0h-8.91v15.266h7.341C7.577,14.535,6.96,13.406,6.96,12.125z
		 M2.454,1.268h6.357V2.8H2.454V1.268z M2.454,4.069h6.357v1.532H2.454V4.069z M2.454,6.87h6.357v1.524H2.454V6.87z M5.631,13.285
		c-0.53,0-0.953-0.421-0.953-0.951c0-0.527,0.423-0.954,0.953-0.954c0.527,0,0.955,0.427,0.955,0.954
		C6.586,12.864,6.158,13.285,5.631,13.285z"/>
	<path fill="#217BCC" d="M14.671,14.875l-0.564-0.559c-0.154-0.154-0.384-0.188-0.572-0.104l-0.214-0.214
		c0.408-0.519,0.663-1.163,0.663-1.873c0-1.677-1.36-3.035-3.035-3.035c-1.676,0-3.034,1.358-3.034,3.035
		c0,1.675,1.358,3.035,3.034,3.035c0.71,0,1.356-0.254,1.873-0.664l0.212,0.214c-0.088,0.189-0.058,0.422,0.101,0.58l0.564,0.559
		c0.201,0.202,0.527,0.202,0.73,0l0.242-0.243C14.874,15.403,14.874,15.076,14.671,14.875z M10.436,13.548l-1.038-1.353l0.461-0.48
		l0.577,0.735l1.812-1.478l0.228,0.224L10.436,13.548z"/>
</g>
</svg>
