<?xml version="1.0" encoding="utf-8"?>
<!-- Generator: Adobe Illustrator 16.0.0, SVG Export Plug-In . SVG Version: 6.00 Build 0)  -->
<!DOCTYPE svg PUBLIC "-//W3C//DTD SVG 1.1//EN" "http://www.w3.org/Graphics/SVG/1.1/DTD/svg11.dtd">
<svg version="1.1" id="图层_1" xmlns="http://www.w3.org/2000/svg" xmlns:xlink="http://www.w3.org/1999/xlink" x="0px" y="0px"
	 width="16px" height="16px" viewBox="0 0 16 16" enable-background="new 0 0 16 16" xml:space="preserve">
<g>
	<path fill="#6686B9" d="M15.721,14.613c0.33,0.438,0.104,0.796-0.053,0.97l-0.201,0.2c-0.181,0.156-0.591,0.387-0.97,0.021
		l-1.481-1.884l-1.507,1.938c-0.44,0.17-0.8,0.104-0.973-0.053l-0.197-0.203c-0.161-0.177-0.388-0.59-0.022-0.971l2.02-1.581
		l-0.318-0.411c-0.479,0.256-1.084,0.188-1.486-0.219c-0.33-0.332-0.438-0.797-0.32-1.222l0.771,0.771h0.894V11.09L11.1,10.318
		c0.42-0.111,0.887-0.006,1.217,0.322c0.402,0.4,0.476,1.014,0.22,1.484l0.599,0.466l1.688-1.682v-0.226l0.896-0.447l0.226,0.227
		l-0.445,0.896H15.27l-1.625,1.627L15.721,14.613z"/>
	<path fill="#6686B9" d="M15.951,8.723l-2.391,1.196c0,0-0.106,0.147-0.168,0.069c-0.062-0.08-0.129-0.158-0.203-0.229
		c-0.381-0.383-0.866-0.616-1.396-0.696c0.188-0.451,0.346-0.938,0.402-1.479c0.171-1.46-0.217-2.84-1.051-3.789
		c-0.259-0.29-0.558-0.511-0.875-0.691c-0.026-1.742,0.771-3.091,2.293-3.1h0.065c1.444,0.01,2.524,1.635,2.295,3.64
		C14.77,5,13.934,6.12,13.369,6.697V7.35c0,0.053,0.308,0.162,0.352,0.184C14.1,7.678,14.6,7.871,15.4,8.368
		C16.016,8.748,15.951,8.723,15.951,8.723z"/>
	<path fill="#6686B9" d="M6.458,10.593c-0.519-0.752-0.99-1.8-1.132-3.005C5.148,6.017,5.494,4.654,6.298,3.745
		c0.273-0.307,0.595-0.54,0.946-0.716C7.216,1.316,6.221,0.009,4.93,0H4.86C3.177,0.011,2.37,1.648,2.597,3.651
		c0.159,1.35,0.82,2.466,1.383,3.043v0.653c0,0.053-0.216,0.162-0.263,0.184c-0.656,0.26-3.159,1.498-3.42,2.179
		c-0.237,0.616-0.25,1.322-0.25,1.322h5.537C5.9,10.859,6.205,10.712,6.458,10.593z"/>
	<path fill="#6686B9" d="M9.48,13.715L9.8,13.459c-0.054-0.044-0.108-0.096-0.161-0.146c-0.387-0.39-0.604-0.891-0.684-1.418
		C8.912,11.716,8.88,11.532,8.88,11.34c0-0.392,0.106-0.758,0.28-1.079l0.025-0.087l0.051-0.051
		c0.188-0.309,0.451-0.564,0.761-0.754l0.062-0.062l0.106-0.029c0.108-0.057,0.226-0.092,0.345-0.133
		c0.27-0.498,0.493-1.062,0.565-1.691c0.233-2.004-0.849-3.629-2.293-3.641H8.717C7.03,3.82,6.225,5.457,6.451,7.46
		c0.158,1.351,0.821,2.463,1.383,3.041v0.653c0,0.052-0.217,0.158-0.263,0.183c-0.656,0.261-3.159,1.496-3.421,2.183
		c-0.236,0.61-0.249,1.32-0.249,1.32h5.005c0.05-0.388,0.219-0.76,0.514-1.064L9.48,13.715z"/>
</g>
</svg>
