<?xml version="1.0" encoding="utf-8"?>
<!-- Generator: Adobe Illustrator 16.0.0, SVG Export Plug-In . SVG Version: 6.00 Build 0)  -->
<!DOCTYPE svg PUBLIC "-//W3C//DTD SVG 1.1//EN" "http://www.w3.org/Graphics/SVG/1.1/DTD/svg11.dtd">
<svg version="1.1" id="图层_1" xmlns="http://www.w3.org/2000/svg" xmlns:xlink="http://www.w3.org/1999/xlink" x="0px" y="0px"
	 width="16px" height="16px" viewBox="0 0 16 16" enable-background="new 0 0 16 16" xml:space="preserve">
<g>
	<rect x="8.365" y="1.642" fill="#217BCC" width="1.672" height="3.898"/>
	<path fill="#217BCC" d="M13.295,9.603c-1.5,0-2.715,1.215-2.715,2.715s1.215,2.715,2.715,2.715s2.716-1.215,2.716-2.715
		S14.795,9.603,13.295,9.603z M13.812,14.094h-1.063l-0.778-3.552h0.894l0.423,2.743h0.01l0.427-2.743h0.896L13.812,14.094z"/>
	<path fill="#217BCC" d="M7.016,7.113c-3.88,0-7.026-1.402-7.026-3.128v2.391c0,1.726,3.146,3.128,7.026,3.128
		c3.879,0,7.025-1.402,7.025-3.128V3.985C14.041,5.711,10.895,7.113,7.016,7.113z M7.016,6.256c3.879,0,7.025-1.403,7.025-3.128
		C14.041,1.398,10.895,0,7.016,0c-3.88,0-7.026,1.398-7.026,3.128C-0.011,4.853,3.136,6.256,7.016,6.256z M7.016,12.752
		c0.914,0,1.784-0.08,2.586-0.222c-0.004-0.072-0.021-0.14-0.021-0.213c0-0.898,0.333-1.713,0.866-2.355
		c-1.016,0.253-2.185,0.399-3.431,0.399c-3.88,0-7.026-1.4-7.026-3.128v2.391C-0.011,11.352,3.136,12.752,7.016,12.752z
		 M9.748,13.364c-0.84,0.158-1.764,0.245-2.732,0.245c-3.88,0-7.026-1.398-7.026-3.128v2.391c0,1.729,3.146,3.128,7.026,3.128
		c1.569,0,3.014-0.231,4.184-0.619C10.504,14.904,9.993,14.191,9.748,13.364z"/>
</g>
</svg>
