<?xml version="1.0" encoding="utf-8"?>
<!-- Generator: Adobe Illustrator 16.0.0, SVG Export Plug-In . SVG Version: 6.00 Build 0)  -->
<!DOCTYPE svg PUBLIC "-//W3C//DTD SVG 1.1//EN" "http://www.w3.org/Graphics/SVG/1.1/DTD/svg11.dtd">
<svg version="1.1" id="图层_1" xmlns="http://www.w3.org/2000/svg" xmlns:xlink="http://www.w3.org/1999/xlink" x="0px" y="0px"
	 width="15px" height="16px" viewBox="0 0 15 16" enable-background="new 0 0 15 16" xml:space="preserve">
<g>
	<g>
		<path fill="#6686B9" d="M12.609,9.845H7.014c-0.463,0-0.839,0.375-0.839,0.839v4.476C6.175,15.622,6.551,16,7.014,16h5.595
			c0.463,0,0.84-0.378,0.84-0.841v-4.476C13.449,10.22,13.072,9.845,12.609,9.845z M12.891,15.159c0,0.154-0.127,0.28-0.281,0.28
			H7.014c-0.154,0-0.28-0.126-0.28-0.28v-3.356h6.157V15.159z"/>
		<g>
			<rect x="9.869" y="13.887" fill="#6686B9" width="2.457" height="0.736"/>
			<polygon fill="#6686B9" points="8.096,12.141 7.2,12.141 8.43,13.37 7.201,14.6 8.096,14.6 9.324,13.37 			"/>
		</g>
	</g>
	<g>
		<g>
			<path fill="#6686B9" d="M5.465,10.364c0-0.771,0.627-1.398,1.398-1.398h1.054C7.919,8.961,7.923,8.955,7.926,8.95V0H0v13.61
				h5.465V10.364z M1.032,2.393h2.006l0.949,4.593h0.021l0.959-4.593h2.008L5.168,8.336H2.782L1.032,2.393z M3.962,12.066
				c-0.481,0-0.873-0.391-0.873-0.873c0-0.481,0.392-0.873,0.873-0.873c0.483,0,0.873,0.392,0.873,0.873
				C4.835,11.676,4.446,12.066,3.962,12.066z"/>
		</g>
	</g>
</g>
</svg>
