<?xml version="1.0" encoding="utf-8"?>
<!-- Generator: Adobe Illustrator 16.0.0, SVG Export Plug-In . SVG Version: 6.00 Build 0)  -->
<!DOCTYPE svg PUBLIC "-//W3C//DTD SVG 1.1//EN" "http://www.w3.org/Graphics/SVG/1.1/DTD/svg11.dtd">
<svg version="1.1" id="图层_1" xmlns="http://www.w3.org/2000/svg" xmlns:xlink="http://www.w3.org/1999/xlink" x="0px" y="0px"
	 width="16px" height="16px" viewBox="0 0 16 16" enable-background="new 0 0 16 16" xml:space="preserve">
<g>
	<rect x="13.69" y="3.521" fill="#6686b9" width="2.31" height="3.638"/>
	<rect x="13.69" y="8.842" fill="#6686b9" width="2.31" height="3.639"/>
	<rect y="3.521" fill="#6686b9" width="2.31" height="3.638"/>
	<rect y="8.842" fill="#6686b9" width="2.31" height="3.639"/>
	<g>
		<rect x="8.891" y="13.691" fill="#6686b9" width="3.638" height="2.309"/>
		<rect x="3.569" y="13.691" fill="#6686b9" width="3.638" height="2.309"/>
	</g>
	<g>
		<rect x="8.891" fill="#6686b9" width="3.638" height="2.31"/>
		<rect x="3.569" fill="#6686b9" width="3.638" height="2.31"/>
	</g>
	<g>
		<path fill="#6686b9" d="M8.348,7.059C8.289,7.046,8.17,7.04,7.991,7.04H7.751v0.823h0.271c0.195,0,0.326-0.015,0.391-0.045
			C8.48,7.788,8.532,7.74,8.57,7.675C8.607,7.61,8.627,7.535,8.627,7.449c0-0.105-0.027-0.192-0.08-0.261
			C8.495,7.119,8.428,7.077,8.348,7.059z"/>
		<path fill="#6686b9" d="M3.569,3.521v8.96h8.959v-8.96H3.569z M6.798,9.053C6.694,9.17,6.543,9.275,6.346,9.365
			S5.949,9.502,5.747,9.502c-0.257,0-0.481-0.064-0.672-0.191S4.741,9,4.645,8.763C4.548,8.526,4.5,8.269,4.5,7.99
			c0-0.302,0.054-0.571,0.161-0.806c0.107-0.235,0.264-0.416,0.471-0.541C5.29,6.546,5.485,6.499,5.72,6.499
			c0.305,0,0.543,0.075,0.715,0.227c0.171,0.151,0.281,0.36,0.331,0.627L6.273,7.461C6.238,7.319,6.174,7.206,6.078,7.124
			C5.982,7.041,5.863,7,5.72,7c-0.217,0-0.39,0.081-0.517,0.244C5.075,7.406,5.011,7.647,5.011,7.966
			c0,0.345,0.065,0.604,0.195,0.775C5.335,8.915,5.505,9,5.715,9c0.104,0,0.208-0.024,0.312-0.072s0.194-0.107,0.269-0.176V8.384
			H5.729V7.895h1.069V9.053z M9.055,7.891C9,8.012,8.932,8.108,8.846,8.177c-0.084,0.069-0.17,0.115-0.257,0.138
			c-0.118,0.027-0.29,0.041-0.514,0.041H7.751v1.095H7.255V6.548h0.796c0.302,0,0.498,0.015,0.589,0.043
			C8.782,6.635,8.899,6.73,8.994,6.875C9.09,7.022,9.137,7.21,9.137,7.441C9.137,7.62,9.109,7.77,9.055,7.891z M11.5,8.073
			c0,0.35-0.014,0.596-0.04,0.739s-0.077,0.266-0.148,0.366c-0.072,0.098-0.169,0.178-0.289,0.236s-0.278,0.088-0.473,0.088
			c-0.235,0-0.413-0.033-0.534-0.096c-0.121-0.064-0.217-0.148-0.287-0.25c-0.07-0.104-0.117-0.21-0.139-0.323
			C9.557,8.667,9.541,8.422,9.541,8.097V6.548h0.496v1.572c0,0.25,0.006,0.411,0.019,0.485c0.021,0.119,0.071,0.214,0.151,0.286
			S10.396,9,10.535,9c0.141,0,0.246-0.034,0.318-0.102c0.07-0.067,0.114-0.151,0.129-0.25s0.021-0.264,0.021-0.493V6.548H11.5V8.073
			z"/>
	</g>
</g>
</svg>
