<?xml version="1.0" encoding="utf-8"?>
<!-- Generator: Adobe Illustrator 16.0.0, SVG Export Plug-In . SVG Version: 6.00 Build 0)  -->
<!DOCTYPE svg PUBLIC "-//W3C//DTD SVG 1.1//EN" "http://www.w3.org/Graphics/SVG/1.1/DTD/svg11.dtd">
<svg version="1.1" id="图层_1" xmlns="http://www.w3.org/2000/svg" xmlns:xlink="http://www.w3.org/1999/xlink" x="0px" y="0px"
	 width="16px" height="16px" viewBox="0 0 16 16" enable-background="new 0 0 16 16" xml:space="preserve">
<g>
	<path fill="#6686b9" d="M12.93,0h-1.293v3.715c0,0.4-0.328,0.729-0.728,0.729H3.636c-0.4,0-0.727-0.328-0.727-0.729V0H1.455
		C0.655,0,0,0.654,0,1.455v13.09C0,15.346,0.655,16,1.455,16h13.09C15.346,16,16,15.346,16,14.545V3.07L12.93,0z M14.051,14.105
		c0,0.4-0.326,0.728-0.727,0.728H2.676c-0.4,0-0.728-0.327-0.728-0.728V7.545c0-0.4,0.328-0.728,0.728-0.728h10.648
		c0.4,0,0.727,0.327,0.727,0.728V14.105z"/>
	<path fill="#6686b9" d="M12.305,9.293H3.696c-0.073,0-0.133-0.06-0.133-0.133V8.482c0-0.072,0.06-0.133,0.133-0.133h8.609
		c0.072,0,0.133,0.061,0.133,0.133V9.16C12.438,9.233,12.377,9.293,12.305,9.293"/>
	<path fill="#6686b9" d="M12.305,11.297H3.696c-0.073,0-0.133-0.06-0.133-0.133v-0.678c0-0.072,0.06-0.133,0.133-0.133h8.609
		c0.072,0,0.133,0.061,0.133,0.133v0.678C12.438,11.237,12.377,11.297,12.305,11.297"/>
	<path fill="#6686b9" d="M12.305,13.357H3.696c-0.073,0-0.133-0.059-0.133-0.133v-0.678c0-0.072,0.06-0.132,0.133-0.132h8.609
		c0.072,0,0.133,0.06,0.133,0.132v0.678C12.438,13.299,12.377,13.357,12.305,13.357"/>
	<path fill="#6686b9" d="M8.074,0v3.033c0,0.16,0.122,0.291,0.272,0.291h1.492c0.15,0,0.272-0.131,0.272-0.291V0H8.074z"/>
</g>
</svg>
