<?xml version="1.0" encoding="utf-8"?>
<!-- Generator: Adobe Illustrator 16.0.0, SVG Export Plug-In . SVG Version: 6.00 Build 0)  -->
<!DOCTYPE svg PUBLIC "-//W3C//DTD SVG 1.1//EN" "http://www.w3.org/Graphics/SVG/1.1/DTD/svg11.dtd">
<svg version="1.1" id="图层_1" xmlns="http://www.w3.org/2000/svg" xmlns:xlink="http://www.w3.org/1999/xlink" x="0px" y="0px"
	 width="16px" height="16px" viewBox="0 0 16 16" enable-background="new 0 0 16 16" xml:space="preserve">
<g>
	<path fill="#217BCC" d="M7.726,10.984h-0.73v1h0.73V10.984z M9.995,9.063V9.047h-3v1h0.841c0.226-0.575,0.78-0.983,1.43-0.983
		H9.995z M6.995,8h3V7h-3V8z M6.995,12.922v0.38h0.464l0.343-0.351c-0.003-0.009-0.002-0.021-0.004-0.029H6.995z M1.995,4h8V3h-2V0
		h-4v3h-2V4z M5.495,1h1v1h-1V1z M9.995,5h-3v1h3V5z M8.995,1v1h2v7.063h0.093c0.34,0,0.652,0.115,0.907,0.303V1H8.995z M5.285,15
		h-4.29V2h2V1h-3v15h5.355c-0.028-0.106-0.065-0.208-0.065-0.323V15z M1.995,14h3.46c0.124-0.23,0.309-0.416,0.54-0.537V5h-4V14z"/>
	<path fill="#FF8000" d="M14.834,11.171c-0.647,0-1.17,0.535-1.17,1.191c0,0.266,0.102,0.496,0.244,0.691l-0.867,0.886
		c-0.031-0.013-0.058-0.04-0.095-0.04H11.93l-0.86-0.879h0.019c0.297,0,0.542-0.247,0.542-0.553v-1.854
		c0-0.302-0.245-0.551-0.542-0.551H9.266c-0.298,0-0.54,0.249-0.54,0.551v1.854c0,0.269,0.188,0.477,0.433,0.527l-1.35,1.38
		c-0.05-0.038-0.105-0.073-0.175-0.073H6.586c-0.169,0-0.301,0.139-0.301,0.308v1.067c0,0.17,0.132,0.307,0.301,0.307h1.048
		c0.168,0,0.303-0.137,0.303-0.307v-0.963c0.02-0.01,0.041-0.01,0.057-0.027l1.64-1.666h0.944l1.062,1.08
		c-0.018,0.038-0.046,0.064-0.046,0.105v1.063c0,0.171,0.137,0.31,0.303,0.31h1.05c0.166,0,0.304-0.139,0.304-0.31V14.23
		l0.904-0.924c0.192,0.146,0.418,0.25,0.68,0.25c0.649,0,1.171-0.534,1.171-1.194C16.005,11.706,15.483,11.171,14.834,11.171z"/>
</g>
</svg>
