<?xml version="1.0" encoding="utf-8"?>
<!-- Generator: Adobe Illustrator 16.0.0, SVG Export Plug-In . SVG Version: 6.00 Build 0)  -->
<!DOCTYPE svg PUBLIC "-//W3C//DTD SVG 1.1//EN" "http://www.w3.org/Graphics/SVG/1.1/DTD/svg11.dtd">
<svg version="1.1" id="图层_1" xmlns="http://www.w3.org/2000/svg" xmlns:xlink="http://www.w3.org/1999/xlink" x="0px" y="0px"
	 width="16px" height="16px" viewBox="0 0 16 16" enable-background="new 0 0 16 16" xml:space="preserve">
<g>
	<path fill="#6686b9" d="M13.934,3.398c-0.716,0.705-2.674,2.703-3.393,3.412L8.828,7.273L8.811,7.268L9.355,5.69l0.373-0.416
		l2.383-2.355l0.521-0.52l0.155-0.152c0.008-0.006-0.114-0.123-0.104-0.124L12.5,1.946l-0.387,0.38L8.982,5.415L8.802,5.597
		L8.011,8.034l0.022,0.005L10.7,7.273c0.731-0.723,2.235-2.295,3.551-3.583l-0.308-0.302C13.939,3.389,13.939,3.398,13.934,3.398z"
		/>
	<path fill="#6686b9" d="M15.677,1.33l-0.799-0.755c-0.14-0.132-0.317-0.198-0.496-0.194s-0.356,0.074-0.489,0.207l-0.267,0.256
		l1.781,1.713c0.101-0.104,0.2-0.195,0.27-0.268c0.138-0.136,0.208-0.311,0.204-0.484C15.881,1.63,15.811,1.46,15.677,1.33z"/>
	<polygon fill="#6686b9" points="12.835,1.665 14.625,3.367 15.096,2.898 13.311,1.197 	"/>
	<path fill="#6686b9" d="M4.848,7.692c0,0.381,0.309,0.69,0.691,0.69h1.308l0.449-1.381H5.539C5.157,7.001,4.848,7.311,4.848,7.692z
		 M6.769,4.54H3.077c-0.382,0-0.691,0.309-0.691,0.69c0,0.382,0.309,0.691,0.691,0.691h3.692c0.382,0,0.691-0.309,0.691-0.691
		C7.46,4.849,7.151,4.54,6.769,4.54z M14.77,4.635v9.213c0,0.338-0.271,0.614-0.615,0.614H1.846c-0.339,0-0.615-0.276-0.615-0.614
		V3.385h8.391l2.569-2.532l-0.008-0.008l0.558-0.537H1.846C0.827,0.308,0,1.134,0,2.154v11.694c0,1.021,0.827,1.846,1.846,1.846
		h12.308c1.019,0,1.846-0.822,1.846-1.846V3.409L14.77,4.635z M11.768,10.152c0-0.381-0.309-0.689-0.688-0.689H7.385
		c-0.382,0-0.691,0.311-0.691,0.689c0,0.383,0.309,0.688,0.691,0.688h3.692C11.459,10.846,11.768,10.535,11.768,10.152z
		 M3.077,13.307h3.692c0.382,0,0.691-0.31,0.691-0.688c0-0.385-0.309-0.689-0.691-0.689H3.077c-0.382,0-0.691,0.312-0.691,0.689
		S2.695,13.307,3.077,13.307z"/>
	<polygon fill="#6686b9" points="10.184,5.908 10.223,6.35 13.568,3.076 13.086,2.625 9.742,5.887 	"/>
</g>
</svg>
