<?xml version="1.0" encoding="utf-8"?>
<!-- Generator: Adobe Illustrator 16.0.0, SVG Export Plug-In . SVG Version: 6.00 Build 0)  -->
<!DOCTYPE svg PUBLIC "-//W3C//DTD SVG 1.1//EN" "http://www.w3.org/Graphics/SVG/1.1/DTD/svg11.dtd">
<svg version="1.1" id="图层_1" xmlns="http://www.w3.org/2000/svg" xmlns:xlink="http://www.w3.org/1999/xlink" x="0px" y="0px"
	 width="16px" height="16px" viewBox="0 0 16 16" enable-background="new 0 0 16 16" xml:space="preserve">
<g>
	<path fill="#6686B9" d="M10.677,11.857l3.072,3.9c0.469,0.452,0.977,0.17,1.197-0.024l0.25-0.248
		c0.188-0.214,0.473-0.656,0.064-1.198l-3.945-3.069c0.316-0.59,0.232-1.339-0.268-1.837c-0.408-0.408-0.982-0.537-1.504-0.399
		l0.951,0.952v1.104H9.392L8.44,10.086c-0.139,0.521-0.01,1.096,0.398,1.504C9.337,12.089,10.087,12.173,10.677,11.857z
		 M14.149,15.152c-0.129-0.129-0.129-0.336,0-0.462c0.125-0.128,0.332-0.128,0.461,0c0.125,0.126,0.125,0.333-0.002,0.462
		C14.481,15.278,14.274,15.278,14.149,15.152z"/>
	<path fill="#6686B9" d="M7.487,8h1.914c0.182-0.04,0.365-0.071,0.551-0.071c0.182,0,0.361,0.021,0.535,0.059V7h-3V8z M7.487,6h3V5
		h-3V6z M9.487,1v1h2v6.453c0.092,0.07,0.186,0.138,0.268,0.221c0.371,0.37,0.592,0.832,0.688,1.317l0.045-0.045V1H9.487z M6.487,5
		h-4v9h4V5z M1.487,15V2h2V1h-3v15h7.245c-0.224-0.319-0.348-0.661-0.372-1H1.487z M8.487,0h-4v3h-2v1h8V3h-2V0z M6.987,2h-1V1h1V2z
		"/>
	<path fill="#6686B9" d="M11.638,11.918l0.342-0.052l2.152-2.15V9.439l1.105-0.553l0.275,0.276l-0.553,1.104h-0.275l-2.18,2.181
		l-0.043,0.294l-2.404,3.092c-0.545,0.208-0.986,0.123-1.201-0.066L8.61,15.52c-0.195-0.221-0.477-0.73-0.025-1.197L11.638,11.918z"
		/>
</g>
</svg>
