<?xml version="1.0" encoding="utf-8"?>
<!-- Generator: Adobe Illustrator 16.0.0, SVG Export Plug-In . SVG Version: 6.00 Build 0)  -->
<!DOCTYPE svg PUBLIC "-//W3C//DTD SVG 1.1//EN" "http://www.w3.org/Graphics/SVG/1.1/DTD/svg11.dtd">
<svg version="1.1" id="图层_1" xmlns="http://www.w3.org/2000/svg" xmlns:xlink="http://www.w3.org/1999/xlink" x="0px" y="0px"
	 width="16px" height="16px" viewBox="0 0 16 16" enable-background="new 0 0 16 16" xml:space="preserve">
<g>
	<path fill="#217BCC" d="M7.729,11.401c-0.012-0.059-0.024-0.118-0.04-0.176c-0.042-0.146-0.091-0.285-0.151-0.414
		c-0.047-0.104-0.1-0.201-0.156-0.295c-0.004-0.006-0.007-0.015-0.011-0.022l-0.001,0.002C7.212,10.232,7.033,9.993,6.846,9.78
		C6.815,9.742,6.796,9.72,6.77,9.688L6.288,9.106C6.075,8.823,5.922,8.533,5.922,8.191c0-1.881,1.384-2.126,1.384-2.952H4.164
		c0,0.826,1.384,1.071,1.384,2.952c0,0.499-0.315,0.888-0.687,1.308c0,0-0.101,0.112-0.236,0.281
		c-0.187,0.213-0.366,0.452-0.525,0.716l-0.001-0.002c-0.004,0.008-0.007,0.017-0.012,0.023c-0.056,0.094-0.108,0.19-0.156,0.294
		c-0.06,0.129-0.109,0.269-0.15,0.414c-0.016,0.058-0.028,0.117-0.04,0.176c-0.041,0.19-0.07,0.391-0.07,0.614H2.579
		c0.006-0.253,0.025-0.481,0.052-0.696c0.007-0.063,0.018-0.118,0.027-0.178c0.023-0.152,0.049-0.3,0.082-0.435
		c0.012-0.048,0.024-0.094,0.036-0.14c0.04-0.146,0.084-0.283,0.133-0.408c0.008-0.02,0.015-0.04,0.022-0.06
		c0.061-0.147,0.127-0.284,0.198-0.408L3.127,9.69c0.68-1.183,1.747-1.306,1.747-2.366c0-1.001-0.948-1.154-1.626-2.158
		C3.251,5.168,3.254,5.17,3.257,5.173C3.078,4.912,2.919,4.594,2.799,4.187C2.795,4.173,2.792,4.157,2.788,4.144
		c-0.05-0.177-0.09-0.373-0.124-0.584C2.657,3.514,2.649,3.47,2.643,3.422C2.61,3.182,2.587,2.923,2.58,2.632h6.311
		c-0.008,0.291-0.031,0.55-0.063,0.791C8.82,3.47,8.813,3.514,8.806,3.559C8.772,3.771,8.732,3.967,8.682,4.144
		C8.678,4.157,8.675,4.173,8.671,4.187c-0.12,0.407-0.279,0.726-0.458,0.986C8.216,5.17,8.219,5.168,8.221,5.166
		C7.543,6.17,6.595,6.323,6.595,7.324c0,0.452,0.199,0.734,0.475,1l0.597-0.597c-0.195-0.183-0.229-0.26-0.229-0.403
		c0-0.175,0.038-0.241,0.471-0.604c0.709-0.597,1.765-1.502,1.824-4.088h0.174c0.288,0,0.521-0.233,0.521-0.522V1.067H1.042v1.042
		c0,0.289,0.233,0.522,0.521,0.522h0.174C1.796,5.218,2.852,6.123,3.561,6.72c0.433,0.363,0.471,0.43,0.471,0.604
		c0,0.19-0.059,0.265-0.48,0.624C3.036,8.386,2.34,9.001,1.978,10.294c-0.005,0.021-0.013,0.038-0.019,0.059
		c-0.053,0.197-0.094,0.417-0.13,0.648c-0.006,0.039-0.017,0.073-0.022,0.114c-0.037,0.275-0.062,0.575-0.07,0.9H1.563
		c-0.288,0-0.521,0.236-0.521,0.522v0.522H0.521C0.233,13.061,0,13.294,0,13.581v0.521h7.966l0-2.087H7.8
		C7.8,11.792,7.771,11.592,7.729,11.401z"/>
	<polygon fill="#217BCC" points="16,13.343 14.411,11.754 14.411,12.594 11.544,12.594 13.806,10.332 14.4,10.926 14.4,8.679 
		12.153,8.679 12.747,9.272 10.471,11.549 10.471,8.684 11.312,8.684 9.721,7.095 8.132,8.684 8.972,8.684 8.972,12.594 
		8.971,12.594 8.971,14.092 14.41,14.092 14.41,14.933 	"/>
</g>
</svg>
