<?xml version="1.0" standalone="no"?>
<!DOCTYPE svg PUBLIC "-//W3C//DTD SVG 1.1//EN"
    "http://www.w3.org/Graphics/SVG/1.1/DTD/svg11.dtd">
<!-- Generator: Adobe Illustrator 16.0.0, SVG Export Plug-In . SVG Version: 6.00 Build 0)  -->
<svg contentScriptType="text/ecmascript" zoomAndPan="magnify" xmlns:xlink="http://www.w3.org/1999/xlink" baseProfile="full"
    contentStyleType="text/css" id="图层_1" enable-background="new 0 0 16 16" version="1.1" xml:space="preserve" width="16px"
    preserveAspectRatio="xMidYMid meet" viewBox="0 0 16 16" height="16px" xmlns="http://www.w3.org/2000/svg" x="0px" y="0px"> 
    <g>  
        <path fill="#6686B9" d="M12.407,9.35c0.228-0.216,0.535-0.348,0.873-0.348h0.815c0.336,0,0.643,0.132,0.871,0.346 
            c0.166,0.003,0.327,0.039,0.477,0.102c0.898-1.581,0.692-3.62-0.656-4.969c-0.996-0.995-2.373-1.374-3.661-1.143 
            c-0.163-0.257-0.351-0.504-0.575-0.728c-1.648-1.647-4.318-1.647-5.967,0C4.086,3.108,3.747,3.7,3.552,4.327 
            C1.584,4.362,0,5.961,0,7.938c0,1.96,1.562,3.548,3.511,3.605v0.01h6.932c0.058-0.194,0.144-0.377,0.279-0.521 
            c0.007-0.324,0.135-0.63,0.36-0.862l0.452-0.449C11.764,9.489,12.075,9.355,12.407,9.35z M4.789,8.167 
            c-0.307-0.742-0.34-1.562-0.088-2.33c0.157-0.479,0.412-0.906,0.758-1.269c0.816-0.857,2.039-1.227,3.19-0.963l0.2,0.045 
            l0.169-0.516l1.116,1.338L8.443,4.891l0.167-0.51L8.355,4.336C7.489,4.181,6.611,4.467,6.008,5.102 
            C5.743,5.38,5.547,5.707,5.426,6.075c-0.193,0.589-0.17,1.213,0.059,1.782L4.789,8.167z 
            M9.352,7.775H9.035L8.82,7.143v0.633H8.432 
            V6.459L7.916,7.775H7.584L6.969,6.188h0.426l0.357,0.994l0.37-0.994h0.767l0.316,0.945l0.324-0.945h0.428v1.587H9.568V7.15 
            L9.352,7.775z M6.162,7.238C6.188,7.304,6.226,7.35,6.277,7.381c0.057,0.033,0.114,0.051,0.178,0.051 
            c0.078,0,0.139-0.021,0.19-0.064c0.052-0.042,0.089-0.111,0.108-0.203L6.777,7.06l0.394,0.097L7.143,7.26 
            C7.099,7.433,7.018,7.565,6.9,7.658c-0.119,0.094-0.263,0.141-0.43,0.141c-0.169,0-0.31-0.035-0.419-0.107 
            C5.939,7.619,5.856,7.516,5.799,7.381c-0.052-0.126-0.08-0.266-0.08-0.41c0-0.159,0.03-0.3,0.094-0.421 
            C5.877,6.425,5.969,6.327,6.09,6.262c0.117-0.064,0.245-0.096,0.383-0.096c0.16,0,0.299,0.043,0.412,0.126 
            c0.111,0.084,0.191,0.202,0.234,0.351l0.029,0.106L6.766,6.84L6.734,6.746C6.711,6.669,6.678,6.612,6.633,6.579 
            C6.592,6.55,6.539,6.533,6.47,6.533c-0.085,0-0.149,0.02-0.202,0.057c-0.054,0.037-0.09,0.086-0.111,0.15 
            c-0.025,0.074-0.037,0.152-0.037,0.23C6.119,7.073,6.133,7.163,6.162,7.238z 
            M11.102,7.937c-0.157,0.48-0.412,0.906-0.758,1.269 
            c-0.816,0.858-2.039,1.229-3.19,0.964l-0.2-0.046l-0.169,0.516L5.668,9.301l1.691-0.417L7.191,9.396l0.254,0.046 
            C8.313,9.596,9.19,9.31,9.795,8.674c0.265-0.278,0.461-0.606,0.582-0.975c0.191-0.59,0.17-1.214-0.059-1.782l0.695-0.312 
            C11.32,6.348,11.354,7.168,11.102,7.937z"/>  
        <path fill="#6686B9" d="M15.728,11.633h-0.54l0.387-0.386c0.106-0.106,0.106-0.277,0-0.383l-0.438-0.441 
            c-0.053-0.051-0.122-0.075-0.191-0.075c-0.07,0-0.141,0.024-0.193,0.075l-0.385,0.386v-0.533c0-0.152-0.122-0.273-0.271-0.273 
            H13.28c-0.151,0-0.272,0.121-0.272,0.273v0.54l-0.385-0.385C12.57,10.377,12.5,10.35,12.43,10.35c-0.068,0-0.138,0.027-0.191,0.081 
            l-0.439,0.437c-0.05,0.052-0.078,0.122-0.078,0.195c0,0.069,0.028,0.139,0.078,0.19l0.383,0.38h-0.535 
            c-0.149,0-0.273,0.121-0.273,0.274v0.814c0,0.148,0.124,0.271,0.273,0.271h0.535l-0.385,0.385c-0.109,0.106-0.109,0.277,0,0.385 
            l0.437,0.436c0.054,0.055,0.122,0.08,0.192,0.08s0.141-0.025,0.193-0.08l0.389-0.387v0.541c0,0.151,0.121,0.272,0.272,0.272h0.815 
            c0.149,0,0.271-0.121,0.271-0.272v-0.541l0.388,0.391c0.051,0.051,0.12,0.078,0.192,0.078s0.143-0.027,0.192-0.078l0.438-0.439 
            c0.051-0.049,0.08-0.119,0.08-0.19c0-0.072-0.029-0.143-0.08-0.192l-0.386-0.387h0.535c0.151,0,0.272-0.123,0.272-0.271v-0.814 
            C16,11.754,15.879,11.633,15.728,11.633z 
            M13.687,13.465c-0.636,0-1.151-0.514-1.151-1.15c0-0.638,0.516-1.153,1.151-1.153 
            s1.151,0.516,1.151,1.153C14.838,12.951,14.322,13.465,13.687,13.465z"/> </g> 
    <path fill="none" d="M 5.92 6.5866666 C 6.0355554 6.4444447 6.0355554 6.4444447 6.0355554 6.4444447 C 6.133333 
        6.417778 6.133333 6.417778 6.133333 6.417778 C 7.04 6.3022223 7.04 6.3022223 7.04 6.3022223 C 7.404444 6.2844443 
        7.404444 6.2844443 7.404444 6.2844443 C 9.333333 6.2844443 9.333333 6.2844443 9.333333 6.2844443 C 9.617778 
        6.3377776 9.617778 6.3377776 9.617778 6.3377776 C 9.795555 6.4533334 9.795555 6.4533334 9.795555 6.4533334 C 
        9.848889 6.7644444 9.848889 6.7644444 9.848889 6.7644444 C 9.804444 7.4844446 9.804444 7.4844446 9.804444 
        7.4844446 C 9.777778 7.5555553 9.777778 7.5555553 9.777778 7.5555553 C 9.671111 7.6444445 9.671111 7.6444445 
        9.671111 7.6444445 C 9.466666 7.7066665 9.466666 7.7066665 9.466666 7.7066665 C 9.048889 7.751111 9.048889 
        7.751111 9.048889 7.751111 C 8.631111 7.751111 8.631111 7.751111 8.631111 7.751111 C 8.088889 7.7955556 8.088889 
        7.7955556 8.088889 7.7955556 C 6.8533335 7.7955556 6.8533335 7.7955556 6.8533335 7.7955556 C 6.5066667 7.7244444 
        6.5066667 7.7244444 6.5066667 7.7244444 C 6.168889 7.5733333 6.168889 7.5733333 6.168889 7.5733333 C 6.0266666 
        7.457778 6.0266666 7.457778 6.0266666 7.457778 C 5.928889 7.351111 5.928889 7.351111 5.928889 7.351111 C 
        5.866667 7.1822224 5.866667 7.1822224 5.866667 7.1822224 C 5.866667 7.0311112 5.866667 7.0311112 5.866667 
        7.0311112 C 5.911111 6.9511113 5.911111 6.9511113 5.911111 6.9511113 C 6.0088887 6.862222 6.0088887 6.862222 
        6.0088887 6.862222 C 6.24 6.791111 6.24 6.791111 6.24 6.791111 C 6.7377777 6.7822223 6.7377777 6.7822223 
        6.7377777 6.7822223 C 7.2533336 6.826667 7.2533336 6.826667 7.2533336 6.826667 C 9.3955555 6.8177776 9.3955555 
        6.8177776 9.3955555 6.8177776" stroke="#6686B9"/></svg>