<?xml version="1.0" encoding="utf-8"?>
<!-- Generator: Adobe Illustrator 16.0.0, SVG Export Plug-In . SVG Version: 6.00 Build 0)  -->
<!DOCTYPE svg PUBLIC "-//W3C//DTD SVG 1.1//EN" "http://www.w3.org/Graphics/SVG/1.1/DTD/svg11.dtd">
<svg version="1.1" id="图层_1" xmlns="http://www.w3.org/2000/svg" xmlns:xlink="http://www.w3.org/1999/xlink" x="0px" y="0px"
	 width="16px" height="16px" viewBox="0 0 16 16" enable-background="new 0 0 16 16" xml:space="preserve">
<g>
	<path fill="#6686B9" d="M0,15.309h7.747V0.217H0V15.309z M3.874,13.785c-0.536,0-0.97-0.434-0.97-0.969
		c0-0.537,0.434-0.973,0.97-0.973c0.535,0,0.969,0.436,0.969,0.973C4.843,13.352,4.409,13.785,3.874,13.785z M1.109,1.474h5.532
		v1.509H1.109V1.474z M1.109,4.242h5.532v1.51H1.109V4.242z M1.109,7.009h5.532v1.508H1.109V7.009z"/>
	<rect fill="#6686B9" x="8.465" y="5.232" width="4.392" height="1.254"/>
	<rect fill="#6686B9" x="8.465" y="0.217" width="4.392" height="1.253"/>
	<rect fill="#6686B9" x="8.465" y="2.734" width="7.535" height="1.253"/>
	<path fill="#6686B9" d="M15.604,11.443h-0.783l0.562-0.561c0.153-0.154,0.153-0.402,0-0.555l-0.636-0.641
		c-0.076-0.074-0.178-0.109-0.277-0.109c-0.103,0-0.204,0.035-0.28,0.109l-0.558,0.561V9.473c0-0.221-0.178-0.395-0.394-0.395
		h-1.184c-0.22,0-0.396,0.174-0.396,0.395v0.785L11.1,9.699c-0.076-0.078-0.179-0.117-0.278-0.117s-0.199,0.039-0.277,0.117
		l-0.638,0.633c-0.072,0.076-0.114,0.178-0.114,0.283c0,0.102,0.042,0.201,0.114,0.275l0.554,0.553H9.685
		c-0.217,0-0.396,0.176-0.396,0.396v1.182c0,0.217,0.18,0.395,0.396,0.395h0.775l-0.559,0.559c-0.157,0.154-0.157,0.402,0,0.557
		l0.635,0.633c0.077,0.08,0.178,0.117,0.279,0.117c0.1,0,0.202-0.037,0.277-0.117l0.566-0.561v0.785
		c0,0.219,0.176,0.395,0.396,0.395h1.184c0.216,0,0.394-0.176,0.394-0.395v-0.785l0.562,0.566c0.074,0.074,0.174,0.113,0.28,0.113
		c0.105,0,0.205-0.039,0.277-0.113l0.638-0.639c0.074-0.07,0.116-0.172,0.116-0.275c0-0.105-0.042-0.205-0.116-0.279l-0.56-0.561
		h0.775c0.22,0,0.396-0.178,0.396-0.395V11.84C16,11.619,15.824,11.443,15.604,11.443z M12.645,14.1
		c-0.924,0-1.671-0.744-1.671-1.668c0-0.926,0.747-1.674,1.671-1.674c0.923,0,1.669,0.748,1.669,1.674
		C14.313,13.355,13.567,14.1,12.645,14.1z"/>
</g>
</svg>
