<?xml version="1.0" encoding="utf-8"?>
<!-- Generator: Adobe Illustrator 16.0.0, SVG Export Plug-In . SVG Version: 6.00 Build 0)  -->
<!DOCTYPE svg PUBLIC "-//W3C//DTD SVG 1.1//EN" "http://www.w3.org/Graphics/SVG/1.1/DTD/svg11.dtd">
<svg version="1.1" id="图层_1" xmlns="http://www.w3.org/2000/svg" xmlns:xlink="http://www.w3.org/1999/xlink" x="0px" y="0px"
	 width="16px" height="16px" viewBox="0 0 16 16" enable-background="new 0 0 16 16" xml:space="preserve">
<g>
	<g>
		<path fill="#6686B9" d="M3.081,6.857h8V5.714h-8V6.857z M4.225,0L0.796,3.572V16h10.226l-0.804-1.143h-8.28V4.571h3.429V1.143
			h6.855v7.526l1.144-0.153V0H4.225z M3.081,9.143h5.616l2.384-0.313V8h-8V9.143z M3.081,10.285v1.143h4.724l-0.804-1.143H3.081z
			 M3.081,13.715h6.331l-0.803-1.143H3.081V13.715z"/>
		<path fill="#6686B9" d="M11.311,14.424l-2.875-4.093l4.958-0.665l-0.354,0.816c0,0,3.124,2.176,1.875,5.518
			c0,0-1.433-2.84-3.084-2.752L11.311,14.424z"/>
	</g>
</g>
</svg>
