<?xml version="1.0" encoding="utf-8"?>
<!-- Generator: Adobe Illustrator 16.0.0, SVG Export Plug-In . SVG Version: 6.00 Build 0)  -->
<!DOCTYPE svg PUBLIC "-//W3C//DTD SVG 1.1//EN" "http://www.w3.org/Graphics/SVG/1.1/DTD/svg11.dtd">
<svg version="1.1" id="图层_1" xmlns="http://www.w3.org/2000/svg" xmlns:xlink="http://www.w3.org/1999/xlink" x="0px" y="0px"
	 width="210px" height="130px" viewBox="0 0 210 130" enable-background="new 0 0 210 130" xml:space="preserve">
<g>
	<g>
		<path fill="#436bb3" d="M145.176,16.03c-5.426,0-10.682,1.186-15.467,3.393C125.945,8.018,115.094,0,102.887,0
			c-9.554,0-18.261,4.771-23.521,12.681c-0.539,0.771-1.046,1.562-1.477,2.424c-0.339,0.676-0.07,1.486,0.603,1.831
			c0.198,0.096,0.408,0.147,0.612,0.147c0.501,0,0.979-0.274,1.219-0.752c0.255-0.504,0.539-0.982,0.839-1.455
			c4.107-5.62,10.585-8.937,17.602-8.937c11.282,0,20.588,8.611,21.694,19.608l0.045,1.25c-1.18,1.212-2.244,2.533-3.199,3.98
			c-0.018,0.026-0.037,0.063-0.055,0.095c-0.324,0.593-0.143,1.346,0.432,1.729c0.609,0.396,1.428,0.229,1.828-0.376
			c0.207-0.313,0.551-0.76,0.768-1.06c1.168-1.32,2.303-2.379,3.639-3.476c5.543-3.955,12.146-6.085,19.133-6.085
			c18.266,0,33.129,14.862,33.129,33.125c0,15.384-10.783,28.876-25.711,32.289c-0.365,0.045-0.732,0.096-1.102,0.127
			c-0.729,0.057-1.268,0.695-1.207,1.422c0.059,0.689,0.635,1.207,1.311,1.207c0.039,0,0.074,0,0.113-0.008
			c2.109-0.178,4.135-0.58,6.113-1.225c15.605-4.527,26.375-18.938,26.375-35.624C182.068,32.576,165.52,16.03,145.176,16.03z"/>
		<g>
			<path fill="#436bb3" d="M148.908,61.809c-0.789-1.384-1.891-2.532-3.303-3.444c-1.41-0.906-3.125-1.671-5.135-2.309
				c-2.016-0.638-4.264-1.218-6.748-1.742c-1.982-0.453-3.404-0.797-4.266-1.033s-1.713-0.562-2.555-0.982
				c-0.842-0.415-1.498-0.913-1.98-1.492c-0.484-0.581-0.725-1.276-0.725-2.073c0-1.289,0.709-2.386,2.119-3.305
				c1.412-0.912,3.271-1.371,5.574-1.371c2.484,0,4.287,0.42,5.41,1.262c1.119,0.842,2.082,2.016,2.883,3.528
				c0.621,1.052,1.195,1.805,1.729,2.265c0.529,0.465,1.309,0.695,2.328,0.695c1.123,0,2.057-0.383,2.811-1.155
				c0.748-0.771,1.125-1.633,1.125-2.602c0-1.046-0.301-2.124-0.9-3.234c-0.605-1.104-1.555-2.163-2.857-3.17
				c-1.301-1.008-2.939-1.812-4.91-2.424c-1.973-0.605-4.312-0.912-7.018-0.912c-3.383,0-6.328,0.459-8.83,1.377
				c-2.504,0.913-4.418,2.227-5.738,3.93c-1.32,1.709-1.984,3.655-1.984,5.855c0,2.296,0.625,4.229,1.879,5.779
				c1.25,1.55,2.943,2.781,5.078,3.674c2.133,0.899,4.781,1.685,7.947,2.354c2.361,0.491,4.252,0.957,5.66,1.391
				c1.41,0.434,2.564,1.065,3.455,1.888c0.893,0.823,1.336,1.907,1.336,3.227c0,1.672-0.822,3.062-2.475,4.178
				c-1.656,1.117-3.801,1.672-6.445,1.672c-1.924,0-3.477-0.273-4.656-0.83c-1.184-0.555-2.1-1.256-2.75-2.111
				c-0.65-0.848-1.256-1.912-1.818-3.182c-0.461-1.072-1.018-1.875-1.668-2.417s-1.447-0.816-2.389-0.816
				c-1.16,0-2.117,0.351-2.867,1.045c-0.752,0.697-1.129,1.539-1.129,2.521c0,1.684,0.625,3.424,1.879,5.211
				c1.25,1.785,2.879,3.215,4.883,4.279c2.822,1.486,6.408,2.232,10.754,2.232c3.627,0,6.762-0.549,9.402-1.625
				c2.648-1.092,4.654-2.598,6.025-4.523c1.375-1.92,2.061-4.088,2.061-6.5C150.1,64.903,149.703,63.199,148.908,61.809z"/>
			<path fill="#436bb3" d="M103.148,45.85c-0.539-1.289-0.982-2.315-1.333-3.087c-0.354-0.771-0.781-1.493-1.296-2.168
				c-0.507-0.67-1.183-1.218-2.012-1.64c-0.833-0.427-1.866-0.644-3.109-0.644c-1.222,0-2.249,0.217-3.081,0.644
				c-0.83,0.421-1.499,0.982-2.013,1.671c-0.507,0.689-0.988,1.557-1.438,2.596c-0.36,0.836-0.666,1.544-0.944,2.182
				c-0.507,1.18-7.808,18.02-9.149,21.113c-0.603,1.385-1.445,2.762-2.204,3.879c-0.728,1.053-1.537,2.027-2.411,2.934
				c-0.552,0.473-1.011,0.918-1.381,1.34c-4.245,3.744-9.753,5.881-15.535,5.881c-12.949,0-23.48-10.537-23.48-23.479
				c0-12.949,10.531-23.48,23.48-23.48c8.075,0,15.49,4.076,19.828,10.908c1.112,1.754,3.438,2.271,5.191,1.161
				c1.755-1.116,2.274-3.438,1.162-5.192c-5.729-9.02-15.517-14.403-26.182-14.403c-17.095,0-31.007,13.905-31.007,31.007
				c0,17.094,13.912,31.006,31.007,31.006c8.739,0.51,17.124-3.055,21.958-8c0.017-0.018,0.036-0.025,0.055-0.051
				C79.261,80.02,79.27,80.008,79.28,80l0.038-0.043c4.727-4.785,7.157-10.596,7.157-10.596h17.908l2.102,5.008
				c0.281,0.617,0.615,1.332,1.008,2.137c0.389,0.803,0.754,1.41,1.094,1.799c0.342,0.389,0.764,0.695,1.268,0.924
				c0.496,0.223,1.096,0.338,1.797,0.338c1.203,0,2.23-0.383,3.082-1.154s1.275-1.619,1.275-2.545c0-0.893-0.449-2.314-1.35-4.268
				L103.148,45.85z M88.819,63.295l6.52-16.463l6.64,16.463H88.819z"/>
		</g>
	</g>
</g>
</svg>
