<?xml version="1.0" encoding="utf-8"?>
<!-- Generator: Adobe Illustrator 16.0.0, SVG Export Plug-In . SVG Version: 6.00 Build 0)  -->
<!DOCTYPE svg PUBLIC "-//W3C//DTD SVG 1.1//EN" "http://www.w3.org/Graphics/SVG/1.1/DTD/svg11.dtd">
<svg version="1.1" id="图层_1" xmlns="http://www.w3.org/2000/svg" xmlns:xlink="http://www.w3.org/1999/xlink" x="0px" y="0px"
	 width="16px" height="16px" viewBox="0 0 16 16" enable-background="new 0 0 16 16" xml:space="preserve">
<g>
	<path fill="#217BCC" d="M9.129,9.302V4.905H4.203v9.248h2.63c-0.112-0.367-0.19-0.748-0.19-1.152
		C6.643,11.33,7.673,9.9,9.129,9.302z"/>
	<path fill="#217BCC" d="M3.588,14.773V2.458h6.158v6.651C10.035,9.043,10.334,9,10.643,9c0.115,0,0.224,0.023,0.336,0.034V1.843
		c0-0.34-0.28-0.611-0.619-0.611H8.514V0.53C8.514,0.234,8.274,0,7.98,0H5.353C5.057,0,4.822,0.234,4.822,0.53v0.701h-1.85
		c-0.338,0-0.614,0.271-0.614,0.611v13.547C2.358,15.725,2.634,16,2.972,16h5.053c-0.392-0.342-0.713-0.756-0.948-1.227H3.588z"/>
	<path fill="#F74848" d="M10.643,10c-1.653,0-3,1.346-3,3s1.346,3,3,3c1.654,0,3-1.346,3-3S12.297,10,10.643,10z M12.148,14.045
		l-0.459,0.461l-1.047-1.045l-1.045,1.045l-0.462-0.461L10.184,13l-1.047-1.045l0.461-0.461l1.045,1.045l1.047-1.045l0.459,0.461
		L11.104,13L12.148,14.045z"/>
</g>
</svg>
