<?xml version="1.0" encoding="utf-8"?>
<!-- Generator: Adobe Illustrator 19.2.1, SVG Export Plug-In . SVG Version: 6.00 Build 0)  -->
<svg version="1.1" id="图层_1" xmlns="http://www.w3.org/2000/svg" xmlns:xlink="http://www.w3.org/1999/xlink" x="0px" y="0px"
	 viewBox="0 0 16 16" style="enable-background:new 0 0 16 16;" width="16" height="16" xml:space="preserve">
<style type="text/css">
	.st0{fill:#84878a;}
</style>
<g>
	<g>
		<path class="st0" d="M14.2,1.2H1.8C0.8,1.2,0,2.1,0,3.1v9.8c0,1,0.8,1.8,1.8,1.8h12.3c1,0,1.8-0.8,1.8-1.8V3.1
			C16,2.1,15.2,1.2,14.2,1.2z M14.8,12.9c0,0.3-0.3,0.6-0.6,0.6H1.8c-0.3,0-0.6-0.3-0.6-0.6V5.5h13.5V12.9z"/>
		<g>
			<rect x="8.1" y="10.1" class="st0" width="5.4" height="1.6"/>
			<polygon class="st0" points="4.2,6.3 2.3,6.3 5,9 2.3,11.7 4.2,11.7 6.9,9 			"/>
		</g>
	</g>
</g>
</svg>
