<?xml version="1.0" standalone="no"?>
<!DOCTYPE svg PUBLIC "-//W3C//DTD SVG 1.1//EN"

    "http://www.w3.org/Graphics/SVG/1.1/DTD/svg11.dtd">
<!-- Generator: Adobe Illustrator 16.0.0, SVG Export Plug-In . SVG Version: 6.00 Build 0)  -->
<svg contentScriptType="text/ecmascript" zoomAndPan="magnify" xmlns:xlink="http://www.w3.org/1999/xlink" baseProfile="full"
    contentStyleType="text/css" id="图层_1" enable-background="new 0 0 16 16" version="1.1" xml:space="preserve" width="16px"
    preserveAspectRatio="xMidYMid meet" viewBox="0 0 16 16" height="16px" xmlns="http://www.w3.org/2000/svg" x="0px" y="0px"> 
    <g>  
        <path fill="#217BCC" d=
            "M11.107,14.695L1.12,14.58l0.116-9.986l3.33,0.038l0.039-3.331l6.661,0.08l-0.062,4.593l1.126-1.146 
            l0.061-4.546L3.508,0.179L0.14,3.468L0,15.678l12.206,0.146l0.037-4.375l0.002-0.188c-0.438,0.462-0.824,0.865-1.122,1.175 
            L11.107,14.695z"/>    
        <polygon fill="#217BCC" points="2.038,8 2.038,9.02 8.212,9.02 9.212,8"/>  
        <polygon fill="#217BCC" points="2.038,10.105 2.038,11.124 7.118,11.124 7.438,10.105"/>  
        <polygon fill="#217BCC" points="2.038,12.211 2.038,13.23 6.458,13.23 6.775,12.211"/>  
        <g>   
            <path fill="#217BCC" d=
                "M13.844,7.747c-0.793,0.808-2.967,3.093-3.76,3.899l-1.898,0.524L8.169,12.17l0.604-1.805l0.41-0.479 
                l2.641-2.689l0.583-0.596l0.172-0.174c0.009-0.008-0.127-0.14-0.119-0.146l-0.2-0.196l-0.426,0.434l-3.469,3.532l-0.207,0.211 
                l-0.875,2.786l0.023,0.004l2.954-0.872c0.809-0.828,2.479-2.623,3.93-4.1l-0.336-0.346C13.848,7.737,13.848,7.745,13.844,7.747z"/>   
            <path fill="#217BCC" d=
                "M15.77,5.38l-0.879-0.866c-0.154-0.149-0.353-0.22-0.552-0.217c-0.198,0.001-0.396,0.079-0.546,0.233 
                l-0.291,0.292l1.973,1.96c0.115-0.116,0.229-0.227,0.303-0.307C15.927,6.324,16,6.124,16,5.923C16,5.725,15.921,5.53,15.77,5.38z"/>       
            <rect width="2.779" fill="#217BCC" x="12.486" height="0.746" y="6.096" transform="matrix(-0.7126 -0.7016 0.7016 -0.7126 19.2258 20.814)"/>   
            <polygon fill="#217BCC" points="9.688,10.615 9.73,11.121 13.438,7.383 12.906,6.861 9.201,10.598"/>  </g> </g> 
    <path fill="#217BCC" d="M 10.38 7.1738467 l -0.8833847 -1.9958978 l 0.0 0.0 l 0.0 0.0 l 0.0 0.0 l 0.0 0.0 c 0.0 0.0 
        0.08030796 -0.07128143 0.08030796 -0.14256382 c 0.0 0.0 0.0 0.0 0.0 0.0 l -0.08030796 -0.28512812 c 0.0 0.0 0.0 
        0.0 0.0 0.0 c 0.0 0.0 0.0 0.0 0.0 0.0 l 0.32123184 -0.07128191 c 0.08030605 0.0 0.08030605 -0.07128239 
        0.16061401 -0.07128239 l 0.08030796 -0.07128191 c 0.0 0.0 0.0 0.0 0.0 -0.07128239 c 0.0 0.0 0.0 -0.07128143 0.0 
        -0.07128143 l -0.16061592 -0.2851286 c 0.0 0.0 0.0 0.0 0.0 0.0 c 0.0 0.0 0.0 0.0 0.0 0.0 l 0.3212309 -0.2138462 
        c 0.080308914 0.0 0.080308914 -0.07128191 0.080308914 -0.14256406 c 0.0 0.0 0.0 0.0 0.0 -0.07128167 c 0.0 
        -0.07128239 0.0 -0.07128239 0.0 -0.07128239 c 0.0 -0.07128215 0.0 -0.07128215 -0.080308914 -0.14256406 l 
        -0.3212309 -0.2138462 c 0.0 0.0 0.0 0.0 0.0 0.0 c 0.0 0.0 0.0 0.0 0.0 0.0 L 9.978461 3.0394878 c 0.0 0.0 0.0 
        -0.07128215 0.0 -0.07128215 c 0.0 0.0 0.0 -0.07128239 0.0 -0.07128239 L 9.978461 2.8256412 c 0.0 -0.07128167 
        -0.08030796 -0.07128167 -0.16061401 -0.07128167 l -0.32123184 -0.07128239 c 0.0 0.0 0.0 0.0 0.0 0.0 c 0.0 0.0 
        0.0 0.0 0.0 0.0 l 0.08030796 -0.28512788 c 0.0 0.0 0.0 0.0 0.0 0.0 c 0.0 -0.07128239 0.0 -0.07128239 -0.08030796 
        -0.14256406 L 9.416307 2.1128206 c 0.0 0.0 -0.08030605 -0.07128167 -0.16061497 -0.07128167 c 0.0 0.0 0.0 0.0 0.0 
        0.0 L 8.934462 2.1128206 c 0.0 0.0 0.0 0.0 0.0 0.0 c 0.0 0.0 0.0 0.0 0.0 0.0 l -0.08030701 -0.285128 c 0.0 
        -0.07128227 -0.08030701 -0.07128227 -0.08030701 -0.14256406 l -0.08030796 -0.07128227 c 0.0 0.0 0.0 0.0 
        -0.08030796 0.0 c 0.0 0.0 -0.08030796 0.0 -0.08030796 0.0 l -0.32122993 0.14256406 c 0.0 0.0 0.0 0.0 0.0 0.0 c 
        0.0 0.0 0.0 0.0 0.0 0.0 l -0.24092388 -0.285128 c 0.0 -0.07128227 -0.08030796 -0.07128227 -0.16061592 
        -0.07128227 c 0.0 0.0 0.0 0.0 -0.08030701 0.0 c -0.08030701 0.0 -0.08030701 0.0 -0.08030701 0.0 c -0.08030796 
        0.0 -0.08030796 0.0 -0.16061687 0.07128227 l -0.24092293 0.285128 c 0.0 0.0 0.0 0.0 0.0 0.0 c 0.0 0.0 0.0 0.0 
        0.0 0.0 l -0.3212304 -0.14256406 c 0.0 0.0 -0.08030748 0.0 -0.08030748 0.0 c 0.0 0.0 -0.08030796 0.0 -0.08030796 
        0.0 L 6.766154 1.6851286 c -0.08030701 0.0 -0.08030701 0.07128227 -0.08030701 0.14256406 L 6.605539 2.1128206 c 
        0.0 0.0 0.0 0.0 0.0 0.0 c 0.0 0.0 0.0 0.0 0.0 0.0 l -0.32123137 -0.07128167 c 0.0 0.0 0.0 0.0 0.0 0.0 c 
        -0.08030701 0.0 -0.08030701 0.0 -0.16061449 0.07128167 L 5.9630766 2.1841033 c 0.0 0.0 -0.08030701 0.07128191 
        -0.08030701 0.14256406 c 0.0 0.0 0.0 0.0 0.0 0.0 L 5.9630766 2.611795 c 0.0 0.0 0.0 0.0 0.0 0.0 c 0.0 0.0 0.0 
        0.0 0.0 0.0 L 5.641846 2.6830776 C 5.5615387 2.754359 5.5615387 2.754359 5.4812303 2.8256412 L 5.4812303 
        2.8969238 c 0.0 0.0 0.0 0.0 0.0 0.07128191 c 0.0 0.0 0.0 0.07128215 0.0 0.07128215 l 0.16061544 0.28512812 c 0.0 
        0.0 0.0 0.0 0.0 0.0 c 0.0 0.0 0.0 0.0 0.0 0.0 L 5.400923 3.4671798 c -0.08030748 0.0 -0.08030748 0.07128191 
        -0.08030748 0.14256406 c 0.0 0.0 0.0 0.0 0.0 0.07128191 c 0.0 0.07128215 0.0 0.07128215 0.0 0.07128215 c 0.0 
        0.07128215 0.0 0.07128215 0.08030748 0.14256382 l 0.3212309 0.21384668 c 0.0 0.0 0.0 0.0 0.0 0.0 c 0.0 0.0 0.0 
        0.0 0.0 0.0 l -0.16061497 0.28512812 c 0.0 0.0 0.0 0.07128191 0.0 0.07128191 c 0.0 0.0 0.0 0.07128239 0.0 
        0.07128239 l 0.08030748 0.07128143 c 0.0 0.07128239 0.08030748 0.07128239 0.16061544 0.07128239 l 0.32123137 
        0.07128239 c 0.0 0.0 0.0 0.0 0.0 0.0 c 0.0 0.0 0.0 0.0 0.0 0.0 L 5.9630766 5.035385 c 0.0 0.0 0.0 0.0 0.0 0.0 c 
        0.0 0.07128239 0.0 0.07128239 0.08030796 0.14256382 l 0.0 0.0 L 5.16 7.1738467 c 0.0 0.07128191 0.0 0.07128191 
        0.08030796 0.07128191 l 0.9636917 -0.07128191 c 0.08030796 0.0 0.08030796 0.0 0.1606164 0.07128191 l 0.6424608 
        0.6415386 c 0.0 0.0 0.08030796 0.0 0.08030796 0.0 l 0.72276974 -1.9958973 c 0.0 0.0 0.0 0.0 0.08030701 0.0 c 0.0 
        0.0 0.0 0.0 0.08030796 0.0 s 0.08030796 0.0 0.08030796 0.0 c 0.0 0.0 0.0 0.0 0.08030796 0.0 l 0.7227688 
        1.9246154 c 0.0 0.07128191 0.08030796 0.07128191 0.08030796 0.0 l 0.6424618 -0.6415386 c 0.0 0.0 0.08030701 
        -0.07128191 0.16061401 -0.07128191 L 10.38 7.1738467 C 10.299693 7.2451286 10.38 7.1738467 10.38 7.1738467 z M 
        7.7298465 5.2492304 c -0.96369267 0.0 -1.7667694 -0.71282005 -1.7667694 -1.5682049 S 6.766154 2.1128206 
        7.7298465 2.1128206 s 1.7667685 0.71282053 1.7667685 1.5682056 S 8.69354 5.2492304 7.7298465 5.2492304 z"/></svg>
