<?xml version="1.0" encoding="utf-8"?>
<!-- Generator: Adobe Illustrator 16.0.0, SVG Export Plug-In . SVG Version: 6.00 Build 0)  -->
<!DOCTYPE svg PUBLIC "-//W3C//DTD SVG 1.1//EN" "http://www.w3.org/Graphics/SVG/1.1/DTD/svg11.dtd">
<svg version="1.1" id="图层_1" xmlns="http://www.w3.org/2000/svg" xmlns:xlink="http://www.w3.org/1999/xlink" x="0px" y="0px"
	 width="16px" height="16px" viewBox="0 0 16 16" enable-background="new 0 0 16 16" xml:space="preserve">
<g>
	<path fill="#6686B9" d="M4.053,6.518V5.266c0-0.03-0.025-0.055-0.055-0.055H2.746c-0.029,0-0.057,0.024-0.057,0.055v1.252
		c0,0.03,0.027,0.056,0.057,0.056h1.252C4.027,6.574,4.053,6.548,4.053,6.518z"/>
	<path fill="#6686B9" d="M2.631,8.67h7.873c0.348-0.282,0.74-0.504,1.17-0.657v-0.24H2.631V8.67z"/>
	<path fill="#6686B9" d="M1.668,12.346c-0.307,0-0.557-0.25-0.557-0.555V4.01h12.227v3.794c0.389,0.033,0.764,0.11,1.111,0.247
		V2.898c0-0.921-0.746-1.667-1.666-1.667H1.668C0.748,1.231,0,1.977,0,2.898v8.893c0,0.92,0.748,1.666,1.668,1.666h7.719
		c-0.162-0.346-0.271-0.719-0.328-1.111H1.668z"/>
	<path fill="#6686B9" d="M6.594,6.518V5.266c0-0.03-0.027-0.055-0.057-0.055h-1.25c-0.031,0-0.057,0.024-0.057,0.055v1.252
		c0,0.03,0.025,0.056,0.057,0.056h1.25C6.566,6.574,6.594,6.548,6.594,6.518z"/>
	<path fill="#6686B9" d="M2.631,10.721h6.527c0.086-0.316,0.211-0.617,0.369-0.896H2.631V10.721z"/>
	<path fill="#6686B9" d="M11.674,5.266c0-0.03-0.027-0.055-0.057-0.055h-1.25c-0.031,0-0.057,0.024-0.057,0.055v1.252
		c0,0.03,0.021,0.056,0.057,0.056h1.25c0.029,0,0.057-0.025,0.057-0.056V5.266z"/>
	<path fill="#6686B9" d="M9.133,6.518V5.266c0-0.03-0.025-0.055-0.057-0.055h-1.25c-0.029,0-0.057,0.024-0.057,0.055v1.252
		c0,0.03,0.027,0.056,0.057,0.056h1.25C9.107,6.574,9.133,6.548,9.133,6.518z"/>
	<path fill="#6686B9" d="M13,8.77c-1.656,0-3,1.351-3,3c0,1.658,1.344,3,3,3c1.658,0,3-1.342,3-3C16,10.113,14.658,8.77,13,8.77z
		 M13.572,13.732h-1.174l-0.861-3.924h0.988l0.467,3.022h0.012l0.471-3.022h0.99L13.572,13.732z"/>
</g>
</svg>
