<?xml version="1.0" encoding="utf-8"?>
<!-- Generator: Adobe Illustrator 16.0.0, SVG Export Plug-In . SVG Version: 6.00 Build 0)  -->
<!DOCTYPE svg PUBLIC "-//W3C//DTD SVG 1.1//EN" "http://www.w3.org/Graphics/SVG/1.1/DTD/svg11.dtd">
<svg version="1.1" id="图层_1" xmlns="http://www.w3.org/2000/svg" xmlns:xlink="http://www.w3.org/1999/xlink" x="0px" y="0px"
	 width="16px" height="16px" viewBox="0 0 16 16" enable-background="new 0 0 16 16" xml:space="preserve">
<g>
	<g>
		<g>
			<path fill="#6686B9" d="M9.628,4.496l4.96,2.199l-0.339-5.41l-0.793,0.549c0,0-2.968-2.857-6.257-0.83
				c0,0,3.315,0.918,3.576,2.697L9.628,4.496z"/>
		</g>
	</g>
	<g>
		<g>
			<path fill="#6686B9" d="M5.65,11.504L0.689,9.305l0.34,5.41l0.788-0.549c0,0,2.968,2.859,6.26,0.83c0,0-3.315-0.916-3.574-2.697
				L5.65,11.504z"/>
		</g>
	</g>
	<path fill="#6686B9" d="M15.564,10.066h-0.871l0.623-0.619c0.172-0.17,0.172-0.445,0-0.615l-0.702-0.708
		c-0.083-0.082-0.195-0.121-0.306-0.121c-0.115,0-0.226,0.039-0.31,0.121l-0.618,0.62V7.887c0-0.243-0.195-0.438-0.438-0.438h-1.305
		c-0.246,0-0.438,0.194-0.438,0.438v0.867l-0.619-0.617c-0.084-0.086-0.198-0.129-0.306-0.129c-0.111,0-0.224,0.043-0.307,0.129
		L9.262,8.838C9.182,8.92,9.133,9.033,9.133,9.15c0,0.111,0.049,0.225,0.129,0.307l0.612,0.609H9.017
		c-0.238,0-0.438,0.193-0.438,0.438v1.311c0,0.236,0.2,0.434,0.438,0.434h0.857l-0.619,0.617c-0.173,0.17-0.173,0.443,0,0.617
		l0.702,0.699c0.087,0.088,0.198,0.129,0.31,0.129c0.11,0,0.223-0.041,0.309-0.129l0.625-0.621v0.869
		c0,0.242,0.192,0.438,0.438,0.438h1.305c0.242,0,0.438-0.195,0.438-0.438v-0.869l0.622,0.627c0.085,0.082,0.19,0.125,0.31,0.125
		c0.114,0,0.227-0.043,0.309-0.125l0.704-0.705c0.081-0.078,0.128-0.191,0.128-0.305c0-0.117-0.047-0.229-0.128-0.309l-0.621-0.621
		h0.86c0.242,0,0.436-0.197,0.436-0.434v-1.311C16,10.26,15.807,10.066,15.564,10.066z M12.287,13.006
		c-1.02,0-1.846-0.824-1.846-1.846c0-1.023,0.826-1.852,1.846-1.852c1.024,0,1.85,0.828,1.85,1.852
		C14.137,12.182,13.312,13.006,12.287,13.006z"/>
	<g>
		<rect fill="#6686B9" y="4.799" width="4.748" height="1.232"/>
		<rect fill="#6686B9" y="6.728" width="6.81" height="1.229"/>
	</g>
	<g>
		<rect fill="#6686B9" y="0.503" width="4.748" height="1.233"/>
		<rect fill="#6686B9" y="2.433" width="6.81" height="1.229"/>
	</g>
</g>
</svg>
