<?xml version="1.0" encoding="utf-8"?>
<!-- Generator: Adobe Illustrator 16.0.0, SVG Export Plug-In . SVG Version: 6.00 Build 0)  -->
<!DOCTYPE svg PUBLIC "-//W3C//DTD SVG 1.1//EN" "http://www.w3.org/Graphics/SVG/1.1/DTD/svg11.dtd">
<svg version="1.1" id="图层_1" xmlns="http://www.w3.org/2000/svg" xmlns:xlink="http://www.w3.org/1999/xlink" x="0px" y="0px"
	 width="16px" height="16px" viewBox="0 0 16 16" enable-background="new 0 0 16 16" xml:space="preserve">
<g>
	<path fill="#217BCC" d="M4.014,12.936h5.12c-0.203-0.479-0.314-1.008-0.314-1.561c0-1.431,0.757-2.681,1.887-3.395V1.465H4.014
		V12.936z M7.36,11.776c-0.408,0-0.737-0.33-0.737-0.736c0-0.408,0.329-0.738,0.737-0.738s0.737,0.33,0.737,0.738
		C8.097,11.446,7.768,11.776,7.36,11.776z M4.97,2.421h4.78v1.146H4.97V2.421z M4.97,4.523h4.78V5.67H4.97V4.523z M4.97,6.627h4.78
		v1.146H4.97V6.627z M11.256,2.324v0.813h2.652v0.975h-2.652v0.813h2.652V5.9h-2.652v0.812h2.652v0.806
		c0.285,0.079,0.555,0.188,0.812,0.326v-5.52H11.256z M0,12.075h3.464v-1.562c-0.025,0.321-0.291,0.577-0.62,0.577
		c-0.347,0-0.627-0.28-0.627-0.628c0-0.345,0.28-0.627,0.627-0.627c0.329,0,0.595,0.256,0.62,0.577V7.688H0.812V6.712h2.652V5.9
		H0.812V4.926h2.652V4.112H0.812V3.138h2.652V2.324H0V12.075z"/>
	<path fill="#86CC16" d="M12.839,8.216c-1.746,0-3.16,1.414-3.16,3.159c0,1.744,1.414,3.16,3.16,3.16
		c1.744,0,3.161-1.416,3.161-3.16C16,9.63,14.583,8.216,12.839,8.216z M12.051,12.926l0.033-3.101l1.946,1.571L12.051,12.926z"/>
</g>
</svg>
