<?xml version="1.0" encoding="utf-8"?>
<!-- Generator: Adobe Illustrator 16.0.0, SVG Export Plug-In . SVG Version: 6.00 Build 0)  -->
<!DOCTYPE svg PUBLIC "-//W3C//DTD SVG 1.1//EN" "http://www.w3.org/Graphics/SVG/1.1/DTD/svg11.dtd">
<svg version="1.1" id="图层_1" xmlns="http://www.w3.org/2000/svg" xmlns:xlink="http://www.w3.org/1999/xlink" x="0px" y="0px"
	 width="16px" height="16px" viewBox="0 0 16 16" enable-background="new 0 0 16 16" xml:space="preserve">
<path fill="#84878a" d="M0,3.75h2.831v9.207h0.461V3.043L0,3.045V3.75z M3.529,4.889v5.919h5.917v1.063h3.859v-1.063H16V4.889H3.529
	z M7.167,9.803c0,0.176-0.101,0.215-0.222,0.094L5.793,8.747H5.031V6.914h0.762l1.152-1.15c0.121-0.121,0.222-0.08,0.222,0.094
	V9.803z M7.649,8.924c-0.059,0-0.119-0.025-0.163-0.07c-0.089-0.088-0.089-0.229,0-0.316c0.386-0.387,0.386-1.018,0-1.402
	c-0.089-0.09-0.089-0.234,0-0.324c0.09-0.088,0.235-0.088,0.324,0c0.566,0.566,0.566,1.484,0,2.044
	C7.767,8.898,7.708,8.924,7.649,8.924z M8.623,9.285C8.578,9.33,8.52,9.354,8.461,9.354c-0.059,0-0.117-0.021-0.161-0.062
	c-0.089-0.096-0.089-0.23,0-0.322c0.625-0.625,0.625-1.641,0-2.266c-0.089-0.09-0.089-0.234,0-0.324c0.088-0.09,0.233-0.09,0.323,0
	C9.014,6.763,9.227,7.28,9.227,7.831C9.227,8.382,9.014,8.896,8.623,9.285z M10.6,11.371h-0.593v-1.244H10.6V11.371z M11.686,11.371
	h-0.593v-1.244h0.593V11.371z M12.771,11.371H12.18v-1.244h0.592V11.371L12.771,11.371z"/>
</svg>
