<?xml version="1.0" encoding="utf-8"?>
<!-- Generator: Adobe Illustrator 16.0.0, SVG Export Plug-In . SVG Version: 6.00 Build 0)  -->
<!DOCTYPE svg PUBLIC "-//W3C//DTD SVG 1.1//EN" "http://www.w3.org/Graphics/SVG/1.1/DTD/svg11.dtd">
<svg version="1.1" id="图层_1" xmlns="http://www.w3.org/2000/svg" xmlns:xlink="http://www.w3.org/1999/xlink" x="0px" y="0px"
	 width="16px" height="16px" viewBox="0 0 16 16" enable-background="new 0 0 16 16" xml:space="preserve">
<g>
	<path fill="#217BCC" d="M9.237,1v1h2v8.152l1,0.595V1H9.237z M2.237,4h8V3h-2V0h-4v3h-2V4z M5.737,1h1v1h-1V1z M11.237,13.771V15
		h-10V2h2V1h-3v15h12v-1.762l-0.912-0.543L11.237,13.771z"/>
	<path fill="#217BCC" d="M5.993,10.313l0.109-0.071C5.296,10.173,4.66,9.503,4.66,8.677c0-0.872,0.706-1.579,1.577-1.579
		c0.872,0,1.579,0.707,1.579,1.579c0,0.179-0.036,0.348-0.091,0.508l0.86-0.561l1.189,1.898c0.29-0.555,0.47-1.177,0.47-1.846
		c0-2.213-1.793-4.008-4.008-4.008c-2.213,0-4.008,1.795-4.008,4.008s1.795,4.008,4.008,4.008c0.413,0,0.803-0.08,1.178-0.196
		L5.993,10.313z M8.266,5.708C8.637,5.962,8.958,6.285,9.21,6.655L7.919,7.536C7.775,7.325,7.595,7.145,7.386,7.001L8.266,5.708z
		 M4.217,11.651c-0.372-0.253-0.693-0.576-0.947-0.946l1.291-0.881c0.145,0.209,0.327,0.394,0.537,0.535L4.217,11.651z"/>
	<polygon fill="#217BCC" points="15.15,10.801 13.074,12.41 11.114,11.242 9.77,12.396 8.279,10.018 7.378,10.604 9.539,13.911 
		11.22,12.469 13.148,13.617 15.763,11.592 	"/>
</g>
</svg>
