<?xml version="1.0" encoding="utf-8"?>
<!-- Generator: Adobe Illustrator 19.2.1, SVG Export Plug-In . SVG Version: 6.00 Build 0)  -->
<svg version="1.1" id="图层_1" xmlns="http://www.w3.org/2000/svg" xmlns:xlink="http://www.w3.org/1999/xlink" x="0px" y="0px" width="16px" height="16px" 
	 viewBox="0 0 16 16" style="enable-background:new 0 0 16 16;" xml:space="preserve">
<g>
	<g>
		<path fill="#FFFFFF" d="M12.3,2.6l1.1,1.1c0.4,0.4,0.4,1,0,1.3L10,8.5C10.8,9,11.8,9,12.5,8.3l2.9-2.9c0.7-0.7,0.7-1.9,0-2.7l-2.1-2.1
			c-0.7-0.7-1.9-0.7-2.7,0L7.7,3.5C7,4.2,7,5.2,7.5,6L11,2.6C11.3,2.2,11.9,2.2,12.3,2.6z"/>
		<path fill="#FFFFFF" d="M3.7,13.4l-1.1-1.1c-0.4-0.4-0.4-1,0-1.3L6,7.5C5.2,7,4.2,7,3.5,7.7l-2.9,2.9c-0.7,0.7-0.7,1.9,0,2.7l2.1,2.1
			c0.7,0.7,1.9,0.7,2.7,0l2.9-2.9C9,11.8,9,10.8,8.5,10L5,13.4C4.7,13.8,4.1,13.8,3.7,13.4z"/>
	</g>
	<path fill="#FFFFFF" d="M5,11.1L4.9,11c-0.4-0.4-0.4-1,0-1.4l4.6-4.6c0.4-0.4,1-0.4,1.4,0L11.1,5c0.4,0.4,0.4,1,0,1.4l-4.6,4.6
		C6.1,11.5,5.4,11.5,5,11.1z"/>
</g>
</svg>
