<?xml version="1.0" encoding="utf-8"?>
<!-- Generator: Adobe Illustrator 16.0.0, SVG Export Plug-In . SVG Version: 6.00 Build 0)  -->
<!DOCTYPE svg PUBLIC "-//W3C//DTD SVG 1.1//EN" "http://www.w3.org/Graphics/SVG/1.1/DTD/svg11.dtd">
<svg version="1.1" id="图层_1" xmlns="http://www.w3.org/2000/svg" xmlns:xlink="http://www.w3.org/1999/xlink" x="0px" y="0px"
	 width="16px" height="16px" viewBox="0 0 16 16" enable-background="new 0 0 16 16" xml:space="preserve">
<g>
	<path fill="#FFFFFF" d="M1.788,6.22l1.787-1.494l0.399,2.296l0.402,2.294l-1.13-0.412c0.203,1.066,0.759,2.059,1.632,2.8
		c1.838,1.562,4.582,1.537,6.386-0.058c0.329-0.291,0.836-0.267,1.127,0.066c0.291,0.329,0.26,0.833-0.07,1.126
		c-2.396,2.114-6.031,2.146-8.477,0.077c-1.405-1.188-2.197-2.874-2.275-4.632L0,7.715L1.788,6.22z"/>
	<path fill="#FFFFFF" d="M12.426,11.273l-0.4-2.295l-0.396-2.295l1.129,0.413c-0.201-1.067-0.758-2.059-1.631-2.8
		C9.287,2.736,6.54,2.76,4.739,4.353C4.406,4.646,3.898,4.615,3.61,4.284C3.318,3.953,3.349,3.449,3.68,3.156
		c2.393-2.114,6.037-2.147,8.477-0.077c1.403,1.194,2.196,2.874,2.274,4.632L16,8.285l-1.789,1.496L12.426,11.273z"/>
</g>
</svg>
