<svg xmlns="http://www.w3.org/2000/svg" viewBox="0 0 363.99 35.5"><defs><style>.cls-1{opacity:0.25;}.cls-2{fill:#fff;}</style></defs><g id="图层_2" data-name="图层 2"><g id="图层_1-2" data-name="图层 1"><g class="cls-1"><rect class="cls-2" x="64.71" y="6.5" width="7" height="28.74"/><path class="cls-2" d="M98,7.15l-.32,4.33a30,30,0,0,0-3.55-.88A17.65,17.65,0,0,0,91,10.3a8.31,8.31,0,0,0-4.17.86,2.68,2.68,0,0,0-1.45,2.45,2.83,2.83,0,0,0,1.06,2.13,22.73,22.73,0,0,0,4.8,2.7l.57.25q8.07,3.81,8.06,8.25a7.2,7.2,0,0,1-3.44,6.2,15.63,15.63,0,0,1-9,2.36,28.53,28.53,0,0,1-4.53-.36,24.73,24.73,0,0,1-4.13-1l.51-4.36a22.68,22.68,0,0,0,4,1.25,18.25,18.25,0,0,0,3.86.42,8.07,8.07,0,0,0,4.3-1A3,3,0,0,0,93,27.83c0-1.73-2-3.5-5.86-5.29l-1.29-.6a19.72,19.72,0,0,1-5.92-3.76,5.77,5.77,0,0,1-1.58-4.08,6.53,6.53,0,0,1,3.27-5.72C83.77,7,86.74,6.26,90.49,6.26a29.68,29.68,0,0,1,3.74.23A32.66,32.66,0,0,1,98,7.15"/><path class="cls-2" d="M18.27,6.31V24.72c0,2.35-.43,4-1.29,5s-2.31,1.43-4.33,1.43-3.48-.48-4.35-1.44S7,27.06,7,24.72V6.31H0V24.14C0,28,1,30.86,3.07,32.69s5.21,2.75,9.43,2.75,7.35-.92,9.4-2.75S25,28,25,24.14V6.31Z"/><polygon class="cls-2" points="51.53 6.48 51.53 26.94 45.29 22.01 51.53 35.27 58.1 35.27 58.1 6.48 51.53 6.48"/><polygon class="cls-2" points="38.06 16.3 45.29 22.01 37.97 6.48 31.56 6.48 31.56 35.16 31.57 35.16 31.57 35.24 38.06 35.24 38.06 35.16 38.06 35.16 38.06 16.3"/><path class="cls-2" d="M354.92,6.26,347.24,29.1,340,6.26H325.62l-8.72,22-8.59-22H288.26c-1.72,0-3,0-3.9.13a7.56,7.56,0,0,0-5.61,2.9A9.47,9.47,0,0,0,277,14.9a8.92,8.92,0,0,0,.77,3.68,7.8,7.8,0,0,0,2.13,2.85q2.19,1.8,7.14,1.8h5.44a6.89,6.89,0,0,1,3.24.57,3.27,3.27,0,0,1,1.8,3.11,3,3,0,0,1-1.54,2.76,9.65,9.65,0,0,1-4.25.61H278.31V35.5H293a36.15,36.15,0,0,0,5-.26,7.09,7.09,0,0,0,5.13-3.6,9.36,9.36,0,0,0,1.22-4.78,11,11,0,0,0-.92-4.51,6.83,6.83,0,0,0-4.29-3.68,17.3,17.3,0,0,0-5.35-.62h-4.69a9.22,9.22,0,0,1-3.68-.52,2.74,2.74,0,0,1-1.67-2.81c0-1.66.66-2.66,2-3a24.4,24.4,0,0,1,3.9-.26h13.83l10.12,24h6.22l11.06-25.26V35.5h5.92V13.58L344,35.5h6.4l7.63-21.92V35.5H364V6.26Z"/><path class="cls-2" d="M172.44,29.72l1.27,5.78H163.6a24.25,24.25,0,0,1-4.38-.3,10.81,10.81,0,0,1-6.89-4.39c-1.79-2.69-2.17-6.22-2.17-9.38a18.65,18.65,0,0,1,2.29-9.69,9.74,9.74,0,0,1,4.4-3.87,17.62,17.62,0,0,1,7.06-1.3h9.18v4.54H164.6q-4.12,0-6,2.22c-3.31,3.83-3.26,11.67.87,15,1.16.93,3,1.39,5.42,1.39Z"/><path class="cls-2" d="M184.3,35.5h-7V6.57h7Z"/><path class="cls-2" d="M254.12,15V6.57h5.77V35.5h-10a16.58,16.58,0,0,1-4.59-.48,9.15,9.15,0,0,1-5.51-4.59,11.64,11.64,0,0,1-1.26-5.64,9.84,9.84,0,0,1,2.71-6.85,9.6,9.6,0,0,1,7.4-3Zm0,16V18.89h-4.21a5,5,0,0,0-4.2,1.86,6.23,6.23,0,0,0-1.26,4q0,3.6,2.08,5.16a5.63,5.63,0,0,0,3.38,1Z"/><path class="cls-2" d="M207.8,17.15q-2.78-3.37-8.63-3.38-5.55,0-8.5,3.34A10.64,10.64,0,0,0,188,24.48v.31a10.64,10.64,0,0,0,2.64,7.37q3,3.3,8.5,3.34,5.87,0,8.63-3.38a11.6,11.6,0,0,0,2.55-7.48A11.61,11.61,0,0,0,207.8,17.15Zm-3.38,7.51c0,4.22-1.73,7-5.2,7s-5.23-2.76-5.25-7,1.77-7.06,5.25-7.06,5.2,2.81,5.2,7v.05Z"/><path class="cls-2" d="M234,13.14h-6.08v14a4.94,4.94,0,0,1-.78,3.19,4.75,4.75,0,0,1-5.38,0,4.94,4.94,0,0,1-.79-3.18v-14h-6.3V26.07c0,3,.82,5.22,2.43,6.66s4,2.15,7.24,2.15a15.6,15.6,0,0,0,3.58-.38v1H234V26.72h0c0-.22,0-.43,0-.65Z"/><polygon class="cls-2" points="146.01 8.11 151.73 8.11 154.9 4.33 149.17 4.33 146.01 8.11"/><polygon class="cls-2" points="142.83 4.47 145.66 4.47 147.23 2.6 144.4 2.6 142.83 4.47"/><polygon class="cls-2" points="148.45 3.06 152.3 3.06 154.42 0.52 150.58 0.52 148.45 3.06"/><polygon class="cls-2" points="146.5 1.05 148.09 1.05 148.96 0 147.38 0 146.5 1.05"/><polygon class="cls-2" points="148.09 9.12 143.71 9.12 146.29 6.04 140.04 6.04 133.55 13.87 138.87 20.25 148.09 9.12"/><path class="cls-2" d="M132.55,27.88l2.29,2.75,3.86,4.82h10.62L125.17,6.27h-10.6l12.67,15.22-11.62,14h10.63Z"/></g></g></g></svg>