<svg xmlns="http://www.w3.org/2000/svg" viewBox="0 0 135.58 34"><defs><style>.cls-1,.cls-2{fill:#fff;}.cls-1{fill-rule:evenodd;}</style></defs><title>【logo】紫光恒越</title><g id="图层_2" data-name="图层 2"><g id="图层_1-2" data-name="图层 1"><path class="cls-1" d="M25.51,8.53V0H0V25.47H8.45V34H34V8.53Zm4.18,21.21h-17V14.91L17,17,12.71,8.55H8.45V21.28H4.26v-17h17V19.12L17,17l4.26,8.45h4.27V12.79h4.18Z"/><path class="cls-2" d="M55.18,12.68h7.67V11H57.57c-1.09,0-1.06-1.25-1.06-1.25V7.65h6.27V5.92H56.51V4.62H53.09s0,3.29,0,5.71a2.18,2.18,0,0,0,2.08,2.35"/><path class="cls-2" d="M59.91,20.71H56.32s1.1,4.73,4.3,4.73H63.2v-1s-.66,0-.88-.05c-1.75-.7-2.41-3.66-2.41-3.66"/><path class="cls-2" d="M45.68,20.74s-.66,3-2.41,3.65c-.21,0-.88.05-.88.05l.37,1H45c3.2,0,4.31-4.72,4.31-4.72Z"/><path class="cls-2" d="M44.85,12.72h7.8V11H50.79V7.64h1.73V5.92H50.79V4.62H47.38V11H47a1.15,1.15,0,0,1-1.18-1.25V5.26H42.79v5.11a2.2,2.2,0,0,0,2.06,2.35"/><path class="cls-2" d="M61,20.2c1.33,0,2.17-.92,1.74-2.12,0,0-1.23-2.48-1.23-2.48H58.29l1.16,2.23a.46.46,0,0,1-.32.64H52.38c3.07-1.11,5.91-2.78,7.49-5H55.29a15.87,15.87,0,0,1-2.82,2.22h-2.8a12.6,12.6,0,0,0,2.94-2.26H48.09c-1.34,2-5.36,2.41-5.36,2.41s.62,1.44.72,1.55H48.9a19.67,19.67,0,0,1-6.27,1.12l.62,1.73h7.86v3.22a.87.87,0,0,1-1,1H48.86l.37,1.07H53a1.84,1.84,0,0,0,1.74-2V20.2H61Z"/><path class="cls-2" d="M71.75,12.4h2.39V11.34H73.4c-1,0-3.06-6.44-3.06-6.44h-3.7s1.76,4.65,2.61,6.16a2.92,2.92,0,0,0,2.5,1.34"/><path class="cls-2" d="M81.29,12.4a2.9,2.9,0,0,0,2.49-1.34c.85-1.51,2.61-6.16,2.61-6.16h-3.7s-2.07,6.44-3.06,6.44h-.74V12.4h2.4"/><path class="cls-2" d="M81.92,22V15.09h4.94V13.42H78.45V4.63h-3.9v8.79H66.28l.53,1.67h4.58L70.2,20.77s-.91,3.66-2.28,3.66H66.37l.36,1h3.33s2.32.17,3.13-1.62,2-8.29,2-8.71h3v7.2c0,3.2,3.56,3.13,3.56,3.13H87.1V23.66H83.68A1.56,1.56,0,0,1,81.92,22"/><rect class="cls-2" x="90.18" y="8.18" width="2.47" height="14.93"/><polygon class="cls-2" points="98.07 11.58 98.07 8.82 96.94 8.82 96.94 4.81 93.46 4.81 93.46 25.59 96.94 25.59 96.94 11.58 98.07 11.58"/><path class="cls-2" d="M110.53,19.31V9.3H99V22h9a2.44,2.44,0,0,0,2.63-2.68M107.05,19a1.25,1.25,0,0,1-1.28,1.37h-3.33V16.56h4.61Zm0-4.06h-4.61V11h4.61Z"/><polygon class="cls-2" points="98.32 7.63 110.79 7.63 110.79 5.96 97.81 5.96 98.32 7.63"/><polygon class="cls-2" points="98.32 25.21 110.79 25.21 110.79 23.54 97.81 23.54 98.32 25.21"/><path class="cls-2" d="M133.57,20c0-.17-.39-1.64-.87-3.62a27.63,27.63,0,0,0,2.88-6h-2.7c-.36.87-.72,1.62-1.07,2.3-.33-1.37-.66-2.75-.95-4h1.71c1.68,0,2.32-.94,2.32-2.09V5.15h-3V6.24a.73.73,0,0,1-.83.84h-.59l-.6-2.5H126.5s.24,1,.59,2.5h-3.32V20.16a2.14,2.14,0,0,0,2.15,2.36h3.78V21.27h-1.85a.63.63,0,0,1-.7-.73V8.75h.34c.59,2.48,1.33,5.6,1.89,7.93a1.92,1.92,0,0,1-1.35.8h-.31l.32,1.06h1.48l.3,0c.21.9.36,1.49.39,1.59.65,2.19,2.14,2.41,2.7,2.41h2V21.27c-.72.08-1.18-.69-1.32-1.24"/><path class="cls-2" d="M122.29,22.8l-.34-.29v-3.8H123V17.05H122V14H123V12.35h-2.18V8.79H123V7.12h-2.18V4.58h-3.73V7.12h-2.65L115,8.79h2.14v3.56h-2.65L115,14h3.81v5.67l-.92-.82V15.42H115V22.8c0,.58,0,1.35-1.12,1.35l.34,1.06h1.26c1.78,0,2.24-1.69,2.36-2.65L120,24.2a6.07,6.07,0,0,0,3.57,1.17h11.37V23.54H124.73a4.1,4.1,0,0,1-2.44-.74"/><polygon class="cls-1" points="82.36 29.91 81.09 29.91 81.09 33.99 79.77 33.99 79.77 29.91 78.67 29.91 78.46 29.2 82.36 29.2 82.36 29.91"/><path class="cls-2" d="M91.87,33l-.05,0a2.58,2.58,0,0,1-.53.19,2.51,2.51,0,0,1-.55.06A1.6,1.6,0,0,1,89,31.5a1.53,1.53,0,0,1,1.66-1.67,3.58,3.58,0,0,1,.61.05,2.38,2.38,0,0,1,.51.18l0,0,0-.82h0a5.89,5.89,0,0,0-.67-.16,4.58,4.58,0,0,0-.64,0,3,3,0,0,0-2,.66,2.3,2.3,0,0,0-.76,1.81,2.28,2.28,0,0,0,.77,1.79,3,3,0,0,0,2,.66,4.88,4.88,0,0,0,.68,0,4.13,4.13,0,0,0,.63-.13h0Z"/><polygon class="cls-2" points="130.99 29.93 130.99 29.21 127.69 29.21 127.69 33.99 130.99 33.99 130.99 33.27 128.85 33.27 128.85 31.96 130.78 31.96 130.78 31.24 128.85 31.24 128.85 29.93 130.99 29.93"/><polygon class="cls-2" points="86.71 29.93 86.71 29.21 83.41 29.21 83.41 33.99 86.71 33.99 86.71 33.27 84.58 33.27 84.58 31.96 86.5 31.96 86.5 31.24 84.58 31.24 84.58 29.93 86.71 29.93"/><path class="cls-2" d="M121.68,31.21v.73h1v1.25l-.28.06a2.12,2.12,0,0,1-.37,0,1.59,1.59,0,0,1-1.2-.45,1.81,1.81,0,0,1-.43-1.27,1.74,1.74,0,0,1,.47-1.3,1.81,1.81,0,0,1,1.33-.46,3.69,3.69,0,0,1,.69.06,2.69,2.69,0,0,1,.61.19l.05,0,.06-.79h0c-.23-.06-.46-.11-.7-.15a6,6,0,0,0-.74,0,3.33,3.33,0,0,0-2.19.66,2.27,2.27,0,0,0-.79,1.85,2.23,2.23,0,0,0,.75,1.79A3.31,3.31,0,0,0,122,34a6.86,6.86,0,0,0,.94-.06,4.24,4.24,0,0,0,.78-.19h0V31.21Z"/><polygon class="cls-2" points="95.82 29.21 95.82 31.14 94.12 31.14 94.12 29.21 92.96 29.21 92.96 33.99 94.12 33.99 94.12 31.91 95.82 31.91 95.82 33.99 96.99 33.99 96.99 29.21 95.82 29.21"/><rect class="cls-2" x="125.23" y="29.21" width="1.17" height="4.79"/><path class="cls-2" d="M107.76,29.71a2.42,2.42,0,0,0-1.8-.64,2.46,2.46,0,0,0-1.82.64,2.91,2.91,0,0,0,0,3.64A2.46,2.46,0,0,0,106,34a2.42,2.42,0,0,0,1.8-.64,2.87,2.87,0,0,0,0-3.64m-.9,3.12a1.15,1.15,0,0,1-1.81,0,2.88,2.88,0,0,1,0-2.6,1.15,1.15,0,0,1,1.81,0,2.27,2.27,0,0,1,.31,1.3,2.23,2.23,0,0,1-.31,1.3"/><path class="cls-2" d="M117.53,29.71a2.46,2.46,0,1,0,0,3.64,2.91,2.91,0,0,0,0-3.64m-.91,3.12a1,1,0,0,1-.9.44,1.05,1.05,0,0,1-.91-.44,2.84,2.84,0,0,1,0-2.6,1,1,0,0,1,.9-.44,1,1,0,0,1,.9.44,2.27,2.27,0,0,1,.32,1.3,2.22,2.22,0,0,1-.32,1.3"/><path class="cls-2" d="M133.52,34a6,6,0,0,1-.73-.05,5.32,5.32,0,0,1-.66-.16h0l.09-.77,0,0a4.15,4.15,0,0,0,.63.2,3.15,3.15,0,0,0,.61.06,1.24,1.24,0,0,0,.66-.15.45.45,0,0,0,.24-.39c0-.26-.31-.53-.91-.81l-.21-.1a3.18,3.18,0,0,1-.95-.6,1,1,0,0,1-.26-.68,1.08,1.08,0,0,1,.54-.94,2.68,2.68,0,0,1,1.43-.34,4,4,0,0,1,.6,0,3.75,3.75,0,0,1,.6.11h0l-.06.76h0a5.08,5.08,0,0,0-.56-.14,3,3,0,0,0-.49-.05,1.41,1.41,0,0,0-.65.13.42.42,0,0,0-.21.37.43.43,0,0,0,.15.31,3.63,3.63,0,0,0,.76.42l.09.05c.87.4,1.31.85,1.31,1.34a1.18,1.18,0,0,1-.57,1A2.56,2.56,0,0,1,133.52,34Z"/><polygon class="cls-2" points="101.36 29.2 101.36 32.61 100.32 31.79 101.36 33.99 102.45 33.99 102.45 29.2 101.36 29.2"/><polygon class="cls-2" points="99.12 30.84 100.32 31.79 99.1 29.2 98.03 29.2 98.03 33.98 98.03 33.98 98.03 33.99 99.12 33.99 99.12 33.98 99.12 33.98 99.12 30.84"/><polygon class="cls-2" points="110.62 33.23 110.62 29.21 109.46 29.21 109.46 33.99 112.79 33.99 112.79 33.23 110.62 33.23"/><polygon class="cls-2" points="73.78 29.89 73.78 29.17 70.47 29.17 70.47 33.95 73.78 33.95 73.78 33.23 71.64 33.23 71.64 31.92 73.57 31.92 73.57 31.2 71.64 31.2 71.64 29.89 73.78 29.89"/><rect class="cls-2" x="53.36" y="29.17" width="1.16" height="4.79"/><path class="cls-2" d="M58.89,29.27l0,.72a5.5,5.5,0,0,0-.59-.14,3.37,3.37,0,0,0-.52-.05,1.47,1.47,0,0,0-.7.14.45.45,0,0,0-.24.41.45.45,0,0,0,.18.35,3.43,3.43,0,0,0,.8.45l.09.05c.9.42,1.35.88,1.35,1.37a1.21,1.21,0,0,1-.58,1,2.61,2.61,0,0,1-1.5.39,4.74,4.74,0,0,1-.75-.06,4.37,4.37,0,0,1-.69-.16l.08-.73a4.68,4.68,0,0,0,.67.21,2.79,2.79,0,0,0,.64.07,1.41,1.41,0,0,0,.71-.16.5.5,0,0,0,.27-.44c0-.29-.33-.59-1-.88l-.21-.1a3.52,3.52,0,0,1-1-.63,1,1,0,0,1-.26-.68,1.08,1.08,0,0,1,.54-.95,2.7,2.7,0,0,1,1.49-.35l.62,0,.62.11"/><path class="cls-2" d="M45.62,29.13V32.2a1.27,1.27,0,0,1-.21.83.93.93,0,0,1-.72.23A1,1,0,0,1,44,33a1.27,1.27,0,0,1-.21-.83V29.13H42.58v3a1.85,1.85,0,0,0,.51,1.43,3,3,0,0,0,3.14,0,1.85,1.85,0,0,0,.51-1.43v-3Z"/><path class="cls-2" d="M68.26,29.13V32.2a1.27,1.27,0,0,1-.21.83,1,1,0,0,1-.72.23A1,1,0,0,1,66.6,33a1.27,1.27,0,0,1-.22-.83V29.13H65.22v3a1.85,1.85,0,0,0,.51,1.43A2.34,2.34,0,0,0,67.3,34a2.31,2.31,0,0,0,1.56-.45,1.85,1.85,0,0,0,.52-1.43v-3Z"/><polygon class="cls-2" points="51.16 29.16 51.16 32.57 50.12 31.75 51.16 33.95 52.26 33.95 52.26 29.16 51.16 29.16"/><polygon class="cls-2" points="48.92 30.8 50.12 31.75 48.9 29.16 47.84 29.16 47.84 33.94 47.84 33.94 47.84 33.95 48.92 33.95 48.92 33.94 48.92 33.94 48.92 30.8"/><polygon class="cls-2" points="64.64 29.17 63.38 29.17 62.26 31 61.13 29.17 59.78 29.17 61.64 32.02 61.64 33.95 62.82 33.95 62.81 32.06 64.64 29.17"/></g></g></svg>