<?xml version="1.0" encoding="utf-8"?>
<!-- Generator: Adobe Illustrator 16.0.0, SVG Export Plug-In . SVG Version: 6.00 Build 0)  -->
<!DOCTYPE svg PUBLIC "-//W3C//DTD SVG 1.1//EN" "http://www.w3.org/Graphics/SVG/1.1/DTD/svg11.dtd">
<svg version="1.1" id="图层_1" xmlns="http://www.w3.org/2000/svg" xmlns:xlink="http://www.w3.org/1999/xlink" x="0px" y="0px"
	 width="235px" height="235px" viewBox="0 0 235 235" enable-background="new 0 0 235 235" xml:space="preserve">
<g>
	<radialGradient id="SVGID_1_" cx="117.501" cy="117.5" r="117.5" gradientUnits="userSpaceOnUse">
		<stop  offset="0.7927" style="stop-color:#000000"/>
		<stop  offset="0.8638" style="stop-color:#000102"/>
		<stop  offset="0.8962" style="stop-color:#00050A"/>
		<stop  offset="0.9209" style="stop-color:#000B16"/>
		<stop  offset="0.9416" style="stop-color:#001428"/>
		<stop  offset="0.9597" style="stop-color:#002040"/>
		<stop  offset="0.9759" style="stop-color:#002E5D"/>
		<stop  offset="0.98" style="stop-color:#003265"/>
		<stop  offset="1" style="stop-color:#1669BB"/>
	</radialGradient>
	<circle fill="url(#SVGID_1_)" cx="117.501" cy="117.5" r="117.5"/>
	<path fill="#004B8B" d="M200.894,133.783h-2.252c-0.387,0-0.74,0.188-1.017,0.498v-4.676c0-1.621-0.96-2.936-2.144-2.936h-2.564
		v-4.764c0-5.462-3.244-9.907-7.232-9.907H47.734c-3.988,0-7.233,4.445-7.233,9.907v45.186c0,5.463,3.245,9.908,7.233,9.908h137.951
		c3.988,0,7.232-4.445,7.232-9.908v-4.762h2.564c1.184,0,2.144-1.314,2.144-2.936v-4.676c0.276,0.311,0.63,0.496,1.017,0.496h2.252
		c0.889,0,1.607-0.984,1.607-2.201v-17.029C202.501,134.77,201.782,133.783,200.894,133.783z M187.561,167.092
		c0,1.416-0.842,2.568-1.876,2.568H47.734c-1.034,0-1.875-1.152-1.875-2.568v-45.186c0-1.416,0.841-2.568,1.875-2.568h137.951
		c1.034,0,1.876,1.152,1.876,2.568V167.092z"/>
	<path fill="#1B3A4F" d="M119.607,225L119.607,225c-0.97,0-1.731-0.732-1.776-1.709c0-0.453,0.18-0.906,0.491-1.227
		c0.346-0.346,0.765-0.521,1.257-0.547c0.97,0,1.736,0.756,1.736,1.74c0.047,0.453-0.131,0.875-0.455,1.215
		C120.514,224.83,120.103,225,119.607,225L119.607,225L119.607,225z M112.29,224.893c-0.031,0-0.108,0-0.139,0
		c-0.911-0.035-1.676-0.867-1.603-1.811c0.035-0.949,0.806-1.682,1.741-1.682c0.53,0.047,0.976,0.25,1.288,0.602
		c0.315,0.312,0.45,0.766,0.45,1.256C113.967,224.158,113.196,224.893,112.29,224.893L112.29,224.893z M126.899,224.611
		c-0.906,0-1.676-0.688-1.736-1.598c-0.08-0.949,0.62-1.777,1.602-1.885l0,0c1.036,0,1.804,0.697,1.877,1.607
		c0.065,0.936-0.621,1.775-1.575,1.875H126.899L126.899,224.611z M105.013,224.268c-0.079,0-0.21,0-0.255,0
		c-0.45-0.074-0.866-0.311-1.142-0.664c-0.288-0.381-0.419-0.836-0.357-1.289c0.104-0.867,0.839-1.531,1.71-1.531
		c1.181,0.127,1.852,1.004,1.741,1.953C106.609,223.604,105.875,224.268,105.013,224.268L105.013,224.268z M134.152,223.711
		c-0.841,0-1.567-0.59-1.711-1.465c-0.065-0.459,0.03-0.904,0.284-1.287c0.267-0.385,0.699-0.631,1.146-0.709
		c0.031,0,0.031,0,0.075,0c1.115,0,1.815,0.605,1.942,1.434c0.148,0.984-0.52,1.846-1.461,2.027H134.152L134.152,223.711z
		 M97.747,223.15L97.747,223.15c-0.031,0-0.276-0.029-0.308-0.029c-0.459-0.082-0.875-0.354-1.15-0.736
		c-0.245-0.383-0.352-0.867-0.245-1.324c0.131-0.811,0.87-1.396,1.703-1.396c1.285,0.213,1.881,1.145,1.71,2.102
		C99.282,222.561,98.586,223.15,97.747,223.15L97.747,223.15z M141.331,222.314c-0.803,0-1.494-0.549-1.707-1.355
		c-0.215-0.943,0.385-1.893,1.32-2.096c0.083,0,0.32-0.031,0.387-0.031c0.804,0,1.51,0.555,1.706,1.354
		c0.104,0.453,0.043,0.91-0.196,1.289c-0.25,0.422-0.631,0.697-1.091,0.799C141.688,222.273,141.408,222.314,141.331,222.314
		L141.331,222.314z M90.604,221.543c-0.074,0-0.389-0.025-0.455-0.068c-0.91-0.238-1.467-1.182-1.221-2.121
		c0.21-0.768,0.872-1.33,1.676-1.33c0.069,0,0.377,0.074,0.46,0.074c0.893,0.244,1.458,1.213,1.239,2.131
		C92.102,220.986,91.409,221.543,90.604,221.543L90.604,221.543z M148.411,220.398c-0.762,0-1.466-0.484-1.676-1.225
		c-0.271-0.9,0.249-1.883,1.151-2.152c0.108-0.037,0.423-0.111,0.524-0.111c0.771,0,1.432,0.521,1.672,1.256
		c0.105,0.459,0.078,0.9-0.14,1.322c-0.235,0.426-0.595,0.74-1.042,0.84C148.828,220.355,148.477,220.398,148.411,220.398
		L148.411,220.398z M83.597,219.42c-0.106,0-0.46-0.033-0.561-0.066c-0.896-0.318-1.392-1.33-1.111-2.232
		c0.271-0.697,0.932-1.188,1.672-1.188c0.097,0,0.443,0.07,0.551,0.104c0.907,0.318,1.401,1.287,1.086,2.203
		C85.027,218.965,84.358,219.42,83.597,219.42L83.597,219.42z M155.313,218.023c-0.691,0-1.357-0.455-1.598-1.113
		c-0.359-0.906,0.098-1.918,0.967-2.27c0.114-0.035,0.529-0.111,0.631-0.111c0.736,0,1.362,0.463,1.643,1.129
		c0.35,0.9-0.098,1.91-1.008,2.266C155.839,217.953,155.419,218.023,155.313,218.023L155.313,218.023z M76.756,216.836
		c-0.137,0-0.561-0.068-0.661-0.096c-0.903-0.385-1.326-1.402-0.982-2.307c0.28-0.66,0.916-1.088,1.643-1.088
		c0.101,0,0.555,0.107,0.655,0.156c0.439,0.17,0.785,0.52,0.955,0.932c0.174,0.451,0.174,0.938,0,1.352
		C78.086,216.424,77.46,216.836,76.756,216.836L76.756,216.836z M162.049,215.162c-0.661,0-1.295-0.383-1.565-1.012
		c-0.189-0.414-0.215-0.893-0.035-1.328c0.139-0.449,0.447-0.801,0.904-0.971c0.793-0.385,1.879,0,2.295,0.842
		c0.211,0.414,0.211,0.91,0.069,1.328c-0.171,0.443-0.485,0.795-0.907,1.014C162.562,215.137,162.325,215.162,162.049,215.162
		L162.049,215.162z M70.107,213.799c-0.29,0-0.525-0.062-0.775-0.164c-0.875-0.453-1.222-1.502-0.806-2.371
		c0.421-0.803,1.537-1.193,2.347-0.734c0.868,0.379,1.218,1.434,0.792,2.293C71.36,213.453,70.765,213.799,70.107,213.799
		L70.107,213.799z M168.604,211.852c-0.638,0-1.215-0.354-1.54-0.902c-0.45-0.834-0.17-1.891,0.667-2.373
		c0.9-0.453,1.952-0.107,2.367,0.686c0.244,0.428,0.285,0.889,0.178,1.338c-0.139,0.453-0.454,0.805-0.834,1.049
		C169.192,211.785,168.916,211.852,168.604,211.852L168.604,211.852z M63.648,210.312c-0.315,0-0.595-0.107-0.868-0.242
		c-0.419-0.232-0.709-0.627-0.804-1.08c-0.11-0.447-0.041-0.9,0.208-1.32c0.453-0.801,1.568-1.086,2.364-0.592
		c0.844,0.49,1.117,1.52,0.634,2.365C64.874,209.967,64.278,210.312,63.648,210.312L63.648,210.312z M174.869,208.123
		c-0.581,0-1.142-0.32-1.453-0.801c-0.249-0.426-0.347-0.873-0.249-1.33c0.104-0.447,0.384-0.867,0.774-1.109
		c0.728-0.504,1.873-0.246,2.403,0.521c0.525,0.793,0.275,1.877-0.53,2.398C175.548,208.021,175.192,208.123,174.869,208.123
		L174.869,208.123z M57.511,206.375c-0.381,0-0.696-0.096-1.015-0.307c-0.792-0.561-0.976-1.643-0.447-2.439
		c0.524-0.768,1.676-0.977,2.438-0.465c0.766,0.564,0.972,1.65,0.454,2.449C58.597,206.068,58.072,206.375,57.511,206.375
		L57.511,206.375z M180.874,203.932c-0.561,0-1.047-0.271-1.391-0.699c-0.557-0.791-0.426-1.869,0.344-2.473
		c0.736-0.516,1.887-0.381,2.447,0.385c0.587,0.77,0.411,1.854-0.347,2.451C181.605,203.797,181.259,203.932,180.874,203.932
		L180.874,203.932z M51.62,201.986c-0.419,0-0.775-0.102-1.086-0.352c-0.761-0.623-0.874-1.709-0.278-2.475
		c0.564-0.727,1.711-0.836,2.445-0.271c0.352,0.305,0.591,0.691,0.622,1.186c0.079,0.449-0.066,0.902-0.346,1.289
		C52.631,201.775,52.14,201.986,51.62,201.986L51.62,201.986z M186.586,199.328c-0.519,0-1.007-0.195-1.318-0.623
		c-0.322-0.312-0.446-0.76-0.415-1.256c0.035-0.453,0.245-0.867,0.592-1.178c0.73-0.594,1.88-0.521,2.476,0.203
		c0.321,0.357,0.45,0.805,0.421,1.254c-0.04,0.455-0.245,0.883-0.63,1.186C187.396,199.193,187.009,199.328,186.586,199.328
		L186.586,199.328z M46.044,197.242c-0.46,0-0.88-0.172-1.185-0.457c-0.325-0.311-0.526-0.758-0.561-1.219
		c0-0.455,0.135-0.902,0.458-1.254c0.619-0.693,1.774-0.73,2.47-0.096c0.696,0.656,0.762,1.736,0.101,2.467
		C46.989,197.029,46.531,197.242,46.044,197.242L46.044,197.242z M191.965,194.379c-0.456,0-0.91-0.207-1.222-0.51
		c-0.35-0.318-0.516-0.775-0.516-1.262c0-0.453,0.209-0.871,0.516-1.225c0.658-0.623,1.817-0.66,2.479,0
		c0.664,0.703,0.664,1.82,0,2.486C192.876,194.217,192.423,194.379,191.965,194.379L191.965,194.379z M40.806,192.113
		c-0.452,0-0.938-0.209-1.243-0.555c-0.315-0.346-0.5-0.764-0.46-1.26c0-0.445,0.174-0.9,0.52-1.217
		c0.671-0.631,1.862-0.59,2.478,0.076c0.315,0.34,0.481,0.771,0.481,1.256c-0.031,0.445-0.205,0.9-0.547,1.219
		C41.672,191.951,41.264,192.113,40.806,192.113L40.806,192.113z M196.989,189.047c-0.424,0-0.811-0.133-1.156-0.412
		c-0.695-0.678-0.766-1.748-0.14-2.475c0.596-0.699,1.737-0.779,2.447-0.182c0.347,0.318,0.581,0.736,0.581,1.229
		c0.043,0.447-0.1,0.902-0.411,1.244C197.951,188.838,197.505,189.047,196.989,189.047L196.989,189.047z M35.97,186.607
		c-0.535,0-1.017-0.209-1.332-0.629c-0.315-0.344-0.454-0.801-0.381-1.283c0.035-0.457,0.25-0.875,0.626-1.145
		c0.626-0.57,1.741-0.529,2.333,0.125c0.048,0,0.079,0.07,0.104,0.107c0.636,0.742,0.522,1.818-0.236,2.441
		C36.77,186.473,36.38,186.607,35.97,186.607L35.97,186.607z M201.664,183.402c-0.39,0-0.774-0.141-1.09-0.381
		c-0.768-0.561-0.907-1.672-0.312-2.449c0.561-0.729,1.662-0.9,2.447-0.305c0.77,0.549,0.893,1.668,0.311,2.434
		C202.71,183.117,202.175,183.402,201.664,183.402L201.664,183.402z M31.501,180.816c-0.557,0-1.083-0.281-1.394-0.73
		c-0.278-0.385-0.389-0.828-0.319-1.289c0.069-0.457,0.319-0.871,0.696-1.158c0.771-0.508,1.887-0.342,2.443,0.428
		c0.565,0.764,0.385,1.844-0.376,2.408C32.226,180.715,31.89,180.816,31.501,180.816L31.501,180.816z M205.882,177.402
		c-0.357,0-0.683-0.105-0.949-0.271c-0.385-0.254-0.669-0.631-0.762-1.092c-0.065-0.416-0.039-0.871,0.201-1.215
		c0-0.068,0.041-0.102,0.041-0.141c0.52-0.729,1.635-0.969,2.402-0.488c0.834,0.561,1.053,1.635,0.529,2.441
		C207.034,177.131,206.466,177.402,205.882,177.402L205.882,177.402z M27.448,174.723c-0.582,0-1.142-0.318-1.463-0.84
		c-0.52-0.805-0.28-1.887,0.57-2.402c0.8-0.488,1.876-0.209,2.402,0.59c0.485,0.795,0.246,1.885-0.595,2.406
		C28.117,174.654,27.767,174.723,27.448,174.723L27.448,174.723z M209.682,171.162c-0.284,0-0.591-0.07-0.841-0.246
		c-0.42-0.211-0.691-0.588-0.845-1.041c-0.097-0.449-0.062-0.912,0.189-1.328c0.444-0.795,1.562-1.121,2.368-0.668
		c0.824,0.494,1.115,1.547,0.65,2.383C210.897,170.816,210.308,171.162,209.682,171.162L209.682,171.162z M23.828,168.373
		c-0.657,0-1.256-0.383-1.531-0.947c-0.21-0.414-0.276-0.869-0.145-1.324c0.145-0.447,0.46-0.805,0.875-1.043
		c0.8-0.412,1.921-0.066,2.376,0.74c0.415,0.861,0.1,1.912-0.739,2.363C24.384,168.307,24.108,168.373,23.828,168.373
		L23.828,168.373z M213.056,164.646c-0.241,0-0.525-0.037-0.73-0.143c-0.452-0.211-0.758-0.561-0.91-0.971
		c-0.172-0.461-0.137-0.947,0.07-1.369c0.388-0.834,1.471-1.219,2.306-0.834c0.872,0.42,1.26,1.461,0.837,2.334
		C214.347,164.262,213.712,164.646,213.056,164.646L213.056,164.646z M20.66,161.783c-0.702,0-1.328-0.424-1.612-1.051
		c-0.381-0.865,0.044-1.92,0.91-2.293c0.837-0.385,1.921,0.033,2.308,0.904c0.381,0.871-0.041,1.885-0.917,2.268
		C21.141,161.715,20.899,161.783,20.66,161.783L20.66,161.783z M215.95,157.947c-0.098,0-0.519-0.074-0.627-0.143
		c-0.906-0.346-1.322-1.357-0.977-2.223c0.246-0.701,0.877-1.121,1.604-1.121c0.107,0,0.529,0.064,0.624,0.109
		c0.902,0.346,1.362,1.355,1.011,2.254C217.313,157.492,216.685,157.947,215.95,157.947L215.95,157.947z M17.94,154.982
		c-0.731,0-1.403-0.492-1.641-1.188c-0.323-0.865,0.135-1.877,1.042-2.195c0.11-0.029,0.491-0.096,0.599-0.096
		c0.727,0,1.392,0.445,1.633,1.148c0.312,0.9-0.139,1.873-1.045,2.229C18.423,154.916,18.047,154.982,17.94,154.982L17.94,154.982z
		 M218.395,151.045c-0.101,0-0.458-0.066-0.523-0.066c-0.911-0.324-1.433-1.297-1.151-2.197c0.24-0.734,0.91-1.229,1.675-1.229
		c0.075,0,0.421,0.037,0.53,0.066c0.902,0.326,1.418,1.293,1.139,2.201C219.827,150.553,219.166,151.045,218.395,151.045
		L218.395,151.045z M15.704,148.014c-0.762,0-1.458-0.527-1.672-1.297c-0.244-0.906,0.272-1.883,1.218-2.125
		c0.069-0.035,0.388-0.068,0.454-0.068c0.73,0,1.356,0.457,1.612,1.082c0.025,0.072,0.06,0.129,0.06,0.172
		c0.286,0.939-0.271,1.922-1.177,2.168C16.085,147.973,15.766,148.014,15.704,148.014L15.704,148.014z M220.343,144
		c-0.062,0-0.35-0.031-0.415-0.076c-0.941-0.205-1.502-1.18-1.292-2.082c0.205-0.805,0.907-1.326,1.707-1.326
		c0.07,0,0.346,0.039,0.42,0.039c0.421,0.098,0.799,0.377,1.037,0.762c0.26,0.416,0.367,0.875,0.211,1.322
		C221.853,143.445,221.153,144,220.343,144L220.343,144z M13.958,140.893c-0.827,0-1.523-0.586-1.703-1.385
		c-0.11-0.457,0-0.914,0.236-1.299c0.29-0.414,0.671-0.666,1.121-0.77c0.025,0,0.276-0.027,0.346-0.027
		c0.845,0,1.537,0.559,1.707,1.389c0.18,0.945-0.415,1.852-1.36,2.057C14.247,140.857,14.032,140.893,13.958,140.893L13.958,140.893
		z M221.538,138.385c-0.084,0-0.285-0.029-0.315-0.029c-0.46-0.08-0.88-0.352-1.159-0.73c-0.236-0.385-0.343-0.842-0.236-1.293
		c0.135-0.844,0.861-1.428,1.711-1.428c0.761,0.102,1.173,0.383,1.422,0.764c0.28,0.385,0.385,0.842,0.28,1.291
		C223.095,137.795,222.368,138.385,221.538,138.385L221.538,138.385z M12.706,133.676c-0.875,0-1.602-0.625-1.745-1.494
		c-0.101-0.941,0.561-1.818,1.5-1.953c1.152-0.033,1.844,0.621,1.958,1.502c0.065,0.451-0.041,0.906-0.321,1.246
		c-0.267,0.395-0.692,0.631-1.15,0.699H12.706L12.706,133.676z M222.606,131.133c-0.027,0-0.162,0-0.207,0
		c-0.454-0.074-0.861-0.283-1.146-0.664c-0.279-0.307-0.385-0.689-0.385-1.078c0-0.07,0-0.141,0-0.211
		c0.105-0.871,0.836-1.535,1.738-1.535c1.146,0.143,1.846,1.01,1.749,1.949C224.247,130.469,223.485,131.133,222.606,131.133
		L222.606,131.133z M11.945,126.434c-0.915,0-1.686-0.734-1.746-1.641c-0.041-0.943,0.696-1.777,1.631-1.848l0,0
		c1.055,0,1.782,0.695,1.848,1.604c0.048,0.48-0.104,0.938-0.416,1.287c-0.315,0.348-0.736,0.561-1.183,0.598
		C12.045,126.434,11.976,126.434,11.945,126.434L11.945,126.434z M223.202,123.85c-0.031,0-0.066,0-0.107,0
		c-0.445-0.033-0.865-0.209-1.18-0.564c-0.319-0.34-0.482-0.797-0.461-1.256c0.045-0.936,0.803-1.67,1.748-1.67
		c1.011,0.039,1.785,0.875,1.745,1.811C224.874,123.105,224.112,123.85,223.202,123.85L223.202,123.85z M11.73,119.107
		c-0.98,0-1.741-0.777-1.741-1.746c0-0.979,0.761-1.743,1.741-1.743c0.941,0,1.748,0.764,1.748,1.743
		C13.437,118.33,12.671,119.107,11.73,119.107L11.73,119.107z M223.271,116.518L223.271,116.518c-0.973,0-1.733-0.762-1.733-1.705
		c-0.039-0.451,0.127-0.906,0.445-1.251c0.351-0.313,0.766-0.522,1.257-0.522l0,0c0.973,0,1.747,0.728,1.772,1.712
		c0,0.94-0.766,1.738-1.707,1.766H223.271L223.271,116.518z M11.976,111.783c0,0-0.073,0-0.104,0
		c-0.495-0.038-0.91-0.244-1.218-0.594c-0.284-0.348-0.429-0.807-0.394-1.291c0.044-0.867,0.815-1.61,1.716-1.61
		c0.591,0.036,1.011,0.25,1.322,0.603c0.315,0.336,0.455,0.805,0.429,1.292C13.638,111.088,12.886,111.783,11.976,111.783
		L11.976,111.783z M222.815,109.227c-0.9,0-1.632-0.689-1.746-1.595c-0.03-0.458,0.114-0.901,0.385-1.253
		c0.319-0.39,0.74-0.599,1.195-0.624c0.03,0,0.03,0,0.03,0c1.017,0,1.733,0.624,1.879,1.498c0,0,0,0.031,0,0.065
		c0.077,0.945-0.618,1.82-1.558,1.886L222.815,109.227L222.815,109.227z M12.782,104.495c-0.045,0-0.215,0-0.255,0
		c-0.936-0.131-1.631-1.007-1.496-1.988c0.145-0.834,0.872-1.491,1.707-1.491c1.222,0.161,1.891,1.034,1.748,1.986
		C14.347,103.87,13.638,104.495,12.782,104.495L12.782,104.495z M221.876,101.982c-0.867,0-1.564-0.629-1.699-1.458
		c-0.113-0.454,0-0.943,0.276-1.322c0.28-0.388,0.7-0.632,1.143-0.706c1.084-0.031,1.855,0.599,1.991,1.431
		c0.166,0.976-0.492,1.849-1.42,2.029L221.876,101.982L221.876,101.982z M14.032,97.306c-0.042,0-0.28-0.031-0.354-0.031
		c-0.446-0.107-0.837-0.382-1.111-0.767c-0.242-0.38-0.311-0.861-0.21-1.319c0.17-0.805,0.875-1.359,1.676-1.359
		c0.065,0,0.315,0.032,0.387,0.032c0.45,0.1,0.831,0.346,1.076,0.762c0.271,0.39,0.35,0.844,0.25,1.301
		C15.565,96.729,14.869,97.306,14.032,97.306L14.032,97.306z M220.413,94.802c-0.766,0-1.488-0.561-1.666-1.322
		c-0.256-0.975,0.344-1.921,1.285-2.128c0.071,0,0.355-0.031,0.381-0.031c0.84,0,1.532,0.555,1.706,1.35
		c0.215,0.94-0.346,1.856-1.291,2.094C220.763,94.766,220.479,94.802,220.413,94.802L220.413,94.802z M15.811,90.2
		c-0.066,0-0.381-0.037-0.491-0.069c-0.416-0.131-0.792-0.414-1.042-0.841c-0.211-0.379-0.288-0.88-0.139-1.328
		c0.208-0.73,0.9-1.25,1.672-1.25c0.065,0,0.415,0.035,0.489,0.075c0.91,0.245,1.463,1.221,1.187,2.124
		C17.275,89.675,16.58,90.2,15.811,90.2L15.811,90.2z M218.491,87.753L218.491,87.753c-0.766,0-1.457-0.522-1.662-1.219
		c-0.145-0.448-0.109-0.938,0.108-1.362c0.231-0.372,0.587-0.692,1.038-0.831c0.075-0.031,0.419-0.072,0.516-0.072
		c0.779,0,1.437,0.486,1.646,1.217c0.315,0.913-0.21,1.886-1.121,2.172C218.925,87.688,218.58,87.753,218.491,87.753L218.491,87.753
		z M18.047,83.229c-0.076,0-0.495-0.066-0.561-0.108c-0.457-0.139-0.806-0.491-1.015-0.905c-0.21-0.414-0.21-0.902-0.065-1.331
		c0.274-0.686,0.91-1.142,1.641-1.142c0.1,0,0.512,0.071,0.62,0.107c0.425,0.165,0.767,0.459,0.976,0.865
		c0.176,0.452,0.207,0.905,0.075,1.361C19.434,82.77,18.768,83.229,18.047,83.229L18.047,83.229z M216.058,80.861
		c-0.734,0-1.36-0.457-1.641-1.152c-0.314-0.877,0.109-1.897,1.015-2.238c0.101-0.029,0.519-0.106,0.626-0.106
		c0.705,0,1.361,0.424,1.642,1.083c0.172,0.45,0.137,0.909-0.035,1.366c-0.188,0.416-0.525,0.723-0.979,0.901
		C216.574,80.752,216.159,80.861,216.058,80.861L216.058,80.861z M20.795,76.431c-0.236,0-0.491-0.045-0.73-0.146
		c-0.872-0.381-1.249-1.43-0.872-2.299c0.346-0.841,1.43-1.257,2.257-0.907c0.917,0.426,1.297,1.432,0.917,2.34
		C22.086,76.045,21.495,76.431,20.795,76.431L20.795,76.431z M213.165,74.124c-0.67,0-1.292-0.381-1.576-1.004
		c-0.211-0.427-0.211-0.879-0.069-1.337c0.149-0.449,0.491-0.795,0.919-0.975c0.801-0.369,1.908-0.029,2.289,0.842
		c0.215,0.423,0.246,0.875,0.07,1.33c-0.17,0.449-0.491,0.797-0.896,0.973C213.655,74.053,213.406,74.124,213.165,74.124
		L213.165,74.124z M23.963,69.838c-0.271,0-0.582-0.071-0.827-0.206c-0.839-0.426-1.146-1.461-0.7-2.332
		c0.416-0.811,1.502-1.157,2.337-0.743c0.416,0.215,0.692,0.558,0.841,1.014c0.17,0.455,0.091,0.905-0.11,1.319
		C25.188,69.489,24.599,69.838,23.963,69.838L23.963,69.838z M209.817,67.604c-0.631,0-1.223-0.35-1.531-0.872
		c-0.46-0.845-0.137-1.915,0.689-2.381c0.842-0.444,1.887-0.129,2.374,0.667c0.218,0.387,0.274,0.87,0.136,1.3
		c-0.107,0.453-0.416,0.829-0.797,1.075C210.408,67.538,210.128,67.604,209.817,67.604L209.817,67.604z M27.597,63.494
		c-0.315,0-0.63-0.111-0.906-0.278c-0.385-0.217-0.669-0.599-0.775-1.046c-0.097-0.467-0.021-0.942,0.211-1.324
		c0.46-0.803,1.606-1.081,2.416-0.57c0.377,0.25,0.661,0.636,0.762,1.092c0.114,0.446,0.031,0.894-0.211,1.285
		C28.747,63.176,28.183,63.494,27.597,63.494L27.597,63.494z M206.009,61.367c-0.586,0-1.107-0.32-1.461-0.806
		c-0.242-0.384-0.314-0.865-0.242-1.321c0.107-0.46,0.385-0.842,0.762-1.083c0.73-0.489,1.887-0.283,2.416,0.494
		c0.513,0.825,0.273,1.911-0.529,2.434C206.68,61.256,206.364,61.367,206.009,61.367L206.009,61.367z M31.679,57.432
		c-0.389,0-0.735-0.145-1.019-0.358c-0.377-0.28-0.626-0.662-0.692-1.148c-0.073-0.459,0.031-0.911,0.315-1.288
		c0.513-0.732,1.672-0.947,2.399-0.389c0.771,0.564,0.955,1.643,0.425,2.446C32.751,57.146,32.226,57.432,31.679,57.432
		L31.679,57.432z M201.796,55.369c-0.521,0-1.042-0.246-1.389-0.702c-0.285-0.379-0.39-0.838-0.32-1.286
		c0.072-0.459,0.276-0.87,0.667-1.154c0.761-0.558,1.876-0.417,2.437,0.346c0.592,0.77,0.412,1.846-0.35,2.442
		C202.569,55.228,202.175,55.369,201.796,55.369L201.796,55.369z M36.165,51.604c-0.41,0-0.791-0.14-1.105-0.384
		c-0.352-0.323-0.601-0.737-0.632-1.186c-0.035-0.453,0.11-0.913,0.421-1.296c0.526-0.696,1.711-0.797,2.447-0.209
		c0.337,0.315,0.547,0.703,0.617,1.189c0.044,0.453-0.101,0.907-0.416,1.282C37.186,51.387,36.695,51.604,36.165,51.604
		L36.165,51.604z M197.195,49.683c-0.529,0-0.976-0.214-1.331-0.594c-0.627-0.725-0.555-1.817,0.18-2.476
		c0.705-0.59,1.855-0.519,2.472,0.173c0.632,0.734,0.57,1.855-0.17,2.474C198.026,49.542,197.618,49.683,197.195,49.683
		L197.195,49.683z M41.059,46.159c-0.46,0-0.911-0.168-1.216-0.485c-0.359-0.316-0.536-0.77-0.536-1.22
		c-0.031-0.492,0.145-0.911,0.491-1.254c0.63-0.664,1.79-0.701,2.434-0.039c0.703,0.662,0.74,1.784,0.079,2.473
		C41.965,45.954,41.505,46.159,41.059,46.159L41.059,46.159z M192.214,44.35c-0.498,0-0.941-0.209-1.262-0.526
		c-0.305-0.352-0.48-0.764-0.48-1.224c0-0.482,0.176-0.9,0.48-1.251c0.667-0.627,1.817-0.663,2.479,0c0.66,0.701,0.66,1.777,0,2.475
		C193.115,44.14,192.661,44.35,192.214,44.35L192.214,44.35z M46.285,41.032c-0.491,0-0.98-0.205-1.297-0.551
		c-0.315-0.353-0.476-0.806-0.454-1.262c0.035-0.454,0.222-0.901,0.564-1.221c0.696-0.62,1.852-0.554,2.478,0.143
		c0.311,0.35,0.489,0.806,0.454,1.255c-0.042,0.457-0.246,0.909-0.568,1.185C47.126,40.895,46.708,41.032,46.285,41.032
		L46.285,41.032z M186.835,39.326c-0.415,0-0.83-0.137-1.147-0.417c-0.742-0.626-0.8-1.743-0.175-2.44
		c0.627-0.698,1.783-0.803,2.482-0.179c0.721,0.632,0.793,1.708,0.162,2.443C187.815,39.114,187.324,39.326,186.835,39.326
		L186.835,39.326z M51.862,36.324c-0.526,0-1.042-0.28-1.357-0.695c-0.272-0.346-0.429-0.799-0.387-1.255
		c0.066-0.485,0.321-0.871,0.67-1.181c0.8-0.596,1.87-0.421,2.438,0.31c0.591,0.734,0.485,1.849-0.284,2.443
		C52.631,36.184,52.254,36.324,51.862,36.324L51.862,36.324z M181.153,34.724c-0.379,0-0.766-0.104-1.081-0.35
		c-0.73-0.558-0.91-1.676-0.315-2.443c0.526-0.725,1.713-0.906,2.447-0.342c0.381,0.28,0.596,0.695,0.657,1.148
		c0.073,0.489-0.03,0.942-0.352,1.292C182.204,34.481,181.671,34.724,181.153,34.724L181.153,34.724z M57.747,31.971
		c-0.547,0-1.102-0.281-1.417-0.765c-0.529-0.802-0.315-1.884,0.455-2.41c0.727-0.518,1.877-0.313,2.437,0.453
		c0.522,0.768,0.312,1.886-0.454,2.405C58.417,31.869,58.103,31.971,57.747,31.971L57.747,31.971z M175.157,30.541
		c-0.34,0-0.668-0.101-0.984-0.282c-0.802-0.555-1.006-1.631-0.486-2.404c0.525-0.798,1.643-1.045,2.412-0.519
		c0.802,0.519,1.046,1.6,0.521,2.403C176.274,30.228,175.753,30.541,175.157,30.541L175.157,30.541z M63.971,28.069
		c-0.638,0-1.233-0.352-1.544-0.877c-0.45-0.8-0.21-1.777,0.526-2.3c0.029-0.037,0.07-0.068,0.101-0.107
		c0.8-0.452,1.921-0.173,2.406,0.63c0.485,0.837,0.176,1.921-0.62,2.407C64.549,27.958,64.247,28.069,63.971,28.069L63.971,28.069z
		 M168.882,26.776c-0.315,0-0.596-0.107-0.872-0.244c-0.389-0.213-0.704-0.594-0.804-1.047c-0.142-0.453-0.111-0.907,0.139-1.327
		c0.452-0.802,1.571-1.112,2.373-0.66c0.381,0.207,0.696,0.556,0.836,1.011c0.141,0.452,0.068,0.941-0.14,1.359
		C170.099,26.422,169.498,26.776,168.882,26.776L168.882,26.776z M70.378,24.579c-0.661,0-1.257-0.386-1.566-0.978
		c-0.211-0.421-0.25-0.868-0.075-1.322c0.148-0.453,0.46-0.804,0.872-1.014c0.835-0.417,1.917-0.067,2.337,0.766
		c0.419,0.875,0.065,1.921-0.796,2.34C70.9,24.509,70.659,24.579,70.378,24.579L70.378,24.579z M162.353,23.432
		c-0.273,0-0.522-0.039-0.727-0.148c-0.872-0.415-1.253-1.458-0.872-2.33c0.425-0.837,1.471-1.223,2.343-0.837
		c0.869,0.417,1.25,1.427,0.838,2.296C163.647,23.046,163.021,23.432,162.353,23.432L162.353,23.432z M77.048,21.505
		c-0.704,0-1.339-0.411-1.614-1.04c-0.176-0.421-0.176-0.912,0-1.328c0.18-0.454,0.485-0.799,0.945-0.976
		c0.101-0.031,0.561-0.142,0.669-0.142c0.688,0,1.349,0.452,1.595,1.084c0.381,0.908-0.072,1.917-0.947,2.304
		C77.601,21.44,77.141,21.505,77.048,21.505L77.048,21.505z M155.624,20.57c-0.131,0-0.555-0.072-0.661-0.104
		c-0.411-0.176-0.756-0.526-0.936-0.943c-0.214-0.419-0.214-0.91-0.034-1.328c0.249-0.659,0.904-1.118,1.631-1.118
		c0.11,0,0.529,0.072,0.64,0.144c0.862,0.315,1.316,1.327,0.973,2.23C156.99,20.146,156.319,20.57,155.624,20.57L155.624,20.57z
		 M83.902,18.962c-0.766,0-1.431-0.49-1.676-1.185c-0.135-0.452-0.087-0.907,0.114-1.321c0.211-0.452,0.557-0.77,1.015-0.91
		c0.058-0.036,0.447-0.069,0.547-0.069c0.74,0,1.397,0.455,1.646,1.187c0.312,0.905-0.207,1.884-1.121,2.198
		C84.358,18.895,83.981,18.962,83.902,18.962L83.902,18.962z M148.687,18.194c-0.065,0-0.415-0.064-0.52-0.101
		c-0.426-0.141-0.806-0.454-1.011-0.836c-0.211-0.421-0.276-0.913-0.142-1.327c0.246-0.735,0.914-1.219,1.672-1.219
		c0.045,0,0.18,0,0.285,0.032c0.065,0,0.176,0,0.245,0.033c0.902,0.283,1.433,1.254,1.151,2.163
		C150.119,17.672,149.458,18.194,148.687,18.194L148.687,18.194z M90.922,16.87c-0.808,0-1.5-0.557-1.724-1.325
		c-0.101-0.451-0.025-0.904,0.224-1.327c0.205-0.382,0.589-0.66,1.042-0.805c0.066,0,0.385-0.028,0.458-0.028
		c0.753,0,1.453,0.525,1.672,1.287c0.097,0.453,0.065,0.912-0.178,1.331c-0.25,0.377-0.63,0.695-1.086,0.798
		C91.264,16.836,90.98,16.87,90.922,16.87L90.922,16.87z M141.61,16.277c-0.026,0-0.303-0.033-0.381-0.033
		c-0.451-0.14-0.836-0.417-1.072-0.799c-0.259-0.42-0.32-0.872-0.211-1.327c0.166-0.77,0.866-1.325,1.699-1.325
		c0.043,0,0.319,0.035,0.398,0.035c0.932,0.243,1.488,1.149,1.287,2.094C143.142,15.722,142.46,16.277,141.61,16.277L141.61,16.277z
		 M98.066,15.266c-0.875,0-1.571-0.593-1.747-1.429c-0.174-0.94,0.456-1.849,1.397-2.017c1.107-0.07,1.882,0.559,2.048,1.356
		c0.174,0.978-0.452,1.885-1.387,2.058L98.066,15.266L98.066,15.266z M134.472,14.849c-0.043,0-0.244-0.033-0.285-0.033
		c-0.979-0.143-1.602-1.048-1.461-1.988c0.135-0.87,0.862-1.459,1.703-1.459l0,0c0.1,0,0.209,0,0.314,0
		c0.945,0.168,1.572,1.077,1.44,2.017C136.038,14.219,135.298,14.849,134.472,14.849L134.472,14.849z M105.283,14.154
		c-0.91,0-1.641-0.66-1.747-1.534c-0.064-0.454,0.079-0.91,0.355-1.295c0.315-0.349,0.727-0.594,1.187-0.624
		c1.071-0.036,1.808,0.624,1.916,1.531c0.062,0.455-0.073,0.908-0.354,1.261c-0.276,0.379-0.692,0.584-1.146,0.66H105.283
		L105.283,14.154z M127.181,13.911c-0.035,0-0.142,0-0.18,0h-0.031c-0.906-0.143-1.603-0.978-1.502-1.887
		c0.072-0.906,0.811-1.605,1.713-1.605c1.115,0.105,1.846,0.95,1.741,1.918C128.812,13.246,128.087,13.911,127.181,13.911
		L127.181,13.911z M112.566,13.559c-0.941,0-1.707-0.731-1.747-1.634c-0.029-0.492,0.145-0.907,0.46-1.258
		c0.325-0.348,0.731-0.561,1.177-0.593c0.041,0,0.041,0,0.041,0c0.98,0,1.75,0.733,1.815,1.677c0.037,0.972-0.7,1.774-1.672,1.809
		H112.566L112.566,13.559z M119.894,13.494h-0.041c-0.48,0-0.9-0.213-1.26-0.561c-0.301-0.35-0.485-0.767-0.446-1.223
		c0-0.979,0.765-1.71,1.747-1.71c1.011,0.037,1.772,0.839,1.745,1.782C121.595,12.722,120.798,13.494,119.894,13.494L119.894,13.494
		z"/>
</g>
</svg>
