<?xml version="1.0" encoding="utf-8"?>
<!-- Generator: Adobe Illustrator 16.0.0, SVG Export Plug-In . SVG Version: 6.00 Build 0)  -->
<!DOCTYPE svg PUBLIC "-//W3C//DTD SVG 1.1//EN" "http://www.w3.org/Graphics/SVG/1.1/DTD/svg11.dtd">
<svg version="1.1" id="图层_1" xmlns="http://www.w3.org/2000/svg" xmlns:xlink="http://www.w3.org/1999/xlink" x="0px" y="0px"
	 width="235px" height="235px" viewBox="0 0 235 235" enable-background="new 0 0 235 235" xml:space="preserve">
<g>
	<radialGradient id="SVGID_1_" cx="117.5" cy="117.4995" r="117.4998" gradientUnits="userSpaceOnUse">
		<stop  offset="0.7927" style="stop-color:#000000"/>
		<stop  offset="0.8638" style="stop-color:#000102"/>
		<stop  offset="0.8962" style="stop-color:#00050A"/>
		<stop  offset="0.9209" style="stop-color:#000B16"/>
		<stop  offset="0.9416" style="stop-color:#001428"/>
		<stop  offset="0.9597" style="stop-color:#002040"/>
		<stop  offset="0.9759" style="stop-color:#002E5D"/>
		<stop  offset="0.98" style="stop-color:#003265"/>
		<stop  offset="1" style="stop-color:#1669BB"/>
	</radialGradient>
	<circle fill="url(#SVGID_1_)" cx="117.5" cy="117.5" r="117.5"/>
	<path fill="#004B8B" d="M200.893,133.784h-2.252c-0.387,0-0.74,0.186-1.017,0.496v-4.676c0-1.621-0.96-2.936-2.144-2.936h-2.564
		v-4.762c0-5.462-3.244-9.908-7.232-9.908H47.733c-3.988,0-7.233,4.445-7.233,9.908v45.186c0,5.463,3.245,9.906,7.233,9.906h137.951
		c3.988,0,7.232-4.443,7.232-9.906v-4.764h2.564c1.184,0,2.144-1.312,2.144-2.934v-4.676c0.276,0.309,0.63,0.496,1.017,0.496h2.252
		c0.889,0,1.607-0.986,1.607-2.201v-17.029C202.5,134.769,201.781,133.784,200.893,133.784z M187.56,167.093
		c0,1.416-0.842,2.568-1.876,2.568H47.733c-1.034,0-1.875-1.152-1.875-2.568v-45.186c0-1.418,0.841-2.568,1.875-2.568h137.951
		c1.034,0,1.876,1.15,1.876,2.568V167.093z"/>
	<path fill="#F73737" d="M60.13,162.116c0,2.221-1.115,4.021-2.49,4.021h-6.57c-1.375,0-2.49-1.801-2.49-4.021v-35.232
		c0-2.221,1.115-4.021,2.49-4.021h6.57c1.375,0,2.49,1.801,2.49,4.021V162.116z"/>
	<path fill="#1B3A4F" d="M119.606,224.999L119.606,224.999c-0.97,0-1.731-0.73-1.776-1.709c0-0.453,0.18-0.904,0.491-1.227
		c0.346-0.346,0.765-0.52,1.257-0.547c0.97,0,1.736,0.756,1.736,1.742c0.047,0.453-0.131,0.873-0.455,1.213
		C120.513,224.829,120.102,224.999,119.606,224.999L119.606,224.999L119.606,224.999z M112.289,224.894c-0.031,0-0.108,0-0.139,0
		c-0.911-0.037-1.676-0.869-1.603-1.812c0.035-0.947,0.806-1.682,1.741-1.682c0.53,0.047,0.976,0.252,1.288,0.604
		c0.315,0.311,0.45,0.766,0.45,1.256C113.966,224.159,113.195,224.894,112.289,224.894L112.289,224.894z M126.898,224.612
		c-0.906,0-1.676-0.689-1.736-1.598c-0.08-0.951,0.62-1.779,1.602-1.887l0,0c1.036,0,1.804,0.697,1.877,1.607
		c0.065,0.938-0.621,1.777-1.575,1.877H126.898L126.898,224.612z M105.012,224.269c-0.079,0-0.21,0-0.255,0
		c-0.45-0.074-0.866-0.312-1.142-0.664c-0.288-0.381-0.419-0.836-0.357-1.291c0.104-0.867,0.839-1.531,1.71-1.531
		c1.181,0.129,1.852,1.006,1.741,1.953C106.608,223.604,105.874,224.269,105.012,224.269L105.012,224.269z M134.151,223.712
		c-0.841,0-1.567-0.59-1.711-1.465c-0.065-0.459,0.03-0.906,0.284-1.289c0.267-0.385,0.699-0.629,1.146-0.709
		c0.031,0,0.031,0,0.075,0c1.115,0,1.815,0.607,1.942,1.434c0.148,0.984-0.52,1.848-1.461,2.029H134.151L134.151,223.712z
		 M97.746,223.149L97.746,223.149c-0.031,0-0.276-0.027-0.308-0.027c-0.459-0.082-0.875-0.354-1.15-0.736
		c-0.245-0.383-0.352-0.869-0.245-1.326c0.131-0.811,0.87-1.396,1.703-1.396c1.285,0.213,1.881,1.146,1.71,2.104
		C99.281,222.56,98.585,223.149,97.746,223.149L97.746,223.149z M141.33,222.313c-0.803,0-1.494-0.547-1.707-1.355
		c-0.215-0.943,0.385-1.891,1.32-2.094c0.083,0,0.32-0.031,0.387-0.031c0.804,0,1.51,0.555,1.706,1.354
		c0.104,0.453,0.043,0.908-0.196,1.289c-0.25,0.42-0.631,0.697-1.091,0.797C141.688,222.272,141.407,222.313,141.33,222.313
		L141.33,222.313z M90.603,221.544c-0.074,0-0.389-0.027-0.455-0.068c-0.91-0.24-1.467-1.184-1.221-2.121
		c0.21-0.768,0.872-1.332,1.676-1.332c0.069,0,0.377,0.076,0.46,0.076c0.893,0.244,1.458,1.213,1.239,2.129
		C92.101,220.985,91.408,221.544,90.603,221.544L90.603,221.544z M148.41,220.397c-0.762,0-1.466-0.482-1.676-1.223
		c-0.271-0.9,0.249-1.883,1.151-2.154c0.108-0.035,0.423-0.111,0.524-0.111c0.771,0,1.432,0.523,1.672,1.256
		c0.105,0.461,0.078,0.902-0.14,1.322c-0.235,0.428-0.595,0.74-1.042,0.842C148.827,220.354,148.476,220.397,148.41,220.397
		L148.41,220.397z M83.596,219.419c-0.106,0-0.46-0.031-0.561-0.064c-0.896-0.32-1.392-1.332-1.111-2.232
		c0.271-0.697,0.932-1.188,1.672-1.188c0.097,0,0.443,0.068,0.551,0.104c0.907,0.316,1.401,1.287,1.086,2.203
		C85.026,218.966,84.357,219.419,83.596,219.419L83.596,219.419z M155.312,218.022c-0.691,0-1.357-0.453-1.598-1.113
		c-0.359-0.906,0.098-1.918,0.967-2.268c0.114-0.037,0.529-0.111,0.631-0.111c0.736,0,1.362,0.461,1.643,1.127
		c0.35,0.902-0.098,1.912-1.008,2.266C155.838,217.954,155.418,218.022,155.312,218.022L155.312,218.022z M76.755,216.835
		c-0.137,0-0.561-0.066-0.661-0.094c-0.903-0.387-1.326-1.404-0.982-2.307c0.28-0.662,0.916-1.088,1.643-1.088
		c0.101,0,0.555,0.107,0.655,0.154c0.439,0.17,0.785,0.521,0.955,0.934c0.174,0.451,0.174,0.938,0,1.352
		C78.085,216.425,77.459,216.835,76.755,216.835L76.755,216.835z M162.048,215.163c-0.661,0-1.295-0.383-1.565-1.012
		c-0.189-0.414-0.215-0.895-0.035-1.328c0.139-0.449,0.447-0.801,0.904-0.971c0.793-0.385,1.879,0,2.295,0.842
		c0.211,0.412,0.211,0.908,0.069,1.328c-0.171,0.443-0.485,0.793-0.907,1.012C162.561,215.136,162.324,215.163,162.048,215.163
		L162.048,215.163z M70.106,213.8c-0.29,0-0.525-0.062-0.775-0.164c-0.875-0.453-1.222-1.504-0.806-2.373
		c0.421-0.801,1.537-1.191,2.347-0.732c0.868,0.379,1.218,1.434,0.792,2.293C71.359,213.454,70.764,213.8,70.106,213.8L70.106,213.8
		z M168.604,211.853c-0.638,0-1.215-0.354-1.54-0.902c-0.45-0.836-0.17-1.891,0.667-2.375c0.9-0.453,1.952-0.107,2.367,0.688
		c0.244,0.426,0.285,0.887,0.178,1.336c-0.139,0.453-0.454,0.805-0.834,1.049C169.191,211.784,168.915,211.853,168.604,211.853
		L168.604,211.853z M63.647,210.312c-0.315,0-0.595-0.107-0.868-0.24c-0.419-0.234-0.709-0.627-0.804-1.08
		c-0.11-0.447-0.041-0.9,0.208-1.322c0.453-0.799,1.568-1.084,2.364-0.592c0.844,0.49,1.117,1.52,0.634,2.367
		C64.873,209.966,64.277,210.312,63.647,210.312L63.647,210.312z M174.868,208.122c-0.581,0-1.142-0.318-1.453-0.799
		c-0.249-0.426-0.347-0.873-0.249-1.33c0.104-0.447,0.384-0.869,0.774-1.109c0.728-0.504,1.873-0.246,2.403,0.521
		c0.525,0.793,0.275,1.877-0.53,2.398C175.547,208.021,175.191,208.122,174.868,208.122L174.868,208.122z M57.51,206.376
		c-0.381,0-0.696-0.096-1.015-0.309c-0.792-0.561-0.976-1.641-0.447-2.439c0.524-0.768,1.676-0.975,2.438-0.463
		c0.766,0.564,0.972,1.65,0.454,2.449C58.596,206.067,58.071,206.376,57.51,206.376L57.51,206.376z M180.873,203.931
		c-0.561,0-1.047-0.271-1.391-0.697c-0.557-0.793-0.426-1.869,0.344-2.473c0.736-0.516,1.887-0.381,2.447,0.385
		c0.587,0.768,0.411,1.852-0.347,2.449C181.604,203.798,181.258,203.931,180.873,203.931L180.873,203.931z M51.619,201.987
		c-0.419,0-0.775-0.102-1.086-0.352c-0.761-0.625-0.874-1.711-0.278-2.477c0.564-0.725,1.711-0.834,2.445-0.271
		c0.352,0.305,0.591,0.691,0.622,1.188c0.079,0.447-0.066,0.9-0.346,1.289C52.63,201.774,52.139,201.987,51.619,201.987
		L51.619,201.987z M186.585,199.329c-0.519,0-1.007-0.197-1.318-0.623c-0.322-0.314-0.446-0.762-0.415-1.256
		c0.035-0.453,0.245-0.869,0.592-1.178c0.73-0.594,1.88-0.521,2.476,0.201c0.321,0.357,0.45,0.805,0.421,1.254
		c-0.04,0.457-0.245,0.883-0.63,1.188C187.395,199.192,187.008,199.329,186.585,199.329L186.585,199.329z M46.043,197.241
		c-0.46,0-0.88-0.17-1.185-0.457c-0.325-0.311-0.526-0.758-0.561-1.217c0-0.457,0.135-0.904,0.458-1.256
		c0.619-0.691,1.774-0.73,2.47-0.096c0.696,0.656,0.762,1.736,0.101,2.467C46.988,197.028,46.53,197.241,46.043,197.241
		L46.043,197.241z M191.964,194.378c-0.456,0-0.91-0.207-1.222-0.508c-0.35-0.32-0.516-0.775-0.516-1.262
		c0-0.453,0.209-0.873,0.516-1.227c0.658-0.623,1.817-0.658,2.479,0c0.664,0.705,0.664,1.82,0,2.488
		C192.875,194.216,192.422,194.378,191.964,194.378L191.964,194.378z M40.805,192.112c-0.452,0-0.938-0.209-1.243-0.555
		c-0.315-0.346-0.5-0.762-0.46-1.258c0-0.447,0.174-0.9,0.52-1.217c0.671-0.633,1.862-0.59,2.478,0.074
		c0.315,0.34,0.481,0.771,0.481,1.256c-0.031,0.447-0.205,0.9-0.547,1.219C41.671,191.95,41.263,192.112,40.805,192.112
		L40.805,192.112z M196.988,189.048c-0.424,0-0.811-0.135-1.156-0.414c-0.695-0.676-0.766-1.746-0.14-2.475
		c0.596-0.697,1.737-0.777,2.447-0.182c0.347,0.32,0.581,0.736,0.581,1.229c0.043,0.447-0.1,0.904-0.411,1.244
		C197.95,188.839,197.504,189.048,196.988,189.048L196.988,189.048z M35.969,186.606c-0.535,0-1.017-0.209-1.332-0.629
		c-0.315-0.344-0.454-0.801-0.381-1.283c0.035-0.455,0.25-0.873,0.626-1.145c0.626-0.57,1.741-0.527,2.333,0.125
		c0.048,0,0.079,0.072,0.104,0.107c0.636,0.744,0.522,1.818-0.236,2.443C36.769,186.474,36.379,186.606,35.969,186.606
		L35.969,186.606z M201.663,183.401c-0.39,0-0.774-0.141-1.09-0.379c-0.768-0.561-0.907-1.674-0.312-2.449
		c0.561-0.73,1.662-0.9,2.447-0.305c0.77,0.547,0.893,1.668,0.311,2.434C202.709,183.116,202.174,183.401,201.663,183.401
		L201.663,183.401z M31.5,180.815c-0.557,0-1.083-0.279-1.394-0.73c-0.278-0.383-0.389-0.828-0.319-1.287
		c0.069-0.457,0.319-0.871,0.696-1.158c0.771-0.51,1.887-0.342,2.443,0.428c0.565,0.764,0.385,1.844-0.376,2.408
		C32.225,180.716,31.889,180.815,31.5,180.815L31.5,180.815z M205.881,177.401c-0.357,0-0.683-0.104-0.949-0.271
		c-0.385-0.254-0.669-0.631-0.762-1.09c-0.065-0.416-0.039-0.873,0.201-1.217c0-0.068,0.041-0.1,0.041-0.141
		c0.52-0.727,1.635-0.967,2.402-0.488c0.834,0.561,1.053,1.637,0.529,2.443C207.033,177.13,206.465,177.401,205.881,177.401
		L205.881,177.401z M27.447,174.724c-0.582,0-1.142-0.32-1.463-0.842c-0.52-0.803-0.28-1.887,0.57-2.402
		c0.8-0.488,1.876-0.207,2.402,0.592c0.485,0.795,0.246,1.885-0.595,2.406C28.116,174.655,27.766,174.724,27.447,174.724
		L27.447,174.724z M209.681,171.161c-0.284,0-0.591-0.068-0.841-0.244c-0.42-0.213-0.691-0.588-0.845-1.041
		c-0.097-0.451-0.062-0.912,0.189-1.33c0.444-0.793,1.562-1.119,2.368-0.666c0.824,0.492,1.115,1.545,0.65,2.381
		C210.896,170.815,210.307,171.161,209.681,171.161L209.681,171.161z M23.827,168.372c-0.657,0-1.256-0.381-1.531-0.945
		c-0.21-0.414-0.276-0.871-0.145-1.324c0.145-0.449,0.46-0.805,0.875-1.045c0.8-0.41,1.921-0.064,2.376,0.742
		c0.415,0.861,0.1,1.91-0.739,2.363C24.383,168.308,24.107,168.372,23.827,168.372L23.827,168.372z M213.055,164.647
		c-0.241,0-0.525-0.039-0.73-0.145c-0.452-0.211-0.758-0.559-0.91-0.969c-0.172-0.463-0.137-0.947,0.07-1.371
		c0.388-0.832,1.471-1.219,2.306-0.832c0.872,0.42,1.26,1.459,0.837,2.332C214.346,164.263,213.711,164.647,213.055,164.647
		L213.055,164.647z M20.659,161.782c-0.702,0-1.328-0.424-1.612-1.049c-0.381-0.865,0.044-1.92,0.91-2.295
		c0.837-0.383,1.921,0.033,2.308,0.904c0.381,0.871-0.041,1.885-0.917,2.268C21.14,161.714,20.898,161.782,20.659,161.782
		L20.659,161.782z M215.949,157.946c-0.098,0-0.519-0.074-0.627-0.141c-0.906-0.348-1.322-1.359-0.977-2.225
		c0.246-0.701,0.877-1.119,1.604-1.119c0.107,0,0.529,0.064,0.624,0.107c0.902,0.348,1.362,1.355,1.011,2.256
		C217.312,157.493,216.684,157.946,215.949,157.946L215.949,157.946z M17.939,154.983c-0.731,0-1.403-0.494-1.641-1.189
		c-0.323-0.863,0.135-1.875,1.042-2.195c0.11-0.029,0.491-0.094,0.599-0.094c0.727,0,1.392,0.443,1.633,1.148
		c0.312,0.898-0.139,1.873-1.045,2.227C18.422,154.917,18.046,154.983,17.939,154.983L17.939,154.983z M218.394,151.044
		c-0.101,0-0.458-0.064-0.523-0.064c-0.911-0.326-1.433-1.299-1.151-2.197c0.24-0.734,0.91-1.23,1.675-1.23
		c0.075,0,0.421,0.039,0.53,0.068c0.902,0.326,1.418,1.291,1.139,2.199C219.826,150.554,219.165,151.044,218.394,151.044
		L218.394,151.044z M15.703,148.015c-0.762,0-1.458-0.527-1.672-1.299c-0.244-0.906,0.272-1.881,1.218-2.123
		c0.069-0.037,0.388-0.07,0.454-0.07c0.73,0,1.356,0.459,1.612,1.082c0.025,0.074,0.06,0.129,0.06,0.174
		c0.286,0.938-0.271,1.92-1.177,2.168C16.084,147.972,15.765,148.015,15.703,148.015L15.703,148.015z M220.342,143.999
		c-0.062,0-0.35-0.029-0.415-0.074c-0.941-0.207-1.502-1.182-1.292-2.082c0.205-0.805,0.907-1.328,1.707-1.328
		c0.07,0,0.346,0.039,0.42,0.039c0.421,0.098,0.799,0.379,1.037,0.764c0.26,0.414,0.367,0.873,0.211,1.32
		C221.852,143.444,221.152,143.999,220.342,143.999L220.342,143.999z M13.958,140.892c-0.827,0-1.523-0.584-1.703-1.383
		c-0.11-0.459,0-0.914,0.236-1.299c0.29-0.416,0.671-0.666,1.121-0.771c0.025,0,0.276-0.025,0.346-0.025
		c0.845,0,1.537,0.557,1.707,1.387c0.18,0.947-0.415,1.852-1.36,2.059C14.246,140.858,14.031,140.892,13.958,140.892L13.958,140.892
		z M221.537,138.386c-0.084,0-0.285-0.029-0.315-0.029c-0.46-0.082-0.88-0.354-1.159-0.73c-0.236-0.387-0.343-0.842-0.236-1.293
		c0.135-0.844,0.861-1.428,1.711-1.428c0.761,0.1,1.173,0.381,1.422,0.762c0.28,0.385,0.385,0.842,0.28,1.293
		C223.094,137.794,222.367,138.386,221.537,138.386L221.537,138.386z M12.705,133.675c-0.875,0-1.602-0.623-1.745-1.494
		c-0.101-0.939,0.561-1.816,1.5-1.951c1.152-0.035,1.844,0.621,1.958,1.5c0.065,0.451-0.041,0.908-0.321,1.248
		c-0.267,0.395-0.692,0.629-1.15,0.697H12.705L12.705,133.675z M222.605,131.132c-0.027,0-0.162,0-0.207,0
		c-0.454-0.074-0.861-0.281-1.146-0.664c-0.279-0.307-0.385-0.688-0.385-1.078c0-0.07,0-0.141,0-0.209
		c0.105-0.871,0.836-1.535,1.738-1.535c1.146,0.141,1.846,1.01,1.749,1.949C224.246,130.468,223.484,131.132,222.605,131.132
		L222.605,131.132z M11.944,126.433c-0.915,0-1.686-0.732-1.746-1.639c-0.041-0.945,0.696-1.779,1.631-1.85l0,0
		c1.055,0,1.782,0.695,1.848,1.604c0.048,0.48-0.104,0.939-0.416,1.289c-0.315,0.346-0.736,0.561-1.183,0.596
		C12.044,126.433,11.975,126.433,11.944,126.433L11.944,126.433z M223.201,123.849c-0.031,0-0.066,0-0.107,0
		c-0.445-0.031-0.865-0.209-1.18-0.562c-0.319-0.342-0.482-0.797-0.461-1.258c0.045-0.936,0.803-1.668,1.748-1.668
		c1.011,0.039,1.785,0.873,1.745,1.811C224.873,123.106,224.111,123.849,223.201,123.849L223.201,123.849z M11.729,119.106
		c-0.98,0-1.741-0.775-1.741-1.746c0-0.979,0.761-1.742,1.741-1.742c0.941,0,1.748,0.764,1.748,1.742
		C13.436,118.331,12.67,119.106,11.729,119.106L11.729,119.106z M223.271,116.517L223.271,116.517c-0.973,0-1.733-0.761-1.733-1.705
		c-0.039-0.451,0.127-0.906,0.445-1.25c0.351-0.314,0.766-0.522,1.257-0.522l0,0c0.973,0,1.747,0.729,1.772,1.712
		c0,0.941-0.766,1.739-1.707,1.766H223.271L223.271,116.517z M11.975,111.783c0,0-0.073,0-0.104,0
		c-0.495-0.037-0.91-0.244-1.218-0.594c-0.284-0.348-0.429-0.807-0.394-1.291c0.044-0.867,0.815-1.61,1.716-1.61
		c0.591,0.036,1.011,0.251,1.322,0.603c0.315,0.337,0.455,0.806,0.429,1.293C13.637,111.088,12.885,111.783,11.975,111.783
		L11.975,111.783z M222.814,109.227c-0.9,0-1.632-0.688-1.746-1.595c-0.03-0.458,0.114-0.901,0.385-1.254
		c0.319-0.39,0.74-0.599,1.195-0.623c0.03,0,0.03,0,0.03,0c1.017,0,1.733,0.623,1.879,1.498c0,0,0,0.03,0,0.064
		c0.077,0.945-0.618,1.82-1.558,1.887L222.814,109.227L222.814,109.227z M12.781,104.495c-0.045,0-0.215,0-0.255,0
		c-0.936-0.132-1.631-1.007-1.496-1.987c0.145-0.834,0.872-1.492,1.707-1.492c1.222,0.162,1.891,1.034,1.748,1.986
		C14.346,103.871,13.637,104.495,12.781,104.495L12.781,104.495z M221.875,101.982c-0.867,0-1.564-0.629-1.699-1.459
		c-0.113-0.453,0-0.942,0.276-1.321c0.28-0.388,0.7-0.632,1.143-0.706c1.084-0.031,1.855,0.6,1.991,1.432
		c0.166,0.977-0.492,1.85-1.42,2.029L221.875,101.982L221.875,101.982z M14.031,97.306c-0.042,0-0.28-0.031-0.354-0.031
		c-0.446-0.107-0.837-0.383-1.111-0.768c-0.242-0.38-0.311-0.86-0.21-1.318c0.17-0.805,0.875-1.359,1.676-1.359
		c0.065,0,0.315,0.032,0.387,0.032c0.45,0.1,0.831,0.347,1.076,0.762c0.271,0.39,0.35,0.844,0.25,1.301
		C15.564,96.73,14.868,97.306,14.031,97.306L14.031,97.306z M220.412,94.802c-0.766,0-1.488-0.561-1.666-1.322
		c-0.256-0.975,0.344-1.921,1.285-2.127c0.071,0,0.355-0.031,0.381-0.031c0.84,0,1.532,0.555,1.706,1.35
		c0.215,0.94-0.346,1.856-1.291,2.094C220.762,94.765,220.478,94.802,220.412,94.802L220.412,94.802z M15.81,90.201
		c-0.066,0-0.381-0.037-0.491-0.07c-0.416-0.131-0.792-0.414-1.042-0.84c-0.211-0.379-0.288-0.881-0.139-1.328
		c0.208-0.73,0.9-1.25,1.672-1.25c0.065,0,0.415,0.035,0.489,0.074c0.91,0.246,1.463,1.222,1.187,2.125
		C17.274,89.675,16.579,90.201,15.81,90.201L15.81,90.201z M218.49,87.753L218.49,87.753c-0.766,0-1.457-0.521-1.662-1.219
		c-0.145-0.447-0.109-0.938,0.108-1.361c0.231-0.373,0.587-0.692,1.038-0.832c0.075-0.03,0.419-0.072,0.516-0.072
		c0.779,0,1.437,0.486,1.646,1.217c0.315,0.914-0.21,1.887-1.121,2.173C218.924,87.687,218.579,87.753,218.49,87.753L218.49,87.753z
		 M18.046,83.228c-0.076,0-0.495-0.066-0.561-0.107c-0.457-0.139-0.806-0.491-1.015-0.906c-0.21-0.413-0.21-0.901-0.065-1.33
		c0.274-0.687,0.91-1.143,1.641-1.143c0.1,0,0.512,0.07,0.62,0.107c0.425,0.164,0.767,0.459,0.976,0.865
		c0.176,0.451,0.207,0.904,0.075,1.36C19.433,82.769,18.767,83.228,18.046,83.228L18.046,83.228z M216.057,80.861
		c-0.734,0-1.36-0.457-1.641-1.152c-0.314-0.877,0.109-1.896,1.015-2.238c0.101-0.029,0.519-0.105,0.626-0.105
		c0.705,0,1.361,0.424,1.642,1.082c0.172,0.45,0.137,0.909-0.035,1.365c-0.188,0.416-0.525,0.723-0.979,0.902
		C216.573,80.752,216.158,80.861,216.057,80.861L216.057,80.861z M20.794,76.431c-0.236,0-0.491-0.046-0.73-0.146
		c-0.872-0.381-1.249-1.43-0.872-2.3c0.346-0.841,1.43-1.257,2.257-0.907c0.917,0.427,1.297,1.432,0.917,2.34
		C22.085,76.045,21.494,76.431,20.794,76.431L20.794,76.431z M213.164,74.125c-0.67,0-1.292-0.381-1.576-1.005
		c-0.211-0.427-0.211-0.88-0.069-1.337c0.149-0.449,0.491-0.796,0.919-0.976c0.801-0.369,1.908-0.028,2.289,0.842
		c0.215,0.423,0.246,0.874,0.07,1.329c-0.17,0.449-0.491,0.798-0.896,0.973C213.654,74.053,213.405,74.125,213.164,74.125
		L213.164,74.125z M23.962,69.837c-0.271,0-0.582-0.07-0.827-0.205c-0.839-0.426-1.146-1.461-0.7-2.332
		c0.416-0.811,1.502-1.157,2.337-0.744c0.416,0.215,0.692,0.559,0.841,1.014c0.17,0.455,0.091,0.905-0.11,1.32
		C25.188,69.49,24.598,69.837,23.962,69.837L23.962,69.837z M209.816,67.605c-0.631,0-1.223-0.35-1.531-0.872
		c-0.46-0.845-0.137-1.915,0.689-2.382c0.842-0.443,1.887-0.129,2.374,0.668c0.218,0.387,0.274,0.869,0.136,1.299
		c-0.107,0.453-0.416,0.83-0.797,1.075C210.407,67.538,210.127,67.605,209.816,67.605L209.816,67.605z M27.596,63.494
		c-0.315,0-0.63-0.11-0.906-0.277c-0.385-0.218-0.669-0.6-0.775-1.047c-0.097-0.467-0.021-0.942,0.211-1.324
		c0.46-0.803,1.606-1.081,2.416-0.57c0.377,0.25,0.661,0.637,0.762,1.092c0.114,0.447,0.031,0.895-0.211,1.285
		C28.746,63.176,28.182,63.494,27.596,63.494L27.596,63.494z M206.008,61.367c-0.586,0-1.107-0.319-1.461-0.806
		c-0.242-0.384-0.314-0.864-0.242-1.321c0.107-0.459,0.385-0.842,0.762-1.083c0.73-0.489,1.887-0.283,2.416,0.493
		c0.513,0.825,0.273,1.911-0.529,2.434C206.679,61.255,206.363,61.367,206.008,61.367L206.008,61.367z M31.678,57.432
		c-0.389,0-0.735-0.146-1.019-0.358c-0.377-0.279-0.626-0.662-0.692-1.147c-0.073-0.459,0.031-0.911,0.315-1.288
		c0.513-0.732,1.672-0.947,2.399-0.389c0.771,0.564,0.955,1.643,0.425,2.445C32.75,57.146,32.225,57.432,31.678,57.432
		L31.678,57.432z M201.795,55.369c-0.521,0-1.042-0.246-1.389-0.701c-0.285-0.379-0.39-0.838-0.32-1.287
		c0.072-0.459,0.276-0.869,0.667-1.153c0.761-0.558,1.876-0.417,2.437,0.346c0.592,0.77,0.412,1.846-0.35,2.442
		C202.568,55.228,202.174,55.369,201.795,55.369L201.795,55.369z M36.164,51.603c-0.41,0-0.791-0.14-1.105-0.383
		c-0.352-0.323-0.601-0.738-0.632-1.186c-0.035-0.453,0.11-0.913,0.421-1.297c0.526-0.695,1.711-0.797,2.447-0.209
		c0.337,0.315,0.547,0.703,0.617,1.189c0.044,0.453-0.101,0.907-0.416,1.282C37.185,51.387,36.694,51.603,36.164,51.603
		L36.164,51.603z M197.194,49.683c-0.529,0-0.976-0.215-1.331-0.594c-0.627-0.726-0.555-1.817,0.18-2.477
		c0.705-0.59,1.855-0.519,2.472,0.174c0.632,0.734,0.57,1.855-0.17,2.473C198.025,49.542,197.617,49.683,197.194,49.683
		L197.194,49.683z M41.058,46.159c-0.46,0-0.911-0.169-1.216-0.485c-0.359-0.316-0.536-0.77-0.536-1.219
		c-0.031-0.492,0.145-0.911,0.491-1.254c0.63-0.664,1.79-0.701,2.434-0.039c0.703,0.662,0.74,1.784,0.079,2.473
		C41.964,45.955,41.504,46.159,41.058,46.159L41.058,46.159z M192.213,44.349c-0.498,0-0.941-0.209-1.262-0.525
		c-0.305-0.352-0.48-0.764-0.48-1.224c0-0.481,0.176-0.9,0.48-1.251c0.667-0.627,1.817-0.664,2.479,0c0.66,0.7,0.66,1.777,0,2.475
		C193.114,44.14,192.66,44.349,192.213,44.349L192.213,44.349z M46.284,41.032c-0.491,0-0.98-0.205-1.297-0.551
		c-0.315-0.353-0.476-0.806-0.454-1.263c0.035-0.453,0.222-0.9,0.564-1.221c0.696-0.619,1.852-0.554,2.478,0.144
		c0.311,0.351,0.489,0.806,0.454,1.255c-0.042,0.457-0.246,0.909-0.568,1.186C47.125,40.894,46.708,41.032,46.284,41.032
		L46.284,41.032z M186.834,39.326c-0.415,0-0.83-0.137-1.147-0.417c-0.742-0.626-0.8-1.743-0.175-2.44
		c0.627-0.697,1.783-0.803,2.482-0.179c0.721,0.632,0.793,1.708,0.162,2.442C187.814,39.115,187.323,39.326,186.834,39.326
		L186.834,39.326z M51.861,36.324c-0.526,0-1.042-0.279-1.357-0.694c-0.272-0.347-0.429-0.8-0.387-1.255
		c0.066-0.485,0.321-0.871,0.67-1.182c0.8-0.596,1.87-0.42,2.438,0.311c0.591,0.734,0.485,1.849-0.284,2.443
		C52.63,36.184,52.253,36.324,51.861,36.324L51.861,36.324z M181.152,34.724c-0.379,0-0.766-0.104-1.081-0.35
		c-0.73-0.559-0.91-1.676-0.315-2.443c0.526-0.725,1.713-0.906,2.447-0.342c0.381,0.279,0.596,0.694,0.657,1.148
		c0.073,0.488-0.03,0.941-0.352,1.291C182.203,34.482,181.67,34.724,181.152,34.724L181.152,34.724z M57.746,31.97
		c-0.547,0-1.102-0.281-1.417-0.764c-0.529-0.803-0.315-1.885,0.455-2.41c0.727-0.519,1.877-0.313,2.437,0.453
		c0.522,0.768,0.312,1.885-0.454,2.404C58.417,31.869,58.102,31.97,57.746,31.97L57.746,31.97z M175.156,30.541
		c-0.34,0-0.668-0.101-0.984-0.282c-0.802-0.555-1.006-1.632-0.486-2.403c0.525-0.799,1.643-1.046,2.412-0.52
		c0.802,0.52,1.046,1.601,0.521,2.404C176.273,30.228,175.752,30.541,175.156,30.541L175.156,30.541z M63.97,28.07
		c-0.638,0-1.233-0.353-1.544-0.878c-0.45-0.8-0.21-1.777,0.526-2.3c0.029-0.037,0.07-0.068,0.101-0.107
		c0.8-0.451,1.921-0.174,2.406,0.63c0.485,0.837,0.176,1.921-0.62,2.407C64.548,27.958,64.246,28.07,63.97,28.07L63.97,28.07z
		 M168.881,26.777c-0.315,0-0.596-0.107-0.872-0.244c-0.389-0.213-0.704-0.594-0.804-1.047c-0.142-0.453-0.111-0.907,0.139-1.328
		c0.452-0.802,1.571-1.111,2.373-0.66c0.381,0.207,0.696,0.557,0.836,1.012c0.141,0.451,0.068,0.941-0.14,1.358
		C170.098,26.422,169.497,26.777,168.881,26.777L168.881,26.777z M70.377,24.579c-0.661,0-1.257-0.386-1.566-0.978
		c-0.211-0.422-0.25-0.869-0.075-1.322c0.148-0.453,0.46-0.805,0.872-1.014c0.835-0.418,1.917-0.067,2.337,0.766
		c0.419,0.875,0.065,1.92-0.796,2.34C70.899,24.509,70.658,24.579,70.377,24.579L70.377,24.579z M162.352,23.432
		c-0.273,0-0.522-0.038-0.727-0.148c-0.872-0.415-1.253-1.458-0.872-2.33c0.425-0.837,1.471-1.223,2.343-0.837
		c0.869,0.418,1.25,1.428,0.838,2.296C163.646,23.046,163.02,23.432,162.352,23.432L162.352,23.432z M77.047,21.505
		c-0.704,0-1.339-0.41-1.614-1.04c-0.176-0.421-0.176-0.912,0-1.327c0.18-0.455,0.485-0.8,0.945-0.977
		c0.101-0.031,0.561-0.143,0.669-0.143c0.688,0,1.349,0.453,1.595,1.084c0.381,0.908-0.072,1.917-0.947,2.305
		C77.6,21.441,77.14,21.505,77.047,21.505L77.047,21.505z M155.623,20.57c-0.131,0-0.555-0.072-0.661-0.104
		c-0.411-0.176-0.756-0.526-0.936-0.942c-0.214-0.42-0.214-0.91-0.034-1.328c0.249-0.66,0.904-1.119,1.631-1.119
		c0.11,0,0.529,0.072,0.64,0.145c0.862,0.314,1.316,1.327,0.973,2.23C156.989,20.146,156.318,20.57,155.623,20.57L155.623,20.57z
		 M83.901,18.962c-0.766,0-1.431-0.49-1.676-1.186c-0.135-0.452-0.087-0.906,0.114-1.321c0.211-0.452,0.557-0.771,1.015-0.91
		c0.058-0.036,0.447-0.069,0.547-0.069c0.74,0,1.397,0.455,1.646,1.188c0.312,0.904-0.207,1.884-1.121,2.197
		C84.357,18.895,83.98,18.962,83.901,18.962L83.901,18.962z M148.686,18.195c-0.065,0-0.415-0.064-0.52-0.102
		c-0.426-0.141-0.806-0.453-1.011-0.836c-0.211-0.421-0.276-0.912-0.142-1.326c0.246-0.734,0.914-1.219,1.672-1.219
		c0.045,0,0.18,0,0.285,0.031c0.065,0,0.176,0,0.245,0.033c0.902,0.283,1.433,1.255,1.151,2.163
		C150.118,17.672,149.457,18.195,148.686,18.195L148.686,18.195z M90.921,16.871c-0.808,0-1.5-0.558-1.724-1.325
		c-0.101-0.45-0.025-0.903,0.224-1.327c0.205-0.381,0.589-0.66,1.042-0.805c0.066,0,0.385-0.027,0.458-0.027
		c0.753,0,1.453,0.525,1.672,1.287c0.097,0.453,0.065,0.912-0.178,1.33c-0.25,0.377-0.63,0.695-1.086,0.799
		C91.263,16.836,90.979,16.871,90.921,16.871L90.921,16.871z M141.609,16.277c-0.026,0-0.303-0.033-0.381-0.033
		c-0.451-0.14-0.836-0.417-1.072-0.799c-0.259-0.42-0.32-0.871-0.211-1.326c0.166-0.77,0.866-1.326,1.699-1.326
		c0.043,0,0.319,0.035,0.398,0.035c0.932,0.242,1.488,1.149,1.287,2.094C143.141,15.722,142.459,16.277,141.609,16.277
		L141.609,16.277z M98.065,15.266c-0.875,0-1.571-0.593-1.747-1.429c-0.174-0.941,0.456-1.85,1.397-2.018
		c1.107-0.07,1.882,0.559,2.048,1.355c0.174,0.979-0.452,1.885-1.387,2.059L98.065,15.266L98.065,15.266z M134.471,14.849
		c-0.043,0-0.244-0.033-0.285-0.033c-0.979-0.143-1.602-1.048-1.461-1.988c0.135-0.869,0.862-1.459,1.703-1.459l0,0
		c0.1,0,0.209,0,0.314,0c0.945,0.168,1.572,1.076,1.44,2.018C136.037,14.218,135.297,14.849,134.471,14.849L134.471,14.849z
		 M105.282,14.154c-0.91,0-1.641-0.66-1.747-1.533c-0.064-0.455,0.079-0.91,0.355-1.295c0.315-0.35,0.727-0.594,1.187-0.624
		c1.071-0.036,1.808,0.624,1.916,1.53c0.062,0.455-0.073,0.908-0.354,1.262c-0.276,0.379-0.692,0.584-1.146,0.66H105.282
		L105.282,14.154z M127.18,13.912c-0.035,0-0.142,0-0.18,0h-0.031c-0.906-0.144-1.603-0.979-1.502-1.888
		c0.072-0.905,0.811-1.605,1.713-1.605c1.115,0.105,1.846,0.95,1.741,1.919C128.811,13.246,128.086,13.912,127.18,13.912
		L127.18,13.912z M112.565,13.558c-0.941,0-1.707-0.73-1.747-1.634c-0.029-0.491,0.145-0.907,0.46-1.259
		c0.325-0.348,0.731-0.561,1.177-0.593c0.041,0,0.041,0,0.041,0c0.98,0,1.75,0.733,1.815,1.677c0.037,0.973-0.7,1.773-1.672,1.809
		H112.565L112.565,13.558z M119.893,13.494h-0.041c-0.48,0-0.9-0.213-1.26-0.561c-0.301-0.35-0.485-0.768-0.446-1.223
		c0-0.979,0.765-1.711,1.747-1.711c1.011,0.037,1.772,0.84,1.745,1.783C121.594,12.722,120.797,13.494,119.893,13.494
		L119.893,13.494z"/>
</g>
</svg>
