<?xml version="1.0" encoding="utf-8"?>
<!-- Generator: Adobe Illustrator 16.0.0, SVG Export Plug-In . SVG Version: 6.00 Build 0)  -->
<!DOCTYPE svg PUBLIC "-//W3C//DTD SVG 1.1//EN" "http://www.w3.org/Graphics/SVG/1.1/DTD/svg11.dtd">
<svg version="1.1" id="图层_1" xmlns="http://www.w3.org/2000/svg" xmlns:xlink="http://www.w3.org/1999/xlink" x="0px" y="0px"
	 width="649px" height="406px" viewBox="0 0 649 406" enable-background="new 0 0 649 406" xml:space="preserve">
<g>
	<g opacity="0.01">
		<g id="Line_1_">
			<path opacity="0.1" fill="#0BC0FF" d="M69.345,378.801l77.223-85.607l-81.653-73.846l154.591-7.011l25.297-28.043L228.399,80.396
				l49.47,67.239L390.97,22.254l1.21,1.581l121.008,158.348l11.652-51.312l76.491,64.428v107.672L514.85,189.805l-11.603,51.097
				l-84.093-84.421l157.219,226.819H305.728l66.626-101.66l-94.745-128.778l-29.294,32.474l4.547,28.798l-31.826,1.443
				l-69.798,77.377l19.596,17.723l-97.795,70.113L69.345,378.801z M311.849,379.992h258.206L405.838,143.078l2.53-2.11
				l92.983,93.345l10.883-47.93L390.76,27.425l-110.89,122.93l96.508,131.174L311.849,379.992z M149.021,295.412l-68.516,75.953
				l85.066-60.984L149.021,295.412z M515.803,185.605l82.221,107.592v-96.359L526.861,136.9L515.803,185.605z M73.097,222.287
				l75.688,68.449l67.606-74.947L73.097,222.287z M245.465,188.496l-21.315,23.631l24.868-1.128L245.465,188.496z M247.651,181.134
				l27.956-30.991l-41.823-56.845L247.651,181.134z"/>
			<path opacity="0.1" fill="#0067AD" d="M67.352,383.93V220.039l0.6-0.498L230.244,85.402l0.249-0.097l161.722-62.763
				l16.663,119.667l-0.068,0.298l-32.02,138.538l0.548,0.307l23.539-8.572l125.431-141.91l75.129,167.095l-25.126,85.336H307.604
				l-0.351,0.396l-0.788-0.396h-2.67l1.076-0.801l-92.104-46.221L67.352,383.93z M313.78,379.992h260.056l24.082-81.789
				l-72.524-161.302L407.387,270.41l94.896-34.557l1.496,2.715L313.78,379.992z M217.229,334.816l89.233,44.781l89.827-101.627
				l-24.222,8.82l0.679-2.936L217.229,334.816z M70.659,221.596v157.77l137.91-45.191l-46.08-23.127l88.088-100.576l123.207,68.893
				l31.733-137.303L389.515,27.138L231.94,88.292L70.659,221.596z M402.798,275.6l-87.872,99.418l177.32-131.99L402.798,275.6z
				 M167.795,310.01l45.237,22.701l157.234-51.523l-118.965-66.523L167.795,310.01z"/>
			<path opacity="0.3" fill="#22BCFF" d="M68.802,387.732l-0.833-0.543c-2.477-1.617-60.648-40.205-59.748-90.584
				c0.508-28.391,19.794-54.479,57.328-77.557c-0.729-11.215-2.108-63.363,31.305-100.276c21.911-24.206,54.104-36.48,95.684-36.48
				c12.234,0,25.452,1.081,39.311,3.212c9.319-8.988,69.929-64.173,152.505-64.173c2.776,0,5.585,0.063,8.358,0.186
				c1.133-0.203,4.275-0.675,8.955-0.675c22.504,0,79.613,10.725,126.205,109.556c1.371-0.087,3.278-0.169,5.599-0.169
				c12.891,0,37.012,2.498,53.714,19.224c11.31,11.326,17.207,27.185,17.546,47.164c7.404,4.139,34.547,21.041,36.632,47.391
				c1.509,19.064-10.498,38.283-35.7,57.162c4.396,5.641,12.938,19.061,10.88,36.105c-2.092,17.338-14.479,33.213-36.817,47.178
				l-0.797,0.496l-0.939,0.006L68.802,387.732z M192.537,88.909c-39.611,0-70.143,11.529-90.746,34.267
				c-34.858,38.47-29.552,96.73-29.494,97.314l0.205,2.078l-1.788,1.08c-36.597,22.082-55.397,46.66-55.878,73.057
				c-0.796,43.666,48.98,79.592,55.95,84.402l506.221-2.764c20.026-12.699,31.114-26.758,32.959-41.791
				c2.339-19.072-11.359-33.502-11.497-33.646l-2.655-2.75l3.097-2.236c25.163-18.113,37.227-36.076,35.856-53.391
				c-2.073-26.211-34.49-42.806-34.816-42.97l-1.825-0.917l0.003-2.042c0.027-19.098-5.229-34.06-15.627-44.472
				c-15.016-15.037-37.165-17.282-49.031-17.282c-4.408,0-7.202,0.322-7.231,0.326l-2.378,0.278l-1.011-2.172
				C477.688,37.964,423.057,27.458,401.666,27.458c-5.05,0-7.995,0.609-8.024,0.616l-0.415,0.088l-0.432-0.018
				c-2.797-0.131-5.639-0.197-8.442-0.197c-86.672,0-148.38,62.75-148.993,63.384l-1.198,1.237l-1.699-0.271
				C218.344,90.049,204.911,88.909,192.537,88.909z"/>
		</g>
	</g>
		<g>
		<path fill="#006EB4" opacity="0.6" d="M340.539,264.35h49.698v-85.186h-49.698V264.35z M365.402,255.75c-3.027,0-5.479-2.455-5.479-5.488
			c0-3.006,2.451-5.453,5.479-5.453c2.999,0,5.458,2.447,5.458,5.453C370.86,253.295,368.401,255.75,365.402,255.75z
			 M347.652,186.265h35.483v8.535h-35.483V186.265z M347.652,201.894h35.483v8.495h-35.483V201.894z M347.652,217.49h35.483v8.543
			h-35.483V217.49z"/>
		<polygon fill="#006EB4" opacity="0.6" points="393.672,191.588 398.871,191.588 398.871,198.821 393.672,198.821 393.672,204.859 
			398.871,204.859 398.871,212.086 393.672,212.086 393.672,218.115 398.871,218.115 398.871,225.391 393.672,225.391 
			393.672,257.957 404.91,257.957 404.91,185.557 393.672,185.557 		"/>
		<path fill="#006EB4" opacity="0.6" d="M409.828,254.652v8.223h-14.669v6.4h-59.543v-6.4h-14.409v-8.223
			c-14.179,3.609-23.179,8.906-23.179,14.822c0,10.875,30.219,19.689,67.489,19.689s67.489-8.814,67.489-19.689
			C433.007,263.559,424.007,258.262,409.828,254.652z"/>
		<polygon fill="#006EB4" opacity="0.6" points="337.363,185.557 326.125,185.557 326.125,257.957 337.363,257.957 337.363,225.391 
			332.16,225.391 332.16,218.115 337.363,218.115 337.363,212.086 332.16,212.086 332.16,204.859 337.363,204.859 337.363,198.821 
			332.16,198.821 332.16,191.588 337.363,191.588 		"/>
	</g>
</g>
</svg>
