<?xml version="1.0" encoding="utf-8"?>
<!-- Generator: Adobe Illustrator 16.0.0, SVG Export Plug-In . SVG Version: 6.00 Build 0)  -->
<!DOCTYPE svg PUBLIC "-//W3C//DTD SVG 1.1//EN" "http://www.w3.org/Graphics/SVG/1.1/DTD/svg11.dtd">
<svg version="1.1" id="图层_1" xmlns="http://www.w3.org/2000/svg" xmlns:xlink="http://www.w3.org/1999/xlink" x="0px" y="0px"
	 width="235px" height="235px" viewBox="0 0 235 235" enable-background="new 0 0 235 235" xml:space="preserve">
<radialGradient id="SVGID_1_" cx="117.5" cy="117.5" r="117.5" gradientUnits="userSpaceOnUse">
	<stop  offset="0.7927" style="stop-color:#FFFFFF"/>
	<stop  offset="0.858" style="stop-color:#FDFEFF"/>
	<stop  offset="0.8879" style="stop-color:#F5FBFE"/>
	<stop  offset="0.9105" style="stop-color:#E9F6FD"/>
	<stop  offset="0.9295" style="stop-color:#D7EEFB"/>
	<stop  offset="0.9462" style="stop-color:#BFE4F9"/>
	<stop  offset="0.9614" style="stop-color:#A2D8F6"/>
	<stop  offset="0.9753" style="stop-color:#7FC9F3"/>
	<stop  offset="0.9879" style="stop-color:#58B9EF"/>
	<stop  offset="0.9997" style="stop-color:#2CA6EB"/>
	<stop  offset="1" style="stop-color:#2BA6EB"/>
</radialGradient>
<circle fill="url(#SVGID_1_)" cx="117.5" cy="117.5" r="117.5"/>
<path fill="#2BA6EB" d="M200.893,133.784h-2.252c-0.387,0-0.74,0.187-1.017,0.497v-4.676c0-1.621-0.96-2.936-2.144-2.936h-2.564
	v-4.762c0-5.463-3.244-9.908-7.232-9.908H47.732c-3.988,0-7.232,4.445-7.232,9.908v45.185c0,5.464,3.244,9.907,7.232,9.907h137.951
	c3.988,0,7.232-4.443,7.232-9.907v-4.763h2.564c1.184,0,2.144-1.312,2.144-2.935v-4.676c0.276,0.31,0.63,0.497,1.017,0.497h2.252
	c0.889,0,1.607-0.986,1.607-2.202v-17.028C202.5,134.77,201.781,133.784,200.893,133.784z M187.56,167.093
	c0,1.417-0.842,2.569-1.876,2.569H47.732c-1.033,0-1.875-1.152-1.875-2.569v-45.185c0-1.418,0.842-2.569,1.875-2.569h137.951
	c1.034,0,1.876,1.151,1.876,2.569V167.093z"/>
<path fill="#F73737" d="M60.131,162.116c0,2.221-1.115,4.021-2.49,4.021h-6.57c-1.375,0-2.49-1.801-2.49-4.021v-35.231
	c0-2.221,1.115-4.022,2.49-4.022h6.57c1.375,0,2.49,1.802,2.49,4.022V162.116z"/>
<path fill="#F73737" d="M73.945,162.116c0,2.221-1.115,4.021-2.49,4.021h-6.57c-1.375,0-2.49-1.801-2.49-4.021v-35.231
	c0-2.222,1.115-4.022,2.49-4.022h6.57c1.375,0,2.49,1.801,2.49,4.022V162.116z"/>
<path fill="#D98629" d="M87.76,162.116c0,2.221-1.115,4.021-2.49,4.021h-6.57c-1.375,0-2.49-1.801-2.49-4.021v-35.231
	c0-2.222,1.115-4.022,2.49-4.022h6.57c1.375,0,2.49,1.801,2.49,4.022V162.116z"/>
<path fill="#D98629" d="M101.674,162.116c0,2.221-1.115,4.021-2.49,4.021h-6.57c-1.375,0-2.49-1.801-2.49-4.021v-35.231
	c0-2.221,1.115-4.022,2.49-4.022h6.57c1.375,0,2.49,1.802,2.49,4.022V162.116z"/>
<path fill="#D98629" d="M115.488,162.116c0,2.221-1.115,4.021-2.49,4.021h-6.57c-1.375,0-2.49-1.801-2.49-4.021v-35.231
	c0-2.222,1.115-4.022,2.49-4.022h6.57c1.375,0,2.49,1.801,2.49,4.022V162.116z"/>
<path fill="#D98629" d="M129.334,162.116c0,2.221-1.114,4.021-2.49,4.021h-6.569c-1.376,0-2.491-1.801-2.491-4.021v-35.231
	c0-2.221,1.115-4.022,2.491-4.022h6.569c1.376,0,2.49,1.802,2.49,4.022V162.116z"/>
<path fill="#D98629" d="M143.149,162.116c0,2.221-1.116,4.021-2.491,4.021h-6.57c-1.375,0-2.49-1.801-2.49-4.021v-35.231
	c0-2.222,1.115-4.022,2.49-4.022h6.57c1.375,0,2.491,1.801,2.491,4.022V162.116z"/>
<path fill="#D98629" d="M156.964,162.116c0,2.221-1.115,4.021-2.491,4.021h-6.569c-1.376,0-2.49-1.801-2.49-4.021v-35.231
	c0-2.222,1.114-4.022,2.49-4.022h6.569c1.376,0,2.491,1.801,2.491,4.022V162.116z"/>
<path fill="#8DC629" d="M170.877,162.116c0,2.221-1.115,4.021-2.49,4.021h-6.569c-1.376,0-2.49-1.801-2.49-4.021v-35.231
	c0-2.221,1.114-4.022,2.49-4.022h6.569c1.375,0,2.49,1.802,2.49,4.022V162.116z"/>
<path fill="#2BA6EB" d="M119.606,225L119.606,225c-0.97,0-1.731-0.73-1.776-1.709c0-0.453,0.18-0.905,0.491-1.227
	c0.346-0.346,0.765-0.521,1.257-0.547c0.97,0,1.736,0.756,1.736,1.742c0.047,0.453-0.131,0.873-0.455,1.213
	C120.513,224.83,120.102,225,119.606,225L119.606,225L119.606,225z M112.289,224.895c-0.031,0-0.108,0-0.139,0
	c-0.911-0.037-1.676-0.869-1.604-1.812c0.035-0.947,0.807-1.682,1.742-1.682c0.529,0.047,0.976,0.251,1.287,0.603
	c0.314,0.312,0.45,0.767,0.45,1.257C113.967,224.159,113.195,224.895,112.289,224.895L112.289,224.895z M126.898,224.613
	c-0.906,0-1.676-0.689-1.736-1.599c-0.08-0.95,0.62-1.778,1.602-1.886l0,0c1.036,0,1.804,0.697,1.877,1.607
	c0.065,0.937-0.621,1.776-1.575,1.877H126.898L126.898,224.613z M105.012,224.27c-0.079,0-0.211,0-0.256,0
	c-0.449-0.074-0.865-0.312-1.142-0.664c-0.288-0.382-0.419-0.836-0.357-1.291c0.104-0.867,0.839-1.531,1.71-1.531
	c1.182,0.129,1.852,1.005,1.742,1.953C106.608,223.605,105.874,224.27,105.012,224.27L105.012,224.27z M134.151,223.713
	c-0.841,0-1.567-0.591-1.711-1.466c-0.065-0.459,0.03-0.905,0.284-1.288c0.267-0.385,0.699-0.63,1.146-0.709
	c0.031,0,0.031,0,0.075,0c1.115,0,1.815,0.606,1.942,1.434c0.148,0.984-0.52,1.848-1.461,2.029H134.151L134.151,223.713z
	 M97.746,223.15L97.746,223.15c-0.031,0-0.276-0.028-0.308-0.028c-0.46-0.081-0.875-0.353-1.149-0.736
	c-0.246-0.383-0.352-0.868-0.246-1.325c0.132-0.811,0.87-1.396,1.703-1.396c1.285,0.213,1.881,1.146,1.711,2.104
	C99.281,222.561,98.585,223.15,97.746,223.15L97.746,223.15z M141.33,222.314c-0.803,0-1.494-0.547-1.707-1.355
	c-0.215-0.943,0.385-1.891,1.32-2.094c0.083,0,0.32-0.032,0.387-0.032c0.804,0,1.51,0.555,1.706,1.354
	c0.104,0.453,0.043,0.908-0.196,1.289c-0.25,0.42-0.631,0.696-1.091,0.797C141.688,222.273,141.407,222.314,141.33,222.314
	L141.33,222.314z M90.603,221.544c-0.073,0-0.389-0.026-0.454-0.067c-0.91-0.24-1.467-1.184-1.222-2.121
	c0.21-0.768,0.872-1.332,1.676-1.332c0.069,0,0.377,0.075,0.46,0.075c0.893,0.245,1.457,1.214,1.238,2.13
	C92.101,220.986,91.408,221.544,90.603,221.544L90.603,221.544z M148.41,220.398c-0.762,0-1.466-0.482-1.676-1.223
	c-0.271-0.901,0.249-1.883,1.151-2.154c0.108-0.036,0.423-0.111,0.524-0.111c0.771,0,1.432,0.522,1.672,1.256
	c0.105,0.46,0.078,0.902-0.14,1.322c-0.235,0.428-0.595,0.74-1.042,0.841C148.827,220.355,148.476,220.398,148.41,220.398
	L148.41,220.398z M83.596,219.42c-0.105,0-0.46-0.032-0.561-0.064c-0.896-0.32-1.392-1.332-1.111-2.232
	c0.271-0.697,0.932-1.188,1.672-1.188c0.097,0,0.443,0.069,0.551,0.104c0.906,0.317,1.401,1.287,1.086,2.204
	C85.026,218.967,84.357,219.42,83.596,219.42L83.596,219.42z M155.312,218.023c-0.691,0-1.357-0.453-1.598-1.113
	c-0.359-0.906,0.098-1.918,0.967-2.269c0.114-0.036,0.529-0.111,0.631-0.111c0.736,0,1.362,0.462,1.643,1.128
	c0.35,0.902-0.098,1.912-1.008,2.266C155.838,217.955,155.418,218.023,155.312,218.023L155.312,218.023z M76.756,216.836
	c-0.138,0-0.561-0.067-0.661-0.094c-0.903-0.387-1.326-1.404-0.981-2.307c0.279-0.662,0.916-1.089,1.643-1.089
	c0.1,0,0.555,0.107,0.654,0.155c0.439,0.17,0.785,0.521,0.955,0.934c0.174,0.451,0.174,0.937,0,1.352
	C78.086,216.426,77.459,216.836,76.756,216.836L76.756,216.836z M162.048,215.164c-0.661,0-1.295-0.383-1.565-1.012
	c-0.189-0.414-0.215-0.895-0.035-1.328c0.139-0.449,0.447-0.802,0.904-0.972c0.793-0.385,1.879,0,2.295,0.842
	c0.211,0.413,0.211,0.909,0.069,1.329c-0.171,0.442-0.485,0.793-0.907,1.012C162.561,215.137,162.324,215.164,162.048,215.164
	L162.048,215.164z M70.106,213.8c-0.29,0-0.525-0.062-0.774-0.163c-0.876-0.454-1.223-1.504-0.807-2.373
	c0.422-0.802,1.537-1.192,2.347-0.733c0.868,0.379,1.218,1.434,0.792,2.294C71.359,213.454,70.764,213.8,70.106,213.8L70.106,213.8z
	 M168.604,211.853c-0.638,0-1.215-0.354-1.54-0.901c-0.45-0.836-0.17-1.892,0.667-2.375c0.9-0.453,1.952-0.107,2.367,0.687
	c0.244,0.427,0.285,0.888,0.178,1.337c-0.139,0.453-0.454,0.805-0.834,1.049C169.191,211.785,168.915,211.853,168.604,211.853
	L168.604,211.853z M63.646,210.312c-0.314,0-0.595-0.107-0.867-0.241c-0.42-0.233-0.709-0.627-0.805-1.08
	c-0.109-0.446-0.04-0.899,0.209-1.321c0.453-0.799,1.568-1.084,2.364-0.592c0.845,0.49,1.117,1.52,0.634,2.366
	C64.873,209.967,64.277,210.312,63.646,210.312L63.646,210.312z M174.868,208.123c-0.581,0-1.142-0.318-1.453-0.799
	c-0.249-0.426-0.347-0.874-0.249-1.331c0.104-0.446,0.384-0.868,0.774-1.109c0.728-0.503,1.873-0.245,2.403,0.522
	c0.525,0.793,0.275,1.876-0.53,2.398C175.547,208.021,175.191,208.123,174.868,208.123L174.868,208.123z M57.51,206.376
	c-0.381,0-0.695-0.096-1.014-0.308c-0.793-0.561-0.977-1.641-0.447-2.439c0.523-0.768,1.676-0.976,2.438-0.463
	c0.766,0.564,0.973,1.65,0.454,2.448C58.596,206.068,58.07,206.376,57.51,206.376L57.51,206.376z M180.873,203.932
	c-0.561,0-1.047-0.271-1.391-0.697c-0.557-0.793-0.426-1.87,0.344-2.473c0.736-0.516,1.887-0.381,2.447,0.384
	c0.587,0.769,0.411,1.853-0.347,2.45C181.604,203.799,181.258,203.932,180.873,203.932L180.873,203.932z M51.619,201.987
	c-0.42,0-0.775-0.102-1.086-0.352c-0.762-0.624-0.874-1.71-0.279-2.476c0.564-0.725,1.711-0.834,2.445-0.271
	c0.352,0.305,0.592,0.691,0.623,1.188c0.078,0.447-0.066,0.9-0.347,1.288C52.63,201.775,52.139,201.987,51.619,201.987
	L51.619,201.987z M186.585,199.33c-0.519,0-1.007-0.197-1.318-0.623c-0.322-0.314-0.446-0.762-0.415-1.256
	c0.035-0.453,0.245-0.869,0.592-1.178c0.73-0.595,1.88-0.522,2.476,0.201c0.321,0.357,0.45,0.805,0.421,1.254
	c-0.04,0.456-0.245,0.883-0.63,1.187C187.395,199.193,187.008,199.33,186.585,199.33L186.585,199.33z M46.043,197.242
	c-0.461,0-0.88-0.171-1.186-0.457c-0.324-0.311-0.525-0.758-0.561-1.218c0-0.456,0.136-0.903,0.459-1.255
	c0.618-0.692,1.773-0.73,2.47-0.096c0.696,0.656,0.762,1.736,0.101,2.467C46.988,197.029,46.529,197.242,46.043,197.242
	L46.043,197.242z M191.964,194.379c-0.456,0-0.91-0.207-1.222-0.509c-0.35-0.319-0.516-0.774-0.516-1.261
	c0-0.453,0.209-0.873,0.516-1.227c0.658-0.623,1.817-0.659,2.479,0c0.664,0.705,0.664,1.82,0,2.487
	C192.875,194.217,192.422,194.379,191.964,194.379L191.964,194.379z M40.805,192.113c-0.452,0-0.938-0.209-1.242-0.555
	c-0.315-0.346-0.501-0.762-0.461-1.258c0-0.447,0.174-0.901,0.52-1.217c0.672-0.633,1.862-0.591,2.479,0.074
	c0.315,0.34,0.481,0.771,0.481,1.256c-0.03,0.447-0.205,0.9-0.547,1.219C41.671,191.951,41.263,192.113,40.805,192.113
	L40.805,192.113z M196.988,189.048c-0.424,0-0.811-0.134-1.156-0.413c-0.695-0.676-0.766-1.746-0.14-2.475
	c0.596-0.697,1.737-0.777,2.447-0.182c0.347,0.319,0.581,0.736,0.581,1.229c0.043,0.447-0.1,0.903-0.411,1.244
	C197.95,188.84,197.504,189.048,196.988,189.048L196.988,189.048z M35.969,186.607c-0.535,0-1.017-0.209-1.332-0.629
	c-0.314-0.344-0.453-0.801-0.381-1.283c0.035-0.456,0.25-0.873,0.627-1.145c0.626-0.57,1.741-0.528,2.332,0.125
	c0.049,0,0.08,0.071,0.105,0.107c0.635,0.744,0.521,1.818-0.236,2.443C36.77,186.475,36.379,186.607,35.969,186.607L35.969,186.607z
	 M201.663,183.402c-0.39,0-0.774-0.141-1.09-0.38c-0.768-0.561-0.907-1.673-0.312-2.448c0.561-0.73,1.662-0.901,2.447-0.305
	c0.77,0.547,0.893,1.668,0.311,2.434C202.709,183.117,202.174,183.402,201.663,183.402L201.663,183.402z M31.5,180.816
	c-0.557,0-1.082-0.279-1.394-0.73c-0.278-0.383-0.389-0.828-0.319-1.287c0.07-0.458,0.319-0.871,0.696-1.158
	c0.771-0.51,1.887-0.342,2.442,0.428c0.565,0.763,0.386,1.844-0.376,2.408C32.225,180.717,31.889,180.816,31.5,180.816L31.5,180.816
	z M205.881,177.402c-0.357,0-0.683-0.104-0.949-0.271c-0.385-0.254-0.669-0.631-0.762-1.091c-0.065-0.415-0.039-0.872,0.201-1.216
	c0-0.068,0.041-0.101,0.041-0.141c0.52-0.727,1.635-0.968,2.402-0.488c0.834,0.561,1.053,1.636,0.529,2.443
	C207.033,177.131,206.465,177.402,205.881,177.402L205.881,177.402z M27.447,174.724c-0.582,0-1.143-0.319-1.463-0.841
	c-0.521-0.803-0.281-1.887,0.57-2.402c0.799-0.488,1.876-0.207,2.402,0.592c0.484,0.794,0.245,1.885-0.596,2.406
	C28.115,174.656,27.766,174.724,27.447,174.724L27.447,174.724z M209.681,171.162c-0.284,0-0.591-0.069-0.841-0.245
	c-0.42-0.212-0.691-0.587-0.845-1.041c-0.097-0.45-0.062-0.912,0.189-1.329c0.444-0.794,1.562-1.119,2.368-0.666
	c0.824,0.492,1.115,1.545,0.65,2.381C210.896,170.816,210.307,171.162,209.681,171.162L209.681,171.162z M23.826,168.373
	c-0.656,0-1.256-0.381-1.53-0.945c-0.21-0.415-0.276-0.871-0.146-1.324c0.146-0.449,0.461-0.805,0.876-1.045
	c0.8-0.41,1.921-0.064,2.376,0.741c0.415,0.862,0.1,1.911-0.738,2.364C24.383,168.308,24.107,168.373,23.826,168.373L23.826,168.373
	z M213.055,164.648c-0.241,0-0.525-0.039-0.73-0.145c-0.452-0.211-0.758-0.56-0.91-0.969c-0.172-0.463-0.137-0.947,0.07-1.371
	c0.388-0.833,1.471-1.219,2.306-0.833c0.872,0.421,1.26,1.46,0.837,2.333C214.346,164.264,213.711,164.648,213.055,164.648
	L213.055,164.648z M20.658,161.783c-0.701,0-1.327-0.424-1.611-1.049c-0.381-0.865,0.045-1.921,0.91-2.295
	c0.837-0.384,1.922,0.033,2.309,0.904c0.381,0.871-0.041,1.885-0.917,2.268C21.141,161.715,20.898,161.783,20.658,161.783
	L20.658,161.783z M215.949,157.947c-0.098,0-0.519-0.074-0.627-0.142c-0.906-0.347-1.322-1.358-0.977-2.224
	c0.246-0.701,0.877-1.12,1.604-1.12c0.107,0,0.529,0.064,0.624,0.108c0.902,0.347,1.362,1.355,1.011,2.256
	C217.312,157.493,216.684,157.947,215.949,157.947L215.949,157.947z M17.939,154.984c-0.73,0-1.403-0.494-1.641-1.189
	c-0.323-0.863,0.135-1.876,1.041-2.195c0.11-0.029,0.491-0.094,0.6-0.094c0.727,0,1.392,0.443,1.633,1.148
	c0.312,0.898-0.139,1.872-1.045,2.227C18.422,154.917,18.046,154.984,17.939,154.984L17.939,154.984z M218.394,151.045
	c-0.101,0-0.458-0.064-0.523-0.064c-0.911-0.326-1.433-1.299-1.151-2.198c0.24-0.734,0.91-1.229,1.675-1.229
	c0.075,0,0.421,0.039,0.53,0.068c0.902,0.325,1.418,1.291,1.139,2.199C219.826,150.554,219.165,151.045,218.394,151.045
	L218.394,151.045z M15.703,148.015c-0.762,0-1.457-0.527-1.672-1.298c-0.244-0.906,0.272-1.881,1.218-2.124
	c0.069-0.036,0.388-0.069,0.454-0.069c0.73,0,1.356,0.458,1.611,1.082c0.025,0.074,0.061,0.129,0.061,0.174
	c0.286,0.938-0.271,1.92-1.178,2.167C16.084,147.973,15.765,148.015,15.703,148.015L15.703,148.015z M220.342,144
	c-0.062,0-0.35-0.029-0.415-0.075c-0.941-0.206-1.502-1.181-1.292-2.081c0.205-0.806,0.907-1.328,1.707-1.328
	c0.07,0,0.346,0.039,0.42,0.039c0.421,0.098,0.799,0.379,1.037,0.763c0.26,0.415,0.367,0.874,0.211,1.321
	C221.852,143.445,221.152,144,220.342,144L220.342,144z M13.957,140.893c-0.826,0-1.522-0.585-1.702-1.383
	c-0.11-0.459,0-0.914,0.235-1.299c0.291-0.416,0.672-0.666,1.121-0.771c0.025,0,0.277-0.026,0.346-0.026
	c0.846,0,1.537,0.558,1.707,1.388c0.18,0.946-0.415,1.852-1.36,2.058C14.246,140.858,14.031,140.893,13.957,140.893L13.957,140.893z
	 M221.537,138.387c-0.084,0-0.285-0.03-0.315-0.03c-0.46-0.081-0.88-0.353-1.159-0.73c-0.236-0.386-0.343-0.842-0.236-1.292
	c0.135-0.845,0.861-1.429,1.711-1.429c0.761,0.101,1.173,0.382,1.422,0.763c0.28,0.385,0.385,0.842,0.28,1.292
	C223.094,137.795,222.367,138.387,221.537,138.387L221.537,138.387z M12.705,133.676c-0.875,0-1.602-0.624-1.745-1.494
	c-0.101-0.939,0.561-1.817,1.499-1.951c1.152-0.035,1.845,0.621,1.959,1.5c0.065,0.451-0.041,0.908-0.321,1.247
	c-0.267,0.396-0.692,0.63-1.149,0.698H12.705L12.705,133.676z M222.605,131.133c-0.027,0-0.162,0-0.207,0
	c-0.454-0.074-0.861-0.281-1.146-0.664c-0.279-0.307-0.385-0.688-0.385-1.078c0-0.07,0-0.141,0-0.209
	c0.105-0.872,0.836-1.536,1.738-1.536c1.146,0.142,1.846,1.01,1.749,1.949C224.246,130.469,223.484,131.133,222.605,131.133
	L222.605,131.133z M11.943,126.434c-0.914,0-1.686-0.733-1.745-1.639c-0.04-0.945,0.696-1.779,1.632-1.85l0,0
	c1.055,0,1.781,0.695,1.848,1.604c0.048,0.48-0.104,0.939-0.416,1.289c-0.314,0.346-0.736,0.561-1.183,0.596
	C12.044,126.434,11.975,126.434,11.943,126.434L11.943,126.434z M223.201,123.85c-0.031,0-0.066,0-0.107,0
	c-0.445-0.031-0.865-0.209-1.18-0.563c-0.319-0.341-0.482-0.796-0.461-1.257c0.045-0.936,0.803-1.668,1.748-1.668
	c1.011,0.038,1.785,0.873,1.745,1.81C224.873,123.106,224.111,123.85,223.201,123.85L223.201,123.85z M11.729,119.107
	c-0.979,0-1.74-0.776-1.74-1.746c0-0.979,0.761-1.742,1.74-1.742c0.941,0,1.748,0.764,1.748,1.742
	C13.436,118.331,12.67,119.107,11.729,119.107L11.729,119.107z M223.271,116.518L223.271,116.518c-0.973,0-1.733-0.761-1.733-1.705
	c-0.039-0.451,0.127-0.906,0.445-1.25c0.351-0.314,0.766-0.522,1.257-0.522l0,0c0.973,0,1.747,0.729,1.772,1.712
	c0,0.941-0.766,1.739-1.707,1.766H223.271L223.271,116.518z M11.975,111.783c0,0-0.073,0-0.104,0
	c-0.495-0.037-0.91-0.244-1.218-0.594c-0.283-0.348-0.429-0.807-0.395-1.291c0.045-0.867,0.816-1.61,1.717-1.61
	c0.592,0.036,1.011,0.251,1.322,0.603c0.314,0.337,0.454,0.806,0.429,1.293C13.637,111.089,12.885,111.783,11.975,111.783
	L11.975,111.783z M222.814,109.228c-0.9,0-1.632-0.688-1.746-1.595c-0.03-0.458,0.114-0.901,0.385-1.254
	c0.319-0.39,0.74-0.599,1.195-0.623c0.03,0,0.03,0,0.03,0c1.017,0,1.733,0.623,1.879,1.498c0,0,0,0.03,0,0.064
	c0.077,0.945-0.618,1.82-1.558,1.887L222.814,109.228L222.814,109.228z M12.781,104.495c-0.045,0-0.215,0-0.256,0
	c-0.936-0.132-1.631-1.007-1.496-1.987c0.145-0.834,0.872-1.492,1.707-1.492c1.221,0.162,1.891,1.034,1.747,1.986
	C14.346,103.871,13.637,104.495,12.781,104.495L12.781,104.495z M221.875,101.982c-0.867,0-1.564-0.629-1.699-1.459
	c-0.113-0.453,0-0.942,0.276-1.321c0.28-0.388,0.7-0.632,1.143-0.706c1.084-0.031,1.855,0.6,1.991,1.432
	c0.166,0.977-0.492,1.85-1.42,2.029L221.875,101.982L221.875,101.982z M14.031,97.307c-0.043,0-0.28-0.031-0.354-0.031
	c-0.447-0.107-0.838-0.383-1.111-0.768c-0.242-0.38-0.312-0.86-0.211-1.318c0.17-0.805,0.875-1.359,1.676-1.359
	c0.065,0,0.314,0.032,0.387,0.032c0.45,0.1,0.831,0.347,1.076,0.762c0.271,0.39,0.35,0.844,0.25,1.301
	C15.564,96.73,14.868,97.307,14.031,97.307L14.031,97.307z M220.412,94.803c-0.766,0-1.488-0.561-1.666-1.322
	c-0.256-0.975,0.344-1.921,1.285-2.127c0.071,0,0.355-0.031,0.381-0.031c0.84,0,1.532,0.555,1.706,1.35
	c0.215,0.94-0.346,1.856-1.291,2.094C220.762,94.766,220.478,94.803,220.412,94.803L220.412,94.803z M15.81,90.201
	c-0.065,0-0.381-0.037-0.491-0.07c-0.416-0.131-0.793-0.414-1.041-0.84c-0.211-0.379-0.289-0.881-0.14-1.328
	c0.208-0.73,0.9-1.25,1.672-1.25c0.065,0,0.415,0.035,0.489,0.074c0.91,0.246,1.463,1.222,1.187,2.125
	C17.274,89.676,16.578,90.201,15.81,90.201L15.81,90.201z M218.49,87.754L218.49,87.754c-0.766,0-1.457-0.521-1.662-1.219
	c-0.145-0.447-0.109-0.938,0.108-1.361c0.231-0.373,0.587-0.692,1.038-0.832c0.075-0.03,0.419-0.072,0.516-0.072
	c0.779,0,1.437,0.486,1.646,1.217c0.315,0.914-0.21,1.887-1.121,2.173C218.924,87.688,218.579,87.754,218.49,87.754L218.49,87.754z
	 M18.046,83.229c-0.075,0-0.495-0.066-0.561-0.107c-0.456-0.139-0.806-0.491-1.015-0.906c-0.211-0.413-0.211-0.901-0.066-1.33
	c0.275-0.687,0.91-1.143,1.642-1.143c0.101,0,0.513,0.07,0.62,0.107c0.426,0.164,0.768,0.459,0.977,0.865
	c0.176,0.451,0.207,0.904,0.074,1.36C19.434,82.77,18.767,83.229,18.046,83.229L18.046,83.229z M216.057,80.861
	c-0.734,0-1.36-0.457-1.641-1.152c-0.314-0.877,0.109-1.896,1.015-2.238c0.101-0.029,0.519-0.105,0.626-0.105
	c0.705,0,1.361,0.424,1.642,1.082c0.172,0.45,0.137,0.909-0.035,1.365c-0.188,0.416-0.525,0.723-0.979,0.902
	C216.573,80.753,216.158,80.861,216.057,80.861L216.057,80.861z M20.794,76.432c-0.235,0-0.491-0.046-0.73-0.146
	c-0.872-0.381-1.249-1.43-0.872-2.3c0.346-0.841,1.431-1.257,2.258-0.907c0.916,0.427,1.297,1.432,0.916,2.34
	C22.086,76.046,21.494,76.432,20.794,76.432L20.794,76.432z M213.164,74.125c-0.67,0-1.292-0.381-1.576-1.005
	c-0.211-0.427-0.211-0.88-0.069-1.337c0.149-0.449,0.491-0.796,0.919-0.976c0.801-0.369,1.908-0.028,2.289,0.842
	c0.215,0.423,0.246,0.874,0.07,1.329c-0.17,0.449-0.491,0.798-0.896,0.973C213.654,74.054,213.405,74.125,213.164,74.125
	L213.164,74.125z M23.962,69.838c-0.271,0-0.581-0.07-0.827-0.205c-0.839-0.426-1.146-1.461-0.699-2.332
	c0.415-0.811,1.502-1.157,2.336-0.744c0.416,0.215,0.692,0.559,0.842,1.014c0.17,0.455,0.09,0.905-0.111,1.32
	C25.188,69.49,24.598,69.838,23.962,69.838L23.962,69.838z M209.816,67.605c-0.631,0-1.223-0.35-1.531-0.872
	c-0.46-0.845-0.137-1.915,0.689-2.382c0.842-0.443,1.887-0.129,2.374,0.668c0.218,0.387,0.274,0.869,0.136,1.299
	c-0.107,0.453-0.416,0.83-0.797,1.075C210.407,67.538,210.127,67.605,209.816,67.605L209.816,67.605z M27.596,63.494
	c-0.314,0-0.63-0.11-0.906-0.277c-0.385-0.218-0.669-0.6-0.775-1.047c-0.097-0.467-0.021-0.942,0.211-1.324
	c0.46-0.803,1.605-1.081,2.416-0.57c0.377,0.25,0.661,0.637,0.762,1.092c0.113,0.447,0.031,0.895-0.211,1.285
	C28.746,63.177,28.182,63.494,27.596,63.494L27.596,63.494z M206.008,61.367c-0.586,0-1.107-0.319-1.461-0.806
	c-0.242-0.384-0.314-0.864-0.242-1.321c0.107-0.459,0.385-0.842,0.762-1.083c0.73-0.489,1.887-0.283,2.416,0.493
	c0.513,0.825,0.273,1.911-0.529,2.434C206.679,61.256,206.363,61.367,206.008,61.367L206.008,61.367z M31.678,57.433
	c-0.389,0-0.734-0.146-1.019-0.358c-0.377-0.279-0.626-0.662-0.692-1.147c-0.072-0.459,0.031-0.911,0.315-1.288
	c0.513-0.732,1.672-0.947,2.399-0.389c0.771,0.564,0.954,1.643,0.425,2.445C32.75,57.146,32.225,57.433,31.678,57.433L31.678,57.433
	z M201.795,55.369c-0.521,0-1.042-0.246-1.389-0.701c-0.285-0.379-0.39-0.838-0.32-1.287c0.072-0.459,0.276-0.869,0.667-1.153
	c0.761-0.558,1.876-0.417,2.437,0.346c0.592,0.77,0.412,1.846-0.35,2.442C202.568,55.229,202.174,55.369,201.795,55.369
	L201.795,55.369z M36.164,51.604c-0.41,0-0.791-0.14-1.105-0.383c-0.352-0.323-0.602-0.738-0.633-1.186
	c-0.034-0.453,0.111-0.913,0.422-1.297c0.525-0.695,1.711-0.797,2.447-0.209c0.336,0.315,0.547,0.703,0.617,1.189
	c0.043,0.453-0.102,0.907-0.416,1.282C37.185,51.388,36.693,51.604,36.164,51.604L36.164,51.604z M197.194,49.684
	c-0.529,0-0.976-0.215-1.331-0.594c-0.627-0.726-0.555-1.817,0.18-2.477c0.705-0.59,1.855-0.519,2.472,0.174
	c0.632,0.734,0.57,1.855-0.17,2.473C198.025,49.543,197.617,49.684,197.194,49.684L197.194,49.684z M41.059,46.159
	c-0.461,0-0.911-0.169-1.217-0.485c-0.359-0.316-0.535-0.77-0.535-1.219c-0.031-0.492,0.145-0.911,0.491-1.254
	c0.63-0.664,1.79-0.701,2.434-0.039c0.703,0.662,0.74,1.784,0.079,2.473C41.965,45.955,41.504,46.159,41.059,46.159L41.059,46.159z
	 M192.213,44.35c-0.498,0-0.941-0.209-1.262-0.525c-0.305-0.352-0.48-0.764-0.48-1.224c0-0.481,0.176-0.9,0.48-1.251
	c0.667-0.627,1.817-0.664,2.479,0c0.66,0.7,0.66,1.777,0,2.475C193.114,44.141,192.66,44.35,192.213,44.35L192.213,44.35z
	 M46.284,41.032c-0.491,0-0.979-0.205-1.297-0.551c-0.315-0.353-0.476-0.806-0.454-1.263c0.035-0.453,0.223-0.9,0.564-1.221
	c0.695-0.619,1.852-0.554,2.479,0.144c0.311,0.351,0.488,0.806,0.453,1.255c-0.042,0.457-0.245,0.909-0.568,1.186
	C47.125,40.895,46.707,41.032,46.284,41.032L46.284,41.032z M186.834,39.326c-0.415,0-0.83-0.137-1.147-0.417
	c-0.742-0.626-0.8-1.743-0.175-2.44c0.627-0.697,1.783-0.803,2.482-0.179c0.721,0.632,0.793,1.708,0.162,2.442
	C187.814,39.115,187.323,39.326,186.834,39.326L186.834,39.326z M51.861,36.324c-0.526,0-1.043-0.279-1.357-0.694
	c-0.272-0.347-0.43-0.8-0.387-1.255c0.066-0.485,0.32-0.871,0.67-1.182c0.801-0.596,1.87-0.42,2.438,0.311
	c0.592,0.734,0.486,1.849-0.283,2.443C52.63,36.185,52.253,36.324,51.861,36.324L51.861,36.324z M181.152,34.725
	c-0.379,0-0.766-0.104-1.081-0.35c-0.73-0.559-0.91-1.676-0.315-2.443c0.526-0.725,1.713-0.906,2.447-0.342
	c0.381,0.279,0.596,0.694,0.657,1.148c0.073,0.488-0.03,0.941-0.352,1.291C182.203,34.482,181.67,34.725,181.152,34.725
	L181.152,34.725z M57.746,31.971c-0.547,0-1.102-0.281-1.417-0.764c-0.529-0.803-0.315-1.885,0.454-2.41
	c0.727-0.519,1.877-0.313,2.438,0.453c0.521,0.768,0.312,1.885-0.454,2.404C58.416,31.869,58.102,31.971,57.746,31.971
	L57.746,31.971z M175.156,30.541c-0.34,0-0.668-0.101-0.984-0.282c-0.802-0.555-1.006-1.632-0.486-2.403
	c0.525-0.799,1.643-1.046,2.412-0.52c0.802,0.52,1.046,1.601,0.521,2.404C176.273,30.229,175.752,30.541,175.156,30.541
	L175.156,30.541z M63.97,28.07c-0.638,0-1.233-0.353-1.544-0.878c-0.451-0.8-0.211-1.777,0.525-2.3
	c0.029-0.037,0.07-0.068,0.101-0.107c0.8-0.451,1.921-0.174,2.406,0.63c0.485,0.837,0.176,1.921-0.62,2.407
	C64.548,27.959,64.246,28.07,63.97,28.07L63.97,28.07z M168.881,26.777c-0.315,0-0.596-0.107-0.872-0.244
	c-0.389-0.213-0.704-0.594-0.804-1.047c-0.142-0.453-0.111-0.907,0.139-1.328c0.452-0.802,1.571-1.111,2.373-0.66
	c0.381,0.207,0.696,0.557,0.836,1.012c0.141,0.451,0.068,0.941-0.14,1.358C170.098,26.423,169.497,26.777,168.881,26.777
	L168.881,26.777z M70.377,24.579c-0.66,0-1.256-0.386-1.565-0.978c-0.211-0.422-0.249-0.869-0.075-1.322
	c0.148-0.453,0.46-0.805,0.871-1.014c0.836-0.418,1.918-0.067,2.338,0.766c0.419,0.875,0.064,1.92-0.797,2.34
	C70.898,24.51,70.658,24.579,70.377,24.579L70.377,24.579z M162.352,23.433c-0.273,0-0.522-0.038-0.727-0.148
	c-0.872-0.415-1.253-1.458-0.872-2.33c0.425-0.837,1.471-1.223,2.343-0.837c0.869,0.418,1.25,1.428,0.838,2.296
	C163.646,23.047,163.02,23.433,162.352,23.433L162.352,23.433z M77.047,21.506c-0.703,0-1.339-0.41-1.613-1.04
	c-0.176-0.421-0.176-0.912,0-1.327c0.18-0.455,0.484-0.8,0.945-0.977c0.1-0.031,0.561-0.143,0.668-0.143
	c0.688,0,1.35,0.453,1.596,1.084c0.381,0.908-0.072,1.917-0.947,2.305C77.6,21.441,77.141,21.506,77.047,21.506L77.047,21.506z
	 M155.623,20.57c-0.131,0-0.555-0.072-0.661-0.104c-0.411-0.176-0.756-0.526-0.936-0.942c-0.214-0.42-0.214-0.91-0.034-1.328
	c0.249-0.66,0.904-1.119,1.631-1.119c0.11,0,0.529,0.072,0.64,0.145c0.862,0.314,1.316,1.327,0.973,2.23
	C156.989,20.146,156.318,20.57,155.623,20.57L155.623,20.57z M83.901,18.963c-0.766,0-1.431-0.49-1.676-1.186
	c-0.136-0.452-0.087-0.906,0.114-1.321c0.211-0.452,0.557-0.771,1.014-0.91c0.059-0.036,0.447-0.069,0.548-0.069
	c0.74,0,1.397,0.455,1.646,1.188c0.312,0.904-0.206,1.884-1.121,2.197C84.357,18.896,83.98,18.963,83.901,18.963L83.901,18.963z
	 M148.686,18.195c-0.065,0-0.415-0.064-0.52-0.102c-0.426-0.141-0.806-0.453-1.011-0.836c-0.211-0.421-0.276-0.912-0.142-1.326
	c0.246-0.734,0.914-1.219,1.672-1.219c0.045,0,0.18,0,0.285,0.031c0.065,0,0.176,0,0.245,0.033c0.902,0.283,1.433,1.255,1.151,2.163
	C150.118,17.673,149.457,18.195,148.686,18.195L148.686,18.195z M90.922,16.871c-0.809,0-1.5-0.558-1.725-1.325
	c-0.101-0.45-0.025-0.903,0.225-1.327c0.205-0.381,0.589-0.66,1.041-0.805c0.066,0,0.385-0.027,0.459-0.027
	c0.753,0,1.453,0.525,1.672,1.287c0.096,0.453,0.064,0.912-0.178,1.33c-0.25,0.377-0.631,0.695-1.087,0.799
	C91.264,16.837,90.979,16.871,90.922,16.871L90.922,16.871z M141.609,16.277c-0.026,0-0.303-0.033-0.381-0.033
	c-0.451-0.14-0.836-0.417-1.072-0.799c-0.259-0.42-0.32-0.871-0.211-1.326c0.166-0.77,0.866-1.326,1.699-1.326
	c0.043,0,0.319,0.035,0.398,0.035c0.932,0.242,1.488,1.149,1.287,2.094C143.141,15.723,142.459,16.277,141.609,16.277
	L141.609,16.277z M98.064,15.267c-0.875,0-1.57-0.593-1.746-1.429c-0.175-0.941,0.455-1.85,1.396-2.018
	c1.107-0.07,1.883,0.559,2.049,1.355c0.174,0.979-0.452,1.885-1.387,2.059L98.064,15.267L98.064,15.267z M134.471,14.85
	c-0.043,0-0.244-0.033-0.285-0.033c-0.979-0.143-1.602-1.048-1.461-1.988c0.135-0.869,0.862-1.459,1.703-1.459l0,0
	c0.1,0,0.209,0,0.314,0c0.945,0.168,1.572,1.076,1.44,2.018C136.037,14.219,135.297,14.85,134.471,14.85L134.471,14.85z
	 M105.282,14.154c-0.91,0-1.642-0.66-1.747-1.533c-0.064-0.455,0.079-0.91,0.355-1.295c0.314-0.35,0.727-0.594,1.187-0.624
	c1.071-0.036,1.808,0.624,1.915,1.53c0.062,0.455-0.072,0.908-0.354,1.262c-0.275,0.379-0.691,0.584-1.146,0.66H105.282
	L105.282,14.154z M127.18,13.912c-0.035,0-0.142,0-0.18,0h-0.031c-0.906-0.144-1.603-0.979-1.502-1.888
	c0.072-0.905,0.811-1.605,1.713-1.605c1.115,0.105,1.846,0.95,1.741,1.919C128.811,13.246,128.086,13.912,127.18,13.912
	L127.18,13.912z M112.564,13.559c-0.94,0-1.706-0.73-1.746-1.634c-0.029-0.491,0.145-0.907,0.459-1.259
	c0.325-0.348,0.731-0.561,1.178-0.593c0.041,0,0.041,0,0.041,0c0.979,0,1.749,0.733,1.814,1.677
	c0.037,0.973-0.699,1.773-1.672,1.809H112.564L112.564,13.559z M119.893,13.494h-0.041c-0.48,0-0.9-0.213-1.26-0.561
	c-0.301-0.35-0.485-0.768-0.446-1.223c0-0.979,0.765-1.711,1.747-1.711c1.011,0.037,1.772,0.84,1.745,1.783
	C121.594,12.723,120.797,13.494,119.893,13.494L119.893,13.494z"/>
</svg>
