<?xml version="1.0" encoding="utf-8"?>
<!-- Generator: Adobe Illustrator 16.0.0, SVG Export Plug-In . SVG Version: 6.00 Build 0)  -->
<!DOCTYPE svg PUBLIC "-//W3C//DTD SVG 1.1//EN" "http://www.w3.org/Graphics/SVG/1.1/DTD/svg11.dtd">
<svg version="1.1" id="图层_1" xmlns="http://www.w3.org/2000/svg" xmlns:xlink="http://www.w3.org/1999/xlink" x="0px" y="0px"
	 width="70px" height="70px" viewBox="0 0 70 70" enable-background="new 0 0 70 70" xml:space="preserve">
<g>
	<path fill="#bb7f8a" d="M69.344,0.549c0,0,1.476,24.221,0,34.721C66.2,57.726,53.819,70,34.676,70C15.525,70,0,54.454,0,35.271
		C0,16.095,14.489,3.067,34.676,0.549C44.564-0.687,69.344,0.549,69.344,0.549z"/>
</g>
<g>
	<path fill="#FFFFFF" d="M57.047,10.779c-0.802,0-1.44-0.261-1.915-0.799c-0.476-0.522-0.713-1.224-0.713-2.112
		c0-0.963,0.252-1.726,0.756-2.27c0.499-0.559,1.179-0.833,2.03-0.833c0.83,0,1.471,0.252,1.933,0.763
		c0.46,0.516,0.685,1.246,0.685,2.175c0,0.942-0.26,1.677-0.777,2.236C58.545,10.496,57.873,10.779,57.047,10.779z M57.159,5.646
		c-0.513,0-0.917,0.204-1.213,0.583c-0.3,0.38-0.452,0.908-0.452,1.577c0,0.644,0.152,1.155,0.444,1.525
		c0.292,0.358,0.683,0.532,1.188,0.532c0.512,0,0.909-0.179,1.195-0.553c0.287-0.383,0.427-0.905,0.427-1.58
		c0-0.662-0.14-1.164-0.427-1.522C58.037,5.832,57.648,5.646,57.159,5.646z M64.827,4.936l-7.461,11.732h-1.16L63.66,4.936H64.827z
		 M63.968,16.765c-0.797,0-1.431-0.268-1.911-0.799c-0.474-0.523-0.711-1.237-0.711-2.112c0-0.957,0.245-1.726,0.758-2.279
		c0.516-0.562,1.183-0.845,2.027-0.845c0.819,0,1.464,0.262,1.919,0.784c0.467,0.517,0.693,1.24,0.693,2.182
		c0,0.915-0.251,1.665-0.765,2.236C65.468,16.483,64.792,16.765,63.968,16.765z M64.082,11.651c-0.519,0-0.925,0.186-1.223,0.565
		c-0.289,0.379-0.439,0.909-0.439,1.583c0,0.638,0.15,1.143,0.438,1.501c0.293,0.371,0.686,0.55,1.19,0.55
		c0.511,0,0.91-0.194,1.189-0.571c0.29-0.379,0.437-0.902,0.437-1.57c0-0.66-0.145-1.17-0.429-1.535
		C64.967,11.818,64.573,11.651,64.082,11.651z"/>
</g>
</svg>
