<?xml version="1.0" encoding="utf-8"?>
<!-- Generator: Adobe Illustrator 16.0.0, SVG Export Plug-In . SVG Version: 6.00 Build 0)  -->
<!DOCTYPE svg PUBLIC "-//W3C//DTD SVG 1.1//EN" "http://www.w3.org/Graphics/SVG/1.1/DTD/svg11.dtd">
<svg version="1.1" id="图层_1" xmlns="http://www.w3.org/2000/svg" xmlns:xlink="http://www.w3.org/1999/xlink" x="0px" y="0px"
	 width="16px" height="16px" viewBox="0 0 16 16" enable-background="new 0 0 16 16" xml:space="preserve">
<g>
	<path fill="#6F7985" d="M2.119,6.929h7.309V5.881H2.119V6.929z M5.238,4.857h4.19V3.81h-4.19V4.857z M2.119,9.025h6.655
		c0.205-0.165,0.42-0.309,0.654-0.423V7.978H2.119V9.025z M2.095,12.19v1.048H5.43c0-0.02-0.004-0.037-0.004-0.057
		c0-0.347,0.061-0.679,0.164-0.991H2.095z M2.119,11.121h4.068c0.43-0.506,1.007-0.882,1.67-1.047v-0.001H2.119V11.121z
		 M3.143,0.667L0.127,3.81L0,3.942v11.391h6.259c-0.274-0.302-0.489-0.655-0.632-1.048H1.047V4.857H4.19V1.714h6.285v6.576
		c0.168-0.024,0.33-0.064,0.504-0.064c0.185,0,0.363,0.029,0.544,0.056V0.667H3.143z"/>
	<path fill="#6F7985" d="M16,12.867c0-1.348-1.087-2.442-2.431-2.464c0.175,0.342,0.283,0.725,0.283,1.136
		c0,0.939-0.522,1.748-1.286,2.177c0.462-0.379,0.784-0.916,0.883-1.531c0.024-0.132,0.041-0.262,0.041-0.399
		c0-0.274-0.056-0.536-0.137-0.784c-0.007-0.021-0.013-0.043-0.02-0.064v-0.002c-0.022-0.062-0.043-0.119-0.071-0.178v-0.003
		c-0.042-0.095-0.096-0.188-0.151-0.28c-0.442-0.718-1.228-1.2-2.132-1.2c-0.905,0-1.694,0.482-2.137,1.198
		c1.142,0.053,2.051,0.986,2.051,2.143c0,0.246-0.051,0.48-0.127,0.7c0.002-0.046,0.014-0.089,0.014-0.133
		c0-0.355-0.096-0.688-0.247-0.981c-0.013-0.023-0.024-0.045-0.036-0.067c-0.369-0.656-1.064-1.104-1.869-1.104
		c-1.188,0-2.154,0.963-2.154,2.153c0,1.167,0.931,2.112,2.09,2.146v0.006h5.06v-0.01C14.941,15.275,16,14.199,16,12.867z"/>
</g>
</svg>
