<?xml version="1.0" encoding="utf-8"?>
<!-- Generator: Adobe Illustrator 16.0.0, SVG Export Plug-In . SVG Version: 6.00 Build 0)  -->
<!DOCTYPE svg PUBLIC "-//W3C//DTD SVG 1.1//EN" "http://www.w3.org/Graphics/SVG/1.1/DTD/svg11.dtd">
<svg version="1.1" id="图层_1" xmlns="http://www.w3.org/2000/svg" xmlns:xlink="http://www.w3.org/1999/xlink" x="0px" y="0px"
	 width="16px" height="16px" viewBox="0 0 16 16" enable-background="new 0 0 16 16" xml:space="preserve">
<g>
	<path fill="#6F7985" d="M8.463,13.583c0-1.595,1.104-2.928,2.584-3.302V0H1.715v16h7.753C8.848,15.381,8.463,14.526,8.463,13.583z
		 M3.047,1.333h6.668v1.601H3.047V1.333z M3.047,4.267h6.668v1.6H3.047V4.267z M3.047,7.2h6.668v1.6H3.047V7.2z M6.918,14.151h-1
		l-0.732-3.334h0.84l0.398,2.576h0.008l0.402-2.576h0.84L6.918,14.151z"/>
	<path fill="#F74848" d="M11.881,11.179c-1.328,0-2.404,1.076-2.404,2.404s1.076,2.404,2.404,2.404s2.404-1.076,2.404-2.404
		S13.209,11.179,11.881,11.179z M11.881,15.309c-0.292,0-0.528-0.236-0.528-0.527s0.236-0.529,0.528-0.529
		c0.291,0,0.527,0.238,0.527,0.529S12.172,15.309,11.881,15.309z M12.379,12.981l-0.12,0.96c-0.009,0.072-0.07,0.125-0.143,0.125
		h-0.472c-0.074,0-0.135-0.053-0.143-0.125l-0.119-0.947l-0.03-0.958c-0.001-0.039,0.013-0.076,0.04-0.104s0.064-0.045,0.104-0.045
		h0.77c0.038,0,0.075,0.017,0.103,0.045s0.042,0.065,0.04,0.104L12.379,12.981z"/>
</g>
</svg>
