<?xml version="1.0" encoding="utf-8"?>
<!-- Generator: Adobe Illustrator 16.0.0, SVG Export Plug-In . SVG Version: 6.00 Build 0)  -->
<!DOCTYPE svg PUBLIC "-//W3C//DTD SVG 1.1//EN" "http://www.w3.org/Graphics/SVG/1.1/DTD/svg11.dtd">
<svg version="1.1" id="图层_1" xmlns="http://www.w3.org/2000/svg" xmlns:xlink="http://www.w3.org/1999/xlink" x="0px" y="0px"
	 width="16px" height="16px" viewBox="0 0 16 16" enable-background="new 0 0 16 16" xml:space="preserve">
<path fill="#6F7985" d="M0,3.751h2.831v9.206h0.461V3.043L0,3.046V3.751z M3.529,4.889v5.921h5.916v1.067h3.859V10.81H16V4.889
	H3.529z M10.599,11.372h-0.592v-1.244h0.592V11.372z M11.685,11.372h-0.592v-1.244h0.592V11.372z M12.771,11.372H12.18v-1.244h0.592
	V11.372z M13.436,8.95c0,0.242-0.198,0.44-0.441,0.44h-2.201c-0.242,0-0.441-0.198-0.441-0.44V8.068H8.546
	C8.455,8.324,8.217,8.51,7.93,8.51c-0.364,0-0.659-0.296-0.659-0.661c0-0.364,0.295-0.66,0.659-0.66c0.287,0,0.525,0.186,0.616,0.44
	h1.806V6.747c0-0.242,0.199-0.439,0.441-0.439h2.201c0.243,0,0.441,0.197,0.441,0.439V8.95z"/>
</svg>
