<?xml version="1.0" encoding="utf-8"?>
<!-- Generator: Adobe Illustrator 16.0.0, SVG Export Plug-In . SVG Version: 6.00 Build 0)  -->
<!DOCTYPE svg PUBLIC "-//W3C//DTD SVG 1.1//EN" "http://www.w3.org/Graphics/SVG/1.1/DTD/svg11.dtd">
<svg version="1.1" id="图层_1" xmlns="http://www.w3.org/2000/svg" xmlns:xlink="http://www.w3.org/1999/xlink" x="0px" y="0px"
	 width="16px" height="16px" viewBox="0 0 16 16" enable-background="new 0 0 16 16" xml:space="preserve">
<g>
	<path fill="#6F7985" d="M5.94,12.197c0-1.492,0.686-2.814,1.74-3.714H1.284V6.942h6.428v1.516c0.387-0.325,0.812-0.603,1.285-0.796
		V0H0v15.425h0.642h6.542C6.42,14.562,5.94,13.438,5.94,12.197z M1.284,1.285h6.428v1.542H1.284V1.285z M1.284,4.115h6.428v1.54
		H1.284V4.115z M4.498,13.868c-0.546,0-0.992-0.443-0.992-0.991s0.445-0.992,0.992-0.992c0.549,0,0.992,0.444,0.992,0.992
		S5.047,13.868,4.498,13.868z"/>
	<path fill="#F74848" d="M10.845,8.16c-2.167,0-3.923,1.755-3.923,3.921c0,2.165,1.756,3.919,3.923,3.919
		c2.164,0,3.919-1.754,3.919-3.919C14.764,9.915,13.009,8.16,10.845,8.16z M12.438,14.379l-1.596-1.597l-1.596,1.597l-0.702-0.702
		l1.597-1.596l-1.597-1.596l0.702-0.702l1.596,1.597l1.596-1.597l0.7,0.702l-1.595,1.596l1.596,1.596L12.438,14.379z"/>
</g>
</svg>
