<?xml version="1.0" encoding="utf-8"?>
<!-- Generator: Adobe Illustrator 16.0.0, SVG Export Plug-In . SVG Version: 6.00 Build 0)  -->
<!DOCTYPE svg PUBLIC "-//W3C//DTD SVG 1.1//EN" "http://www.w3.org/Graphics/SVG/1.1/DTD/svg11.dtd">
<svg version="1.1" id="图层_1" xmlns="http://www.w3.org/2000/svg" xmlns:xlink="http://www.w3.org/1999/xlink" x="0px" y="0px"
	 width="16px" height="16px" viewBox="0 0 16 16" enable-background="new 0 0 16 16" xml:space="preserve">
<path fill="#6F7985" d="M0,3.75h2.831v9.207h0.461V3.043L0,3.045V3.75z M3.529,4.889v5.92h5.916v1.068h3.859v-1.068H16v-5.92H3.529z
	 M7.167,9.803c0,0.176-0.101,0.215-0.222,0.094l-1.151-1.15H5.031V6.914h0.763l1.151-1.15c0.121-0.121,0.222-0.08,0.222,0.094V9.803
	z M7.649,8.924c-0.059,0-0.119-0.025-0.163-0.07c-0.089-0.088-0.089-0.234,0-0.322c0.386-0.387,0.386-1.018,0-1.402
	c-0.089-0.09-0.089-0.234,0-0.324c0.09-0.088,0.235-0.088,0.324,0c0.565,0.566,0.565,1.484,0,2.049
	C7.767,8.898,7.708,8.924,7.649,8.924z M8.624,9.285C8.578,9.33,8.52,9.354,8.462,9.354c-0.059,0-0.117-0.023-0.162-0.068
	c-0.089-0.09-0.089-0.234,0-0.322c0.625-0.625,0.625-1.641,0-2.266c-0.089-0.09-0.089-0.234,0-0.324s0.234-0.09,0.324,0
	C9.013,6.762,9.227,7.279,9.227,7.83S9.013,8.896,8.624,9.285z M10.599,11.371h-0.592v-1.244h0.592V11.371z M11.685,11.371h-0.592
	v-1.244h0.592V11.371z M12.771,11.371H12.18v-1.244h0.592V11.371z"/>
</svg>
