<?xml version="1.0" encoding="utf-8"?>
<!-- Generator: Adobe Illustrator 16.0.0, SVG Export Plug-In . SVG Version: 6.00 Build 0)  -->
<!DOCTYPE svg PUBLIC "-//W3C//DTD SVG 1.1//EN" "http://www.w3.org/Graphics/SVG/1.1/DTD/svg11.dtd">
<svg version="1.1" id="图层_1" xmlns="http://www.w3.org/2000/svg" xmlns:xlink="http://www.w3.org/1999/xlink" x="0px" y="0px"
	 width="16px" height="16px" viewBox="0 0 16 16" enable-background="new 0 0 16 16" xml:space="preserve">
<g>
	<path fill="#6F7985" d="M7.638,12.942c0-1.849,1.25-3.395,2.943-3.882V0H1.248v16h7.809C8.195,15.255,7.638,14.168,7.638,12.942z
		 M2.581,1.333h6.667v1.601H2.581V1.333z M2.581,4.267h6.667v1.6H2.581V4.267z M2.581,7.2h6.667v1.6H2.581V7.2z M6.451,14.151H5.452
		L4.72,10.817h0.84l0.397,2.576h0.009l0.401-2.576h0.841L6.451,14.151z"/>
	<path fill="#F74848" d="M11.694,9.886c-1.688,0-3.057,1.367-3.057,3.057c0,1.688,1.369,3.058,3.057,3.058
		c1.688,0,3.058-1.369,3.058-3.058C14.752,11.253,13.383,9.886,11.694,9.886z M11.303,14.485h-0.932v-3.084h0.932V14.485z
		 M13.018,14.485h-0.932v-3.084h0.932V14.485z"/>
</g>
</svg>
