<?xml version="1.0" encoding="utf-8"?>
<!-- Generator: Adobe Illustrator 16.0.0, SVG Export Plug-In . SVG Version: 6.00 Build 0)  -->
<!DOCTYPE svg PUBLIC "-//W3C//DTD SVG 1.1//EN" "http://www.w3.org/Graphics/SVG/1.1/DTD/svg11.dtd">
<svg version="1.1" id="图层_1" xmlns="http://www.w3.org/2000/svg" xmlns:xlink="http://www.w3.org/1999/xlink" x="0px" y="0px"
	 width="10px" height="16px" viewBox="0 0 10 16" enable-background="new 0 0 10 16" xml:space="preserve">
<path fill="#6F7985" d="M149.856,1183.724v16h9.318v-16H149.856z M154.515,1197.909c-0.565,0-1.026-0.46-1.026-1.026
	s0.461-1.026,1.026-1.026c0.568,0,1.026,0.46,1.026,1.026S155.083,1197.909,154.515,1197.909z M155.933,1193.523h-2.806
	l-2.057-6.987h2.358l1.116,5.399h0.024l1.128-5.399h2.36L155.933,1193.523z"/>
<path fill="#6F7985" d="M0,0v16h9.318V0H0z M4.658,14.186c-0.565,0-1.026-0.46-1.026-1.026s0.461-1.026,1.026-1.026
	c0.568,0,1.026,0.46,1.026,1.026S5.227,14.186,4.658,14.186z M6.076,9.8H3.271L1.214,2.812h2.358l1.116,5.399h0.024l1.128-5.399
	h2.36L6.076,9.8z"/>
</svg>
