<?xml version="1.0" encoding="utf-8"?>
<!-- Generator: Adobe Illustrator 16.0.0, SVG Export Plug-In . SVG Version: 6.00 Build 0)  -->
<!DOCTYPE svg PUBLIC "-//W3C//DTD SVG 1.1//EN" "http://www.w3.org/Graphics/SVG/1.1/DTD/svg11.dtd">
<svg version="1.1" id="图层_1" xmlns="http://www.w3.org/2000/svg" xmlns:xlink="http://www.w3.org/1999/xlink" x="0px" y="0px"
	 width="16px" height="16px" viewBox="0 0 16 16" enable-background="new 0 0 16 16" xml:space="preserve">
<g>
	<path fill="#6F7985" d="M8,0C3.59,0,0,3.589,0,8s3.59,8,8,8c4.412,0,8-3.589,8-8S12.412,0,8,0z M8,14.629
		c-3.654,0-6.629-2.975-6.629-6.629S4.346,1.371,8,1.371S14.629,4.346,14.629,8S11.654,14.629,8,14.629z"/>
	<path fill="#6F7985" d="M11.67,5.92l-0.594,0.595l0.754,0.753h-1.547c-0.174-0.945-0.918-1.688-1.862-1.862V3.859l0.753,0.752
		l0.594-0.593L8,2.25L6.233,4.019l0.594,0.593L7.58,3.859v1.546C6.637,5.579,5.892,6.322,5.719,7.268H4.172l0.753-0.753L4.331,5.92
		L2.563,7.688l1.768,1.768L4.925,8.86L4.172,8.107h1.547C5.892,9.052,6.637,9.796,7.58,9.97v1.546l-0.753-0.752l-0.594,0.593
		L8,13.125l1.359-1.36c-0.121-0.262-0.191-0.553-0.191-0.861c0-0.047,0.004-0.093,0.008-0.139l-0.002-0.001l-0.753,0.752V9.97
		c0.944-0.174,1.688-0.918,1.862-1.862h1.547l-0.752,0.752c0.047-0.003,0.094-0.006,0.141-0.006c0.309,0,0.6,0.068,0.861,0.19
		l1.357-1.356L11.67,5.92z M8,9.17c-0.816,0-1.481-0.665-1.481-1.482S7.184,6.205,8,6.205c0.818,0,1.482,0.665,1.482,1.482
		S8.818,9.17,8,9.17z"/>
	<polygon fill="#6F7985" points="11.305,12.281 11.297,12.281 10.934,9.924 10.164,9.924 10.836,12.974 11.75,12.974 12.443,9.924 
		11.674,9.924 	"/>
</g>
</svg>
