<?xml version="1.0" encoding="utf-8"?>
<!-- Generator: Adobe Illustrator 16.0.0, SVG Export Plug-In . SVG Version: 6.00 Build 0)  -->
<!DOCTYPE svg PUBLIC "-//W3C//DTD SVG 1.1//EN" "http://www.w3.org/Graphics/SVG/1.1/DTD/svg11.dtd">
<svg version="1.1" id="图层_1" xmlns="http://www.w3.org/2000/svg" xmlns:xlink="http://www.w3.org/1999/xlink" x="0px" y="0px"
	 width="16px" height="16px" viewBox="0 0 16 16" enable-background="new 0 0 16 16" xml:space="preserve">
<g>
	<path fill="#6F7985" d="M14.154,3.393h-0.207v-0.34c0-0.377-0.309-0.684-0.686-0.684h-1.369c-0.377,0-0.684,0.307-0.684,0.684v0.34
		H1.846C0.826,3.393,0,4.219,0,5.238v6.154c0,1.02,0.826,1.846,1.846,1.846H9.99C9.382,12.535,9,11.633,9,10.633
		c0-2.205,1.795-3.998,4-3.998c1.201,0,2.267,0.541,3,1.381V5.238C16,4.219,15.174,3.393,14.154,3.393z M5.539,12.043
		c-2.059,0-3.729-1.668-3.729-3.729c0-2.059,1.67-3.729,3.729-3.729s3.729,1.67,3.729,3.729C9.268,10.375,7.598,12.043,5.539,12.043
		z"/>
	<path fill="#6F7985" d="M10.303,10.146c-0.111,1.488,1.012,2.787,2.5,2.896l-0.045,0.588l1.479-0.834l-1.34-1.043l-0.043,0.586
		c-1.1-0.08-1.928-1.041-1.848-2.141c0.082-1.1,1.043-1.931,2.143-1.851c1.1,0.082,1.928,1.044,1.848,2.144
		c-0.016,0.195,0.131,0.363,0.324,0.379c0.195,0.014,0.365-0.133,0.379-0.328c0.109-1.486-1.012-2.788-2.5-2.897
		S10.412,8.657,10.303,10.146z"/>
	<path fill="#6F7985" d="M5.539,5.816c-1.297,0-2.346,1.051-2.346,2.346s1.049,2.346,2.346,2.346c1.295,0,2.346-1.051,2.346-2.346
		S6.834,5.816,5.539,5.816z M5.912,9.441H5.147L4.586,6.884H5.23l0.305,1.978h0.006L5.85,6.884h0.643L5.912,9.441z"/>
</g>
</svg>
