<?xml version="1.0" encoding="utf-8"?>
<!-- Generator: Adobe Illustrator 16.0.0, SVG Export Plug-In . SVG Version: 6.00 Build 0)  -->
<!DOCTYPE svg PUBLIC "-//W3C//DTD SVG 1.1//EN" "http://www.w3.org/Graphics/SVG/1.1/DTD/svg11.dtd">
<svg version="1.1" id="图层_1" xmlns="http://www.w3.org/2000/svg" xmlns:xlink="http://www.w3.org/1999/xlink" x="0px" y="0px"
	 width="16px" height="16px" viewBox="0 0 16 16" enable-background="new 0 0 16 16" xml:space="preserve">
<g>
	<path fill="#6F7985" d="M13.811,9.408c0.158,0.308,0.256,0.65,0.256,1.02c0,0.847-0.469,1.575-1.156,1.963
		c0.414-0.342,0.705-0.825,0.795-1.381c0.02-0.116,0.035-0.235,0.035-0.358c0-0.247-0.049-0.482-0.123-0.706
		c-0.008-0.019-0.012-0.04-0.02-0.06c0,0,0,0,0-0.001c-0.02-0.054-0.037-0.109-0.059-0.16l-0.002-0.001
		c-0.041-0.088-0.088-0.172-0.139-0.253c-0.396-0.646-1.105-1.08-1.92-1.08c-0.812,0-1.523,0.432-1.922,1.077
		c1.027,0.049,1.846,0.889,1.846,1.929c0,0.222-0.045,0.434-0.113,0.632c0.002-0.04,0.012-0.08,0.012-0.121
		c0-0.32-0.086-0.617-0.223-0.884c-0.01-0.019-0.023-0.039-0.033-0.059c-0.332-0.592-0.957-0.995-1.684-0.995
		c-1.07,0-1.938,0.865-1.938,1.938c0,1.052,0.838,1.9,1.881,1.932v0.007h4.555v-0.01C15.049,13.793,16,12.824,16,11.625
		C16,10.412,15.021,9.427,13.811,9.408z"/>
	<path fill="#6F7985" d="M2.322,8.724h6.682c0.252-0.326,0.559-0.593,0.902-0.793H2.322V8.724z"/>
	<path fill="#6F7985" d="M3.578,6.822V5.719c0-0.027-0.023-0.051-0.049-0.051H2.426c-0.029,0-0.051,0.023-0.051,0.051v1.104
		c0,0.027,0.021,0.05,0.051,0.05h1.104C3.555,6.872,3.578,6.85,3.578,6.822z"/>
	<path fill="#6F7985" d="M1.473,11.969c-0.271,0-0.492-0.222-0.492-0.491v-6.87h10.797v2.931c0.342,0.032,0.676,0.105,0.982,0.242
		V3.627c0-0.813-0.66-1.473-1.473-1.473H1.473C0.66,2.154,0,2.813,0,3.627v7.851c0,0.812,0.66,1.472,1.473,1.472h5.273
		c-0.121-0.305-0.193-0.633-0.199-0.98H1.473z"/>
	<path fill="#6F7985" d="M8.064,6.822V5.719c0-0.027-0.023-0.051-0.051-0.051H6.91c-0.025,0-0.049,0.023-0.049,0.051v1.104
		c0,0.027,0.023,0.05,0.049,0.05h1.104C8.041,6.872,8.064,6.85,8.064,6.822z"/>
	<path fill="#6F7985" d="M10.307,6.822V5.719c0-0.027-0.023-0.051-0.049-0.051H9.152c-0.025,0-0.049,0.023-0.049,0.051v1.104
		c0,0.027,0.023,0.05,0.049,0.05h1.105C10.283,6.872,10.307,6.85,10.307,6.822z"/>
	<path fill="#6F7985" d="M2.322,9.741v0.793h4.576c0.172-0.307,0.402-0.571,0.668-0.793H2.322z"/>
	<path fill="#6F7985" d="M5.822,6.822V5.719c0-0.027-0.023-0.051-0.051-0.051H4.666c-0.025,0-0.049,0.023-0.049,0.051v1.104
		c0,0.027,0.023,0.05,0.049,0.05h1.105C5.799,6.872,5.822,6.85,5.822,6.822z"/>
</g>
</svg>
