<?xml version="1.0" encoding="utf-8"?>
<!-- Generator: Adobe Illustrator 16.0.0, SVG Export Plug-In . SVG Version: 6.00 Build 0)  -->
<!DOCTYPE svg PUBLIC "-//W3C//DTD SVG 1.1//EN" "http://www.w3.org/Graphics/SVG/1.1/DTD/svg11.dtd">
<svg version="1.1" id="图层_1" xmlns="http://www.w3.org/2000/svg" xmlns:xlink="http://www.w3.org/1999/xlink" x="0px" y="0px"
	 width="16px" height="16px" viewBox="0 0 16 16" enable-background="new 0 0 16 16" xml:space="preserve">
<g>
	<g>
		<path fill="#6F7985" d="M12.351,5.514H9.863V4.271c0-0.343-0.277-0.622-0.621-0.622H6.756c-0.343,0-0.621,0.279-0.621,0.622v1.243
			H3.649c-0.344,0-0.622,0.278-0.622,0.621v5.593c0,0.343,0.278,0.623,0.622,0.623h1.243v-2.177c0-0.171,0.139-0.311,0.311-0.311
			c0.172,0,0.31,0.14,0.31,0.311v2.177h1.243v-2.177c0-0.171,0.14-0.311,0.311-0.311c0.172,0,0.312,0.14,0.312,0.311v2.177H8.62
			v-2.177c0-0.171,0.14-0.311,0.311-0.311c0.172,0,0.311,0.14,0.311,0.311v2.177h1.243v-2.177c0-0.171,0.139-0.311,0.311-0.311
			c0.173,0,0.312,0.14,0.312,0.311v2.177h1.243c0.344,0,0.621-0.28,0.621-0.623V6.135C12.972,5.792,12.694,5.514,12.351,5.514z"/>
	</g>
	<g>
		<path fill="#6F7985" d="M8,16c-4.411,0-8-3.589-8-8s3.589-8,8-8s8,3.589,8,8S12.411,16,8,16z M8,0.877
			C4.072,0.877,0.877,4.072,0.877,8S4.072,15.123,8,15.123S15.123,11.928,15.123,8S11.928,0.877,8,0.877z"/>
	</g>
</g>
</svg>
