<?xml version="1.0" encoding="utf-8"?>
<!-- Generator: Adobe Illustrator 16.0.0, SVG Export Plug-In . SVG Version: 6.00 Build 0)  -->
<!DOCTYPE svg PUBLIC "-//W3C//DTD SVG 1.1//EN" "http://www.w3.org/Graphics/SVG/1.1/DTD/svg11.dtd">
<svg version="1.1" id="图层_1" xmlns="http://www.w3.org/2000/svg" xmlns:xlink="http://www.w3.org/1999/xlink" x="0px" y="0px"
	 width="16px" height="16px" viewBox="0 0 16 16" enable-background="new 0 0 16 16" xml:space="preserve">
<g>
	<path fill="#6F7985" d="M14.785,6.017c-0.995-0.995-2.371-1.374-3.66-1.143c-0.163-0.257-0.352-0.504-0.574-0.728
		c-1.648-1.647-4.319-1.647-5.968,0c-0.497,0.498-0.837,1.09-1.032,1.717C1.584,5.898,0,7.498,0,9.475
		c0,1.961,1.562,3.547,3.51,3.605v0.01h8.499v-0.014c1.008-0.037,2.005-0.428,2.776-1.199C16.402,10.26,16.405,7.636,14.785,6.017z
		 M2.682,10.654h-0.75L1.38,8.147h0.632l0.299,1.938h0.006l0.303-1.938H3.25L2.682,10.654z M5.789,10.654H5.242V8.702H5.235
		l-0.383,1.952H4.396L3.992,8.702H3.986v1.952H3.459V8.147h0.863l0.309,1.647h0.008l0.299-1.647h0.852V10.654z M8.267,10.654H7.613
		l-0.256-1.78H7.351l-0.242,1.78H6.455L6.014,8.147h0.59L6.82,9.932h0.008l0.259-1.784h0.548l0.281,1.784h0.006l0.211-1.784h0.568
		L8.267,10.654z M10.122,10.654l-0.091-0.477H9.431l-0.088,0.477h-0.61l0.639-2.507h0.736l0.625,2.507H10.122z M12.682,10.654
		h-0.635c-0.046-0.084-0.063-0.225-0.063-0.508c0-0.436-0.06-0.527-0.245-0.527h-0.225v1.035h-0.59V8.147h0.99
		c0.501,0,0.674,0.31,0.674,0.653c0,0.365-0.148,0.545-0.422,0.611V9.42c0.375,0.053,0.396,0.287,0.404,0.623
		c0.01,0.496,0.027,0.545,0.111,0.58V10.654z M14.428,10.654h-1.488V8.147h1.449v0.479h-0.859v0.501h0.807v0.479h-0.807v0.572h0.898
		V10.654z M9.722,8.604L9.515,9.721h0.429L9.729,8.604H9.722z M11.692,8.562h-0.179v0.644h0.182c0.239,0,0.303-0.18,0.303-0.327
		C11.998,8.688,11.928,8.562,11.692,8.562z"/>
</g>
</svg>
