<?xml version="1.0" encoding="utf-8"?>
<!-- Generator: Adobe Illustrator 16.0.0, SVG Export Plug-In . SVG Version: 6.00 Build 0)  -->
<!DOCTYPE svg PUBLIC "-//W3C//DTD SVG 1.1//EN" "http://www.w3.org/Graphics/SVG/1.1/DTD/svg11.dtd">
<svg version="1.1" id="图层_1" xmlns="http://www.w3.org/2000/svg" xmlns:xlink="http://www.w3.org/1999/xlink" x="0px" y="0px"
	 width="16px" height="16px" viewBox="0 0 16 16" enable-background="new 0 0 16 16" xml:space="preserve">
<g>
	<path fill="#6F7985" d="M13.783,6.167c-0.818,0.813-3.06,3.118-3.879,3.932l-1.939,0.515L7.949,10.61l0.637-1.832l0.422-0.485
		l2.722-2.709l0.604-0.597l0.173-0.176c0.014-0.01-0.126-0.145-0.114-0.15l-0.2-0.206L11.75,4.895L8.173,8.451L7.96,8.663
		l-0.926,2.829l0.024,0.007l3.021-0.857C10.915,9.81,12.639,8,14.135,6.511l-0.342-0.356C13.788,6.16,13.788,6.167,13.783,6.167z"/>
	<path fill="#6F7985" d="M15.775,3.779l-0.887-0.89c-0.155-0.155-0.358-0.231-0.561-0.231c-0.199-0.001-0.402,0.078-0.557,0.233
		L13.47,3.184l1.986,2.022c0.115-0.119,0.228-0.229,0.311-0.311C15.922,4.741,16,4.539,16,4.336
		C16.004,4.135,15.929,3.931,15.775,3.779z"/>
	
		<rect x="12.416" y="4.484" transform="matrix(-0.7041 -0.7101 0.7101 -0.7041 20.1152 18.1152)" fill="#6F7985" width="2.832" height="0.764"/>
	<polygon fill="#6F7985" points="9.514,9.043 9.556,9.559 13.374,5.792 12.838,5.253 9.019,9.018 	"/>
	<polygon fill="#6F7985" points="1.755,13.7 7.892,13.7 7.892,12.811 1.765,12.811 	"/>
	
		<rect x="4.442" y="5.919" transform="matrix(0.9999 0.0114 -0.0114 0.9999 0.0728 -0.07)" fill="#6F7985" width="3.472" height="0.868"/>
	<polygon fill="#6F7985" points="8.702,11.885 8.685,14.625 0.876,14.535 0.967,6.728 3.571,6.758 3.602,4.154 8.807,4.214 
		8.778,6.691 9.656,5.816 9.685,3.356 2.743,3.275 0.213,5.849 0.111,5.848 0,15.394 9.544,15.505 9.575,11.637 	"/>
	<path fill="#6F7985" d="M1.795,10.206l4.786,0.031l0.28-0.856L1.804,9.34L1.795,10.206z M1.826,7.604L1.814,8.473l5.328,0.053
		l0.101-0.308l0.546-0.542L1.826,7.604z M1.774,11.941l4.244,0.018L6.3,11.097l-4.516-0.022L1.774,11.941z"/>
	<path fill="#6F7985" d="M11.248,1.955H4.306L3.458,2.816h6.883v2.659l0.907-0.88V1.955z M10.268,11.756l-0.006,0.505v1.913
		l0.845,0.011l0.04-3.329c-0.107,0.104-0.211,0.216-0.312,0.317C10.631,11.38,10.443,11.574,10.268,11.756z"/>
	<path fill="#6F7985" d="M12.931,0.495H5.988L5.142,1.358h6.88v2.658l0.908-0.881V0.495z M11.95,10.296l-0.007,0.506v1.913
		l0.847,0.01l0.038-3.33c-0.106,0.107-0.209,0.219-0.311,0.32C12.314,9.92,12.127,10.114,11.95,10.296z"/>
</g>
</svg>
