<?xml version="1.0" encoding="utf-8"?>
<!-- Generator: Adobe Illustrator 16.0.0, SVG Export Plug-In . SVG Version: 6.00 Build 0)  -->
<!DOCTYPE svg PUBLIC "-//W3C//DTD SVG 1.1//EN" "http://www.w3.org/Graphics/SVG/1.1/DTD/svg11.dtd">
<svg version="1.1" id="图层_1" xmlns="http://www.w3.org/2000/svg" xmlns:xlink="http://www.w3.org/1999/xlink" x="0px" y="0px"
	 width="13px" height="16px" viewBox="0 0 13 16" enable-background="new 0 0 13 16" xml:space="preserve">
<g>
	<polygon fill="#6F7985" points="1.156,13.824 0,13.824 0,0 8.063,0 8.063,1.147 1.156,1.147 1.156,1.151 1.152,1.151 	"/>
	<path fill="#6F7985" d="M11.165,2.177H2.258V16h8.907V2.177z M6.64,14.854c-0.537,0-0.975-0.437-0.975-0.975
		c0-0.539,0.438-0.976,0.975-0.976c0.541,0,0.977,0.437,0.977,0.976C7.616,14.417,7.181,14.854,6.64,14.854z M8.213,10.912H5.546
		L3.592,4.271h2.241l1.061,5.131h0.023l1.072-5.131h2.243L8.213,10.912z"/>
</g>
</svg>
