<?xml version="1.0" encoding="utf-8"?>
<!-- Generator: Adobe Illustrator 16.0.0, SVG Export Plug-In . SVG Version: 6.00 Build 0)  -->
<!DOCTYPE svg PUBLIC "-//W3C//DTD SVG 1.1//EN" "http://www.w3.org/Graphics/SVG/1.1/DTD/svg11.dtd">
<svg version="1.1" id="图层_1" xmlns="http://www.w3.org/2000/svg" xmlns:xlink="http://www.w3.org/1999/xlink" x="0px" y="0px"
	 width="16px" height="16px" viewBox="0 0 16 16" enable-background="new 0 0 16 16" xml:space="preserve">
<g>
	<g>
		<path fill="#6F7985" d="M3.082,6.857h8V5.714h-8V6.857z M4.224,0L0.796,3.573V16h10.226l-0.804-1.143H1.938V4.571h3.429V1.143
			h6.857v7.525l1.143-0.154V0H4.224z M3.082,9.143h5.615l2.385-0.32V8h-8V9.143z M3.082,10.286v1.143h4.723l-0.804-1.143H3.082z
			 M3.082,13.714h6.332l-0.804-1.143H3.082V13.714z"/>
		<path fill="#6F7985" d="M11.311,14.424l-2.88-4.093l4.96-0.666l-0.356,0.818c0,0,3.124,2.175,1.875,5.517
			c0,0-1.427-2.839-3.084-2.752L11.311,14.424z"/>
	</g>
</g>
</svg>
