<?xml version="1.0" encoding="utf-8"?>
<!-- Generator: Adobe Illustrator 16.0.0, SVG Export Plug-In . SVG Version: 6.00 Build 0)  -->
<!DOCTYPE svg PUBLIC "-//W3C//DTD SVG 1.1//EN" "http://www.w3.org/Graphics/SVG/1.1/DTD/svg11.dtd">
<svg version="1.1" id="图层_1" xmlns="http://www.w3.org/2000/svg" xmlns:xlink="http://www.w3.org/1999/xlink" x="0px" y="0px"
	 width="16px" height="16px" viewBox="0 0 16 16" enable-background="new 0 0 16 16" xml:space="preserve">
<g>
	<g>
		<path fill="#6F7985" d="M9.855,11.313l3.475,4.413c0.531,0.51,1.105,0.191,1.354-0.027l0.283-0.279
			c0.213-0.245,0.535-0.745,0.074-1.357l-4.461-3.472c0.354-0.668,0.26-1.514-0.303-2.076C9.814,8.053,9.164,7.906,8.574,8.062
			L9.65,9.141v1.246H8.402L7.328,9.311C7.17,9.9,7.316,10.552,7.775,11.012C8.34,11.577,9.188,11.674,9.855,11.313z M13.781,15.042
			c-0.143-0.146-0.143-0.381,0-0.522c0.145-0.145,0.379-0.145,0.523,0c0.141,0.142,0.141,0.376,0,0.522
			C14.16,15.184,13.926,15.184,13.781,15.042z"/>
		<path fill="#6F7985" d="M2.52,14.154h3.803c0.089-0.27,0.233-0.524,0.449-0.747l0.047-0.049l0.63-0.496v-0.844
			c-0.132-0.091-0.264-0.185-0.38-0.301c-0.689-0.689-0.961-1.711-0.707-2.665l0.378-1.417l0.162-0.168l0.547-0.144V4.905H2.52
			V14.154z M8.681,1.232H6.83V0.53C6.83,0.234,6.589,0,6.299,0H3.672C3.376,0,3.135,0.234,3.135,0.53v0.702H1.291
			c-0.343,0-0.617,0.269-0.617,0.61V15.39c0,0.332,0.274,0.61,0.617,0.61h5.396c-0.291-0.388-0.445-0.809-0.459-1.222H1.906V2.455
			h6.157v4.707L8.32,7.095c0.233-0.062,0.474-0.093,0.715-0.093c0.089,0,0.175,0.018,0.262,0.025V1.843
			C9.297,1.501,9.016,1.232,8.681,1.232z M8.063,12.378l0.027-0.021c-0.01-0.004-0.018-0.01-0.027-0.013V12.378z"/>
		<path fill="#6F7985" d="M10.943,11.385l0.387-0.059l2.434-2.436V8.58l1.25-0.624l0.312,0.312l-0.625,1.25h-0.312l-2.467,2.464
			l-0.047,0.333l-2.721,3.497c-0.615,0.237-1.113,0.14-1.357-0.073l-0.279-0.281c-0.219-0.251-0.539-0.827-0.027-1.355
			L10.943,11.385z"/>
	</g>
</g>
</svg>
