<?xml version="1.0" encoding="utf-8"?>
<!-- Generator: Adobe Illustrator 16.0.0, SVG Export Plug-In . SVG Version: 6.00 Build 0)  -->
<!DOCTYPE svg PUBLIC "-//W3C//DTD SVG 1.1//EN" "http://www.w3.org/Graphics/SVG/1.1/DTD/svg11.dtd">
<svg version="1.1" id="图层_1" xmlns="http://www.w3.org/2000/svg" xmlns:xlink="http://www.w3.org/1999/xlink" x="0px" y="0px"
	 width="16px" height="16px" viewBox="0 0 16 16" enable-background="new 0 0 16 16" xml:space="preserve">
<g>
	<path fill="#6F7985" d="M15.721,14.613c0.33,0.438,0.101,0.796-0.053,0.97l-0.201,0.199c-0.179,0.158-0.591,0.387-0.971,0.021
		l-1.48-1.877l-1.507,1.938c-0.44,0.168-0.799,0.1-0.972-0.054l-0.199-0.202c-0.159-0.178-0.388-0.589-0.021-0.969l2.014-1.583
		l-0.322-0.409c-0.475,0.253-1.082,0.185-1.486-0.219c-0.33-0.332-0.435-0.797-0.323-1.221l0.771,0.772h0.895v-0.894l-0.771-0.77
		c0.421-0.114,0.886-0.007,1.217,0.321c0.404,0.404,0.473,1.013,0.217,1.487l0.599,0.466l1.683-1.681v-0.224l0.896-0.448
		l0.223,0.225l-0.448,0.893h-0.224l-1.626,1.627L15.721,14.613z"/>
	<path fill="#6F7985" d="M15.951,8.723l-2.39,1.196c0,0-0.107,0.148-0.168,0.07c-0.062-0.08-0.131-0.158-0.203-0.23
		c-0.383-0.382-0.868-0.616-1.392-0.695C11.984,8.612,12.14,8.121,12.2,7.58c0.171-1.46-0.212-2.842-1.047-3.789
		c-0.257-0.29-0.556-0.512-0.874-0.691C10.247,1.357,11.045,0.01,12.57,0h0.068c1.442,0.011,2.524,1.636,2.291,3.642
		c-0.153,1.354-0.988,2.475-1.551,3.052v0.654c0,0.052,0.306,0.16,0.348,0.183c0.375,0.146,0.876,0.341,1.676,0.837
		C16.015,8.747,15.951,8.723,15.951,8.723z"/>
	<path fill="#6F7985" d="M6.457,10.591C5.939,9.839,5.468,8.792,5.326,7.588C5.148,6.017,5.494,4.653,6.298,3.745
		c0.273-0.308,0.595-0.54,0.947-0.718C7.216,1.315,6.221,0.01,4.93,0H4.861C3.176,0.011,2.37,1.648,2.597,3.651
		c0.158,1.35,0.82,2.465,1.383,3.042v0.654c0,0.052-0.217,0.16-0.263,0.183c-0.656,0.26-3.159,1.497-3.42,2.18
		c-0.237,0.613-0.25,1.321-0.25,1.321h5.536C5.9,10.861,6.205,10.711,6.457,10.591z"/>
	<path fill="#6F7985" d="M9.479,13.713l0.322-0.254c-0.056-0.046-0.109-0.095-0.162-0.148c-0.386-0.387-0.607-0.889-0.683-1.417
		c-0.044-0.178-0.076-0.362-0.076-0.555c0-0.393,0.107-0.755,0.28-1.079l0.023-0.085l0.053-0.054
		c0.192-0.307,0.45-0.564,0.759-0.754l0.062-0.062l0.106-0.029c0.109-0.055,0.228-0.091,0.344-0.13
		c0.27-0.498,0.496-1.067,0.566-1.697c0.233-2.005-0.849-3.631-2.291-3.642H8.716C7.03,3.817,6.225,5.455,6.451,7.458
		c0.158,1.351,0.82,2.466,1.383,3.043v0.652c0,0.054-0.217,0.161-0.263,0.183c-0.656,0.261-3.159,1.497-3.42,2.182
		c-0.237,0.613-0.25,1.32-0.25,1.32h5.004c0.052-0.388,0.22-0.758,0.515-1.064L9.479,13.713z"/>
</g>
</svg>
