<?xml version="1.0" encoding="utf-8"?>
<!-- Generator: Adobe Illustrator 16.0.0, SVG Export Plug-In . SVG Version: 6.00 Build 0)  -->
<!DOCTYPE svg PUBLIC "-//W3C//DTD SVG 1.1//EN" "http://www.w3.org/Graphics/SVG/1.1/DTD/svg11.dtd">
<svg version="1.1" id="图层_1" xmlns="http://www.w3.org/2000/svg" xmlns:xlink="http://www.w3.org/1999/xlink" x="0px" y="0px"
	 width="16px" height="16px" viewBox="0 0 16 16" enable-background="new 0 0 16 16" xml:space="preserve">
<g>
	<path fill="#6F7985" d="M9.818,11.678c-0.315,0.194-0.648,0.363-1.002,0.495c0.17-0.313,0.317-0.669,0.448-1.047l-0.913-0.915
		c-0.407,1.467-1.021,2.335-1.508,2.335c-0.528,0-1.21-1.013-1.607-2.713c0.531,0.056,1.072,0.086,1.607,0.086
		c0.384,0,0.769-0.032,1.153-0.062L7.588,9.448h2.939c0.035-0.01,0.07-0.021,0.105-0.031V8.222c-0.248,0.082-0.509,0.16-0.797,0.227
		c0.055-0.528,0.086-1.07,0.086-1.606c0-0.535-0.031-1.077-0.086-1.606c1.698,0.396,2.709,1.076,2.709,1.606
		c0,0.075-0.025,0.154-0.064,0.234h1.194c0.002-0.079,0.012-0.155,0.012-0.234c0-3.772-3.069-6.843-6.843-6.843
		C3.069-0.001,0,3.069,0,6.842s3.069,6.844,6.844,6.844c1.412,0,2.726-0.431,3.816-1.167L9.818,11.678z M12.173,4.867
		c-0.689-0.373-1.561-0.653-2.517-0.836c-0.185-0.957-0.466-1.829-0.84-2.52C10.37,2.088,11.596,3.315,12.173,4.867z M6.844,1.139
		c0.528,0,1.209,1.012,1.608,2.712C7.919,3.796,7.38,3.766,6.844,3.766c-0.535,0-1.076,0.03-1.607,0.085
		C5.634,2.15,6.315,1.139,6.844,1.139z M1.141,6.842c0-0.53,1.012-1.211,2.714-1.606C3.798,5.765,3.766,6.307,3.766,6.842
		c0,0.536,0.032,1.078,0.089,1.606C2.152,8.054,1.141,7.372,1.141,6.842z M1.516,8.817c0.688,0.373,1.56,0.653,2.516,0.836
		c0.186,0.957,0.467,1.829,0.839,2.52C3.316,11.596,2.092,10.369,1.516,8.817z M4.031,4.031C3.075,4.214,2.204,4.494,1.516,4.867
		C2.092,3.315,3.316,2.088,4.87,1.512C4.498,2.202,4.216,3.074,4.031,4.031z M4.907,6.842c0-0.656,0.052-1.254,0.123-1.815
		c0.562-0.069,1.156-0.121,1.813-0.121c0.656,0,1.253,0.052,1.815,0.121c0.07,0.562,0.122,1.159,0.122,1.815
		c0,0.657-0.052,1.254-0.122,1.815C8.097,8.728,7.5,8.779,6.844,8.779c-0.657,0-1.252-0.052-1.813-0.122
		C4.959,8.096,4.907,7.499,4.907,6.842z"/>
	<g>
		<polygon fill="#F74848" points="12.771,13.375 16,10.147 14.1,10.147 14.1,7.689 11.441,7.689 11.441,10.147 9.542,10.147 		"/>
		<rect x="9.825" y="13.826" fill="#F74848" width="5.892" height="0.706"/>
	</g>
</g>
</svg>
