<?xml version="1.0" encoding="utf-8"?>
<!-- Generator: Adobe Illustrator 16.0.0, SVG Export Plug-In . SVG Version: 6.00 Build 0)  -->
<!DOCTYPE svg PUBLIC "-//W3C//DTD SVG 1.1//EN" "http://www.w3.org/Graphics/SVG/1.1/DTD/svg11.dtd">
<svg version="1.1" id="图层_1" xmlns="http://www.w3.org/2000/svg" xmlns:xlink="http://www.w3.org/1999/xlink" x="0px" y="0px"
	 width="16px" height="16px" viewBox="0 0 16 16" enable-background="new 0 0 16 16" xml:space="preserve">
<g>
	<g>
		<g>
			<g>
				<line fill="#6F7985" x1="5.882" y1="5.318" x2="5.824" y2="5.041"/>
				<line fill="#6F7985" x1="8.235" y1="5.003" x2="8.168" y2="5.321"/>
				<path fill="#6F7985" d="M5.882,5.318L5.824,5.041 M8.235,5.003L8.168,5.321"/>
			</g>
			<g>
				<line fill="#6F7985" x1="5.824" y1="5.041" x2="5.824" y2="4.887"/>
			</g>
			<g>
				<path fill="#6F7985" d="M5.824,4.887C5.86,4.311,6.35,3.853,7.003,3.853c0.665,0,1.205,0.471,1.231,1.059
					c0.001,0.016,0.001,0.031,0.001,0.047c0,0.015,0,0.03-0.001,0.045L8.168,5.321L7.495,8.522C7.474,8.618,7.389,8.685,7.295,8.685
					c-0.008,0-0.015,0-0.021-0.002H7.273C7.266,8.684,7.258,8.685,7.25,8.685H6.756c-0.097,0-0.18-0.067-0.2-0.162L5.882,5.318
					L5.824,5.041V4.887z"/>
				<path fill="#6F7985" d="M8.235,5.003c0.001-0.015,0.001-0.03,0.001-0.045c0-0.016,0-0.031-0.001-0.047"/>
			</g>
		</g>
		<circle fill="#6F7985" cx="7.03" cy="10.248" r="0.71"/>
	</g>
	<g>
		<path fill="#6F7985" d="M13.03,11.847l-0.105,0.002C12.959,11.85,12.993,11.85,13.03,11.847z"/>
		<polygon fill="#6F7985" stroke="#6F7985" stroke-width="0.1791" stroke-miterlimit="10" points="12.839,11.598 12.87,14.121 
			14.747,12.838 		"/>
		<path fill="#6F7985" d="M9.706,11.514H1.54c-0.332,0-0.473-0.091-0.488-0.111C1.041,11.377,1.034,11.21,1.2,10.921l5.489-9.507
			c0.167-0.289,0.313-0.365,0.34-0.368c0.028,0.003,0.175,0.079,0.343,0.368l3.506,6.074c0.277-0.221,0.573-0.408,0.896-0.539
			L8.277,0.891C7.934,0.296,7.482-0.001,7.029-0.001c-0.451,0-0.903,0.297-1.246,0.892l-5.49,9.508
			c-0.686,1.189-0.124,2.161,1.247,2.161h8.733C10.021,12.237,9.833,11.886,9.706,11.514z"/>
		<path fill="#6F7985" stroke="#6F7985" stroke-width="0.1791" stroke-miterlimit="10" d="M15.803,11.373l-0.487-0.478
			c0.194-0.755-0.008-1.588-0.604-2.171c-0.889-0.865-2.31-0.85-3.175,0.036c-0.869,0.888-0.853,2.31,0.033,3.179
			c0.456,0.44,1.045,0.652,1.632,0.637l0.557,0.545c-0.907,0.202-1.898-0.046-2.615-0.746c-1.128-1.104-1.15-2.912-0.046-4.042
			c1.104-1.129,2.91-1.148,4.041-0.047C15.986,9.115,16.209,10.339,15.803,11.373z"/>
	</g>
</g>
</svg>
