<?xml version="1.0" encoding="utf-8"?>
<!-- Generator: Adobe Illustrator 16.0.0, SVG Export Plug-In . SVG Version: 6.00 Build 0)  -->
<!DOCTYPE svg PUBLIC "-//W3C//DTD SVG 1.1//EN" "http://www.w3.org/Graphics/SVG/1.1/DTD/svg11.dtd">
<svg version="1.1" id="图层_1" xmlns="http://www.w3.org/2000/svg" xmlns:xlink="http://www.w3.org/1999/xlink" x="0px" y="0px"
	 width="16px" height="16px" viewBox="0 0 16 16" enable-background="new 0 0 16 16" xml:space="preserve">
<g>
	<path fill="#6F7985" d="M13.297,14.978c-0.671,0.454-1.45,0.695-2.262,0.695c-2.229,0-4.043-1.813-4.043-4.042
		s1.814-4.043,4.043-4.043c2.229,0,4.042,1.814,4.042,4.043c0,0.811-0.24,1.592-0.695,2.261l1.021,1.022l-1.084,1.085L13.297,14.978
		z M11.035,8.521c-1.715,0-3.109,1.395-3.109,3.109s1.395,3.108,3.109,3.108s3.108-1.394,3.108-3.108S12.75,8.521,11.035,8.521z"/>
	<path fill="#6F7985" d="M5.217,4.174h4.175V3.131H5.217V4.174z M2.086,6.261h7.306V5.217H2.086V6.261z M2.086,11.479v1.044h3.639
		c-0.108-0.334-0.177-0.682-0.205-1.044H2.086z M3.13-0.001L0.127,3.131H0v11.479h7.128c-0.358-0.302-0.674-0.648-0.925-1.044h-5.16
		V4.174h3.13V1.043h6.262v5.548c0.362,0.03,0.71,0.1,1.043,0.21v-6.802H3.13z M2.086,9.391v1.043h3.468
		c0.055-0.361,0.139-0.713,0.274-1.043H2.086z M7.553,7.304H2.086v1.044h4.361C6.759,7.944,7.125,7.586,7.553,7.304z"/>
</g>
</svg>
