<?xml version="1.0" encoding="utf-8"?>
<!-- Generator: Adobe Illustrator 16.0.0, SVG Export Plug-In . SVG Version: 6.00 Build 0)  -->
<!DOCTYPE svg PUBLIC "-//W3C//DTD SVG 1.1//EN" "http://www.w3.org/Graphics/SVG/1.1/DTD/svg11.dtd">
<svg version="1.1" id="图层_1" xmlns="http://www.w3.org/2000/svg" xmlns:xlink="http://www.w3.org/1999/xlink" x="0px" y="0px"
	 width="16px" height="16px" viewBox="0 0 16 16" enable-background="new 0 0 16 16" xml:space="preserve">
<g>
	<path fill="#6F7985" d="M9.354,10.66V0H0.021v16h7.725C7.209,13.679,8.223,11.826,9.354,10.66z M1.354,1.333h6.667v1.601H1.354
		V1.333z M1.354,4.267h6.667v1.6H1.354V4.267z M1.354,7.2h6.667v1.6H1.354V7.2z M5.224,14.151H4.225l-0.732-3.334h0.84l0.397,2.576
		h0.009l0.401-2.576h0.841L5.224,14.151z"/>
	<path fill="#6F7985" d="M12.639,14.687l3.34-3.987L10.9,9.576l0.301,0.875c0,0-3.427,1.979-2.43,5.549c0,0,1.729-2.812,3.438-2.579
		L12.639,14.687z"/>
</g>
</svg>
