<?xml version="1.0" encoding="utf-8"?>
<!-- Generator: Adobe Illustrator 16.0.0, SVG Export Plug-In . SVG Version: 6.00 Build 0)  -->
<!DOCTYPE svg PUBLIC "-//W3C//DTD SVG 1.1//EN" "http://www.w3.org/Graphics/SVG/1.1/DTD/svg11.dtd">
<svg version="1.1" id="图层_1" xmlns="http://www.w3.org/2000/svg" xmlns:xlink="http://www.w3.org/1999/xlink" x="0px" y="0px"
	 width="16px" height="16px" viewBox="0 0 16 16" enable-background="new 0 0 16 16" xml:space="preserve">
<g>
	<path fill="#6F7985" d="M5.713,4.571h4.572V3.429H5.713V4.571z M2.285,6.856h8V5.714h-8V6.856z M2.285,12.571v1.143H6.27
		c-0.119-0.365-0.193-0.746-0.225-1.143H2.285z M3.428-0.001l-3.289,3.43H0v12.57h7.807c-0.393-0.33-0.738-0.709-1.014-1.143h-5.65
		V4.571H4.57v-3.43h6.857v6.076c0.396,0.033,0.777,0.109,1.143,0.23v-7.449H3.428z M2.285,10.284v1.143h3.797
		c0.061-0.396,0.152-0.781,0.301-1.143H2.285z M8.271,7.999H2.285v1.143h4.775C7.402,8.7,7.803,8.308,8.271,7.999z"/>
	<g>
		<path fill="#6F7985" d="M13.472,11.48h-0.297v0.525h0.347c0.12,0,0.202-0.037,0.245-0.11c0.023-0.039,0.035-0.096,0.035-0.169
			c0-0.088-0.025-0.15-0.077-0.188C13.673,11.499,13.589,11.48,13.472,11.48z"/>
		<path fill="#6F7985" d="M11.722,11.48h-0.36v1.173h0.365c0.14,0,0.245-0.063,0.317-0.19c0.06-0.106,0.09-0.243,0.09-0.411
			c0-0.232-0.049-0.395-0.146-0.484C11.926,11.51,11.836,11.48,11.722,11.48z"/>
		<path fill="#6F7985" d="M11.012,8.366c-2.105,0-3.816,1.709-3.816,3.816s1.711,3.816,3.816,3.816c2.109,0,3.818-1.709,3.818-3.816
			S13.121,8.366,11.012,8.366z M9.206,12.963H7.939V11.17h0.375v1.468h0.892V12.963z M10.733,12.963H9.467V11.17h0.375v1.468h0.892
			V12.963z M12.366,12.636c-0.13,0.218-0.328,0.327-0.595,0.327h-0.777V11.17h0.792c0.271,0,0.468,0.101,0.593,0.3
			c0.092,0.146,0.138,0.331,0.138,0.555C12.517,12.266,12.466,12.47,12.366,12.636z M13.604,12.315h-0.43v0.647H12.8V11.17h0.819
			c0.174,0,0.31,0.052,0.409,0.154c0.099,0.102,0.148,0.242,0.148,0.42c0,0.126-0.035,0.242-0.104,0.347
			C13.972,12.24,13.816,12.315,13.604,12.315z"/>
	</g>
</g>
</svg>
