<?xml version="1.0" encoding="utf-8"?>
<!-- Generator: Adobe Illustrator 16.0.0, SVG Export Plug-In . SVG Version: 6.00 Build 0)  -->
<!DOCTYPE svg PUBLIC "-//W3C//DTD SVG 1.1//EN" "http://www.w3.org/Graphics/SVG/1.1/DTD/svg11.dtd">
<svg version="1.1" id="图层_1" xmlns="http://www.w3.org/2000/svg" xmlns:xlink="http://www.w3.org/1999/xlink" x="0px" y="0px"
	 width="16px" height="16px" viewBox="0 0 16 16" enable-background="new 0 0 16 16" xml:space="preserve">
<g>
	<g>
		<path fill="#FFFFFF" d="M11.305,14.135c-0.062,0-0.127-0.022-0.17-0.061L10.42,13.44c-0.016,0.003-0.033,0.003-0.049,0.003
			c-0.211,0-0.393-0.197-0.393-0.438c0-0.145,0.07-0.28,0.193-0.371l0.021-1.111c0.008-0.102,0.09-0.244,0.252-0.244
			c0.166,0,0.248,0.143,0.252,0.244l0.053,1.092c0.123,0.062,0.166,0.238,0.166,0.391l0.605,0.681
			c0.078,0.091,0.096,0.249-0.021,0.365C11.445,14.106,11.377,14.135,11.305,14.135z"/>
		<path fill="#FFFFFF" d="M6.447,12.943c0-1.818,1.226-3.339,2.889-3.824V0H0v16h7.898C7.019,15.266,6.447,14.176,6.447,12.943z
			 M1.333,1.334H8v1.599H1.333V1.334z M1.333,4.266H8v1.601H1.333V4.266z M1.333,7.201H8v1.598H1.333V7.201z M4.667,13.345
			c-0.552,0-1-0.448-1-1s0.448-1,1-1c0.553,0,1,0.448,1,1S5.22,13.345,4.667,13.345z"/>
		<path fill="#FFFFFF" d="M10.447,9.943c-1.659,0-3,1.344-3,3s1.342,3,3,3c1.656,0,3-1.344,3-3S12.104,9.943,10.447,9.943z
			 M10.811,15.098V15.05c0-0.199-0.164-0.362-0.363-0.362c-0.201,0-0.363,0.163-0.363,0.362v0.048
			c-0.918-0.154-1.638-0.875-1.792-1.791h0.048c0.199,0,0.362-0.164,0.362-0.363c0-0.201-0.163-0.363-0.362-0.363H8.292
			c0.154-0.918,0.875-1.639,1.792-1.793v0.049c0,0.199,0.162,0.361,0.363,0.361c0.199,0,0.363-0.162,0.363-0.361v-0.049
			c0.916,0.154,1.637,0.875,1.791,1.793h-0.049c-0.199,0-0.361,0.162-0.361,0.363c0,0.199,0.162,0.363,0.361,0.363h0.049
			C12.447,14.223,11.727,14.943,10.811,15.098z"/>
	</g>
</g>
</svg>
