<?xml version="1.0" encoding="utf-8"?>
<!-- Generator: Adobe Illustrator 16.0.0, SVG Export Plug-In . SVG Version: 6.00 Build 0)  -->
<!DOCTYPE svg PUBLIC "-//W3C//DTD SVG 1.1//EN" "http://www.w3.org/Graphics/SVG/1.1/DTD/svg11.dtd">
<svg version="1.1" id="图层_1" xmlns="http://www.w3.org/2000/svg" xmlns:xlink="http://www.w3.org/1999/xlink" x="0px" y="0px"
	 width="16px" height="16px" viewBox="0 0 16 16" enable-background="new 0 0 16 16" xml:space="preserve">
<g>
	<g>
		<path fill="#6F7985" d="M13.938,9.553c0.148,0.291,0.241,0.615,0.241,0.961c0,0.799-0.442,1.484-1.091,1.848
			c0.395-0.324,0.667-0.775,0.75-1.299c0.021-0.111,0.035-0.221,0.035-0.34c0-0.232-0.047-0.455-0.116-0.66
			c-0.007-0.018-0.011-0.041-0.02-0.061c0-0.002,0-0.002,0-0.002c-0.019-0.049-0.034-0.098-0.056-0.15l-0.001-0.002
			c-0.038-0.08-0.082-0.16-0.129-0.236c-0.375-0.609-1.042-1.016-1.808-1.016c-0.13,0-0.251,0.017-0.373,0.036
			c0.135,0.431,0.17,0.929-0.003,1.468c-0.023,0.074-0.037,0.111-0.054,0.15l-0.026,0.068c0.235,0.307,0.383,0.688,0.383,1.107
			c0,0.205-0.044,0.406-0.108,0.594c0.002-0.035,0.014-0.076,0.014-0.113c0-0.299-0.082-0.58-0.21-0.832
			c-0.01-0.02-0.021-0.039-0.03-0.055c-0.061-0.102-0.132-0.203-0.21-0.295l-0.224,0.568l-0.504-0.998
			c-0.006-0.008-0.027-0.049-0.061-0.109c-0.184-0.064-0.382-0.104-0.588-0.104c-0.111,0-0.565,0.102-0.565,0.102
			c-0.729,0.238-1.26,0.914-1.26,1.723c0,0.988,0.79,1.787,1.771,1.824v0.004h4.288v-0.012C15.103,13.686,16,12.77,16,11.641
			C16,10.498,15.078,9.568,13.938,9.553z"/>
		<path fill="#6F7985" d="M7.925,7.475L9.217,9.34L9.458,8.8c0.575-0.021,1.085,0.733,1.29,1.086
			c0.063,0.109,0.098,0.178,0.098,0.178c0.017-0.037,0.029-0.078,0.044-0.115c0.462-1.453-0.881-2.391-0.881-2.391l0.166-0.372
			L7.925,7.475z"/>
	</g>
	<polygon fill="#6F7985" points="2.518,13.734 0,2.266 2.889,2.266 4.25,11.129 4.283,11.129 5.668,2.266 8.555,2.266 5.955,13.734 
			"/>
</g>
</svg>
