<?xml version="1.0" encoding="utf-8"?>
<!-- Generator: Adobe Illustrator 16.0.0, SVG Export Plug-In . SVG Version: 6.00 Build 0)  -->
<!DOCTYPE svg PUBLIC "-//W3C//DTD SVG 1.1//EN" "http://www.w3.org/Graphics/SVG/1.1/DTD/svg11.dtd">
<svg version="1.1" id="图层_1" xmlns="http://www.w3.org/2000/svg" xmlns:xlink="http://www.w3.org/1999/xlink" x="0px" y="0px"
	 width="16px" height="16px" viewBox="0 0 16 16" enable-background="new 0 0 16 16" xml:space="preserve">
<path fill="#6F7985" d="M8.3,0.055L7.965,0L1.557,1.289l0.002,7.759c0,0,0.002,0.23,0.057,0.526
	c0.402,2.963,3.221,4.845,4.893,5.717L8.001,16l1.55-0.735c1.633-0.854,4.432-2.727,4.824-5.626
	c0.066-0.365,0.066-0.594,0.068-0.635V1.289L8.3,0.055z M13.652,9.004c0,0.021-0.002,0.205-0.055,0.496
	c-0.35,2.573-2.916,4.279-4.414,5.065l-1.183,0.561l-1.153-0.547c-1.528-0.799-4.096-2.505-4.449-5.11
	C2.352,9.211,2.348,9.029,2.348,9.029V1.934l5.623-1.129l0.025,0.004l0.008-0.003l0.172,0.03l5.477,1.098V9.004z M8.001,1.613
	L7.98,1.608L3.137,2.583v6.421c0,0,0.005,0.137,0.045,0.358c0.307,2.271,2.709,3.825,4.003,4.504l0.816,0.386l0.815-0.386
	c1.295-0.679,3.695-2.232,4.004-4.504c0.039-0.222,0.043-0.358,0.043-0.358V2.583L8.02,1.608L8.001,1.613z M11.576,6.108
	L9.809,7.872l0.451,2.457L8.035,9.192L5.839,10.38l0.394-2.466L4.424,6.191l2.467-0.387l1.08-2.253l1.131,2.227L11.576,6.108z"/>
</svg>
