<?xml version="1.0" encoding="utf-8"?>
<!-- Generator: Adobe Illustrator 16.0.0, SVG Export Plug-In . SVG Version: 6.00 Build 0)  -->
<!DOCTYPE svg PUBLIC "-//W3C//DTD SVG 1.1//EN" "http://www.w3.org/Graphics/SVG/1.1/DTD/svg11.dtd">
<svg version="1.1" id="图层_1" xmlns="http://www.w3.org/2000/svg" xmlns:xlink="http://www.w3.org/1999/xlink" x="0px" y="0px"
	 width="16px" height="16px" viewBox="0 0 16 16" enable-background="new 0 0 16 16" xml:space="preserve">
<g>
	<path fill="#6F7985" d="M15,2h-3.5C11.25,0.999,11,0,10,0H6C5,0,4.75,0.999,4.5,2H1C0.451,2,0,2.448,0,2.999v8.999
		c0,0.552,0.451,1.001,1,1.001h14c0.551,0,1-0.449,1-1.001V2.999C16,2.448,15.551,2,15,2z M8,11.938
		c-2.451,0-4.437-1.986-4.437-4.438c0-2.452,1.986-4.438,4.437-4.438c2.452,0,4.438,1.986,4.438,4.438
		C12.438,9.951,10.451,11.938,8,11.938z M15,4.999h-2V4h2V4.999z"/>
	<polygon fill="#6F7985" points="8.005,9.475 7.984,9.475 7.05,4.956 5.077,4.956 6.797,10.804 9.145,10.804 10.922,4.956 
		8.947,4.956 	"/>
</g>
</svg>
