<?xml version="1.0" encoding="utf-8"?>
<!-- Generator: Adobe Illustrator 19.2.1, SVG Export Plug-In . SVG Version: 6.00 Build 0)  -->
<svg version="1.1" id="图层_1" xmlns="http://www.w3.org/2000/svg" xmlns:xlink="http://www.w3.org/1999/xlink" x="0px" y="0px" width="16px" height="16px" 
	 viewBox="0 0 16 16" style="enable-background:new 0 0 16 16;" xml:space="preserve">
<g>
	<path fill="#6F7985" d="M0.7,5.1L2.6,5c1-1.9,2.9-3.2,5.2-3.3c3.4-0.1,6.2,2.5,6.4,5.9s-2.5,6.2-5.9,6.4c-1.4,0.1-2.7-0.3-3.7-1.1l1.8-1.9l-6.1-1
		l1.5,6l1.8-1.9c1.4,1,3.1,1.6,4.9,1.5c4.3-0.2,7.6-3.8,7.5-8.1C15.6,3.2,12-0.2,7.7,0C4.4,0.1,1.8,2.2,0.7,5.1z"/>
</g>
</svg>
