<?xml version="1.0" encoding="utf-8"?>
<!-- Generator: Adobe Illustrator 16.0.0, SVG Export Plug-In . SVG Version: 6.00 Build 0)  -->
<!DOCTYPE svg PUBLIC "-//W3C//DTD SVG 1.1//EN" "http://www.w3.org/Graphics/SVG/1.1/DTD/svg11.dtd">
<svg version="1.1" id="图层_1" xmlns="http://www.w3.org/2000/svg" xmlns:xlink="http://www.w3.org/1999/xlink" x="0px" y="0px"
	 width="16px" height="16px" viewBox="0 0 16 16" enable-background="new 0 0 16 16" xml:space="preserve">
<g>
	<path fill="#6F7985" d="M13.516,0.809l2.326,2.597c0.262,0.271,0.189,0.606-0.16,0.745l-3.176,1.415
		c-0.35,0.141-0.574-0.032-0.5-0.383l0.23-1.087C10.266,3.578,8.991,4.008,8.07,5.354c0.232-1.994,1.889-3.488,4.598-3.281
		l0.238-1.122C12.98,0.603,13.256,0.539,13.516,0.809z"/>
	<path fill-rule="evenodd" clip-rule="evenodd" fill="#6F7985" d="M3.497,6.803c-0.82,0-1.599,0.671-1.729,1.491L0.65,15.358h12.268
		l1.117-7.064c0.131-0.82-0.436-1.491-1.256-1.491H3.497z"/>
	<g>
		<path fill-rule="evenodd" clip-rule="evenodd" fill="#6F7985" d="M6.618,4.715H5.457c-0.1-0.671-0.305-1.118-1.093-1.118H1.045
			C0.471,3.597,0,4.101,0,4.715v7.56l0.828-5.233C0.958,6.221,1.737,5.55,2.557,5.55h4.107L6.618,4.715z"/>
	</g>
</g>
</svg>
