<?xml version="1.0" encoding="utf-8"?>
<!-- Generator: Adobe Illustrator 16.0.0, SVG Export Plug-In . SVG Version: 6.00 Build 0)  -->
<!DOCTYPE svg PUBLIC "-//W3C//DTD SVG 1.1//EN" "http://www.w3.org/Graphics/SVG/1.1/DTD/svg11.dtd">
<svg version="1.1" id="图层_1" xmlns="http://www.w3.org/2000/svg" xmlns:xlink="http://www.w3.org/1999/xlink" x="0px" y="0px"
	 width="16px" height="16px" viewBox="0 0 16 16" enable-background="new 0 0 16 16" xml:space="preserve">
<g>
	<path fill="#6F7985" d="M5.882,10.313l0.109-0.071c-0.807-0.069-1.442-0.739-1.442-1.565c0-0.872,0.706-1.579,1.577-1.579
		c0.872,0,1.579,0.707,1.579,1.579c0,0.179-0.036,0.348-0.091,0.508l0.86-0.561l1.189,1.898c0.291-0.555,0.471-1.177,0.471-1.846
		c0-2.213-1.793-4.008-4.008-4.008c-2.213,0-4.008,1.795-4.008,4.008s1.795,4.008,4.008,4.008c0.413,0,0.803-0.08,1.178-0.196
		L5.882,10.313z M8.155,5.708C8.526,5.962,8.847,6.285,9.1,6.655L7.808,7.536C7.665,7.325,7.484,7.145,7.275,7.001L8.155,5.708z
		 M4.106,11.651c-0.372-0.253-0.693-0.576-0.947-0.946L4.45,9.824c0.145,0.209,0.327,0.394,0.537,0.535L4.106,11.651z"/>
	<path fill="#6F7985" d="M9.127,1v1h2v8.152l1,0.595V1H9.127z M2.126,4h8V3h-2V0h-4v3h-2V4z M5.626,1h1v1h-1V1z M1.126,15V2h2V1h-3
		v15h11.528c-0.262-0.289-0.463-0.626-0.596-1H1.126z"/>
	<path fill="#6F7985" d="M13.873,11.999c-1.104,0-2,0.896-2,2c0,1.105,0.896,2.001,2,2.001c1.105,0,2-0.896,2-2.001
		C15.873,12.895,14.979,11.999,13.873,11.999z M14.244,15.27h-0.762l-0.557-2.541h0.639l0.303,1.964h0.008l0.305-1.964h0.643
		L14.244,15.27z"/>
	<path fill="#6F7985" d="M9.658,12.396l-1.49-2.378l-0.901,0.587l2.161,3.307l1.682-1.442l0.148,0.089
		c0.166-0.298,0.375-0.564,0.629-0.789l-0.883-0.526L9.658,12.396z"/>
</g>
</svg>
