<?xml version="1.0" encoding="utf-8"?>
<!-- Generator: Adobe Illustrator 16.0.0, SVG Export Plug-In . SVG Version: 6.00 Build 0)  -->
<!DOCTYPE svg PUBLIC "-//W3C//DTD SVG 1.1//EN" "http://www.w3.org/Graphics/SVG/1.1/DTD/svg11.dtd">
<svg version="1.1" id="图层_1" xmlns="http://www.w3.org/2000/svg" xmlns:xlink="http://www.w3.org/1999/xlink" x="0px" y="0px"
	 width="16px" height="16px" viewBox="0 0 16 16" enable-background="new 0 0 16 16" xml:space="preserve">
<g>
	<path fill="#6F7985" d="M14.153,3.391h-0.207V3.052c0-0.377-0.308-0.685-0.685-0.685h-1.369c-0.377,0-0.684,0.308-0.684,0.685
		v0.339H1.846C0.826,3.391,0,4.217,0,5.237v6.154c0,1.02,0.826,1.846,1.846,1.846h8.144C9.381,12.535,9,11.631,9,10.631
		c0-2.205,1.795-3.998,4-3.998c1.2,0,2.266,0.542,3,1.382V5.237C16,4.217,15.174,3.391,14.153,3.391z M5.539,12.043
		c-2.059,0-3.729-1.67-3.729-3.729c0-2.06,1.67-3.729,3.729-3.729c2.058,0,3.728,1.67,3.728,3.729
		C9.267,10.373,7.597,12.043,5.539,12.043z"/>
	<path fill="#6F7985" d="M13,7.633c-1.655,0-3,1.342-3,2.998c0,1.658,1.345,3.002,3,3.002c1.656,0,3-1.344,3-3.002
		C16,8.975,14.656,7.633,13,7.633z M14.783,11.162h-1.24v1.209h-1.088v-1.209h-1.238v-1.059h1.238V8.895h1.088v1.208h1.24V11.162z"
		/>
	<path fill="#6F7985" d="M5.539,5.815c-1.297,0-2.347,1.051-2.347,2.346c0,1.296,1.05,2.347,2.347,2.347
		c1.295,0,2.346-1.051,2.346-2.347C7.885,6.866,6.834,5.815,5.539,5.815z M6.016,9.795H5.037L4.32,6.526h0.824l0.389,2.529h0.008
		l0.395-2.529h0.822L6.016,9.795z"/>
</g>
</svg>
