<?xml version="1.0" encoding="utf-8"?>
<!-- Generator: Adobe Illustrator 16.0.0, SVG Export Plug-In . SVG Version: 6.00 Build 0)  -->
<!DOCTYPE svg PUBLIC "-//W3C//DTD SVG 1.1//EN" "http://www.w3.org/Graphics/SVG/1.1/DTD/svg11.dtd">
<svg version="1.1" id="图层_1" xmlns="http://www.w3.org/2000/svg" xmlns:xlink="http://www.w3.org/1999/xlink" x="0px" y="0px"
	 width="16px" height="16px" viewBox="0 0 16 16" enable-background="new 0 0 16 16" xml:space="preserve">
<g>
	<path fill="#F74848" d="M11.032,11.713l2.485,4.092L16,11.713h-0.851c0,0-0.71-3.57-4.117-3.759c0,0,1.94,2.339,1.23,3.759H11.032z
		"/>
	<path fill="#6F7985" d="M9.3,10.737L8.729,9.955L8.668,9.796c0.315-0.35,0.741-0.895,1.124-1.574l0.004,0.002
		c0.366-0.564,0.573-1.284,0.573-1.284c0.134-0.398,0.237-0.821,0.288-1.27c0.194-1.665-0.229-3.232-1.166-4.289
		C8.822,0.622,7.94,0.2,6.909,0.195C5.892,0.2,5.011,0.592,4.363,1.321c-0.88,0.992-1.271,2.58-1.069,4.364
		c0.208,1.769,1.018,3.24,1.776,4.109v0.184c-0.68,0.296-4.205,1.893-4.691,3.161c-0.345,0.895-0.366,1.9-0.368,1.938L0,15.805
		h12.376L9.3,10.737z"/>
</g>
</svg>
