<?xml version="1.0" encoding="utf-8"?>
<!-- Generator: Adobe Illustrator 16.0.0, SVG Export Plug-In . SVG Version: 6.00 Build 0)  -->
<!DOCTYPE svg PUBLIC "-//W3C//DTD SVG 1.1//EN" "http://www.w3.org/Graphics/SVG/1.1/DTD/svg11.dtd">
<svg version="1.1" id="图层_1" xmlns="http://www.w3.org/2000/svg" xmlns:xlink="http://www.w3.org/1999/xlink" x="0px" y="0px"
	 width="16px" height="16px" viewBox="0 0 16 16" enable-background="new 0 0 16 16" xml:space="preserve">
<g>
	<path fill="#6F7985" d="M13.804,11.798h-0.782V9.646h0.782V11.798z M15.891,10.877v4.199c0,0.51-0.35,0.924-0.781,0.924H9.893
		c-0.434,0-0.783-0.414-0.783-0.924V9.953c0-0.51,0.35-0.924,0.783-0.924h4.434c0.217,0,0.336,0.013,0.945,0.731
		S15.891,10.62,15.891,10.877z M10.413,11.798c0,0.171,0.118,0.309,0.261,0.309h3.392c0.144,0,0.261-0.138,0.261-0.309V9.646
		c0-0.17-0.117-0.311-0.261-0.311h-3.392c-0.143,0-0.261,0.141-0.261,0.311V11.798z M15.109,13.338c0-0.171-0.117-0.31-0.262-0.31
		h-4.695c-0.145,0-0.26,0.139-0.26,0.31v2.045c0,0.171,0.115,0.309,0.26,0.309h4.695c0.145,0,0.262-0.138,0.262-0.309V13.338z"/>
	<g>
		<path fill="#6F7985" d="M8.375,12.425V9.01V8.007V6.302V6.062h1.439c0.588-0.031,1.062-0.476,1.062-1.089v-3.84
			C10.876,0.511,10.372,0,9.757,0H5.991C5.373,0,4.873,0.511,4.873,1.134v3.84c0,0.551,0.387,0.983,0.895,1.089h1.605v1.944H4.378
			V7.159c0-0.444-0.358-0.807-0.796-0.807H0.904c-0.439,0-0.796,0.362-0.796,0.807v2.73c0,0.392,0.276,0.699,0.636,0.774h0.998
			v1.761H1.133c-0.364,0-0.66,0.301-0.66,0.67v2.263c0,0.325,0.229,0.58,0.527,0.643h2.388c0.347-0.019,0.626-0.28,0.626-0.643
			v-2.263c0-0.369-0.297-0.67-0.66-0.67H2.744v-1.761h0.879c0.418-0.022,0.755-0.339,0.755-0.774V9.01h2.995v3.415H6.764
			c-0.364,0-0.66,0.301-0.66,0.67v2.263c0,0.325,0.229,0.58,0.527,0.643h1.744V12.425z"/>
	</g>
</g>
</svg>
