<?xml version="1.0" encoding="utf-8"?>
<!-- Generator: Adobe Illustrator 16.0.0, SVG Export Plug-In . SVG Version: 6.00 Build 0)  -->
<!DOCTYPE svg PUBLIC "-//W3C//DTD SVG 1.1//EN" "http://www.w3.org/Graphics/SVG/1.1/DTD/svg11.dtd">
<svg version="1.1" id="图层_1" xmlns="http://www.w3.org/2000/svg" xmlns:xlink="http://www.w3.org/1999/xlink" x="0px" y="0px"
	 width="15px" height="16px" viewBox="0 0 15 16" enable-background="new 0 0 15 16" xml:space="preserve">
<g>
	<g>
		<path fill="#6F7985" d="M5.603,10.624c0-0.789,0.643-1.433,1.433-1.433h1.08c0.003-0.006,0.008-0.011,0.01-0.017V0H0v13.952h5.603
			V10.624z M1.058,2.453h2.057l0.973,4.708h0.021l0.983-4.708H7.15L5.298,8.546H2.852L1.058,2.453z M4.062,12.369
			c-0.493,0-0.895-0.4-0.895-0.895s0.402-0.895,0.895-0.895c0.496,0,0.895,0.4,0.895,0.895S4.557,12.369,4.062,12.369z"/>
	</g>
	<path fill="#6F7985" d="M6.546,10.139V16h7.468v-5.861H6.546z M11.717,10.713h0.574v0.576h-0.574V10.713z M10.567,10.713h0.575
		v0.576h-0.575V10.713z M13.439,15.426H7.121v-3.564h6.318V15.426z M13.439,11.289h-0.575v-0.576h0.575V11.289z"/>
	<path fill="#6F7985" d="M10.764,8.348l0.546-1.064l0.546-1.062l0.326,0.521c0.246-0.499,0.329-1.077,0.21-1.653
		c-0.258-1.215-1.367-2.064-2.579-1.98C9.588,3.124,9.395,2.953,9.382,2.727C9.365,2.498,9.533,2.304,9.758,2.288
		c1.608-0.116,3.08,1.015,3.422,2.626c0.195,0.93-0.004,1.863-0.514,2.607l0.449,0.725l-1.174,0.051L10.764,8.348z"/>
</g>
</svg>
