<?xml version="1.0" encoding="utf-8"?>
<!-- Generator: Adobe Illustrator 16.0.0, SVG Export Plug-In . SVG Version: 6.00 Build 0)  -->
<!DOCTYPE svg PUBLIC "-//W3C//DTD SVG 1.1//EN" "http://www.w3.org/Graphics/SVG/1.1/DTD/svg11.dtd">
<svg version="1.1" id="图层_1" xmlns="http://www.w3.org/2000/svg" xmlns:xlink="http://www.w3.org/1999/xlink" x="0px" y="0px"
	 width="16px" height="16px" viewBox="0 0 16 16" enable-background="new 0 0 16 16" xml:space="preserve">
<path fill="#6F7985" d="M11.998,6.629c0-0.189-0.07-0.315-0.306-0.315h-0.179v0.643h0.182C11.935,6.956,11.998,6.777,11.998,6.629z
	 M9.722,6.355L9.515,7.472h0.429L9.729,6.355H9.722z M13.438,10.213c-1.417,0-2.562,1.146-2.562,2.562
	c0,1.414,1.146,2.562,2.562,2.562c1.414,0,2.562-1.148,2.562-2.562C16,11.358,14.852,10.213,13.438,10.213z M14.855,13.197h-0.986
	v0.964h-0.864v-0.964h-0.987v-0.844h0.987v-0.965h0.864v0.965h0.986V13.197z M13.438,9.213c0.512,0,0.995,0.112,1.436,0.308
	c1.519-1.625,1.498-4.167-0.088-5.753c-0.995-0.995-2.371-1.374-3.66-1.143c-0.163-0.257-0.352-0.504-0.574-0.728
	c-1.648-1.647-4.319-1.647-5.968,0c-0.497,0.498-0.837,1.09-1.032,1.717C1.584,3.649,0,5.249,0,7.225
	c0,1.963,1.562,3.549,3.51,3.605v0.01h6.943C11.09,9.863,12.187,9.213,13.438,9.213z M12.939,5.899h1.449v0.478h-0.859v0.502h0.807
	v0.477h-0.807v0.572h0.898v0.478h-1.488V5.899z M2.682,8.405h-0.75L1.38,5.899h0.632l0.299,1.938h0.006l0.303-1.938H3.25
	L2.682,8.405z M5.789,8.405H5.242V6.454H5.235L4.853,8.405H4.396L3.992,6.454H3.986v1.951H3.459V5.899h0.863l0.309,1.646h0.008
	l0.299-1.646h0.852V8.405z M8.267,8.405H7.613L7.357,6.626H7.351L7.108,8.405H6.455L6.014,5.899h0.59L6.82,7.682h0.008l0.259-1.782
	h0.548l0.281,1.782h0.006l0.211-1.782h0.568L8.267,8.405z M10.122,8.405l-0.091-0.478H9.431L9.343,8.405h-0.61l0.639-2.506h0.736
	l0.625,2.506H10.122z M10.924,5.899h0.99c0.501,0,0.674,0.31,0.674,0.653c0,0.365-0.148,0.543-0.422,0.61V7.17
	c0.375,0.053,0.396,0.287,0.404,0.625c0.01,0.494,0.027,0.543,0.111,0.578v0.032h-0.635c-0.046-0.085-0.063-0.225-0.063-0.509
	c0-0.436-0.06-0.526-0.245-0.526h-0.225v1.035h-0.59V5.899z"/>
</svg>
