<?xml version="1.0" encoding="utf-8"?>
<!-- Generator: Adobe Illustrator 16.0.0, SVG Export Plug-In . SVG Version: 6.00 Build 0)  -->
<!DOCTYPE svg PUBLIC "-//W3C//DTD SVG 1.1//EN" "http://www.w3.org/Graphics/SVG/1.1/DTD/svg11.dtd">
<svg version="1.1" id="图层_1" xmlns="http://www.w3.org/2000/svg" xmlns:xlink="http://www.w3.org/1999/xlink" x="0px" y="0px"
	 width="32px" height="32px" viewBox="0 0 16 16" enable-background="new 0 0 16 16" xml:space="preserve">
<g>
	<path fill="#6F7985" d="M5.299,13.076c0-1.811,1.387-3.285,3.15-3.461v-9.616H0v14.485h5.6C5.408,14.053,5.299,13.578,5.299,13.076
		z M1.205,1.206h6.036v1.449H1.205V1.206z M1.205,3.862h6.036V5.31H1.205V3.862z M1.205,6.518h6.036v1.448H1.205V6.518z
		 M4.224,12.609c-0.501,0-0.906-0.406-0.906-0.908c0-0.498,0.405-0.904,0.906-0.904s0.905,0.406,0.905,0.904
		C5.129,12.203,4.725,12.609,4.224,12.609z"/>
	<path fill="#6F7985" d="M8.795,10.154c-1.611,0-2.923,1.311-2.923,2.922S7.184,16,8.795,16c1.612,0,2.923-1.312,2.923-2.924
		S10.407,10.154,8.795,10.154z M8.795,15.512c-0.226,0-0.517-0.432-0.686-1.158c0.227,0.023,0.457,0.037,0.686,0.037
		c0.229,0,0.46-0.014,0.688-0.037C9.312,15.08,9.021,15.512,8.795,15.512z M8.795,13.904c-0.28,0-0.534-0.023-0.773-0.053
		c-0.031-0.24-0.053-0.494-0.053-0.775s0.021-0.535,0.053-0.775c0.239-0.029,0.493-0.053,0.773-0.053
		c0.281,0,0.535,0.023,0.776,0.053c0.029,0.24,0.052,0.494,0.052,0.775s-0.022,0.535-0.052,0.775
		C9.33,13.881,9.076,13.904,8.795,13.904z M7.519,13.762c-0.728-0.168-1.159-0.459-1.159-0.686s0.432-0.518,1.159-0.686
		c-0.024,0.225-0.038,0.457-0.038,0.686S7.494,13.537,7.519,13.762z M8.795,10.641c0.227,0,0.517,0.432,0.688,1.158
		c-0.228-0.023-0.458-0.037-0.688-0.037c-0.229,0-0.459,0.014-0.686,0.037C8.278,11.072,8.569,10.641,8.795,10.641z M10.073,12.391
		c0.726,0.168,1.157,0.459,1.157,0.686s-0.432,0.518-1.157,0.686c0.023-0.225,0.037-0.457,0.037-0.686S10.097,12.615,10.073,12.391z
		 M11.071,12.232c-0.294-0.158-0.666-0.279-1.074-0.357c-0.079-0.408-0.199-0.781-0.359-1.076
		C10.302,11.045,10.825,11.57,11.071,12.232z M7.952,10.799c-0.159,0.295-0.279,0.668-0.357,1.076
		c-0.409,0.078-0.781,0.199-1.075,0.357C6.766,11.57,7.289,11.045,7.952,10.799z M6.52,13.92c0.294,0.16,0.666,0.279,1.075,0.357
		c0.079,0.408,0.198,0.781,0.357,1.076C7.289,15.107,6.766,14.582,6.52,13.92z M9.638,15.354c0.16-0.295,0.28-0.668,0.359-1.076
		c0.408-0.078,0.78-0.197,1.074-0.357C10.825,14.582,10.302,15.107,9.638,15.354z"/>
</g>
</svg>
