<?xml version="1.0" encoding="utf-8"?>
<!-- Generator: Adobe Illustrator 16.0.0, SVG Export Plug-In . SVG Version: 6.00 Build 0)  -->
<!DOCTYPE svg PUBLIC "-//W3C//DTD SVG 1.1//EN" "http://www.w3.org/Graphics/SVG/1.1/DTD/svg11.dtd">
<svg version="1.1" id="图层_1" xmlns="http://www.w3.org/2000/svg" xmlns:xlink="http://www.w3.org/1999/xlink" x="0px" y="0px"
	 width="16px" height="16px" viewBox="0 0 16 16" enable-background="new 0 0 16 16" xml:space="preserve">
<g>
	<path fill="#6F7985" d="M7.911,14.98c-3.85,0-6.98-3.131-6.98-6.981c0-3.849,3.131-6.979,6.98-6.979
		c2.457,0,4.73,1.327,5.981,3.413l-1.549-0.424L15.356,8L16,3.041l-1.168,1.167c-1.38-2.508-4.041-4.118-6.921-4.118
		C3.549,0.089,0,3.639,0,8c0,4.362,3.549,7.911,7.911,7.911c4.127,0,7.515-3.096,7.879-7.203l-0.927-0.082
		C14.546,12.189,11.493,14.98,7.911,14.98z"/>
	<g>
		<path fill="#6F7985" d="M9.51,12.234H5.863v-1.057H4.75v-1.004H3.359V4.859h8.653v5.314h-1.391v1.004H9.51V12.234z"/>
	</g>
</g>
</svg>
