<?xml version="1.0" encoding="utf-8"?>
<!-- Generator: Adobe Illustrator 16.0.0, SVG Export Plug-In . SVG Version: 6.00 Build 0)  -->
<!DOCTYPE svg PUBLIC "-//W3C//DTD SVG 1.1//EN" "http://www.w3.org/Graphics/SVG/1.1/DTD/svg11.dtd">
<svg version="1.1" id="图层_1" xmlns="http://www.w3.org/2000/svg" xmlns:xlink="http://www.w3.org/1999/xlink" x="0px" y="0px"
	 width="16px" height="16px" viewBox="0 0 16 16" enable-background="new 0 0 16 16" xml:space="preserve">
<g>
	<path fill="#6F7985" d="M12.604,7.922c-1.873,0-3.395,1.523-3.395,3.395c0,1.872,1.521,3.396,3.395,3.396S16,13.188,16,11.316
		C16,9.445,14.478,7.922,12.604,7.922z M12.604,14.146c-0.262,0-0.601-0.502-0.797-1.346c0.264,0.027,0.531,0.042,0.797,0.042
		c0.267,0,0.533-0.015,0.798-0.042C13.205,13.645,12.867,14.146,12.604,14.146z M12.604,12.278c-0.326,0-0.62-0.027-0.9-0.062
		c-0.035-0.279-0.06-0.574-0.06-0.9s0.024-0.623,0.06-0.9c0.28-0.034,0.574-0.062,0.9-0.062c0.327,0,0.622,0.027,0.9,0.062
		c0.035,0.277,0.062,0.574,0.062,0.9s-0.026,0.621-0.062,0.9C13.227,12.251,12.932,12.278,12.604,12.278z M11.121,12.114
		c-0.845-0.196-1.346-0.534-1.346-0.798c0-0.263,0.501-0.602,1.346-0.797c-0.027,0.263-0.043,0.531-0.043,0.797
		C11.078,11.583,11.094,11.852,11.121,12.114z M12.604,8.487c0.263,0,0.601,0.502,0.798,1.345c-0.265-0.026-0.531-0.043-0.798-0.043
		c-0.266,0-0.533,0.017-0.797,0.043C12.004,8.989,12.343,8.487,12.604,8.487z M14.09,10.52c0.843,0.195,1.345,0.534,1.345,0.797
		c0,0.264-0.502,0.602-1.345,0.798c0.027-0.263,0.044-0.531,0.044-0.798C14.134,11.051,14.117,10.782,14.09,10.52z M15.249,10.338
		c-0.342-0.187-0.774-0.326-1.248-0.416c-0.092-0.475-0.231-0.908-0.417-1.251C14.354,8.957,14.963,9.566,15.249,10.338z
		 M11.626,8.671c-0.186,0.343-0.325,0.776-0.417,1.251c-0.475,0.09-0.907,0.229-1.248,0.416C10.248,9.566,10.855,8.957,11.626,8.671
		z M9.961,12.297c0.341,0.185,0.773,0.324,1.248,0.415c0.092,0.474,0.231,0.907,0.417,1.25
		C10.855,13.675,10.248,13.066,9.961,12.297z M13.584,13.962c0.186-0.343,0.325-0.776,0.417-1.25
		c0.474-0.091,0.906-0.23,1.248-0.415C14.963,13.066,14.354,13.675,13.584,13.962z"/>
	<path fill="#6F7985" d="M6.435-0.001C2.88-0.001,0,1.281,0,2.863s2.88,2.864,6.435,2.864s6.436-1.282,6.436-2.864
		S9.989-0.001,6.435-0.001z"/>
	<g>
		<path fill="#6F7985" d="M12.87,7.034c0-0.134,0-0.259,0-0.409c0,0.137-0.029,0.27-0.071,0.402
			C12.823,7.027,12.846,7.033,12.87,7.034z"/>
		<path fill="#6F7985" d="M8.383,11.349c0-0.761,0.213-1.464,0.557-2.085C8.17,9.408,7.323,9.489,6.435,9.489
			C2.88,9.489,0,8.207,0,6.625c0,0.661,0,1.102,0,2.189c0,1.583,2.88,2.864,6.435,2.864c0.688,0,1.348-0.05,1.968-0.138
			C8.399,11.476,8.383,11.415,8.383,11.349z"/>
	</g>
	<path fill="#6F7985" d="M8.499,12.312c-0.648,0.098-1.342,0.153-2.064,0.153C2.88,12.465,0,11.183,0,9.601c0,0.661,0,1.103,0,2.189
		c0,1.583,2.88,2.864,6.435,2.864c1.134,0,2.196-0.131,3.121-0.359C9.044,13.746,8.672,13.068,8.499,12.312z"/>
	<path fill="#6F7985" d="M12.244,7.065c0.396-0.372,0.626-0.787,0.626-1.227c0-0.581,0-1.188,0-2.19
		c0,1.584-2.881,2.864-6.436,2.864S0,5.232,0,3.648c0,0.661,0,1.103,0,2.19c0,1.583,2.88,2.864,6.435,2.864
		c1.159,0,2.244-0.139,3.184-0.376C10.3,7.627,11.22,7.178,12.244,7.065z"/>
</g>
</svg>
