<?xml version="1.0" encoding="utf-8"?>
<!-- Generator: Adobe Illustrator 16.0.0, SVG Export Plug-In . SVG Version: 6.00 Build 0)  -->
<!DOCTYPE svg PUBLIC "-//W3C//DTD SVG 1.1//EN" "http://www.w3.org/Graphics/SVG/1.1/DTD/svg11.dtd">
<svg version="1.1" id="图层_1" xmlns="http://www.w3.org/2000/svg" xmlns:xlink="http://www.w3.org/1999/xlink" x="0px" y="0px"
	 width="16px" height="16px" viewBox="0 0 16 16" enable-background="new 0 0 16 16" xml:space="preserve">
<g>
	
	<g>
		<path fill="#6F7985" d="M0.192,0.399C0.192,0.18,0.372,0,0.592,0h11.057c0.22,0,0.399,0.18,0.399,0.399v3.972
			c0,0.22-0.18,0.399-0.399,0.399h-1.609c-0.22,0-0.399-0.18-0.399-0.399V2.64c0-0.22-0.18-0.399-0.399-0.399H2.953
			c-0.22,0-0.399,0.18-0.399,0.399v10.745c0,0.22,0.18,0.399,0.399,0.399H9.19c0.22,0,0.399-0.18,0.399-0.399v-1.66
			c0-0.22,0.18-0.399,0.399-0.399h1.611c0.22,0,0.399,0.18,0.399,0.399v3.876C12,15.82,11.82,16,11.601,16H0.592
			c-0.22,0-0.399-0.18-0.399-0.399V0.399z"/>
	</g>
	<path fill="#6F7985" d="M8.191,10.848L3.5,8l4.691-2.848v0.976c0,0,4.094,0.814,4.311"/>
	<rect x="6.507" y="7.085" fill="#6F7985" width="6.986" height="2.072"/>
	
</g>
</svg>
