<?xml version="1.0" encoding="utf-8"?>
<!-- Generator: Adobe Illustrator 16.0.0, SVG Export Plug-In . SVG Version: 6.00 Build 0)  -->
<!DOCTYPE svg PUBLIC "-//W3C//DTD SVG 1.1//EN" "http://www.w3.org/Graphics/SVG/1.1/DTD/svg11.dtd">
<svg version="1.1" id="图层_1" xmlns="http://www.w3.org/2000/svg" xmlns:xlink="http://www.w3.org/1999/xlink" x="0px" y="0px"
	 width="16px" height="16px" viewBox="0 0 16 16" enable-background="new 0 0 16 16" xml:space="preserve">
<g>
	<path fill="#6F7985" d="M12.228,7.978c-2.08,0-3.771,1.693-3.771,3.772s1.691,3.771,3.771,3.771S16,13.829,16,11.75
		S14.308,7.978,12.228,7.978z M12.228,8.608c0.291,0,0.667,0.557,0.886,1.493c-0.293-0.031-0.59-0.048-0.886-0.048
		c-0.295,0-0.593,0.017-0.886,0.048C11.561,9.165,11.937,8.608,12.228,8.608z M9.085,11.75c0-0.293,0.557-0.667,1.494-0.886
		c-0.03,0.293-0.048,0.591-0.048,0.886s0.018,0.595,0.048,0.886C9.642,12.417,9.085,12.043,9.085,11.75z M9.289,12.838
		c0.382,0.207,0.861,0.362,1.388,0.464c0.104,0.524,0.258,1.006,0.464,1.386C10.283,14.37,9.608,13.694,9.289,12.838z
		 M10.677,10.199c-0.526,0.101-1.006,0.256-1.388,0.462c0.319-0.855,0.994-1.528,1.852-1.849
		C10.935,9.191,10.779,9.673,10.677,10.199z M12.228,14.894c-0.291,0-0.667-0.559-0.886-1.495c0.293,0.031,0.591,0.048,0.886,0.048
		c0.296,0,0.593-0.017,0.886-0.048C12.895,14.335,12.519,14.894,12.228,14.894z M13.229,12.751c-0.31,0.039-0.64,0.067-1.001,0.067
		s-0.69-0.028-1.001-0.067c-0.038-0.31-0.066-0.64-0.066-1.001c0-0.362,0.028-0.691,0.066-1.001c0.311-0.039,0.64-0.068,1.001-0.068
		s0.691,0.029,1.001,0.068c0.038,0.31,0.066,0.639,0.066,1.001C13.295,12.111,13.267,12.441,13.229,12.751z M13.315,14.688
		c0.206-0.38,0.36-0.861,0.462-1.386c0.527-0.102,1.007-0.257,1.389-0.464C14.848,13.694,14.172,14.37,13.315,14.688z M15.37,11.75
		c0,0.293-0.557,0.667-1.493,0.886c0.029-0.291,0.047-0.591,0.047-0.886s-0.018-0.593-0.047-0.886
		C14.813,11.083,15.37,11.457,15.37,11.75z M13.777,10.199c-0.102-0.526-0.256-1.008-0.462-1.387
		c0.856,0.32,1.532,0.993,1.851,1.849C14.784,10.455,14.305,10.3,13.777,10.199z"/>
	<g>
		<path fill="#6F7985" d="M7.771,12.16V8.949V8.007V6.815V6.179h1.354c0.553-0.029,0.998-0.447,0.998-1.024V1.545
			c0-0.587-0.474-1.066-1.053-1.066H5.531c-0.582,0-1.053,0.479-1.053,1.066v3.609c0,0.518,0.364,0.925,0.842,1.024h1.509v1.828
			H4.014V7.21c0-0.418-0.337-0.759-0.748-0.759H0.748C0.335,6.451,0,6.792,0,7.21v2.566c0,0.368,0.259,0.657,0.598,0.729h0.938
			v1.655H0.963c-0.343,0-0.621,0.283-0.621,0.63v2.128c0,0.306,0.216,0.545,0.496,0.604h2.244c0.326-0.018,0.589-0.263,0.589-0.604
			V12.79c0-0.347-0.279-0.63-0.62-0.63H2.479v-1.655h0.825c0.394-0.021,0.71-0.318,0.71-0.729V8.949h2.815v3.211H6.257
			c-0.343,0-0.62,0.283-0.62,0.63v2.128c0,0.306,0.215,0.545,0.495,0.604h1.64V12.16z"/>
	</g>
</g>
</svg>
