<?xml version="1.0" encoding="utf-8"?>
<!-- Generator: Adobe Illustrator 16.0.0, SVG Export Plug-In . SVG Version: 6.00 Build 0)  -->
<!DOCTYPE svg PUBLIC "-//W3C//DTD SVG 1.1//EN" "http://www.w3.org/Graphics/SVG/1.1/DTD/svg11.dtd">
<svg version="1.1" id="图层_1" xmlns="http://www.w3.org/2000/svg" xmlns:xlink="http://www.w3.org/1999/xlink" x="0px" y="0px"
	 width="15px" height="16px" viewBox="0 0 15 16" enable-background="new 0 0 15 16" xml:space="preserve">
<g>
	<g>
		<path fill="#6F7985" d="M5.603,10.624c0-0.79,0.643-1.433,1.433-1.433h1.08c0.003-0.006,0.008-0.011,0.01-0.017V0H0v13.951h5.603
			V10.624z M1.058,2.453h2.057l0.973,4.708h0.021l0.983-4.708H7.15L5.298,8.546H2.852L1.058,2.453z M4.062,12.369
			c-0.493,0-0.895-0.4-0.895-0.895s0.402-0.896,0.895-0.896c0.496,0,0.895,0.401,0.895,0.896S4.557,12.369,4.062,12.369z"/>
	</g>
	<path fill="#6F7985" d="M6.546,10.138V16h7.468v-5.862H6.546z M11.717,10.713h0.574v0.575h-0.574V10.713z M10.567,10.713h0.575
		v0.575h-0.575V10.713z M13.439,15.426H7.121v-3.564h6.318V15.426z M13.439,11.288h-0.575v-0.575h0.575V11.288z"/>
	<path fill="#6F7985" d="M11.92,4.411V2.955l2.25,2.25l-2.25,2.25V5.968c-2.617-0.062-2.506,1.78-1.84,2.987
		C8.436,7.178,8.785,4.329,11.92,4.411z"/>
	<g>
		<path fill="#6F7985" d="M7.577,13.577c0-0.217,0.029-0.397,0.09-0.545c0.045-0.108,0.105-0.206,0.184-0.292
			c0.077-0.086,0.161-0.149,0.254-0.191c0.122-0.056,0.265-0.084,0.425-0.084c0.289,0,0.521,0.097,0.695,0.292
			c0.174,0.194,0.261,0.465,0.261,0.811c0,0.344-0.086,0.613-0.259,0.806c-0.172,0.194-0.403,0.292-0.693,0.292
			c-0.292,0-0.525-0.096-0.697-0.29C7.663,14.182,7.577,13.917,7.577,13.577z M7.986,13.563c0,0.241,0.051,0.423,0.154,0.548
			c0.103,0.124,0.232,0.187,0.393,0.187c0.157,0,0.288-0.062,0.389-0.186c0.104-0.123,0.153-0.308,0.153-0.555
			c0-0.244-0.05-0.426-0.149-0.546c-0.099-0.119-0.229-0.181-0.393-0.181s-0.296,0.062-0.396,0.183
			C8.037,13.135,7.986,13.318,7.986,13.563z"/>
		<path fill="#6F7985" d="M10.299,14.629l-0.704-2.128h0.431l0.499,1.575l0.481-1.575h0.422l-0.705,2.128H10.299z"/>
		<path fill="#6F7985" d="M11.633,14.629v-2.128h1.35v0.359h-0.951v0.505h0.82v0.359h-0.82v0.904H11.633z"/>
	</g>
</g>
</svg>
