<?xml version="1.0" encoding="utf-8"?>
<!-- Generator: Adobe Illustrator 16.0.0, SVG Export Plug-In . SVG Version: 6.00 Build 0)  -->
<!DOCTYPE svg PUBLIC "-//W3C//DTD SVG 1.1//EN" "http://www.w3.org/Graphics/SVG/1.1/DTD/svg11.dtd">
<svg version="1.1" id="图层_1" xmlns="http://www.w3.org/2000/svg" xmlns:xlink="http://www.w3.org/1999/xlink" x="0px" y="0px"
	 width="16px" height="16px" viewBox="0 0 16 16" enable-background="new 0 0 16 16" xml:space="preserve">
<g>
	<path fill-rule="evenodd" clip-rule="evenodd" fill="#6F7985" d="M14.111,6.507c-0.451,1.336-1.646,5.073-2.096,6.407l-1.838,1.623
		l-0.021,0.002l-0.303-2.347l0.199-0.76l1.498-4.442l0.33-0.984l0.096-0.288c0.008-0.012-0.217-0.088-0.211-0.099l-0.33-0.114
		l-0.24,0.718L9.227,12.06l-0.117,0.347L9.641,16l0.027-0.006l2.834-2.581c0.457-1.366,1.355-4.281,2.178-6.721l-0.564-0.206
		C14.109,6.494,14.113,6.502,14.111,6.507z"/>
	<path fill-rule="evenodd" clip-rule="evenodd" fill="#6F7985" d="M14.982,2.812L13.529,2.32c-0.254-0.083-0.516-0.054-0.736,0.057
		c-0.221,0.108-0.4,0.303-0.484,0.557l-0.166,0.485l3.273,1.124c0.062-0.192,0.123-0.373,0.168-0.507
		c0.086-0.252,0.062-0.515-0.051-0.74C15.428,3.073,15.232,2.897,14.982,2.812z"/>
	
		<rect x="11.729" y="4.592" transform="matrix(-0.9472 -0.3205 0.3205 -0.9472 24.5814 14.1603)" fill-rule="evenodd" clip-rule="evenodd" fill="#6F7985" width="3.454" height="0.93"/>
	<path fill="#6F7985" d="M7.601,8.909h1.567l0.357-1.06H7.601V8.909z M7.601,6.773h2.288l0.355-1.06H7.601V6.773z M8.816,9.954H2.52
		v1.06h5.938L8.816,9.954z M11.305,2.589c0.064-0.188,0.162-0.358,0.273-0.517L9.508,0H0.365v16H8.57L8.4,14.857H1.507V1.143h6.857
		v3.429h2.266L11.305,2.589z M8.023,12.308l0.073-0.218H2.52v1.06h5.627L8.023,12.308z M7.436,4.944L7.071,4.582L4.149,6.966
		L3.218,5.782L2.475,6.557l1.674,2.179L7.436,4.944z"/>
	<polygon fill-rule="evenodd" clip-rule="evenodd" fill="#6F7985" points="11.014,11.973 11.338,12.517 13.459,6.32 12.58,6.024 
		10.459,12.217 	"/>
</g>
</svg>
