<?xml version="1.0" encoding="utf-8"?>
<!-- Generator: Adobe Illustrator 16.0.0, SVG Export Plug-In . SVG Version: 6.00 Build 0)  -->
<!DOCTYPE svg PUBLIC "-//W3C//DTD SVG 1.1//EN" "http://www.w3.org/Graphics/SVG/1.1/DTD/svg11.dtd">
<svg version="1.1" id="图层_1" xmlns="http://www.w3.org/2000/svg" xmlns:xlink="http://www.w3.org/1999/xlink" x="0px" y="0px"
	 width="16px" height="16px" viewBox="0 0 16 16" enable-background="new 0 0 16 16" xml:space="preserve">
<g>
	<path fill="#6F7985" d="M13.612,9.443h-0.764l-0.094-0.655c-0.029-0.213-0.229-0.387-0.443-0.387h-2.083
		c-0.217,0-0.416,0.174-0.445,0.387L9.691,9.443H8.926c-0.434,0-0.781,0.35-0.781,0.783v0.26h6.251v-0.26
		C14.396,9.793,14.046,9.443,13.612,9.443z M10.291,8.923h1.956l0.074,0.521h-2.104L10.291,8.923z"/>
	<path fill="#6F7985" d="M3.628,5.977h6.976v-1H3.628V5.977z M6.604,4h4V3h-4V4z M4.604,0L1.726,3L1.604,3.125v10.873h5.999
		l0.174-0.173l-0.076-0.827H2.604V4h3V1h5.999v6.401h0.708c0.102,0,0.195,0.028,0.291,0.049V0H4.604z M3.604,10.999v0.999h4.007
		l-0.047-0.512h-0.42v-0.487H3.604z M3.628,8.979v1h3.54c0.055-0.387,0.229-0.734,0.49-1H3.628z M3.628,7.978h5.456
		c0.268-0.348,0.682-0.576,1.145-0.576h0.375V6.978H3.628V7.978z"/>
	<path fill="#6F7985" d="M13.562,10.694H8.979c-0.266,0-0.463,0.216-0.439,0.479l0.396,4.345C8.959,15.783,9.195,16,9.461,16h3.618
		c0.264,0,0.5-0.217,0.525-0.481l0.395-4.345C14.022,10.91,13.825,10.694,13.562,10.694z M10.305,15.034H9.582L9.34,11.658h0.965
		V15.034z M11.752,15.034h-0.965v-3.376h0.965V15.034z M12.958,15.034h-0.725v-3.376h0.965L12.958,15.034z"/>
</g>
</svg>
