<?xml version="1.0" encoding="utf-8"?>
<!-- Generator: Adobe Illustrator 16.0.0, SVG Export Plug-In . SVG Version: 6.00 Build 0)  -->
<!DOCTYPE svg PUBLIC "-//W3C//DTD SVG 1.1//EN" "http://www.w3.org/Graphics/SVG/1.1/DTD/svg11.dtd">
<svg version="1.1" id="图层_1" xmlns="http://www.w3.org/2000/svg" xmlns:xlink="http://www.w3.org/1999/xlink" x="0px" y="0px"
	 width="16px" height="16px" viewBox="0 0 16 16" enable-background="new 0 0 16 16" xml:space="preserve">
<g>
	<polygon fill="#6F7985" points="6.026,8.436 7.026,8.436 12.026,2.436 11.026,1.436 6.026,7.436 	"/>
	<path fill="#6F7985" d="M7.876,14.431c0-0.054,0.004-0.108,0.01-0.161c-0.315-0.258-0.517-0.648-0.517-1.086v-1.207
		c0-0.441,0.205-0.837,0.524-1.095c-0.006-0.051-0.009-0.104-0.009-0.155c0-0.362,0.137-0.707,0.385-0.972l0.678-0.672
		C9.21,8.82,9.562,8.674,9.934,8.674c0.055,0,0.109,0.003,0.163,0.01c0.006-0.008,0.015-0.013,0.021-0.021V6.288L8.784,7.889V8.8
		h-0.76L7.495,9.436H5.026V8.8H2.117V7.2h2.909V7.073l1.006-1.207H2.117v-1.6h5.248l1.11-1.333H2.117V1.333h6.667v1.23l1.333-1.6V0
		H0.784v16H8.86l-0.571-0.569C8.021,15.164,7.874,14.809,7.876,14.431z M5.45,13.928c-0.553,0-1-0.447-1-1s0.447-1,1-1s1,0.447,1,1
		S6.003,13.928,5.45,13.928z"/>
	<path fill="#6F7985" d="M14.812,11.571h-0.8l0.574-0.57c0.157-0.157,0.157-0.409,0-0.566l-0.648-0.653
		c-0.078-0.075-0.18-0.111-0.284-0.111c-0.103,0-0.207,0.036-0.285,0.111l-0.568,0.57V9.562c0-0.225-0.182-0.404-0.402-0.404h-1.207
		c-0.224,0-0.404,0.18-0.404,0.404v0.8l-0.569-0.568c-0.077-0.079-0.182-0.12-0.284-0.12S9.729,9.715,9.65,9.794l-0.651,0.645
		c-0.072,0.077-0.114,0.182-0.114,0.288c0,0.104,0.042,0.207,0.114,0.282l0.565,0.562h-0.79c-0.221,0-0.405,0.181-0.405,0.405v1.207
		c0,0.219,0.185,0.402,0.405,0.402h0.79l-0.568,0.568c-0.16,0.156-0.16,0.409,0,0.568l0.646,0.645
		c0.079,0.081,0.183,0.119,0.286,0.119s0.207-0.038,0.285-0.119l0.574-0.571v0.801c0,0.224,0.181,0.403,0.404,0.403h1.207
		c0.221,0,0.402-0.18,0.402-0.403v-0.801l0.572,0.578c0.075,0.074,0.179,0.114,0.284,0.114c0.107,0,0.213-0.04,0.286-0.114
		l0.648-0.651c0.076-0.07,0.119-0.176,0.119-0.281c0-0.107-0.043-0.21-0.119-0.285l-0.57-0.57h0.791
		c0.224,0,0.403-0.184,0.403-0.402v-1.207C15.216,11.752,15.036,11.571,14.812,11.571z M11.792,14.282
		c-0.941,0-1.702-0.759-1.702-1.7c0-0.946,0.761-1.707,1.702-1.707c0.943,0,1.704,0.761,1.704,1.707
		C13.496,13.523,12.735,14.282,11.792,14.282z"/>
</g>
</svg>
