<?xml version="1.0" encoding="utf-8"?>
<!-- Generator: Adobe Illustrator 16.0.0, SVG Export Plug-In . SVG Version: 6.00 Build 0)  -->
<!DOCTYPE svg PUBLIC "-//W3C//DTD SVG 1.1//EN" "http://www.w3.org/Graphics/SVG/1.1/DTD/svg11.dtd">
<svg version="1.1" id="图层_1" xmlns="http://www.w3.org/2000/svg" xmlns:xlink="http://www.w3.org/1999/xlink" x="0px" y="0px"
	 width="16px" height="16px" viewBox="0 0 16 16" enable-background="new 0 0 16 16" xml:space="preserve">
<g>
	<path fill="#6F7985" d="M14.717,9.443h-0.764l-0.094-0.655c-0.029-0.213-0.229-0.387-0.443-0.387h-2.083
		c-0.217,0-0.416,0.174-0.445,0.387l-0.092,0.655H10.03c-0.434,0-0.781,0.35-0.781,0.783v0.26H15.5v-0.26
		C15.5,9.793,15.15,9.443,14.717,9.443z M11.321,9.443l0.074-0.521h1.956l0.074,0.521H11.321z"/>
	<path fill="#6F7985" d="M14.666,10.694h-4.583c-0.266,0-0.463,0.216-0.439,0.479l0.396,4.345C10.063,15.783,10.3,16,10.565,16
		h3.618c0.264,0,0.5-0.217,0.525-0.481l0.395-4.345C15.127,10.91,14.93,10.694,14.666,10.694z M11.409,15.034h-0.723l-0.242-3.376
		h0.965V15.034z M12.855,15.034h-0.964v-3.376h0.964V15.034z M14.062,15.034h-0.725v-3.376h0.965L14.062,15.034z"/>
	<path fill="#6F7985" d="M8.668,11.486H8.249v-1.26c0-0.915,0.693-1.663,1.582-1.765V0H0.5v15.998h8.639
		c-0.046-0.125-0.083-0.254-0.095-0.391L8.668,11.486z M1.832,1.329h6.667v1.605H1.832V1.329z M1.832,4.264h6.667v1.599H1.832V4.264
		z M1.832,7.199h6.667v1.598H1.832V7.199z M5.972,14.747H4.595l-1.008-4.593h1.156l0.547,3.547h0.014l0.551-3.547h1.16L5.972,14.747
		z"/>
</g>
</svg>
