<?xml version="1.0" encoding="utf-8"?>
<!-- Generator: Adobe Illustrator 16.0.0, SVG Export Plug-In . SVG Version: 6.00 Build 0)  -->
<!DOCTYPE svg PUBLIC "-//W3C//DTD SVG 1.1//EN" "http://www.w3.org/Graphics/SVG/1.1/DTD/svg11.dtd">
<svg version="1.1" id="图层_1" xmlns="http://www.w3.org/2000/svg" xmlns:xlink="http://www.w3.org/1999/xlink" x="0px" y="0px"
	 width="16px" height="16px" viewBox="0 0 16 16" enable-background="new 0 0 16 16" xml:space="preserve">
<path fill="#6F7985" d="M16,8.946c0-2.266-1.823-4.104-4.083-4.137c0.294,0.574,0.475,1.215,0.475,1.904
	c0,1.578-0.876,2.937-2.158,3.66c0.775-0.639,1.317-1.54,1.484-2.575c0.038-0.219,0.067-0.439,0.067-0.669
	c0-0.462-0.093-0.9-0.23-1.316c-0.014-0.036-0.021-0.076-0.035-0.112c0-0.001,0-0.001,0-0.002c-0.037-0.102-0.07-0.202-0.113-0.299
	c0-0.001-0.001-0.003-0.002-0.004c-0.074-0.162-0.162-0.319-0.256-0.472c-0.742-1.204-2.063-2.014-3.582-2.014
	c-1.52,0-2.846,0.806-3.588,2.01C5.895,5.013,7.422,6.58,7.422,8.52c0,0.415-0.084,0.808-0.213,1.18
	C7.213,9.623,7.232,9.55,7.232,9.473c0-0.597-0.16-1.151-0.416-1.647c-0.02-0.038-0.039-0.074-0.06-0.11
	C6.138,6.61,4.971,5.857,3.615,5.857C1.619,5.857,0,7.475,0,9.473c0,1.96,1.562,3.548,3.51,3.604v0.012h8.498v-0.016
	C14.225,12.991,16,11.183,16,8.946z"/>
</svg>
