<?xml version="1.0" encoding="utf-8"?>
<!-- Generator: Adobe Illustrator 16.0.0, SVG Export Plug-In . SVG Version: 6.00 Build 0)  -->
<!DOCTYPE svg PUBLIC "-//W3C//DTD SVG 1.1//EN" "http://www.w3.org/Graphics/SVG/1.1/DTD/svg11.dtd">
<svg version="1.1" id="图层_1" xmlns="http://www.w3.org/2000/svg" xmlns:xlink="http://www.w3.org/1999/xlink" x="0px" y="0px"
	 width="16px" height="16px" viewBox="0 0 16 16" enable-background="new 0 0 16 16" xml:space="preserve">
<g>
	<path fill="#6F7985" d="M0,0V9.95h5.805V0H0z M2.902,8.662c-0.345,0-0.623-0.278-0.623-0.622s0.278-0.623,0.623-0.623
		c0.344,0,0.621,0.279,0.621,0.623S3.246,8.662,2.902,8.662z M4.975,5.472H0.829V4.478h4.146V5.472z M4.975,3.647H0.829V2.653h4.146
		V3.647z M4.975,1.824H0.829V0.829h4.146V1.824z"/>
	<g>
		<polygon fill="#6F7985" points="8.409,4.857 10.02,3.518 8.4,2.189 8.402,3.059 6.33,3.067 6.336,3.995 8.407,3.986 		"/>
		<polygon fill="#6F7985" points="8.409,8.688 10.02,7.35 8.4,6.021 8.402,6.89 6.33,6.899 6.336,7.827 8.407,7.817 		"/>
	</g>
	<path fill="#6F7985" d="M10.467,0.225v9.501H16V0.225H10.467z M13.233,8.647c-0.336,0-0.609-0.271-0.609-0.609
		c0-0.336,0.273-0.609,0.609-0.609c0.337,0,0.609,0.273,0.609,0.609C13.843,8.376,13.57,8.647,13.233,8.647z M14.075,6.044h-1.666
		l-1.222-4.149h1.4l0.663,3.206h0.015l0.669-3.206h1.402L14.075,6.044z"/>
</g>
</svg>
