<?xml version="1.0" standalone="no"?><!DOCTYPE svg PUBLIC "-//W3C//DTD SVG 1.1//EN" "http://www.w3.org/Graphics/SVG/1.1/DTD/svg11.dtd"><svg t="1496370407005" class="icon" style="" viewBox="0 0 1024 1024" version="1.1" xmlns="http://www.w3.org/2000/svg" p-id="6505" xmlns:xlink="http://www.w3.org/1999/xlink" width="16" height="16"><defs><style type="text/css"></style></defs><path d="M649.6 318.4L552 416c11.2 4.8 20.8 11.2 30.4 19.2 19.2 19.2 28.8 44.8 28.8 70.4 0 25.6-9.6 49.6-28.8 70.4l-36.8 36.8-168 166.4-49.6 49.6c-19.2 19.2-44.8 28.8-70.4 28.8-25.6 0-51.2-9.6-70.4-28.8-17.6-20.8-27.2-44.8-27.2-70.4 0-25.6 9.6-49.6 28.8-70.4l38.4-38.4c-38.4-73.6-28.8-134.4-16-172.8l-116.8 116.8c-44.8 44.8-68.8 105.6-67.2 164.8 0 59.2 22.4 118.4 67.2 164.8 44.8 44.8 105.6 68.8 164.8 68.8 59.2 0 118.4-22.4 163.2-67.2L675.2 672c44.8-44.8 68.8-105.6 68.8-164.8 0-59.2-22.4-118.4-68.8-164.8-8-9.6-17.6-17.6-25.6-24z" fill="#6F7985" p-id="6506"></path><path d="M918.4 99.2c-44.8-44.8-105.6-68.8-164.8-68.8-59.2 0-118.4 22.4-163.2 67.2L336 352c-44.8 44.8-68.8 105.6-68.8 164.8 0 59.2 22.4 118.4 68.8 164.8 8 8 17.6 16 27.2 22.4l97.6-97.6c-11.2-4.8-20.8-11.2-30.4-19.2-19.2-19.2-28.8-44.8-28.8-70.4 0-25.6 9.6-51.2 28.8-70.4l200-200 6.4-8 46.4-46.4c19.2-19.2 44.8-28.8 70.4-28.8 25.6 0 51.2 9.6 70.4 28.8 19.2 19.2 28.8 44.8 28.8 70.4 0 25.6-9.6 49.6-28.8 70.4l-38.4 38.4c38.4 73.6 28.8 134.4 16 172.8l116.8-116.8c44.8-44.8 67.2-105.6 67.2-164.8 0-59.2-22.4-118.4-67.2-163.2z" fill="#6F7985" p-id="6507"></path></svg>