<?xml version="1.0" encoding="utf-8"?>
<!-- Generator: Adobe Illustrator 16.0.0, SVG Export Plug-In . SVG Version: 6.00 Build 0)  -->
<!DOCTYPE svg PUBLIC "-//W3C//DTD SVG 1.1//EN" "http://www.w3.org/Graphics/SVG/1.1/DTD/svg11.dtd">
<svg version="1.1" id="图层_1" xmlns="http://www.w3.org/2000/svg" xmlns:xlink="http://www.w3.org/1999/xlink" x="0px" y="0px"
	 width="16px" height="16px" viewBox="0 0 16 16" enable-background="new 0 0 16 16" xml:space="preserve">
<g>
	<path fill="#6F7985" d="M10.341,4.443c0.173,0,0.341-0.09,0.434-0.25l0.312-0.541c0.137-0.238,0.055-0.544-0.184-0.682
		c-0.24-0.139-0.545-0.057-0.682,0.183L9.909,3.694c-0.139,0.239-0.057,0.544,0.183,0.683C10.171,4.422,10.257,4.443,10.341,4.443z"
		/>
	<path fill="#6F7985" d="M8.499,3.316V2.692c0-0.276-0.223-0.499-0.499-0.499S7.501,2.416,7.501,2.692v0.624
		c0,0.275,0.223,0.5,0.499,0.5S8.499,3.592,8.499,3.316z"/>
	<path fill="#6F7985" d="M4.194,5.226L3.653,4.913c-0.24-0.139-0.545-0.056-0.682,0.183C2.833,5.335,2.915,5.641,3.153,5.778
		l0.541,0.312c0.079,0.046,0.165,0.067,0.25,0.067c0.172,0,0.34-0.09,0.434-0.25C4.515,5.669,4.433,5.363,4.194,5.226z"/>
	<path fill="#6F7985" d="M6.868,8c0,0.625,0.507,1.131,1.132,1.131c0.575,0,1.045-0.43,1.117-0.985l4.155-3.119l-0.071-0.112
		L8.43,6.953C8.297,6.898,8.151,6.867,8,6.867C7.375,6.867,6.868,7.375,6.868,8z"/>
	<path fill="#6F7985" d="M12.184,8c0,0.275,0.224,0.499,0.499,0.499h0.625c0.275,0,0.499-0.224,0.499-0.499
		c0-0.276-0.224-0.5-0.499-0.5h-0.625C12.407,7.5,12.184,7.724,12.184,8z"/>
	<path fill="#6F7985" d="M3.404,11.152c0.085,0,0.171-0.021,0.249-0.066l0.541-0.312c0.238-0.138,0.32-0.443,0.184-0.682
		C4.239,9.852,3.935,9.77,3.694,9.908l-0.541,0.312c-0.238,0.138-0.32,0.443-0.182,0.682C3.063,11.063,3.231,11.152,3.404,11.152z"
		/>
	<path fill="#6F7985" d="M3.816,8c0-0.276-0.224-0.5-0.499-0.5H2.692C2.417,7.5,2.193,7.724,2.193,8
		c0,0.275,0.224,0.499,0.499,0.499h0.625C3.593,8.499,3.816,8.275,3.816,8z"/>
	<path fill="#6F7985" d="M5.097,2.971c-0.238,0.138-0.32,0.443-0.184,0.682l0.312,0.541c0.093,0.16,0.261,0.25,0.434,0.25
		c0.084,0,0.17-0.021,0.249-0.066c0.239-0.139,0.321-0.443,0.183-0.683L5.778,3.153C5.642,2.914,5.336,2.832,5.097,2.971z"/>
	<path fill="#6F7985" d="M8,0C3.581,0,0,3.581,0,8c0,4.418,3.581,8,8,8c0.562,0,1.108-0.06,1.636-0.169l-0.236-0.237
		C9.142,15.34,8.999,14.997,9,14.633c0-0.03,0.001-0.06,0.003-0.09c-0.086-0.078-0.158-0.17-0.222-0.268
		C8.524,14.307,8.265,14.328,8,14.328c-3.489,0-6.329-2.839-6.329-6.328c0-3.49,2.84-6.329,6.329-6.329S14.329,4.51,14.329,8
		c0,0.51-0.068,1.004-0.183,1.48c0.007,0,0.015,0,0.021,0c0.355,0,0.69,0.133,0.942,0.377l0.527,0.531C15.872,9.634,16,8.832,16,8
		C16,3.581,12.419,0,8,0z"/>
	<path fill="#6F7985" d="M15.179,12.139h-0.699l0.5-0.498c0.139-0.137,0.139-0.357,0-0.494l-0.564-0.57
		c-0.067-0.064-0.158-0.096-0.248-0.096s-0.18,0.031-0.248,0.096l-0.496,0.498v-0.688c0-0.197-0.158-0.354-0.352-0.354h-1.051
		c-0.197,0-0.354,0.156-0.354,0.354v0.697l-0.496-0.496c-0.068-0.07-0.158-0.105-0.248-0.105c-0.088,0-0.178,0.035-0.246,0.105
		l-0.568,0.562c-0.064,0.066-0.102,0.158-0.102,0.252c0,0.09,0.037,0.18,0.102,0.246l0.492,0.49H9.911
		c-0.192,0-0.353,0.156-0.353,0.354v1.051c0,0.191,0.16,0.352,0.353,0.352h0.689l-0.496,0.496c-0.14,0.137-0.14,0.357,0,0.496
		l0.564,0.562c0.068,0.07,0.158,0.104,0.248,0.104s0.181-0.033,0.248-0.104l0.502-0.5v0.699c0,0.195,0.156,0.352,0.354,0.352h1.051
		c0.193,0,0.352-0.156,0.352-0.352v-0.699l0.5,0.504c0.066,0.066,0.154,0.102,0.248,0.102s0.184-0.035,0.248-0.102l0.566-0.566
		c0.066-0.062,0.104-0.154,0.104-0.246c0-0.094-0.037-0.184-0.104-0.248l-0.498-0.498h0.691c0.194,0,0.351-0.16,0.351-0.352v-1.051
		C15.529,12.295,15.373,12.139,15.179,12.139z M12.544,14.502c-0.821,0-1.485-0.662-1.485-1.484s0.664-1.488,1.485-1.488
		c0.822,0,1.485,0.666,1.485,1.488S13.366,14.502,12.544,14.502z"/>
</g>
</svg>
