<?xml version="1.0" encoding="utf-8"?>
<!-- Generator: Adobe Illustrator 16.0.0, SVG Export Plug-In . SVG Version: 6.00 Build 0)  -->
<!DOCTYPE svg PUBLIC "-//W3C//DTD SVG 1.1//EN" "http://www.w3.org/Graphics/SVG/1.1/DTD/svg11.dtd">
<svg version="1.1" id="图层_1" xmlns="http://www.w3.org/2000/svg" xmlns:xlink="http://www.w3.org/1999/xlink" x="0px" y="0px"
	 width="16px" height="16px" viewBox="0 0 16 16" enable-background="new 0 0 16 16" xml:space="preserve">
<g>
	<polygon fill="#FF8000" points="9.658,12.396 7.25,8.554 4.925,11.469 3.235,10.702 2.822,11.612 5.222,12.701 7.152,10.28 
		9.428,13.911 11.109,12.469 11.127,12.479 11.127,11.315 11.004,11.242 	"/>
	<path fill="#6F7985" d="M10.127,7h-2.67l0.627,1h2.043V7z M9.127,1v1h2v8.152l1,0.595V1H9.127z M10.127,10.047v-1H8.74l0.627,1
		H10.127z M2.126,4h8V3h-2V0h-4v3h-2V4z M5.626,1h1v1h-1V1z M1.126,15V2h2V1h-3v15h11.528c-0.262-0.289-0.463-0.626-0.596-1H1.126z
		 M2.126,14h4v-0.829l-0.607,0.763l-3.393-1.539V14z M6.126,5h-4v5.724l0.611-1.345l1.892,0.857l1.497-1.878V5z M10.127,5h-3v1h3V5z
		"/>
	<path fill="#6F7985" d="M13.873,11.999c-1.104,0-2,0.896-2,2c0,1.105,0.896,2.001,2,2.001c1.105,0,2-0.896,2-2.001
		C15.873,12.895,14.979,11.999,13.873,11.999z M14.244,15.27h-0.762l-0.557-2.541h0.639l0.303,1.964h0.008l0.305-1.964h0.643
		L14.244,15.27z"/>
</g>
</svg>
