<?xml version="1.0" encoding="utf-8"?>
<!-- Generator: Adobe Illustrator 16.0.0, SVG Export Plug-In . SVG Version: 6.00 Build 0)  -->
<!DOCTYPE svg PUBLIC "-//W3C//DTD SVG 1.1//EN" "http://www.w3.org/Graphics/SVG/1.1/DTD/svg11.dtd">
<svg version="1.1" id="图层_1" xmlns="http://www.w3.org/2000/svg" xmlns:xlink="http://www.w3.org/1999/xlink" x="0px" y="0px"
	 width="16px" height="16px" viewBox="0 0 16 16" enable-background="new 0 0 16 16" xml:space="preserve">
<g>
	<g>
		<path fill="#6F7985" d="M8.984,14.701c0,0.643,0.452,1.148,1.045,1.271h2.213V12.68H8.984V14.701z M9.667,13.527l0.303-0.303
			l0.688,0.688l0.689-0.688l0.301,0.303l-0.688,0.688l0.688,0.688l-0.301,0.303l-0.689-0.688L9.97,15.205l-0.303-0.303l0.688-0.688
			L9.667,13.527z"/>
		<path fill="#6F7985" d="M8.984,10.215v1.967h3.258V8.888h-1.95C9.569,8.888,8.984,9.484,8.984,10.215z M10.408,9.451h0.432v0.979
			h0.977l0.001,0.432H10.84v0.979h-0.432v-0.979H9.431V10.43h0.978V9.451z"/>
		<path fill="#6F7985" d="M14.692,8.888h-1.95v3.293H16v-1.967C16,9.484,15.411,8.888,14.692,8.888z M15.167,10.844H13.34v-0.439
			h1.827V10.844z"/>
		<path fill="#6F7985" d="M12.742,15.973h2.017C15.446,15.936,16,15.416,16,14.701V12.68h-3.258V15.973z M13.309,13.6h1.89v0.436
			h-1.89V13.6z M13.309,14.508h1.89v0.436h-1.89V14.508z"/>
	</g>
	<path fill="#6F7985" d="M8.238,6.069h1.435c0.586-0.031,1.059-0.475,1.059-1.085V1.157c0-0.622-0.503-1.13-1.116-1.13H5.862
		c-0.615,0-1.114,0.509-1.114,1.13v3.827c0,0.548,0.387,0.98,0.892,1.085h1.6v1.938H4.255V7.163c0-0.443-0.357-0.805-0.794-0.805
		H0.792C0.355,6.358,0,6.719,0,7.163v2.72c0,0.391,0.275,0.697,0.634,0.771h0.994v1.756H1.021c-0.363,0-0.657,0.299-0.657,0.668
		v2.254c0,0.324,0.228,0.578,0.524,0.641h2.38c0.346-0.018,0.624-0.279,0.624-0.641v-2.254c0-0.369-0.296-0.668-0.658-0.668H2.628
		v-1.756h0.874c0.417-0.021,0.753-0.338,0.753-0.771V9.006h2.984v3.404H6.633c-0.363,0-0.658,0.299-0.658,0.668v2.254
		c0,0.324,0.229,0.578,0.526,0.641h1.737V6.069z"/>
</g>
</svg>
