<?xml version="1.0" encoding="utf-8"?>
<!-- Generator: Adobe Illustrator 16.0.0, SVG Export Plug-In . SVG Version: 6.00 Build 0)  -->
<!DOCTYPE svg PUBLIC "-//W3C//DTD SVG 1.1//EN" "http://www.w3.org/Graphics/SVG/1.1/DTD/svg11.dtd">
<svg version="1.1" id="图层_1" xmlns="http://www.w3.org/2000/svg" xmlns:xlink="http://www.w3.org/1999/xlink" x="0px" y="0px"
	 width="16px" height="16px" viewBox="0 0 16 16" enable-background="new 0 0 16 16" xml:space="preserve">
<g>
	<polygon fill="#6F7985" points="12.426,9.785 9.553,13.298 11.61,13.298 11.61,15.947 13.242,15.947 13.242,13.298 15.303,13.298 	
		"/>
	<path fill="#6F7985" d="M3.025,7.62h8.225V5.931H3.025V7.62z M13.266,2.392L13.264,0L4.123,0.003l-3.426,3.43L0.701,16l9.829-0.002
		v-1.146l-8.688,0.003L1.839,4.577l3.429-0.002V1.147l6.854-0.003v3.399l0.004-0.004v3.906l0.3-0.366l0.845,1.031V2.388
		L13.266,2.392z M6.251,4.585h5.032V2.896H6.251V4.585z M3.025,13.688h4.811l1.383-1.688H3.025V13.688z M3.025,10.653h7.294
		l0.931-1.138V8.964H3.025V10.653z"/>
</g>
</svg>
