<?xml version="1.0" encoding="utf-8"?>
<!-- Generator: Adobe Illustrator 16.0.0, SVG Export Plug-In . SVG Version: 6.00 Build 0)  -->
<!DOCTYPE svg PUBLIC "-//W3C//DTD SVG 1.1//EN" "http://www.w3.org/Graphics/SVG/1.1/DTD/svg11.dtd">
<svg version="1.1" id="图层_1" xmlns="http://www.w3.org/2000/svg" xmlns:xlink="http://www.w3.org/1999/xlink" x="0px" y="0px"
	 width="16px" height="16px" viewBox="0 0 16 16" enable-background="new 0 0 16 16" xml:space="preserve">
<g>
	<path fill="#6F7985" d="M7.36,13.146c0-1.994,1.541-3.615,3.492-3.779V0H1.966v15.234h6.025C7.595,14.634,7.36,13.917,7.36,13.146z
		 M3.235,1.27h6.348v1.523H3.235V1.27z M3.235,4.062h6.348v1.523H3.235V4.062z M3.235,6.855h6.348v1.523H3.235V6.855z M6.409,13.262
		c-0.526,0-0.953-0.426-0.953-0.952s0.427-0.952,0.953-0.952c0.525,0,0.951,0.426,0.951,0.952S6.935,13.262,6.409,13.262z"/>
	<path fill="#F74848" d="M11.169,10.287c-1.58,0-2.856,1.277-2.856,2.858c0,1.578,1.276,2.854,2.856,2.854
		c1.589,0,2.865-1.276,2.865-2.854C14.034,11.564,12.758,10.287,11.169,10.287z M12.793,14.2l-0.559,0.563l-1.065-1.06l-1.057,1.06
		L9.554,14.2l1.055-1.055l-1.055-1.059l0.559-0.563l1.057,1.061l1.065-1.061l0.559,0.563l-1.056,1.059L12.793,14.2z"/>
</g>
</svg>
