<?xml version="1.0" encoding="utf-8"?>
<!-- Generator: Adobe Illustrator 16.0.0, SVG Export Plug-In . SVG Version: 6.00 Build 0)  -->
<!DOCTYPE svg PUBLIC "-//W3C//DTD SVG 1.1//EN" "http://www.w3.org/Graphics/SVG/1.1/DTD/svg11.dtd">
<svg version="1.1" id="图层_1" xmlns="http://www.w3.org/2000/svg" xmlns:xlink="http://www.w3.org/1999/xlink" x="0px" y="0px"
	 width="16px" height="16px" viewBox="0 0 16 16" enable-background="new 0 0 16 16" xml:space="preserve">
<g>
	<polygon fill="#6F7985" points="12.932,5.625 15.264,3.694 12.927,1.768 12.929,3.024 9.932,3.028 9.935,4.37 12.931,4.365 	"/>
	<polygon fill="#6F7985" points="12.268,4.612 9.938,6.541 12.272,8.468 12.271,7.21 15.268,7.206 15.266,5.866 12.27,5.87 	"/>
	<path fill="#6F7985" d="M6.524,14.719c-0.347-0.197-0.582-0.574-0.583-1.004v-0.402c-0.001-0.431,0.233-0.805,0.577-1.002
		c-0.122-0.379-0.043-0.819,0.239-1.136l0.274-0.296c0.22-0.232,0.518-0.361,0.826-0.363c0.09,0.001,0.182,0.015,0.27,0.034
		c0.191-0.356,0.564-0.599,0.994-0.6h0.372c0.031,0,0.059,0.01,0.091,0.013l-0.011-7.42V2.177L9.571,0L0.732,0.013l0.021,15.152
		l5.73-0.007C6.472,15.009,6.479,14.859,6.524,14.719z M1.998,1.275l6.31-0.008L8.31,2.179v0.366v0.238L2,2.792L1.998,1.275z
		 M2.002,4.05l6.31-0.008l0.002,1.514l-6.31,0.008L2.002,4.05z M2.006,6.831l6.309-0.008l0.004,1.513L2.008,8.344L2.006,6.831z
		 M5.166,13.194c-0.522,0.001-0.947-0.422-0.947-0.943c-0.001-0.523,0.423-0.947,0.944-0.948c0.527-0.001,0.952,0.423,0.953,0.944
		C6.117,12.771,5.692,13.194,5.166,13.194z"/>
	<path fill="#6F7985" d="M11.555,13.123l-0.23,0.001c-0.102,0-0.21-0.081-0.24-0.183l-0.129-0.32
		c-0.049-0.093-0.029-0.227,0.044-0.304l0.157-0.163c0.073-0.072,0.073-0.193-0.001-0.271l-0.263-0.269
		c-0.074-0.072-0.192-0.071-0.264,0l-0.158,0.163c-0.072,0.076-0.207,0.097-0.298,0.046L9.86,11.694
		c-0.095-0.032-0.177-0.145-0.178-0.25l-0.001-0.229c0.001-0.104-0.083-0.193-0.188-0.193h-0.37c-0.104,0-0.188,0.089-0.188,0.193
		v0.229c0.001,0.105-0.08,0.219-0.178,0.25l-0.311,0.13c-0.09,0.051-0.225,0.031-0.298-0.045l-0.158-0.163
		c-0.072-0.071-0.192-0.07-0.264,0l-0.263,0.271c-0.073,0.077-0.073,0.199,0,0.271l0.157,0.162c0.073,0.075,0.093,0.21,0.046,0.304
		l-0.127,0.319c-0.031,0.104-0.14,0.185-0.243,0.185H7.073c-0.101,0-0.185,0.088-0.185,0.191v0.383c0,0.107,0.085,0.192,0.186,0.192
		H7.3c0.103,0,0.212,0.083,0.241,0.185L7.67,14.4c0.049,0.091,0.029,0.229-0.044,0.305l-0.157,0.162
		c-0.073,0.074-0.073,0.196,0,0.271l0.263,0.27c0.073,0.076,0.193,0.075,0.265,0l0.157-0.161c0.074-0.077,0.208-0.097,0.299-0.044
		l0.311,0.129c0.097,0.032,0.179,0.142,0.179,0.25v0.227C8.942,15.914,9.025,16.001,9.13,16l0.372-0.001
		c0.104,0,0.188-0.087,0.188-0.192l-0.001-0.225c0-0.108,0.082-0.219,0.178-0.251l0.312-0.13c0.09-0.054,0.225-0.034,0.298,0.042
		l0.157,0.161c0.072,0.076,0.19,0.075,0.264,0l0.263-0.27c0.073-0.077,0.073-0.199,0-0.273l-0.158-0.16
		c-0.073-0.077-0.093-0.215-0.044-0.305l0.127-0.32c0.029-0.102,0.14-0.185,0.241-0.185l0.229-0.002
		c0.103,0,0.188-0.085,0.188-0.188l-0.002-0.386C11.741,13.212,11.657,13.124,11.555,13.123 M10.245,13.508
		c0,0.53-0.417,0.961-0.932,0.961c-0.516,0.001-0.932-0.428-0.933-0.958c-0.001-0.529,0.415-0.954,0.93-0.954
		C9.825,12.555,10.244,12.979,10.245,13.508"/>
</g>
</svg>
