<?xml version="1.0" encoding="utf-8"?>
<!-- Generator: Adobe Illustrator 16.0.0, SVG Export Plug-In . SVG Version: 6.00 Build 0)  -->
<!DOCTYPE svg PUBLIC "-//W3C//DTD SVG 1.1//EN" "http://www.w3.org/Graphics/SVG/1.1/DTD/svg11.dtd">
<svg version="1.1" id="图层_1" xmlns="http://www.w3.org/2000/svg" xmlns:xlink="http://www.w3.org/1999/xlink" x="0px" y="0px"
	 width="16px" height="16px" viewBox="0 0 16 16" enable-background="new 0 0 16 16" xml:space="preserve">
<g>
	<path fill="#6F7985" d="M13.777,6.406L8.611,8.615c-0.144-0.06-0.299-0.094-0.464-0.094c-0.677,0-1.226,0.548-1.226,1.225
		c0,0.676,0.549,1.226,1.226,1.226c0.616,0,1.103-0.462,1.19-1.054l4.518-3.39L13.777,6.406z"/>
	<path fill="#6F7985" d="M10.512,6.625l1.453-0.621C10.785,5.361,9.436,4.993,8,4.993c-3.79,0-6.992,2.545-8,6.014h1.217
		C2.186,8.187,4.856,6.152,8,6.152C8.887,6.152,9.729,6.33,10.512,6.625z"/>
	<path fill="#6F7985" d="M14.111,7.688L13.178,8.39c0.705,0.742,1.264,1.628,1.604,2.617H16C15.635,9.752,14.975,8.624,14.111,7.688
		z"/>
</g>
</svg>
