<?xml version="1.0" encoding="utf-8"?>
<!-- Generator: Adobe Illustrator 16.0.0, SVG Export Plug-In . SVG Version: 6.00 Build 0)  -->
<!DOCTYPE svg PUBLIC "-//W3C//DTD SVG 1.1//EN" "http://www.w3.org/Graphics/SVG/1.1/DTD/svg11.dtd">
<svg version="1.1" id="图层_1" xmlns="http://www.w3.org/2000/svg" xmlns:xlink="http://www.w3.org/1999/xlink" x="0px" y="0px"
	 width="16px" height="16px" viewBox="0 0 16 16" enable-background="new 0 0 16 16" xml:space="preserve">
<g>
	<path fill="#6F7985" d="M7,10.047h0.579v-1H7V10.047z M7,8h0.579V7H7V8z M7,6h3V5H7V6z M9,1v1h2v4h1V1H9z M6,5H2v9h4V5z M1,2h2V1H0
		v15h7.579v-1H1V2z M8,0H4v3H2v1h8V3H8V0z M6.5,2h-1V1h1V2z M7,11.984h0.579v-1H7V11.984z M7,13.922h0.579v-1H7V13.922z"/>
	<path fill="#6F7985" d="M8.579,7v9h5.242V7H8.579z M11.2,14.979c-0.318,0-0.578-0.259-0.578-0.578c0-0.318,0.26-0.576,0.578-0.576
		s0.576,0.258,0.576,0.576C11.776,14.721,11.519,14.979,11.2,14.979z M11.997,12.513h-1.578L9.263,8.582h1.326l0.627,3.037h0.014
		l0.635-3.037h1.328L11.997,12.513z"/>
</g>
</svg>
