<?xml version="1.0" encoding="utf-8"?>
<!-- Generator: Adobe Illustrator 16.0.0, SVG Export Plug-In . SVG Version: 6.00 Build 0)  -->
<!DOCTYPE svg PUBLIC "-//W3C//DTD SVG 1.1//EN" "http://www.w3.org/Graphics/SVG/1.1/DTD/svg11.dtd">
<svg version="1.1" id="图层_1" xmlns="http://www.w3.org/2000/svg" xmlns:xlink="http://www.w3.org/1999/xlink" x="0px" y="0px"
	 width="32px" height="32px" viewBox="0 0 16 16" enable-background="new 0 0 16 16" xml:space="preserve">
<g>
	<path fill="#6F7985" d="M5.113,4.092h4.093V3.069H5.113V4.092z M2.046,6.137h7.16V5.114h-7.16V6.137z M2.046,11.253v1.021h3.566
		c-0.107-0.326-0.174-0.667-0.201-1.021H2.046z M3.068-0.001l-2.944,3.07H0V14.32h6.987c-0.351-0.296-0.66-0.635-0.907-1.022H1.022
		V4.092h3.068V1.022h6.138v5.438c0.355,0.029,0.696,0.098,1.022,0.206v-6.668H3.068z M2.046,9.205v1.022h3.398
		C5.498,9.873,5.58,9.528,5.713,9.205H2.046z M7.403,7.16H2.046v1.022h4.273C6.626,7.787,6.984,7.437,7.403,7.16z"/>
	<g>
		<path fill="#6F7985" d="M10.159,13.125l-0.133,0.003C10.069,13.129,10.112,13.129,10.159,13.125z"/>
		<polygon fill="#6F7985" stroke="#6F7985" stroke-width="0.1791" stroke-miterlimit="10" points="9.918,12.811 9.957,15.999 
			12.329,14.378 		"/>
		<path fill="#6F7985" stroke="#6F7985" stroke-width="0.1791" stroke-miterlimit="10" d="M13.663,12.526l-0.616-0.604
			c0.246-0.953-0.01-2.007-0.762-2.743c-1.124-1.094-2.919-1.073-4.013,0.046c-1.098,1.121-1.078,2.919,0.043,4.016
			c0.575,0.557,1.32,0.825,2.061,0.806l0.704,0.688c-1.146,0.256-2.399-0.057-3.304-0.941c-1.427-1.396-1.455-3.68-0.059-5.108
			c1.394-1.426,3.678-1.452,5.106-0.059C13.895,9.673,14.176,11.219,13.663,12.526z"/>
	</g>
</g>
</svg>
