<?xml version="1.0" encoding="utf-8"?>
<!-- Generator: Adobe Illustrator 16.0.0, SVG Export Plug-In . SVG Version: 6.00 Build 0)  -->
<!DOCTYPE svg PUBLIC "-//W3C//DTD SVG 1.1//EN" "http://www.w3.org/Graphics/SVG/1.1/DTD/svg11.dtd">
<svg version="1.1" id="图层_1" xmlns="http://www.w3.org/2000/svg" xmlns:xlink="http://www.w3.org/1999/xlink" x="0px" y="0px"
	 width="16px" height="16px" viewBox="0 0 16 16" enable-background="new 0 0 16 16" xml:space="preserve">
<g>
	<path fill="#6F7985" d="M8.882,14.051c0.033-0.033,0.069-0.066,0.106-0.096l0.268-0.211c-0.061-0.05-0.121-0.104-0.18-0.162
		c-0.549-0.553-0.764-1.362-0.562-2.113C8.613,11.1,8.9,10.812,9.27,10.714c0.01-0.004,0.021-0.007,0.031-0.009
		c0.004-0.01,0.006-0.021,0.008-0.029c0.1-0.369,0.385-0.656,0.752-0.755c0.09-0.024,0.182-0.024,0.273-0.037V9.234V0H1.365v15.375
		h5.798c-0.004-0.004,0.583-0.004,1.253-0.004c0-0.021,0.011-0.04,0.011-0.061C8.392,14.854,8.541,14.403,8.882,14.051z
		 M2.641,1.285h6.416V2.82H2.641V1.285z M2.641,4.104h6.416V5.64H2.641V4.104z M5.853,13.39c-0.534,0-0.968-0.434-0.968-0.959
		c0-0.534,0.434-0.968,0.968-0.968c0.526,0,0.959,0.434,0.959,0.968C6.812,12.956,6.379,13.39,5.853,13.39z M2.641,8.459V6.924
		h6.416v1.535H2.641z"/>
	<path fill="#86CC16" d="M12.592,13.321l1.447-1.446h0.197l0.398-0.794l-0.199-0.198l-0.795,0.398v0.198l-1.494,1.493l-0.531-0.413
		c0.227-0.424,0.166-0.964-0.193-1.322c-0.293-0.294-0.707-0.388-1.082-0.286l0.684,0.685v0.795H10.23l-0.686-0.687
		c-0.1,0.375-0.006,0.788,0.287,1.085c0.359,0.358,0.898,0.417,1.322,0.191l0.287,0.363l-1.793,1.409
		c-0.324,0.336-0.121,0.703,0.02,0.862l0.176,0.177c0.156,0.138,0.473,0.198,0.863,0.05l1.344-1.725l1.314,1.669
		c0.336,0.323,0.703,0.123,0.861-0.017l0.18-0.18c0.135-0.154,0.34-0.472,0.047-0.863L12.592,13.321z M13.984,15.39
		c-0.092,0.092-0.24,0.092-0.332,0s-0.092-0.241,0-0.333s0.24-0.092,0.332,0S14.076,15.298,13.984,15.39z"/>
</g>
</svg>
