<?xml version="1.0" encoding="utf-8"?>
<!-- Generator: Adobe Illustrator 16.0.0, SVG Export Plug-In . SVG Version: 6.00 Build 0)  -->
<!DOCTYPE svg PUBLIC "-//W3C//DTD SVG 1.1//EN" "http://www.w3.org/Graphics/SVG/1.1/DTD/svg11.dtd">
<svg version="1.1" id="图层_1" xmlns="http://www.w3.org/2000/svg" xmlns:xlink="http://www.w3.org/1999/xlink" x="0px" y="0px"
	 width="16px" height="16px" viewBox="0 0 16 16" enable-background="new 0 0 16 16" xml:space="preserve">
<g>
	<path fill="#6F7985" d="M8.893,14.733c-0.676-0.135-1.164-0.731-1.164-1.417v-1.55c0-0.805,0.65-1.459,1.451-1.459h0.672V0H0.518
		v16h9.334v-1.247H9.088C9.021,14.753,8.957,14.746,8.893,14.733z M1.852,1.332h6.666v1.602H1.852V1.332z M1.852,4.266h6.666v1.6
		H1.852V4.266z M1.852,7.199h6.666v1.6H1.852V7.199z M5.721,14.15H4.723L3.99,10.816h0.84l0.396,2.576h0.01l0.4-2.576h0.842
		L5.721,14.15z"/>
	<path fill="#6F7985" d="M14.998,9.099h-1.629c-0.268,0-0.484,0.221-0.484,0.49v1.082l-1.762,0.955
		c-0.061-0.183-0.225-0.318-0.424-0.318H9.18c-0.25,0-0.451,0.207-0.451,0.459v1.55c0,0.222,0.156,0.396,0.359,0.437h0.648v0.001
		h0.404v-0.001h0.58c0.172-0.007,0.314-0.104,0.385-0.248l1.32,1.059v1.06c0,0.19,0.135,0.34,0.309,0.375h0.557V16h0.346v-0.002
		h0.496c0.205-0.01,0.369-0.164,0.369-0.375v-1.327c0-0.216-0.174-0.394-0.387-0.394h-1.303c-0.143,0-0.262,0.082-0.328,0.198
		l-1.334-1.067v-0.971l1.734-0.939v0.126c0,0.239,0.168,0.426,0.387,0.471h0.695v0.001H14.4V11.72h0.621
		c0.256-0.013,0.461-0.205,0.461-0.471v-1.66C15.482,9.319,15.264,9.099,14.998,9.099z"/>
</g>
</svg>
