<?xml version="1.0" encoding="utf-8"?>
<!-- Generator: Adobe Illustrator 16.0.0, SVG Export Plug-In . SVG Version: 6.00 Build 0)  -->
<!DOCTYPE svg PUBLIC "-//W3C//DTD SVG 1.1//EN" "http://www.w3.org/Graphics/SVG/1.1/DTD/svg11.dtd">
<svg version="1.1" id="图层_1" xmlns="http://www.w3.org/2000/svg" xmlns:xlink="http://www.w3.org/1999/xlink" x="0px" y="0px"
	 width="16px" height="16px" viewBox="0 0 16 16" enable-background="new 0 0 16 16" xml:space="preserve">
<g>
	<path fill="none" stroke="#6F7985" stroke-width="0.5" stroke-miterlimit="10" d="M5.795,12.553c5.393,0,8.186,0.441,8.186-1.961
		c0-2.4-6.666-1.568-6.666-3.528c0-1.216,1.207-1.527,2.871-1.588"/>
	<g>
		<path fill-rule="evenodd" clip-rule="evenodd" fill="#6F7985" d="M10.305,2.85h5.459C15.895,2.85,16,2.957,16,3.086v3.688
			c0,0.131-0.105,0.236-0.236,0.236c-1.82,0-3.641,0-5.459,0c-0.131,0-0.236-0.105-0.236-0.236V3.086
			C10.068,2.957,10.174,2.85,10.305,2.85L10.305,2.85z M11.775,7.848c0.84,0,1.678,0,2.518,0V7.562h-0.455
			c-0.033-0.157-0.092-0.325-0.17-0.406H12.4c-0.08,0.081-0.137,0.249-0.17,0.406h-0.455V7.848L11.775,7.848z M12.943,6.749v0.162
			h0.18V6.749H12.943z M15.689,6.656h-5.307V3.207h5.307V6.656z"/>
	</g>
	<rect x="10.805" y="3.683" fill-rule="evenodd" clip-rule="evenodd" fill="#6F7985" width="4.479" height="2.513"/>
	<path fill="#6F7985" d="M4.141,11.037c0-1.04,0.478-1.962,1.213-2.589H0.895V7.374h4.48v1.057c0.27-0.227,0.566-0.42,0.896-0.555
		V2.535H0v10.752h0.447h4.56C4.475,12.685,4.141,11.902,4.141,11.037z M0.895,3.431h4.48v1.075h-4.48V3.431z M0.895,5.403h4.48
		v1.073h-4.48V5.403z M3.135,12.202c-0.381,0-0.691-0.31-0.691-0.691s0.311-0.691,0.691-0.691c0.383,0,0.691,0.31,0.691,0.691
		S3.518,12.202,3.135,12.202z"/>
	<path fill="#F74848" d="M7.559,8.446c-1.387,0-2.511,1.123-2.511,2.51c0,1.386,1.124,2.509,2.511,2.509
		c1.386,0,2.509-1.123,2.509-2.509C10.067,9.569,8.944,8.446,7.559,8.446z M8.579,12.427l-1.021-1.021l-1.021,1.021l-0.449-0.449
		l1.021-1.021L6.087,9.935l0.449-0.449l1.021,1.021l1.021-1.021l0.448,0.449l-1.021,1.021l1.021,1.021L8.579,12.427z"/>
</g>
</svg>
