<?xml version="1.0" encoding="utf-8"?>
<!-- Generator: Adobe Illustrator 16.0.0, SVG Export Plug-In . SVG Version: 6.00 Build 0)  -->
<!DOCTYPE svg PUBLIC "-//W3C//DTD SVG 1.1//EN" "http://www.w3.org/Graphics/SVG/1.1/DTD/svg11.dtd">
<svg version="1.1" id="图层_1" xmlns="http://www.w3.org/2000/svg" xmlns:xlink="http://www.w3.org/1999/xlink" x="0px" y="0px"
	 width="16px" height="16px" viewBox="0 0 16 16" enable-background="new 0 0 16 16" xml:space="preserve">
<path fill="#6F7985" d="M8.069,7.789L7.708,9.735h0.746L8.081,7.789H8.069z M14.786,6.017c-0.996-0.995-2.372-1.374-3.66-1.143
	c-0.164-0.257-0.352-0.504-0.575-0.728c-1.648-1.647-4.319-1.647-5.968,0c-0.496,0.498-0.836,1.09-1.031,1.717
	C1.585,5.898,0,7.498,0,9.474c0,1.963,1.563,3.549,3.511,3.605v0.01h8.498v-0.012c1.008-0.037,2.006-0.43,2.776-1.199
	C16.403,10.259,16.405,7.636,14.786,6.017z M6.224,9.802c0,0.943-0.263,1.646-1.535,1.646c-1.316,0-1.42-0.984-1.42-2.301
	c0-1.12,0.061-2.239,1.518-2.239c0.906,0,1.401,0.392,1.401,1.419v0.184H5.196c0-0.636-0.074-0.918-0.416-0.918
	c-0.41,0-0.447,0.392-0.447,1.537c0,1.297,0.043,1.633,0.471,1.633c0.38,0,0.423-0.434,0.43-1.113h0.99V9.802z M8.767,11.362
	L8.607,10.53H7.562l-0.154,0.832H6.343l1.114-4.369h1.284l1.09,4.369H8.767z M11.456,11.448c-0.747,0-1.438-0.227-1.438-1.139
	v-0.281h0.991v0.154c0,0.33,0.092,0.58,0.447,0.58c0.361,0,0.465-0.27,0.465-0.52c0-0.943-1.879-0.416-1.879-2.051
	c0-0.697,0.373-1.284,1.432-1.284c1.028,0,1.396,0.52,1.396,1.192v0.104h-0.991c0-0.208-0.024-0.361-0.086-0.459
	c-0.061-0.104-0.158-0.153-0.312-0.153c-0.256,0-0.409,0.153-0.409,0.472c0,0.911,1.878,0.452,1.878,1.995
	C12.948,11.05,12.397,11.448,11.456,11.448z"/>
</svg>
