<?xml version="1.0" encoding="utf-8"?>
<!-- Generator: Adobe Illustrator 16.0.0, SVG Export Plug-In . SVG Version: 6.00 Build 0)  -->
<!DOCTYPE svg PUBLIC "-//W3C//DTD SVG 1.1//EN" "http://www.w3.org/Graphics/SVG/1.1/DTD/svg11.dtd">
<svg version="1.1" id="图层_1" xmlns="http://www.w3.org/2000/svg" xmlns:xlink="http://www.w3.org/1999/xlink" x="0px" y="0px"
	 width="16px" height="16px" viewBox="0 0 16 16" enable-background="new 0 0 16 16" xml:space="preserve">
<g>
	<path fill="#6F7985" d="M9.643,11.244l0.203-0.771c0,0,0.1-0.181,0.264-0.345s0.312-0.23,0.312-0.23l0.771-0.203
		c0.186-0.049,0.377-0.073,0.566-0.073c0.242,0,0.477,0.048,0.699,0.123V6.646H10.68V5.938h-0.016V3.89C10.279,1.685,8.36,0,6.04,0
		c-2.318,0-4.24,1.685-4.624,3.89H1.415v2.049H1.4v0.707H0.01V16h9.777c-0.393-0.669-0.316-1.428,0.217-1.974l0.045-0.047
		l0.467-0.368c-0.109-0.076-0.215-0.163-0.311-0.26C9.658,12.805,9.443,11.998,9.643,11.244z M2.431,6.646V4.047h0.001
		C2.733,2.326,4.229,1.014,6.04,1.014s3.31,1.312,3.607,3.033h0.002v2.599H2.431z"/>
	<path fill="#6F7985" d="M13.832,13.166l1.527-1.528h0.209l0.422-0.841l-0.211-0.209l-0.84,0.422v0.209l-1.58,1.58l-0.562-0.438
		c0.24-0.447,0.176-1.019-0.203-1.396c-0.311-0.311-0.748-0.407-1.145-0.303l0.725,0.724v0.84h-0.842L10.609,11.5
		c-0.105,0.397-0.006,0.835,0.303,1.145c0.379,0.38,0.949,0.443,1.398,0.203l0.303,0.384l-1.893,1.492
		c-0.344,0.354-0.131,0.742,0.018,0.911l0.188,0.188c0.164,0.143,0.5,0.208,0.912,0.05l1.42-1.823l1.389,1.766
		c0.357,0.344,0.744,0.129,0.912-0.02l0.189-0.189c0.145-0.161,0.359-0.499,0.051-0.91L13.832,13.166z M15.301,15.354
		c-0.096,0.096-0.254,0.096-0.35,0c-0.098-0.098-0.098-0.255,0-0.352c0.096-0.098,0.254-0.098,0.352,0
		C15.398,15.1,15.398,15.257,15.301,15.354z"/>
</g>
</svg>
