<?xml version="1.0" encoding="utf-8"?>
<!-- Generator: Adobe Illustrator 16.0.0, SVG Export Plug-In . SVG Version: 6.00 Build 0)  -->
<!DOCTYPE svg PUBLIC "-//W3C//DTD SVG 1.1//EN" "http://www.w3.org/Graphics/SVG/1.1/DTD/svg11.dtd">
<svg version="1.1" id="图层_1" xmlns="http://www.w3.org/2000/svg" xmlns:xlink="http://www.w3.org/1999/xlink" x="0px" y="0px"
	 width="16px" height="16px" viewBox="0 0 16 16" enable-background="new 0 0 16 16" xml:space="preserve">
<g>
	<path fill="#6F7985" d="M11.258,6.875h-0.881l0.631-0.628c0.175-0.173,0.175-0.452,0-0.624l-0.712-0.72
		c-0.087-0.082-0.2-0.122-0.313-0.122c-0.114,0-0.229,0.04-0.314,0.122L9.042,5.531V4.663c0-0.249-0.2-0.446-0.444-0.446H7.27
		c-0.247,0-0.443,0.197-0.443,0.446v0.88L6.198,4.917c-0.086-0.089-0.2-0.133-0.314-0.133c-0.11,0-0.224,0.044-0.311,0.133
		l-0.717,0.71c-0.081,0.083-0.128,0.2-0.128,0.318c0,0.113,0.047,0.227,0.128,0.311l0.622,0.618h-0.87
		c-0.244,0-0.446,0.198-0.446,0.447v1.327c0,0.242,0.202,0.443,0.446,0.443h0.87L4.853,9.719c-0.179,0.172-0.179,0.451,0,0.625
		l0.711,0.711c0.087,0.088,0.2,0.131,0.314,0.131s0.227-0.043,0.314-0.131l0.634-0.631v0.883c0,0.246,0.196,0.443,0.443,0.443h1.328
		c0.244,0,0.444-0.197,0.444-0.443v-0.883l0.63,0.637c0.085,0.082,0.196,0.127,0.314,0.127s0.232-0.045,0.312-0.127l0.716-0.717
		c0.084-0.078,0.131-0.193,0.131-0.309c0-0.119-0.047-0.232-0.131-0.314l-0.629-0.629h0.872c0.246,0,0.444-0.202,0.444-0.443V7.321
		C11.702,7.072,11.504,6.875,11.258,6.875z M7.931,9.859c-1.037,0-1.874-0.836-1.874-1.875c0-1.038,0.837-1.879,1.874-1.879
		c1.039,0,1.877,0.841,1.877,1.879C9.808,9.023,8.97,9.859,7.931,9.859z"/>
	<path fill="#6F7985" d="M14.341,4.294l-0.231-0.39c-1.333-2.247-3.787-3.643-6.406-3.643c-1.105,0-2.178,0.242-3.185,0.721
		c-1.616,0.769-2.88,2.069-3.602,3.695l1.56,0.638c0.561-1.233,1.526-2.22,2.765-2.81C6.016,2.139,6.84,1.953,7.689,1.953
		c1.938,0,3.735,0.968,4.807,2.592l0.315,0.476l-1.075,0.512l3.247,2.074l0.442-3.828L14.341,4.294z M10.156,12.92
		c-0.766,0.359-1.578,0.541-2.417,0.541c-1.935,0-3.731-0.969-4.804-2.594L2.62,10.393l1.07-0.51L0.442,7.809L0,11.639l1.086-0.518
		l0.23,0.391c1.333,2.246,3.787,3.641,6.406,3.643c0.001,0,0.001,0,0.001,0c0.673,0,1.331-0.102,1.972-0.279
		c0.005-0.389,0.156-0.766,0.453-1.072l0.047-0.049l0.438-0.344c-0.102-0.072-0.198-0.154-0.289-0.244
		C10.271,13.092,10.219,13.002,10.156,12.92z"/>
	<path fill="#6F7985" d="M15.591,11.486L16,10.666l-0.204-0.203l-0.82,0.408v0.205l-1.54,1.541l-0.548-0.428
		c0.233-0.438,0.171-0.992-0.198-1.361c-0.304-0.303-0.729-0.398-1.116-0.297l0.704,0.707v0.818h-0.818l-0.703-0.705
		c-0.104,0.387-0.008,0.812,0.293,1.113c0.37,0.373,0.926,0.436,1.364,0.199l0.295,0.375l-1.846,1.455
		c-0.336,0.346-0.126,0.725,0.018,0.889l0.184,0.184c0.159,0.141,0.487,0.205,0.891,0.049l1.383-1.777l1.355,1.721
		c0.348,0.334,0.724,0.125,0.887-0.018l0.186-0.184c0.14-0.16,0.352-0.488,0.049-0.891l-1.917-1.492l1.49-1.488H15.591z
		 M14.987,14.766c0.096-0.094,0.248-0.094,0.344,0c0.093,0.094,0.093,0.248,0,0.344c-0.096,0.094-0.248,0.094-0.344,0
		C14.894,15.014,14.894,14.859,14.987,14.766z"/>
</g>
</svg>
