<?xml version="1.0" encoding="utf-8"?>
<!-- Generator: Adobe Illustrator 16.0.0, SVG Export Plug-In . SVG Version: 6.00 Build 0)  -->
<!DOCTYPE svg PUBLIC "-//W3C//DTD SVG 1.1//EN" "http://www.w3.org/Graphics/SVG/1.1/DTD/svg11.dtd">
<svg version="1.1" id="图层_1" xmlns="http://www.w3.org/2000/svg" xmlns:xlink="http://www.w3.org/1999/xlink" x="0px" y="0px"
	 width="16px" height="16px" viewBox="0 0 16 16" enable-background="new 0 0 16 16" xml:space="preserve">
<g>
	<path fill="#6F7985" d="M9.511,2.013L6.183,0.588L3.328,2.013L0,0.588v10.938l3.328,1.424l2.854-1.424l2.84,1.215l0.018,0.008
		c-0.01-0.112-0.035-0.221-0.035-0.335c0-1.983,1.46-3.623,3.36-3.93V0.588L9.511,2.013z M8.985,8.752H3.379V7.772h5.606V8.752z
		 M8.985,7.238H3.379V6.258h5.606V7.238z M8.985,5.767H3.379v-0.98h5.606V5.767z"/>
	<path fill="#6F7985" d="M13.002,9.419c-1.653,0-2.998,1.341-2.998,2.995c0,1.655,1.345,2.998,2.998,2.998
		c1.655,0,2.998-1.343,2.998-2.998C16,10.76,14.657,9.419,13.002,9.419z M14.785,12.944h-1.241v1.208h-1.085v-1.208H11.22v-1.058
		h1.239v-1.208h1.085v1.208h1.241V12.944z"/>
</g>
</svg>
