<?xml version="1.0" encoding="utf-8"?>
<!-- Generator: Adobe Illustrator 16.0.0, SVG Export Plug-In . SVG Version: 6.00 Build 0)  -->
<!DOCTYPE svg PUBLIC "-//W3C//DTD SVG 1.1//EN" "http://www.w3.org/Graphics/SVG/1.1/DTD/svg11.dtd">
<svg version="1.1" id="图层_1" xmlns="http://www.w3.org/2000/svg" xmlns:xlink="http://www.w3.org/1999/xlink" x="0px" y="0px"
	 width="16px" height="16px" viewBox="0 0 16 16" enable-background="new 0 0 16 16" xml:space="preserve">
<g>
	<path fill="#6F7985" d="M8.458,13.582c0-1.594,1.104-2.928,2.584-3.301V0H1.71v16h7.753C8.843,15.381,8.458,14.525,8.458,13.582z
		 M3.042,1.333H9.71v1.601H3.042V1.333z M3.042,4.267H9.71v1.6H3.042V4.267z M3.042,7.2H9.71v1.6H3.042V7.2z M6.913,14.15h-1
		l-0.732-3.334h0.84l0.398,2.576h0.008l0.402-2.576h0.84L6.913,14.15z"/>
	<path fill="#FF8518" d="M11.876,11.168c-1.334,0-2.415,1.082-2.415,2.416c0,1.33,1.081,2.412,2.415,2.412
		c1.332,0,2.414-1.082,2.414-2.412C14.29,12.25,13.208,11.168,11.876,11.168z M11.896,15.244c-0.247,0-0.448-0.203-0.448-0.453
		c0-0.246,0.201-0.447,0.448-0.447c0.25,0,0.451,0.201,0.451,0.447C12.347,15.041,12.146,15.244,11.896,15.244z M12.413,13.648
		c-0.125,0.08-0.138,0.131-0.138,0.172v0.363c0,0.08-0.065,0.145-0.145,0.145h-0.466c-0.08,0-0.145-0.064-0.145-0.145v-0.537
		c0-0.219,0.084-0.369,0.271-0.49l0.26-0.176c0.055-0.037,0.066-0.094,0.069-0.123c0.005-0.049-0.011-0.086-0.028-0.104
		c-0.051-0.049-0.128-0.078-0.209-0.078c-0.239,0.041-0.284,0.117-0.284,0.363c0,0.08-0.063,0.236-0.144,0.236h-0.465
		c-0.08,0-0.145-0.064-0.145-0.145c0-0.404,0.041-0.631,0.287-0.9c0.182-0.201,0.432-0.307,0.725-0.307
		c0.089,0,0.18,0.01,0.273,0.029c0.375,0.078,0.773,0.43,0.773,0.926C12.905,13.348,12.56,13.559,12.413,13.648z"/>
</g>
</svg>
