<?xml version="1.0" encoding="utf-8"?>
<!-- Generator: Adobe Illustrator 16.0.0, SVG Export Plug-In . SVG Version: 6.00 Build 0)  -->
<!DOCTYPE svg PUBLIC "-//W3C//DTD SVG 1.1//EN" "http://www.w3.org/Graphics/SVG/1.1/DTD/svg11.dtd">
<svg version="1.1" id="图层_1" xmlns="http://www.w3.org/2000/svg" xmlns:xlink="http://www.w3.org/1999/xlink" x="0px" y="0px"
	 width="16px" height="16px" viewBox="0 0 16 16" enable-background="new 0 0 16 16" xml:space="preserve">
<g>
	<path fill="#6F7985" d="M11.078,5.538H9.231V1.23h1.847V5.538z M16,3.692v10.462C16,15.174,15.174,16,14.154,16H1.847
		C0.827,16,0,15.174,0,14.154V1.846C0,0.826,0.827,0,1.847,0h10.462c0.51,0,0.791,0.026,2.229,1.464S16,3.183,16,3.692z
		 M3.078,5.538c0,0.339,0.275,0.616,0.615,0.616h8c0.339,0,0.615-0.277,0.615-0.616V1.23c0-0.339-0.276-0.615-0.615-0.615h-8
		c-0.34,0-0.615,0.276-0.615,0.615V5.538z M14.154,8.615C14.154,8.276,13.879,8,13.539,8H2.462C2.123,8,1.847,8.276,1.847,8.615
		v6.154c0,0.339,0.276,0.615,0.615,0.615h11.077c0.34,0,0.615-0.276,0.615-0.615V8.615z"/>
</g>
</svg>
