<?xml version="1.0" encoding="utf-8"?>
<!-- Generator: Adobe Illustrator 16.0.0, SVG Export Plug-In . SVG Version: 6.00 Build 0)  -->
<!DOCTYPE svg PUBLIC "-//W3C//DTD SVG 1.1//EN" "http://www.w3.org/Graphics/SVG/1.1/DTD/svg11.dtd">
<svg version="1.1" id="图层_1" xmlns="http://www.w3.org/2000/svg" xmlns:xlink="http://www.w3.org/1999/xlink" x="0px" y="0px"
	 width="16px" height="16px" viewBox="0 0 16 16" enable-background="new 0 0 16 16" xml:space="preserve">
<g>
	<g>
		<path fill="#DFD714" d="M14.151,11.147C13.188,10.314,12.5,8.1,12.5,5.5c0-1.969-1.265-3.637-3.024-4.251C9.358,0.544,8.743,0,8,0
			S6.642,0.544,6.524,1.249C4.765,1.863,3.5,3.531,3.5,5.5c0,2.6-0.688,4.814-1.651,5.647c-0.539,0.466-0.85,1.139-0.85,1.854
			c0,0.827,0.672,1.5,1.5,1.5h4.002C6.501,15.33,7.171,16,8,16s1.499-0.67,1.499-1.499h4.003c0.827,0,1.499-0.673,1.499-1.5
			C15.001,12.286,14.692,11.613,14.151,11.147z"/>
	</g>
	<path fill="#FFFFFF" d="M8,12.598c-0.733,0-1.329-0.594-1.329-1.326S7.267,9.938,8,9.938c0.734,0,1.329,0.602,1.329,1.334
		S8.734,12.598,8,12.598z M9.255,6.158L8.952,8.574C8.931,8.756,8.776,8.889,8.594,8.889H7.405c-0.185,0-0.338-0.133-0.359-0.314
		L6.749,6.189L6.671,3.777C6.667,3.68,6.703,3.586,6.772,3.514c0.068-0.07,0.162-0.111,0.259-0.111H8.97
		c0.096,0,0.189,0.041,0.259,0.111C9.297,3.586,9.333,3.68,9.329,3.777L9.255,6.158z"/>
</g>
</svg>
