<?xml version="1.0" encoding="utf-8"?>
<!-- Generator: Adobe Illustrator 19.2.1, SVG Export Plug-In . SVG Version: 6.00 Build 0)  -->
<svg version="1.1" id="图层_1" xmlns="http://www.w3.org/2000/svg" xmlns:xlink="http://www.w3.org/1999/xlink" x="0px" y="0px" width="16px" height="16px" 
	 viewBox="0 0 16 16" style="enable-background:new 0 0 16 16;" xml:space="preserve">
<g>
	<path fill="#6F7985" d="M0.7,10.9L2.6,11c1,1.9,2.9,3.2,5.2,3.3c3.4,0.1,6.2-2.5,6.4-5.9s-2.5-6.2-5.9-6.4C6.9,2,5.6,2.4,4.6,3.1l1.8,1.9L0.2,6
		l1.5-6l1.8,1.9c1.4-1,3.1-1.6,4.9-1.5c4.3,0.2,7.6,3.8,7.5,8.1c-0.2,4.3-3.8,7.6-8.1,7.5C4.4,15.9,1.8,13.8,0.7,10.9z"/>
	<path fill="#6F7985" d="M11.3,10.9L9,8.3c0,0,0,0,0,0c0-0.4-0.2-0.8-0.6-1L8.3,4.3c0-0.1-0.1-0.4-0.4-0.4c-0.3,0-0.4,0.3-0.4,0.4L7.3,7.4
		C7,7.6,6.8,7.9,6.8,8.3c0,0.6,0.5,1.1,1.1,1.1c0,0,0.1,0,0.1,0l2.5,2.2c0.1,0.1,0.4,0.2,0.7-0.1C11.5,11.3,11.4,11,11.3,10.9z"/>
</g>
</svg>
