<?xml version="1.0" encoding="utf-8"?>
<!-- Generator: Adobe Illustrator 16.0.0, SVG Export Plug-In . SVG Version: 6.00 Build 0)  -->
<!DOCTYPE svg PUBLIC "-//W3C//DTD SVG 1.1//EN" "http://www.w3.org/Graphics/SVG/1.1/DTD/svg11.dtd">
<svg version="1.1" id="图层_1" xmlns="http://www.w3.org/2000/svg" xmlns:xlink="http://www.w3.org/1999/xlink" x="0px" y="0px"
	 width="16px" height="16px" viewBox="0 0 16 16" enable-background="new 0 0 16 16" xml:space="preserve">
<g>
	<path fill="#6F7985" d="M8.472,11.673l2.302-2.408l1.255,1.596l3.577-2.918l0.321,0.316c0.041-0.236,0.071-0.479,0.071-0.729
		c0-2.266-1.823-4.103-4.083-4.136c0.294,0.573,0.475,1.214,0.475,1.904c0,1.577-0.875,2.936-2.158,3.659
		c0.775-0.639,1.318-1.538,1.484-2.574c0.038-0.218,0.067-0.439,0.067-0.669c0-0.462-0.093-0.899-0.23-1.317
		c-0.013-0.035-0.021-0.074-0.034-0.111c-0.001,0-0.001-0.001-0.001-0.001c-0.036-0.101-0.069-0.202-0.113-0.3
		c0-0.002-0.001-0.002-0.001-0.004c-0.074-0.162-0.162-0.318-0.257-0.471c-0.742-1.204-2.062-2.014-3.581-2.014
		s-2.845,0.805-3.586,2.01c1.914,0.092,3.441,1.658,3.441,3.598c0,0.414-0.084,0.808-0.213,1.179C7.212,8.208,7.23,8.136,7.23,8.058
		c0-0.598-0.159-1.152-0.415-1.648C6.797,6.372,6.776,6.335,6.757,6.298C6.137,5.195,4.97,4.442,3.616,4.442
		C1.618,4.442,0,6.06,0,8.058c0,1.961,1.563,3.547,3.509,3.604v0.011H8.472z"/>
	<polygon fill="#86CC16" points="16,9.738 15.542,9.285 11.872,12.278 10.7,10.789 9.768,11.765 11.872,14.503 	"/>
</g>
</svg>
