<?xml version="1.0" encoding="utf-8"?>
<!-- Generator: Adobe Illustrator 16.0.0, SVG Export Plug-In . SVG Version: 6.00 Build 0)  -->
<!DOCTYPE svg PUBLIC "-//W3C//DTD SVG 1.1//EN" "http://www.w3.org/Graphics/SVG/1.1/DTD/svg11.dtd">
<svg version="1.1" id="图层_1" xmlns="http://www.w3.org/2000/svg" xmlns:xlink="http://www.w3.org/1999/xlink" x="0px" y="0px"
	 width="16px" height="16px" viewBox="0 0 16 16" enable-background="new 0 0 16 16" xml:space="preserve">
<g>
	<path fill="#6F7985" d="M7.11,10.648h3.08V9.768H9.555l-0.565,0.71l-0.131-0.71H7.11V10.648z M3.132,9.192
		c-0.271,0.11-1.309,0.621-1.415,0.903c-0.101,0.256-0.104,0.549-0.104,0.549h3.959c0,0,0.012-0.293-0.087-0.549
		C5.376,9.813,4.36,9.303,4.086,9.192C4.069,9.185,3.943,9.14,3.943,9.116V8.848c0.232-0.24,0.578-0.705,0.641-1.267
		c0.097-0.83-0.349-1.504-0.947-1.508H3.605C2.908,6.077,2.574,6.756,2.67,7.585c0.065,0.561,0.34,1.022,0.57,1.263v0.269
		C3.24,9.14,3.153,9.185,3.132,9.192z M7.11,6.263v0.879h1.436c0.025-0.312,0.082-0.604,0.16-0.879H7.11z M12.704,8.983v2.688
		c0,0.172-0.14,0.312-0.311,0.312H1.212c-0.171,0-0.31-0.14-0.31-0.312V5.064c0-0.17,0.139-0.31,0.31-0.31h8.259
		c0.269-0.356,0.561-0.656,0.852-0.902h-9.11C0.543,3.853,0,4.396,0,5.064v6.606c0,0.669,0.543,1.214,1.212,1.214h11.182
		c0.669,0,1.212-0.545,1.212-1.214v-3.53L12.704,8.983z M7.11,8.905h1.589L8.595,8.338c-0.019-0.103-0.03-0.205-0.042-0.309
		c0-0.001,0-0.002,0-0.003H7.11V8.905z"/>
	<path fill="#6F7985" d="M16,4.547l-4.041-1.432l0.156,0.746c0,0-2.851,1.198-2.576,4.064c0.008,0.079,0.017,0.156,0.03,0.232
		c0,0,0.093-0.117,0.251-0.288c0.525-0.57,1.764-1.759,2.82-1.485l0.227,1.089L16,4.547z"/>
</g>
</svg>
