<?xml version="1.0" encoding="utf-8"?>
<!-- Generator: Adobe Illustrator 16.0.0, SVG Export Plug-In . SVG Version: 6.00 Build 0)  -->
<!DOCTYPE svg PUBLIC "-//W3C//DTD SVG 1.1//EN" "http://www.w3.org/Graphics/SVG/1.1/DTD/svg11.dtd">
<svg version="1.1" id="图层_1" xmlns="http://www.w3.org/2000/svg" xmlns:xlink="http://www.w3.org/1999/xlink" x="0px" y="0px"
	 width="16px" height="16px" viewBox="0 0 16 16" enable-background="new 0 0 16 16" xml:space="preserve">
<g>
	<g>
		<path fill="#6F7985" d="M12.529,10.451l2.205,2.801c0.336,0.323,0.7,0.121,0.857-0.019l0.181-0.177
			c0.134-0.155,0.339-0.473,0.047-0.861l-2.831-2.202c0.225-0.424,0.165-0.96-0.191-1.317c-0.294-0.293-0.706-0.387-1.08-0.288
			l0.683,0.686v0.79h-0.793l-0.681-0.683c-0.101,0.374-0.009,0.787,0.284,1.079C11.567,10.619,12.105,10.68,12.529,10.451z
			 M15.02,12.817c-0.09-0.094-0.09-0.242,0-0.332c0.093-0.092,0.24-0.092,0.332,0c0.09,0.09,0.09,0.238,0,0.332
			C15.26,12.906,15.112,12.906,15.02,12.817z"/>
		<path fill="#6F7985" d="M13.219,10.496l0.245-0.036l1.544-1.546V8.718l0.794-0.396L16,8.52l-0.397,0.793h-0.196l-1.566,1.563
			l-0.029,0.211l-1.726,2.22c-0.391,0.15-0.707,0.088-0.862-0.047l-0.177-0.18c-0.139-0.158-0.343-0.523-0.019-0.859L13.219,10.496z
			"/>
	</g>
	<path fill="#6F7985" d="M6.57,7.311c0.643,0,1.165-0.527,1.165-1.169V5.154V2.156V1.158c0-0.638-0.522-1.159-1.165-1.159
		c-0.644,0-1.165,0.521-1.165,1.159v0.998v2.998v0.987C5.405,6.783,5.926,7.311,6.57,7.311z"/>
	<path fill="#6F7985" d="M10.025,9.896c-0.004,0.003-0.006,0.006-0.008,0.01c-0.87,0.924-2.043,1.454-3.448,1.492
		c-1.209,0-2.356-0.457-3.241-1.282c-0.92-0.87-1.454-2.044-1.489-3.303C1.791,5.332,2.42,3.948,3.567,3.004
		c0.191-0.155,0.305-0.373,0.331-0.62c0.027-0.242-0.05-0.477-0.204-0.669c-0.173-0.213-0.433-0.34-0.711-0.34
		c-0.208,0-0.416,0.074-0.578,0.213C0.812,2.891-0.062,4.812,0.003,6.869c0.059,1.757,0.793,3.386,2.071,4.582
		c1.219,1.15,2.814,1.784,4.486,1.784l0.216-0.005c1.667-0.053,3.222-0.729,4.404-1.901c-0.229-0.1-0.439-0.24-0.62-0.422
		C10.28,10.628,10.105,10.273,10.025,9.896z"/>
	<path fill="#6F7985" d="M12.009,7.433c0.375,0,0.731,0.107,1.045,0.296c0.067-0.416,0.096-0.841,0.082-1.271
		c-0.062-1.904-0.948-3.695-2.434-4.9c-0.162-0.129-0.365-0.2-0.578-0.2c-0.276,0-0.537,0.119-0.714,0.335
		C9.09,2.087,9.154,2.669,9.543,2.984c1.076,0.869,1.71,2.155,1.753,3.535c0.012,0.359-0.026,0.71-0.093,1.055l0.279-0.073
		C11.654,7.455,11.831,7.433,12.009,7.433z"/>
</g>
</svg>
