<?xml version="1.0" encoding="utf-8"?>
<!-- Generator: Adobe Illustrator 16.0.0, SVG Export Plug-In . SVG Version: 6.00 Build 0)  -->
<!DOCTYPE svg PUBLIC "-//W3C//DTD SVG 1.1//EN" "http://www.w3.org/Graphics/SVG/1.1/DTD/svg11.dtd">
<svg version="1.1" id="图层_1" xmlns="http://www.w3.org/2000/svg" xmlns:xlink="http://www.w3.org/1999/xlink" x="0px" y="0px"
	 width="16px" height="16px" viewBox="0 0 16 16" enable-background="new 0 0 16 16" xml:space="preserve">
<g>
	<path fill="#6F7985" d="M10.212,15.777c-0.751-0.75-1.165-1.746-1.165-2.807c0-0.918,0.327-1.779,0.898-2.484
		C9.331,10.182,8.888,9.99,8.887,9.99L8.825,9.828c0.659-0.729,1.804-2.25,2.026-4.2c0.197-1.695-0.232-3.291-1.187-4.367
		C8.982,0.488,8.083,0.058,7.035,0.053C5.999,0.058,5.103,0.457,4.443,1.2c-0.896,1.01-1.294,2.627-1.088,4.443
		c0.21,1.802,1.035,3.299,1.807,4.184v0.188c-0.692,0.301-4.281,1.926-4.777,3.219c-0.35,0.91-0.373,1.934-0.374,1.973L0,15.947
		h10.416C10.351,15.887,10.274,15.842,10.212,15.777z"/>
	<path fill="#6F7985" d="M10.913,10.865c-1.164,1.164-1.164,3.047,0.001,4.211c1.162,1.162,3.043,1.162,4.207-0.002
		c1.17-1.17,1.171-3.051,0.008-4.215C13.965,9.695,12.083,9.695,10.913,10.865z M14.993,12.551l0.002,0.828l-1.564,0.004
		l0.003,1.559l-0.829-0.002l0.001-1.555l-1.557-0.002l-0.002-0.828l1.558,0.002l0.004-1.564l0.828,0.002l0.002,1.557H14.993z"/>
</g>
</svg>
