<?xml version="1.0" encoding="utf-8"?>
<!-- Generator: Adobe Illustrator 16.0.0, SVG Export Plug-In . SVG Version: 6.00 Build 0)  -->
<!DOCTYPE svg PUBLIC "-//W3C//DTD SVG 1.1//EN" "http://www.w3.org/Graphics/SVG/1.1/DTD/svg11.dtd">
<svg version="1.1" id="图层_1" xmlns="http://www.w3.org/2000/svg" xmlns:xlink="http://www.w3.org/1999/xlink" x="0px" y="0px"
	 width="16px" height="16px" viewBox="0 0 16 16" enable-background="new 0 0 16 16" xml:space="preserve">
<g>
	<path fill="#6F7985" d="M10.974,6.731h-0.859l0.615-0.612c0.17-0.169,0.17-0.44,0-0.608l-0.693-0.702
		C9.951,4.729,9.841,4.69,9.73,4.69c-0.112,0-0.224,0.039-0.307,0.118l-0.61,0.613V4.575c0-0.243-0.194-0.435-0.433-0.435H7.086
		c-0.24,0-0.433,0.192-0.433,0.435v0.858l-0.612-0.61C5.958,4.736,5.847,4.693,5.735,4.693c-0.108,0-0.219,0.042-0.303,0.129
		L4.733,5.516C4.654,5.597,4.608,5.71,4.608,5.825c0,0.111,0.046,0.221,0.125,0.303L5.34,6.731H4.491
		c-0.237,0-0.435,0.193-0.435,0.436V8.46c0,0.235,0.197,0.433,0.435,0.433H5.34l-0.61,0.611c-0.174,0.168-0.174,0.439,0,0.609
		l0.693,0.693c0.085,0.086,0.195,0.127,0.307,0.127s0.221-0.041,0.306-0.127l0.618-0.615v0.859c0,0.242,0.192,0.434,0.433,0.434
		h1.295c0.238,0,0.433-0.191,0.433-0.434v-0.859l0.614,0.619c0.083,0.082,0.19,0.125,0.306,0.125s0.228-0.043,0.306-0.125
		l0.697-0.697c0.082-0.076,0.128-0.189,0.128-0.301c0-0.115-0.046-0.227-0.128-0.307l-0.613-0.613h0.851
		c0.24,0,0.433-0.197,0.433-0.433V7.167C11.406,6.924,11.214,6.731,10.974,6.731z M7.73,9.641c-1.011,0-1.827-0.815-1.827-1.827
		c0-1.012,0.816-1.832,1.827-1.832c1.013,0,1.829,0.82,1.829,1.832C9.56,8.825,8.743,9.641,7.73,9.641z"/>
	<path fill="#6F7985" d="M7.544,13.152c-1.887,0-3.637-0.945-4.684-2.527L2.554,10.16l1.043-0.496L0.431,7.642L0,11.375l1.058-0.504
		l0.226,0.381c1.299,2.189,3.691,3.549,6.244,3.551c0.001,0,0.001,0,0.001,0c0.656,0,1.298-0.098,1.922-0.271
		c0-0.031,0.018-0.061,0.02-0.092c-0.226-0.463-0.358-0.973-0.386-1.514C8.585,13.07,8.07,13.152,7.544,13.152z M13.979,4.216
		l-0.227-0.38c-1.299-2.19-3.691-3.551-6.244-3.551c-1.078,0-2.123,0.236-3.105,0.703c-1.574,0.75-2.807,2.018-3.51,3.602
		l1.521,0.622C2.96,4.01,3.902,3.048,5.108,2.473c0.755-0.358,1.559-0.54,2.387-0.54c1.889,0,3.641,0.944,4.686,2.526l0.308,0.464
		L11.44,5.423l3.165,2.022l0.431-3.731L13.979,4.216z"/>
	<path fill="#6F7985" d="M13.017,9.746c-1.648,0-2.984,1.334-2.984,2.984c0,1.648,1.336,2.984,2.984,2.984
		c1.647,0,2.983-1.336,2.983-2.984C16,11.08,14.664,9.746,13.017,9.746z M14.741,13.242H13.54v1.17h-1.051v-1.17h-1.2v-1.023h1.2
		v-1.17h1.051v1.17h1.201V13.242z"/>
</g>
</svg>
