<?xml version="1.0" encoding="utf-8"?>
<!-- Generator: Adobe Illustrator 16.0.0, SVG Export Plug-In . SVG Version: 6.00 Build 0)  -->
<!DOCTYPE svg PUBLIC "-//W3C//DTD SVG 1.1//EN" "http://www.w3.org/Graphics/SVG/1.1/DTD/svg11.dtd">
<svg version="1.1" id="图层_1" xmlns="http://www.w3.org/2000/svg" xmlns:xlink="http://www.w3.org/1999/xlink" x="0px" y="0px"
	 width="16px" height="16px" viewBox="0 0 16 16" enable-background="new 0 0 16 16" xml:space="preserve">
<g>
	<path fill="#6F7985" d="M13.061,6.803l-0.428,0.218l1.589,0.984l0.14-1.864l-0.296,0.148c0,0-0.879-1.115-2.099-0.578
		C11.967,5.711,13.057,6.181,13.061,6.803z"/>
	<path fill="#6F7985" d="M14.176,9.5c0,0-1.089-0.47-1.094-1.087l0.429-0.219l-1.589-0.985l-0.141,1.862l0.296-0.148
		C12.077,8.923,12.957,10.039,14.176,9.5z"/>
	<polygon fill="#6F7985" points="8.734,0 0.58,0 0.58,13.979 1.739,13.979 1.739,1.147 8.734,1.147 	"/>
	<path fill="#6F7985" d="M9.785,9.492c0.117,0,0.233,0.022,0.344,0.07l0.639,0.273V2.021H2.613V16h6.593
		c-0.183-0.164-0.295-0.396-0.295-0.648v-4.985c0-0.257,0.117-0.493,0.308-0.657h-5.44V8.311h5.825v1.208
		C9.663,9.506,9.724,9.492,9.785,9.492z M6.381,11.472l0.348,2.251h0.008l0.35-2.251H7.82l-0.66,2.911H6.286l-0.64-2.911H6.381z
		 M3.778,3.184h5.825v1.4H3.778V3.184z M3.778,7.146V5.747h5.825v1.398H3.778z"/>
	<path fill="#6F7985" d="M14.12,11.015l-1.517-0.648l-1.302,0.648l-1.517-0.648v2.6v2.386L11.302,16l1.302-0.648l1.293,0.553
		L14.12,16l1.3-0.648v-4.985L14.12,11.015z M14.987,13.919l-0.654-0.536l-0.628-0.544l1.282-0.712V13.919z M14.987,11.878
		l-1.458,0.81l-0.814-0.706l-1.355,0.091l-1.141-0.541v-0.508l0.913,0.391l0.185,0.078l0.18-0.09l1.121-0.562l1.332,0.573
		l0.186,0.078l0.18-0.09l0.673-0.335V11.878z"/>
</g>
</svg>
