<?xml version="1.0" encoding="utf-8"?>
<!-- Generator: Adobe Illustrator 16.0.0, SVG Export Plug-In . SVG Version: 6.00 Build 0)  -->
<!DOCTYPE svg PUBLIC "-//W3C//DTD SVG 1.1//EN" "http://www.w3.org/Graphics/SVG/1.1/DTD/svg11.dtd">
<svg version="1.1" id="图层_1" xmlns="http://www.w3.org/2000/svg" xmlns:xlink="http://www.w3.org/1999/xlink" x="0px" y="0px"
	 width="16px" height="16px" viewBox="0 0 16 16" enable-background="new 0 0 16 16" xml:space="preserve">
<path fill="#6F7985" d="M11.992,14.056c-1.276,0.866-2.76,1.322-4.301,1.322C3.451,15.378,0,11.93,0,7.69C0,3.45,3.451,0,7.691,0
	c4.238,0,7.688,3.45,7.688,7.69c0,1.543-0.457,3.025-1.322,4.301L16,13.937L13.938,16L11.992,14.056z M7.691,1.775
	c-3.262,0-5.916,2.653-5.916,5.915c0,3.26,2.654,5.913,5.916,5.913c3.261,0,5.914-2.653,5.914-5.913
	C13.605,4.429,10.952,1.775,7.691,1.775z"/>
</svg>
