<?xml version="1.0" encoding="utf-8"?>
<!-- Generator: Adobe Illustrator 16.0.0, SVG Export Plug-In . SVG Version: 6.00 Build 0)  -->
<!DOCTYPE svg PUBLIC "-//W3C//DTD SVG 1.1//EN" "http://www.w3.org/Graphics/SVG/1.1/DTD/svg11.dtd">
<svg version="1.1" id="图层_1" xmlns="http://www.w3.org/2000/svg" xmlns:xlink="http://www.w3.org/1999/xlink" x="0px" y="0px"
	 width="16px" height="16px" viewBox="0 0 16 16" enable-background="new 0 0 16 16" xml:space="preserve">
<g>
	<circle fill="#6F7985" cx="12.679" cy="10.461" r="0.256"/>
	<circle fill="#6F7985" cx="13.832" cy="10.77" r="0.255"/>
	<path fill="#6F7985" d="M14.897,11.483c-0.07-0.122-0.227-0.165-0.35-0.096c-0.123,0.073-0.164,0.228-0.095,0.35
		c0.072,0.122,0.229,0.165,0.352,0.094C14.927,11.76,14.97,11.606,14.897,11.483z"/>
	<circle fill="#6F7985" cx="14.984" cy="12.756" r="0.255"/>
	<circle fill="#6F7985" cx="11.524" cy="10.77" r="0.257"/>
	<circle fill="#6F7985" cx="10.68" cy="11.609" r="0.256"/>
	<circle fill="#6F7985" cx="10.371" cy="12.756" r="0.255"/>
	<path fill="#6F7985" d="M12.728,12.508c-0.418-0.496-1.046-0.98-1.046-0.98s0.21,0.763,0.508,1.336
		c-0.014,0.049-0.023,0.096-0.023,0.147c0,0.285,0.229,0.513,0.513,0.513c0.099,0,0.191-0.029,0.27-0.078
		c0.006-0.002,0.01-0.005,0.016-0.008l0,0c0.137-0.093,0.228-0.246,0.228-0.427C13.191,12.748,12.987,12.533,12.728,12.508z"/>
	<path fill="#6F7985" d="M13.015,0H2.984C1.336,0,0.002,1.344,0.002,2.998v8.099l5.124-5.835l4.126,2.516l4.124-5.847L14.6,6.24
		h1.398V2.998C15.998,1.344,14.654,0,13.015,0z M12.986,4.217l-3.457,4.9L5.323,6.552l-5.321,6.059v0.511
		c0,1.452,1.031,2.594,2.382,2.874h7.461c-0.982-0.802-1.623-2.003-1.623-3.363c0-1.429,0.701-2.687,1.768-3.483l0.118-0.098
		c0.709-0.494,1.569-0.788,2.499-0.788c1.374,0,2.586,0.646,3.391,1.633V7.239h-2.153L12.986,4.217z"/>
	<path fill="#6F7985" d="M12.607,9.264c-1.868,0-3.385,1.511-3.385,3.369c0,1.856,1.517,3.367,3.385,3.367
		c1.866,0,3.385-1.511,3.385-3.367C15.992,10.774,14.474,9.264,12.607,9.264z M12.607,15.387c-1.528,0-2.77-1.237-2.77-2.754
		c0-1.521,1.241-2.756,2.77-2.756c1.527,0,2.769,1.234,2.769,2.756C15.376,14.149,14.135,15.387,12.607,15.387z"/>
</g>
</svg>
