<?xml version="1.0" encoding="utf-8"?>
<!-- Generator: Adobe Illustrator 16.0.0, SVG Export Plug-In . SVG Version: 6.00 Build 0)  -->
<!DOCTYPE svg PUBLIC "-//W3C//DTD SVG 1.1//EN" "http://www.w3.org/Graphics/SVG/1.1/DTD/svg11.dtd">
<svg version="1.1" id="图层_1" xmlns="http://www.w3.org/2000/svg" xmlns:xlink="http://www.w3.org/1999/xlink" x="0px" y="0px"
	 width="16px" height="16px" viewBox="0 0 16 16" enable-background="new 0 0 16 16" xml:space="preserve">
<g>
	<path fill="#6F7985" d="M8.957,10.236C8.338,9.615,8.094,8.699,8.322,7.844c0.092-0.346,0.361-0.615,0.707-0.708
		c0.086-0.022,0.172-0.034,0.259-0.034c0.016,0,0.032,0,0.048,0.001C9.33,6.999,9.342,6.894,9.369,6.791
		c0.094-0.346,0.365-0.615,0.711-0.705c0.209-0.055,0.424-0.083,0.64-0.083c0.661,0,1.282,0.257,1.749,0.722
		c0.332,0.333,0.555,0.74,0.658,1.172l0.158-0.157V4.668c0-0.848-0.686-1.533-1.533-1.533H11.58V2.853
		c0-0.313-0.256-0.567-0.569-0.567H9.875c-0.313,0-0.568,0.254-0.568,0.567v0.282H1.532C0.686,3.135,0,3.82,0,4.668v5.109
		c0,0.848,0.686,1.533,1.532,1.533H8.84l0.769-0.605C9.371,10.588,9.15,10.43,8.957,10.236z M4.599,10.318
		c-1.71,0-3.097-1.386-3.097-3.097c0-1.71,1.387-3.097,3.097-3.097c1.709,0,3.096,1.387,3.096,3.097
		C7.694,8.933,6.308,10.318,4.599,10.318z"/>
	<path fill="#6F7985" d="M13.308,10.182l1.905-1.906h0.262L16,7.227l-0.263-0.262l-1.049,0.523v0.261l-1.971,1.972l-0.7-0.545
		c0.297-0.561,0.218-1.27-0.255-1.742c-0.389-0.388-0.933-0.511-1.429-0.381l0.902,0.906v1.046H10.19L9.288,8.102
		C9.156,8.596,9.279,9.143,9.664,9.529c0.475,0.475,1.185,0.555,1.745,0.254l0.378,0.48l-2.362,1.859
		c-0.43,0.443-0.161,0.926,0.023,1.137l0.235,0.236c0.203,0.178,0.622,0.26,1.137,0.061l1.77-2.273l1.735,2.201
		c0.445,0.428,0.927,0.162,1.136-0.021l0.238-0.236c0.178-0.203,0.447-0.623,0.061-1.137L13.308,10.182z M15.142,12.91
		c-0.12,0.119-0.316,0.119-0.437,0c-0.121-0.121-0.121-0.318,0-0.438c0.12-0.121,0.316-0.121,0.437,0
		C15.261,12.592,15.261,12.789,15.142,12.91z"/>
	<path fill="#6F7985" d="M4.599,5.146c-1.077,0-1.948,0.873-1.948,1.949c0,1.074,0.871,1.947,1.948,1.947
		c1.075,0,1.948-0.873,1.948-1.947C6.547,6.02,5.674,5.146,4.599,5.146z M4.973,8.373H4.207L3.646,5.816H4.29l0.304,1.978H4.6
		l0.309-1.978h0.644L4.973,8.373z"/>
</g>
</svg>
