<?xml version="1.0" encoding="utf-8"?>
<!-- Generator: Adobe Illustrator 16.0.0, SVG Export Plug-In . SVG Version: 6.00 Build 0)  -->
<!DOCTYPE svg PUBLIC "-//W3C//DTD SVG 1.1//EN" "http://www.w3.org/Graphics/SVG/1.1/DTD/svg11.dtd">
<svg version="1.1" id="图层_1" xmlns="http://www.w3.org/2000/svg" xmlns:xlink="http://www.w3.org/1999/xlink" x="0px" y="0px"
	 width="16px" height="16px" viewBox="0 0 16 16" enable-background="new 0 0 16 16" xml:space="preserve">
<g>
	<g>
		<ellipse fill="#6F7985" cx="5.662" cy="4.596" rx="5.662" ry="1.384"/>
		<path fill="#6F7985" d="M5.662,9.307c3.127,0,5.662-0.621,5.662-1.385v-2.36c0,0.764-2.535,1.383-5.662,1.383S0,6.325,0,5.562
			v2.36C0,8.686,2.535,9.307,5.662,9.307z"/>
		<path fill="#6F7985" d="M5.662,12.594c0.389,0,0.77-0.01,1.138-0.028c0.096-0.956,0.516-1.816,1.17-2.451
			c-0.706,0.076-1.485,0.12-2.308,0.12C2.535,10.234,0,9.614,0,8.852v2.358C0,11.976,2.535,12.594,5.662,12.594z"/>
		<path fill="#6F7985" d="M5.662,13.523C2.535,13.523,0,12.904,0,12.14v2.361c0,0.767,2.535,1.383,5.662,1.383
			c0.805,0,1.57-0.042,2.264-0.115c-0.599-0.6-0.991-1.394-1.111-2.273C6.441,13.515,6.057,13.523,5.662,13.523z"/>
		<path fill="#6F7985" d="M12.004,3.735c0.196,0.247,0.317,0.529,0.317,0.862c0,0.038,0,1.472,0,1.472
			C14.469,5.872,16,5.367,16,4.773V2.414C16,3.035,14.317,3.562,12.004,3.735z"/>
		<path fill="#6F7985" d="M12.321,6.997v2.324c0.02,0.008,0.036,0.021,0.056,0.03C14.494,9.15,16,8.651,16,8.062V5.704
			C16,6.296,14.469,6.801,12.321,6.997z"/>
		<path fill="#6F7985" d="M13.52,10.132c0.571,0.562,0.968,1.295,1.116,2.115C15.479,12.007,16,11.695,16,11.353v-2.36
			C16,9.466,15.011,9.882,13.52,10.132z"/>
		<path fill="#6F7985" d="M5.623,2.215h0.039c1.198,0,3.344,0.087,4.877,0.614C13.572,2.804,16,2.197,16,1.449
			c0-0.767-2.536-1.385-5.663-1.385S4.675,0.683,4.675,1.449C4.675,1.732,5.024,1.996,5.623,2.215z"/>
		<path fill="#6F7985" d="M10.734,9.982c-1.644,0-2.977,1.331-2.977,2.977c0,1.644,1.333,2.977,2.977,2.977
			c1.645,0,2.977-1.333,2.977-2.977C13.711,11.313,12.379,9.982,10.734,9.982z M12.383,13.449h-1.146v1.12h-1.004v-1.12H9.086v-0.98
			h1.147v-1.12h1.004v1.12h1.146V13.449z"/>
	</g>
</g>
</svg>
