<?xml version="1.0" encoding="utf-8"?>
<!-- Generator: Adobe Illustrator 16.0.0, SVG Export Plug-In . SVG Version: 6.00 Build 0)  -->
<!DOCTYPE svg PUBLIC "-//W3C//DTD SVG 1.1//EN" "http://www.w3.org/Graphics/SVG/1.1/DTD/svg11.dtd">
<svg version="1.1" id="图层_1" xmlns="http://www.w3.org/2000/svg" xmlns:xlink="http://www.w3.org/1999/xlink" x="0px" y="0px"
	 width="16px" height="16px" viewBox="0 0 16 16" enable-background="new 0 0 16 16" xml:space="preserve">
<g>
	<path fill="#6F7985" d="M15.77,11.995c-0.088-0.133-2.191-3.217-4.926-3.217c-2.735,0-4.84,3.084-4.928,3.217l-0.229,0.343
		l0.229,0.342c0.088,0.133,2.192,3.218,4.928,3.218c2.734,0,4.838-3.085,4.926-3.218L16,12.338L15.77,11.995z M10.844,14.665
		c-1.621,0-3.079-1.61-3.65-2.33c0.686-0.869,2.146-2.325,3.65-2.325c1.619,0,3.078,1.612,3.648,2.333
		C13.809,13.209,12.347,14.665,10.844,14.665z"/>
	<circle fill="#6F7985" cx="10.844" cy="12.338" r="1.604"/>
	<path fill="#6F7985" d="M7.379,0.103C3.304,0.103,0,3.405,0,7.48c0,3.744,2.791,6.828,6.404,7.307
		c-0.801-0.779-1.278-1.49-1.322-1.556l-0.291-0.433C2.815,11.834,1.44,9.824,1.44,7.48c0-3.275,2.663-5.938,5.938-5.938
		c3.273,0,5.938,2.663,5.938,5.938c0,0.311-0.033,0.613-0.081,0.911c0.475,0.241,0.911,0.531,1.3,0.84
		c0.141-0.562,0.221-1.146,0.221-1.751C14.756,3.405,11.453,0.103,7.379,0.103z M8.283,7.48c0-0.314-0.161-0.592-0.405-0.754
		L7.75,3.849c-0.006-0.132-0.113-0.37-0.374-0.37c-0.26,0-0.366,0.238-0.374,0.37L6.854,6.747C6.625,6.91,6.474,7.178,6.474,7.48
		c0,0.499,0.405,0.905,0.905,0.905c0.037,0,0.07-0.007,0.107-0.011L7.875,8.72c0.312-0.196,0.643-0.372,0.993-0.519L8.279,7.523
		C8.279,7.509,8.283,7.495,8.283,7.48z"/>
</g>
</svg>
