<?xml version="1.0" encoding="utf-8"?>
<!-- Generator: Adobe Illustrator 16.0.0, SVG Export Plug-In . SVG Version: 6.00 Build 0)  -->
<!DOCTYPE svg PUBLIC "-//W3C//DTD SVG 1.1//EN" "http://www.w3.org/Graphics/SVG/1.1/DTD/svg11.dtd">
<svg version="1.1" id="图层_1" xmlns="http://www.w3.org/2000/svg" xmlns:xlink="http://www.w3.org/1999/xlink" x="0px" y="0px"
	 width="16px" height="16px" viewBox="0 0 16 16" enable-background="new 0 0 16 16" xml:space="preserve">
<g>
	<path fill="#6F7985" d="M12.316,14.025l-0.562-2.295l2.295,0.561l-0.297,0.297c0,0,0.998,1.494-0.126,2.75
		c0,0-0.139-1.494-0.883-1.742L12.316,14.025z"/>
	<path fill="#6F7985" d="M14.154,12.186l-0.561-2.295l2.295,0.562l-0.297,0.297c0,0,0.998,1.494-0.126,2.748
		c0,0-0.139-1.494-0.882-1.74L14.154,12.186z"/>
	<path fill="#6F7985" d="M10.504,10.814l-0.108-0.443l1.702,0.416c0.224-0.016,0.446-0.041,0.666-0.092l-0.529-2.164l2.822,0.691
		c1.275-1.623,1.186-3.967-0.311-5.463c-0.993-0.991-2.366-1.369-3.65-1.14c-0.163-0.255-0.35-0.502-0.574-0.725
		c-1.644-1.644-4.307-1.644-5.951,0C4.075,2.392,3.737,2.982,3.542,3.608C1.58,3.643,0,5.238,0,7.208
		c0,1.955,1.559,3.539,3.501,3.597v0.01H10.504z M6.946,5.018l0.705,1.966l0.733-1.966h1.515l0.626,1.868l0.643-1.868h0.844v3.139
		h-0.766V6.919l-0.432,1.237h-0.623L9.766,6.904v1.253h-0.77V5.552l-1.02,2.604H7.319L6.104,5.018H6.946z M3.816,5.732
		c0.127-0.247,0.311-0.44,0.548-0.569C4.597,5.035,4.85,4.973,5.123,4.973c0.316,0,0.592,0.085,0.813,0.249
		c0.221,0.167,0.378,0.4,0.464,0.693l0.06,0.211l-0.759,0.18L5.641,6.121c-0.047-0.153-0.113-0.265-0.201-0.33
		C5.359,5.732,5.253,5.7,5.116,5.7c-0.168,0-0.296,0.038-0.4,0.111c-0.105,0.073-0.177,0.17-0.22,0.298
		C4.447,6.255,4.422,6.411,4.422,6.564c0,0.204,0.029,0.381,0.086,0.53c0.053,0.129,0.126,0.22,0.229,0.281
		c0.111,0.066,0.226,0.101,0.351,0.101c0.154,0,0.276-0.042,0.377-0.128c0.104-0.083,0.175-0.22,0.216-0.401l0.045-0.206l0.778,0.19
		L6.446,7.136C6.359,7.478,6.199,7.741,5.967,7.925C5.733,8.11,5.448,8.203,5.117,8.203c-0.333,0-0.611-0.069-0.827-0.213
		C4.068,7.847,3.903,7.642,3.789,7.375C3.688,7.126,3.631,6.851,3.631,6.564C3.631,6.25,3.691,5.971,3.816,5.732z"/>
</g>
</svg>
