<?xml version="1.0" encoding="utf-8"?>
<!-- Generator: Adobe Illustrator 16.0.0, SVG Export Plug-In . SVG Version: 6.00 Build 0)  -->
<!DOCTYPE svg PUBLIC "-//W3C//DTD SVG 1.1//EN" "http://www.w3.org/Graphics/SVG/1.1/DTD/svg11.dtd">
<svg version="1.1" id="图层_1" xmlns="http://www.w3.org/2000/svg" xmlns:xlink="http://www.w3.org/1999/xlink" x="0px" y="0px"
	 width="16px" height="16px" viewBox="0 0 16 16" enable-background="new 0 0 16 16" xml:space="preserve">
<g>
	<polygon fill="#6F7985" points="0,0.707 2.83,0.707 2.83,9.913 3.291,9.913 3.291,-0.001 0,0.002 	"/>
	<g>
		<rect x="12.18" y="7.084" fill="none" width="0.592" height="1.244"/>
		<rect x="10.006" y="7.084" fill="none" width="0.592" height="1.244"/>
		<rect x="11.092" y="7.084" fill="none" width="0.592" height="1.244"/>
		<path fill="none" d="M12.994,3.264h-2.201c-0.242,0-0.441,0.197-0.441,0.439v0.882H8.545c-0.09-0.255-0.328-0.44-0.615-0.44
			c-0.365,0-0.66,0.296-0.66,0.66c0,0.365,0.295,0.661,0.66,0.661c0.287,0,0.525-0.186,0.615-0.441h1.807v0.882
			c0,0.242,0.199,0.44,0.441,0.44h2.201c0.242,0,0.441-0.198,0.441-0.44V3.703C13.436,3.461,13.236,3.264,12.994,3.264z"/>
		<path fill="#6F7985" d="M3.529,1.845v5.921h5.916v1.067h3.859V7.766H16V1.845H3.529z M10.598,8.328h-0.592V7.084h0.592V8.328z
			 M11.684,8.328h-0.592V7.084h0.592V8.328z M12.771,8.328H12.18V7.084h0.592V8.328z M13.436,5.906c0,0.242-0.199,0.44-0.441,0.44
			h-2.201c-0.242,0-0.441-0.198-0.441-0.44V5.024H8.545C8.455,5.28,8.217,5.466,7.93,5.466c-0.365,0-0.66-0.296-0.66-0.661
			c0-0.364,0.295-0.66,0.66-0.66c0.287,0,0.525,0.186,0.615,0.44h1.807V3.703c0-0.242,0.199-0.439,0.441-0.439h2.201
			c0.242,0,0.441,0.197,0.441,0.439V5.906z"/>
	</g>
	<g>
		<g>
			<g>
				<path fill="#FFFFFF" d="M6.104,3.343l-0.435,1.45C5.552,5.172,5.443,5.562,5.371,5.93H5.358c-0.076-0.371-0.177-0.75-0.29-1.141
					l-0.406-1.45H4.15l0.935,3.086h0.52l0.999-3.082H6.104z"/>
			</g>
		</g>
	</g>
</g>
</svg>
