<?xml version="1.0" encoding="utf-8"?>
<!-- Generator: Adobe Illustrator 16.0.0, SVG Export Plug-In . SVG Version: 6.00 Build 0)  -->
<!DOCTYPE svg PUBLIC "-//W3C//DTD SVG 1.1//EN" "http://www.w3.org/Graphics/SVG/1.1/DTD/svg11.dtd">
<svg version="1.1" id="图层_1" xmlns="http://www.w3.org/2000/svg" xmlns:xlink="http://www.w3.org/1999/xlink" x="0px" y="0px"
	 width="16px" height="16px" viewBox="0 0 16 16" enable-background="new 0 0 16 16" xml:space="preserve">
<g>
	<g>
		<g>
			<path fill="#6F7985" d="M5.846,11.087c0-0.824,0.671-1.495,1.496-1.495h1.127c0.003-0.006,0.007-0.012,0.01-0.018V0H0v14.559
				h5.846V11.087z M1.104,2.561H3.25l1.015,4.912h0.022l1.026-4.912h2.148L5.528,8.918H2.975L1.104,2.561z M4.238,12.908
				c-0.514,0-0.934-0.418-0.934-0.934s0.419-0.935,0.934-0.935c0.517,0,0.934,0.419,0.934,0.935S4.755,12.908,4.238,12.908z"/>
		</g>
		<path fill="#6F7985" d="M9.791,14.216L9.984,16l-3.055-2.459l2.461-3.056l0.195,1.823c3.217-0.271,2.838-2.513,1.861-3.903
			C13.697,10.367,13.645,13.903,9.791,14.216z"/>
	</g>
</g>
</svg>
