<?xml version="1.0" encoding="utf-8"?>
<!-- Generator: Adobe Illustrator 16.0.0, SVG Export Plug-In . SVG Version: 6.00 Build 0)  -->
<!DOCTYPE svg PUBLIC "-//W3C//DTD SVG 1.1//EN" "http://www.w3.org/Graphics/SVG/1.1/DTD/svg11.dtd">
<svg version="1.1" id="图层_1" xmlns="http://www.w3.org/2000/svg" xmlns:xlink="http://www.w3.org/1999/xlink" x="0px" y="0px"
	 width="16px" height="16px" viewBox="0 0 16 16" enable-background="new 0 0 16 16" xml:space="preserve">
<g>
	<g>
		<path fill="#6F7985" d="M5.603,10.624c0-0.79,0.643-1.433,1.434-1.433h1.08c0.002-0.006,0.006-0.011,0.009-0.017V0H0v13.951h5.603
			V10.624z M1.058,2.453h2.057l0.973,4.708h0.021l0.983-4.708h2.059L5.298,8.546H2.852L1.058,2.453z M4.062,12.369
			c-0.493,0-0.895-0.4-0.895-0.895s0.402-0.896,0.895-0.896c0.496,0,0.895,0.401,0.895,0.896S4.557,12.369,4.062,12.369z"/>
	</g>
	<path fill="#6F7985" d="M6.546,10.138V16h7.468v-5.862H6.546z M11.717,10.713h0.573v0.575h-0.573V10.713z M10.567,10.713h0.574
		v0.575h-0.574V10.713z M13.438,15.426H7.122v-3.564h6.316V15.426z M13.438,11.288h-0.574v-0.575h0.574V11.288z"/>
	<path fill="#6F7985" d="M11.546,7.886l0.857,1.178L9.26,8.567l0.497-3.143l0.874,1.202c2.153-1.489,0.979-2.913-0.269-3.498
		C12.737,3.6,14.13,6.108,11.546,7.886z"/>
</g>
</svg>
