<?xml version="1.0" encoding="utf-8"?>
<!-- Generator: Adobe Illustrator 16.0.0, SVG Export Plug-In . SVG Version: 6.00 Build 0)  -->
<!DOCTYPE svg PUBLIC "-//W3C//DTD SVG 1.1//EN" "http://www.w3.org/Graphics/SVG/1.1/DTD/svg11.dtd">
<svg version="1.1" id="图层_1" xmlns="http://www.w3.org/2000/svg" xmlns:xlink="http://www.w3.org/1999/xlink" x="0px" y="0px"
	 width="16px" height="16px" viewBox="0 0 16 16" enable-background="new 0 0 16 16" xml:space="preserve">
<g>
	<path fill="#6F7985" d="M9.349,14.012H8.701v-1.528h0.107c0-0.021-0.006-0.039-0.006-0.061v-1.086c0-0.414,0.18-0.786,0.466-1.041
		c-0.002-0.028-0.002-0.057-0.002-0.085c0-0.144,0.036-0.281,0.079-0.415H0.642V2.217c0-0.295,0.238-0.539,0.532-0.539h11.75
		c0.295,0,0.533,0.244,0.533,0.539v5.549h0.006c0.229,0,0.443,0.061,0.635,0.161v-5.71c0-0.654-0.524-1.176-1.174-1.176H1.174
		C0.524,1.041,0,1.562,0,2.217v9.085c0,0.656,0.524,1.182,1.174,1.182h4.223v1.528h-0.95v0.947h5.206v-0.443
		C9.512,14.37,9.415,14.198,9.349,14.012z"/>
	<path fill="#6F7985" d="M15.637,10.972h-0.72l0.517-0.515c0.141-0.141,0.141-0.369,0-0.51l-0.583-0.588
		c-0.071-0.067-0.164-0.101-0.257-0.101c-0.095,0-0.188,0.033-0.258,0.101l-0.512,0.514V9.162c0-0.202-0.164-0.363-0.361-0.363
		h-1.087c-0.202,0-0.363,0.161-0.363,0.363v0.721L11.498,9.37c-0.068-0.071-0.163-0.107-0.256-0.107
		c-0.091,0-0.184,0.036-0.254,0.107l-0.587,0.581c-0.066,0.069-0.104,0.163-0.104,0.26c0,0.093,0.037,0.186,0.104,0.255l0.51,0.506
		h-0.712c-0.199,0-0.365,0.161-0.365,0.365v1.086c0,0.197,0.166,0.362,0.365,0.362h0.712l-0.512,0.512
		c-0.146,0.142-0.146,0.369,0,0.513l0.58,0.581c0.071,0.072,0.164,0.106,0.259,0.106c0.093,0,0.186-0.034,0.256-0.106l0.519-0.516
		v0.721c0,0.202,0.161,0.363,0.363,0.363h1.087c0.197,0,0.361-0.161,0.361-0.363v-0.721l0.516,0.521
		c0.068,0.067,0.159,0.104,0.257,0.104c0.097,0,0.191-0.036,0.256-0.104l0.585-0.586c0.068-0.064,0.106-0.158,0.106-0.253
		c0-0.098-0.038-0.19-0.106-0.258l-0.515-0.514h0.714c0.202,0,0.363-0.165,0.363-0.362v-1.086
		C16,11.133,15.839,10.972,15.637,10.972z M12.916,13.413c-0.847,0-1.532-0.685-1.532-1.533c0-0.85,0.686-1.536,1.532-1.536
		c0.85,0,1.535,0.687,1.535,1.536C14.451,12.729,13.766,13.413,12.916,13.413z"/>
</g>
</svg>
