<?xml version="1.0" encoding="utf-8"?>
<!-- Generator: Adobe Illustrator 16.0.0, SVG Export Plug-In . SVG Version: 6.00 Build 0)  -->
<!DOCTYPE svg PUBLIC "-//W3C//DTD SVG 1.1//EN" "http://www.w3.org/Graphics/SVG/1.1/DTD/svg11.dtd">
<svg version="1.1" id="图层_1" xmlns="http://www.w3.org/2000/svg" xmlns:xlink="http://www.w3.org/1999/xlink" x="0px" y="0px"
	 width="16px" height="16px" viewBox="0 0 16 16" enable-background="new 0 0 16 16" xml:space="preserve">
<g>
	<path fill="#6F7985" d="M11.107,14.696L1.12,14.58l0.116-9.985l3.33,0.037l0.039-3.331l6.66,0.08l-0.062,4.593l1.126-1.146
		l0.059-4.546l-8.88-0.104L0.14,3.468L0,15.679l12.206,0.144l0.036-4.373l0.002-0.189c-0.438,0.461-0.823,0.865-1.122,1.175
		L11.107,14.696z"/>
	<path fill="#6F7985" d="M9.123,6.222c-0.097-0.253-1.004-0.71-1.247-0.805c-0.017-0.009-0.131-0.05-0.131-0.068V5.107
		c0.208-0.213,0.518-0.628,0.574-1.13c0.088-0.741-0.314-1.341-0.845-1.345H7.449C6.825,2.637,6.526,3.241,6.61,3.982
		c0.058,0.499,0.303,0.912,0.512,1.125v0.241c0,0.019-0.08,0.06-0.097,0.068C6.782,5.512,5.858,5.969,5.761,6.222
		c-0.088,0.228-0.093,0.49-0.093,0.49H9.2C9.2,6.712,9.211,6.449,9.123,6.222z"/>
	<polygon fill="#6F7985" points="2.038,8 2.038,9.019 8.212,9.019 9.211,8 	"/>
	<polygon fill="#6F7985" points="2.038,10.106 2.038,11.124 7.118,11.124 7.438,10.106 	"/>
	<polygon fill="#6F7985" points="2.038,12.212 2.038,13.229 6.458,13.229 6.776,12.212 	"/>
	<g>
		<path fill-rule="evenodd" clip-rule="evenodd" fill="#6F7985" d="M13.844,7.747c-0.793,0.808-2.967,3.094-3.76,3.901l-1.898,0.528
			l-0.017-0.006l0.604-1.804l0.411-0.48l2.64-2.688l0.582-0.595l0.173-0.175c0.008-0.007-0.127-0.14-0.118-0.146l-0.2-0.198
			L11.834,6.52l-3.47,3.532l-0.206,0.209l-0.875,2.786l0.023,0.006l2.954-0.874c0.808-0.828,2.48-2.622,3.93-4.099l-0.336-0.347
			C13.849,7.737,13.849,7.745,13.844,7.747z"/>
		<path fill-rule="evenodd" clip-rule="evenodd" fill="#6F7985" d="M15.77,5.38l-0.879-0.865c-0.154-0.149-0.353-0.221-0.553-0.217
			c-0.197,0.001-0.396,0.079-0.546,0.233l-0.29,0.292l1.974,1.961c0.114-0.116,0.222-0.228,0.301-0.308
			C15.927,6.323,16,6.124,16,5.923C16,5.725,15.921,5.529,15.77,5.38z"/>
		
			<rect x="12.489" y="6.095" transform="matrix(-0.7129 -0.7013 0.7013 -0.7129 19.2348 20.8126)" fill-rule="evenodd" clip-rule="evenodd" fill="#6F7985" width="2.778" height="0.747"/>
		<polygon fill-rule="evenodd" clip-rule="evenodd" fill="#6F7985" points="9.688,10.616 9.731,11.122 13.438,7.384 12.906,6.861 
			9.2,10.598 		"/>
	</g>
</g>
</svg>
