<?xml version="1.0" encoding="utf-8"?>
<!-- Generator: Adobe Illustrator 16.0.0, SVG Export Plug-In . SVG Version: 6.00 Build 0)  -->
<!DOCTYPE svg PUBLIC "-//W3C//DTD SVG 1.1//EN" "http://www.w3.org/Graphics/SVG/1.1/DTD/svg11.dtd">
<svg version="1.1" id="图层_1" xmlns="http://www.w3.org/2000/svg" xmlns:xlink="http://www.w3.org/1999/xlink" x="0px" y="0px"
	 width="16px" height="16px" viewBox="0 0 16 16" enable-background="new 0 0 16 16" xml:space="preserve">
<g>
	<path fill="#6F7985" d="M11.706,6.589c0.289,0.564,0.467,1.193,0.467,1.872c0,1.548-0.857,2.88-2.115,3.59
		c0.76-0.626,1.29-1.507,1.452-2.521c0.038-0.214,0.068-0.434,0.068-0.66c0-0.25-0.032-0.493-0.074-0.731c0-0.001,0-0.001,0-0.001
		c-0.03-0.16-0.076-0.313-0.124-0.467c-0.022-0.068-0.038-0.137-0.062-0.205l-0.004-0.009c-0.034-0.094-0.065-0.192-0.105-0.285
		c-0.002-0.002-0.002-0.005-0.005-0.006c-0.08-0.176-0.174-0.348-0.278-0.512l0,0c-0.063-0.101-0.138-0.196-0.21-0.292L7.433,8.674
		l1.917-3.469c-0.573-0.303-1.222-0.48-1.917-0.48c-1.493,0-2.795,0.791-3.524,1.974c1.881,0.09,3.382,1.63,3.382,3.536
		c0,0.408-0.082,0.793-0.208,1.158c0.004-0.075,0.022-0.145,0.022-0.221c0-0.587-0.156-1.131-0.407-1.619
		c-0.02-0.037-0.04-0.075-0.06-0.112C6.028,8.357,4.882,7.618,3.552,7.618C1.589,7.618,0,9.209,0,11.172
		c0,1.926,1.535,3.483,3.448,3.541v0.01h8.349v-0.016c2.178-0.079,3.921-1.855,3.921-4.054C15.718,8.428,13.927,6.623,11.706,6.589z
		"/>
	<path fill="#6F7985" d="M15.148,1.277h-4.626c-0.469,0-0.852,0.38-0.852,0.85v2.614c0,0.141,0.034,0.272,0.094,0.39L9.457,5.704
		L8.403,7.669l1.863-1.632l0.509-0.443h4.374C15.619,5.595,16,5.211,16,4.741V2.127C16,1.658,15.619,1.277,15.148,1.277z
		 M11.46,3.896c-0.303,0-0.545-0.244-0.545-0.545c0-0.3,0.242-0.545,0.545-0.545c0.301,0,0.545,0.245,0.545,0.545
		C12.005,3.651,11.761,3.896,11.46,3.896z M12.935,3.896c-0.303,0-0.545-0.244-0.545-0.545c0-0.3,0.242-0.545,0.545-0.545
		c0.301,0,0.545,0.245,0.545,0.545C13.479,3.651,13.235,3.896,12.935,3.896z M14.409,3.896c-0.303,0-0.545-0.244-0.545-0.545
		c0-0.3,0.242-0.545,0.545-0.545c0.301,0,0.545,0.245,0.545,0.545C14.954,3.651,14.71,3.896,14.409,3.896z"/>
</g>
</svg>
