<?xml version="1.0" encoding="utf-8"?>
<!-- Generator: Adobe Illustrator 16.0.0, SVG Export Plug-In . SVG Version: 6.00 Build 0)  -->
<!DOCTYPE svg PUBLIC "-//W3C//DTD SVG 1.1//EN" "http://www.w3.org/Graphics/SVG/1.1/DTD/svg11.dtd">
<svg version="1.1" id="图层_1" xmlns="http://www.w3.org/2000/svg" xmlns:xlink="http://www.w3.org/1999/xlink" x="0px" y="0px"
	 width="16px" height="16px" viewBox="0 0 16 16" enable-background="new 0 0 16 16" xml:space="preserve">
<path fill="#6F7985" d="M12.332,8.027c-0.059-0.023-0.186-0.035-0.385-0.035h-0.352v0.67h0.402c0.156,0,0.256-0.004,0.299-0.016
	c0.064-0.014,0.117-0.048,0.158-0.1c0.039-0.053,0.061-0.124,0.061-0.213c0-0.075-0.016-0.139-0.047-0.191
	S12.391,8.051,12.332,8.027z M12.197,7.566c0.074-0.01,0.133-0.04,0.176-0.089s0.062-0.114,0.062-0.196
	c0-0.078-0.018-0.141-0.055-0.189s-0.09-0.077-0.164-0.087c-0.043-0.006-0.166-0.009-0.371-0.009h-0.25v0.578h0.285
	C12.051,7.574,12.156,7.572,12.197,7.566z M3.529,4.889v5.922h5.916v1.066h3.859v-1.066H16V4.889H3.529z M5.617,7.003H4.576v0.594
	h0.9v0.424h-0.9v1.064H4.141V6.579h1.477V7.003z M7.455,8.928C7.303,9.061,7.113,9.127,6.881,9.127c-0.285,0-0.521-0.114-0.705-0.34
	C5.992,8.559,5.9,8.248,5.9,7.854c0-0.417,0.092-0.739,0.277-0.972c0.186-0.23,0.428-0.346,0.73-0.346
	c0.264,0,0.477,0.091,0.643,0.271c0.096,0.108,0.17,0.26,0.221,0.461L7.34,7.389c-0.025-0.13-0.078-0.232-0.16-0.307
	C7.1,7.006,7.002,6.97,6.887,6.97c-0.16,0-0.291,0.066-0.389,0.198c-0.1,0.135-0.15,0.35-0.15,0.647
	c0,0.317,0.049,0.543,0.146,0.677c0.1,0.135,0.227,0.201,0.383,0.201c0.115,0,0.215-0.042,0.299-0.127
	c0.084-0.087,0.143-0.219,0.18-0.403l0.422,0.155C7.711,8.593,7.604,8.795,7.455,8.928z M10.599,11.373h-0.592v-1.245h0.592V11.373z
	 M10.709,9.085h-0.436V7.988h-0.85v1.097H8.988V6.579h0.436v0.985h0.85V6.579h0.436V9.085z M11.685,11.373h-0.592v-1.245h0.592
	V11.373z M12.771,11.373H12.18v-1.245h0.592V11.373z M12.896,8.69c-0.045,0.108-0.107,0.193-0.186,0.258
	c-0.08,0.064-0.176,0.104-0.291,0.119c-0.074,0.009-0.248,0.015-0.525,0.018H11.16V6.579h0.861c0.172,0,0.299,0.008,0.383,0.024
	c0.082,0.018,0.156,0.051,0.225,0.103c0.066,0.053,0.121,0.122,0.164,0.211c0.045,0.086,0.066,0.185,0.066,0.293
	c0,0.116-0.027,0.225-0.082,0.322c-0.053,0.099-0.127,0.171-0.221,0.221c0.131,0.044,0.232,0.12,0.303,0.228
	c0.07,0.106,0.107,0.231,0.107,0.377C12.967,8.473,12.941,8.583,12.896,8.69z M14.803,9.085l-0.189-0.57h-0.861l-0.178,0.57h-0.461
	l0.84-2.506h0.459l0.863,2.506H14.803z M0,3.751h2.831v9.206h0.461V3.043L0,3.046V3.751z M13.887,8.093h0.588l-0.297-0.93
	L13.887,8.093z"/>
</svg>
