<?xml version="1.0" encoding="utf-8"?>
<!-- Generator: Adobe Illustrator 16.0.0, SVG Export Plug-In . SVG Version: 6.00 Build 0)  -->
<!DOCTYPE svg PUBLIC "-//W3C//DTD SVG 1.1//EN" "http://www.w3.org/Graphics/SVG/1.1/DTD/svg11.dtd">
<svg version="1.1" id="图层_1" xmlns="http://www.w3.org/2000/svg" xmlns:xlink="http://www.w3.org/1999/xlink" x="0px" y="0px"
	 width="16px" height="16px" viewBox="0 0 16 16" enable-background="new 0 0 16 16" xml:space="preserve">
<g>
	<path fill="#6F7985" d="M12.229,7.499c-2.08,0-3.772,1.693-3.772,3.772s1.692,3.771,3.772,3.771S16,13.351,16,11.271
		S14.309,7.499,12.229,7.499z M12.229,8.13c0.291,0,0.666,0.557,0.885,1.493c-0.293-0.031-0.59-0.048-0.885-0.048
		s-0.594,0.017-0.887,0.048C11.561,8.687,11.938,8.13,12.229,8.13z M9.086,11.271c0-0.293,0.557-0.667,1.494-0.886
		c-0.031,0.293-0.049,0.591-0.049,0.886s0.018,0.595,0.049,0.886C9.643,11.938,9.086,11.564,9.086,11.271z M9.289,12.359
		c0.383,0.207,0.861,0.362,1.389,0.464c0.104,0.524,0.258,1.006,0.463,1.386C10.283,13.892,9.609,13.216,9.289,12.359z
		 M10.678,9.721c-0.527,0.101-1.006,0.256-1.389,0.462c0.32-0.855,0.994-1.528,1.852-1.849C10.936,8.713,10.779,9.194,10.678,9.721z
		 M12.229,14.415c-0.291,0-0.668-0.559-0.887-1.495c0.293,0.031,0.592,0.048,0.887,0.048s0.592-0.017,0.885-0.048
		C12.895,13.856,12.52,14.415,12.229,14.415z M13.229,12.272c-0.309,0.039-0.639,0.067-1,0.067s-0.691-0.028-1.002-0.067
		c-0.037-0.31-0.066-0.64-0.066-1.001c0-0.362,0.029-0.691,0.066-1.001c0.311-0.039,0.641-0.068,1.002-0.068s0.691,0.029,1,0.068
		c0.039,0.31,0.066,0.639,0.066,1.001C13.295,11.633,13.268,11.963,13.229,12.272z M13.316,14.209
		c0.205-0.38,0.359-0.861,0.461-1.386c0.527-0.102,1.008-0.257,1.389-0.464C14.848,13.216,14.172,13.892,13.316,14.209z
		 M15.371,11.271c0,0.293-0.557,0.667-1.494,0.886c0.029-0.291,0.047-0.591,0.047-0.886s-0.018-0.593-0.047-0.886
		C14.814,10.604,15.371,10.979,15.371,11.271z M13.777,9.721c-0.102-0.526-0.256-1.008-0.461-1.387
		c0.855,0.32,1.531,0.993,1.85,1.849C14.785,9.977,14.305,9.821,13.777,9.721z"/>
	<g>
		<path fill="#6F7985" d="M7.772,11.682V8.471V7.528V6.337V5.7h1.353c0.553-0.029,0.998-0.447,0.998-1.024V1.066
			C10.123,0.479,9.65,0,9.07,0H5.531C4.95,0,4.479,0.479,4.479,1.066v3.609c0,0.518,0.364,0.925,0.841,1.024H6.83v1.828H4.014V6.731
			c0-0.418-0.337-0.759-0.749-0.759H0.748C0.335,5.973,0,6.313,0,6.731v2.566c0,0.368,0.259,0.657,0.598,0.729h0.938v1.655H0.963
			c-0.343,0-0.621,0.283-0.621,0.63v2.128c0,0.306,0.216,0.545,0.496,0.604h2.245c0.326-0.018,0.588-0.263,0.588-0.604v-2.128
			c0-0.347-0.279-0.63-0.621-0.63H2.479v-1.655h0.826c0.393-0.021,0.71-0.318,0.71-0.729V8.471H6.83v3.211H6.257
			c-0.343,0-0.621,0.283-0.621,0.63v2.128c0,0.306,0.215,0.545,0.496,0.604h1.64V11.682z"/>
	</g>
</g>
</svg>
