<?xml version="1.0" encoding="utf-8"?>
<!-- Generator: Adobe Illustrator 16.0.0, SVG Export Plug-In . SVG Version: 6.00 Build 0)  -->
<!DOCTYPE svg PUBLIC "-//W3C//DTD SVG 1.1//EN" "http://www.w3.org/Graphics/SVG/1.1/DTD/svg11.dtd">
<svg version="1.1" id="图层_1" xmlns="http://www.w3.org/2000/svg" xmlns:xlink="http://www.w3.org/1999/xlink" x="0px" y="0px"
	 width="14px" height="16px" viewBox="0 0 14 16" enable-background="new 0 0 14 16" xml:space="preserve">
<g>
	<path fill="#6F7985" d="M0.015,0v15.081h6.599c-0.486-0.635-0.787-1.418-0.787-2.277c0-1.81,1.283-3.323,2.985-3.686V0H0.015z
		 M4.414,13.396c-0.534,0-0.969-0.435-0.969-0.97s0.435-0.969,0.969-0.969c0.537,0,0.969,0.434,0.969,0.969
		S4.95,13.396,4.414,13.396z M5.752,9.254H3.103L1.161,2.656h2.227l1.054,5.099h0.023L5.53,2.656h2.23L5.752,9.254z"/>
	<g>
		<path fill="#6F7985" d="M7.012,12.211l0.806-0.675l0.191,1.05l0.191,1.05l-0.516-0.192c0.096,0.489,0.354,0.943,0.756,1.285
			c0.84,0.722,2.09,0.723,2.902,0c0.148-0.13,0.381-0.115,0.512,0.038c0.137,0.152,0.123,0.382-0.025,0.516
			c-1.082,0.956-2.736,0.957-3.855,0.002c-0.646-0.553-1.011-1.324-1.054-2.128l-0.716-0.27L7.012,12.211z"/>
		<path fill="#6F7985" d="M11.871,14.565l-0.191-1.052l-0.191-1.051l0.514,0.192c-0.096-0.488-0.352-0.943-0.75-1.286
			c-0.844-0.722-2.094-0.721-2.906,0c-0.15,0.133-0.381,0.117-0.512-0.036c-0.137-0.153-0.123-0.382,0.027-0.516
			c1.076-0.958,2.734-0.957,3.854-0.002c0.645,0.554,1.012,1.324,1.055,2.129l0.713,0.269l-0.805,0.675L11.871,14.565z"/>
	</g>
</g>
</svg>
