<?xml version="1.0" encoding="utf-8"?>
<!-- Generator: Adobe Illustrator 16.0.0, SVG Export Plug-In . SVG Version: 6.00 Build 0)  -->
<!DOCTYPE svg PUBLIC "-//W3C//DTD SVG 1.1//EN" "http://www.w3.org/Graphics/SVG/1.1/DTD/svg11.dtd">
<svg version="1.1" id="图层_1" xmlns="http://www.w3.org/2000/svg" xmlns:xlink="http://www.w3.org/1999/xlink" x="0px" y="0px"
	 width="16px" height="16px" viewBox="0 0 16 16" enable-background="new 0 0 16 16" xml:space="preserve">
<path fill="#6F7985" d="M4.82,11.396H4.623v2.176h0.188c0.327,0,0.44-0.145,0.44-1.145C5.252,11.615,5.193,11.396,4.82,11.396z
	 M11.25,11.396h-0.18v0.873h0.192c0.281,0,0.349-0.197,0.349-0.42C11.611,11.592,11.535,11.396,11.25,11.396z M3.334,0v16h9.332V0
	H3.334z M4.666,1.333h6.668v1.601H4.666V1.333z M4.666,4.267h6.668v1.6H4.666V4.267z M4.666,7.2h6.668v1.6H4.666V7.2z M4.892,14.15
	H3.918v-3.334h1.045c0.696,0,0.994,0.402,0.994,1.561C5.957,13.586,5.818,14.15,4.892,14.15z M8.091,14.15H7.386v-1.424H6.824v1.424
	H6.119v-3.334h0.705v1.248h0.562v-1.248h0.705V14.15z M10.279,12.961c0,0.719-0.181,1.256-1.054,1.256
	c-0.902,0-0.974-0.752-0.974-1.756c0-0.855,0.042-1.709,1.041-1.709c0.621,0,0.961,0.299,0.961,1.082v0.141h-0.68
	c0-0.484-0.051-0.699-0.285-0.699c-0.281,0-0.307,0.299-0.307,1.172c0,0.988,0.029,1.246,0.322,1.246c0.261,0,0.29-0.332,0.295-0.85
	h0.68V12.961z M11.381,12.848H11.07v1.303h-0.705v-3.334h1.09c0.743,0,0.887,0.598,0.887,1.014
	C12.342,12.428,12.085,12.848,11.381,12.848z"/>
</svg>
