<?xml version="1.0" encoding="utf-8"?>
<!-- Generator: Adobe Illustrator 16.0.0, SVG Export Plug-In . SVG Version: 6.00 Build 0)  -->
<!DOCTYPE svg PUBLIC "-//W3C//DTD SVG 1.1//EN" "http://www.w3.org/Graphics/SVG/1.1/DTD/svg11.dtd">
<svg version="1.1" id="图层_1" xmlns="http://www.w3.org/2000/svg" xmlns:xlink="http://www.w3.org/1999/xlink" x="0px" y="0px"
	 width="16px" height="16px" viewBox="0 0 16 16" enable-background="new 0 0 16 16" xml:space="preserve">
<g>
	<path fill="#6F7985" d="M9.494,11.521H9.092v-1.25c0-0.918,0.713-1.672,1.614-1.739c0.192-0.579,0.739-0.988,1.358-0.988h0.34
		l0.004-7.274L9.543,1.7l-3.34-1.43L3.34,1.7L0,0.27v10.976l3.34,1.43l2.863-1.43l3.395,1.41L9.494,11.521z M9.016,8.462H3.391V7.48
		h5.625V8.462z M9.016,6.943H3.391V5.959h5.625V6.943z M9.016,5.466H3.391V4.483h5.625V5.466z"/>
	<path fill="#6F7985" d="M12.59,14.818h0.912v-3.193H12.59V14.818z M13.961,14.818h0.684l0.226-3.193h-0.909V14.818z M11.452,14.818
		h0.685v-3.193h-0.913L11.452,14.818z M12.122,9.043l-0.071,0.488h1.992l-0.071-0.488H12.122z M15.255,15.271
		c-0.024,0.254-0.248,0.459-0.495,0.459h-3.423c-0.248,0-0.472-0.205-0.495-0.459l-0.373-4.102c-0.021-0.25,0.162-0.457,0.414-0.457
		h4.329c0.251,0,0.437,0.207,0.415,0.457L15.255,15.271z M16,10.518h-5.906v-0.246c0-0.408,0.332-0.74,0.74-0.74h0.72l0.089-0.619
		c0.029-0.199,0.217-0.365,0.422-0.365h1.965c0.208,0,0.393,0.166,0.425,0.365l0.085,0.619h0.723c0.406,0,0.738,0.332,0.738,0.74
		V10.518z"/>
</g>
</svg>
