<?xml version="1.0" encoding="utf-8"?>
<!-- Generator: Adobe Illustrator 16.0.0, SVG Export Plug-In . SVG Version: 6.00 Build 0)  -->
<!DOCTYPE svg PUBLIC "-//W3C//DTD SVG 1.1//EN" "http://www.w3.org/Graphics/SVG/1.1/DTD/svg11.dtd">
<svg version="1.1" id="图层_1" xmlns="http://www.w3.org/2000/svg" xmlns:xlink="http://www.w3.org/1999/xlink" x="0px" y="0px"
	 width="16px" height="16px" viewBox="0 0 16 16" enable-background="new 0 0 16 16" xml:space="preserve">
<g>
	<path fill="#6F7985" d="M6.74,3.04c2.706,0,4.907-0.679,4.907-1.517C11.646,0.695,9.445,0,6.74,0C4.027,0,1.817,0.695,1.817,1.523
		C1.817,2.361,4.027,3.04,6.74,3.04z M6.74,1c1.146,0,2.08,0.239,2.08,0.523c0,0.294-0.934,0.531-2.08,0.531
		c-1.147,0-2.072-0.237-2.072-0.531C4.668,1.238,5.592,1,6.74,1z"/>
	<g>
		<path fill="#6F7985" d="M6.554,12.589c0-2.399,1.953-4.352,4.352-4.352c0.345,0,0.677,0.05,0.999,0.126V2.031
			c0,0.865-2.298,1.578-5.107,1.578c-2.823,0-5.116-0.712-5.116-1.578v12.018c0,0.871,2.293,1.574,5.116,1.574
			c0.333,0,0.658-0.011,0.974-0.029C7.021,14.812,6.554,13.756,6.554,12.589z"/>
		<path fill="#6F7985" d="M10.906,9.177c-1.885,0-3.412,1.527-3.412,3.412S9.021,16,10.906,16c1.884,0,3.411-1.526,3.411-3.411
			S12.79,9.177,10.906,9.177z M12.667,13.176h-1.174v1.174h-1.175v-1.174H9.146v-1.175h1.173v-1.174h1.175v1.174h1.174V13.176z"/>
	</g>
</g>
</svg>
