<?xml version="1.0" encoding="utf-8"?>
<!-- Generator: Adobe Illustrator 16.0.0, SVG Export Plug-In . SVG Version: 6.00 Build 0)  -->
<!DOCTYPE svg PUBLIC "-//W3C//DTD SVG 1.1//EN" "http://www.w3.org/Graphics/SVG/1.1/DTD/svg11.dtd">
<svg version="1.1" id="图层_1" xmlns="http://www.w3.org/2000/svg" xmlns:xlink="http://www.w3.org/1999/xlink" x="0px" y="0px"
	 width="16px" height="16px" viewBox="0 0 16 16" enable-background="new 0 0 16 16" xml:space="preserve">
<g>
	<g>
		<path fill="#6F7985" d="M13.657,13.656c-3.119,3.119-8.194,3.119-11.313,0s-3.119-8.194,0-11.313s8.194-3.119,11.313,0
			S16.776,10.537,13.657,13.656z M3.312,3.312c-2.584,2.584-2.584,6.79,0,9.375c2.585,2.584,6.791,2.584,9.375,0
			c2.584-2.586,2.584-6.791,0-9.375C10.104,0.728,5.897,0.728,3.312,3.312z"/>
	</g>
	<polygon fill="#6F7985" points="7.133,12.811 7.133,8.868 3.189,8.868 3.189,7.131 7.132,7.131 7.133,3.188 8.869,3.188 
		8.869,7.131 12.812,7.131 12.812,8.868 8.869,8.868 8.869,12.811 	"/>
</g>
</svg>
