<?xml version="1.0" encoding="utf-8"?>
<!-- Generator: Adobe Illustrator 16.0.0, SVG Export Plug-In . SVG Version: 6.00 Build 0)  -->
<!DOCTYPE svg PUBLIC "-//W3C//DTD SVG 1.1//EN" "http://www.w3.org/Graphics/SVG/1.1/DTD/svg11.dtd">
<svg version="1.1" id="图层_1" xmlns="http://www.w3.org/2000/svg" xmlns:xlink="http://www.w3.org/1999/xlink" x="0px" y="0px"
	 width="16px" height="16px" viewBox="0 0 16 16" enable-background="new 0 0 16 16" xml:space="preserve">
<path fill="#6F7985" d="M6.847,14.859c-1.746,0-3.409-0.662-4.684-1.862C0.825,11.74,0.06,10.041,0.005,8.213
	C0.001,8.137,0,8.062,0,7.994C0,6.246,0.66,4.58,1.86,3.303c1.256-1.332,2.955-2.098,4.784-2.158l0.218-0.004
	c2.059,0,3.99,0.916,5.298,2.513c0.169,0.204,0.247,0.462,0.222,0.728c-0.025,0.264-0.153,0.502-0.358,0.67
	c-0.179,0.146-0.396,0.225-0.627,0.225c-0.301,0-0.582-0.133-0.772-0.363c-0.928-1.131-2.296-1.78-3.752-1.78L6.707,3.135
	c-1.3,0.037-2.508,0.582-3.399,1.533C2.419,5.615,1.952,6.853,1.992,8.153c0.038,1.296,0.581,2.503,1.532,3.397
	c0.908,0.854,2.093,1.322,3.338,1.322l0.148-0.002c1.42-0.048,2.743-0.706,3.634-1.809c0.189-0.234,0.472-0.369,0.774-0.369
	c0.229,0,0.444,0.076,0.623,0.221c0.426,0.346,0.493,0.974,0.148,1.398c-1.258,1.552-3.123,2.479-5.117,2.543L6.847,14.859z
	 M13.16,8.961l-0.229,0.015L8.385,8.994C7.837,8.994,7.39,8.548,7.39,8c0-0.549,0.447-0.994,0.995-0.994h4.46l0.261,0.056
	l0.055-0.247V5.163L16,8.001l-2.84,2.841V8.961z"/>
</svg>
