<?xml version="1.0" encoding="utf-8"?>
<!-- Generator: Adobe Illustrator 16.0.0, SVG Export Plug-In . SVG Version: 6.00 Build 0)  -->
<!DOCTYPE svg PUBLIC "-//W3C//DTD SVG 1.1//EN" "http://www.w3.org/Graphics/SVG/1.1/DTD/svg11.dtd">
<svg version="1.1" id="图层_1" xmlns="http://www.w3.org/2000/svg" xmlns:xlink="http://www.w3.org/1999/xlink" x="0px" y="0px"
	 width="16px" height="16px" viewBox="0 0 16 16" enable-background="new 0 0 16 16" xml:space="preserve">
<g>
	<g>
		<path fill="#6F7985" d="M12.217,4.696c-0.729,1.335-2.699,5.087-3.432,6.429l-2.261,1.381l-0.027-0.002l0.119-2.559l0.357-0.768
			l2.431-4.454L9.938,3.74l0.154-0.286c0.014-0.016-0.211-0.137-0.199-0.142L9.561,3.121L9.168,3.843L5.973,9.688l-0.189,0.346
			L5.67,13.967l0.033-0.004l3.505-2.217c0.742-1.371,2.242-4.307,3.586-6.751l-0.568-0.318C12.223,4.677,12.227,4.69,12.217,4.696z"
			/>
		<path fill="#6F7985" d="M13.848,0.92l-1.461-0.791c-0.256-0.139-0.539-0.164-0.793-0.085C11.34,0.12,11.111,0.299,10.977,0.55
			l-0.271,0.485l3.273,1.813c0.102-0.194,0.203-0.375,0.271-0.511c0.143-0.254,0.168-0.54,0.092-0.797
			C14.268,1.282,14.094,1.059,13.848,0.92z"/>
		<polygon fill="#6F7985" points="9.914,2.573 13.193,4.366 13.674,3.48 10.4,1.687 		"/>
		<polygon fill="#6F7985" points="7.892,9.934 8.135,10.57 11.561,4.367 10.678,3.892 7.254,10.084 		"/>
	</g>
	<g>
		<g>
			<rect x="4.68" y="14.527" fill="#6F7985" width="8.009" height="1.473"/>
		</g>
		<g>
			<rect x="1.616" y="14.527" fill="#6F7985" width="1.859" height="1.473"/>
		</g>
	</g>
</g>
</svg>
