<?xml version="1.0" encoding="utf-8"?>
<!-- Generator: Adobe Illustrator 16.0.0, SVG Export Plug-In . SVG Version: 6.00 Build 0)  -->
<!DOCTYPE svg PUBLIC "-//W3C//DTD SVG 1.1//EN" "http://www.w3.org/Graphics/SVG/1.1/DTD/svg11.dtd">
<svg version="1.1" id="图层_1" xmlns="http://www.w3.org/2000/svg" xmlns:xlink="http://www.w3.org/1999/xlink" x="0px" y="0px"
	 width="16px" height="16px" viewBox="0 0 16 16" enable-background="new 0 0 16 16" xml:space="preserve">
<g>
	<path fill="#6F7985" d="M14.975,9.69H9.238c-0.475,0-0.859,0.385-0.859,0.86v4.588C8.379,15.613,8.764,16,9.238,16h5.736
		c0.475,0,0.859-0.387,0.859-0.861v-4.588C15.834,10.075,15.449,9.69,14.975,9.69z M9.79,10.734c0-0.113,0.092-0.206,0.206-0.206
		h0.205c0.115,0,0.207,0.093,0.207,0.206v0.206c0,0.114-0.092,0.206-0.207,0.206H9.996c-0.114,0-0.206-0.092-0.206-0.206V10.734z
		 M8.93,10.734c0-0.113,0.092-0.206,0.206-0.206h0.206c0.113,0,0.206,0.093,0.206,0.206v0.206c0,0.114-0.093,0.206-0.206,0.206
		H9.136c-0.114,0-0.206-0.092-0.206-0.206V10.734z M15.262,15.139c0,0.158-0.129,0.287-0.287,0.287H9.238
		c-0.158,0-0.287-0.129-0.287-0.287v-3.44h6.311V15.139z M15.262,11.125h-4.59v-0.574h4.59V11.125z"/>
	<g>
		<rect x="12.165" y="13.834" fill="#6F7985" width="2.519" height="0.755"/>
		<g>
			<path fill="#6F7985" d="M7.379,15.139v-4.588c0-1.025,0.834-1.86,1.859-1.86H9.5V0H0.166v16H7.6
				C7.463,15.741,7.379,15.451,7.379,15.139z M1.5,1.333h6.666v1.601H1.5V1.333z M1.5,4.267h6.666v1.6H1.5V4.267z M1.5,7.2h6.666
				v1.6H1.5V7.2z M5.369,14.151H4.371l-0.732-3.334h0.84l0.396,2.576h0.01l0.4-2.576h0.842L5.369,14.151z"/>
		</g>
		<polygon fill="#6F7985" points="10.347,12.044 9.429,12.044 10.689,13.305 9.43,14.564 10.348,14.564 11.607,13.305 		"/>
	</g>
</g>
</svg>
