<?xml version="1.0" encoding="utf-8"?>
<!-- Generator: Adobe Illustrator 16.0.0, SVG Export Plug-In . SVG Version: 6.00 Build 0)  -->
<!DOCTYPE svg PUBLIC "-//W3C//DTD SVG 1.1//EN" "http://www.w3.org/Graphics/SVG/1.1/DTD/svg11.dtd">
<svg version="1.1" id="图层_1" xmlns="http://www.w3.org/2000/svg" xmlns:xlink="http://www.w3.org/1999/xlink" x="0px" y="0px"
	 width="16px" height="16px" viewBox="0 0 16 16" enable-background="new 0 0 16 16" xml:space="preserve">
<g>
	<path fill="#6F7985" d="M14.67,0.103H8H1.332C0.596,0.103,0,0.691,0,1.433v10.314c0,0.741,0.596,1.341,1.332,1.341h4.795v1.732
		h-1.08v1.077H8h2.953V14.82H9.875v-1.732h4.795c0.735,0,1.33-0.6,1.33-1.341V1.433C16,0.691,15.405,0.103,14.67,0.103z
		 M15.272,10.036H8H0.727V1.433c0-0.329,0.277-0.607,0.605-0.607H8h6.67c0.333,0,0.603,0.278,0.603,0.607V10.036z"/>
	<polygon fill="#6F7985" points="8.387,6.034 11.039,3.828 8.371,1.64 8.375,3.071 4.961,3.086 4.969,4.614 8.383,4.601 	"/>
	<polygon fill="#6F7985" points="7.646,5.188 4.959,7.349 7.59,9.582 7.607,8.148 11.023,8.192 11.041,6.665 7.627,6.621 	"/>
</g>
</svg>
