<?xml version="1.0" encoding="utf-8"?>
<!-- Generator: Adobe Illustrator 16.0.0, SVG Export Plug-In . SVG Version: 6.00 Build 0)  -->
<!DOCTYPE svg PUBLIC "-//W3C//DTD SVG 1.1//EN" "http://www.w3.org/Graphics/SVG/1.1/DTD/svg11.dtd">
<svg version="1.1" id="图层_1" xmlns="http://www.w3.org/2000/svg" xmlns:xlink="http://www.w3.org/1999/xlink" x="0px" y="0px"
	 width="16px" height="16px" viewBox="0 0 16 16" enable-background="new 0 0 16 16" xml:space="preserve">
<g>
	<g>
		<polygon fill="#6F7985" points="8.139,4.011 8.732,4.011 8.732,4.838 8.139,4.838 8.139,5.527 8.732,5.527 8.732,6.354 
			8.139,6.354 8.139,7.042 8.732,7.042 8.732,7.874 8.139,7.874 8.139,11.597 9.422,11.597 9.422,3.321 8.139,3.321 		"/>
		<polygon fill="#6F7985" points="9.765,4.526 10.121,4.526 10.121,5.229 9.765,5.229 9.765,5.819 10.121,5.819 10.121,6.522 
			9.765,6.522 9.765,7.106 10.121,7.106 10.121,7.812 9.765,7.812 9.765,10.976 10.705,10.976 10.705,3.941 9.765,3.941 		"/>
		<path fill="#6F7985" d="M2.378,2.959v9h5.241v-9H2.378z M4.998,10.938c-0.317,0-0.577-0.259-0.577-0.577
			c0-0.319,0.26-0.577,0.577-0.577c0.319,0,0.577,0.258,0.577,0.577C5.575,10.68,5.317,10.938,4.998,10.938z M5.796,8.472H4.218
			L3.061,4.541h1.327l0.628,3.037h0.014l0.634-3.037h1.328L5.796,8.472z"/>
	</g>
	<path fill="#6F7985" d="M6.743,0.054L6.408-0.001L0,1.288l0.002,7.759c0,0,0.002,0.23,0.057,0.526
		c0.402,2.963,3.221,4.845,4.893,5.717l1.493,0.709l1.55-0.735c1.633-0.854,4.433-2.727,4.825-5.626
		c0.065-0.365,0.065-0.594,0.067-0.635V1.288L6.743,0.054z M12.096,9.003c0,0.021-0.002,0.205-0.055,0.496
		c-0.35,2.573-2.915,4.279-4.414,5.065l-1.183,0.561l-1.153-0.547c-1.528-0.799-4.096-2.505-4.449-5.11
		C0.795,9.21,0.791,9.028,0.791,9.028V1.933l5.623-1.129l0.025,0.004l0.008-0.003l0.172,0.03l5.477,1.098V9.003z"/>
</g>
</svg>
