<?xml version="1.0" encoding="utf-8"?>
<!-- Generator: Adobe Illustrator 16.0.0, SVG Export Plug-In . SVG Version: 6.00 Build 0)  -->
<!DOCTYPE svg PUBLIC "-//W3C//DTD SVG 1.1//EN" "http://www.w3.org/Graphics/SVG/1.1/DTD/svg11.dtd">
<svg version="1.1" id="图层_1" xmlns="http://www.w3.org/2000/svg" xmlns:xlink="http://www.w3.org/1999/xlink" x="0px" y="0px"
	 width="16px" height="16px" viewBox="0 0 16 16" enable-background="new 0 0 16 16" xml:space="preserve">
<g>
	<path fill="#6F7985" d="M8.059,13.612c0-0.807,0.23-2.309,0.425-3.426l0.168-0.969h2.772V0H2.2v15.812h6.691
		C8.38,15.219,8.059,14.457,8.059,13.612z M3.518,1.317h6.589v1.582H3.518V1.317z M3.518,4.217h6.589v1.58H3.518V4.217z
		 M3.518,7.115h6.589v1.581H3.518V7.115z M6.354,13.984l-0.724-3.295h0.83l0.393,2.548h0.009l0.396-2.548H8.09l-0.748,3.295H6.354z"
		/>
	<path fill="#6F7985" d="M13.39,10.355l-0.026-0.149h-1.396l0.037,0.211c0.125,0.72,0.421,2.471,0.421,3.195
		c0,0.555-0.449,1.008-1.001,1.008c-0.553,0-1.002-0.453-1.002-1.008c0-0.725,0.294-2.476,0.421-3.195l0.037-0.211H9.482
		l-0.025,0.149c-0.153,0.885-0.41,2.486-0.41,3.257c0,1.316,1.066,2.388,2.377,2.388c1.31,0,2.376-1.071,2.376-2.388
		C13.8,12.842,13.542,11.24,13.39,10.355z M11.424,15.638c-1.112,0-2.016-0.907-2.016-2.025c0-0.457,0.096-1.229,0.205-1.958h0.659
		c-0.114,0.742-0.213,1.518-0.213,1.958c0,0.755,0.611,1.368,1.364,1.368c0.751,0,1.362-0.613,1.362-1.368
		c0-0.44-0.099-1.216-0.211-1.958h0.658c0.108,0.729,0.204,1.501,0.204,1.958C13.438,14.73,12.534,15.638,11.424,15.638z"/>
</g>
</svg>
