<?xml version="1.0" encoding="utf-8"?>
<!-- Generator: Adobe Illustrator 16.0.0, SVG Export Plug-In . SVG Version: 6.00 Build 0)  -->
<!DOCTYPE svg PUBLIC "-//W3C//DTD SVG 1.1//EN" "http://www.w3.org/Graphics/SVG/1.1/DTD/svg11.dtd">
<svg version="1.1" id="图层_1" xmlns="http://www.w3.org/2000/svg" xmlns:xlink="http://www.w3.org/1999/xlink" x="0px" y="0px"
	 width="16px" height="16px" viewBox="0 0 16 16" enable-background="new 0 0 16 16" xml:space="preserve">
<g>
	<path fill="#6F7985" d="M7.729,11.401c-0.012-0.059-0.023-0.118-0.039-0.176c-0.043-0.146-0.092-0.285-0.151-0.414
		c-0.047-0.104-0.101-0.201-0.156-0.295c-0.004-0.006-0.007-0.015-0.011-0.022L7.37,10.496C7.212,10.232,7.032,9.993,6.846,9.78
		C6.815,9.742,6.796,9.72,6.77,9.688L6.288,9.106C6.075,8.823,5.922,8.533,5.922,8.191c0-1.881,1.384-2.126,1.384-2.952H4.164
		c0,0.826,1.384,1.071,1.384,2.952c0,0.499-0.314,0.888-0.688,1.308c0,0-0.1,0.112-0.236,0.281
		c-0.187,0.213-0.365,0.452-0.525,0.716v-0.002c-0.004,0.008-0.008,0.017-0.012,0.023c-0.057,0.094-0.109,0.19-0.156,0.294
		c-0.06,0.129-0.109,0.269-0.15,0.414c-0.016,0.058-0.027,0.117-0.04,0.176c-0.04,0.19-0.069,0.391-0.069,0.614H2.579
		c0.006-0.253,0.025-0.481,0.051-0.696c0.008-0.063,0.019-0.118,0.027-0.178c0.023-0.152,0.05-0.3,0.082-0.435
		c0.012-0.048,0.023-0.094,0.036-0.14c0.04-0.146,0.084-0.283,0.134-0.408c0.008-0.02,0.014-0.04,0.021-0.06
		C2.992,9.952,3.058,9.815,3.13,9.691L3.128,9.69c0.68-1.183,1.746-1.306,1.746-2.366c0-1.001-0.947-1.154-1.625-2.158
		C3.251,5.168,3.254,5.17,3.257,5.173C3.078,4.912,2.919,4.594,2.799,4.187C2.795,4.173,2.792,4.157,2.788,4.144
		C2.737,3.967,2.697,3.771,2.664,3.56C2.657,3.514,2.649,3.47,2.644,3.422c-0.033-0.24-0.057-0.499-0.064-0.79H8.89
		c-0.007,0.291-0.03,0.55-0.062,0.791C8.821,3.47,8.813,3.514,8.806,3.559C8.772,3.771,8.731,3.967,8.682,4.144
		C8.678,4.157,8.675,4.173,8.671,4.187C8.552,4.594,8.392,4.912,8.213,5.173C8.216,5.17,8.219,5.168,8.222,5.166
		C7.543,6.17,6.595,6.323,6.595,7.324c0,0.452,0.199,0.734,0.475,1l0.598-0.597c-0.195-0.183-0.229-0.26-0.229-0.403
		c0-0.175,0.038-0.241,0.472-0.604c0.709-0.597,1.765-1.502,1.823-4.088h0.174c0.288,0,0.521-0.233,0.521-0.522V1.067H1.042v1.042
		c0,0.289,0.234,0.522,0.521,0.522h0.174C1.796,5.218,2.852,6.123,3.562,6.72c0.433,0.363,0.471,0.43,0.471,0.604
		c0,0.19-0.059,0.265-0.48,0.624C3.036,8.386,2.34,9.001,1.978,10.294c-0.006,0.021-0.014,0.038-0.019,0.059
		c-0.054,0.197-0.095,0.417-0.13,0.648c-0.006,0.039-0.017,0.073-0.021,0.114c-0.037,0.275-0.062,0.575-0.07,0.9H1.563
		c-0.287,0-0.521,0.236-0.521,0.522v0.522H0.521C0.233,13.061,0,13.294,0,13.581v0.521h7.966v-2.087H7.8
		C7.8,11.792,7.771,11.592,7.729,11.401z"/>
	<polygon fill="#6F7985" points="16,13.343 14.411,11.754 14.411,12.594 11.544,12.594 13.806,10.332 14.4,10.926 14.4,8.679 
		12.153,8.679 12.747,9.272 10.471,11.549 10.471,8.684 11.312,8.684 9.722,7.095 8.132,8.684 8.972,8.684 8.972,12.594 
		8.971,12.594 8.971,14.092 14.41,14.092 14.41,14.933 	"/>
</g>
</svg>
