<?xml version="1.0" encoding="utf-8"?>
<!-- Generator: Adobe Illustrator 16.0.0, SVG Export Plug-In . SVG Version: 6.00 Build 0)  -->
<!DOCTYPE svg PUBLIC "-//W3C//DTD SVG 1.1//EN" "http://www.w3.org/Graphics/SVG/1.1/DTD/svg11.dtd">
<svg version="1.1" id="图层_1" xmlns="http://www.w3.org/2000/svg" xmlns:xlink="http://www.w3.org/1999/xlink" x="0px" y="0px"
	 width="16px" height="16px" viewBox="0 0 16 16" enable-background="new 0 0 16 16" xml:space="preserve">
<g>
	<path fill="#6F7985" d="M8.072,12.9c0-0.913,0.307-1.75,0.81-2.436V9.434c0-0.17,0.138-0.307,0.305-0.307h1.346
		c0.513-0.228,1.077-0.359,1.674-0.359c0.061,0,0.118,0.015,0.179,0.018c0.037-0.001,0.07-0.011,0.106-0.011v-7.86
		C12.491,0.409,12.082,0,11.576,0H1.609C1.104,0,0.694,0.409,0.694,0.914v13.478c0,0.507,0.409,0.914,0.915,0.914h7.249
		C8.369,14.627,8.072,13.8,8.072,12.9z M11.271,7.758c0,0.166-0.138,0.303-0.306,0.303H9.187c-0.167,0-0.305-0.137-0.305-0.303
		V6.587c0-0.169,0.138-0.308,0.305-0.308h1.778c0.168,0,0.306,0.138,0.306,0.308V7.758z M1.914,1.526
		c0-0.169,0.137-0.305,0.306-0.305h8.745c0.168,0,0.306,0.136,0.306,0.305v3.05c0,0.17-0.138,0.306-0.306,0.306H2.22
		c-0.169,0-0.306-0.136-0.306-0.306V1.526z M4.305,13.452c0,0.168-0.139,0.305-0.307,0.305H2.22c-0.169,0-0.306-0.137-0.306-0.305
		v-1.174c0-0.167,0.137-0.304,0.306-0.304h1.778c0.168,0,0.307,0.137,0.307,0.304V13.452z M4.305,10.605
		c0,0.168-0.139,0.303-0.307,0.303H2.22c-0.169,0-0.306-0.135-0.306-0.303V9.434c0-0.17,0.137-0.307,0.306-0.307h1.778
		c0.168,0,0.307,0.137,0.307,0.307V10.605z M4.305,7.758c0,0.166-0.139,0.303-0.307,0.303H2.22c-0.169,0-0.306-0.137-0.306-0.303
		V6.587c0-0.169,0.137-0.308,0.306-0.308h1.778c0.168,0,0.307,0.138,0.307,0.308V7.758z M7.788,13.452
		c0,0.168-0.139,0.305-0.305,0.305H5.701c-0.166,0-0.305-0.137-0.305-0.305v-1.174c0-0.167,0.139-0.304,0.305-0.304h1.782
		c0.166,0,0.305,0.137,0.305,0.304V13.452z M7.788,10.605c0,0.168-0.139,0.303-0.305,0.303H5.701c-0.166,0-0.305-0.135-0.305-0.303
		V9.434c0-0.17,0.139-0.307,0.305-0.307h1.782c0.166,0,0.305,0.137,0.305,0.307V10.605z M7.788,7.758
		c0,0.166-0.139,0.303-0.305,0.303H5.701c-0.166,0-0.305-0.137-0.305-0.303V6.587c0-0.169,0.139-0.308,0.305-0.308h1.782
		c0.166,0,0.305,0.138,0.305,0.308V7.758z"/>
	<path fill="#6F7985" d="M12.206,9.801c-1.714,0-3.101,1.386-3.101,3.1c0,1.711,1.387,3.1,3.101,3.1c1.711,0,3.1-1.389,3.1-3.1
		C15.306,11.187,13.917,9.801,12.206,9.801z M13.922,13.411h-1.193v1.166h-1.046v-1.166h-1.194V12.39h1.194v-1.166h1.046v1.166
		h1.193V13.411z"/>
</g>
</svg>
