<?xml version="1.0" encoding="utf-8"?>
<!-- Generator: Adobe Illustrator 19.2.1, SVG Export Plug-In . SVG Version: 6.00 Build 0)  -->
<svg version="1.1" id="图层_1" xmlns="http://www.w3.org/2000/svg" xmlns:xlink="http://www.w3.org/1999/xlink" x="0px" y="0px" width="16px" height="16px" 
	 viewBox="0 0 16 16" style="enable-background:new 0 0 16 16;" xml:space="preserve">
<g>
	<g>
		<path fill="#6F7985" d="M14.7,0h-3.8c-0.6,0-1.1,0.5-1.1,1.1v2.5L5.7,5.9c-0.1-0.4-0.5-0.7-1-0.7H1.2c-0.6,0-1,0.5-1,1.1v3.6c0,0.5,0.4,0.9,0.8,1
			h1.5v0h0.9v0h1.3c0.4,0,0.7-0.2,0.9-0.6l3.1,2.5v2.5c0,0.4,0.3,0.8,0.7,0.9h1.3v0h0.8v0h1.2c0.5,0,0.9-0.4,0.9-0.9V12
			c0-0.5-0.4-0.9-0.9-0.9h-3c-0.3,0-0.6,0.2-0.8,0.5L5.8,9.1V6.9l4-2.2V5c0,0.6,0.4,1,0.9,1.1h1.6v0h1v0h1.4c0.6,0,1.1-0.5,1.1-1.1
			V1.1C15.8,0.5,15.3,0,14.7,0z"/>
	</g>
</g>
</svg>
