<?xml version="1.0" encoding="utf-8"?>
<!-- Generator: Adobe Illustrator 19.2.1, SVG Export Plug-In . SVG Version: 6.00 Build 0)  -->
<svg version="1.1" id="图层_1" xmlns="http://www.w3.org/2000/svg" xmlns:xlink="http://www.w3.org/1999/xlink" x="0px" y="0px" width="16px" height="16px" 
	 viewBox="0 0 16 16" style="enable-background:new 0 0 16 16;" xml:space="preserve">
<g>
	<g>
		<g>
			<path fill="#6F7985" d="M7.8,8.1c0-0.3-0.1-0.7-0.4-0.9L7.3,4.8c0-0.2-0.2-0.5-0.6-0.5c-0.4,0-0.5,0.3-0.6,0.5l0,2.5C5.8,7.5,5.7,7.8,5.7,8.1
				c0,0.5,0.4,1,0.9,1c0,0,0.1,0,0.1,0l1.6,1.4c0.1,0.1,0.2,0.1,0.4,0.1c0.2,0,0.3-0.1,0.4-0.2c0.3-0.3,0.2-0.6,0-0.8L7.8,8.1z"/>
			<path fill="#6F7985" d="M8.4,12.6c-0.3,0.1-0.5,0.2-0.8,0.2v-0.1c0-0.4-0.4-0.8-0.8-0.8c-0.4,0-0.8,0.4-0.8,0.8v0.1c-2.1-0.3-3.7-2-4-4H2
				c0.4,0,0.8-0.4,0.8-0.8c0-0.5-0.4-0.8-0.8-0.8H1.9c0.3-2.1,2-3.7,4-4v0.1c0,0.4,0.4,0.8,0.8,0.8c0.4,0,0.8-0.4,0.8-0.8V3.2
				c2.1,0.3,3.7,2,4,4h-0.1c-0.4,0-0.8,0.4-0.8,0.8c0,0.3,0.2,0.5,0.4,0.7l2-2L13.4,7c-0.5-3.2-3.3-5.7-6.6-5.7C3,1.3,0,4.3,0,8
				c0,3.7,3,6.7,6.7,6.7c0.5,0,1.1-0.1,1.6-0.2c-0.3-0.2-0.6-0.4-0.8-0.7L8.4,12.6z"/>
			<path fill="#6F7985" d="M8.4,12.6c0,0,0.1,0,0.1,0C8.5,12.5,8.4,12.5,8.4,12.6L8.4,12.6z"/>
		</g>
		<path fill="#6F7985" d="M14.1,10.8l1.9,0l-3-3l-3,3l2,0c0.1,3.5-2.4,3.3-4,2.4C10.4,15.5,14.2,15,14.1,10.8z"/>
	</g>
</g>
</svg>
