<?xml version="1.0" encoding="utf-8"?>
<!-- Generator: Adobe Illustrator 16.0.0, SVG Export Plug-In . SVG Version: 6.00 Build 0)  -->
<!DOCTYPE svg PUBLIC "-//W3C//DTD SVG 1.1//EN" "http://www.w3.org/Graphics/SVG/1.1/DTD/svg11.dtd">
<svg version="1.1" id="图层_1" xmlns="http://www.w3.org/2000/svg" xmlns:xlink="http://www.w3.org/1999/xlink" x="0px" y="0px"
	 width="15px" height="16px" viewBox="0 0 15 16" enable-background="new 0 0 15 16" xml:space="preserve">
<g>
	<g>
		<path fill="#6F7985" d="M5.603,10.623c0-0.789,0.643-1.432,1.433-1.432h1.081C8.119,9.186,8.123,9.18,8.125,9.174V0H0v13.951
			h5.603V10.623z M1.059,2.452h2.057l0.973,4.708H4.11l0.982-4.708h2.059L5.298,8.545H2.852L1.059,2.452z M4.062,12.369
			c-0.493,0-0.895-0.4-0.895-0.895s0.402-0.895,0.895-0.895c0.496,0,0.895,0.4,0.895,0.895S4.558,12.369,4.062,12.369z"/>
	</g>
	<path fill="#6F7985" d="M6.546,10.139V16h7.468v-5.861H6.546z M11.717,10.713h0.574v0.576h-0.574V10.713z M10.567,10.713h0.575
		v0.576h-0.575V10.713z M13.439,15.426H7.122v-3.564h6.318V15.426z M13.439,11.289h-0.575v-0.576h0.575V11.289z"/>
</g>
</svg>
