<?xml version="1.0" encoding="utf-8"?>
<!-- Generator: Adobe Illustrator 16.0.0, SVG Export Plug-In . SVG Version: 6.00 Build 0)  -->
<!DOCTYPE svg PUBLIC "-//W3C//DTD SVG 1.1//EN" "http://www.w3.org/Graphics/SVG/1.1/DTD/svg11.dtd">
<svg version="1.1" id="图层_1" xmlns="http://www.w3.org/2000/svg" xmlns:xlink="http://www.w3.org/1999/xlink" x="0px" y="0px"
	 width="13px" height="16px" viewBox="0 0 13 16" enable-background="new 0 0 13 16" xml:space="preserve">
<g>
	<path fill="#6F7985" d="M0,0v15.336H6.71c-0.494-0.646-0.799-1.442-0.799-2.316c0-1.84,1.303-3.379,3.036-3.748V0H0z M4.473,13.621
		c-0.543,0-0.985-0.441-0.985-0.985S3.93,11.65,4.473,11.65c0.546,0,0.985,0.441,0.985,0.985S5.019,13.621,4.473,13.621z
		 M5.834,9.41H3.141L1.166,2.7h2.265l1.071,5.186h0.024L5.608,2.7h2.268L5.834,9.41z"/>
	<path fill="#6F7985" d="M11.853,10.912c-1.164-1.164-3.052-1.165-4.217-0.001c-1.164,1.164-1.162,3.052,0.002,4.216
		s3.051,1.164,4.215,0S13.017,12.076,11.853,10.912z M9.366,13.396H7.651v-0.754h1.715h0.756h1.715v0.753l-1.716,0.001H9.366z"/>
</g>
</svg>
