<?xml version="1.0" encoding="utf-8"?>
<!-- Generator: Adobe Illustrator 19.2.1, SVG Export Plug-In . SVG Version: 6.00 Build 0)  -->
<svg version="1.1" id="图层_1" xmlns="http://www.w3.org/2000/svg" xmlns:xlink="http://www.w3.org/1999/xlink" x="0px" y="0px"
	 viewBox="0 0 16 16" style="enable-background:new 0 0 16 16;"  width="16px" height="16px" xml:space="preserve">
<g>
	<g>
		<path fill="#6F7985" d="M6.6,1.4v1.2v3.6v1.2c0,0.8,0.6,1.4,1.4,1.4c0.8,0,1.4-0.6,1.4-1.4V6.2V2.6V1.4C9.4,0.6,8.8,0,8,0C7.2,0,6.6,0.6,6.6,1.4z
			"/>
		<path fill="#6F7985" d="M8,16c-2,0-4-0.8-5.5-2.2C1,12.4,0.1,10.4,0,8.3c-0.1-2.5,1-4.8,2.9-6.4c0.2-0.2,0.4-0.3,0.7-0.3c0.3,0,0.7,0.2,0.9,0.4
			c0.2,0.2,0.3,0.5,0.2,0.8c0,0.3-0.2,0.6-0.4,0.7C2.9,4.8,2.2,6.4,2.2,8.2c0,1.5,0.7,2.9,1.8,4c1.1,1,2.5,1.5,3.9,1.5
			c1.7,0,3.1-0.7,4.2-1.8c1.1-1.1,1.6-2.6,1.6-4.1c-0.1-1.7-0.8-3.2-2.1-4.3c-0.5-0.4-0.6-1.1-0.2-1.6c0.2-0.3,0.5-0.4,0.9-0.4
			c0.3,0,0.5,0.1,0.7,0.2c1.8,1.5,2.9,3.6,3,5.9c0.1,2.1-0.7,4.1-2.2,5.7c-1.5,1.5-3.4,2.4-5.6,2.5L8,16z"/>
	</g>
</g>
</svg>
