<?xml version="1.0" encoding="utf-8"?>
<!-- Generator: Adobe Illustrator 16.0.0, SVG Export Plug-In . SVG Version: 6.00 Build 0)  -->
<!DOCTYPE svg PUBLIC "-//W3C//DTD SVG 1.1//EN" "http://www.w3.org/Graphics/SVG/1.1/DTD/svg11.dtd">
<svg version="1.1" id="图层_1" xmlns="http://www.w3.org/2000/svg" xmlns:xlink="http://www.w3.org/1999/xlink" x="0px" y="0px"
	 width="16px" height="16px" viewBox="0 0 16 16" enable-background="new 0 0 16 16" xml:space="preserve">
<g>
	<g>
		<g>
			<path fill="#6F7985" d="M172.854,97.574h1.844v6.249h-1.844V97.574z"/>
		</g>
		<g>
			<path fill="#6F7985" d="M173.777,94.495c0.604,0,1.094,0.489,1.094,1.095s-0.49,1.093-1.094,1.093s-1.094-0.487-1.094-1.093
				S173.174,94.495,173.777,94.495z"/>
		</g>
	</g>
	<g>
		<path fill="#6F7985" d="M173.775,107.159c-4.41,0-8-3.589-8-8s3.59-8,8-8c4.412,0,8,3.589,8,8S178.188,107.159,173.775,107.159z
			 M173.775,92.53c-3.654,0-6.629,2.974-6.629,6.629s2.975,6.629,6.629,6.629c3.655,0,6.629-2.974,6.629-6.629
			S177.431,92.53,173.775,92.53z"/>
	</g>
</g>
<g>
	<g>
		<path fill="#6F7985" d="M3.69,7.598h4.392c0.35-0.227,0.729-0.429,1.141-0.574v-1.27H3.69V7.598z M0,11.285h1.844V9.441H0V11.285z
			 M3.69,2.066v1.845h8.688V2.066H3.69z M3.69,11.289h2.081l-0.459-0.684l0.535-0.797c0.036-0.057,0.129-0.189,0.268-0.367H3.69
			V11.289z M0,7.598h1.844V5.754H0V7.598z M0,3.909h1.844V2.065H0V3.909z"/>
	</g>
	<path fill="#6F7985" d="M15.785,10.303c-0.082-0.123-2.039-2.995-4.586-2.995c-2.545,0-4.504,2.872-4.586,2.995L6.4,10.621
		l0.213,0.318c0.082,0.123,2.041,2.996,4.586,2.996c2.547,0,4.504-2.873,4.586-2.996L16,10.621L15.785,10.303z M11.199,12.789
		c-1.508,0-2.865-1.5-3.397-2.17c0.638-0.809,1.999-2.165,3.397-2.165c1.508,0,2.867,1.5,3.397,2.172
		C13.96,11.432,12.6,12.789,11.199,12.789z"/>
	<circle fill="#6F7985" cx="11.199" cy="10.622" r="1.493"/>
</g>
</svg>
