<?xml version="1.0" encoding="utf-8"?>
<!-- Generator: Adobe Illustrator 16.0.0, SVG Export Plug-In . SVG Version: 6.00 Build 0)  -->
<!DOCTYPE svg PUBLIC "-//W3C//DTD SVG 1.1//EN" "http://www.w3.org/Graphics/SVG/1.1/DTD/svg11.dtd">
<svg version="1.1" id="图层_1" xmlns="http://www.w3.org/2000/svg" xmlns:xlink="http://www.w3.org/1999/xlink" x="0px" y="0px"
	 width="16px" height="16px" viewBox="0 0 16 16" enable-background="new 0 0 16 16" xml:space="preserve">
<g>
	<path fill="#6F7985" d="M10.718,6.227c0.054,0,0.109,0.003,0.162,0.01c0.259-0.32,0.653-0.525,1.096-0.525h0.456V3.877
		c0-0.793-0.644-1.435-1.435-1.435H1.434C0.644,2.443,0,3.084,0,3.877v5.738c0,0.791,0.644,1.434,1.434,1.434h6.752
		c-0.022-0.1-0.035-0.201-0.035-0.309V9.533c0-0.441,0.204-0.835,0.523-1.094C8.668,8.387,8.665,8.335,8.665,8.284
		c0-0.128,0.037-0.249,0.071-0.37L7.68,7.159L6.216,8.112L4.752,7.159L1.016,9.826L4.08,6.692L0.376,3.804l5.84,3.151l5.84-3.151
		L8.353,6.692l0.661,0.677C9.029,7.351,9.035,7.328,9.052,7.31l0.678-0.673C9.988,6.375,10.342,6.227,10.718,6.227z"/>
	<path fill="#6F7985" d="M15.597,9.129h-0.8l0.574-0.571c0.157-0.157,0.157-0.409,0-0.566l-0.648-0.653
		c-0.078-0.075-0.18-0.111-0.284-0.111c-0.103,0-0.207,0.036-0.285,0.111l-0.568,0.57V7.12c0-0.225-0.182-0.404-0.402-0.404h-1.207
		c-0.224,0-0.404,0.18-0.404,0.404v0.8l-0.569-0.568c-0.077-0.079-0.182-0.12-0.284-0.12s-0.204,0.041-0.283,0.12L9.783,7.996
		C9.711,8.073,9.669,8.177,9.669,8.284c0,0.104,0.042,0.207,0.114,0.282l0.565,0.563h-0.79c-0.221,0-0.405,0.18-0.405,0.404v1.207
		c0,0.219,0.185,0.402,0.405,0.402h0.79L9.78,11.711c-0.16,0.156-0.16,0.41,0,0.568l0.646,0.645
		c0.079,0.082,0.183,0.119,0.286,0.119s0.207-0.037,0.285-0.119l0.574-0.57v0.801c0,0.223,0.181,0.402,0.404,0.402h1.207
		c0.221,0,0.402-0.18,0.402-0.402v-0.801l0.572,0.578c0.075,0.074,0.179,0.113,0.284,0.113c0.107,0,0.213-0.039,0.286-0.113
		l0.648-0.652c0.076-0.07,0.119-0.176,0.119-0.281c0-0.107-0.043-0.209-0.119-0.285l-0.57-0.57h0.791
		c0.224,0,0.403-0.184,0.403-0.402V9.533C16,9.309,15.82,9.129,15.597,9.129z M12.576,11.84c-0.941,0-1.702-0.76-1.702-1.701
		c0-0.945,0.761-1.707,1.702-1.707c0.943,0,1.704,0.761,1.704,1.707C14.28,11.08,13.52,11.84,12.576,11.84z"/>
</g>
</svg>
