<?xml version="1.0" encoding="utf-8"?>
<!-- Generator: Adobe Illustrator 16.0.0, SVG Export Plug-In . SVG Version: 6.00 Build 0)  -->
<!DOCTYPE svg PUBLIC "-//W3C//DTD SVG 1.1//EN" "http://www.w3.org/Graphics/SVG/1.1/DTD/svg11.dtd">
<svg version="1.1" id="图层_1" xmlns="http://www.w3.org/2000/svg" xmlns:xlink="http://www.w3.org/1999/xlink" x="0px" y="0px"
	 width="16px" height="16px" viewBox="0 0 16 16" enable-background="new 0 0 16 16" xml:space="preserve">
<g>
	<g>
		<rect x="15.217" y="6.427" fill="#6F7985" width="0.076" height="0.456"/>
		<rect x="14.943" y="6.427" fill="#6F7985" width="0.076" height="0.456"/>
		<rect x="14.67" y="6.427" fill="#6F7985" width="0.074" height="0.456"/>
		<rect x="14.396" y="6.427" fill="#6F7985" width="0.074" height="0.456"/>
		<rect x="14.123" y="6.427" fill="#6F7985" width="0.074" height="0.456"/>
		<rect x="13.85" y="6.427" fill="#6F7985" width="0.074" height="0.456"/>
		<rect x="13.574" y="6.427" fill="#6F7985" width="0.076" height="0.456"/>
		<rect x="13.301" y="6.427" fill="#6F7985" width="0.076" height="0.456"/>
		<rect x="13.027" y="6.427" fill="#6F7985" width="0.074" height="0.456"/>
		<rect x="12.754" y="6.427" fill="#6F7985" width="0.074" height="0.456"/>
		<rect x="12.48" y="6.427" fill="#6F7985" width="0.074" height="0.456"/>
		<rect x="12.207" y="6.427" fill="#6F7985" width="0.074" height="0.456"/>
		<rect x="11.932" y="6.427" fill="#6F7985" width="0.076" height="0.456"/>
		<rect x="11.658" y="6.427" fill="#6F7985" width="0.076" height="0.456"/>
		<rect x="11.385" y="6.427" fill="#6F7985" width="0.074" height="0.456"/>
		<rect x="11.111" y="6.427" fill="#6F7985" width="0.074" height="0.456"/>
		<rect x="10.838" y="6.427" fill="#6F7985" width="0.074" height="0.456"/>
		<rect x="10.564" y="6.427" fill="#6F7985" width="0.074" height="0.456"/>
		<rect x="10.289" y="6.427" fill="#6F7985" width="0.076" height="0.456"/>
		<rect x="10.016" y="6.427" fill="#6F7985" width="0.076" height="0.456"/>
		<rect x="9.742" y="6.427" fill="#6F7985" width="0.074" height="0.456"/>
		<rect x="9.469" y="6.427" fill="#6F7985" width="0.074" height="0.456"/>
		<rect x="9.195" y="6.427" fill="#6F7985" width="0.074" height="0.456"/>
		<rect x="8.921" y="6.427" fill="#6F7985" width="0.074" height="0.456"/>
		<rect x="8.647" y="6.427" fill="#6F7985" width="0.075" height="0.456"/>
		<rect x="7.278" y="6.427" fill="#6F7985" width="0.074" height="0.456"/>
		<rect x="7.004" y="6.427" fill="#6F7985" width="0.075" height="0.456"/>
		<rect x="6.73" y="6.427" fill="#6F7985" width="0.075" height="0.456"/>
		<rect x="6.457" y="6.427" fill="#6F7985" width="0.075" height="0.456"/>
		<rect x="6.183" y="6.427" fill="#6F7985" width="0.075" height="0.456"/>
		<rect x="5.909" y="6.427" fill="#6F7985" width="0.075" height="0.456"/>
		<rect x="5.636" y="6.427" fill="#6F7985" width="0.075" height="0.456"/>
		<rect x="5.361" y="6.427" fill="#6F7985" width="0.075" height="0.456"/>
		<rect x="5.088" y="6.427" fill="#6F7985" width="0.075" height="0.456"/>
		<rect x="4.814" y="6.427" fill="#6F7985" width="0.074" height="0.456"/>
		<rect x="4.541" y="6.427" fill="#6F7985" width="0.075" height="0.456"/>
		<rect x="4.267" y="6.427" fill="#6F7985" width="0.075" height="0.456"/>
		<rect x="3.993" y="6.427" fill="#6F7985" width="0.075" height="0.456"/>
		<rect x="3.719" y="6.427" fill="#6F7985" width="0.075" height="0.456"/>
		<rect x="3.445" y="6.427" fill="#6F7985" width="0.075" height="0.456"/>
		<rect x="3.172" y="6.427" fill="#6F7985" width="0.074" height="0.456"/>
		<rect x="2.898" y="6.427" fill="#6F7985" width="0.075" height="0.456"/>
		<rect x="2.624" y="6.427" fill="#6F7985" width="0.075" height="0.456"/>
		<rect x="2.351" y="6.427" fill="#6F7985" width="0.075" height="0.456"/>
		<rect x="2.077" y="6.427" fill="#6F7985" width="0.075" height="0.456"/>
		<rect x="1.803" y="6.427" fill="#6F7985" width="0.075" height="0.456"/>
		<rect x="1.529" y="6.427" fill="#6F7985" width="0.075" height="0.456"/>
		<rect x="1.255" y="6.427" fill="#6F7985" width="0.075" height="0.456"/>
		<rect x="0.981" y="6.427" fill="#6F7985" width="0.075" height="0.456"/>
		<rect x="0.708" y="6.427" fill="#6F7985" width="0.075" height="0.456"/>
		<rect x="0.434" y="6.427" fill="#6F7985" width="0.075" height="0.456"/>
		<rect x="15.492" y="6.427" fill="#6F7985" width="0.074" height="0.456"/>
		<rect x="1.424" y="3.433" fill="#6F7985" width="2.396" height="1.32"/>
		<rect x="6.802" y="3.433" fill="#6F7985" width="2.395" height="1.32"/>
		<rect x="12.18" y="3.433" fill="#6F7985" width="2.396" height="1.32"/>
		<path fill="#6F7985" d="M15.762,2.093H0.239C0.107,2.093,0,2.2,0,2.332v2.676h0.243c0.033,0,0.06,0.026,0.06,0.06v0.179
			c0,0.033-0.027,0.061-0.06,0.061H0v0.149h0.243c0.033,0,0.06,0.027,0.06,0.06v0.18c0,0.032-0.027,0.06-0.06,0.06H0v0.433
			c0,0.131,0.107,0.239,0.239,0.239h0.195V5.97h0.075v0.457h0.199V5.97h0.075v0.457h0.199V5.97h0.075v0.457h0.199V5.97H1.33v0.457
			h0.199V5.97h0.075v0.457h0.199V5.97h0.075v0.457h0.199V5.97h0.075v0.457h0.199V5.97h0.075v0.457h0.199V5.97h0.075v0.457h0.199
			V5.97h0.075v0.457h0.199V5.97h0.074v0.457h0.199V5.97H3.52v0.457h0.199V5.97h0.075v0.457h0.199V5.97h0.075v0.457h0.199V5.97h0.075
			v0.457h0.199V5.97h0.075v0.457h0.199V5.97h0.074v0.457h0.199V5.97h0.075v0.457h0.199V5.97h0.075v0.457h0.199V5.97H5.71v0.457
			h0.199V5.97h0.075v0.457h0.199V5.97h0.075v0.457h0.199V5.97h0.075v0.457H6.73V5.97h0.075v0.457h0.199V5.97h0.075v0.457h0.199V5.97
			h0.074v0.457h0.38V6.084c0-0.147,0.121-0.268,0.268-0.268s0.268,0.12,0.268,0.268v0.343h0.379V5.97h0.075v0.457h0.199V5.97h0.074
			v0.457h0.2V5.97H9.27v0.457h0.199V5.97h0.074v0.457h0.199V5.97h0.074v0.457h0.199V5.97h0.076v0.457h0.197V5.97h0.076v0.457h0.199
			V5.97h0.074v0.457h0.199V5.97h0.074v0.457h0.199V5.97h0.074v0.457h0.199V5.97h0.074v0.457h0.199V5.97h0.076v0.457h0.197V5.97
			h0.076v0.457h0.199V5.97h0.074v0.457h0.199V5.97h0.074v0.457h0.199V5.97h0.074v0.457h0.199V5.97h0.074v0.457h0.199V5.97h0.076
			v0.457h0.197V5.97h0.076v0.457h0.199V5.97h0.074v0.457h0.199V5.97h0.074v0.457h0.199V5.97h0.074v0.457h0.199V5.97h0.074v0.457
			h0.199V5.97h0.076v0.457h0.197V5.97h0.076v0.457h0.199V5.97h0.074v0.457h0.195C15.893,6.427,16,6.318,16,6.188V2.332
			C16,2.2,15.893,2.093,15.762,2.093z M4.096,4.827c0,0.111-0.09,0.202-0.202,0.202H1.35c-0.111,0-0.202-0.091-0.202-0.202V3.358
			c0-0.111,0.091-0.202,0.202-0.202h2.545c0.111,0,0.202,0.091,0.202,0.202V4.827z M9.475,4.827c0,0.111-0.09,0.202-0.201,0.202
			H6.728c-0.111,0-0.202-0.091-0.202-0.202V3.358c0-0.111,0.091-0.202,0.202-0.202h2.546c0.111,0,0.201,0.091,0.201,0.202V4.827z
			 M14.852,4.827c0,0.111-0.09,0.202-0.201,0.202h-2.545c-0.111,0-0.201-0.091-0.201-0.202V3.358c0-0.111,0.09-0.202,0.201-0.202
			h2.545c0.111,0,0.201,0.091,0.201,0.202V4.827z"/>
	</g>
	<g>
		<rect x="15.217" y="13.343" fill="#6F7985" width="0.076" height="0.457"/>
		<rect x="14.943" y="13.343" fill="#6F7985" width="0.076" height="0.457"/>
		<rect x="14.67" y="13.343" fill="#6F7985" width="0.074" height="0.457"/>
		<rect x="14.396" y="13.343" fill="#6F7985" width="0.074" height="0.457"/>
		<rect x="14.123" y="13.343" fill="#6F7985" width="0.074" height="0.457"/>
		<rect x="13.85" y="13.343" fill="#6F7985" width="0.074" height="0.457"/>
		<rect x="13.574" y="13.343" fill="#6F7985" width="0.076" height="0.457"/>
		<rect x="13.301" y="13.343" fill="#6F7985" width="0.076" height="0.457"/>
		<rect x="13.027" y="13.343" fill="#6F7985" width="0.074" height="0.457"/>
		<rect x="12.754" y="13.343" fill="#6F7985" width="0.074" height="0.457"/>
		<rect x="12.48" y="13.343" fill="#6F7985" width="0.074" height="0.457"/>
		<rect x="12.207" y="13.343" fill="#6F7985" width="0.074" height="0.457"/>
		<rect x="11.932" y="13.343" fill="#6F7985" width="0.076" height="0.457"/>
		<rect x="11.658" y="13.343" fill="#6F7985" width="0.076" height="0.457"/>
		<rect x="11.385" y="13.343" fill="#6F7985" width="0.074" height="0.457"/>
		<rect x="11.111" y="13.343" fill="#6F7985" width="0.074" height="0.457"/>
		<rect x="10.838" y="13.343" fill="#6F7985" width="0.074" height="0.457"/>
		<rect x="10.564" y="13.343" fill="#6F7985" width="0.074" height="0.457"/>
		<rect x="10.289" y="13.343" fill="#6F7985" width="0.076" height="0.457"/>
		<rect x="10.016" y="13.343" fill="#6F7985" width="0.076" height="0.457"/>
		<rect x="9.742" y="13.343" fill="#6F7985" width="0.074" height="0.457"/>
		<rect x="9.469" y="13.343" fill="#6F7985" width="0.074" height="0.457"/>
		<rect x="9.195" y="13.343" fill="#6F7985" width="0.074" height="0.457"/>
		<rect x="8.921" y="13.343" fill="#6F7985" width="0.074" height="0.457"/>
		<rect x="8.647" y="13.343" fill="#6F7985" width="0.075" height="0.457"/>
		<rect x="7.278" y="13.343" fill="#6F7985" width="0.074" height="0.457"/>
		<rect x="7.004" y="13.343" fill="#6F7985" width="0.075" height="0.457"/>
		<rect x="6.73" y="13.343" fill="#6F7985" width="0.075" height="0.457"/>
		<rect x="6.457" y="13.343" fill="#6F7985" width="0.075" height="0.457"/>
		<rect x="6.183" y="13.343" fill="#6F7985" width="0.075" height="0.457"/>
		<rect x="5.909" y="13.343" fill="#6F7985" width="0.075" height="0.457"/>
		<rect x="5.636" y="13.343" fill="#6F7985" width="0.075" height="0.457"/>
		<rect x="5.361" y="13.343" fill="#6F7985" width="0.075" height="0.457"/>
		<rect x="5.088" y="13.343" fill="#6F7985" width="0.075" height="0.457"/>
		<rect x="4.814" y="13.343" fill="#6F7985" width="0.074" height="0.457"/>
		<rect x="4.541" y="13.343" fill="#6F7985" width="0.075" height="0.457"/>
		<rect x="4.267" y="13.343" fill="#6F7985" width="0.075" height="0.457"/>
		<rect x="3.993" y="13.343" fill="#6F7985" width="0.075" height="0.457"/>
		<rect x="3.719" y="13.343" fill="#6F7985" width="0.075" height="0.457"/>
		<rect x="3.445" y="13.343" fill="#6F7985" width="0.075" height="0.457"/>
		<rect x="3.172" y="13.343" fill="#6F7985" width="0.074" height="0.457"/>
		<rect x="2.898" y="13.343" fill="#6F7985" width="0.075" height="0.457"/>
		<rect x="2.624" y="13.343" fill="#6F7985" width="0.075" height="0.457"/>
		<rect x="2.351" y="13.343" fill="#6F7985" width="0.075" height="0.457"/>
		<rect x="2.077" y="13.343" fill="#6F7985" width="0.075" height="0.457"/>
		<rect x="1.803" y="13.343" fill="#6F7985" width="0.075" height="0.457"/>
		<rect x="1.529" y="13.343" fill="#6F7985" width="0.075" height="0.457"/>
		<rect x="1.255" y="13.343" fill="#6F7985" width="0.075" height="0.457"/>
		<rect x="0.981" y="13.343" fill="#6F7985" width="0.075" height="0.457"/>
		<rect x="0.708" y="13.343" fill="#6F7985" width="0.075" height="0.457"/>
		<rect x="0.434" y="13.343" fill="#6F7985" width="0.075" height="0.457"/>
		<rect x="15.492" y="13.343" fill="#6F7985" width="0.074" height="0.457"/>
		<rect x="1.424" y="10.35" fill="#6F7985" width="2.396" height="1.319"/>
		<rect x="6.802" y="10.35" fill="#6F7985" width="2.395" height="1.319"/>
		<rect x="12.18" y="10.35" fill="#6F7985" width="2.396" height="1.319"/>
		<path fill="#6F7985" d="M15.762,9.01H0.239C0.107,9.01,0,9.117,0,9.248v2.677h0.243c0.033,0,0.06,0.026,0.06,0.06v0.179
			c0,0.033-0.027,0.061-0.06,0.061H0v0.148h0.243c0.033,0,0.06,0.027,0.06,0.061v0.179c0,0.033-0.027,0.06-0.06,0.06H0v0.433
			c0,0.132,0.107,0.239,0.239,0.239h0.195v-0.456h0.075v0.456h0.199v-0.456h0.075v0.456h0.199v-0.456h0.075v0.456h0.199v-0.456H1.33
			v0.456h0.199v-0.456h0.075v0.456h0.199v-0.456h0.075v0.456h0.199v-0.456h0.075v0.456h0.199v-0.456h0.075v0.456h0.199v-0.456h0.075
			v0.456h0.199v-0.456h0.075v0.456h0.199v-0.456h0.074v0.456h0.199v-0.456H3.52v0.456h0.199v-0.456h0.075v0.456h0.199v-0.456h0.075
			v0.456h0.199v-0.456h0.075v0.456h0.199v-0.456h0.075v0.456h0.199v-0.456h0.074v0.456h0.199v-0.456h0.075v0.456h0.199v-0.456h0.075
			v0.456h0.199v-0.456H5.71v0.456h0.199v-0.456h0.075v0.456h0.199v-0.456h0.075v0.456h0.199v-0.456h0.075v0.456H6.73v-0.456h0.075
			v0.456h0.199v-0.456h0.075v0.456h0.199v-0.456h0.074v0.456h0.38v-0.342c0-0.147,0.121-0.268,0.268-0.268s0.268,0.12,0.268,0.268
			v0.342h0.379v-0.456h0.075v0.456h0.199v-0.456h0.074v0.456h0.2v-0.456H9.27v0.456h0.199v-0.456h0.074v0.456h0.199v-0.456h0.074
			v0.456h0.199v-0.456h0.076v0.456h0.197v-0.456h0.076v0.456h0.199v-0.456h0.074v0.456h0.199v-0.456h0.074v0.456h0.199v-0.456h0.074
			v0.456h0.199v-0.456h0.074v0.456h0.199v-0.456h0.076v0.456h0.197v-0.456h0.076v0.456h0.199v-0.456h0.074v0.456h0.199v-0.456h0.074
			v0.456h0.199v-0.456h0.074v0.456h0.199v-0.456h0.074v0.456h0.199v-0.456h0.076v0.456h0.197v-0.456h0.076v0.456h0.199v-0.456h0.074
			v0.456h0.199v-0.456h0.074v0.456h0.199v-0.456h0.074v0.456h0.199v-0.456h0.074v0.456h0.199v-0.456h0.076v0.456h0.197v-0.456h0.076
			v0.456h0.199v-0.456h0.074v0.456h0.195c0.131,0,0.238-0.107,0.238-0.239V9.248C16,9.117,15.893,9.01,15.762,9.01z M4.096,11.744
			c0,0.111-0.09,0.202-0.202,0.202H1.35c-0.111,0-0.202-0.091-0.202-0.202v-1.47c0-0.111,0.091-0.202,0.202-0.202h2.545
			c0.111,0,0.202,0.091,0.202,0.202V11.744z M9.475,11.744c0,0.111-0.09,0.202-0.201,0.202H6.728c-0.111,0-0.202-0.091-0.202-0.202
			v-1.47c0-0.111,0.091-0.202,0.202-0.202h2.546c0.111,0,0.201,0.091,0.201,0.202V11.744z M14.852,11.744
			c0,0.111-0.09,0.202-0.201,0.202h-2.545c-0.111,0-0.201-0.091-0.201-0.202v-1.47c0-0.111,0.09-0.202,0.201-0.202h2.545
			c0.111,0,0.201,0.091,0.201,0.202V11.744z"/>
	</g>
</g>
</svg>
