<?xml version="1.0" encoding="utf-8"?>
<!-- Generator: Adobe Illustrator 16.0.0, SVG Export Plug-In . SVG Version: 6.00 Build 0)  -->
<!DOCTYPE svg PUBLIC "-//W3C//DTD SVG 1.1//EN" "http://www.w3.org/Graphics/SVG/1.1/DTD/svg11.dtd">
<svg version="1.1" id="图层_1" xmlns="http://www.w3.org/2000/svg" xmlns:xlink="http://www.w3.org/1999/xlink" x="0px" y="0px"
	 width="16px" height="16px" viewBox="0 0 16 16" enable-background="new 0 0 16 16" xml:space="preserve">
<g>
	<path fill="#6F7985" d="M7.637,12.943c0-1.85,1.25-3.395,2.943-3.883V0H1.248v16h7.809C8.195,15.256,7.637,14.168,7.637,12.943z
		 M2.581,1.334h6.667v1.6H2.581V1.334z M2.581,4.268h6.667v1.6H2.581V4.268z M2.581,7.201h6.667v1.6H2.581V7.201z M6.451,14.152
		H5.452L4.72,10.818h0.84l0.397,2.576h0.009l0.401-2.576h0.84L6.451,14.152z"/>
	<path fill="#6F7985" d="M11.693,9.887c-1.688,0-3.057,1.367-3.057,3.057c0,1.688,1.369,3.057,3.057,3.057
		c1.689,0,3.059-1.369,3.059-3.057C14.752,11.254,13.383,9.887,11.693,9.887z M13.539,12.471l-0.812,0.792l0.191,1.115
		c0.01,0.057-0.014,0.116-0.061,0.15c-0.025,0.019-0.059,0.028-0.09,0.028c-0.025,0-0.049-0.006-0.072-0.018l-1-0.526l-1.004,0.526
		c-0.051,0.026-0.113,0.023-0.16-0.011c-0.049-0.034-0.07-0.094-0.061-0.15l0.189-1.115l-0.809-0.792
		c-0.041-0.039-0.057-0.1-0.041-0.155c0.018-0.057,0.066-0.096,0.125-0.105l1.119-0.161l0.504-1.017
		c0.049-0.104,0.221-0.104,0.273,0l0.5,1.017l1.119,0.161c0.059,0.01,0.107,0.049,0.125,0.105
		C13.594,12.371,13.58,12.432,13.539,12.471z"/>
</g>
</svg>
