<?xml version="1.0" encoding="utf-8"?>
<!-- Generator: Adobe Illustrator 19.2.1, SVG Export Plug-In . SVG Version: 6.00 Build 0)  -->
<svg version="1.1" id="图层_1" xmlns="http://www.w3.org/2000/svg" xmlns:xlink="http://www.w3.org/1999/xlink" x="0px" y="0px"
	 viewBox="0 0 16 16" style="enable-background:new 0 0 16 16;" width="16" height="16" xml:space="preserve">
<style type="text/css">
	.st0{fill:#6F7985;}
</style>
<g>
	<g>
		<path class="st0" d="M8,16c-4.4,0-8-3.6-8-8c0-4.4,3.6-8,8-8c4.4,0,8,3.6,8,8C16,12.4,12.4,16,8,16z M8,1.4c-3.7,0-6.6,3-6.6,6.6
			c0,3.7,3,6.6,6.6,6.6c3.7,0,6.6-3,6.6-6.6C14.6,4.3,11.7,1.4,8,1.4z"/>
		<polygon class="st0" points="6.1,12.2 6.2,3.8 11.5,8 		"/>
	</g>
</g>
</svg>
