<?xml version="1.0" encoding="utf-8"?>
<!-- Generator: Adobe Illustrator 16.0.0, SVG Export Plug-In . SVG Version: 6.00 Build 0)  -->
<!DOCTYPE svg PUBLIC "-//W3C//DTD SVG 1.1//EN" "http://www.w3.org/Graphics/SVG/1.1/DTD/svg11.dtd">
<svg version="1.1" id="图层_1" xmlns="http://www.w3.org/2000/svg" xmlns:xlink="http://www.w3.org/1999/xlink" x="0px" y="0px"
	 width="16px" height="16px" viewBox="0 0 16 16" enable-background="new 0 0 16 16" xml:space="preserve">
<g>
	<path fill="#6F7985" d="M4.015,12.937h5.12c-0.204-0.48-0.315-1.008-0.315-1.562c0-1.43,0.757-2.682,1.888-3.393V1.464H4.015
		V12.937z M7.36,11.778c-0.408,0-0.737-0.332-0.737-0.738s0.329-0.738,0.737-0.738c0.407,0,0.736,0.332,0.736,0.738
		S7.768,11.778,7.36,11.778z M4.971,2.42H9.75v1.146H4.971V2.42z M4.971,4.523H9.75V5.67H4.971V4.523z M4.971,6.627H9.75v1.146
		H4.971V6.627z M11.256,2.324v0.812h2.652v0.976h-2.652v0.812h2.652v0.975h-2.652v0.812h2.652v0.805
		c0.285,0.079,0.555,0.189,0.812,0.326V2.324H11.256z M0,12.075h3.465v-1.561c-0.025,0.322-0.291,0.576-0.62,0.576
		c-0.347,0-0.627-0.281-0.627-0.627s0.28-0.627,0.627-0.627c0.329,0,0.595,0.254,0.62,0.576V7.687H0.812V6.712h2.652V5.899H0.812
		V4.925h2.652V4.112H0.812V3.137h2.652V2.324H0V12.075z"/>
	<path fill="#F74848" d="M12.84,8.216c-1.746,0-3.16,1.416-3.16,3.16s1.414,3.16,3.16,3.16S16,13.12,16,11.376
		S14.586,8.216,12.84,8.216z M13.855,12.392h-2.031V10.36h2.031V12.392z"/>
</g>
</svg>
