<?xml version="1.0" encoding="utf-8"?>
<!-- Generator: Adobe Illustrator 16.0.0, SVG Export Plug-In . SVG Version: 6.00 Build 0)  -->
<!DOCTYPE svg PUBLIC "-//W3C//DTD SVG 1.1//EN" "http://www.w3.org/Graphics/SVG/1.1/DTD/svg11.dtd">
<svg version="1.1" id="图层_1" xmlns="http://www.w3.org/2000/svg" xmlns:xlink="http://www.w3.org/1999/xlink" x="0px" y="0px"
	 width="16px" height="16px" viewBox="0 0 16 16" enable-background="new 0 0 16 16" xml:space="preserve">
<g>
	<path fill="#6F7985" d="M11.203,9.428l-1.48-2.71l3.086-0.065l-0.275,0.475c0,0,1.77,1.543,0.77,3.517c0,0-0.678-1.841-1.699-1.909
		L11.203,9.428z"/>
	<path fill="#6F7985" d="M6.283,14.04c0-1.381,0.949-2.544,2.23-2.87l0.076-0.125c0.209-0.337,0.482-0.606,0.781-0.842V0H0.039v16
		h6.99C6.566,15.479,6.283,14.796,6.283,14.04z M1.371,1.334h6.668v1.601H1.371V1.334z M1.371,4.267h6.668v1.6H1.371V4.267z
		 M1.371,7.2h6.668v1.601H1.371V7.2z M5.285,14.152h-1l-0.732-3.336h0.84l0.396,2.579h0.01l0.402-2.579h0.84L5.285,14.152z"/>
	<path fill="#6F7985" d="M15.961,13.754c0-1.229-0.99-2.225-2.215-2.244c0.16,0.312,0.258,0.66,0.258,1.034
		c0,0.854-0.475,1.591-1.17,1.984c0.42-0.347,0.715-0.835,0.805-1.396c0.02-0.118,0.035-0.239,0.035-0.364
		c0-0.25-0.049-0.486-0.125-0.713c-0.006-0.02-0.01-0.041-0.018-0.061c0,0,0-0.001,0-0.002c-0.021-0.055-0.039-0.108-0.062-0.162
		c0,0,0-0.001,0-0.002c-0.041-0.087-0.088-0.172-0.139-0.256c-0.402-0.652-1.119-1.091-1.943-1.091s-1.543,0.437-1.945,1.089
		c1.037,0.051,1.867,0.9,1.867,1.953c0,0.225-0.045,0.438-0.115,0.639c0.002-0.04,0.012-0.08,0.012-0.122
		c0-0.323-0.086-0.626-0.225-0.894c-0.01-0.021-0.021-0.04-0.033-0.061c-0.336-0.6-0.969-1.008-1.703-1.008
		c-1.082,0-1.961,0.879-1.961,1.962c0,1.063,0.848,1.923,1.904,1.954V16h4.607v-0.008C14.998,15.947,15.961,14.967,15.961,13.754z"
		/>
</g>
</svg>
