<?xml version="1.0" encoding="utf-8"?>
<!-- Generator: Adobe Illustrator 16.0.0, SVG Export Plug-In . SVG Version: 6.00 Build 0)  -->
<!DOCTYPE svg PUBLIC "-//W3C//DTD SVG 1.1//EN" "http://www.w3.org/Graphics/SVG/1.1/DTD/svg11.dtd">
<svg version="1.1" id="图层_1" xmlns="http://www.w3.org/2000/svg" xmlns:xlink="http://www.w3.org/1999/xlink" x="0px" y="0px"
	 width="15px" height="16px" viewBox="0 0 15 16" enable-background="new 0 0 15 16" xml:space="preserve">
<g>
	<g>
		<polygon fill="#6F7985" points="1.011,1.012 7.08,1.012 7.08,0 0,0 0,12.138 1.012,12.138 		"/>
		<g>
			<g>
				<path fill="#6F7985" d="M6.752,11.219c0-0.702,0.571-1.274,1.275-1.274h0.961C8.99,9.939,8.994,9.935,8.996,9.93V1.771H1.77
					v12.407h4.982V11.219z M2.711,3.952H4.54l0.866,4.187h0.019l0.874-4.187h1.832L6.481,9.37H4.306L2.711,3.952z M5.382,12.771
					c-0.438,0-0.796-0.356-0.796-0.796s0.357-0.796,0.796-0.796c0.44,0,0.796,0.356,0.796,0.796S5.823,12.771,5.382,12.771z"/>
			</g>
			<path fill="#6F7985" d="M7.591,10.786V16h6.641v-5.214H7.591z M12.189,11.297h0.512v0.513h-0.512V11.297z M11.168,11.297h0.512
				v0.513h-0.512V11.297z M13.723,15.488H8.104v-3.17h5.619V15.488z M13.723,11.81h-0.512v-0.513h0.512V11.81z"/>
		</g>
	</g>
</g>
</svg>
