<?xml version="1.0" encoding="utf-8"?>
<!-- Generator: Adobe Illustrator 16.0.0, SVG Export Plug-In . SVG Version: 6.00 Build 0)  -->
<!DOCTYPE svg PUBLIC "-//W3C//DTD SVG 1.1//EN" "http://www.w3.org/Graphics/SVG/1.1/DTD/svg11.dtd">
<svg version="1.1" id="图层_1" xmlns="http://www.w3.org/2000/svg" xmlns:xlink="http://www.w3.org/1999/xlink" x="0px" y="0px"
	 width="16px" height="16px" viewBox="0 0 16 16" enable-background="new 0 0 16 16" xml:space="preserve">
<g>
	<path fill="none" stroke="#6F7985" stroke-width="0.9898" stroke-miterlimit="10" d="M6.541,13.312"/>
	<path fill="#6F7985" d="M0.332,0v16h9.332V2.684V2.299V0H0.332z M1.666,4.265h6.662v1.599H1.666V4.265z M4.994,13.925
		c-0.551,0-1-0.447-1-0.999s0.449-1,1-1c0.557,0,1.006,0.448,1.006,1S5.551,13.925,4.994,13.925z M1.666,8.799V7.201h6.662v1.598
		H1.666z M8.328,2.684v0.253H1.666V1.335h6.662v0.964V2.684z"/>
	<polygon fill="#6F7985" points="13.205,5.941 15.668,3.908 13.205,1.87 13.205,3.197 10.041,3.197 10.041,4.614 13.205,4.614 	"/>
	<polygon fill="#6F7985" points="12.504,4.872 10.041,6.906 12.504,8.944 12.504,7.616 15.668,7.616 15.668,6.2 12.504,6.2 	"/>
</g>
</svg>
