<?xml version="1.0" encoding="utf-8"?>
<!-- Generator: Adobe Illustrator 16.0.0, SVG Export Plug-In . SVG Version: 6.00 Build 0)  -->
<!DOCTYPE svg PUBLIC "-//W3C//DTD SVG 1.1//EN" "http://www.w3.org/Graphics/SVG/1.1/DTD/svg11.dtd">
<svg version="1.1" id="图层_1" xmlns="http://www.w3.org/2000/svg" xmlns:xlink="http://www.w3.org/1999/xlink" x="0px" y="0px"
	 width="16px" height="16px" viewBox="0 0 16 16" enable-background="new 0 0 16 16" xml:space="preserve">
<g>
	<g>
		<g>
			<path fill="#6F7985" d="M11.973,10.15L9.842,8.02l2.082-2.08l-1.865-1.866L7.975,6.156L5.846,4.027L4.025,5.846l2.13,2.132
				l-2.08,2.08l1.862,1.867l2.084-2.084l2.129,2.13L11.973,10.15z"/>
		</g>
	</g>
	<g>
		<g>
			<path fill="#6F7985" d="M8,16c-4.411,0-8-3.589-8-8c0-4.412,3.589-8,8-8s8,3.588,8,8C16,12.411,12.411,16,8,16z M8,1.372
				C4.345,1.372,1.372,4.345,1.372,8S4.345,14.629,8,14.629c3.654,0,6.629-2.974,6.629-6.629S11.654,1.372,8,1.372z"/>
		</g>
	</g>
</g>
</svg>
