<?xml version="1.0" encoding="utf-8"?>
<!-- Generator: Adobe Illustrator 16.0.0, SVG Export Plug-In . SVG Version: 6.00 Build 0)  -->
<!DOCTYPE svg PUBLIC "-//W3C//DTD SVG 1.1//EN" "http://www.w3.org/Graphics/SVG/1.1/DTD/svg11.dtd">
<svg version="1.1" id="图层_1" xmlns="http://www.w3.org/2000/svg" xmlns:xlink="http://www.w3.org/1999/xlink" x="0px" y="0px"
	 width="16px" height="16px" viewBox="0 0 16 16" enable-background="new 0 0 16 16" xml:space="preserve">
<g>
	<path fill="#6F7985" d="M9.133,2.769h0.012l-0.006,7.271L9.32,9.857c0.23-0.234,0.545-0.362,0.869-0.387V1.723H2.871V2.74h6.262
		V2.769z"/>
	<path fill="#6F7985" d="M10.855,1.046h0.012L10.859,9.11C11.021,9.041,11.199,9,11.387,9h0.525V0H4.594v1.018h6.262V1.046z"/>
	<path fill="#6F7985" d="M1.088,16h7.32v-1.113c-0.018-0.087-0.053-0.17-0.051-0.262c0-0.031,0-0.062,0.002-0.092
		c-0.273-0.248-0.447-0.605-0.447-1.004v-1.057c0-0.402,0.176-0.764,0.455-1.012c-0.002-0.028-0.004-0.057-0.004-0.085
		c0-0.079,0.031-0.152,0.045-0.229V3.451h-7.32V16z M5.203,14.549H4.418l-0.574-2.614h0.66l0.311,2.022h0.008l0.314-2.022h0.66
		L5.203,14.549z M2.133,4.496h5.23v1.256h-5.23V4.496z M2.133,6.797h5.23v1.255h-5.23V6.797z M2.133,9.098h5.23v1.256h-5.23V9.098z"
		/>
	<path fill="#6F7985" d="M14.561,12.117h-0.703l0.504-0.502c0.139-0.137,0.139-0.359,0-0.496l-0.568-0.572
		c-0.004-0.006-0.012-0.004-0.018-0.008c-0.064-0.057-0.146-0.09-0.23-0.09c-0.092,0-0.182,0.031-0.25,0.098l-0.498,0.5v-0.692
		c0-0.198-0.16-0.354-0.354-0.354h-0.031h-0.498h-0.527c-0.197,0-0.354,0.156-0.354,0.354v0.701l-0.484-0.483l-0.016-0.016
		c-0.068-0.07-0.158-0.105-0.248-0.105s-0.18,0.035-0.25,0.105l-0.01,0.012l-0.561,0.555c-0.062,0.066-0.102,0.158-0.102,0.253
		c0,0.091,0.039,0.181,0.102,0.247l0.496,0.494H9.268c-0.193,0-0.355,0.156-0.355,0.355v1.057c0,0.193,0.162,0.354,0.355,0.354
		h0.693l-0.5,0.498c-0.139,0.139-0.139,0.359,0,0.5l0.223,0.221l0.346,0.344c0.068,0.071,0.158,0.105,0.25,0.105
		c0.09,0,0.182-0.034,0.248-0.105l0.506-0.501v0.702c0,0.197,0.156,0.354,0.354,0.354h1.057c0.193,0,0.354-0.156,0.354-0.354v-0.702
		l0.502,0.507c0.066,0.065,0.154,0.102,0.25,0.102c0.094,0,0.184-0.036,0.248-0.102l0.568-0.57c0.066-0.063,0.105-0.154,0.105-0.247
		c0-0.095-0.039-0.185-0.105-0.251l-0.5-0.5h0.695c0.195,0,0.352-0.16,0.352-0.354v-1.057
		C14.912,12.273,14.756,12.117,14.561,12.117z M11.914,14.494c-0.826,0-1.494-0.666-1.494-1.492c0-0.216,0.047-0.419,0.129-0.604
		c0.23-0.527,0.754-0.895,1.365-0.895c0.174,0,0.342,0.037,0.498,0.093c0.09,0.032,0.178,0.073,0.26,0.122
		c0.438,0.26,0.734,0.734,0.734,1.283C13.406,13.828,12.738,14.494,11.914,14.494z"/>
</g>
</svg>
