<?xml version="1.0" encoding="utf-8"?>
<!-- Generator: Adobe Illustrator 16.0.0, SVG Export Plug-In . SVG Version: 6.00 Build 0)  -->
<!DOCTYPE svg PUBLIC "-//W3C//DTD SVG 1.1//EN" "http://www.w3.org/Graphics/SVG/1.1/DTD/svg11.dtd">
<svg version="1.1" id="图层_1" xmlns="http://www.w3.org/2000/svg" xmlns:xlink="http://www.w3.org/1999/xlink" x="0px" y="0px"
	 width="16px" height="16px" viewBox="0 0 16 16" enable-background="new 0 0 16 16" xml:space="preserve">
<g>
	<g>
		<path fill="#FFFFFF" d="M10.14,1.574H4.674v9.368h5.465V1.574z M7.408,9.994c-0.333,0-0.603-0.27-0.603-0.602s0.27-0.6,0.603-0.6
			c0.329,0,0.601,0.268,0.601,0.6S7.737,9.994,7.408,9.994z M9.358,6.728H5.457V5.789h3.902V6.728z M9.358,5.007H5.457V4.074h3.902
			V5.007z M9.358,3.293H5.457V2.355h3.902V3.293z"/>
		<path fill="#FFFFFF" d="M11.753,9.209V2.277h-1.236V2.94h0.572v0.796h-0.572V4.4h0.572v0.794h-0.572v0.663h0.572v0.8h-0.572v3.582
			h0.234C11.001,9.82,11.341,9.469,11.753,9.209z"/>
		<path fill="#FFFFFF" d="M10.338,11.482H4.133v-0.703H2.549V9.875C0.99,10.271,0,10.854,0,11.504c0,1.195,3.323,2.166,7.421,2.166
			c1.21,0,2.349-0.086,3.357-0.236c-0.295-0.473-0.474-1.025-0.474-1.623C10.305,11.697,10.326,11.592,10.338,11.482z"/>
		<polygon fill="#FFFFFF" points="4.325,6.657 3.753,6.657 3.753,5.857 4.325,5.857 4.325,5.194 3.753,5.194 3.753,4.4 4.325,4.4 
			4.325,3.736 3.753,3.736 3.753,2.94 4.325,2.94 4.325,2.277 3.089,2.277 3.089,10.238 4.325,10.238 		"/>
	</g>
	<path fill="#FFFFFF" d="M13.385,9.193c-1.444,0-2.616,1.172-2.616,2.617s1.172,2.615,2.616,2.615S16,13.256,16,11.811
		S14.829,9.193,13.385,9.193z M14.896,12.26h-1.052v1.025h-0.921V12.26h-1.051v-0.898h1.051v-1.025h0.921v1.025h1.052V12.26z"/>
</g>
</svg>
