<?xml version="1.0" encoding="utf-8"?>
<!-- Generator: Adobe Illustrator 16.0.0, SVG Export Plug-In . SVG Version: 6.00 Build 0)  -->
<!DOCTYPE svg PUBLIC "-//W3C//DTD SVG 1.1//EN" "http://www.w3.org/Graphics/SVG/1.1/DTD/svg11.dtd">
<svg version="1.1" id="图层_1" xmlns="http://www.w3.org/2000/svg" xmlns:xlink="http://www.w3.org/1999/xlink" x="0px" y="0px"
	 width="16px" height="16px" viewBox="0 0 16 16" enable-background="new 0 0 16 16" xml:space="preserve">
<g>
	<g>
		<g>
			<path fill="#F74848" d="M11.337,10.656v0.428v1.286v0.423c0,0.276,0.224,0.502,0.5,0.502s0.5-0.226,0.5-0.502V12.37v-1.286
				v-0.428c0-0.273-0.224-0.497-0.5-0.497S11.337,10.383,11.337,10.656z"/>
			<path fill="#6F7985" d="M9.221,15.801c-0.74-0.694-1.169-1.641-1.203-2.661C7.98,11.94,8.49,10.82,9.416,10.062
				C9.648,9.863,9.968,9.745,10.3,9.745c0.108,0,0.216,0.014,0.319,0.039c0.018-0.025,0.041-0.045,0.061-0.068V0H1.346v16h8.13
				C9.392,15.933,9.3,15.876,9.221,15.801z M2.68,1.333h6.667v1.602H2.68V1.333z M2.68,4.268h6.667v1.598H2.68V4.268z M2.68,7.201
				h6.667v1.6H2.68V7.201z M6.012,13.928c-0.552,0-0.999-0.448-0.999-0.999c0-0.553,0.447-1,0.999-1c0.554,0,1.001,0.447,1.001,1
				C7.013,13.479,6.565,13.928,6.012,13.928z"/>
			<path fill="#F74848" d="M11.833,15.835c-0.716,0-1.4-0.271-1.924-0.765c-0.547-0.514-0.863-1.212-0.889-1.965
				c-0.027-0.882,0.348-1.707,1.032-2.266c0.068-0.059,0.156-0.09,0.247-0.09c0.119,0,0.229,0.054,0.304,0.145
				c0.066,0.083,0.1,0.184,0.088,0.288c-0.012,0.105-0.061,0.198-0.143,0.266c-0.49,0.404-0.761,0.998-0.739,1.633
				c0.016,0.54,0.243,1.043,0.637,1.417c0.381,0.354,0.873,0.549,1.391,0.549c0.603-0.016,1.106-0.243,1.479-0.64
				c0.372-0.394,0.566-0.911,0.549-1.452c-0.02-0.591-0.29-1.144-0.753-1.516c-0.167-0.136-0.194-0.385-0.058-0.555
				c0.077-0.092,0.188-0.144,0.307-0.144c0.092,0,0.179,0.031,0.249,0.086c0.638,0.517,1.016,1.284,1.043,2.102
				c0.023,0.754-0.247,1.471-0.765,2.018c-0.514,0.549-1.212,0.863-1.963,0.887L11.833,15.835z"/>
		</g>
	</g>
</g>
</svg>
