<?xml version="1.0" encoding="utf-8"?>
<!-- Generator: Adobe Illustrator 16.0.0, SVG Export Plug-In . SVG Version: 6.00 Build 0)  -->
<!DOCTYPE svg PUBLIC "-//W3C//DTD SVG 1.1//EN" "http://www.w3.org/Graphics/SVG/1.1/DTD/svg11.dtd">
<svg version="1.1" id="图层_1" xmlns="http://www.w3.org/2000/svg" xmlns:xlink="http://www.w3.org/1999/xlink" x="0px" y="0px"
	 width="32px" height="32px" viewBox="0 0 16 16" enable-background="new 0 0 16 16" xml:space="preserve">
<g>
	<polygon fill="#6F7985" points="9.902,6.44 10.812,6.44 10.381,5.156 	"/>
	<path fill="#6F7985" d="M14.785,3.105c-0.996-0.995-2.371-1.374-3.659-1.143c-0.163-0.256-0.349-0.504-0.576-0.729
		c-1.649-1.647-4.315-1.647-5.966,0C4.086,1.733,3.748,2.326,3.553,2.952C1.584,2.988,0,4.587,0,6.562
		c0,1.963,1.561,3.547,3.512,3.605v0.011h8.498v-0.013c1.008-0.038,2.004-0.429,2.775-1.199C16.405,7.347,16.405,4.724,14.785,3.105
		z M2.906,7.639h-0.42L1.422,4.723l0.438,0.001L2.693,7.21l0.836-2.486l0.438-0.001L2.906,7.639z M6.192,7.642L5.409,6.442
		L4.603,7.639H4.127L5.17,6.146L4.192,4.723l0.493,0.001L5.425,5.84l0.738-1.118l0.473,0.001L5.657,6.146l1.023,1.493L6.192,7.642z
		 M8.938,7.639h-1.87V4.723h0.393v2.566h1.478V7.639z M11.244,7.638l-0.29-0.848h-1.17L9.479,7.64L9.075,7.639l1.097-2.916h0.445
		l1.056,2.916L11.244,7.638z M14.351,7.639h-0.443l-1.483-2.354l-0.01,2.354h-0.378V4.723l0.467-0.001l1.458,2.354l0.005-2.353
		h0.385V7.639z"/>
</g>
</svg>
