<?xml version="1.0" encoding="utf-8"?>
<!-- Generator: Adobe Illustrator 16.0.0, SVG Export Plug-In . SVG Version: 6.00 Build 0)  -->
<!DOCTYPE svg PUBLIC "-//W3C//DTD SVG 1.1//EN" "http://www.w3.org/Graphics/SVG/1.1/DTD/svg11.dtd">
<svg version="1.1" id="图层_1" xmlns="http://www.w3.org/2000/svg" xmlns:xlink="http://www.w3.org/1999/xlink" x="0px" y="0px"
	 width="32px" height="32px" viewBox="0 0 16 16" enable-background="new 0 0 16 16" xml:space="preserve">
<g>
	<rect x="7.757" y="10.519" fill="none" width="0.483" height="0.437"/>
	<path fill="none" d="M0.849,10.271h14.314V0.965H0.849V10.271z M1.985,2.247h12.082v6.776H1.985V2.247z"/>
	<path fill="#6F7985" d="M15.363-0.001H0.64C0.284-0.001,0,0.289,0,0.639v9.946c0,0.353,0.284,0.638,0.64,0.638
		c4.904,0,9.813,0,14.724,0c0.354,0,0.637-0.285,0.637-0.638V0.639C16,0.289,15.717-0.001,15.363-0.001z M8.24,10.955H7.757v-0.437
		H8.24V10.955z M15.163,10.271H0.849V0.965h14.314V10.271z"/>
	<path fill="#6F7985" d="M9.71,11.614H6.291c-0.216,0.22-0.369,0.673-0.461,1.096H4.604v0.773c2.265,0,4.525,0,6.793,0V12.71h-1.229
		C10.078,12.287,9.921,11.834,9.71,11.614z"/>
	<rect x="7.503" y="10.835" fill-rule="evenodd" clip-rule="evenodd" fill="#6F7985" width="0.995" height="1.487"/>
	<path fill="#6F7985" d="M9.556,9.15H6.713L4.629,2.071h2.39l1.131,5.471h0.025l1.142-5.471h2.393L9.556,9.15z"/>
</g>
</svg>
