<?xml version="1.0" encoding="utf-8"?>
<!-- Generator: Adobe Illustrator 16.0.0, SVG Export Plug-In . SVG Version: 6.00 Build 0)  -->
<!DOCTYPE svg PUBLIC "-//W3C//DTD SVG 1.1//EN" "http://www.w3.org/Graphics/SVG/1.1/DTD/svg11.dtd">
<svg version="1.1" id="图层_1" xmlns="http://www.w3.org/2000/svg" xmlns:xlink="http://www.w3.org/1999/xlink" x="0px" y="0px"
	 width="16px" height="16px" viewBox="0 0 16 16" enable-background="new 0 0 16 16" xml:space="preserve">
<g>
	<path fill="#6F7985" d="M14.153,2.249h-0.207V1.91c0-0.377-0.308-0.685-0.685-0.685h-1.369c-0.377,0-0.684,0.308-0.684,0.685v0.339
		H1.846C0.826,2.249,0,3.075,0,4.094v6.154c0,1.02,0.826,1.846,1.846,1.846h7.488l0.35-0.275c-0.227-0.115-0.436-0.268-0.621-0.453
		c-0.473-0.473-0.718-1.119-0.705-1.779C7.674,10.383,6.672,10.9,5.539,10.9c-2.059,0-3.729-1.67-3.729-3.729
		c0-2.06,1.67-3.729,3.729-3.729c2.058,0,3.728,1.67,3.728,3.729c0,0.114-0.023,0.222-0.034,0.333l0.942-0.248
		c0.208-0.054,0.421-0.082,0.634-0.082c0.654,0,1.27,0.255,1.732,0.717c0.321,0.321,0.538,0.713,0.643,1.13l0.527-0.527V8.034
		l2.229-1.113L16,6.981V4.094C16,3.075,15.174,2.249,14.153,2.249z"/>
	<path fill="#6F7985" d="M15.484,9.426L16,8.395l-0.258-0.258l-1.031,0.516v0.256l-1.938,1.939l-0.689-0.537
		c0.292-0.551,0.214-1.248-0.25-1.712c-0.382-0.381-0.918-0.502-1.404-0.374l0.887,0.891v1.027h-1.029L9.4,9.254
		c-0.13,0.488-0.01,1.025,0.369,1.404c0.467,0.467,1.165,0.547,1.717,0.25l0.371,0.473l-2.323,1.828
		c-0.423,0.436-0.157,0.912,0.023,1.119l0.23,0.23c0.201,0.176,0.612,0.258,1.12,0.061l1.74-2.236l1.705,2.166
		c0.438,0.42,0.912,0.158,1.116-0.021l0.234-0.23c0.175-0.203,0.44-0.615,0.061-1.121l-2.411-1.877l1.874-1.873H15.484z
		 M14.727,13.553c0.119-0.119,0.312-0.119,0.431,0c0.116,0.117,0.116,0.311,0,0.432c-0.119,0.117-0.312,0.117-0.431,0
		C14.607,13.863,14.607,13.67,14.727,13.553z"/>
	<path fill="#6F7985" d="M5.539,4.672c-1.297,0-2.347,1.051-2.347,2.346c0,1.296,1.05,2.347,2.347,2.347
		c1.295,0,2.346-1.051,2.346-2.347C7.885,5.723,6.834,4.672,5.539,4.672z M6.016,8.653H5.037L4.32,5.383h0.824l0.389,2.529h0.008
		l0.395-2.529h0.822L6.016,8.653z"/>
</g>
</svg>
