<?xml version="1.0" encoding="utf-8"?>
<!-- Generator: Adobe Illustrator 16.0.0, SVG Export Plug-In . SVG Version: 6.00 Build 0)  -->
<!DOCTYPE svg PUBLIC "-//W3C//DTD SVG 1.1//EN" "http://www.w3.org/Graphics/SVG/1.1/DTD/svg11.dtd">
<svg version="1.1" id="图层_1" xmlns="http://www.w3.org/2000/svg" xmlns:xlink="http://www.w3.org/1999/xlink" x="0px" y="0px"
	 width="16px" height="16px" viewBox="0 0 16 16" enable-background="new 0 0 16 16" xml:space="preserve">
<g>
	<g>
		<path fill-rule="evenodd" clip-rule="evenodd" fill="#6F7985" d="M14.01,11.114c-0.006,0.003-0.006,0.008-0.01,0.012
			c-0.729,0.741-2.727,2.842-3.454,3.585l-1.743,0.483l-0.016-0.005l0.555-1.656l0.377-0.442l2.424-2.469l0.536-0.546l0.158-0.16
			c0.007-0.008-0.116-0.128-0.108-0.135L12.545,9.6l-0.391,0.399l-3.188,3.244l-0.189,0.192l-0.803,2.56L7.994,16l2.714-0.804
			c0.743-0.76,2.278-2.408,3.611-3.765L14.01,11.114z"/>
		<path fill-rule="evenodd" clip-rule="evenodd" fill="#6F7985" d="M15.77,8.951l-0.809-0.793c-0.143-0.138-0.324-0.204-0.506-0.202
			c-0.183,0.002-0.365,0.075-0.502,0.215l-0.268,0.269l1.814,1.802c0.104-0.107,0.201-0.208,0.275-0.282
			c0.137-0.142,0.206-0.324,0.205-0.508C15.98,9.269,15.908,9.089,15.77,8.951z"/>
	</g>
	
		<rect x="12.757" y="9.609" transform="matrix(0.7124 0.7017 -0.7017 0.7124 11.0192 -6.9852)" fill-rule="evenodd" clip-rule="evenodd" fill="#6F7985" width="2.551" height="0.686"/>
	<path fill="#6F7985" d="M7.1,0C6.059,0.005,5.155,0.406,4.49,1.154c-0.9,1.017-1.303,2.645-1.096,4.473
		c0.213,1.813,1.043,3.321,1.82,4.212v0.188c-0.695,0.303-4.309,1.939-4.809,3.24c-0.352,0.917-0.375,1.947-0.376,1.986L0.02,16
		h6.904l0.973-3.094l2.285-2.328c-0.695-0.35-1.215-0.574-1.217-0.574L8.902,9.841c0.664-0.733,1.816-2.266,2.04-4.229
		c0.198-1.707-0.235-3.313-1.195-4.396C9.061,0.438,8.156,0.005,7.1,0z"/>
	<polygon fill-rule="evenodd" clip-rule="evenodd" fill="#6F7985" points="9.736,13.744 13.14,10.311 13.627,10.791 10.223,14.227 
		10.183,13.761 	"/>
</g>
</svg>
