<?xml version="1.0" encoding="utf-8"?>
<!-- Generator: Adobe Illustrator 16.0.0, SVG Export Plug-In . SVG Version: 6.00 Build 0)  -->
<!DOCTYPE svg PUBLIC "-//W3C//DTD SVG 1.1//EN" "http://www.w3.org/Graphics/SVG/1.1/DTD/svg11.dtd">
<svg version="1.1" id="图层_1" xmlns="http://www.w3.org/2000/svg" xmlns:xlink="http://www.w3.org/1999/xlink" x="0px" y="0px"
	 width="16px" height="16px" viewBox="0 0 16 16" enable-background="new 0 0 16 16" xml:space="preserve">
<g>
	<path fill="#6F7985" d="M16,9.997H8.382v5.98H16V9.997z M14.828,10.584h0.586v0.587h-0.586V10.584z M13.656,10.584h0.586v0.587
		h-0.586V10.584z M12.484,10.584h0.586v0.587h-0.586V10.584z M8.969,15.392v-3.637h6.445v3.637H8.969z"/>
	<rect x="9.455" y="12.142" fill="#6F7985" width="1.072" height="1.071"/>
	<rect x="9.455" y="13.75" fill="#6F7985" width="1.072" height="1.07"/>
	<rect x="11.598" y="12.142" fill="#6F7985" width="1.072" height="1.071"/>
	<rect x="11.598" y="13.75" fill="#6F7985" width="1.072" height="1.07"/>
	<rect x="13.742" y="12.142" fill="#6F7985" width="1.072" height="1.071"/>
	<rect x="13.742" y="13.75" fill="#6F7985" width="1.072" height="1.07"/>
	<path fill="#6F7985" d="M7.382,14.32c-0.472-0.475-0.955-1.452-1.278-2.833c0.423,0.044,0.852,0.054,1.278,0.068v-1.318
		c-0.532-0.022-1.042-0.062-1.521-0.121C5.779,9.462,5.719,8.766,5.719,8s0.061-1.462,0.143-2.116
		c0.655-0.082,1.351-0.142,2.116-0.142c0.767,0,1.461,0.06,2.116,0.142C10.176,6.538,10.236,7.234,10.236,8
		c0,0.347-0.016,0.676-0.037,0.997h1.312C11.53,8.664,11.564,8.332,11.564,8c0-0.624-0.035-1.257-0.1-1.872
		c1.982,0.46,3.16,1.253,3.16,1.872c0,0.31-0.297,0.664-0.841,0.997h2.103C15.927,8.67,15.955,8.339,15.955,8
		c0-4.397-3.578-7.978-7.978-7.978S0,3.603,0,8c0,4.196,3.261,7.64,7.382,7.947V14.32z M14.192,5.698
		c-0.806-0.437-1.821-0.763-2.937-0.976c-0.216-1.115-0.543-2.132-0.979-2.938C12.089,2.457,13.518,3.889,14.192,5.698z
		 M7.978,1.352c0.616,0,1.41,1.179,1.874,3.161c-0.619-0.064-1.25-0.1-1.874-0.1s-1.253,0.035-1.874,0.1
		C6.567,2.53,7.362,1.352,7.978,1.352z M1.33,8c0-0.619,1.18-1.412,3.16-1.872C4.426,6.743,4.391,7.376,4.391,8
		s0.035,1.257,0.1,1.872C2.51,9.412,1.33,8.619,1.33,8z M1.764,10.303c0.805,0.436,1.82,0.762,2.936,0.975
		c0.217,1.115,0.543,2.132,0.979,2.938C3.866,13.543,2.438,12.111,1.764,10.303z M4.699,4.723C3.584,4.936,2.568,5.262,1.764,5.698
		c0.675-1.81,2.103-3.241,3.914-3.913C5.242,2.591,4.915,3.607,4.699,4.723z"/>
</g>
</svg>
