<?xml version="1.0" encoding="utf-8"?>
<!-- Generator: Adobe Illustrator 16.0.0, SVG Export Plug-In . SVG Version: 6.00 Build 0)  -->
<!DOCTYPE svg PUBLIC "-//W3C//DTD SVG 1.1//EN" "http://www.w3.org/Graphics/SVG/1.1/DTD/svg11.dtd">
<svg version="1.1" id="图层_1" xmlns="http://www.w3.org/2000/svg" xmlns:xlink="http://www.w3.org/1999/xlink" x="0px" y="0px"
	 width="16px" height="16px" viewBox="0 0 16 16" enable-background="new 0 0 16 16" xml:space="preserve">
<g>
	<path fill="#6F7985" d="M5.184,12.792c0-1.771,1.357-3.214,3.082-3.386v-9.407H0V14.17h5.478
		C5.291,13.747,5.184,13.283,5.184,12.792z M1.18,1.18h5.904v1.417H1.18V1.18z M1.18,3.779h5.904v1.416H1.18V3.779z M1.18,6.376
		h5.904v1.416H1.18V6.376z M4.132,12.334c-0.489,0-0.886-0.396-0.886-0.887c0-0.488,0.396-0.885,0.886-0.885
		c0.49,0,0.886,0.396,0.886,0.885C5.018,11.938,4.622,12.334,4.132,12.334z"/>
	<g>
		<path fill="#6F7985" d="M9.909,13.131H9.875l0.021,0.063H9.65l0.021-0.063H9.395v0.516h0.496c0.1,0,0.177-0.022,0.229-0.068
			c0.053-0.045,0.078-0.117,0.078-0.213c0-0.08-0.025-0.139-0.082-0.177C10.061,13.15,9.992,13.131,9.909,13.131z"/>
		<path fill="#6F7985" d="M8.952,10.28c-1.579,0-2.859,1.28-2.859,2.859s1.28,2.859,2.859,2.859s2.859-1.28,2.859-2.859
			S10.531,10.28,8.952,10.28z M8.727,13.98H7.362v-1.93h0.404v1.58h0.96V13.98z M10.56,13.625c-0.028,0.068-0.07,0.129-0.123,0.182
			c-0.062,0.061-0.129,0.103-0.197,0.125c-0.095,0.033-0.233,0.049-0.414,0.049H9.008v-1.93h0.938c0.212,0,0.37,0.059,0.474,0.172
			c0.08,0.09,0.122,0.197,0.122,0.322c0,0.119-0.029,0.215-0.088,0.284c-0.031,0.04-0.082,0.077-0.15,0.11
			c0.11,0.041,0.189,0.105,0.238,0.193c0.04,0.076,0.062,0.168,0.062,0.274C10.604,13.484,10.59,13.557,10.56,13.625z"/>
		<path fill="#6F7985" d="M10.07,12.756c0.055-0.037,0.083-0.092,0.083-0.165c0-0.075-0.024-0.128-0.075-0.159
			c-0.05-0.031-0.123-0.047-0.221-0.047H9.395v0.42h0.475C9.955,12.805,10.021,12.789,10.07,12.756z"/>
	</g>
</g>
</svg>
