<?xml version="1.0" encoding="utf-8"?>
<!-- Generator: Adobe Illustrator 16.0.0, SVG Export Plug-In . SVG Version: 6.00 Build 0)  -->
<!DOCTYPE svg PUBLIC "-//W3C//DTD SVG 1.1//EN" "http://www.w3.org/Graphics/SVG/1.1/DTD/svg11.dtd">
<svg version="1.1" id="图层_1" xmlns="http://www.w3.org/2000/svg" xmlns:xlink="http://www.w3.org/1999/xlink" x="0px" y="0px"
	 width="16px" height="16px" viewBox="0 0 16 16" enable-background="new 0 0 16 16" xml:space="preserve">
<g>
	<g>
		<path fill="#6F7985" d="M14.739,14.062h-1.655v-0.457C14.744,13.295,16,11.844,16,10.094c0-1.386-0.793-2.579-1.945-3.172
			c0.002-0.002,0.004-0.004,0.005-0.006c-0.019-0.01-0.042-0.014-0.061-0.022c-0.05-0.025-0.097-0.056-0.148-0.078
			c-0.005,0.006-0.011,0.011-0.015,0.017c-0.436-0.189-0.907-0.313-1.413-0.313s-0.978,0.124-1.413,0.313
			C11.006,6.826,11,6.821,10.995,6.815c-0.052,0.022-0.099,0.053-0.148,0.078c-0.02,0.009-0.042,0.013-0.061,0.022
			c0.001,0.002,0.003,0.004,0.005,0.006c-1.152,0.594-1.945,1.786-1.945,3.172c0,1.75,1.256,3.199,2.915,3.512v0.457h-1.654
			c-0.316,0-0.331,0.334-0.331,0.334v0.66h1.985h1.323h1.985v-0.66C15.069,14.213,14.922,14.062,14.739,14.062z M12.423,6.848
			c0.418,0,0.81,0.098,1.177,0.244c-0.312,0.284-0.722,0.461-1.177,0.461s-0.866-0.177-1.177-0.461
			C11.613,6.946,12.004,6.848,12.423,6.848z M10.665,10.094c0-0.971,0.787-1.756,1.758-1.756s1.758,0.786,1.758,1.756
			s-0.787,1.758-1.758,1.758S10.665,11.064,10.665,10.094z"/>
		<path fill="#6F7985" d="M8.127,11.613h-0.74L6.918,5.046H6.214l-0.469,6.567H3.277c-0.148-0.121-0.291-0.25-0.43-0.387
			c-0.993-0.994-1.54-2.314-1.54-3.717h1.154V6.688h-1.09c0.09-0.576,0.273-1.131,0.545-1.642h1.365v-0.82H2.458
			C2.579,4.075,2.71,3.93,2.848,3.791C3.441,3.198,4.15,2.765,4.925,2.511v0.894h0.82v-1.09C6.015,2.272,6.289,2.25,6.566,2.25
			s0.551,0.021,0.82,0.064v1.09h0.821V2.511c0.773,0.254,1.482,0.687,2.076,1.279c0.138,0.14,0.268,0.284,0.39,0.436H9.849v0.82
			h1.365c0.103,0.191,0.184,0.391,0.258,0.594c0.319-0.073,0.637-0.122,0.951-0.122c0.128,0,0.257,0.025,0.386,0.038
			c-0.834-2.669-3.301-4.613-6.242-4.613C2.939,0.943,0,3.881,0,7.509c0,2.471,1.367,4.625,3.386,5.745h5.747
			C8.686,12.787,8.346,12.229,8.127,11.613z"/>
		<path fill="#6F7985" d="M13.353,10.094c0-0.514-0.416-0.932-0.93-0.932c-0.178,0-0.342,0.055-0.481,0.139
			c0.044-0.012,0.09-0.023,0.137-0.023c0.262,0,0.473,0.213,0.473,0.473s-0.211,0.471-0.473,0.471c-0.26,0-0.471-0.211-0.471-0.471
			c0-0.049,0.009-0.094,0.023-0.137c-0.087,0.141-0.139,0.305-0.139,0.48c0,0.514,0.417,0.93,0.931,0.93
			S13.353,10.607,13.353,10.094z"/>
	</g>
</g>
</svg>
