<?xml version="1.0" encoding="utf-8"?>
<!-- Generator: Adobe Illustrator 16.0.0, SVG Export Plug-In . SVG Version: 6.00 Build 0)  -->
<!DOCTYPE svg PUBLIC "-//W3C//DTD SVG 1.1//EN" "http://www.w3.org/Graphics/SVG/1.1/DTD/svg11.dtd">
<svg version="1.1" id="图层_1" xmlns="http://www.w3.org/2000/svg" xmlns:xlink="http://www.w3.org/1999/xlink" x="0px" y="0px"
	 width="16px" height="16px" viewBox="0 0 16 16" enable-background="new 0 0 16 16" xml:space="preserve">
<g>
	<path fill="#6F7985" d="M13.079,6.902c0.21,0.408,0.339,0.868,0.339,1.359c0,1.13-0.627,2.104-1.545,2.622
		c0.556-0.458,0.943-1.104,1.062-1.841c0.027-0.157,0.049-0.315,0.049-0.483c0-0.329-0.066-0.642-0.165-0.938
		c-0.011-0.028-0.016-0.057-0.026-0.08c0-0.002,0-0.002,0-0.002c-0.024-0.073-0.049-0.146-0.08-0.215c0,0,0-0.001-0.001-0.001
		c-0.053-0.118-0.115-0.232-0.184-0.342c-0.531-0.859-1.477-1.438-2.563-1.438c-0.27,0-0.531,0.035-0.781,0.104L8.935,7.591
		c0.562,0.472,0.929,1.171,0.929,1.968c0,0.296-0.062,0.576-0.154,0.844c0.004-0.058,0.018-0.109,0.018-0.164
		c0-0.429-0.113-0.823-0.298-1.179C9.416,9.031,9.4,9.006,9.387,8.98C9.244,8.728,9.057,8.502,8.842,8.31L8.784,8.776l-1.62-1.123
		c-0.01,0-0.018,0-0.026,0c-1.428,0-2.587,1.156-2.587,2.585c0,1.402,1.118,2.539,2.512,2.58v0.006h6.082v-0.012
		C14.729,12.756,16,11.465,16,9.86C16,8.24,14.695,6.924,13.079,6.902z"/>
	<path fill="#6F7985" d="M6.34,5.343L5.579,5.685l2.644,1.83l0.408-3.19L8.107,4.56c0,0-1.332-1.903-3.393-1.245
		C4.661,3.333,4.605,3.353,4.551,3.372c0,0,0.1,0.051,0.254,0.14C5.304,3.807,6.372,4.528,6.34,5.343z"/>
	<polygon fill="#6F7985" points="2.145,11.523 2.128,11.523 1.446,7.087 0,7.087 1.26,12.824 2.98,12.824 4.282,7.087 2.837,7.087 	
		"/>
</g>
</svg>
