<?xml version="1.0" encoding="utf-8"?>
<!-- Generator: Adobe Illustrator 16.0.0, SVG Export Plug-In . SVG Version: 6.00 Build 0)  -->
<!DOCTYPE svg PUBLIC "-//W3C//DTD SVG 1.1//EN" "http://www.w3.org/Graphics/SVG/1.1/DTD/svg11.dtd">
<svg version="1.1" id="图层_1" xmlns="http://www.w3.org/2000/svg" xmlns:xlink="http://www.w3.org/1999/xlink" x="0px" y="0px"
	 width="16px" height="16px" viewBox="0 0 16 16" enable-background="new 0 0 16 16" xml:space="preserve">
<g>
	<path fill="#6F7985" d="M1.693,11.279c-0.312,0-0.565-0.254-0.565-0.562V2.819h12.41V6.67c0.395,0.033,0.775,0.111,1.128,0.25V1.69
		c0-0.935-0.757-1.691-1.691-1.691H1.693C0.76-0.001,0,0.755,0,1.69v9.027c0,0.934,0.76,1.689,1.693,1.689h7.834
		c-0.164-0.35-0.275-0.729-0.333-1.127H1.693z"/>
	<g>
		<path fill="#6F7985" d="M3.146,4.24h1.8v5.813h-1.8V4.24z"/>
		<path fill="#6F7985" d="M6.226,4.24h2.985c0.65,0,1.137,0.154,1.461,0.464c0.323,0.309,0.486,0.749,0.486,1.32
			c0,0.587-0.177,1.045-0.529,1.376c-0.354,0.33-0.893,0.495-1.616,0.495H8.029v2.158H6.226V4.24z M8.029,6.717h0.44
			c0.346,0,0.589-0.061,0.729-0.18c0.14-0.12,0.21-0.275,0.21-0.462c0-0.183-0.062-0.338-0.182-0.464
			c-0.122-0.127-0.352-0.19-0.687-0.19H8.029V6.717z"/>
	</g>
	<g id="location-pin_x28_alt_x29_">
		<g>
			<path fill="#6F7985" d="M16,10.529c0-1.595-1.312-2.887-2.932-2.887c-1.62,0-2.933,1.292-2.933,2.887
				c0,0.738,0.286,1.412,0.752,1.924H10.87c0,0,1.097,1.326,1.747,2.18l0.048,0.018c0.088,0.125,0.234,0.207,0.403,0.207
				c0.154,0,0.291-0.07,0.381-0.18l0.07-0.045c0.648-0.852,1.747-2.18,1.747-2.18h-0.018C15.715,11.941,16,11.268,16,10.529z
				 M13.068,12.453c-1.08,0-1.955-0.861-1.955-1.924s0.875-1.925,1.955-1.925c1.079,0,1.954,0.863,1.954,1.925
				S14.147,12.453,13.068,12.453z"/>
		</g>
	</g>
</g>
</svg>
