<?xml version="1.0" encoding="utf-8"?>
<!-- Generator: Adobe Illustrator 16.0.0, SVG Export Plug-In . SVG Version: 6.00 Build 0)  -->
<!DOCTYPE svg PUBLIC "-//W3C//DTD SVG 1.1//EN" "http://www.w3.org/Graphics/SVG/1.1/DTD/svg11.dtd">
<svg version="1.1" id="图层_1" xmlns="http://www.w3.org/2000/svg" xmlns:xlink="http://www.w3.org/1999/xlink" x="0px" y="0px"
	 width="16px" height="16px" viewBox="0 0 16 16" enable-background="new 0 0 16 16" xml:space="preserve">
<path fill="#6F7985" d="M14.033,1.512H3.354c-1.08,0-1.963,0.876-1.963,1.962V9.51c0,0.323,0.078,0.627,0.218,0.899L0,14.488
	l3.938-3.009h10.096c1.086,0,1.967-0.889,1.967-1.97V3.474C16,2.388,15.119,1.512,14.033,1.512z M5.518,7.558
	C4.82,7.558,4.26,6.994,4.26,6.3S4.82,5.042,5.518,5.042c0.694,0,1.258,0.563,1.258,1.258S6.212,7.558,5.518,7.558z M8.923,7.558
	c-0.696,0-1.258-0.563-1.258-1.258s0.562-1.258,1.258-1.258c0.694,0,1.258,0.563,1.258,1.258S9.617,7.558,8.923,7.558z
	 M12.328,7.558c-0.701,0-1.258-0.563-1.258-1.258s0.557-1.258,1.258-1.258c0.695,0,1.258,0.563,1.258,1.258
	S13.023,7.558,12.328,7.558z"/>
</svg>
