<?xml version="1.0" encoding="utf-8"?>
<!-- Generator: Adobe Illustrator 16.0.0, SVG Export Plug-In . SVG Version: 6.00 Build 0)  -->
<!DOCTYPE svg PUBLIC "-//W3C//DTD SVG 1.1//EN" "http://www.w3.org/Graphics/SVG/1.1/DTD/svg11.dtd">
<svg version="1.1" id="图层_1" xmlns="http://www.w3.org/2000/svg" xmlns:xlink="http://www.w3.org/1999/xlink" x="0px" y="0px"
	 width="16px" height="16px" viewBox="0 0 16 16" enable-background="new 0 0 16 16" xml:space="preserve">
<g>
	<g>
		<path fill="#DFC320" d="M8,16c-4.41,0-8-3.588-8-8S3.59,0,8,0c4.412,0,8,3.588,8,8S12.412,16,8,16z M8,1.371
			C4.346,1.371,1.372,4.345,1.372,8S4.346,14.629,8,14.629c3.655,0,6.629-2.974,6.629-6.629S11.655,1.371,8,1.371z"/>
	</g>
	<path fill="#DFC320" d="M7.081,11.613H4.9V4.387h2.181V11.613z M11.101,11.613H8.918V4.387h2.183V11.613z"/>
</g>
</svg>
