<?xml version="1.0" encoding="utf-8"?>
<!-- Generator: Adobe Illustrator 16.0.0, SVG Export Plug-In . SVG Version: 6.00 Build 0)  -->
<!DOCTYPE svg PUBLIC "-//W3C//DTD SVG 1.1//EN" "http://www.w3.org/Graphics/SVG/1.1/DTD/svg11.dtd">
<svg version="1.1" id="图层_1" xmlns="http://www.w3.org/2000/svg" xmlns:xlink="http://www.w3.org/1999/xlink" x="0px" y="0px"
	 width="16px" height="16px" viewBox="0 0 16 16" enable-background="new 0 0 16 16" xml:space="preserve">
<g>
	<g>
		<path fill="#6F7985" d="M8,16c-4.41,0-8-3.589-8-8s3.59-8,8-8c4.412,0,8,3.589,8,8S12.412,16,8,16z M8,1.371
			C4.346,1.371,1.371,4.345,1.371,8c0,3.655,2.975,6.629,6.629,6.629c3.655,0,6.629-2.974,6.629-6.629
			C14.629,4.345,11.655,1.371,8,1.371z"/>
	</g>
	<polygon fill="#6F7985" points="3.984,10.788 6.773,8 3.984,5.212 5.213,3.983 8,6.771 10.789,3.983 12.017,5.212 9.229,8 
		12.017,10.788 10.789,12.017 8.001,9.229 5.213,12.017 	"/>
</g>
</svg>
