<?xml version="1.0" encoding="utf-8"?>
<!-- Generator: Adobe Illustrator 16.0.0, SVG Export Plug-In . SVG Version: 6.00 Build 0)  -->
<!DOCTYPE svg PUBLIC "-//W3C//DTD SVG 1.1//EN" "http://www.w3.org/Graphics/SVG/1.1/DTD/svg11.dtd">
<svg version="1.1" id="图层_1" xmlns="http://www.w3.org/2000/svg" xmlns:xlink="http://www.w3.org/1999/xlink" x="0px" y="0px"
	 width="16px" height="16px" viewBox="0 0 16 16" enable-background="new 0 0 16 16" xml:space="preserve">
<g>
	<path fill="#6F7985" d="M3.898,6.62V5.416c0-0.029-0.025-0.054-0.053-0.054H2.642c-0.029,0-0.055,0.024-0.055,0.054V6.62
		c0,0.029,0.025,0.052,0.055,0.052h1.203C3.873,6.672,3.898,6.649,3.898,6.62z"/>
	<path fill="#6F7985" d="M10.244,9.798H2.529v0.864h7.864c-0.061-0.219-0.115-0.451-0.145-0.705
		C10.242,9.902,10.248,9.852,10.244,9.798z"/>
	<path fill="#6F7985" d="M1.07,11.69V4.208h11.76v2.135c0.016,0,0.029-0.005,0.043-0.005c0.367,0.004,0.711,0.081,1.025,0.218V3.138
		c0-0.886-0.719-1.604-1.604-1.604H1.605C0.718,1.534,0,2.252,0,3.138v8.553c0,0.885,0.719,1.604,1.605,1.604h7.246
		c0.031-0.13,0.07-0.267,0.123-0.402c0.043-0.118,0.141-0.351,0.469-0.668H1.605C1.308,12.225,1.07,11.984,1.07,11.69z"/>
	<path fill="#6F7985" d="M2.529,7.826v0.863h7.774c0.057-0.31,0.141-0.601,0.268-0.863H2.529z"/>
	<path fill="#6F7985" d="M6.341,6.62V5.416c0-0.029-0.025-0.054-0.055-0.054H5.085c-0.029,0-0.055,0.024-0.055,0.054V6.62
		c0,0.029,0.025,0.052,0.055,0.052h1.201C6.316,6.672,6.341,6.649,6.341,6.62z"/>
	<path fill="#6F7985" d="M8.785,6.62V5.416c0-0.029-0.025-0.054-0.055-0.054H7.529c-0.029,0-0.055,0.024-0.055,0.054V6.62
		c0,0.029,0.025,0.052,0.055,0.052H8.73C8.759,6.672,8.785,6.649,8.785,6.62z"/>
	<path fill="#6F7985" d="M11.229,6.62V5.416c0-0.029-0.025-0.054-0.055-0.054H9.971c-0.029,0-0.053,0.024-0.053,0.054V6.62
		c0,0.029,0.023,0.052,0.053,0.052h1.203C11.203,6.672,11.229,6.649,11.229,6.62z"/>
	<path fill="#6F7985" d="M15.855,13.246c-0.246-0.643-2.139-1.453-2.139-1.453l-0.029-0.075c0.297-0.326,0.811-1.01,0.912-1.882
		c0.088-0.765-0.105-1.477-0.535-1.964c-0.305-0.345-0.707-0.537-1.18-0.542c-0.465,0.005-0.867,0.183-1.16,0.517
		c-0.406,0.452-0.582,1.18-0.49,1.996c0.094,0.808,0.465,1.479,0.811,1.874v0.084c-0.311,0.137-1.922,0.865-2.143,1.445
		c-0.156,0.409-0.168,0.866-0.168,0.889l-0.006,0.331h6.258L16,14.152C16,14.135,16.018,13.663,15.855,13.246z M10.422,13.815
		c0.018-0.109,0.045-0.224,0.086-0.331c0.117-0.231,1.256-0.873,1.852-1.11c0.117-0.058,0.336-0.165,0.336-0.399V11.46l-0.092-0.098
		c-0.279-0.287-0.641-0.879-0.723-1.598c-0.072-0.63,0.049-1.171,0.328-1.486c0.172-0.196,0.4-0.295,0.717-0.295
		c0.309,0,0.523,0.174,0.652,0.32c0.299,0.34,0.441,0.885,0.373,1.457c-0.092,0.797-0.652,1.428-0.82,1.602l-0.094,0.098v0.515
		c0,0.244,0.215,0.33,0.412,0.41c0.545,0.215,1.686,0.862,1.799,1.097c0.043,0.11,0.068,0.227,0.084,0.334H10.422z"/>
</g>
</svg>
