<?xml version="1.0" encoding="utf-8"?>
<!-- Generator: Adobe Illustrator 16.0.0, SVG Export Plug-In . SVG Version: 6.00 Build 0)  -->
<!DOCTYPE svg PUBLIC "-//W3C//DTD SVG 1.1//EN" "http://www.w3.org/Graphics/SVG/1.1/DTD/svg11.dtd">
<svg version="1.1" id="图层_1" xmlns="http://www.w3.org/2000/svg" xmlns:xlink="http://www.w3.org/1999/xlink" x="0px" y="0px"
	 width="16px" height="16px" viewBox="0 0 16 16" enable-background="new 0 0 16 16" xml:space="preserve">
<path fill="#6F7985" d="M1.364,10.189v3.312c0,1,0.81,1.809,1.808,1.809h3l0.012-5.422c0-0.332,0.271-0.604,0.603-0.604h2.41
	c0.332,0,0.604,0.271,0.604,0.604l-0.002,5.422h3.014c0.998,0,1.807-0.809,1.807-1.809v-3.312L7.991,3.563L1.364,10.189z
	 M15.732,8.05l-2.32-2.32l-1.807-1.806L8.638,0.958C8.281,0.6,7.701,0.6,7.342,0.958L0.269,8.031c-0.359,0.358-0.359,0.938,0,1.295
	c0.357,0.359,0.938,0.359,1.296,0l6.426-6.424l6.445,6.444c0.18,0.18,0.414,0.27,0.648,0.27s0.469-0.09,0.648-0.27
	C16.09,8.988,16.09,8.408,15.732,8.05z"/>
</svg>
