<?xml version="1.0" encoding="utf-8"?>
<!-- Generator: Adobe Illustrator 19.2.1, SVG Export Plug-In . SVG Version: 6.00 Build 0)  -->
<svg version="1.1" id="图层_1" xmlns="http://www.w3.org/2000/svg" xmlns:xlink="http://www.w3.org/1999/xlink" x="0px" y="0px"
	 viewBox="0 0 16 16" style="enable-background:new 0 0 16 16;" width="16" height="16" xml:space="preserve">
<style type="text/css">
	.st0{fill:#6F7985;}
</style>
<g>
	<path class="st0" d="M12,6.3c-1.5,1.5-5.5,5.6-6.9,7l-3.5,0.9l0,0l1.1-3.3l0.8-0.9l4.9-4.8l1.1-1.1l0.3-0.3c0,0-0.2-0.3-0.2-0.3
		L9.2,3.2L8.4,4L2,10.3l-0.4,0.4l-1.7,5l0,0l5.4-1.5c1.5-1.5,4.6-4.7,7.2-7.4L12,6.3C12.1,6.2,12.1,6.3,12,6.3z"/>
	<path class="st0" d="M15.6,2L14,0.4C13.7,0.1,13.4,0,13,0c-0.4,0-0.7,0.1-1,0.4l-0.5,0.5L15,4.5c0.2-0.2,0.4-0.4,0.6-0.6
		C15.9,3.7,16,3.4,16,3C16,2.6,15.9,2.3,15.6,2z"/>
	<polygon class="st0" points="9.9,2.6 13.4,6.2 14.4,5.3 10.8,1.7 	"/>
	<polygon class="st0" points="4.4,11.4 4.5,12.3 11.3,5.6 10.4,4.6 3.5,11.3 	"/>
</g>
</svg>
