<?xml version="1.0" encoding="utf-8"?>
<!-- Generator: Adobe Illustrator 16.0.0, SVG Export Plug-In . SVG Version: 6.00 Build 0)  -->
<!DOCTYPE svg PUBLIC "-//W3C//DTD SVG 1.1//EN" "http://www.w3.org/Graphics/SVG/1.1/DTD/svg11.dtd">
<svg version="1.1" id="图层_1" xmlns="http://www.w3.org/2000/svg" xmlns:xlink="http://www.w3.org/1999/xlink" x="0px" y="0px"
	 width="16px" height="16px" viewBox="0 0 16 16" enable-background="new 0 0 16 16" xml:space="preserve">
<g>
	<g>
		<path fill="#6F7985" d="M12.582,14.135c-0.062,0-0.127-0.022-0.171-0.061l-0.715-0.634c-0.016,0.003-0.032,0.003-0.049,0.003
			c-0.211,0-0.393-0.197-0.393-0.438c0-0.145,0.07-0.28,0.194-0.371l0.021-1.111c0.007-0.102,0.089-0.244,0.252-0.244
			c0.165,0,0.247,0.143,0.252,0.244l0.052,1.092c0.123,0.062,0.166,0.238,0.166,0.391l0.606,0.681
			c0.077,0.091,0.096,0.249-0.021,0.365C12.722,14.106,12.654,14.135,12.582,14.135z"/>
		<path fill="#6F7985" d="M7.724,12.943c0-1.818,1.226-3.339,2.889-3.824V0H1.276v16h7.898C8.296,15.266,7.724,14.176,7.724,12.943z
			 M2.61,1.334h6.666v1.599H2.61V1.334z M2.61,4.266h6.666v1.601H2.61V4.266z M2.61,7.201h6.666v1.598H2.61V7.201z M5.944,13.345
			c-0.552,0-1-0.448-1-1s0.448-1,1-1c0.553,0,1,0.448,1,1S6.497,13.345,5.944,13.345z"/>
		<path fill="#6F7985" d="M11.724,9.943c-1.658,0-3,1.344-3,3s1.342,3,3,3c1.657,0,3-1.344,3-3S13.381,9.943,11.724,9.943z
			 M12.087,15.098V15.05c0-0.199-0.163-0.362-0.363-0.362s-0.363,0.163-0.363,0.362v0.048c-0.917-0.154-1.638-0.875-1.792-1.791
			h0.048c0.199,0,0.362-0.164,0.362-0.363c0-0.201-0.163-0.363-0.362-0.363H9.568c0.154-0.918,0.875-1.639,1.792-1.793v0.049
			c0,0.199,0.163,0.361,0.363,0.361s0.363-0.162,0.363-0.361v-0.049c0.916,0.154,1.638,0.875,1.792,1.793H13.83
			c-0.199,0-0.361,0.162-0.361,0.363c0,0.199,0.162,0.363,0.361,0.363h0.049C13.725,14.223,13.003,14.943,12.087,15.098z"/>
	</g>
</g>
</svg>
