<?xml version="1.0" encoding="utf-8"?>
<!-- Generator: Adobe Illustrator 16.0.0, SVG Export Plug-In . SVG Version: 6.00 Build 0)  -->
<!DOCTYPE svg PUBLIC "-//W3C//DTD SVG 1.1//EN" "http://www.w3.org/Graphics/SVG/1.1/DTD/svg11.dtd">
<svg version="1.1" id="图层_1" xmlns="http://www.w3.org/2000/svg" xmlns:xlink="http://www.w3.org/1999/xlink" x="0px" y="0px"
	 width="16px" height="16px" viewBox="0 0 16 16" enable-background="new 0 0 16 16" xml:space="preserve">
<g>
	<path fill="#6F7985" d="M13.06,12.366l1.96-1.958h0.27l0.539-1.078l-0.27-0.27l-1.079,0.538v0.269l-2.026,2.026l-0.719-0.56
		c0.305-0.576,0.224-1.306-0.262-1.792c-0.399-0.398-0.961-0.524-1.469-0.391l0.928,0.932v1.075H9.854l-0.926-0.929
		c-0.136,0.509-0.01,1.07,0.386,1.467c0.487,0.487,1.218,0.571,1.795,0.261l0.388,0.494l-2.43,1.911
		c-0.44,0.456-0.163,0.953,0.024,1.17l0.241,0.243c0.211,0.184,0.641,0.267,1.172,0.062l1.818-2.338l1.783,2.264
		c0.458,0.439,0.953,0.166,1.168-0.023l0.244-0.241c0.183-0.211,0.46-0.642,0.062-1.17L13.06,12.366z M14.946,15.173
		c-0.124,0.123-0.325,0.123-0.45,0c-0.124-0.126-0.124-0.328,0-0.45c0.125-0.125,0.326-0.125,0.45,0
		C15.069,14.845,15.069,15.047,14.946,15.173z"/>
	<path fill="#6F7985" d="M9.187,12.783c-0.198-0.111-0.388-0.24-0.554-0.406c-0.243-0.244-0.41-0.54-0.531-0.854
		c-0.38-0.562-0.518-1.264-0.337-1.935l0.124-0.457C7.467,9.345,6.998,9.477,6.493,9.477c-1.715,0-3.105-1.39-3.105-3.106
		c0-1.717,1.391-3.107,3.105-3.107c1.718,0,3.107,1.39,3.107,3.107c0,0.603-0.179,1.159-0.477,1.636l0.309-0.083
		c0.202-0.055,0.409-0.082,0.62-0.082c0.615,0,1.191,0.236,1.634,0.662c0.166,0.102,0.326,0.217,0.466,0.357
		c0.035,0.035,0.059,0.077,0.09,0.113c0.362-0.796,0.574-1.672,0.574-2.603c0-2.597-1.562-4.822-3.798-5.796
		C9.015,0.58,9.01,0.583,9.006,0.589C8.247,0.217,7.397,0,6.495,0c-0.901,0-1.753,0.217-2.51,0.589
		C3.981,0.583,3.974,0.58,3.97,0.574C1.735,1.548,0.172,3.773,0.172,6.37c0,3.493,2.828,6.321,6.321,6.321
		c0.109,0,0.215-0.011,0.32-0.016v0.711H2.401c-0.562,0-0.586,0.584-0.586,0.584v1.17h4.998v0.214h1.13
		c-0.16-0.594-0.015-1.2,0.434-1.663l0.045-0.046l0.765-0.603V12.783z M6.495,0.528c0.763,0,1.482,0.175,2.136,0.475
		C8.073,1.537,7.33,1.877,6.493,1.877c-0.834,0-1.578-0.34-2.134-0.875C5.014,0.703,5.732,0.528,6.495,0.528z"/>
	<path fill="#6F7985" d="M4.85,6.37c0,0.908,0.736,1.644,1.644,1.644c0.91,0,1.646-0.736,1.646-1.644
		c0-0.909-0.736-1.645-1.646-1.645c-0.312,0-0.601,0.091-0.849,0.243c0.077-0.023,0.158-0.041,0.243-0.041
		c0.461,0,0.834,0.373,0.834,0.833c0,0.461-0.373,0.834-0.834,0.834c-0.462,0-0.835-0.373-0.835-0.834
		c0-0.084,0.017-0.165,0.04-0.243C4.941,5.767,4.85,6.057,4.85,6.37z"/>
</g>
</svg>
