<?xml version="1.0" encoding="utf-8"?>
<!-- Generator: Adobe Illustrator 16.0.0, SVG Export Plug-In . SVG Version: 6.00 Build 0)  -->
<!DOCTYPE svg PUBLIC "-//W3C//DTD SVG 1.1//EN" "http://www.w3.org/Graphics/SVG/1.1/DTD/svg11.dtd">
<svg version="1.1" id="图层_1" xmlns="http://www.w3.org/2000/svg" xmlns:xlink="http://www.w3.org/1999/xlink" x="0px" y="0px"
	 width="16px" height="16px" viewBox="0 0 16 16" enable-background="new 0 0 16 16" xml:space="preserve">
<g>
	<path fill="#6F7985" d="M2.178,8.307v1.871C2.178,13.396,4.784,16,8,16c3.213,0,5.82-2.607,5.82-5.821V8.306L2.178,8.307z"/>
	<g>
		<path fill="#6F7985" d="M6.224,4.283V2.896c0-0.668,0.435-1.226,1.034-1.428V0.001c-2.86,0.368-5.08,2.788-5.08,5.749v1.343h5.08
			V5.712C6.657,5.511,6.225,4.953,6.224,4.283z"/>
		<path fill="#6F7985" d="M8.729,0v1.516c0.529,0.234,0.898,0.764,0.898,1.38l0.004,1.387c0,0.618-0.373,1.147-0.9,1.383v1.428
			l5.09-0.001l0.002-1.343C13.82,2.787,11.596,0.361,8.729,0z"/>
	</g>
	<path fill="#6F7985" d="M8.739,2.897L8.74,4.283c0,0.168-0.065,0.325-0.184,0.443C8.438,4.843,8.283,4.907,8.117,4.908H7.735
		c-0.344,0-0.624-0.28-0.624-0.622l0.003-1.389C7.111,2.729,7.179,2.572,7.295,2.455C7.413,2.337,7.57,2.273,7.734,2.272l0.383,0
		c0.165,0,0.321,0.064,0.439,0.182C8.675,2.572,8.74,2.729,8.739,2.897z"/>
</g>
</svg>
