<?xml version="1.0" encoding="utf-8"?>
<!-- Generator: Adobe Illustrator 16.0.0, SVG Export Plug-In . SVG Version: 6.00 Build 0)  -->
<!DOCTYPE svg PUBLIC "-//W3C//DTD SVG 1.1//EN" "http://www.w3.org/Graphics/SVG/1.1/DTD/svg11.dtd">
<svg version="1.1" id="图层_1" xmlns="http://www.w3.org/2000/svg" xmlns:xlink="http://www.w3.org/1999/xlink" x="0px" y="0px"
	 width="16px" height="16px" viewBox="0 0 16 16" enable-background="new 0 0 16 16" xml:space="preserve">
<g>
	<polygon fill="#6F7985" points="8.028,5.498 9.813,4.012 8.019,2.538 8.021,3.502 5.722,3.512 5.728,4.541 8.025,4.531 	"/>
	<g>
		<path fill="#6F7985" d="M11.577,0.812v7.581H16V0.812H11.577z M13.787,7.628c-0.267,0-0.485-0.22-0.485-0.489
			c0-0.268,0.219-0.485,0.485-0.485c0.27,0,0.488,0.218,0.488,0.485C14.275,7.409,14.057,7.628,13.787,7.628z M15.367,4.983H12.21
			v-0.76h3.157V4.983z M15.367,3.591H12.21V2.835h3.157V3.591z M15.367,2.204H12.21V1.444h3.157V2.204z"/>
		<polygon fill="#6F7985" points="11.345,1.381 10.345,1.381 10.345,7.824 11.345,7.824 11.345,4.926 10.882,4.926 10.882,4.279 
			11.345,4.279 11.345,3.742 10.882,3.742 10.882,3.099 11.345,3.099 11.345,2.562 10.882,2.562 10.882,1.918 11.345,1.918 		"/>
	</g>
	<g>
		<g>
			<path fill="#6F7985" d="M3.224,6.113c0-0.455,0.37-0.825,0.825-0.825H4.67c0.002-0.003,0.004-0.006,0.006-0.009v-5.279H0v8.028
				h3.224V6.113z M0.609,1.411h1.183L2.353,4.12h0.012l0.566-2.709h1.185L3.049,4.917H1.641L0.609,1.411z M2.337,7.117
				c-0.283,0-0.515-0.23-0.515-0.516c0-0.283,0.231-0.514,0.515-0.514c0.285,0,0.516,0.23,0.516,0.514
				C2.853,6.886,2.622,7.117,2.337,7.117z"/>
		</g>
		<path fill="#6F7985" d="M3.767,5.833v3.375h4.297V5.833H3.767z M6.742,6.164h0.33v0.331h-0.33V6.164z M6.081,6.164h0.33v0.331
			h-0.33V6.164z M7.733,8.875H4.098V6.824h3.636V8.875z M7.733,6.495H7.402V6.164h0.331V6.495z"/>
	</g>
</g>
</svg>
