<?xml version="1.0" encoding="utf-8"?>
<!-- Generator: Adobe Illustrator 16.0.0, SVG Export Plug-In . SVG Version: 6.00 Build 0)  -->
<!DOCTYPE svg PUBLIC "-//W3C//DTD SVG 1.1//EN" "http://www.w3.org/Graphics/SVG/1.1/DTD/svg11.dtd">
<svg version="1.1" id="图层_1" xmlns="http://www.w3.org/2000/svg" xmlns:xlink="http://www.w3.org/1999/xlink" x="0px" y="0px"
	 width="16px" height="16px" viewBox="0 0 16 16" enable-background="new 0 0 16 16" xml:space="preserve">
<g>
	<g>
		<path fill="#6F7985" d="M8.957,11.881c-0.01-0.05-0.02-0.102-0.033-0.15c-0.035-0.124-0.077-0.242-0.129-0.352
			c-0.039-0.088-0.084-0.172-0.133-0.252c-0.003-0.005-0.006-0.012-0.01-0.02v0.002c-0.135-0.223-0.288-0.427-0.447-0.609
			c-0.025-0.032-0.042-0.051-0.064-0.078L7.73,9.927C7.55,9.685,7.418,9.438,7.418,9.148c0-1.603,1.18-1.811,1.18-2.514H5.922
			c0,0.703,1.178,0.911,1.178,2.514c0,0.425-0.268,0.754-0.584,1.113c0,0-0.086,0.094-0.201,0.238
			c-0.16,0.183-0.312,0.387-0.447,0.609l-0.002-0.002c-0.002,0.008-0.006,0.015-0.01,0.021c-0.047,0.08-0.092,0.163-0.133,0.251
			c-0.05,0.109-0.092,0.228-0.127,0.352c-0.014,0.049-0.023,0.101-0.035,0.15c-0.034,0.162-0.059,0.333-0.059,0.522h-0.93
			c0.005-0.215,0.021-0.409,0.044-0.593c0.006-0.053,0.016-0.1,0.023-0.151c0.02-0.13,0.042-0.256,0.069-0.369
			c0.01-0.042,0.021-0.08,0.03-0.12c0.034-0.124,0.071-0.24,0.114-0.346c0.006-0.017,0.012-0.035,0.019-0.052
			c0.053-0.125,0.108-0.242,0.169-0.348l-0.002-0.001c0.58-1.006,1.487-1.112,1.487-2.015c0-0.852-0.806-0.982-1.384-1.837
			C5.145,6.574,5.146,6.574,5.15,6.577C4.997,6.355,4.862,6.085,4.76,5.738C4.756,5.727,4.754,5.714,4.75,5.7
			C4.707,5.551,4.674,5.385,4.645,5.204C4.639,5.166,4.633,5.127,4.627,5.088C4.6,4.883,4.58,4.662,4.573,4.415h5.373
			C9.939,4.662,9.92,4.883,9.893,5.088C9.887,5.127,9.881,5.166,9.874,5.203C9.846,5.385,9.811,5.551,9.769,5.7
			C9.766,5.714,9.762,5.727,9.76,5.738C9.658,6.085,9.521,6.355,9.369,6.577c0.002-0.003,0.006-0.003,0.008-0.005
			C8.799,7.427,7.992,7.558,7.992,8.409c0,0.385,0.17,0.625,0.404,0.853l0.508-0.509C8.738,8.598,8.709,8.531,8.709,8.409
			c0-0.147,0.033-0.205,0.401-0.515c0.604-0.508,1.503-1.278,1.553-3.479h0.147c0.246,0,0.444-0.2,0.444-0.446V3.082H3.264v0.887
			c0,0.246,0.199,0.446,0.443,0.446h0.148c0.051,2.201,0.949,2.972,1.554,3.479c0.368,0.31,0.4,0.367,0.4,0.515
			c0,0.163-0.05,0.227-0.408,0.531c-0.439,0.372-1.032,0.897-1.341,1.997c-0.004,0.019-0.011,0.032-0.016,0.05
			C4,11.155,3.964,11.342,3.934,11.541c-0.005,0.033-0.014,0.062-0.018,0.096c-0.032,0.234-0.054,0.49-0.061,0.767H3.707
			c-0.244,0-0.443,0.202-0.443,0.445v0.444H2.82c-0.245,0-0.443,0.199-0.443,0.443v0.445h6.782l0.001-1.778H9.018
			C9.018,12.214,8.992,12.043,8.957,11.881z"/>
		<polygon fill="#6F7985" points="16,13.533 14.646,12.182 14.646,12.896 12.206,12.896 14.131,10.97 14.637,11.477 14.637,9.562 
			12.724,9.562 13.229,10.068 11.292,12.007 11.292,9.566 12.008,9.566 10.653,8.215 9.301,9.566 10.016,9.566 10.016,12.896 
			10.015,12.896 10.015,14.171 14.646,14.171 14.646,14.887 		"/>
	</g>
	<path fill="#6F7985" d="M3.738,7.298c-0.124-0.205-0.236-0.446-0.34-0.711C3.356,6.675,3.261,6.77,3.024,6.972
		c-0.44,0.372-1.032,0.897-1.342,1.997c-0.004,0.019-0.011,0.032-0.016,0.05c-0.045,0.168-0.079,0.354-0.11,0.553
		C1.551,9.605,1.543,9.634,1.538,9.668c-0.032,0.234-0.053,0.49-0.06,0.766H1.331c-0.245,0-0.444,0.203-0.444,0.446v0.444H0.443
		C0.198,11.324,0,11.523,0,11.768v0.444h2.604c0.111-0.192,0.251-0.364,0.441-0.478c0.008-0.071,0.03-0.245,0.03-0.245l0.018-0.088
		c0.034-0.221,0.076-0.438,0.129-0.636l0.026-0.082c0.024-0.088,0.053-0.165,0.081-0.247H2.861l0.001-0.003H2.195
		c0.004-0.215,0.021-0.408,0.043-0.592c0.007-0.054,0.016-0.1,0.023-0.151c0.021-0.13,0.043-0.256,0.07-0.369
		c0.01-0.042,0.021-0.08,0.031-0.12c0.033-0.124,0.07-0.24,0.113-0.346C2.482,8.838,2.488,8.82,2.495,8.804
		c0.052-0.125,0.108-0.243,0.169-0.348L2.662,8.455C2.992,7.883,3.424,7.601,3.738,7.298z M0.887,1.113V2
		c0,0.246,0.199,0.445,0.444,0.445h0.147c0.051,2.202,0.949,2.973,1.553,3.48C3.12,6,3.188,6.059,3.242,6.109
		C3.157,5.802,3.084,5.468,3.045,5.083C2.667,4.855,2.412,4.441,2.412,3.969V3.85C2.403,3.821,2.392,3.799,2.383,3.769
		c-0.004-0.011-0.006-0.023-0.01-0.037C2.331,3.582,2.296,3.415,2.268,3.234C2.262,3.196,2.255,3.158,2.25,3.118
		C2.223,2.914,2.202,2.693,2.195,2.445h0.217V2.23h6.393C8.848,2.163,8.878,2.088,8.878,2V1.113H0.887z"/>
</g>
</svg>
