<?xml version="1.0" encoding="utf-8"?>
<!-- Generator: Adobe Illustrator 16.0.0, SVG Export Plug-In . SVG Version: 6.00 Build 0)  -->
<!DOCTYPE svg PUBLIC "-//W3C//DTD SVG 1.1//EN" "http://www.w3.org/Graphics/SVG/1.1/DTD/svg11.dtd">
<svg version="1.1" id="图层_1" xmlns="http://www.w3.org/2000/svg" xmlns:xlink="http://www.w3.org/1999/xlink" x="0px" y="0px"
	 width="16px" height="16px" viewBox="0 0 16 16" enable-background="new 0 0 16 16" xml:space="preserve">
<g>
	<polygon fill="#6F7985" points="16,12.355 12.357,8.711 12.357,10.855 9.584,10.855 9.584,13.855 12.357,13.855 12.357,16 	"/>
	<path fill="#6F7985" d="M8,0C3.588,0,0,3.59,0,8s3.588,8,8,8c0.195,0,0.385-0.019,0.574-0.032v-1.606
		C8.377,14.554,8.182,14.668,8,14.668c-0.617,0-1.414-1.184-1.879-3.171c0.621,0.064,1.254,0.1,1.879,0.1
		c0.195,0,0.389-0.024,0.584-0.03v-1.323C8.391,10.251,8.203,10.265,8,10.265c-0.768,0-1.463-0.061-2.119-0.143
		C5.797,9.466,5.736,8.768,5.736,8s0.061-1.466,0.145-2.122C6.537,5.796,7.232,5.735,8,5.735s1.465,0.061,2.123,0.143
		C10.205,6.534,10.266,7.232,10.266,8c0,0.667-0.049,1.275-0.115,1.855h1.207V6.043c0,0,0.154,0.078,0.141,0.079
		C13.484,6.584,14.666,7.38,14.666,8c0,0.281-0.254,0.598-0.703,0.902l1.623,1.623C15.852,9.73,16,8.883,16,8C16,3.59,12.412,0,8,0z
		 M1.334,8c0-0.62,1.182-1.416,3.172-1.878C4.439,6.74,4.402,7.374,4.402,8s0.037,1.26,0.104,1.878C2.516,9.416,1.334,8.62,1.334,8z
		 M1.771,10.309c0.805,0.437,1.824,0.765,2.941,0.978c0.217,1.119,0.545,2.139,0.98,2.945C3.877,13.558,2.445,12.123,1.771,10.309z
		 M4.713,4.714C3.596,4.927,2.576,5.255,1.771,5.691c0.674-1.814,2.105-3.249,3.922-3.923C5.258,2.575,4.93,3.595,4.713,4.714z
		 M8,4.403c-0.625,0-1.258,0.035-1.879,0.1C6.586,2.516,7.383,1.332,8,1.332c0.619,0,1.414,1.184,1.881,3.171
		C9.258,4.438,8.627,4.403,8,4.403z M11.289,4.714c-0.217-1.119-0.545-2.139-0.982-2.945c1.816,0.674,3.25,2.108,3.924,3.923
		C13.426,5.255,12.406,4.927,11.289,4.714z"/>
</g>
</svg>
