<?xml version="1.0" encoding="utf-8"?>
<!-- Generator: Adobe Illustrator 16.0.0, SVG Export Plug-In . SVG Version: 6.00 Build 0)  -->
<!DOCTYPE svg PUBLIC "-//W3C//DTD SVG 1.1//EN" "http://www.w3.org/Graphics/SVG/1.1/DTD/svg11.dtd">
<svg version="1.1" id="图层_1" xmlns="http://www.w3.org/2000/svg" xmlns:xlink="http://www.w3.org/1999/xlink" x="0px" y="0px"
	 width="16px" height="16px" viewBox="0 0 16 16" enable-background="new 0 0 16 16" xml:space="preserve">
<g>
	<path fill="#6F7985" d="M14.033,1.511H3.354c-1.08,0-1.963,0.877-1.963,1.963V9.51c0,0.324,0.078,0.627,0.218,0.9L0,14.488
		l3.938-3.008h6.869c0.086-0.182,0.213-0.34,0.374-0.457c-0.075-0.359,0.017-0.752,0.277-1.043l0.245-0.264
		c0.227-0.24,0.533-0.371,0.851-0.371c0.054,0,0.108,0.004,0.161,0.012c0.211-0.311,0.563-0.514,0.963-0.514h0.33
		c0.398,0,0.752,0.204,0.963,0.514c0.053-0.008,0.106-0.012,0.16-0.012c0.314,0,0.619,0.129,0.838,0.355l0.012,0.012
		C15.986,9.646,16,9.58,16,9.51V3.474C16,2.388,15.119,1.511,14.033,1.511z M4.891,8.153H4.256V4.494h0.635V8.153z M7.146,7.951
		C6.973,8.125,6.714,8.212,6.372,8.212c-0.311,0-0.556-0.073-0.737-0.22C5.454,7.847,5.336,7.648,5.279,7.397L5.885,7.29
		C5.91,7.425,5.963,7.529,6.041,7.6C6.12,7.67,6.23,7.707,6.372,7.707c0.155,0,0.273-0.034,0.353-0.101
		C6.777,7.56,6.803,7.498,6.803,7.419c0-0.054-0.014-0.098-0.042-0.133C6.73,7.253,6.663,7.223,6.559,7.195
		C6.072,7.07,5.764,6.956,5.634,6.852C5.453,6.709,5.363,6.51,5.363,6.256c0-0.23,0.078-0.423,0.234-0.579
		C5.754,5.52,5.995,5.442,6.322,5.442c0.312,0,0.544,0.06,0.695,0.178C7.17,5.738,7.273,5.913,7.332,6.144L6.763,6.266
		c-0.024-0.104-0.07-0.183-0.139-0.237c-0.067-0.055-0.165-0.082-0.29-0.082c-0.159,0-0.273,0.025-0.342,0.077
		C5.946,6.06,5.924,6.108,5.924,6.167c0,0.05,0.02,0.092,0.061,0.127C6.038,6.34,6.226,6.406,6.547,6.491S7.092,6.679,7.22,6.802
		c0.126,0.125,0.188,0.299,0.188,0.521C7.408,7.567,7.321,7.776,7.146,7.951z M9.6,7.97C9.426,8.132,9.191,8.212,8.898,8.212
		c-0.334,0-0.6-0.122-0.798-0.366C7.902,7.601,7.804,7.262,7.804,6.83c0-0.438,0.099-0.778,0.298-1.021
		C8.301,5.564,8.57,5.442,8.908,5.442c0.277,0,0.498,0.07,0.662,0.209s0.281,0.351,0.354,0.635L9.329,6.411
		C9.309,6.273,9.264,6.168,9.193,6.099C9.122,6.029,9.03,5.994,8.918,5.994c-0.15,0-0.271,0.061-0.36,0.182
		C8.469,6.295,8.424,6.498,8.424,6.78c0,0.314,0.045,0.537,0.137,0.667c0.09,0.13,0.213,0.194,0.365,0.194
		c0.115,0,0.208-0.038,0.281-0.113c0.072-0.076,0.125-0.206,0.154-0.391l0.592,0.117C9.893,7.571,9.774,7.809,9.6,7.97z
		 M12.035,7.951c-0.174,0.175-0.433,0.262-0.774,0.262c-0.311,0-0.556-0.073-0.737-0.22c-0.181-0.146-0.299-0.345-0.355-0.596
		l0.605-0.107c0.025,0.136,0.078,0.239,0.156,0.311c0.079,0.07,0.189,0.106,0.331,0.106c0.155,0,0.273-0.034,0.353-0.101
		c0.053-0.046,0.078-0.108,0.078-0.187c0-0.054-0.014-0.098-0.042-0.133c-0.03-0.033-0.098-0.063-0.202-0.092
		c-0.486-0.125-0.795-0.239-0.925-0.343c-0.181-0.143-0.271-0.342-0.271-0.596c0-0.23,0.078-0.423,0.234-0.579
		c0.156-0.157,0.397-0.235,0.725-0.235c0.312,0,0.544,0.06,0.695,0.178c0.152,0.118,0.256,0.293,0.314,0.524l-0.569,0.122
		c-0.024-0.104-0.07-0.183-0.139-0.237c-0.067-0.055-0.165-0.082-0.29-0.082c-0.159,0-0.273,0.025-0.342,0.077
		c-0.046,0.036-0.068,0.084-0.068,0.143c0,0.05,0.02,0.092,0.061,0.127c0.054,0.047,0.241,0.112,0.562,0.197
		s0.545,0.188,0.673,0.312c0.126,0.125,0.188,0.299,0.188,0.521C12.297,7.567,12.21,7.776,12.035,7.951z M13.428,8.153h-0.603v-2.65
		h0.603V8.153z M13.428,5.143h-0.603V4.494h0.603V5.143z"/>
	<path fill="#6F7985" d="M15.836,11.826h-0.205c-0.091,0-0.188-0.072-0.214-0.162l-0.113-0.283c-0.044-0.08-0.026-0.199,0.04-0.268
		l0.139-0.143c0.064-0.064,0.064-0.172,0-0.24l-0.234-0.238c-0.064-0.064-0.17-0.064-0.234,0l-0.14,0.143
		c-0.065,0.068-0.185,0.086-0.265,0.041l-0.277-0.115c-0.085-0.027-0.158-0.127-0.158-0.221v-0.201c0-0.094-0.074-0.17-0.166-0.17
		h-0.33c-0.092,0-0.167,0.076-0.167,0.17v0.201c0,0.094-0.073,0.193-0.159,0.221l-0.276,0.115c-0.08,0.045-0.199,0.027-0.265-0.041
		l-0.14-0.143c-0.063-0.064-0.171-0.064-0.234,0l-0.234,0.238c-0.063,0.068-0.063,0.176,0,0.24l0.141,0.143
		c0.065,0.068,0.082,0.188,0.04,0.268l-0.114,0.283c-0.026,0.09-0.123,0.162-0.215,0.162h-0.2c-0.09,0-0.164,0.076-0.164,0.17v0.336
		c0,0.096,0.074,0.172,0.164,0.172h0.2c0.092,0,0.188,0.072,0.214,0.162l0.115,0.283c0.042,0.08,0.025,0.201-0.04,0.27l-0.141,0.143
		c-0.063,0.064-0.063,0.172,0,0.24l0.234,0.238c0.063,0.066,0.171,0.066,0.234,0l0.14-0.143c0.065-0.066,0.185-0.084,0.265-0.039
		l0.276,0.115c0.086,0.029,0.159,0.125,0.159,0.221v0.201c0,0.092,0.075,0.168,0.167,0.168h0.33c0.092,0,0.166-0.076,0.166-0.168
		v-0.201c0-0.096,0.073-0.191,0.158-0.221l0.277-0.115c0.08-0.045,0.199-0.027,0.265,0.039l0.14,0.143
		c0.064,0.066,0.17,0.066,0.234,0l0.234-0.238c0.064-0.068,0.064-0.176,0-0.24l-0.139-0.143c-0.066-0.068-0.084-0.189-0.04-0.27
		l0.113-0.283c0.026-0.09,0.123-0.162,0.214-0.162h0.205c0.09,0,0.164-0.076,0.164-0.168v-0.34
		C16,11.902,15.926,11.826,15.836,11.826z M13.842,13.012c-0.457,0-0.826-0.379-0.826-0.848c0-0.467,0.369-0.844,0.826-0.844
		s0.829,0.377,0.829,0.844C14.671,12.633,14.299,13.012,13.842,13.012z"/>
</g>
</svg>
