<svg xmlns="http://www.w3.org/2000/svg" width="15.781" height="16" viewBox="0 0 15.781 16">
  <defs>
    <style>
      .cls-1 {
        fill: #6f7985;
        fill-rule: evenodd;
      }
    </style>
  </defs>
  <path id="形状_1" data-name="形状 1" class="cls-1" d="M15.584,8.77L14.452,9.949a4.288,4.288,0,0,0-1.638-.343,3.585,3.585,0,0,0-2.476,1l-1.38,1.288h-5.5v-0.01A3.645,3.645,0,0,1-.012,8.18,3.645,3.645,0,0,1,3.5,4.47,4.349,4.349,0,0,1,4.514,2.705a4.056,4.056,0,0,1,5.894,0,4.4,4.4,0,0,1,.568.748A3.981,3.981,0,0,1,14.59,4.628,4.359,4.359,0,0,1,15.6,8.842ZM8.893,3.246l-0.167.53-0.2-.046a3.261,3.261,0,0,0-3.151.989,3.426,3.426,0,0,0-.747,1.3,3.555,3.555,0,0,0,.085,2.393L5.4,8.1a2.753,2.753,0,0,1-.056-1.831,2.643,2.643,0,0,1,.574-1A2.505,2.505,0,0,1,8.24,4.48L8.49,4.526,8.327,5.05,10,4.62ZM5.541,6.319L6.085,7.9H6.412L6.956,6.319H6.52L6.194,7.451,5.868,6.319H5.541ZM7.826,7.9H8.261L8.588,6.772V7.9H8.805V6.319H8.37S8.044,7.338,8.044,7.451L7.608,6.319H7.173V7.9H7.5V6.772Zm2.31-1.47a1.274,1.274,0,0,0-.46-0.115,0.511,0.511,0,0,0-.435.113,0.427,0.427,0,0,0-.109.34,0.6,0.6,0,0,0,.435.453c0.245,0.028.326,0.113,0.326,0.226a0.345,0.345,0,0,1-.326.113,0.511,0.511,0,0,1-.435-0.113v0.34a0.511,0.511,0,0,0,.435.113c0.466,0,.653-0.205.653-0.453a0.59,0.59,0,0,0-.544-0.566A0.233,0.233,0,0,1,9.462,6.69c0-.078.05-0.132,0.238-0.132a0.76,0.76,0,0,1,.437.215V6.434Zm0.729-.65L10.177,6.1a2.752,2.752,0,0,1,.057,1.831,2.636,2.636,0,0,1-.574,1,2.512,2.512,0,0,1-2.32.789L7.088,9.677l0.168-.526L5.584,9.58l1.1,1.375,0.168-.529,0.2,0.046A3.257,3.257,0,0,0,10.2,9.483a3.463,3.463,0,0,0,.746-1.3A3.56,3.56,0,0,0,10.866,5.784ZM11,11.372a2.987,2.987,0,0,1,3.65-.175l0.394-.409,0.746,3.17-3.048-.775,0.572-.594C12.982,11.563,11,11.372,11,11.372Z" transform="translate(0 0.297)"/>
</svg>
