<?xml version="1.0" encoding="utf-8"?>
<!-- Generator: Adobe Illustrator 16.0.0, SVG Export Plug-In . SVG Version: 6.00 Build 0)  -->
<!DOCTYPE svg PUBLIC "-//W3C//DTD SVG 1.1//EN" "http://www.w3.org/Graphics/SVG/1.1/DTD/svg11.dtd">
<svg version="1.1" id="图层_1" xmlns="http://www.w3.org/2000/svg" xmlns:xlink="http://www.w3.org/1999/xlink" x="0px" y="0px"
	 width="13px" height="16px" viewBox="0 0 13 16" enable-background="new 0 0 13 16" xml:space="preserve">
<g>
	<path fill="#86CC16" d="M0,0v15.317h6.702c-0.494-0.645-0.799-1.44-0.799-2.313c0-1.838,1.303-3.375,3.032-3.744V0H0z
		 M4.468,13.604c-0.542,0-0.984-0.44-0.984-0.984c0-0.543,0.442-0.984,0.984-0.984c0.544,0,0.984,0.441,0.984,0.984
		C5.452,13.164,5.013,13.604,4.468,13.604z M5.827,9.398h-2.69L1.165,2.698h2.262l1.071,5.178h0.024l1.081-5.178h2.264L5.827,9.398z
		"/>
	<path fill="#86CC16" d="M9.732,10.007c-1.654,0-2.995,1.341-2.995,2.997C6.737,14.658,8.078,16,9.732,16
		c1.655,0,2.997-1.342,2.997-2.996C12.729,11.348,11.388,10.007,9.732,10.007z M8.972,14.642l0.035-3.274l2.059,1.656L8.972,14.642z
		"/>
</g>
</svg>
