<?xml version="1.0" encoding="utf-8"?>
<!-- Generator: Adobe Illustrator 16.0.0, SVG Export Plug-In . SVG Version: 6.00 Build 0)  -->
<!DOCTYPE svg PUBLIC "-//W3C//DTD SVG 1.1//EN" "http://www.w3.org/Graphics/SVG/1.1/DTD/svg11.dtd">
<svg version="1.1" id="图层_1" xmlns="http://www.w3.org/2000/svg" xmlns:xlink="http://www.w3.org/1999/xlink" x="0px" y="0px"
	 width="16px" height="16px" viewBox="0 0 16 16" enable-background="new 0 0 16 16" xml:space="preserve">
<g>
	<g>
		<path fill="#6F7985" d="M9.096,12.634l0.715-0.6l0.17,0.933l0.17,0.933l-0.457-0.171c0.086,0.436,0.314,0.839,0.672,1.143
			c0.746,0.641,1.855,0.642,2.578,0c0.133-0.116,0.338-0.103,0.455,0.033c0.121,0.136,0.109,0.34-0.023,0.458
			c-0.961,0.85-2.432,0.851-3.424,0.002c-0.574-0.491-0.898-1.177-0.938-1.891l-0.636-0.239L9.096,12.634z"/>
		<path fill="#6F7985" d="M13.412,14.726l-0.17-0.935l-0.17-0.934l0.457,0.171c-0.086-0.434-0.314-0.838-0.668-1.143
			c-0.75-0.641-1.859-0.64-2.582,0c-0.133,0.118-0.338,0.104-0.455-0.032c-0.121-0.136-0.109-0.339,0.025-0.458
			c0.957-0.851,2.43-0.85,3.424-0.001c0.572,0.491,0.898,1.176,0.938,1.891l0.633,0.239l-0.715,0.6L13.412,14.726z"/>
	</g>
	<path fill="#6F7985" d="M7.896,13.38c0-1.555,0.956-2.883,2.309-3.437c-0.006-0.602-0.012-1.017-0.012-1.017V0H1.156v15.49h5.649
		c0.724,0,1.287-0.003,1.746-0.009C8.138,14.884,7.896,14.161,7.896,13.38z M2.449,1.293h6.452v1.546H2.449V1.293z M2.449,4.13
		h6.452v1.552H2.449V4.13z M2.449,6.971h6.452v1.55H2.449V6.971z M6.236,13.702H5.268l-0.711-3.229h0.816l0.384,2.497h0.009
		l0.39-2.497H6.97L6.236,13.702z"/>
</g>
</svg>
