<?xml version="1.0" encoding="utf-8"?>
<!-- Generator: Adobe Illustrator 16.0.0, SVG Export Plug-In . SVG Version: 6.00 Build 0)  -->
<!DOCTYPE svg PUBLIC "-//W3C//DTD SVG 1.1//EN" "http://www.w3.org/Graphics/SVG/1.1/DTD/svg11.dtd">
<svg version="1.1" id="图层_1" xmlns="http://www.w3.org/2000/svg" xmlns:xlink="http://www.w3.org/1999/xlink" x="0px" y="0px"
	 width="16px" height="16px" viewBox="0 0 16 16" enable-background="new 0 0 16 16" xml:space="preserve">
<g>
	<path fill="#6F7985" d="M15.877,11.875c-0.154-0.4-1.598-1.129-1.986-1.283c-0.025-0.012-0.206-0.076-0.206-0.107V10.1
		c0.331-0.34,0.823-0.998,0.913-1.797c0.138-1.18-0.5-2.137-1.349-2.143h-0.04c-0.898,0.006-1.367,0.799-1.349,1.825
		c0.188,0.106,0.363,0.235,0.515,0.406c0.49,0.559,0.717,1.373,0.616,2.23c-0.084,0.742-0.435,1.357-0.74,1.766
		c0.146,0.068,0.33,0.16,0.526,0.268H16C16,12.654,16.017,12.236,15.877,11.875z"/>
	<path fill="#6F7985" d="M4.501,1.105H0v13l2-9h11v-2H6.5L4.501,1.105z M7.32,13.756c0.229-0.598,1.135-1.154,1.809-1.498
		c-0.268-0.482-0.451-1.035-0.516-1.592C8.498,9.643,8.73,8.75,9.268,8.143c0.413-0.465,0.991-0.726,1.63-0.739
		c0.067-0.497,0.235-0.939,0.487-1.299H3l-3,8h7.213C7.24,13.992,7.274,13.873,7.32,13.756z"/>
	<path fill="#6F7985" d="M10.266,12.834c-0.387,0.152-1.859,0.881-2.014,1.283c-0.139,0.361-0.146,0.777-0.146,0.777h5.625
		c0,0,0.018-0.416-0.123-0.777c-0.153-0.402-1.598-1.131-1.987-1.283c-0.025-0.014-0.204-0.076-0.204-0.107v-0.385
		c0.33-0.34,0.822-1,0.912-1.797c0.139-1.182-0.5-2.137-1.348-2.145h-0.041c-0.992,0.008-1.466,0.971-1.333,2.149
		c0.093,0.797,0.483,1.453,0.814,1.793v0.385C10.421,12.758,10.293,12.82,10.266,12.834z"/>
</g>
</svg>
