<?xml version="1.0" encoding="utf-8"?>
<!-- Generator: Adobe Illustrator 16.0.0, SVG Export Plug-In . SVG Version: 6.00 Build 0)  -->
<!DOCTYPE svg PUBLIC "-//W3C//DTD SVG 1.1//EN" "http://www.w3.org/Graphics/SVG/1.1/DTD/svg11.dtd">
<svg version="1.1" id="图层_1" xmlns="http://www.w3.org/2000/svg" xmlns:xlink="http://www.w3.org/1999/xlink" x="0px" y="0px"
	 width="16px" height="16px" viewBox="0 0 16 16" enable-background="new 0 0 16 16" xml:space="preserve">
<g>
	<path fill="#6F7985" d="M7.855,9.855h2.209V0H0.729v16h9.336v-1.145H7.855V9.855z M2.062,1.333h6.666v1.6H2.062V1.333z
		 M2.062,4.267h6.666v1.6H2.062V4.267z M2.062,7.2h6.666v1.6H2.062V7.2z M5.977,14.149H4.975l-0.732-3.332h0.842l0.398,2.578H5.49
		l0.402-2.578h0.842L5.977,14.149z"/>
	<polygon fill="#6F7985" points="15.271,12.355 11.629,8.711 11.629,10.855 8.855,10.855 8.855,13.855 11.629,13.855 11.629,16 	"/>
</g>
</svg>
