<?xml version="1.0" encoding="utf-8"?>
<!-- Generator: Adobe Illustrator 16.0.0, SVG Export Plug-In . SVG Version: 6.00 Build 0)  -->
<!DOCTYPE svg PUBLIC "-//W3C//DTD SVG 1.1//EN" "http://www.w3.org/Graphics/SVG/1.1/DTD/svg11.dtd">
<svg version="1.1" id="图层_1" xmlns="http://www.w3.org/2000/svg" xmlns:xlink="http://www.w3.org/1999/xlink" x="0px" y="0px"
	 width="32px" height="32px" viewBox="0 0 16 16" enable-background="new 0 0 16 16" xml:space="preserve">
<g>
	<g>
		<polygon fill="#6F7985" points="12.202,12.757 12.771,12.757 12.501,11.958 		"/>
		<path fill="#6F7985" d="M15.243,10.681c-0.62-0.619-1.477-0.855-2.278-0.711c-0.101-0.159-0.218-0.313-0.359-0.453
			c-1.025-1.025-2.687-1.025-3.713,0c-0.311,0.311-0.521,0.68-0.643,1.068c-1.226,0.023-2.211,1.018-2.211,2.248
			c0,1.222,0.972,2.208,2.186,2.244v0.008h5.291v-0.009c0.627-0.024,1.247-0.267,1.728-0.747
			C16.252,13.321,16.252,11.688,15.243,10.681z M7.848,13.503H7.587l-0.662-1.814h0.271l0.519,1.549l0.521-1.549h0.273L7.848,13.503
			z M9.894,13.505l-0.487-0.746l-0.503,0.744H8.608l0.648-0.93l-0.608-0.885h0.307l0.46,0.694l0.46-0.695l0.295,0.001l-0.609,0.885
			l0.637,0.93L9.894,13.505z M11.604,13.503h-1.165v-1.814h0.245v1.598h0.92V13.503z M13.039,13.503l-0.181-0.527H12.13
			l-0.189,0.527h-0.252l0.682-1.814h0.277l0.657,1.814H13.039z M14.973,13.503h-0.276l-0.924-1.466l-0.006,1.466h-0.235v-1.814
			l0.291-0.001l0.907,1.465l0.004-1.464h0.239V13.503z"/>
	</g>
	<path fill="none" d="M4.971,12.417H2.035v-1.002h3.24c0.19-0.386,0.449-0.733,0.771-1.016H2.035V9.398h5.581
		c0.136-0.21,0.285-0.411,0.465-0.59C8.23,8.659,8.396,8.53,8.564,8.411H6.833v-1h3.002v0.435c0.265-0.06,0.534-0.099,0.811-0.099
		c0.05,0,0.097,0.012,0.146,0.014V4.316H7.555V1.078H1.078V14.03h4.091c-0.146-0.372-0.234-0.772-0.234-1.197
		C4.935,12.69,4.953,12.554,4.971,12.417z M6.833,5.394h3.002v1H6.833V5.394z"/>
	<rect x="6.833" y="5.394" fill="#6F7985" width="3.002" height="1"/>
	<path fill="#6F7985" d="M9.835,7.411H6.833v1h1.731C8.949,8.141,9.379,7.95,9.835,7.846V7.411z"/>
	<path fill="#6F7985" d="M7.616,9.398H2.035v1.001h4.011c0.396-0.348,0.873-0.604,1.4-0.729C7.496,9.575,7.559,9.489,7.616,9.398z"
		/>
	<path fill="#6F7985" d="M2.035,11.415v1.002h2.936c0.047-0.355,0.151-0.69,0.305-1.002H2.035z"/>
	<path fill="#6F7985" d="M1.078,14.03V1.078h6.477v3.238h3.237v3.445c0.373,0.015,0.735,0.087,1.079,0.211V3.237L8.634-0.001H0
		v15.109h0.065h1.013h4.783c-0.301-0.305-0.532-0.674-0.692-1.078H1.078z"/>
	<rect x="2.035" y="3.13" fill="#6F7985" width="3.9" height="5.318"/>
</g>
</svg>
