<?xml version="1.0" encoding="utf-8"?>
<!-- Generator: Adobe Illustrator 16.0.0, SVG Export Plug-In . SVG Version: 6.00 Build 0)  -->
<!DOCTYPE svg PUBLIC "-//W3C//DTD SVG 1.1//EN" "http://www.w3.org/Graphics/SVG/1.1/DTD/svg11.dtd">
<svg version="1.1" id="图层_1" xmlns="http://www.w3.org/2000/svg" xmlns:xlink="http://www.w3.org/1999/xlink" x="0px" y="0px"
	 width="16px" height="16px" viewBox="0 0 16 16" enable-background="new 0 0 16 16" xml:space="preserve">
<g>
	<path fill="#6F7985" d="M13.934,3.398c-0.716,0.705-2.674,2.703-3.393,3.412L8.828,7.273L8.811,7.268l0.545-1.578l0.373-0.416
		l2.382-2.355l0.524-0.52l0.155-0.152c0.008-0.006-0.114-0.123-0.103-0.124l-0.182-0.177l-0.387,0.38l-3.13,3.089L8.803,5.597
		L8.011,8.034l0.022,0.005L10.7,7.273c0.731-0.723,2.235-2.295,3.551-3.583l-0.308-0.302C13.939,3.389,13.939,3.398,13.934,3.398z"
		/>
	<path fill="#6F7985" d="M15.677,1.33l-0.799-0.755c-0.14-0.132-0.318-0.198-0.496-0.194c-0.179,0.004-0.357,0.074-0.49,0.207
		l-0.266,0.256l1.781,1.713c0.101-0.104,0.201-0.195,0.27-0.268c0.138-0.136,0.208-0.311,0.204-0.484
		C15.881,1.63,15.81,1.46,15.677,1.33z"/>
	<polygon fill="#6F7985" points="12.835,1.665 14.625,3.367 15.096,2.898 13.31,1.197 	"/>
	<path fill="#6F7985" d="M4.848,7.692c0,0.381,0.309,0.69,0.691,0.69h1.307l0.449-1.381H5.539C5.156,7.001,4.848,7.311,4.848,7.692z
		 M6.77,4.54H3.077c-0.382,0-0.69,0.309-0.69,0.69c0,0.382,0.309,0.691,0.69,0.691H6.77c0.381,0,0.69-0.309,0.69-0.691
		C7.46,4.849,7.15,4.54,6.77,4.54z M14.77,4.635v9.212c0,0.338-0.277,0.615-0.615,0.615H1.846c-0.338,0-0.615-0.277-0.615-0.615
		V3.385h8.392l2.57-2.532l-0.009-0.008l0.558-0.537H1.846C0.827,0.308,0,1.134,0,2.154v11.693c0,1.019,0.827,1.846,1.846,1.846
		h12.309c1.019,0,1.846-0.827,1.846-1.846V3.409L14.77,4.635z M11.768,10.153c0-0.381-0.309-0.69-0.69-0.69H7.385
		c-0.382,0-0.691,0.31-0.691,0.69c0,0.382,0.31,0.691,0.691,0.691h3.692C11.459,10.845,11.768,10.535,11.768,10.153z M3.077,13.306
		H6.77c0.381,0,0.69-0.309,0.69-0.69s-0.31-0.69-0.69-0.69H3.077c-0.382,0-0.69,0.309-0.69,0.69S2.695,13.306,3.077,13.306z"/>
	<polygon fill="#6F7985" points="10.183,5.908 10.222,6.35 13.569,3.076 13.086,2.625 9.742,5.887 	"/>
</g>
</svg>
