<?xml version="1.0" encoding="utf-8"?>
<!-- Generator: Adobe Illustrator 16.0.0, SVG Export Plug-In . SVG Version: 6.00 Build 0)  -->
<!DOCTYPE svg PUBLIC "-//W3C//DTD SVG 1.1//EN" "http://www.w3.org/Graphics/SVG/1.1/DTD/svg11.dtd">
<svg version="1.1" id="图层_1" xmlns="http://www.w3.org/2000/svg" xmlns:xlink="http://www.w3.org/1999/xlink" x="0px" y="0px"
	 width="16px" height="16px" viewBox="0 0 16 16" enable-background="new 0 0 16 16" xml:space="preserve">
<g>
	<g>
		<g>
			<path fill="#6F7985" d="M172.854,97.574h1.844v6.249h-1.844V97.574z"/>
		</g>
		<g>
			<path fill="#6F7985" d="M173.777,94.495c0.604,0,1.094,0.489,1.094,1.095s-0.49,1.093-1.094,1.093s-1.094-0.487-1.094-1.093
				S173.174,94.495,173.777,94.495z"/>
		</g>
	</g>
	<g>
		<path fill="#6F7985" d="M173.775,107.159c-4.41,0-8-3.589-8-8s3.59-8,8-8c4.412,0,8,3.589,8,8S178.188,107.159,173.775,107.159z
			 M173.775,92.53c-3.654,0-6.629,2.974-6.629,6.629s2.975,6.629,6.629,6.629c3.655,0,6.629-2.974,6.629-6.629
			S177.431,92.53,173.775,92.53z"/>
	</g>
</g>
<g>
	<path fill="#6F7985" d="M1.789,6.22l1.787-1.494l0.398,2.296l0.402,2.295L3.248,8.903c0.203,1.067,0.758,2.059,1.631,2.8
		c1.838,1.561,4.582,1.537,6.385-0.057c0.33-0.292,0.836-0.262,1.127,0.071c0.291,0.329,0.26,0.833-0.07,1.126
		c-2.395,2.114-6.035,2.147-8.475,0.077c-1.406-1.193-2.197-2.874-2.275-4.632L0,7.715L1.789,6.22z"/>
	<path fill="#6F7985" d="M12.426,11.273l-0.4-2.295l-0.402-2.295l1.129,0.413c-0.203-1.067-0.758-2.059-1.631-2.8
		C9.285,2.736,6.539,2.76,4.738,4.353c-0.332,0.293-0.84,0.263-1.127-0.068C3.318,3.953,3.35,3.449,3.68,3.156
		c2.393-2.114,6.037-2.147,8.477-0.077c1.404,1.194,2.197,2.874,2.275,4.632L16,8.285l-1.789,1.496L12.426,11.273z"/>
</g>
</svg>
