<?xml version="1.0" encoding="utf-8"?>
<!-- Generator: Adobe Illustrator 16.0.0, SVG Export Plug-In . SVG Version: 6.00 Build 0)  -->
<!DOCTYPE svg PUBLIC "-//W3C//DTD SVG 1.1//EN" "http://www.w3.org/Graphics/SVG/1.1/DTD/svg11.dtd">
<svg version="1.1" id="图层_1" xmlns="http://www.w3.org/2000/svg" xmlns:xlink="http://www.w3.org/1999/xlink" x="0px" y="0px"
	 width="16px" height="16px" viewBox="0 0 16 16" enable-background="new 0 0 16 16" xml:space="preserve">
<g>
	<path fill="#6F7985" d="M0.668,14.105h6.295c-0.25-0.59-0.387-1.239-0.387-1.919c0-1.761,0.929-3.298,2.32-4.174V0H0.668V14.105z
		 M4.781,12.682c-0.501,0-0.905-0.406-0.905-0.907c0-0.5,0.404-0.906,0.905-0.906c0.502,0,0.906,0.406,0.906,0.906
		C5.688,12.275,5.283,12.682,4.781,12.682z M1.844,1.175H7.72v1.41H1.844V1.175z M1.844,3.762H7.72v1.409H1.844V3.762z M1.844,6.348
		H7.72v1.409H1.844V6.348z"/>
	<path fill="#6F7985" d="M11.521,8.374c-2.107,0-3.815,1.706-3.815,3.812c0,2.108,1.708,3.813,3.815,3.813
		c2.105,0,3.811-1.705,3.811-3.813C15.332,10.08,13.627,8.374,11.521,8.374z M13.725,12.841h-1.535v1.496h-1.342v-1.496H9.316
		v-1.309h1.531v-1.494h1.342v1.494h1.535V12.841z"/>
</g>
</svg>
