<?xml version="1.0" encoding="utf-8"?>
<!-- Generator: Adobe Illustrator 16.0.0, SVG Export Plug-In . SVG Version: 6.00 Build 0)  -->
<!DOCTYPE svg PUBLIC "-//W3C//DTD SVG 1.1//EN" "http://www.w3.org/Graphics/SVG/1.1/DTD/svg11.dtd">
<svg version="1.1" id="图层_1" xmlns="http://www.w3.org/2000/svg" xmlns:xlink="http://www.w3.org/1999/xlink" x="0px" y="0px"
	 width="16px" height="16px" viewBox="0 0 16 16" enable-background="new 0 0 16 16" xml:space="preserve">
<g>
	<path fill="#6F7985" d="M8.881,14.051c0.034-0.034,0.069-0.066,0.106-0.096l0.268-0.212c-0.061-0.05-0.121-0.104-0.18-0.161
		c-0.549-0.553-0.764-1.362-0.561-2.114c0.098-0.368,0.386-0.657,0.754-0.755c0.01-0.003,0.021-0.006,0.031-0.009
		c0.004-0.009,0.006-0.02,0.008-0.029c0.1-0.367,0.385-0.655,0.752-0.755c0.09-0.023,0.182-0.023,0.273-0.036V9.235V0H1.365v15.375
		h5.798C7.159,15.37,7.746,15.37,8.417,15.37c0-0.021,0.011-0.04,0.011-0.061C8.392,14.853,8.541,14.402,8.881,14.051z M2.642,1.285
		h6.415v1.534H2.642V1.285z M2.642,4.104h6.415V5.64H2.642V4.104z M5.854,13.39c-0.534,0-0.968-0.434-0.968-0.959
		c0-0.534,0.434-0.968,0.968-0.968c0.525,0,0.959,0.434,0.959,0.968C6.812,12.956,6.379,13.39,5.854,13.39z M2.642,8.46V6.925h6.415
		V8.46H2.642z"/>
	<path fill="#E60012" d="M12.592,13.32l1.447-1.444h0.197l0.398-0.796l-0.199-0.198l-0.795,0.398v0.198l-1.494,1.493l-0.531-0.412
		c0.227-0.425,0.166-0.964-0.193-1.323c-0.293-0.293-0.707-0.387-1.082-0.286l0.684,0.685v0.796H10.23l-0.686-0.687
		c-0.1,0.374-0.006,0.787,0.287,1.084c0.359,0.358,0.898,0.418,1.322,0.191l0.287,0.363l-1.793,1.41
		c-0.324,0.335-0.121,0.702,0.02,0.86l0.176,0.179c0.156,0.137,0.473,0.198,0.863,0.049l1.344-1.725l1.314,1.67
		c0.336,0.323,0.703,0.122,0.861-0.018l0.18-0.18c0.135-0.153,0.34-0.472,0.047-0.862L12.592,13.32z M13.982,15.39
		c-0.092,0.091-0.238,0.091-0.33,0c-0.092-0.092-0.092-0.242,0-0.333c0.092-0.092,0.238-0.092,0.33,0
		C14.076,15.147,14.076,15.298,13.982,15.39z"/>
</g>
</svg>
