<?xml version="1.0" encoding="utf-8"?>
<!-- Generator: Adobe Illustrator 16.0.0, SVG Export Plug-In . SVG Version: 6.00 Build 0)  -->
<!DOCTYPE svg PUBLIC "-//W3C//DTD SVG 1.1//EN" "http://www.w3.org/Graphics/SVG/1.1/DTD/svg11.dtd">
<svg version="1.1" id="图层_1" xmlns="http://www.w3.org/2000/svg" xmlns:xlink="http://www.w3.org/1999/xlink" x="0px" y="0px"
	 width="16px" height="16px" viewBox="0 0 16 16" enable-background="new 0 0 16 16" xml:space="preserve">
<g>
	<rect x="6.424" y="8.713" fill="none" width="0.402" height="0.263"/>
	<path fill="#6F7985" d="M0.706,8.506V0.8h11.852v1.966h0.694V0.528c0-0.286-0.236-0.529-0.525-0.529H0.528
		C0.233-0.001,0,0.242,0,0.528V8.77c0,0.289,0.233,0.525,0.528,0.525c1.895,0,3.791,0,5.687,0V8.976h0.209V8.713h0.402v0.263h0.211
		v0.319c1.122,0,2.242,0,3.363,0V8.506H0.706z"/>
	<path fill="#6F7985" d="M6.215,10.209V9.623H5.211c-0.178,0.182-0.305,0.555-0.382,0.908H3.812v0.637c1.879,0,3.752,0,5.629,0
		v-0.637H8.424C8.35,10.178,8.218,9.805,8.045,9.623H7.037v0.586H6.215z"/>
	<path fill="#6F7985" d="M6.215,9.623h0.822V9.295c-0.274,0-0.548,0-0.822,0V9.623z"/>
	<rect x="6.424" y="8.976" fill="#6F7985" width="0.402" height="0.098"/>
	<path fill="#6F7985" d="M6.826,8.976v0.098H6.424V8.976H6.215v0.319c0.274,0,0.548,0,0.822,0V8.976H6.826z"/>
	<rect x="6.215" y="9.623" fill="#6F7985" width="0.822" height="0.586"/>
	<path fill="#6F7985" d="M11.012,3.837v8.565H16V3.837H11.012z M13.506,11.43c-0.303,0-0.55-0.244-0.55-0.549
		c0-0.303,0.247-0.549,0.55-0.549c0.304,0,0.549,0.246,0.549,0.549C14.055,11.186,13.81,11.43,13.506,11.43z M14.265,9.084h-1.502
		l-1.102-3.741h1.263l0.598,2.89h0.014l0.603-2.89h1.265L14.265,9.084z"/>
	<g>
		<path fill="#6F7985" d="M6.525,5.593L6.431,5.595C6.461,5.596,6.491,5.596,6.525,5.593z"/>
		<polygon fill="#6F7985" stroke="#6F7985" stroke-width="0.1791" stroke-miterlimit="10" points="6.354,5.369 6.381,7.645 
			8.073,6.488 		"/>
		<path fill="#6F7985" stroke="#6F7985" stroke-width="0.1791" stroke-miterlimit="10" d="M9.025,5.167L8.586,4.735
			c0.175-0.68-0.007-1.432-0.544-1.958C7.24,1.998,5.959,2.012,5.179,2.811c-0.783,0.801-0.77,2.083,0.03,2.866
			c0.41,0.397,0.942,0.589,1.471,0.575l0.502,0.491C6.364,6.925,5.47,6.702,4.824,6.07C3.807,5.074,3.786,3.444,4.782,2.424
			c0.995-1.018,2.625-1.036,3.645-0.042C9.191,3.13,9.392,4.233,9.025,5.167z"/>
	</g>
</g>
</svg>
