<?xml version="1.0" encoding="utf-8"?>
<!-- Generator: Adobe Illustrator 16.0.0, SVG Export Plug-In . SVG Version: 6.00 Build 0)  -->
<!DOCTYPE svg PUBLIC "-//W3C//DTD SVG 1.1//EN" "http://www.w3.org/Graphics/SVG/1.1/DTD/svg11.dtd">
<svg version="1.1" id="图层_1" xmlns="http://www.w3.org/2000/svg" xmlns:xlink="http://www.w3.org/1999/xlink" x="0px" y="0px"
	 width="16px" height="16px" viewBox="0 0 16 16" enable-background="new 0 0 16 16" xml:space="preserve">
<g>
	<path fill="#6F7985" d="M13.299,11.069l0.238-0.035l1.5-1.501V9.342l0.771-0.385L16,9.149l-0.385,0.77h-0.192l-1.521,1.52
		l-0.028,0.204l-1.677,2.156c-0.38,0.146-0.688,0.086-0.838-0.045l-0.172-0.174c-0.134-0.154-0.332-0.509-0.018-0.836L13.299,11.069
		z"/>
	<path fill="none" d="M4.146,9.168l-2.297,1.566c0.452,0.658,1.024,1.234,1.686,1.685l1.566-2.299
		C4.728,9.869,4.402,9.541,4.146,9.168z"/>
	<path fill="none" d="M10.118,5.1l2.297-1.568c-0.448-0.657-1.02-1.233-1.679-1.683L9.17,4.147C9.543,4.401,9.864,4.724,10.118,5.1z
		"/>
	<circle fill="none" cx="7.128" cy="7.128" r="2.808"/>
	<path fill="#6F7985" d="M10.529,12.126l0.042-0.044l0.457-0.359c-0.111-0.073-0.216-0.157-0.312-0.254
		c-0.494-0.494-0.688-1.226-0.506-1.908l0.192-0.719l0.488-0.492l0.722-0.189c0.167-0.045,0.338-0.066,0.511-0.066
		c0.526,0,1.022,0.204,1.395,0.576c0.18,0.18,0.309,0.39,0.405,0.611c0.216-0.68,0.333-1.403,0.333-2.154
		c0-3.935-3.189-7.128-7.128-7.128C3.191-0.001,0,3.192,0,7.127c0,3.937,3.191,7.128,7.128,7.128c1.099,0,2.132-0.256,3.06-0.7
		C10.031,13.047,10.146,12.523,10.529,12.126z M10.736,1.849c0.659,0.449,1.23,1.025,1.679,1.683L10.118,5.1
		C9.864,4.724,9.543,4.401,9.17,4.147L10.736,1.849z M3.534,12.419c-0.661-0.45-1.233-1.026-1.686-1.685l2.297-1.566
		c0.257,0.373,0.582,0.701,0.955,0.952L3.534,12.419z M7.128,9.936c-1.549,0-2.806-1.257-2.806-2.809
		c0-1.551,1.257-2.807,2.806-2.807c1.551,0,2.809,1.256,2.809,2.807C9.937,8.679,8.679,9.936,7.128,9.936z"/>
	<path fill="#6F7985" d="M12.629,11.026l2.142,2.72c0.326,0.314,0.681,0.117,0.834-0.018l0.175-0.171
		c0.13-0.151,0.33-0.46,0.045-0.838l-2.749-2.139c0.218-0.412,0.16-0.934-0.187-1.28c-0.285-0.285-0.686-0.375-1.05-0.279
		l0.663,0.665v0.768h-0.77l-0.661-0.663c-0.098,0.364-0.008,0.765,0.275,1.049C11.694,11.188,12.217,11.248,12.629,11.026z
		 M15.048,13.324c-0.088-0.091-0.088-0.235,0-0.322c0.09-0.09,0.233-0.09,0.322,0c0.088,0.087,0.088,0.231,0,0.322
		C15.281,13.411,15.138,13.411,15.048,13.324z"/>
</g>
</svg>
