<?xml version="1.0" encoding="utf-8"?>
<!-- Generator: Adobe Illustrator 16.0.0, SVG Export Plug-In . SVG Version: 6.00 Build 0)  -->
<!DOCTYPE svg PUBLIC "-//W3C//DTD SVG 1.1//EN" "http://www.w3.org/Graphics/SVG/1.1/DTD/svg11.dtd">
<svg version="1.1" id="图层_1" xmlns="http://www.w3.org/2000/svg" xmlns:xlink="http://www.w3.org/1999/xlink" x="0px" y="0px"
	 width="16px" height="16px" viewBox="0 0 16 16" enable-background="new 0 0 16 16" xml:space="preserve">
<g>
	<g>
		<path fill="#6F7985" d="M15.805,10.124c-0.242-0.634-2.514-1.78-3.127-2.021c-0.039-0.021-0.322-0.12-0.322-0.169V7.327
			c0.52-0.534,1.295-1.572,1.438-2.828c0.215-1.858-0.787-3.364-2.125-3.375h-0.062c-1.414,0.01-2.152,1.259-2.123,2.873
			c0.295,0.167,0.572,0.372,0.811,0.641c0.773,0.878,1.127,2.158,0.969,3.512c-0.131,1.167-0.684,2.136-1.164,2.777
			c0.229,0.108,0.52,0.253,0.828,0.421h5.072C15.998,11.348,16.025,10.692,15.805,10.124z"/>
		<path fill="#6F7985" d="M5.94,10.94c-0.479-0.697-0.917-1.668-1.048-2.783C4.728,6.7,5.048,5.437,5.792,4.595
			c0.254-0.284,0.552-0.5,0.878-0.664C6.643,2.344,5.722,1.134,4.524,1.124H4.461C2.899,1.135,2.153,2.652,2.363,4.508
			c0.146,1.251,0.76,2.285,1.282,2.819v0.606c0,0.049-0.201,0.148-0.244,0.169C2.792,8.344,0.473,9.49,0.231,10.124
			C0.011,10.692,0,11.348,0,11.348h5.13C5.425,11.189,5.707,11.051,5.94,10.94z"/>
	</g>
	<path fill="#6F7985" d="M6.973,11.631c-0.608,0.241-2.928,1.388-3.169,2.021c-0.22,0.569-0.231,1.225-0.231,1.225h8.855
		c0,0,0.025-0.655-0.195-1.225c-0.24-0.633-2.514-1.779-3.127-2.021c-0.039-0.021-0.323-0.12-0.323-0.169v-0.606
		c0.522-0.534,1.295-1.573,1.438-2.828c0.215-1.858-0.787-3.365-2.125-3.375H8.034C6.472,4.662,5.725,6.18,5.935,8.036
		c0.147,1.251,0.761,2.285,1.282,2.819v0.606C7.216,11.511,7.016,11.61,6.973,11.631z"/>
</g>
</svg>
