<?xml version="1.0" encoding="utf-8"?>
<!-- Generator: Adobe Illustrator 16.0.0, SVG Export Plug-In . SVG Version: 6.00 Build 0)  -->
<!DOCTYPE svg PUBLIC "-//W3C//DTD SVG 1.1//EN" "http://www.w3.org/Graphics/SVG/1.1/DTD/svg11.dtd">
<svg version="1.1" id="图层_1" xmlns="http://www.w3.org/2000/svg" xmlns:xlink="http://www.w3.org/1999/xlink" x="0px" y="0px"
	 width="16px" height="16px" viewBox="0 0 16 16" enable-background="new 0 0 16 16" xml:space="preserve">
<g>
	<path fill="#6F7985" d="M4.029,12.983h5.139c-0.204-0.481-0.315-1.011-0.315-1.566c0-1.437,0.759-2.691,1.894-3.407V1.47H4.029
		V12.983z M7.388,11.821c-0.41,0-0.74-0.332-0.74-0.74c0-0.409,0.33-0.74,0.74-0.74c0.409,0,0.739,0.331,0.739,0.74
		C8.127,11.489,7.797,11.821,7.388,11.821z M4.989,2.429h4.797V3.58H4.989V2.429z M4.989,4.54h4.797v1.151H4.989V4.54z M4.989,6.651
		h4.797v1.15H4.989V6.651z M11.298,2.333v0.815h2.662v0.979h-2.662v0.816h2.662v0.979h-2.662v0.815h2.662v0.808
		c0.287,0.079,0.558,0.189,0.815,0.327V2.333H11.298z M0,12.12h3.478v-1.566c-0.025,0.322-0.292,0.577-0.623,0.577
		c-0.348,0-0.629-0.281-0.629-0.628c0-0.348,0.281-0.63,0.629-0.63c0.33,0,0.597,0.256,0.623,0.579V7.715H0.815V6.737h2.662V5.922
		H0.815V4.943h2.662V4.127H0.815V3.148h2.662V2.333H0V12.12z"/>
	<path fill="#6F7985" d="M12.889,8.305c-1.721,0-3.113,1.393-3.113,3.112c0,1.721,1.393,3.113,3.113,3.113
		c1.719,0,3.111-1.393,3.111-3.113C16,9.697,14.607,8.305,12.889,8.305z M14.687,11.951h-1.251v1.221h-1.097v-1.221h-1.25v-1.067
		h1.25V9.663h1.097v1.221h1.251V11.951z"/>
</g>
</svg>
