<?xml version="1.0" encoding="utf-8"?>
<!-- Generator: Adobe Illustrator 16.0.0, SVG Export Plug-In . SVG Version: 6.00 Build 0)  -->
<!DOCTYPE svg PUBLIC "-//W3C//DTD SVG 1.1//EN" "http://www.w3.org/Graphics/SVG/1.1/DTD/svg11.dtd">
<svg version="1.1" id="图层_1" xmlns="http://www.w3.org/2000/svg" xmlns:xlink="http://www.w3.org/1999/xlink" x="0px" y="0px"
	 width="16px" height="16px" viewBox="0 0 16 16" enable-background="new 0 0 16 16" xml:space="preserve">
<g>
	<path fill="#FF8000" d="M11.221,10.063H9.398c-0.299,0-0.542,0.249-0.542,0.551v1.854c0,0.269,0.188,0.477,0.434,0.527l-1.351,1.38
		c-0.05-0.038-0.105-0.073-0.175-0.073H6.718c-0.17,0-0.302,0.139-0.302,0.308v1.067c0,0.17,0.132,0.307,0.302,0.307h1.047
		c0.168,0,0.303-0.137,0.303-0.307v-0.963c0.02-0.01,0.041-0.01,0.057-0.027l1.641-1.666h0.943l0.26,0.264
		c0.135-0.543,0.408-1.031,0.793-1.412v-1.258C11.762,10.312,11.518,10.063,11.221,10.063z"/>
	<g>
		<path fill="#6F7985" d="M7.126,13.302h0.465l0.342-0.351c-0.002-0.009-0.002-0.021-0.004-0.029H7.126V13.302z"/>
		<path fill="#6F7985" d="M9.127,1v1h2v7.063h0.094c0.34,0,0.65,0.115,0.906,0.303V1H9.127z"/>
		<rect x="7.126" y="10.984" fill="#6F7985" width="0.73" height="1"/>
		<path fill="#6F7985" d="M8.126,3V0h-4v3h-2v1h8V3H8.126z M6.626,2h-1V1h1V2z"/>
		<rect x="7.126" y="7" fill="#6F7985" width="3" height="1"/>
		<path fill="#6F7985" d="M9.398,9.063h0.729V9.047h-3v1h0.842C8.193,9.472,8.748,9.063,9.398,9.063z"/>
		<path fill="#6F7985" d="M2.126,14h3.461c0.123-0.23,0.309-0.416,0.539-0.537V5h-4V14z"/>
		<rect x="7.126" y="5" fill="#6F7985" width="3" height="1"/>
		<path fill="#6F7985" d="M5.417,15h-4.29V2h2V1h-3v15h5.355c-0.027-0.106-0.065-0.208-0.065-0.323V15z"/>
	</g>
	<path fill="#6F7985" d="M13.873,11.999c-1.104,0-2,0.896-2,2c0,1.105,0.896,2.001,2,2.001c1.105,0,2-0.896,2-2.001
		C15.873,12.895,14.979,11.999,13.873,11.999z M14.244,15.27h-0.762l-0.557-2.541h0.639l0.303,1.964h0.008l0.305-1.964h0.643
		L14.244,15.27z"/>
</g>
</svg>
