<?xml version="1.0" encoding="utf-8"?>
<!-- Generator: Adobe Illustrator 16.0.0, SVG Export Plug-In . SVG Version: 6.00 Build 0)  -->
<!DOCTYPE svg PUBLIC "-//W3C//DTD SVG 1.1//EN" "http://www.w3.org/Graphics/SVG/1.1/DTD/svg11.dtd">
<svg version="1.1" id="图层_1" xmlns="http://www.w3.org/2000/svg" xmlns:xlink="http://www.w3.org/1999/xlink" x="0px" y="0px"
	 width="16px" height="16px" viewBox="0 0 16 16" enable-background="new 0 0 16 16" xml:space="preserve">
<g>
	<g>
		<path fill="#6F7985" d="M8,16c-4.41,0-8-3.589-8-8s3.59-8,8-8c4.412,0,8,3.589,8,8S12.412,16,8,16z M8,1.371
			C4.346,1.371,1.371,4.346,1.371,8S4.346,14.629,8,14.629c3.655,0,6.629-2.975,6.629-6.629S11.655,1.371,8,1.371z"/>
	</g>
	<g>
		<g>
			<g>
				<path fill="#6F7985" d="M9.385,12.734c0,0.383-0.311,0.567-0.691,0.415l-1.387-0.553c-0.379-0.153-0.689-0.588-0.689-0.971V9.06
					l2.768-0.692V12.734z"/>
			</g>
		</g>
		<g>
			<path fill="#6F7985" d="M9.385,8.367H6.617L3.502,4.906c0-0.382,0.311-0.691,0.693-0.691h7.611c0.383,0,0.692,0.31,0.692,0.691
				L9.385,8.367z"/>
		</g>
	</g>
</g>
</svg>
