<?xml version="1.0" encoding="utf-8"?>
<!-- Generator: Adobe Illustrator 16.0.0, SVG Export Plug-In . SVG Version: 6.00 Build 0)  -->
<!DOCTYPE svg PUBLIC "-//W3C//DTD SVG 1.1//EN" "http://www.w3.org/Graphics/SVG/1.1/DTD/svg11.dtd">
<svg version="1.1" id="图层_1" xmlns="http://www.w3.org/2000/svg" xmlns:xlink="http://www.w3.org/1999/xlink" x="0px" y="0px"
	 width="16px" height="16px" viewBox="0 0 16 16" enable-background="new 0 0 16 16" xml:space="preserve">
<g>
	<g>
		<g>
			<path fill="#6F7985" d="M172.854,97.574h1.844v6.249h-1.844V97.574z"/>
		</g>
		<g>
			<path fill="#6F7985" d="M173.777,94.495c0.604,0,1.094,0.489,1.094,1.095s-0.49,1.093-1.094,1.093s-1.094-0.487-1.094-1.093
				S173.174,94.495,173.777,94.495z"/>
		</g>
	</g>
	<g>
		<path fill="#6F7985" d="M173.775,107.159c-4.41,0-8-3.589-8-8s3.59-8,8-8c4.412,0,8,3.589,8,8S178.188,107.159,173.775,107.159z
			 M173.775,92.53c-3.654,0-6.629,2.974-6.629,6.629s2.975,6.629,6.629,6.629c3.655,0,6.629-2.974,6.629-6.629
			S177.431,92.53,173.775,92.53z"/>
	</g>
</g>
<g>
	<path fill-rule="evenodd" clip-rule="evenodd" fill="#6F7985" d="M756.688,360.817l10.059-8.411l0.337,0.404l-0.204,0.171
		c-0.168,0.138-0.189,0.388-0.051,0.555l0,0c0.14,0.167,0.39,0.189,0.556,0.05l0.205-0.171l0.196,0.234l-0.205,0.171
		c-0.166,0.14-0.189,0.39-0.05,0.556l0,0c0.14,0.167,0.391,0.189,0.556,0.05l0.205-0.171l0.283,0.339l-0.465,0.389l0.187,0.221
		c0.045,0.054,0.044,0.128-0.002,0.167l-1.1,0.919c-0.045,0.039-0.119,0.025-0.164-0.027l-0.185-0.222l-0.163,0.137l0.185,0.22
		c0.045,0.055,0.044,0.13-0.002,0.168l-1.1,0.92c-0.045,0.038-0.119,0.024-0.164-0.028l-0.184-0.221l-0.19,0.158l0.184,0.222
		c0.045,0.053,0.044,0.128-0.001,0.166l-1.1,0.92c-0.046,0.038-0.12,0.025-0.165-0.028l-0.184-0.221l-0.199,0.165l-0.212-0.254
		l-0.41,0.344l0.213,0.254l-0.199,0.166l0.185,0.221c0.044,0.054,0.044,0.129-0.001,0.167l-1.1,0.92
		c-0.046,0.037-0.12,0.024-0.164-0.028l-0.186-0.222l-0.163,0.136l0.185,0.223c0.045,0.053,0.045,0.128-0.001,0.167l-1.1,0.919
		c-0.046,0.038-0.12,0.025-0.164-0.028l-0.186-0.221l-0.19,0.159l0.186,0.221c0.045,0.053,0.045,0.128-0.002,0.167l-1.099,0.919
		c-0.045,0.038-0.119,0.025-0.165-0.028l-0.185-0.221l-0.488,0.408l-0.284-0.34l0.128-0.106c0.167-0.139,0.188-0.39,0.049-0.556l0,0
		c-0.139-0.166-0.388-0.188-0.555-0.049l-0.128,0.106l-0.196-0.234l0.128-0.107c0.167-0.139,0.189-0.39,0.05-0.555l0,0
		c-0.139-0.167-0.39-0.189-0.556-0.051l-0.127,0.107L756.688,360.817L756.688,360.817z M757.991,360.13
		c-0.064,0.054-0.073,0.151-0.021,0.215l0.933,1.113c0.054,0.065,0.149,0.074,0.215,0.02l0.352-0.295
		c0.065-0.053,0.073-0.149,0.019-0.214l-0.931-1.114c-0.054-0.063-0.151-0.072-0.215-0.019L757.991,360.13L757.991,360.13z
		 M762.691,356.199c-0.065,0.054-0.073,0.15-0.019,0.215l0.931,1.113c0.053,0.064,0.15,0.072,0.214,0.02l0.353-0.293
		c0.064-0.055,0.073-0.151,0.02-0.216l-0.932-1.114c-0.054-0.063-0.149-0.072-0.215-0.019L762.691,356.199L762.691,356.199z
		 M765.512,353.842c-0.065,0.053-0.073,0.15-0.02,0.215l0.93,1.113c0.055,0.064,0.151,0.072,0.216,0.02l0.352-0.295
		c0.064-0.053,0.073-0.15,0.02-0.214l-0.931-1.114c-0.055-0.064-0.151-0.074-0.215-0.02L765.512,353.842L765.512,353.842z
		 M764.574,354.625c-0.063,0.054-0.073,0.149-0.02,0.215l0.932,1.112c0.055,0.064,0.15,0.073,0.216,0.021l0.351-0.295
		c0.064-0.054,0.073-0.15,0.02-0.215l-0.931-1.113c-0.054-0.064-0.151-0.073-0.216-0.019L764.574,354.625L764.574,354.625z
		 M763.628,355.416c-0.064,0.054-0.073,0.15-0.019,0.215l0.931,1.113c0.054,0.064,0.15,0.072,0.216,0.02l0.352-0.294
		c0.063-0.055,0.072-0.15,0.018-0.215l-0.931-1.112c-0.054-0.065-0.15-0.074-0.215-0.021L763.628,355.416L763.628,355.416z
		 M760.811,357.771c-0.064,0.054-0.072,0.15-0.019,0.215l0.931,1.114c0.054,0.063,0.15,0.073,0.215,0.02l0.352-0.294
		c0.064-0.055,0.074-0.151,0.019-0.216l-0.931-1.112c-0.054-0.065-0.15-0.074-0.215-0.021L760.811,357.771L760.811,357.771z
		 M759.874,358.555c-0.065,0.054-0.072,0.15-0.019,0.215l0.931,1.115c0.053,0.062,0.151,0.072,0.215,0.018l0.352-0.293
		c0.064-0.055,0.073-0.151,0.019-0.216l-0.93-1.113c-0.055-0.064-0.15-0.073-0.216-0.019L759.874,358.555L759.874,358.555z
		 M758.928,359.347c-0.063,0.054-0.073,0.15-0.02,0.216l0.931,1.112c0.056,0.065,0.151,0.073,0.216,0.019l0.351-0.293
		c0.064-0.055,0.073-0.151,0.021-0.216l-0.931-1.113c-0.056-0.064-0.151-0.072-0.216-0.019L758.928,359.347z"/>
	<circle fill="none" stroke="#6F7985" stroke-width="0.9275" stroke-miterlimit="10" cx="762.631" cy="357.521" r="8"/>
</g>
<path fill="#6F7985" d="M15.2,6.353h-2.678c-0.439,0-0.796,0.362-0.796,0.807v0.847H8.271V6.062H9.71
	c0.588-0.031,1.062-0.476,1.062-1.089V1.134C10.771,0.51,10.268,0,9.652,0H5.887C5.27,0,4.769,0.51,4.769,1.134v3.839
	c0,0.55,0.387,0.983,0.894,1.089h1.605v1.944H4.273V7.16c0-0.445-0.359-0.807-0.795-0.807H0.8c-0.439,0-0.795,0.362-0.795,0.807
	v2.73c0,0.392,0.275,0.699,0.636,0.774h0.997v1.761H1.029c-0.364,0-0.66,0.301-0.66,0.67v2.263c0,0.325,0.229,0.58,0.527,0.643
	h2.388c0.346-0.019,0.625-0.28,0.625-0.643v-2.263c0-0.369-0.296-0.67-0.66-0.67H2.641v-1.761h0.878
	c0.417-0.022,0.754-0.339,0.754-0.774V9.01h2.995v3.415H6.659c-0.364,0-0.66,0.301-0.66,0.67v2.263c0,0.325,0.229,0.58,0.528,0.643
	h2.387c0.347-0.019,0.627-0.28,0.627-0.643v-2.263c0-0.369-0.298-0.67-0.661-0.67H8.271V9.01h3.455v0.88
	c0,0.392,0.275,0.699,0.636,0.774h0.997v1.761h-0.608c-0.364,0-0.66,0.301-0.66,0.67v2.263c0,0.325,0.229,0.58,0.527,0.643h2.388
	c0.346-0.019,0.625-0.28,0.625-0.643v-2.263c0-0.369-0.297-0.67-0.66-0.67h-0.608v-1.761h0.879c0.417-0.022,0.754-0.339,0.754-0.774
	V7.16C15.995,6.715,15.637,6.353,15.2,6.353z"/>
</svg>
