<?xml version="1.0" encoding="utf-8"?>
<!-- Generator: Adobe Illustrator 16.0.0, SVG Export Plug-In . SVG Version: 6.00 Build 0)  -->
<!DOCTYPE svg PUBLIC "-//W3C//DTD SVG 1.1//EN" "http://www.w3.org/Graphics/SVG/1.1/DTD/svg11.dtd">
<svg version="1.1" id="图层_1" xmlns="http://www.w3.org/2000/svg" xmlns:xlink="http://www.w3.org/1999/xlink" x="0px" y="0px"
	 width="14px" height="16px" viewBox="0 0 14 16" enable-background="new 0 0 14 16" xml:space="preserve">
<g>
	<path fill="#6F7985" d="M0.015,0v14.949h6.541c-0.481-0.629-0.779-1.406-0.779-2.258c0-1.794,1.271-3.294,2.959-3.653V0H0.015z
		 M4.375,13.277c-0.529,0-0.96-0.43-0.96-0.96s0.431-0.961,0.96-0.961c0.532,0,0.96,0.431,0.96,0.961S4.907,13.277,4.375,13.277z
		 M5.703,9.173H3.076l-1.925-6.54h2.208l1.044,5.054h0.023l1.055-5.054h2.21L5.703,9.173z"/>
	<g>
		<path fill="#6F7985" d="M9.032,13.998L8.94,14C8.97,14.002,8.999,14.002,9.032,13.998z"/>
		<polygon fill="#6F7985" stroke="#6F7985" stroke-width="0.1791" stroke-miterlimit="10" points="8.864,13.78 8.892,16 
			10.542,14.871 		"/>
		<path fill="#6F7985" stroke="#6F7985" stroke-width="0.1791" stroke-miterlimit="10" d="M11.472,13.582l-0.43-0.42
			c0.172-0.664-0.006-1.397-0.53-1.91c-0.782-0.761-2.032-0.747-2.793,0.032c-0.765,0.78-0.751,2.032,0.03,2.796
			c0.4,0.388,0.918,0.574,1.434,0.561l0.49,0.479c-0.798,0.178-1.67-0.039-2.3-0.655c-0.993-0.972-1.013-2.562-0.041-3.557
			c0.971-0.992,2.561-1.011,3.556-0.041C11.632,11.596,11.828,12.672,11.472,13.582z"/>
	</g>
</g>
</svg>
