<?xml version="1.0" encoding="utf-8"?>
<!-- Generator: Adobe Illustrator 16.0.0, SVG Export Plug-In . SVG Version: 6.00 Build 0)  -->
<!DOCTYPE svg PUBLIC "-//W3C//DTD SVG 1.1//EN" "http://www.w3.org/Graphics/SVG/1.1/DTD/svg11.dtd">
<svg version="1.1" id="图层_1" xmlns="http://www.w3.org/2000/svg" xmlns:xlink="http://www.w3.org/1999/xlink" x="0px" y="0px"
	 width="16px" height="16px" viewBox="0 0 16 16" enable-background="new 0 0 16 16" xml:space="preserve">
<g>
	<g>
		<path fill="#6F7985" d="M9.084,12.084l1.397-1.254c0.711-0.637,1.578-0.973,2.507-0.973c0.653,0,1.231,0.162,1.659,0.334
			l1.146-1.148l0.018,0.07c0.416-1.408,0.087-2.989-1.025-4.102c-0.996-0.995-2.372-1.374-3.66-1.143
			c-0.164-0.257-0.352-0.504-0.575-0.728c-1.648-1.647-4.319-1.647-5.968,0C4.087,3.64,3.747,4.231,3.552,4.858
			C1.585,4.894,0,6.492,0,8.469c0,1.959,1.563,3.547,3.511,3.605v0.01H9.084z M11.015,6.137c0.307,0.742,0.339,1.562,0.086,2.331
			c-0.156,0.479-0.412,0.905-0.756,1.269c-0.817,0.857-2.04,1.229-3.191,0.963l-0.2-0.045L6.784,11.17L5.667,9.832L7.36,9.414
			L7.19,9.926l0.256,0.047C8.313,10.127,9.19,9.84,9.795,9.205c0.265-0.279,0.462-0.607,0.581-0.975
			c0.193-0.59,0.172-1.214-0.058-1.782L11.015,6.137z M9.351,8.307H9.036L8.82,7.674v0.633h-0.39V6.99L7.916,8.307H7.583L6.969,6.72
			h0.427l0.355,0.994L8.122,6.72h0.766l0.316,0.945L9.53,6.72h0.426v1.587H9.569V7.682L9.351,8.307z M7.118,7.174L7.149,7.28
			L6.766,7.371l-0.03-0.094C6.711,7.2,6.677,7.144,6.634,7.11C6.593,7.081,6.538,7.064,6.47,7.064c-0.085,0-0.149,0.02-0.203,0.057
			c-0.053,0.037-0.089,0.086-0.11,0.15c-0.024,0.074-0.038,0.152-0.038,0.23c0,0.103,0.016,0.192,0.044,0.268
			c0.026,0.065,0.063,0.111,0.115,0.143c0.056,0.033,0.114,0.051,0.177,0.051c0.078,0,0.141-0.021,0.191-0.064
			c0.053-0.042,0.088-0.111,0.109-0.203l0.022-0.104l0.394,0.097L7.142,7.791C7.099,7.964,7.017,8.097,6.899,8.189
			C6.782,8.283,6.638,8.33,6.47,8.33S6.161,8.295,6.052,8.223C5.94,8.15,5.856,8.047,5.799,7.912
			c-0.052-0.126-0.081-0.266-0.081-0.41c0-0.159,0.031-0.3,0.094-0.421C5.876,6.956,5.97,6.858,6.089,6.793
			c0.118-0.064,0.246-0.096,0.385-0.096c0.16,0,0.299,0.043,0.41,0.126C6.996,6.907,7.075,7.025,7.118,7.174z M4.702,6.368
			C4.858,5.89,5.112,5.462,5.458,5.1c0.817-0.857,2.04-1.227,3.191-0.963l0.2,0.045l0.169-0.516l1.117,1.338L8.444,5.422l0.166-0.51
			L8.356,4.867C7.489,4.712,6.612,4.998,6.008,5.633c-0.265,0.278-0.46,0.605-0.581,0.974C5.233,7.195,5.255,7.819,5.484,8.389
			L4.788,8.697C4.481,7.956,4.449,7.136,4.702,6.368z"/>
		<path fill="#6F7985" d="M12.913,13.34L16,14.094l-0.755-3.086l-0.399,0.398c0,0-2.01-1.342-3.696,0.17
			c0,0,2.008,0.186,2.342,1.186L12.913,13.34z"/>
	</g>
</g>
</svg>
