<?xml version="1.0" encoding="utf-8"?>
<!-- Generator: Adobe Illustrator 16.0.0, SVG Export Plug-In . SVG Version: 6.00 Build 0)  -->
<!DOCTYPE svg PUBLIC "-//W3C//DTD SVG 1.1//EN" "http://www.w3.org/Graphics/SVG/1.1/DTD/svg11.dtd">
<svg version="1.1" id="图层_1" xmlns="http://www.w3.org/2000/svg" xmlns:xlink="http://www.w3.org/1999/xlink" x="0px" y="0px"
	 width="16px" height="16px" viewBox="0 0 16 16" enable-background="new 0 0 16 16" xml:space="preserve">
<g>
	<rect x="1.892" y="10.371" fill="#6F7985" width="3" height="1"/>
	<rect x="1.892" y="12.371" fill="#6F7985" width="3" height="1"/>
	<path fill="#6F7985" d="M9.658,12.396l-1.49-2.378l-0.901,0.587l2.161,3.307l1.682-1.442l0.148,0.089
		c0.166-0.298,0.377-0.564,0.629-0.789l-0.883-0.526L9.658,12.396z"/>
	<path fill="#6F7985" d="M13.873,11.999c-1.104,0-2,0.896-2,2c0,1.105,0.896,2.001,2,2.001c1.105,0,2-0.896,2-2.001
		C15.873,12.895,14.979,11.999,13.873,11.999z M14.244,15.27h-0.762l-0.557-2.541h0.639l0.303,1.964h0.008l0.305-1.964h0.643
		L14.244,15.27z"/>
	<path fill="#6F7985" d="M9.127,1v1h2v8.152l1,0.595V1H9.127z M1.126,15V2h2V1h-3v15h11.528c-0.262-0.289-0.463-0.626-0.596-1H1.126
		z M2.126,4h8V3h-2V0h-4v3h-2V4z M5.626,1h1v1h-1V1z"/>
	<path fill="#6F7985" d="M5.565,4.608C4.553,4.611,3.542,4.607,2.529,4.614c-0.134,0.001-0.275,0.03-0.401,0.079
		C1.811,4.813,1.661,5.052,1.661,5.39c0,1.033,0.001,2.066,0,3.1c0,0.188,0.063,0.346,0.196,0.476
		c0.184,0.18,0.414,0.267,0.661,0.269c1.02,0.009,2.038,0.004,3.057,0.004h0.113c0.003-0.033,0.005-0.051,0.005-0.068
		c0-1.479-0.001-2.957,0.002-4.436C5.695,4.632,5.658,4.608,5.565,4.608z M5.335,8.705H4.507v-3.5h0.828V8.705z M10.404,4.873
		C10.215,4.687,9.98,4.611,9.719,4.61H6.716c-0.153,0-0.153,0-0.153,0.157c0,0.194-0.004,0.39,0.002,0.583
		c0.003,0.096-0.021,0.134-0.122,0.127C6.302,5.469,6.162,5.476,6.019,5.476v2.875h0.398c0.146,0,0.146,0,0.146,0.145
		c0.001,0.243,0,0.486,0,0.742h0.146c0.275,0,0.551-0.001,0.826-0.001l0.94-0.612l0.383,0.611c0.257-0.001,0.513,0,0.769-0.001
		c0.139-0.001,0.281-0.024,0.416-0.062c0.33-0.092,0.547-0.349,0.547-0.648c0.004-1.072,0.002-2.144,0.002-3.215
		C10.592,5.138,10.525,4.993,10.404,4.873z M9.916,7.687c-0.27,0.662-0.875,0.99-1.593,0.915C7.594,8.525,7.111,7.987,6.999,7.276
		C6.98,7.158,6.973,7.038,6.965,6.969c0.011-0.541,0.14-0.984,0.497-1.341c0.657-0.657,2.133-0.59,2.514,0.689
		C10.113,6.779,10.098,7.239,9.916,7.687z M8.55,5.882C8.215,5.87,7.949,5.998,7.792,6.301c-0.202,0.393-0.204,0.8-0.021,1.197
		c0.143,0.311,0.403,0.46,0.742,0.46c0.336-0.001,0.587-0.15,0.74-0.453c0.094-0.184,0.127-0.383,0.129-0.578
		C9.381,6.719,9.35,6.528,9.264,6.35C9.119,6.052,8.88,5.894,8.55,5.882z"/>
</g>
</svg>
