<?xml version="1.0" encoding="utf-8"?>
<!-- Generator: Adobe Illustrator 16.0.0, SVG Export Plug-In . SVG Version: 6.00 Build 0)  -->
<!DOCTYPE svg PUBLIC "-//W3C//DTD SVG 1.1//EN" "http://www.w3.org/Graphics/SVG/1.1/DTD/svg11.dtd">
<svg version="1.1" id="图层_1" xmlns="http://www.w3.org/2000/svg" xmlns:xlink="http://www.w3.org/1999/xlink" x="0px" y="0px"
	 width="16px" height="16px" viewBox="0 0 16 16" enable-background="new 0 0 16 16" xml:space="preserve">
<g>
	<path fill="#6F7985" d="M9,12.897c0-1.122,0.467-2.134,1.213-2.861H0.727V1.433c0-0.329,0.277-0.607,0.605-0.607H14.67
		c0.333,0,0.603,0.278,0.603,0.607V9.61C15.545,9.8,15.783,10.029,16,10.278V1.433c0-0.741-0.595-1.33-1.33-1.33H1.332
		C0.596,0.103,0,0.691,0,1.433v10.314c0,0.741,0.596,1.341,1.332,1.341h4.795v1.732h-1.08v1.077h5.336
		C9.543,15.164,9,14.098,9,12.897z"/>
	<path fill="#6F7985" d="M13,9.896c-1.657,0-3,1.347-3,3.002c0,1.656,1.343,3,3,3c1.658,0,3-1.344,3-3
		C16,11.242,14.658,9.896,13,9.896z M13.562,14.822h-1.151l-0.847-3.849h0.971l0.459,2.977h0.01l0.463-2.977h0.969L13.562,14.822z"
		/>
	<g>
		<g>
			<path fill="#6F7985" d="M2.979,6.335l0.713-0.081c0.042,0.278,0.129,0.482,0.26,0.612c0.131,0.131,0.309,0.196,0.53,0.196
				c0.235,0,0.413-0.059,0.532-0.175c0.12-0.115,0.18-0.251,0.18-0.406c0-0.1-0.025-0.185-0.075-0.255
				C5.068,6.157,4.98,6.096,4.855,6.045C4.77,6.01,4.574,5.948,4.27,5.86C3.877,5.747,3.602,5.608,3.443,5.443
				C3.221,5.212,3.109,4.929,3.109,4.596c0-0.215,0.053-0.416,0.157-0.603s0.255-0.329,0.452-0.427S4.154,3.42,4.432,3.42
				c0.455,0,0.798,0.116,1.027,0.348C5.689,4,5.81,4.309,5.821,4.696L5.09,4.733C5.059,4.517,4.991,4.361,4.889,4.267
				C4.785,4.172,4.631,4.124,4.425,4.124c-0.212,0-0.379,0.051-0.499,0.152C3.848,4.342,3.809,4.429,3.809,4.538
				c0,0.1,0.037,0.185,0.109,0.256C4.01,4.884,4.234,4.978,4.59,5.075c0.356,0.099,0.619,0.199,0.79,0.304s0.304,0.247,0.401,0.429
				c0.096,0.181,0.145,0.404,0.145,0.671c0,0.241-0.059,0.468-0.174,0.679s-0.278,0.367-0.489,0.47S4.789,7.781,4.475,7.781
				c-0.459,0-0.811-0.124-1.056-0.37S3.026,6.807,2.979,6.335z"/>
			<path fill="#6F7985" d="M6.355,6.335l0.712-0.081c0.042,0.278,0.13,0.482,0.261,0.612c0.131,0.131,0.308,0.196,0.529,0.196
				c0.236,0,0.414-0.059,0.533-0.175C8.51,6.772,8.57,6.637,8.57,6.481c0-0.1-0.025-0.185-0.076-0.255
				c-0.05-0.069-0.138-0.131-0.263-0.182C8.146,6.01,7.95,5.948,7.646,5.86C7.254,5.747,6.979,5.608,6.82,5.443
				C6.598,5.212,6.486,4.929,6.486,4.596c0-0.215,0.053-0.416,0.156-0.603c0.105-0.187,0.256-0.329,0.453-0.427
				S7.53,3.42,7.809,3.42c0.455,0,0.797,0.116,1.027,0.348C9.065,4,9.186,4.309,9.197,4.696l-0.73,0.037
				c-0.031-0.217-0.1-0.372-0.202-0.467S8.008,4.124,7.801,4.124c-0.212,0-0.379,0.051-0.499,0.152
				C7.225,4.342,7.186,4.429,7.186,4.538c0,0.1,0.037,0.185,0.109,0.256c0.092,0.09,0.316,0.184,0.672,0.281
				c0.355,0.099,0.619,0.199,0.789,0.304c0.172,0.104,0.305,0.247,0.401,0.429c0.097,0.181,0.145,0.404,0.145,0.671
				c0,0.241-0.058,0.468-0.173,0.679s-0.279,0.367-0.49,0.47S8.166,7.781,7.851,7.781c-0.458,0-0.81-0.124-1.056-0.37
				C6.55,7.165,6.402,6.807,6.355,6.335z"/>
			<path fill="#6F7985" d="M9.92,7.706V3.491h0.731V5.15h1.434V3.491h0.731v4.215h-0.731V5.863h-1.434v1.843H9.92z"/>
		</g>
	</g>
</g>
</svg>
