<?xml version="1.0" encoding="utf-8"?>
<!-- Generator: Adobe Illustrator 19.2.1, SVG Export Plug-In . SVG Version: 6.00 Build 0)  -->
<svg version="1.1" id="图层_1" xmlns="http://www.w3.org/2000/svg" xmlns:xlink="http://www.w3.org/1999/xlink" x="0px" y="0px"
	 width="16px" height="16px" viewBox="0 0 16 16" style="enable-background:new 0 0 16 16;" xml:space="preserve">
<path fill="#6F7985" d="M14.8,6c-1-1-2.4-1.4-3.7-1.1c-0.2-0.3-0.4-0.5-0.6-0.7c-1.6-1.6-4.3-1.6-6,0c-0.5,0.5-0.8,1.1-1,1.7C1.6,5.9,0,7.5,0,9.5
	c0,2,1.6,3.5,3.5,3.6v0H12v0c1,0,2-0.4,2.8-1.2C16.4,10.3,16.4,7.6,14.8,6z M9.1,11.7H6.7L5,5.7h2l1,4.6h0l1-4.6h2L9.1,11.7z"/>
</svg>
