<?xml version="1.0" encoding="utf-8"?>
<!-- Generator: Adobe Illustrator 16.0.0, SVG Export Plug-In . SVG Version: 6.00 Build 0)  -->
<!DOCTYPE svg PUBLIC "-//W3C//DTD SVG 1.1//EN" "http://www.w3.org/Graphics/SVG/1.1/DTD/svg11.dtd">
<svg version="1.1" id="图层_1" xmlns="http://www.w3.org/2000/svg" xmlns:xlink="http://www.w3.org/1999/xlink" x="0px" y="0px"
	 width="16px" height="16px" viewBox="0 0 16 16" enable-background="new 0 0 16 16" xml:space="preserve">
<path fill="#A9ABAE" d="M8,0C3.582,0,0,3.582,0,8c0,4.419,3.582,8,8,8s8-3.581,8-8C16,3.582,12.418,0,8,0z M7.606,13.654
	c-0.732,0-1.312-0.578-1.312-1.311s0.579-1.311,1.312-1.311c0.731,0,1.312,0.578,1.312,1.311S8.338,13.654,7.606,13.654z
	 M9.538,7.712L8.683,8.455C8.037,9.02,8.15,9.298,8.15,9.643H7.191V9.294c0-1.69,1.611-1.98,1.611-4.476
	c0-0.958-0.314-1.395-1.109-1.395c-0.734,0-1.062,0.358-0.957,1.223c0.066,0.543-0.483,0.759-0.841,0.759
	c-0.406,0-0.75-0.402-0.75-0.952c0-0.926,0.975-1.899,2.669-1.899c1.648,0,3.088,0.744,3.088,2.539
	C10.902,6.204,10.498,6.874,9.538,7.712z"/>
</svg>
