<?xml version="1.0" encoding="utf-8"?>
<!-- Generator: Adobe Illustrator 16.0.0, SVG Export Plug-In . SVG Version: 6.00 Build 0)  -->
<!DOCTYPE svg PUBLIC "-//W3C//DTD SVG 1.1//EN" "http://www.w3.org/Graphics/SVG/1.1/DTD/svg11.dtd">
<svg version="1.1" id="图层_1" xmlns="http://www.w3.org/2000/svg" xmlns:xlink="http://www.w3.org/1999/xlink" x="0px" y="0px"
	 width="16px" height="16px" viewBox="0 0 16 16" enable-background="new 0 0 16 16" xml:space="preserve">
<g>
	<path fill="#6686B9" d="M11.281,6.866h-0.887l0.635-0.633c0.176-0.175,0.176-0.455,0-0.629l-0.717-0.726
		c-0.088-0.082-0.201-0.122-0.316-0.122s-0.23,0.04-0.316,0.122L9.049,5.513V4.638c0-0.251-0.201-0.449-0.446-0.449H7.265
		c-0.25,0-0.448,0.198-0.448,0.449v0.887L6.184,4.894C6.098,4.804,5.982,4.76,5.868,4.76c-0.111,0-0.226,0.044-0.313,0.134
		L4.832,5.609C4.75,5.693,4.704,5.811,4.704,5.93c0,0.114,0.046,0.229,0.128,0.313l0.627,0.623H4.583c-0.246,0-0.45,0.199-0.45,0.45
		v1.337c0,0.243,0.204,0.447,0.45,0.447h0.877L4.829,9.731c-0.179,0.174-0.179,0.455,0,0.631l0.717,0.716
		c0.087,0.089,0.201,0.132,0.317,0.132c0.114,0,0.229-0.043,0.315-0.132l0.639-0.636v0.889c0,0.249,0.199,0.447,0.448,0.447h1.338
		c0.245,0,0.446-0.198,0.446-0.447v-0.889l0.635,0.641C9.77,11.167,9.881,11.212,10,11.212s0.234-0.045,0.316-0.129l0.721-0.721
		c0.084-0.079,0.131-0.196,0.131-0.312c0-0.119-0.047-0.234-0.131-0.316l-0.635-0.633h0.879c0.248,0,0.447-0.204,0.447-0.447V7.316
		C11.729,7.065,11.529,6.866,11.281,6.866z M7.931,9.873c-1.045,0-1.89-0.843-1.89-1.889s0.845-1.894,1.89-1.894
		c1.046,0,1.89,0.848,1.89,1.894S8.977,9.873,7.931,9.873z"/>
	<path fill="#6686B9" d="M14.389,4.267l-0.234-0.393c-1.342-2.264-3.814-3.67-6.454-3.67c-1.114,0-2.194,0.244-3.209,0.727
		C2.864,1.705,1.59,3.016,0.864,4.653l1.571,0.643C3,4.054,3.973,3.06,5.22,2.465C6,2.095,6.831,1.907,7.687,1.907
		c1.952,0,3.762,0.976,4.842,2.611l0.318,0.479l-1.084,0.516l3.271,2.09l0.445-3.856L14.389,4.267z M10.172,12.956
		c-0.771,0.362-1.59,0.547-2.435,0.547c-1.949,0-3.759-0.977-4.84-2.613L2.58,10.41l1.078-0.513l-3.272-2.09l-0.445,3.857
		l1.094-0.52l0.232,0.393c1.343,2.263,3.815,3.669,6.454,3.67c0.001,0,0.001,0,0.001,0c0.678,0,1.341-0.102,1.986-0.281
		c0.006-0.393,0.158-0.771,0.457-1.08l0.047-0.049l0.441-0.348c-0.102-0.072-0.199-0.154-0.291-0.246
		C10.287,13.13,10.234,13.04,10.172,12.956z"/>
	<path fill="#6686B9" d="M15.646,11.513l0.414-0.826l-0.207-0.206l-0.826,0.413v0.205l-1.551,1.553l-0.553-0.43
		c0.234-0.441,0.172-1-0.199-1.372c-0.307-0.306-0.736-0.401-1.125-0.3l0.709,0.713v0.824h-0.824l-0.709-0.711
		c-0.104,0.39-0.008,0.82,0.295,1.123c0.373,0.375,0.934,0.438,1.375,0.2l0.297,0.378l-1.859,1.465
		c-0.338,0.35-0.127,0.73,0.018,0.896l0.186,0.186c0.16,0.142,0.49,0.206,0.896,0.049l1.395-1.791l1.365,1.734
		c0.35,0.337,0.729,0.126,0.893-0.019l0.188-0.184c0.141-0.162,0.354-0.493,0.049-0.897l-1.932-1.503l1.502-1.5H15.646z
		 M15.039,14.817c0.096-0.096,0.25-0.096,0.346,0c0.094,0.094,0.094,0.248,0,0.346c-0.096,0.094-0.25,0.094-0.346,0
		C14.945,15.065,14.945,14.911,15.039,14.817z"/>
</g>
</svg>
