<?xml version="1.0" encoding="utf-8"?>
<!-- Generator: Adobe Illustrator 16.0.0, SVG Export Plug-In . SVG Version: 6.00 Build 0)  -->
<!DOCTYPE svg PUBLIC "-//W3C//DTD SVG 1.1//EN" "http://www.w3.org/Graphics/SVG/1.1/DTD/svg11.dtd">
<svg version="1.1" id="图层_1" xmlns="http://www.w3.org/2000/svg" xmlns:xlink="http://www.w3.org/1999/xlink" x="0px" y="0px"
	 width="16px" height="16px" viewBox="0 0 16 16" enable-background="new 0 0 16 16" xml:space="preserve">
<path fill="#14203F" d="M8,0C3.582,0,0,3.583,0,8c0,4.418,3.582,8,8,8c4.42,0,8-3.582,8-8C16,3.583,12.42,0,8,0z M3.967,13.938
	c-0.742-0.506-1.385-1.151-1.893-1.891l2.578-1.758c0.288,0.418,0.653,0.787,1.072,1.068L3.967,13.938z M8,11.151
	c-1.738,0-3.149-1.41-3.149-3.151c0-1.74,1.411-3.151,3.149-3.151c1.74,0,3.151,1.411,3.151,3.151
	C11.151,9.741,9.74,11.151,8,11.151z M11.355,5.724C11.07,5.302,10.71,4.94,10.292,4.655l1.757-2.58
	c0.74,0.505,1.382,1.151,1.885,1.89L11.355,5.724z"/>
</svg>
