<?xml version="1.0" encoding="utf-8"?>
<!-- Generator: Adobe Illustrator 19.2.1, SVG Export Plug-In . SVG Version: 6.00 Build 0)  -->
<svg version="1.1" id="图层_1" xmlns="http://www.w3.org/2000/svg" xmlns:xlink="http://www.w3.org/1999/xlink" x="0px" y="0px"
	 viewBox="0 0 16 16" style="enable-background:new 0 0 16 16;" xml:space="preserve">
<g>
	<rect x="1.6" y="4.7" fill="#14203F" width="2.1" height="5.4"/>
	<rect x="7" y="4.7" fill="#14203F" width="2.1" height="5.4"/>
	<rect x="12.3" y="4.7" fill="#14203F" width="2.1" height="5.4"/>
	<path fill="#14203F" d="M15.8,3.1H0.2C0.1,3.1,0,3.2,0,3.3v6.7h0.4c0,0,0.1,0,0.1,0.1v0.3c0,0,0,0.1-0.1,0.1H0v0.1h0.4c0,0,0.1,0,0.1,0.1v0.4
		c0,0,0,0.1-0.1,0.1H0v1.4c0,0.1,0.1,0.2,0.2,0.2h0.2v-1h0.1h0.2h0.1v1H1v-1h0.1h0.2h0.1v1h0.2v-1h0.1h0.2h0.1v1h0.2v-1h0.1h0.2h0.1
		v1h0.2v-1h0.1h0.2H3v1h0.2v-1h0.1h0.2h0.1v1h0.2v-1h0.1H4h0.1v1h0.2v-1h0.1h0.2h0.1v1h0.2v-1h0.1h0.2h0.1v1h0.2v-1h0.1h0.2h0.1v1
		h0.2v-1H6h0.2h0.1v1h0.2v-1h0.1h0.2h0.1v1H7v-1h0.1h0.2h0.1v1h0.4v-0.7c0-0.1,0.1-0.3,0.3-0.3c0.1,0,0.3,0.1,0.3,0.3v0.7h0.4v-1
		h0.1h0.2H9v1h0.2v-1h0.1h0.2h0.1v1h0.2v-1h0.1H10h0.1v1h0.2v-1h0.1h0.2h0.1v1h0.2v-1h0.1h0.2h0.1v1h0.2v-1h0.1h0.2h0.1v1h0.2v-1H12
		h0.2h0.1v1h0.2v-1h0.1h0.2h0.1v1H13v-1h0.1h0.2h0.1v1h0.2v-1h0.1h0.2h0.1v1h0.2v-1h0.1h0.2h0.1v1h0.2v-1h0.1h0.2H15v1h0.2v-1h0.1
		h0.2h0.1v1h0.2c0.1,0,0.2-0.1,0.2-0.2V3.3C16,3.2,15.9,3.1,15.8,3.1z M4.1,10.6c0,0.1-0.1,0.2-0.2,0.2H1.3c-0.1,0-0.2-0.1-0.2-0.2
		V4.4c0-0.1,0.1-0.2,0.2-0.2h2.5c0.1,0,0.2,0.1,0.2,0.2V10.6z M9.5,10.6c0,0.1-0.1,0.2-0.2,0.2H6.7c-0.1,0-0.2-0.1-0.2-0.2V4.4
		c0-0.1,0.1-0.2,0.2-0.2h2.5c0.1,0,0.2,0.1,0.2,0.2V10.6z M14.9,10.6c0,0.1-0.1,0.2-0.2,0.2h-2.5c-0.1,0-0.2-0.1-0.2-0.2V4.4
		c0-0.1,0.1-0.2,0.2-0.2h2.5c0.1,0,0.2,0.1,0.2,0.2V10.6z"/>
</g>
</svg>
