<?xml version="1.0" encoding="utf-8"?>
<!-- Generator: Adobe Illustrator 16.0.0, SVG Export Plug-In . SVG Version: 6.00 Build 0)  -->
<!DOCTYPE svg PUBLIC "-//W3C//DTD SVG 1.1//EN" "http://www.w3.org/Graphics/SVG/1.1/DTD/svg11.dtd">
<svg version="1.1" id="图层_1" xmlns="http://www.w3.org/2000/svg" xmlns:xlink="http://www.w3.org/1999/xlink" x="0px" y="0px"
	 width="16px" height="16px" viewBox="0 0 16 16" enable-background="new 0 0 16 16" xml:space="preserve">
<g>
	<path fill="#6686B9" d="M13.107,10.41C12.88,9.818,10.753,8.744,10.18,8.52C10.143,8.5,9.877,8.403,9.877,8.361V7.792
		c0.489-0.502,1.214-1.475,1.348-2.648c0.202-1.742-0.731-3.151-1.99-3.163H9.177c-0.744,0.007-1.288,0.376-1.62,0.968
		c0.042,0.043,0.09,0.074,0.131,0.121c0.899,1.017,1.311,2.498,1.128,4.063C8.671,8.41,8.093,9.477,7.564,10.211
		c0.622,0.299,1.534,0.783,2.279,1.346h3.448C13.29,11.557,13.316,10.943,13.107,10.41z"/>
	<path fill="#6686B9" d="M15.855,7.945c-0.185-0.469-1.863-1.318-2.317-1.497c-0.03-0.016-0.24-0.092-0.24-0.125v-0.45
		c0.388-0.396,0.959-1.166,1.066-2.098c0.159-1.377-0.585-2.495-1.574-2.501h-0.048c-0.499,0.003-0.878,0.223-1.146,0.574
		c0.736,0.884,1.078,2.129,0.926,3.444c-0.105,0.982-0.518,1.82-0.928,2.438c0.555,0.277,1.252,0.671,1.816,1.124h2.588
		C15.999,8.854,16.021,8.368,15.855,7.945z"/>
	<path fill="#6686B9" d="M3.845,11.057c-0.688,0.273-3.312,1.57-3.584,2.287C0.012,13.986,0,14.727,0,14.727h10.014
		c0,0,0.031-0.74-0.219-1.383c-0.273-0.717-2.843-2.014-3.538-2.287c-0.045-0.021-0.365-0.135-0.365-0.188V10.18
		c0.59-0.602,1.465-1.78,1.625-3.199c0.246-2.101-0.89-3.804-2.401-3.816H5.045c-1.767,0.012-2.61,1.729-2.373,3.827
		c0.166,1.416,0.86,2.586,1.449,3.188v0.688C4.121,10.922,3.894,11.035,3.845,11.057z"/>
</g>
</svg>
