<?xml version="1.0" encoding="utf-8"?>
<!-- Generator: Adobe Illustrator 16.0.0, SVG Export Plug-In . SVG Version: 6.00 Build 0)  -->
<!DOCTYPE svg PUBLIC "-//W3C//DTD SVG 1.1//EN" "http://www.w3.org/Graphics/SVG/1.1/DTD/svg11.dtd">
<svg version="1.1" id="图层_1" xmlns="http://www.w3.org/2000/svg" xmlns:xlink="http://www.w3.org/1999/xlink" x="0px" y="0px"
	 width="16px" height="16px" viewBox="0 0 16 16" enable-background="new 0 0 16 16" xml:space="preserve">
<g>
	<path fill="#6686B9" d="M2.386,6.978h6.978v-1H2.386V6.978z M5.363,5h4V4h-4V5z M2.386,8.979h6.353
		C8.934,8.821,9.14,8.685,9.363,8.575V7.979H2.386V8.979z M2.363,12v1h3.184c0-0.019-0.004-0.035-0.004-0.054
		c0-0.331,0.058-0.647,0.156-0.946H2.363z M2.386,10.979H6.27c0.409-0.483,0.96-0.842,1.593-0.999l0-0.001H2.386V10.979z M3.363,1
		L0.484,4L0.363,4.126V15h5.975c-0.262-0.288-0.467-0.626-0.604-1H1.363V5h3V2h6v6.277c0.16-0.023,0.315-0.062,0.48-0.062
		c0.177,0,0.348,0.027,0.52,0.054V1H3.363z"/>
	<path fill="#6686B9" d="M15.637,12.646c0-1.287-1.037-2.332-2.32-2.353c0.167,0.326,0.271,0.692,0.271,1.084
		c0,0.897-0.499,1.669-1.228,2.078c0.44-0.361,0.748-0.874,0.843-1.462c0.022-0.125,0.039-0.249,0.039-0.381
		c0-0.262-0.054-0.512-0.131-0.749c-0.007-0.021-0.012-0.041-0.019-0.062v-0.001c-0.021-0.06-0.041-0.114-0.068-0.17v-0.003
		c-0.04-0.091-0.091-0.18-0.145-0.268c-0.422-0.686-1.172-1.146-2.035-1.146s-1.617,0.46-2.039,1.144
		c1.09,0.051,1.957,0.941,1.957,2.045c0,0.235-0.048,0.459-0.121,0.669c0.002-0.044,0.014-0.085,0.014-0.127
		c0-0.339-0.092-0.656-0.236-0.937c-0.012-0.022-0.023-0.043-0.034-0.064c-0.353-0.627-1.017-1.055-1.784-1.055
		c-1.135,0-2.057,0.919-2.057,2.056c0,1.114,0.889,2.017,1.995,2.048V15h4.83v-0.01C14.626,14.945,15.637,13.918,15.637,12.646z"/>
</g>
</svg>
