<?xml version="1.0" encoding="utf-8"?>
<!-- Generator: Adobe Illustrator 16.0.0, SVG Export Plug-In . SVG Version: 6.00 Build 0)  -->
<!DOCTYPE svg PUBLIC "-//W3C//DTD SVG 1.1//EN" "http://www.w3.org/Graphics/SVG/1.1/DTD/svg11.dtd">
<svg version="1.1" id="图层_1" xmlns="http://www.w3.org/2000/svg" xmlns:xlink="http://www.w3.org/1999/xlink" x="0px" y="0px"
	 width="13px" height="16px" viewBox="0 0 13 16" enable-background="new 0 0 13 16" xml:space="preserve">
<g>
	<path fill="#217BCC" d="M0,0v15.336H6.71c-0.494-0.646-0.799-1.442-0.799-2.316c0-1.84,1.303-3.379,3.036-3.748V0H0z M4.473,13.621
		c-0.543,0-0.985-0.441-0.985-0.985S3.93,11.65,4.473,11.65c0.546,0,0.985,0.441,0.985,0.985S5.019,13.621,4.473,13.621z
		 M5.834,9.41H3.141L1.166,2.7h2.265l1.071,5.186h0.024L5.608,2.7h2.268L5.834,9.41z"/>
	<path fill="#217BCC" d="M9.745,10.02c-1.654,0-3,1.346-3,3s1.346,3,3,3s3-1.346,3-3S11.399,10.02,9.745,10.02z M11.251,14.064
		l-0.461,0.461L9.745,13.48L8.7,14.525l-0.461-0.461l1.045-1.045l-1.045-1.045L8.7,11.514l1.045,1.045l1.045-1.045l0.461,0.461
		l-1.045,1.045L11.251,14.064z"/>
</g>
</svg>
