<?xml version="1.0" encoding="utf-8"?>
<!-- Generator: Adobe Illustrator 16.0.0, SVG Export Plug-In . SVG Version: 6.00 Build 0)  -->
<!DOCTYPE svg PUBLIC "-//W3C//DTD SVG 1.1//EN" "http://www.w3.org/Graphics/SVG/1.1/DTD/svg11.dtd">
<svg version="1.1" id="图层_1" xmlns="http://www.w3.org/2000/svg" xmlns:xlink="http://www.w3.org/1999/xlink" x="0px" y="0px"
	 width="16px" height="16px" viewBox="0 0 16 16" enable-background="new 0 0 16 16" xml:space="preserve">
<g>
	<path fill="#217BCC" d="M14.67,0H7.999H1.331C0.596,0,0,0.597,0,1.347v10.449c0,0.751,0.596,1.358,1.331,1.358h4.795v1.755H5.047
		V16h2.952h2.954v-1.091H9.875v-1.755h4.795c0.735,0,1.33-0.607,1.33-1.358V1.347C16,0.597,15.405,0,14.67,0z M15.272,10.062H7.999
		H0.727V1.347c0-0.333,0.276-0.615,0.604-0.615h6.668h6.671c0.333,0,0.603,0.282,0.603,0.615V10.062z"/>
	<polygon fill="#217BCC" points="8.387,6.009 11.039,3.774 8.371,1.557 8.375,3.007 4.961,3.022 4.969,4.57 8.382,4.557 	"/>
	<polygon fill="#217BCC" points="7.646,5.151 4.959,7.34 7.589,9.603 7.606,8.15 11.023,8.195 11.041,6.648 7.626,6.603 	"/>
</g>
</svg>
