<?xml version="1.0" encoding="utf-8"?>
<!-- Generator: Adobe Illustrator 16.0.0, SVG Export Plug-In . SVG Version: 6.00 Build 0)  -->
<!DOCTYPE svg PUBLIC "-//W3C//DTD SVG 1.1//EN" "http://www.w3.org/Graphics/SVG/1.1/DTD/svg11.dtd">
<svg version="1.1" id="图层_1" xmlns="http://www.w3.org/2000/svg" xmlns:xlink="http://www.w3.org/1999/xlink" x="0px" y="0px"
	 width="16px" height="16px" viewBox="0 0 16 16" enable-background="new 0 0 16 16" xml:space="preserve">
<g>
	<g>
		<g>
			<path fill="#217BCC" d="M2.708,9.849l1.087,2.702L0.896,12.27l0.31-0.415c0,0-1.479-1.648-0.33-3.376
				c0,0,0.432,1.797,1.383,1.968L2.708,9.849z"/>
		</g>
	</g>
	<path fill="#217BCC" d="M4.772,9.892v1.163L9,13.381l1.584-0.871c0.037-0.269,0.145-0.521,0.334-0.718l0.424-0.421
		c0.215-0.218,0.521-0.356,0.84-0.371c0.227-0.202,0.525-0.324,0.852-0.324h0.193V9.892H4.772z M10.232,14.231v-0.366L9,14.543
		l-4.228-2.326v3.489h6.003c-0.123-0.19-0.215-0.4-0.223-0.632C10.354,14.851,10.232,14.555,10.232,14.231z"/>
	<path fill="#217BCC" d="M15.309,13.219h-0.504l0.361-0.359c0.098-0.098,0.098-0.258,0-0.356l-0.408-0.409
		c-0.049-0.047-0.113-0.07-0.178-0.07s-0.129,0.023-0.18,0.07l-0.357,0.359v-0.496c0-0.143-0.113-0.255-0.252-0.255h-0.758
		c-0.143,0-0.254,0.112-0.254,0.255v0.502l-0.357-0.357c-0.049-0.05-0.115-0.076-0.18-0.076c-0.062,0-0.129,0.026-0.178,0.076
		l-0.408,0.405c-0.047,0.048-0.072,0.113-0.072,0.18c0,0.065,0.025,0.132,0.072,0.179l0.355,0.354h-0.498
		c-0.139,0-0.254,0.112-0.254,0.255v0.758c0,0.138,0.115,0.252,0.254,0.252h0.498l-0.357,0.357c-0.102,0.099-0.102,0.258,0,0.357
		l0.404,0.406c0.051,0.05,0.115,0.074,0.18,0.074s0.131-0.024,0.18-0.074l0.361-0.36v0.502c0,0.143,0.111,0.254,0.254,0.254h0.758
		c0.139,0,0.252-0.111,0.252-0.254v-0.502l0.361,0.363c0.047,0.047,0.111,0.072,0.178,0.072c0.068,0,0.133-0.025,0.18-0.072
		l0.408-0.409c0.047-0.045,0.074-0.111,0.074-0.177c0-0.067-0.027-0.132-0.074-0.179l-0.359-0.359h0.498
		c0.141,0,0.252-0.114,0.252-0.252v-0.758C15.561,13.331,15.449,13.219,15.309,13.219z M13.41,14.922
		c-0.592,0-1.07-0.478-1.07-1.068c0-0.594,0.479-1.074,1.07-1.074s1.07,0.48,1.07,1.074C14.48,14.444,14.002,14.922,13.41,14.922z"
		/>
	<path fill="#217BCC" d="M10.072,6.287c-0.543-0.47-0.932-1.719-0.932-3.187c0-1.109-0.714-2.05-1.706-2.396
		C7.368,0.308,7.021,0,6.603,0S5.837,0.308,5.771,0.704C4.778,1.051,4.065,1.991,4.065,3.101c0,1.468-0.388,2.717-0.932,3.187
		C2.83,6.549,2.655,6.93,2.655,7.332c0,0.467,0.378,0.847,0.845,0.847h2.257c0,0.467,0.378,0.845,0.845,0.845
		s0.845-0.378,0.845-0.845h2.259c0.465,0,0.844-0.38,0.844-0.847C10.551,6.93,10.377,6.549,10.072,6.287z M6.603,7.104
		c-0.414,0-0.75-0.335-0.75-0.748s0.336-0.752,0.75-0.752s0.75,0.339,0.75,0.752S7.017,7.104,6.603,7.104z M7.311,3.473l-0.17,1.363
		C7.128,4.938,7.041,5.013,6.938,5.013h-0.67c-0.105,0-0.191-0.075-0.203-0.177L5.897,3.491l-0.044-1.36
		C5.852,2.074,5.871,2.021,5.911,1.981C5.95,1.942,6.002,1.92,6.056,1.92H7.15c0.054,0,0.107,0.022,0.146,0.062
		c0.04,0.04,0.059,0.093,0.057,0.149L7.311,3.473z"/>
</g>
</svg>
