<?xml version="1.0" encoding="utf-8"?>
<!-- Generator: Adobe Illustrator 16.0.0, SVG Export Plug-In . SVG Version: 6.00 Build 0)  -->
<!DOCTYPE svg PUBLIC "-//W3C//DTD SVG 1.1//EN" "http://www.w3.org/Graphics/SVG/1.1/DTD/svg11.dtd">
<svg version="1.1" id="图层_1" xmlns="http://www.w3.org/2000/svg" xmlns:xlink="http://www.w3.org/1999/xlink" x="0px" y="0px"
	 width="16px" height="16px" viewBox="0 0 16 16" enable-background="new 0 0 16 16" xml:space="preserve">
<g>
	<path fill="#6686B9" d="M11.022,12.303l2.741,3.481c0.418,0.402,0.872,0.152,1.069-0.022l0.223-0.221
		c0.167-0.192,0.422-0.586,0.057-1.069l-3.52-2.74c0.281-0.526,0.206-1.193-0.238-1.639c-0.365-0.363-0.878-0.479-1.343-0.356
		l0.849,0.852v0.982H9.875l-0.849-0.849c-0.123,0.466-0.007,0.979,0.355,1.342C9.827,12.51,10.495,12.586,11.022,12.303z
		 M14.12,15.243c-0.113-0.115-0.113-0.3,0-0.412c0.113-0.114,0.298-0.114,0.412,0c0.111,0.112,0.111,0.297,0,0.412
		C14.418,15.355,14.233,15.355,14.12,15.243z"/>
	<path fill="#6686B9" d="M8.034,10.46l0.262-0.991l0.465-0.463l0.987-0.262c0.204-0.055,0.416-0.081,0.628-0.081
		c0.221,0,0.436,0.04,0.643,0.097c-0.723-0.711-1.233-2.406-1.233-4.398c0-1.561-1.004-2.884-2.399-3.372
		C7.292,0.433,6.804,0,6.216,0S5.14,0.433,5.046,0.989c-1.398,0.488-2.4,1.812-2.4,3.372c0,2.064-0.546,3.821-1.311,4.481
		c-0.428,0.368-0.672,0.904-0.672,1.471c0,0.656,0.531,1.19,1.188,1.19h3.175c0,0.657,0.532,1.188,1.189,1.188
		c0.656,0,1.189-0.531,1.189-1.188h0.603C7.947,11.161,7.942,10.808,8.034,10.46z M6.216,9.992c-0.582,0-1.055-0.472-1.055-1.051
		c0-0.582,0.473-1.059,1.055-1.059S7.27,8.359,7.27,8.941C7.27,9.521,6.798,9.992,6.216,9.992z M7.212,4.884l-0.24,1.918
		C6.955,6.945,6.831,7.049,6.687,7.049H5.744c-0.147,0-0.269-0.104-0.285-0.247L5.223,4.91L5.161,2.996
		c-0.002-0.079,0.025-0.153,0.08-0.21c0.056-0.054,0.13-0.087,0.205-0.087h1.539c0.075,0,0.15,0.033,0.205,0.087
		c0.055,0.057,0.082,0.131,0.079,0.21L7.212,4.884z"/>
	<path fill="#6686B9" d="M11.88,12.358l0.305-0.046l1.921-1.923v-0.245l0.987-0.492L15.338,9.9l-0.493,0.985H14.6l-1.946,1.944
		l-0.037,0.262l-2.146,2.76c-0.486,0.188-0.879,0.111-1.071-0.058l-0.22-0.223c-0.174-0.197-0.426-0.652-0.022-1.068L11.88,12.358z"
		/>
</g>
</svg>
