<?xml version="1.0" encoding="utf-8"?>
<!-- Generator: Adobe Illustrator 16.0.0, SVG Export Plug-In . SVG Version: 6.00 Build 0)  -->
<!DOCTYPE svg PUBLIC "-//W3C//DTD SVG 1.1//EN" "http://www.w3.org/Graphics/SVG/1.1/DTD/svg11.dtd">
<svg version="1.1" id="图层_1" xmlns="http://www.w3.org/2000/svg" xmlns:xlink="http://www.w3.org/1999/xlink" x="0px" y="0px"
	 width="16px" height="16px" viewBox="0 0 16 16" enable-background="new 0 0 16 16" xml:space="preserve">
<path fill="#217BCC" d="M6.848,14.858c-1.746,0-3.41-0.661-4.685-1.861c-1.338-1.258-2.104-2.956-2.158-4.784
	C0.001,8.137,0,8.062,0,7.994c0-1.748,0.66-3.414,1.86-4.69c1.256-1.332,2.955-2.099,4.784-2.159l0.219-0.003
	c2.059,0,3.989,0.915,5.297,2.512c0.17,0.204,0.248,0.463,0.223,0.728c-0.025,0.264-0.154,0.503-0.359,0.67
	c-0.178,0.147-0.395,0.225-0.627,0.225c-0.301,0-0.582-0.132-0.771-0.363c-0.929-1.131-2.297-1.78-3.752-1.78L6.707,3.135
	c-1.3,0.038-2.508,0.582-3.399,1.533C2.419,5.615,1.952,6.853,1.992,8.153c0.038,1.296,0.582,2.504,1.532,3.397
	c0.908,0.853,2.093,1.323,3.339,1.323l0.147-0.004c1.42-0.047,2.743-0.705,3.634-1.807c0.189-0.234,0.473-0.37,0.775-0.37
	c0.229,0,0.443,0.076,0.622,0.222c0.427,0.345,0.493,0.973,0.149,1.397c-1.258,1.552-3.123,2.478-5.118,2.542L6.848,14.858z
	 M13.16,8.962l-0.229,0.014L8.385,8.994C7.837,8.994,7.391,8.548,7.391,8s0.446-0.994,0.994-0.994h4.46l0.261,0.056l0.055-0.247
	V5.163L16,8.001l-2.84,2.84V8.962z"/>
</svg>
