<?xml version="1.0" encoding="utf-8"?>
<!-- Generator: Adobe Illustrator 16.0.0, SVG Export Plug-In . SVG Version: 6.00 Build 0)  -->
<!DOCTYPE svg PUBLIC "-//W3C//DTD SVG 1.1//EN" "http://www.w3.org/Graphics/SVG/1.1/DTD/svg11.dtd">
<svg version="1.1" id="图层_1" xmlns="http://www.w3.org/2000/svg" xmlns:xlink="http://www.w3.org/1999/xlink" x="0px" y="0px"
	 width="16px" height="16px" viewBox="0 0 16 16" enable-background="new 0 0 16 16" xml:space="preserve">
<g>
	<path fill="#6686B9" d="M6.711,11.678c0-0.493,0.214-0.937,0.555-1.241c-0.002-0.034-0.002-0.067-0.002-0.101
		c0-0.436,0.165-0.849,0.466-1.163l0.724-0.717c0.3-0.305,0.73-0.485,1.169-0.485c0.037,0,0.072,0.002,0.109,0.004
		C9.844,7.85,9.979,7.75,10.123,7.663C9.709,6.826,9.443,5.58,9.443,4.18c0-1.495-0.962-2.764-2.299-3.23
		C7.053,0.415,6.586,0,6.022,0C5.458,0,4.991,0.415,4.901,0.949c-1.339,0.467-2.3,1.735-2.3,3.23c0,1.979-0.523,3.663-1.256,4.296
		C0.936,8.828,0.701,9.342,0.701,9.885c0,0.629,0.511,1.141,1.14,1.141h3.043c0,0.629,0.51,1.139,1.139,1.139
		c0.264,0,0.496-0.104,0.689-0.255V11.678z M5.089,2.671c0.052-0.053,0.124-0.083,0.196-0.083h1.474c0.073,0,0.146,0.03,0.196,0.083
		c0.054,0.055,0.08,0.125,0.077,0.201l-0.056,1.81L6.749,6.519C6.731,6.656,6.612,6.757,6.473,6.757H5.571
		c-0.143,0-0.258-0.101-0.273-0.238L5.071,4.707l-0.06-1.835C5.01,2.796,5.036,2.726,5.089,2.671z M5.011,8.569
		c0-0.558,0.453-1.015,1.011-1.015c0.559,0,1.011,0.457,1.011,1.015c0,0.557-0.452,1.008-1.011,1.008
		C5.464,9.577,5.011,9.126,5.011,8.569z"/>
	<path fill="#6686B9" d="M14.867,11.242h-0.861l0.617-0.613c0.168-0.168,0.168-0.44,0-0.608l-0.697-0.702
		c-0.082-0.08-0.193-0.119-0.305-0.119s-0.223,0.039-0.307,0.119l-0.611,0.614V9.084c0-0.242-0.195-0.435-0.432-0.435h-1.297
		c-0.24,0-0.434,0.192-0.434,0.435v0.859L9.93,9.332C9.846,9.246,9.734,9.203,9.623,9.203c-0.109,0-0.219,0.043-0.303,0.129
		L8.62,10.025c-0.078,0.083-0.124,0.194-0.124,0.311c0,0.11,0.046,0.221,0.124,0.303l0.607,0.604H8.377
		c-0.237,0-0.435,0.193-0.435,0.436v1.296c0,0.236,0.197,0.433,0.435,0.433h0.849l-0.611,0.611c-0.172,0.168-0.172,0.439,0,0.611
		l0.695,0.692c0.084,0.087,0.195,0.128,0.307,0.128s0.221-0.041,0.305-0.128l0.619-0.614v0.859c0,0.241,0.193,0.434,0.434,0.434
		h1.297c0.236,0,0.432-0.192,0.432-0.434v-0.859l0.617,0.62c0.08,0.081,0.189,0.124,0.305,0.124s0.227-0.043,0.307-0.124
		l0.697-0.698c0.08-0.077,0.127-0.189,0.127-0.303c0-0.115-0.047-0.226-0.127-0.307l-0.613-0.613h0.852
		c0.238,0,0.432-0.196,0.432-0.433v-1.296C15.299,11.436,15.105,11.242,14.867,11.242z M11.621,14.155
		c-1.012,0-1.83-0.816-1.83-1.829c0-1.014,0.818-1.833,1.83-1.833s1.83,0.819,1.83,1.833C13.451,13.339,12.633,14.155,11.621,14.155
		z"/>
</g>
</svg>
