<?xml version="1.0" encoding="utf-8"?>
<!-- Generator: Adobe Illustrator 16.0.0, SVG Export Plug-In . SVG Version: 6.00 Build 0)  -->
<!DOCTYPE svg PUBLIC "-//W3C//DTD SVG 1.1//EN" "http://www.w3.org/Graphics/SVG/1.1/DTD/svg11.dtd">
<svg version="1.1" id="图层_1" xmlns="http://www.w3.org/2000/svg" xmlns:xlink="http://www.w3.org/1999/xlink" x="0px" y="0px"
	 width="32px" height="32px" viewBox="0 0 16 16" enable-background="new 0 0 16 16" xml:space="preserve">
<g>
	<path fill="#6686B9" d="M11.48,8.903l0.095-0.021c-0.034-0.014-0.065-0.033-0.102-0.045C11.474,8.858,11.48,8.882,11.48,8.903z"/>
	<path fill="#6686B9" d="M7.024,8.117c0.173,0.337,0.279,0.716,0.279,1.121c0,0.93-0.516,1.732-1.272,2.156
		c0.457-0.375,0.777-0.906,0.874-1.516c0.023-0.129,0.041-0.26,0.041-0.395c0-0.273-0.055-0.531-0.137-0.775
		C6.804,8.687,6.798,8.663,6.79,8.644C6.789,8.642,6.789,8.642,6.789,8.642C6.768,8.581,6.748,8.521,6.722,8.462V8.461
		C6.68,8.366,6.627,8.273,6.572,8.184C6.484,8.043,6.373,7.918,6.26,7.796c-0.071-0.077-0.148-0.145-0.23-0.212
		C5.811,7.402,5.564,7.26,5.292,7.162C5.029,7.066,4.756,6.998,4.459,6.998c-0.015,0-0.028,0.006-0.044,0.006
		C4.164,7.008,3.927,7.056,3.7,7.13c-0.402,0.13-0.758,0.358-1.04,0.66C2.546,7.914,2.434,8.04,2.346,8.182
		c1.13,0.052,2.029,0.977,2.029,2.12c0,0.246-0.051,0.477-0.127,0.697c0.004-0.047,0.014-0.088,0.014-0.135
		c0-0.352-0.094-0.68-0.244-0.971C4.006,9.872,3.994,9.849,3.982,9.829C3.618,9.179,2.93,8.733,2.131,8.733
		C0.955,8.733,0,9.688,0,10.864c0,1.154,0.922,2.092,2.068,2.125v0.006h5.009v-0.01c1.308-0.049,2.353-1.113,2.353-2.432
		C9.43,9.22,8.357,8.136,7.024,8.117z"/>
	<path fill="#6686B9" d="M6.977,3.146C5.191,3.551,3.811,4.767,3.108,6.313C3.204,6.272,3.291,6.212,3.391,6.18
		c0.287-0.094,0.563-0.145,0.843-0.164c0.657-0.997,1.675-1.755,2.932-2.041c1.292-0.293,2.575-0.034,3.613,0.618
		c0.767,0.483,1.392,1.182,1.786,2.031c0.027,0,0.053-0.01,0.08-0.01c0.314,0,0.617,0.062,0.901,0.165
		C12.61,4.108,9.802,2.504,6.977,3.146z M7.244,4.735c-0.89,0.202-1.629,0.688-2.187,1.326C5.243,6.097,5.434,6.15,5.635,6.223
		c0.104,0.038,0.201,0.092,0.301,0.139c0.411-0.377,0.912-0.665,1.497-0.798c0.894-0.202,1.781-0.026,2.501,0.43
		c0.459,0.289,0.833,0.697,1.106,1.182c0.225-0.172,0.47-0.307,0.738-0.399C10.902,5.205,9.088,4.318,7.244,4.735z M7.619,6.36
		C7.261,6.442,6.943,6.604,6.674,6.821c0.108,0.09,0.217,0.187,0.318,0.296l0.047,0.001C7.177,7.12,7.308,7.146,7.44,7.165
		c0.108-0.05,0.209-0.113,0.33-0.141c0.511-0.117,1.02-0.003,1.434,0.272c0.29,0.195,0.526,0.473,0.688,0.805
		c0.15-0.084,0.307-0.159,0.474-0.21c0.025-0.04,0.061-0.069,0.088-0.108C9.923,6.717,8.772,6.098,7.619,6.36z"/>
	<path fill="#6686B9" d="M16,10.015c0-0.9-0.727-1.633-1.624-1.647c0.115,0.23,0.188,0.485,0.188,0.758
		c0,0.629-0.349,1.168-0.858,1.457c0.31-0.254,0.524-0.613,0.59-1.025c0.016-0.088,0.027-0.174,0.027-0.266
		c0-0.184-0.037-0.357-0.092-0.523c-0.006-0.016-0.008-0.031-0.014-0.045l0,0c-0.016-0.041-0.027-0.082-0.045-0.12V8.603
		c-0.029-0.065-0.064-0.128-0.103-0.188c-0.295-0.479-0.821-0.802-1.425-0.802c-0.604,0-1.133,0.32-1.427,0.8
		c0.762,0.036,1.369,0.66,1.369,1.433c0,0.164-0.032,0.318-0.086,0.467c0.002-0.031,0.012-0.059,0.012-0.09
		c0-0.236-0.064-0.457-0.167-0.656c-0.006-0.014-0.016-0.029-0.023-0.043c-0.246-0.438-0.71-0.738-1.249-0.738
		c-0.795,0-1.438,0.643-1.438,1.438c0,0.781,0.622,1.412,1.396,1.436v0.004h3.38v-0.008C15.293,11.624,16,10.905,16,10.015z"/>
</g>
</svg>
