<?xml version="1.0" encoding="utf-8"?>
<!-- Generator: Adobe Illustrator 16.0.0, SVG Export Plug-In . SVG Version: 6.00 Build 0)  -->
<!DOCTYPE svg PUBLIC "-//W3C//DTD SVG 1.1//EN" "http://www.w3.org/Graphics/SVG/1.1/DTD/svg11.dtd">
<svg version="1.1" id="图层_1" xmlns="http://www.w3.org/2000/svg" xmlns:xlink="http://www.w3.org/1999/xlink" x="0px" y="0px"
	 width="16px" height="16px" viewBox="0 0 16 16" enable-background="new 0 0 16 16" xml:space="preserve">
<g>
	<path fill="#217BCC" d="M9.237,1v1h2v8.152l1,0.595V1H9.237z M2.237,4h8V3h-2V0h-4v3h-2V4z M5.737,1h1v1h-1V1z M11.237,13.771V15
		h-10V2h2V1h-3v15h12v-1.762l-0.912-0.543L11.237,13.771z"/>
	<rect x="2.003" y="10.371" fill="#217BCC" width="3" height="1"/>
	<rect x="2.003" y="12.371" fill="#217BCC" width="3" height="1"/>
	<polygon fill="#217BCC" points="15.15,10.801 13.074,12.41 11.114,11.242 9.77,12.396 8.279,10.018 7.378,10.604 9.539,13.911 
		11.22,12.469 13.148,13.617 15.763,11.592 	"/>
	<path fill="#217BCC" d="M5.676,4.608C4.664,4.611,3.652,4.607,2.64,4.614c-0.134,0.001-0.275,0.03-0.401,0.079
		C1.922,4.813,1.771,5.052,1.771,5.39c0,1.033,0.001,2.066,0,3.1c0,0.188,0.063,0.346,0.196,0.476
		c0.184,0.18,0.414,0.267,0.661,0.269c1.02,0.009,2.038,0.004,3.057,0.004h0.113c0.003-0.033,0.005-0.051,0.005-0.068
		c0-1.479-0.001-2.957,0.002-4.436C5.806,4.632,5.769,4.608,5.676,4.608z M5.446,8.705H4.618v-3.5h0.828V8.705z M10.515,4.873
		C10.325,4.687,10.091,4.611,9.83,4.61H6.827c-0.153,0-0.153,0-0.153,0.157c0,0.194-0.004,0.39,0.002,0.583
		c0.003,0.096-0.021,0.134-0.122,0.127C6.413,5.469,6.272,5.476,6.13,5.476v2.875h0.398c0.146,0,0.146,0,0.146,0.145
		c0.001,0.243,0,0.486,0,0.742h0.146c0.275,0,0.551-0.001,0.826-0.001l0.94-0.612l0.383,0.611c0.257-0.001,0.514,0,0.77-0.001
		c0.139-0.001,0.281-0.024,0.415-0.062c0.33-0.092,0.548-0.349,0.548-0.648c0.003-1.072,0.002-2.144,0.001-3.215
		C10.702,5.138,10.636,4.993,10.515,4.873z M10.027,7.687c-0.27,0.662-0.875,0.99-1.594,0.915C7.705,8.525,7.222,7.987,7.109,7.276
		C7.091,7.158,7.084,7.038,7.076,6.969c0.011-0.541,0.14-0.984,0.497-1.341c0.657-0.657,2.134-0.59,2.515,0.689
		C10.225,6.779,10.209,7.239,10.027,7.687z M8.661,5.882C8.327,5.87,8.06,5.998,7.903,6.301c-0.202,0.393-0.204,0.8-0.02,1.197
		c0.142,0.311,0.403,0.46,0.742,0.46c0.336-0.001,0.587-0.15,0.74-0.453c0.094-0.184,0.127-0.383,0.128-0.578
		C9.492,6.719,9.46,6.528,9.374,6.35C9.229,6.052,8.991,5.894,8.661,5.882z"/>
</g>
</svg>
