<?xml version="1.0" standalone="no"?><!DOCTYPE svg PUBLIC "-//W3C//DTD SVG 1.1//EN" "http://www.w3.org/Graphics/SVG/1.1/DTD/svg11.dtd"><svg t="1494320578864" class="icon" style="" viewBox="0 0 1024 1024" version="1.1" xmlns="http://www.w3.org/2000/svg" p-id="1874" xmlns:xlink="http://www.w3.org/1999/xlink" width="16" height="16"><defs><style type="text/css"></style></defs><path d="M73.142857 402.212571l329.069714 0.073143 0.073143-329.069714L73.216 73.142857 73.142857 402.212571zM0 73.142857A73.142857 73.142857 0 0 1 73.216 0H402.285714A73.142857 73.142857 0 0 1 475.428571 73.216V402.285714A73.142857 73.142857 0 0 1 402.212571 475.428571H73.142857A73.142857 73.142857 0 0 1 0 402.212571V73.142857z m548.571429 0A73.142857 73.142857 0 0 1 621.787429 0H950.857143A73.142857 73.142857 0 0 1 1024 73.216V402.285714A73.142857 73.142857 0 0 1 950.784 475.428571H621.714286A73.142857 73.142857 0 0 1 548.571429 402.212571V73.142857z m73.142857 328.996572l329.069714 0.073142L950.857143 73.216 621.787429 73.142857 621.714286 402.212571zM0 621.714286A73.142857 73.142857 0 0 1 73.216 548.571429H402.285714A73.142857 73.142857 0 0 1 475.428571 621.787429V950.857143A73.142857 73.142857 0 0 1 402.212571 1024H73.142857A73.142857 73.142857 0 0 1 0 950.784V621.714286zM73.142857 950.857143L402.212571 950.857143 402.285714 621.787429 73.216 621.714286 73.142857 950.784zM548.571429 621.714286A73.142857 73.142857 0 0 1 621.787429 548.571429H950.857143A73.142857 73.142857 0 0 1 1024 621.787429V950.857143A73.142857 73.142857 0 0 1 950.784 1024H621.714286A73.142857 73.142857 0 0 1 548.571429 950.784V621.714286z" p-id="1875" fill="#6686B9"></path></svg>