<?xml version="1.0" encoding="utf-8"?>
<!-- Generator: Adobe Illustrator 16.0.0, SVG Export Plug-In . SVG Version: 6.00 Build 0)  -->
<!DOCTYPE svg PUBLIC "-//W3C//DTD SVG 1.1//EN" "http://www.w3.org/Graphics/SVG/1.1/DTD/svg11.dtd">
<svg version="1.1" id="图层_1" xmlns="http://www.w3.org/2000/svg" xmlns:xlink="http://www.w3.org/1999/xlink" x="0px" y="0px"
	 width="16px" height="16px" viewBox="0 0 16 16" enable-background="new 0 0 16 16" xml:space="preserve">
<g>
	<path fill="#6686B9" d="M6.604,2.455L2.973,3.3v5.64c0,0,0.003,0.121,0.033,0.315c0.233,1.999,2.05,3.361,3.029,3.956l0.01,0.02
		c0.072,0.043,0.153,0.082,0.229,0.121c0.23,0.129,0.378,0.201,0.378,0.201s0.009-0.006,0.023-0.012
		C6.69,13.548,6.7,13.555,6.7,13.555s0.147-0.072,0.377-0.201c0.076-0.039,0.157-0.08,0.229-0.121l0.011-0.021
		c0.476-0.289,1.149-0.764,1.744-1.401c-0.002-0.188,0.021-0.379,0.071-0.562l0.203-0.771c0,0,0.345-0.437,0.577-0.576
		c0.082-0.049,0.199-0.086,0.318-0.115c0.047-0.171,0.094-0.344,0.115-0.523c0.025-0.195,0.029-0.318,0.029-0.318V3.3l-3.74-0.854
		L6.604,2.455z M6.676,3.307l2.969,0.849V8.18H6.676v4.505c-0.008,0.004-0.023,0.014-0.023,0.014s-2.545-1.479-2.9-3.557
		C3.749,9.119,3.744,9.091,3.741,9.068c-0.02-0.131-0.032-0.264-0.032-0.401V8.18h2.967V3.307z"/>
	<path fill="#6686B9" d="M9.364,12.918c-1.301,1.152-2.688,1.85-2.688,1.85s-4.257-2.129-4.851-5.125
		C1.817,9.609,1.81,9.576,1.808,9.545c-0.037-0.199-0.054-0.389-0.054-0.59L1.753,2.456l4.923-1.224L11.6,2.456v6.499
		c0,0.201-0.019,0.391-0.056,0.59c-0.002,0.031-0.01,0.064-0.019,0.098c0,0.002,0,0.004,0,0.004c0.438,0.062,0.847,0.24,1.179,0.539
		c0.026-0.123,0.056-0.246,0.071-0.373c0.05-0.275,0.056-0.455,0.056-0.455V1.232L6.7,0L6.676,0.002L6.651,0l-6.13,1.232v8.125
		c0,0,0.007,0.174,0.055,0.453c0.391,2.877,3.43,4.844,5.068,5.688l0.017,0.025c0.124,0.062,0.258,0.119,0.383,0.177
		C6.427,15.895,6.676,16,6.676,16s0.249-0.105,0.633-0.294c0.125-0.052,0.259-0.11,0.383-0.173l0.017-0.029
		c0.401-0.208,0.887-0.484,1.396-0.822c0.067-0.236,0.199-0.459,0.389-0.654L9.54,13.98l0.468-0.369
		c-0.111-0.075-0.215-0.162-0.312-0.26C9.564,13.221,9.456,13.074,9.364,12.918z"/>
	<path fill="#6686B9" d="M13.322,13.166l1.527-1.527h0.209l0.42-0.842l-0.209-0.209l-0.84,0.422v0.209l-1.578,1.58l-0.563-0.438
		c0.239-0.447,0.176-1.021-0.204-1.396c-0.311-0.311-0.748-0.406-1.145-0.303l0.725,0.724v0.841h-0.84L10.1,11.5
		c-0.104,0.396-0.007,0.835,0.303,1.145c0.386,0.381,0.949,0.443,1.398,0.203l0.303,0.385l-1.894,1.492
		c-0.344,0.354-0.13,0.741,0.021,0.91l0.188,0.188c0.163,0.143,0.499,0.208,0.913,0.05l1.418-1.823l1.393,1.767
		c0.354,0.349,0.742,0.129,0.909-0.021l0.19-0.188c0.143-0.162,0.357-0.5,0.049-0.905L13.322,13.166z M14.792,15.354
		c-0.097,0.102-0.254,0.102-0.351,0c-0.103-0.098-0.103-0.254,0-0.352c0.097-0.098,0.254-0.098,0.351,0S14.889,15.257,14.792,15.354
		z"/>
</g>
</svg>
