<?xml version="1.0" encoding="utf-8"?>
<!-- Generator: Adobe Illustrator 19.1.0, SVG Export Plug-In . SVG Version: 6.00 Build 0)  -->
<svg version="1.1" id="图层_1" xmlns="http://www.w3.org/2000/svg" xmlns:xlink="http://www.w3.org/1999/xlink" x="0px" y="0px"
	 viewBox="0 0 16 16" style="enable-background:new 0 0 16 16;" xml:space="preserve">
<style type="text/css">
	.st0{fill:#14203F;}
</style>
<g>
	<g>
		<path class="st0" d="M12.8,6.6c0.1,0,0.1,0,0.2,0c0,0,0.1,0,0.1,0v0c0.2,0,0.4,0.1,0.6,0.2V2.1v0V0.5c0-0.3-0.2-0.5-0.5-0.5H0.5
			C0.2,0,0,0.2,0,0.5v1.6v0v10.3c0,0.6,0.5,1.1,1.1,1.1h7.1c0.3,0,0.5-0.2,0.5-0.5c0-0.3-0.2-0.5-0.5-0.5H1.1V2.6h11.6v4
			C12.7,6.6,12.7,6.6,12.8,6.6L12.8,6.6z"/>
		<g>
			<path class="st0" d="M4.4,5.2V10h4.2c0-0.1,0-0.3,0.1-0.4l0.1-0.2C8.8,9.2,8.9,9,9.1,8.9V5.2H4.4z"/>
		</g>
		<path class="st0" d="M10.9,5.2H9.7v1.9h1.1c0,0,0.1-0.1,0.1-0.1V5.2z"/>
		<rect x="2.5" y="5.2" class="st0" width="1.2" height="1.9"/>
		<rect x="2.5" y="8" class="st0" width="1.2" height="1.9"/>
		<path class="st0" d="M8.3,11.2l0-0.1c0-0.2,0.1-0.3,0.1-0.5H7.2v1.2h1.3c-0.1-0.1-0.1-0.3-0.1-0.4L8.3,11.2z"/>
		<rect x="4.4" y="10.6" class="st0" width="1.9" height="1.2"/>
		<rect x="7.2" y="3.4" class="st0" width="1.9" height="1.2"/>
		<rect x="4.4" y="3.4" class="st0" width="1.9" height="1.2"/>
	</g>
	<path class="st0" d="M15.5,15.1l-1.1-2.8l0,0l0,0l0,0l0,0c0,0,0.1-0.1,0.1-0.2c0,0,0,0,0,0l-0.1-0.4c0,0,0,0,0,0c0,0,0,0,0,0
		l0.4-0.1c0.1,0,0.1-0.1,0.2-0.1l0.1-0.1c0,0,0,0,0-0.1c0,0,0-0.1,0-0.1l-0.2-0.4c0,0,0,0,0,0c0,0,0,0,0,0l0.4-0.3
		c0.1,0,0.1-0.1,0.1-0.2c0,0,0,0,0-0.1c0-0.1,0-0.1,0-0.1c0-0.1,0-0.1-0.1-0.2l-0.4-0.3c0,0,0,0,0,0c0,0,0,0,0,0L15,9.3
		c0,0,0-0.1,0-0.1c0,0,0-0.1,0-0.1L15,9c0-0.1-0.1-0.1-0.2-0.1l-0.4-0.1c0,0,0,0,0,0c0,0,0,0,0,0l0.1-0.4c0,0,0,0,0,0
		c0-0.1,0-0.1-0.1-0.2L14.3,8c0,0-0.1-0.1-0.2-0.1c0,0,0,0,0,0L13.7,8c0,0,0,0,0,0c0,0,0,0,0,0l-0.1-0.4c0-0.1-0.1-0.1-0.1-0.2
		l-0.1-0.1c0,0,0,0-0.1,0c0,0-0.1,0-0.1,0l-0.4,0.2c0,0,0,0,0,0c0,0,0,0,0,0l-0.3-0.4c0-0.1-0.1-0.1-0.2-0.1c0,0,0,0-0.1,0
		c-0.1,0-0.1,0-0.1,0c-0.1,0-0.1,0-0.2,0.1l-0.3,0.4c0,0,0,0,0,0c0,0,0,0,0,0l-0.4-0.2c0,0-0.1,0-0.1,0c0,0-0.1,0-0.1,0L11,7.4
		c-0.1,0-0.1,0.1-0.1,0.2L10.8,8c0,0,0,0,0,0c0,0,0,0,0,0l-0.4-0.1c0,0,0,0,0,0c-0.1,0-0.1,0-0.2,0.1L10,8.1c0,0-0.1,0.1-0.1,0.2
		c0,0,0,0,0,0L10,8.7c0,0,0,0,0,0c0,0,0,0,0,0L9.6,8.8C9.5,8.9,9.5,8.9,9.4,9L9.4,9.1c0,0,0,0,0,0.1c0,0,0,0.1,0,0.1l0.2,0.4
		c0,0,0,0,0,0c0,0,0,0,0,0L9.3,9.9c-0.1,0-0.1,0.1-0.1,0.2c0,0,0,0,0,0.1c0,0.1,0,0.1,0,0.1c0,0.1,0,0.1,0.1,0.2l0.4,0.3
		c0,0,0,0,0,0c0,0,0,0,0,0l-0.2,0.4c0,0,0,0.1,0,0.1c0,0,0,0.1,0,0.1l0.1,0.1c0,0.1,0.1,0.1,0.2,0.1l0.4,0.1c0,0,0,0,0,0
		c0,0,0,0,0,0L10,12.1c0,0,0,0,0,0c0,0.1,0,0.1,0.1,0.2l0,0L9,15.1c0,0.1,0,0.1,0.1,0.1l1.2-0.1c0.1,0,0.1,0,0.2,0.1l0.8,0.9
		c0,0,0.1,0,0.1,0l0.9-2.8c0,0,0,0,0.1,0c0,0,0,0,0.1,0s0.1,0,0.1,0c0,0,0,0,0.1,0l0.9,2.7c0,0.1,0.1,0.1,0.1,0l0.8-0.9
		c0,0,0.1-0.1,0.2-0.1L15.5,15.1C15.4,15.2,15.5,15.1,15.5,15.1z M12.2,12.4c-1.2,0-2.2-1-2.2-2.2S11,8,12.2,8s2.2,1,2.2,2.2
		S13.4,12.4,12.2,12.4z"/>
</g>
</svg>
