<?xml version="1.0" encoding="utf-8"?>
<!-- Generator: Adobe Illustrator 16.0.0, SVG Export Plug-In . SVG Version: 6.00 Build 0)  -->
<!DOCTYPE svg PUBLIC "-//W3C//DTD SVG 1.1//EN" "http://www.w3.org/Graphics/SVG/1.1/DTD/svg11.dtd">
<svg version="1.1" id="图层_1" xmlns="http://www.w3.org/2000/svg" xmlns:xlink="http://www.w3.org/1999/xlink" x="0px" y="0px"
	 width="16px" height="16px" viewBox="0 0 16 16" enable-background="new 0 0 16 16" xml:space="preserve">
<path fill="#DFD714" d="M14.151,11.147C13.188,10.314,12.5,8.1,12.5,5.5c0-1.969-1.265-3.637-3.025-4.251C9.357,0.544,8.743,0,8,0
	C7.256,0,6.642,0.544,6.524,1.249C4.765,1.863,3.5,3.531,3.5,5.5c0,2.6-0.689,4.814-1.652,5.647
	c-0.539,0.466-0.849,1.139-0.849,1.854c0,0.827,0.671,1.5,1.5,1.5h4.002C6.501,15.33,7.171,16,8,16c0.828,0,1.499-0.67,1.499-1.499
	h4.003c0.827,0,1.499-0.673,1.499-1.5C15.001,12.286,14.692,11.613,14.151,11.147z M8,12.598c-0.734,0-1.329-0.594-1.329-1.326
	S7.266,9.938,8,9.938s1.329,0.602,1.329,1.334S8.734,12.598,8,12.598z M9.255,6.158L8.952,8.574
	C8.931,8.756,8.775,8.889,8.594,8.889H7.405c-0.185,0-0.339-0.133-0.359-0.314L6.748,6.189L6.671,3.777
	C6.667,3.68,6.703,3.586,6.771,3.514c0.069-0.07,0.163-0.111,0.26-0.111h1.938c0.097,0,0.19,0.041,0.26,0.111
	C9.297,3.586,9.332,3.68,9.329,3.777L9.255,6.158z"/>
</svg>
