<?xml version="1.0" encoding="utf-8"?>
<!-- Generator: Adobe Illustrator 16.0.0, SVG Export Plug-In . SVG Version: 6.00 Build 0)  -->
<!DOCTYPE svg PUBLIC "-//W3C//DTD SVG 1.1//EN" "http://www.w3.org/Graphics/SVG/1.1/DTD/svg11.dtd">
<svg version="1.1" id="图层_1" xmlns="http://www.w3.org/2000/svg" xmlns:xlink="http://www.w3.org/1999/xlink" x="0px" y="0px"
	 viewBox="0 0 16 16" enable-background="new 0 0 16 16" xml:space="preserve">
<g>
	<path fill="#217BCC" d="M10.648,8.721l2.537,1.76l0.395-3.06l-0.502,0.223c0,0-1.346-1.925-3.414-1.14c0,0,1.758,0.869,1.717,1.893
		L10.648,8.721z"/>
	<path fill="#217BCC" d="M6.283,14.039c0-1.381,0.949-2.545,2.23-2.871l0.07-0.124c0.209-0.337,0.479-0.606,0.781-0.843V0h-9.33v16
		h6.99C6.566,15.479,6.283,14.795,6.283,14.039z M1.371,1.332h6.668v1.602H1.371V1.332z M1.371,4.266h6.668v1.6H1.371V4.266z
		 M1.371,7.199h6.668V8.8H1.371V7.199z M5.285,14.15h-1l-0.732-3.334h0.84l0.396,2.578h0.01l0.402-2.578h0.84L5.285,14.15z"/>
	<path fill="#217BCC" d="M15.961,13.754c0-1.23-0.99-2.227-2.215-2.245c0.16,0.312,0.258,0.659,0.258,1.034
		c0,0.855-0.475,1.592-1.17,1.984c0.42-0.348,0.715-0.834,0.805-1.396c0.021-0.117,0.035-0.238,0.035-0.363
		c0-0.25-0.049-0.481-0.125-0.713c-0.006-0.02-0.01-0.041-0.018-0.062l0,0c-0.021-0.056-0.039-0.109-0.062-0.162
		c0-0.002,0-0.002,0-0.002c-0.041-0.088-0.088-0.175-0.139-0.256c-0.402-0.652-1.119-1.093-1.943-1.093s-1.543,0.438-1.945,1.09
		c1.037,0.052,1.867,0.896,1.867,1.951c0,0.227-0.045,0.438-0.115,0.642c0.002-0.041,0.018-0.08,0.018-0.123
		c0-0.323-0.086-0.625-0.229-0.896c-0.01-0.021-0.021-0.039-0.028-0.062c-0.341-0.6-0.974-1.007-1.703-1.007
		c-1.082,0-1.961,0.88-1.961,1.962c0,1.062,0.848,1.924,1.899,1.955V16h4.606v-0.008C14.998,15.945,15.961,14.967,15.961,13.754z"/>
</g>
</svg>
