<?xml version="1.0" encoding="utf-8"?>
<!-- Generator: Adobe Illustrator 16.0.0, SVG Export Plug-In . SVG Version: 6.00 Build 0)  -->
<!DOCTYPE svg PUBLIC "-//W3C//DTD SVG 1.1//EN" "http://www.w3.org/Graphics/SVG/1.1/DTD/svg11.dtd">
<svg version="1.1" id="图层_1" xmlns="http://www.w3.org/2000/svg" xmlns:xlink="http://www.w3.org/1999/xlink" x="0px" y="0px"
	 width="16px" height="16px" viewBox="0 0 16 16" enable-background="new 0 0 16 16" xml:space="preserve">
<g>
	<g>
		<path fill="#217BCC" d="M15.806,10.124c-0.242-0.635-2.514-1.78-3.129-2.021c-0.039-0.02-0.321-0.12-0.321-0.168V7.328
			c0.521-0.534,1.296-1.572,1.438-2.829c0.217-1.858-0.789-3.365-2.124-3.375h-0.062C10.19,1.133,9.453,2.382,9.482,3.998
			c0.296,0.167,0.57,0.372,0.811,0.641c0.773,0.877,1.128,2.158,0.971,3.511c-0.135,1.167-0.685,2.135-1.166,2.777
			c0.229,0.108,0.521,0.255,0.828,0.421h5.073C15.999,11.347,16.027,10.691,15.806,10.124z"/>
		<path fill="#217BCC" d="M5.94,10.939c-0.479-0.695-0.917-1.668-1.048-2.783c-0.165-1.456,0.156-2.72,0.9-3.562
			c0.254-0.284,0.552-0.5,0.878-0.665C6.643,2.344,5.721,1.133,4.524,1.125H4.461c-1.562,0.01-2.308,1.528-2.099,3.384
			c0.147,1.251,0.761,2.285,1.282,2.819v0.606c0,0.048-0.2,0.149-0.244,0.168c-0.608,0.242-2.927,1.387-3.168,2.021
			C0.012,10.691,0,11.347,0,11.347h5.131C5.424,11.189,5.707,11.05,5.94,10.939z"/>
	</g>
	<path fill="#217BCC" d="M6.972,11.63c-0.607,0.242-2.927,1.388-3.168,2.022c-0.22,0.567-0.232,1.223-0.232,1.223h8.855
		c0,0,0.027-0.655-0.193-1.223c-0.24-0.635-2.514-1.78-3.127-2.022c-0.042-0.02-0.323-0.119-0.323-0.168v-0.605
		c0.522-0.535,1.295-1.575,1.437-2.829c0.218-1.858-0.786-3.365-2.124-3.375H8.033C6.471,4.663,5.725,6.18,5.935,8.037
		c0.146,1.25,0.76,2.285,1.282,2.82v0.605C7.217,11.511,7.016,11.61,6.972,11.63z"/>
</g>
</svg>
