<?xml version="1.0" encoding="utf-8"?>
<!-- Generator: Adobe Illustrator 16.0.0, SVG Export Plug-In . SVG Version: 6.00 Build 0)  -->
<!DOCTYPE svg PUBLIC "-//W3C//DTD SVG 1.1//EN" "http://www.w3.org/Graphics/SVG/1.1/DTD/svg11.dtd">
<svg version="1.1" id="图层_1" xmlns="http://www.w3.org/2000/svg" xmlns:xlink="http://www.w3.org/1999/xlink" x="0px" y="0px"
	 width="16px" height="16px" viewBox="0 0 16 16" enable-background="new 0 0 16 16" xml:space="preserve">
<path fill="#217BCC" d="M15.033,15.3L15.002,16H0.966l0.012-0.746c0.001-0.039,0.023-1.069,0.376-1.986
	c0.499-1.301,4.112-2.938,4.809-3.24V9.839C5.385,8.948,4.555,7.44,4.343,5.627C4.136,3.799,4.537,2.171,5.439,1.154
	C6.103,0.406,7.005,0.005,8.048,0c1.055,0.005,1.961,0.438,2.647,1.216c0.961,1.083,1.393,2.689,1.195,4.396
	c-0.225,1.963-1.377,3.495-2.041,4.229l0.062,0.163c0.004,0,4.244,1.823,4.797,3.264C15.072,14.203,15.033,15.255,15.033,15.3z"/>
</svg>
