<?xml version="1.0" encoding="utf-8"?>
<!-- Generator: Adobe Illustrator 16.0.0, SVG Export Plug-In . SVG Version: 6.00 Build 0)  -->
<!DOCTYPE svg PUBLIC "-//W3C//DTD SVG 1.1//EN" "http://www.w3.org/Graphics/SVG/1.1/DTD/svg11.dtd">
<svg version="1.1" id="图层_1" xmlns="http://www.w3.org/2000/svg" xmlns:xlink="http://www.w3.org/1999/xlink" x="0px" y="0px"
	 width="198px" height="130px" viewBox="0 0 198 130" enable-background="new 0 0 198 130" xml:space="preserve">
<g>
	<g>
		<g>
			<path fill="#FFFFFF" d="M142.756,16.956c-5.74,0-11.311,1.254-16.377,3.594C122.4,8.49,110.92,0,98.004,0
				C87.898,0,78.686,5.041,73.125,13.41c-0.578,0.82-1.109,1.664-1.568,2.557c-0.361,0.723-0.072,1.592,0.641,1.954
				c0.205,0.096,0.422,0.145,0.639,0.145c0.531,0,1.037-0.29,1.303-0.796c0.266-0.531,0.555-1.037,0.881-1.543
				c4.352-5.934,11.203-9.455,18.631-9.455c11.926,0,21.779,9.117,22.949,20.766l0.049,1.302c-1.256,1.303-2.377,2.677-3.389,4.221
				c-0.025,0.024-0.049,0.073-0.061,0.097c-0.338,0.627-0.158,1.423,0.457,1.833c0.641,0.41,1.508,0.241,1.941-0.386
				c0.219-0.338,0.58-0.82,0.809-1.134c1.242-1.399,2.436-2.508,3.848-3.666c5.859-4.197,12.855-6.439,20.248-6.439
				c19.33,0,35.055,15.725,35.055,35.044c0,16.28-11.406,30.558-27.205,34.151c-0.387,0.049-0.771,0.121-1.17,0.146
				c-0.771,0.048-1.338,0.724-1.277,1.495c0.061,0.748,0.674,1.278,1.387,1.278c0.047,0,0.072,0,0.119,0
				c2.232-0.192,4.379-0.627,6.465-1.302c16.521-4.775,27.904-20.043,27.904-37.698C181.779,34.466,164.27,16.956,142.756,16.956z"
				/>
			<g>
				<path fill="#FFFFFF" d="M146.699,65.386c-0.832-1.447-1.99-2.677-3.484-3.642c-1.496-0.941-3.316-1.761-5.439-2.436
					c-2.135-0.675-4.521-1.278-7.15-1.833c-2.086-0.482-3.594-0.844-4.512-1.109c-0.904-0.241-1.809-0.579-2.701-1.037
					c-0.893-0.435-1.578-0.965-2.098-1.568c-0.506-0.627-0.76-1.351-0.76-2.195c0-1.375,0.748-2.533,2.242-3.497
					c1.496-0.965,3.463-1.447,5.898-1.447c2.629,0,4.533,0.434,5.715,1.327c1.195,0.892,2.221,2.122,3.064,3.738
					c0.65,1.109,1.254,1.905,1.832,2.388c0.555,0.506,1.375,0.748,2.461,0.748c1.182,0,2.17-0.41,2.967-1.23
					c0.795-0.82,1.193-1.736,1.193-2.75c0-1.109-0.326-2.243-0.953-3.425c-0.639-1.182-1.641-2.292-3.027-3.353
					c-1.373-1.061-3.111-1.93-5.197-2.557c-2.086-0.651-4.559-0.989-7.428-0.989c-3.57,0-6.682,0.506-9.334,1.471
					c-2.654,0.965-4.68,2.364-6.078,4.148c-1.398,1.809-2.098,3.883-2.098,6.199c0,2.436,0.662,4.486,1.988,6.126
					c1.328,1.64,3.125,2.942,5.367,3.883c2.268,0.94,5.064,1.785,8.418,2.484c2.496,0.531,4.498,1.014,5.98,1.471
					c1.496,0.459,2.727,1.135,3.666,2.002c0.941,0.869,1.412,2.026,1.412,3.426c0,1.761-0.869,3.231-2.617,4.413
					c-1.762,1.182-4.027,1.761-6.826,1.761c-2.025,0-3.678-0.289-4.92-0.868c-1.254-0.604-2.219-1.326-2.918-2.243
					c-0.676-0.892-1.326-2.026-1.918-3.353c-0.494-1.134-1.074-2.001-1.773-2.556c-0.674-0.58-1.52-0.869-2.52-0.869
					c-1.23,0-2.244,0.361-3.027,1.109c-0.795,0.724-1.205,1.616-1.205,2.653c0,1.785,0.662,3.617,1.988,5.523
					c1.328,1.881,3.053,3.4,5.174,4.51c2.992,1.592,6.777,2.363,11.373,2.363c3.846,0,7.15-0.578,9.949-1.712
					c2.797-1.157,4.92-2.749,6.379-4.775c1.459-2.05,2.182-4.341,2.182-6.874C147.965,68.666,147.543,66.856,146.699,65.386z"/>
				<path fill="#FFFFFF" d="M98.281,48.503c-0.566-1.351-1.037-2.436-1.41-3.256c-0.375-0.82-0.832-1.592-1.363-2.291
					c-0.543-0.724-1.254-1.303-2.135-1.737c-0.881-0.458-1.965-0.699-3.293-0.699c-1.289,0-2.375,0.241-3.256,0.699
					c-0.879,0.434-1.592,1.037-2.135,1.761c-0.529,0.724-1.049,1.64-1.52,2.75c-0.373,0.893-0.711,1.64-1,2.315
					c-0.531,1.23-8.262,19.054-9.672,22.333c-0.65,1.472-1.543,2.919-2.34,4.101c-0.771,1.109-1.627,2.146-2.557,3.111
					c-0.578,0.507-1.061,0.965-1.447,1.424c-4.498,3.955-10.322,6.223-16.449,6.223c-13.699,0-24.842-11.168-24.842-24.843
					c0-13.724,11.143-24.867,24.842-24.867c8.551,0,16.402,4.317,20.984,11.553c1.182,1.857,3.643,2.412,5.498,1.23
					c1.857-1.182,2.4-3.642,1.23-5.5c-6.064-9.551-16.424-15.243-27.713-15.243c-18.088,0-32.801,14.712-32.801,32.826
					c0,18.064,14.713,32.802,32.801,32.802c9.25,0.53,18.113-3.232,23.24-8.467c0.012-0.023,0.035-0.023,0.059-0.048
					c0-0.024,0.014-0.024,0.025-0.024l0.035-0.048c5.006-5.065,7.574-11.215,7.574-11.215h18.945l2.23,5.282
					c0.301,0.675,0.65,1.422,1.074,2.267c0.408,0.845,0.795,1.495,1.145,1.905c0.361,0.41,0.809,0.748,1.338,0.989
					c0.531,0.217,1.158,0.337,1.906,0.337c1.279,0,2.363-0.385,3.256-1.205c0.904-0.82,1.352-1.713,1.352-2.701
					c0-0.941-0.471-2.437-1.424-4.511L98.281,48.503z M83.123,66.978L90.02,49.54l7.031,17.438H83.123z"/>
			</g>
		</g>
	</g>
	<g>
		<path fill="#FFFFFF" d="M18.195,123.366c0,0.627-0.156,1.326-0.471,2.051c-0.314,0.748-0.797,1.471-1.471,2.195
			c-0.676,0.699-1.52,1.277-2.582,1.711c-1.037,0.459-2.242,0.676-3.641,0.676c-1.049,0-2.002-0.096-2.871-0.289
			c-0.855-0.217-1.641-0.506-2.34-0.941c-0.699-0.434-1.35-0.988-1.93-1.664c-0.529-0.627-0.988-1.326-1.35-2.098
			c-0.373-0.771-0.65-1.592-0.844-2.484s-0.277-1.809-0.277-2.797c0-1.617,0.229-3.039,0.699-4.318
			c0.471-1.277,1.133-2.363,2.002-3.256c0.881-0.916,1.893-1.592,3.074-2.074c1.158-0.459,2.412-0.699,3.727-0.699
			c1.629,0,3.051,0.312,4.318,0.965c1.266,0.65,2.23,1.447,2.906,2.387c0.662,0.941,0.988,1.857,0.988,2.678
			c0,0.482-0.156,0.869-0.482,1.23s-0.725,0.531-1.182,0.531c-0.506,0-0.904-0.121-1.158-0.363c-0.266-0.24-0.555-0.674-0.867-1.277
			c-0.531-0.965-1.146-1.713-1.857-2.195c-0.713-0.506-1.592-0.748-2.629-0.748c-1.664,0-2.979,0.627-3.969,1.881
			c-0.977,1.279-1.471,3.064-1.471,5.379c0,1.545,0.217,2.846,0.65,3.883c0.436,1.014,1.051,1.785,1.846,2.293
			c0.797,0.506,1.736,0.771,2.799,0.771c1.168,0,2.146-0.289,2.953-0.869c0.797-0.578,1.412-1.422,1.822-2.531
			c0.168-0.531,0.373-0.965,0.627-1.279c0.266-0.338,0.674-0.506,1.229-0.506c0.482,0,0.893,0.168,1.242,0.506
			C18.025,122.45,18.195,122.86,18.195,123.366z"/>
		<path fill="#FFFFFF" d="M21.572,127.757v-16.111c0-0.748,0.168-1.303,0.494-1.689c0.338-0.385,0.783-0.578,1.35-0.578
			c0.555,0,1.014,0.193,1.352,0.555c0.338,0.387,0.518,0.965,0.518,1.713v16.111c0,0.746-0.18,1.303-0.518,1.664
			c-0.35,0.385-0.797,0.578-1.352,0.578s-0.988-0.193-1.326-0.578C21.752,129.034,21.572,128.456,21.572,127.757z"/>
		<path fill="#FFFFFF" d="M43.025,122.45c0,1.109-0.17,2.123-0.506,3.062c-0.352,0.941-0.846,1.736-1.496,2.412
			c-0.652,0.676-1.447,1.182-2.34,1.543c-0.916,0.363-1.93,0.531-3.062,0.531c-1.135,0-2.146-0.168-3.039-0.555
			c-0.893-0.361-1.676-0.867-2.34-1.543c-0.65-0.676-1.158-1.473-1.496-2.389s-0.506-1.953-0.506-3.062
			c0-1.133,0.168-2.146,0.52-3.088c0.35-0.939,0.832-1.736,1.482-2.387c0.65-0.676,1.424-1.182,2.34-1.545
			c0.916-0.361,1.93-0.529,3.039-0.529c1.121,0,2.146,0.168,3.062,0.555c0.916,0.361,1.688,0.867,2.34,1.543
			c0.65,0.676,1.158,1.471,1.496,2.389C42.855,120.304,43.025,121.341,43.025,122.45z M39.299,122.45
			c0-1.52-0.326-2.701-1.002-3.545c-0.662-0.846-1.555-1.254-2.676-1.254c-0.725,0-1.375,0.191-1.93,0.555
			c-0.555,0.385-0.977,0.939-1.279,1.664c-0.289,0.746-0.445,1.615-0.445,2.58s0.156,1.832,0.445,2.533
			c0.291,0.746,0.725,1.301,1.268,1.664c0.543,0.41,1.193,0.602,1.941,0.602c1.121,0,2.014-0.434,2.676-1.277
			C38.973,125.128,39.299,123.946,39.299,122.45z"/>
		<path fill="#FFFFFF" d="M55.592,127.901v-0.482c-0.436,0.578-0.904,1.037-1.4,1.422c-0.482,0.387-1.023,0.676-1.604,0.846
			c-0.578,0.191-1.242,0.289-1.99,0.289c-0.893,0-1.688-0.193-2.41-0.555c-0.713-0.387-1.256-0.893-1.652-1.545
			c-0.459-0.795-0.688-1.904-0.688-3.4v-7.355c0-0.748,0.168-1.303,0.506-1.664s0.771-0.555,1.326-0.555s1.014,0.193,1.352,0.555
			c0.35,0.361,0.529,0.916,0.529,1.664v5.934c0,0.867,0.072,1.592,0.219,2.17c0.145,0.604,0.408,1.061,0.771,1.375
			c0.385,0.338,0.893,0.506,1.543,0.506c0.627,0,1.205-0.193,1.76-0.555s0.965-0.867,1.207-1.471
			c0.217-0.506,0.312-1.664,0.312-3.449v-4.51c0-0.748,0.182-1.303,0.531-1.664c0.338-0.361,0.783-0.555,1.338-0.555
			c0.543,0,1.002,0.193,1.34,0.555c0.326,0.361,0.494,0.916,0.494,1.664v10.756c0,0.701-0.156,1.23-0.482,1.592
			c-0.326,0.363-0.736,0.531-1.242,0.531s-0.928-0.193-1.254-0.555C55.76,129.083,55.592,128.577,55.592,127.901z"/>
		<path fill="#FFFFFF" d="M72.957,127.876v-0.361c-0.508,0.555-0.99,1.037-1.484,1.398c-0.482,0.363-1.012,0.627-1.58,0.82
			c-0.566,0.17-1.182,0.266-1.855,0.266c-0.881,0-1.713-0.193-2.461-0.578c-0.76-0.361-1.424-0.893-1.979-1.592
			s-0.965-1.52-1.254-2.461c-0.289-0.965-0.422-1.953-0.422-3.062c0-2.34,0.566-4.148,1.701-5.428
			c1.133-1.301,2.629-1.953,4.473-1.953c1.074,0,1.967,0.193,2.715,0.555c0.723,0.361,1.447,0.916,2.146,1.689v-5.477
			c0-0.771,0.145-1.35,0.457-1.736c0.291-0.385,0.725-0.578,1.291-0.578s1,0.168,1.303,0.531c0.301,0.361,0.457,0.891,0.457,1.592
			v16.375c0,0.701-0.156,1.23-0.494,1.592c-0.324,0.363-0.748,0.531-1.266,0.531c-0.506,0-0.928-0.193-1.254-0.555
			S72.957,128.552,72.957,127.876z M65.648,122.427c0,1.012,0.156,1.855,0.459,2.557c0.324,0.723,0.746,1.254,1.289,1.615
			s1.146,0.531,1.785,0.531c0.652,0,1.254-0.17,1.797-0.508c0.531-0.338,0.965-0.867,1.279-1.566
			c0.324-0.699,0.494-1.568,0.494-2.629c0-0.99-0.17-1.834-0.494-2.557c-0.314-0.699-0.748-1.256-1.303-1.617
			c-0.555-0.385-1.146-0.578-1.797-0.578c-0.688,0-1.291,0.193-1.822,0.578c-0.529,0.387-0.951,0.941-1.254,1.664
			C65.793,120.642,65.648,121.485,65.648,122.427z"/>
		<path fill="#FFFFFF" d="M95.146,121.896h-3.691v5.645c0,0.795-0.193,1.422-0.578,1.832c-0.375,0.41-0.857,0.627-1.447,0.627
			c-0.604,0-1.086-0.217-1.459-0.627c-0.375-0.41-0.555-1.014-0.555-1.809V112.2c0-0.893,0.205-1.52,0.615-1.906
			c0.41-0.385,1.061-0.578,1.941-0.578h5.174c1.543,0,2.725,0.121,3.545,0.361c0.82,0.217,1.52,0.604,2.109,1.133
			c0.592,0.508,1.051,1.158,1.363,1.93c0.314,0.748,0.459,1.617,0.459,2.557c0,2.027-0.627,3.57-1.881,4.631
			C99.486,121.364,97.631,121.896,95.146,121.896z M94.168,112.755h-2.713v6.078h2.713c0.953,0,1.75-0.098,2.389-0.291
			c0.639-0.191,1.133-0.529,1.459-0.965c0.338-0.457,0.506-1.061,0.506-1.783c0-0.893-0.252-1.617-0.771-2.146
			C97.172,113.044,95.979,112.755,94.168,112.755z"/>
		<path fill="#FFFFFF" d="M105.734,127.757v-16.111c0-0.748,0.168-1.303,0.506-1.689c0.338-0.385,0.771-0.578,1.338-0.578
			c0.568,0,1.025,0.193,1.363,0.555c0.338,0.387,0.506,0.965,0.506,1.713v16.111c0,0.746-0.168,1.303-0.506,1.664
			c-0.361,0.385-0.809,0.578-1.363,0.578c-0.541,0-0.977-0.193-1.326-0.578C105.914,129.034,105.734,128.456,105.734,127.757z"/>
		<path fill="#FFFFFF" d="M122.678,127.901c-0.904,0.699-1.773,1.23-2.605,1.566c-0.832,0.363-1.773,0.531-2.822,0.531
			c-0.953,0-1.797-0.193-2.508-0.578c-0.723-0.361-1.277-0.869-1.676-1.52c-0.387-0.627-0.58-1.352-0.58-2.1
			c0-1.012,0.314-1.881,0.965-2.58c0.652-0.723,1.52-1.205,2.654-1.447c0.24-0.049,0.82-0.168,1.76-0.385
			c0.93-0.17,1.736-0.338,2.4-0.508c0.662-0.145,1.387-0.361,2.158-0.578c-0.035-0.988-0.24-1.689-0.578-2.146
			c-0.35-0.459-1.074-0.699-2.172-0.699c-0.939,0-1.664,0.145-2.135,0.385c-0.469,0.266-0.879,0.652-1.217,1.207
			c-0.35,0.506-0.58,0.867-0.725,1.012c-0.145,0.193-0.445,0.266-0.904,0.266c-0.422,0-0.783-0.145-1.084-0.385
			c-0.303-0.291-0.447-0.627-0.447-1.037c0-0.652,0.217-1.303,0.688-1.906c0.459-0.627,1.182-1.133,2.158-1.52
			c0.977-0.41,2.195-0.604,3.666-0.604c1.629,0,2.92,0.193,3.836,0.58c0.939,0.385,1.604,0.988,1.99,1.809
			c0.385,0.844,0.566,1.953,0.566,3.352c0,0.869,0,1.592,0,2.195s0,1.279-0.012,2.051c0,0.676,0.107,1.422,0.35,2.17
			c0.229,0.748,0.338,1.23,0.338,1.447c0,0.387-0.17,0.725-0.531,1.061c-0.361,0.314-0.771,0.459-1.23,0.459
			c-0.373,0-0.748-0.168-1.121-0.531C123.484,129.106,123.1,128.577,122.678,127.901z M122.424,122.522
			c-0.543,0.217-1.326,0.434-2.363,0.65c-1.037,0.219-1.762,0.387-2.158,0.482c-0.398,0.098-0.785,0.291-1.146,0.604
			c-0.361,0.314-0.543,0.725-0.543,1.279s0.205,1.037,0.641,1.422c0.434,0.41,0.988,0.604,1.676,0.604
			c0.734,0,1.41-0.145,2.037-0.482c0.615-0.314,1.074-0.748,1.363-1.23c0.338-0.578,0.494-1.494,0.494-2.797V122.522z"/>
		<path fill="#FFFFFF" d="M129.357,115.239h0.398v-2.244c0-0.602,0.023-1.061,0.049-1.422c0.049-0.338,0.121-0.627,0.266-0.869
			c0.145-0.24,0.361-0.459,0.627-0.604c0.277-0.168,0.578-0.24,0.916-0.24c0.471,0,0.893,0.168,1.277,0.531
			c0.266,0.217,0.41,0.506,0.482,0.844s0.109,0.844,0.109,1.447v2.557h1.363c0.518,0,0.916,0.119,1.205,0.361
			c0.266,0.24,0.41,0.555,0.41,0.965c0,0.482-0.193,0.844-0.604,1.037c-0.385,0.217-0.951,0.312-1.688,0.312h-0.688v6.826
			c0,0.578,0.012,1.014,0.061,1.352c0.035,0.289,0.145,0.555,0.326,0.746c0.168,0.193,0.457,0.291,0.855,0.291
			c0.217,0,0.518-0.049,0.893-0.121c0.361-0.072,0.662-0.121,0.867-0.121c0.291,0,0.58,0.121,0.809,0.361
			c0.242,0.242,0.361,0.555,0.361,0.893c0,0.604-0.324,1.062-0.977,1.398c-0.65,0.314-1.592,0.459-2.822,0.459
			c-1.156,0-2.049-0.193-2.641-0.578c-0.59-0.387-0.988-0.941-1.17-1.617c-0.191-0.699-0.289-1.615-0.289-2.773v-7.115h-0.482
			c-0.531,0-0.939-0.145-1.23-0.385c-0.277-0.266-0.41-0.58-0.41-0.965c0-0.41,0.146-0.725,0.436-0.965
			C128.357,115.358,128.791,115.239,129.357,115.239z"/>
		<path fill="#FFFFFF" d="M138.717,115.239h0.879v-1.135c0-1.156,0.146-2.074,0.436-2.748c0.301-0.701,0.795-1.207,1.494-1.52
			c0.713-0.291,1.664-0.459,2.895-0.459c2.172,0,3.256,0.531,3.256,1.592c0,0.338-0.119,0.627-0.338,0.893
			c-0.229,0.24-0.494,0.361-0.795,0.361c-0.156,0-0.41-0.023-0.748-0.096c-0.361-0.049-0.65-0.072-0.916-0.072
			c-0.664,0-1.086,0.191-1.279,0.602c-0.191,0.387-0.289,0.941-0.289,1.689v0.893h0.916c1.412,0,2.123,0.41,2.123,1.254
			c0,0.627-0.193,0.988-0.578,1.182c-0.363,0.145-0.893,0.24-1.545,0.24h-0.916v9.842c0,0.723-0.168,1.277-0.531,1.664
			c-0.336,0.385-0.795,0.578-1.35,0.578c-0.52,0-0.965-0.193-1.303-0.578c-0.361-0.387-0.531-0.941-0.531-1.664v-9.842h-1.023
			c-0.543,0-0.979-0.119-1.268-0.385c-0.312-0.242-0.457-0.58-0.457-0.965C136.848,115.673,137.475,115.239,138.717,115.239z"/>
		<path fill="#FFFFFF" d="M161.834,122.45c0,1.109-0.182,2.123-0.531,3.062c-0.338,0.941-0.832,1.736-1.482,2.412
			c-0.664,0.676-1.436,1.182-2.34,1.543c-0.904,0.363-1.941,0.531-3.074,0.531c-1.109,0-2.123-0.168-3.016-0.555
			c-0.916-0.361-1.688-0.867-2.34-1.543c-0.662-0.676-1.158-1.473-1.494-2.389c-0.352-0.916-0.52-1.953-0.52-3.062
			c0-1.133,0.182-2.146,0.52-3.088c0.336-0.939,0.844-1.736,1.494-2.387c0.627-0.676,1.412-1.182,2.34-1.545
			c0.904-0.361,1.918-0.529,3.016-0.529c1.133,0,2.146,0.168,3.074,0.555c0.904,0.361,1.701,0.867,2.352,1.543
			s1.146,1.471,1.496,2.389C161.652,120.304,161.834,121.341,161.834,122.45z M158.096,122.45c0-1.52-0.338-2.701-0.988-3.545
			c-0.676-0.846-1.568-1.254-2.701-1.254c-0.725,0-1.352,0.191-1.906,0.555c-0.555,0.385-0.988,0.939-1.277,1.664
			c-0.314,0.746-0.459,1.615-0.459,2.58s0.145,1.832,0.445,2.533c0.303,0.746,0.713,1.301,1.268,1.664
			c0.555,0.41,1.193,0.602,1.93,0.602c1.133,0,2.025-0.434,2.701-1.277C157.758,125.128,158.096,123.946,158.096,122.45z"/>
		<path fill="#FFFFFF" d="M168.443,124.646v3.111c0,0.746-0.182,1.303-0.531,1.664c-0.361,0.385-0.809,0.578-1.352,0.578
			c-0.529,0-0.977-0.193-1.326-0.578c-0.338-0.361-0.506-0.941-0.506-1.664v-10.348c0-1.688,0.604-2.508,1.809-2.508
			c0.604,0,1.061,0.193,1.326,0.578c0.266,0.387,0.422,0.965,0.459,1.736c0.434-0.771,0.893-1.35,1.363-1.736
			c0.469-0.385,1.084-0.578,1.869-0.578c0.771,0,1.531,0.193,2.266,0.578c0.736,0.387,1.109,0.916,1.109,1.568
			c0,0.434-0.156,0.82-0.482,1.109c-0.301,0.289-0.639,0.457-1.012,0.457c-0.121,0-0.459-0.096-0.977-0.264
			c-0.52-0.17-0.977-0.242-1.387-0.242c-0.543,0-0.99,0.145-1.328,0.41c-0.336,0.289-0.613,0.725-0.807,1.279
			c-0.182,0.555-0.326,1.229-0.398,2.002C168.467,122.571,168.443,123.511,168.443,124.646z"/>
		<path fill="#FFFFFF" d="M189.305,122.716v4.943c0,0.771-0.168,1.375-0.529,1.762c-0.35,0.385-0.82,0.578-1.4,0.578
			c-0.555,0-1.012-0.193-1.373-0.578c-0.338-0.387-0.52-0.99-0.52-1.762v-5.934c0-0.916-0.037-1.639-0.096-2.17
			c-0.061-0.506-0.23-0.941-0.52-1.254c-0.277-0.338-0.723-0.506-1.326-0.506c-1.219,0-2.025,0.41-2.412,1.254
			s-0.566,2.025-0.566,3.594v5.016c0,0.771-0.182,1.352-0.52,1.762c-0.361,0.385-0.82,0.578-1.387,0.578s-1.025-0.193-1.387-0.578
			c-0.361-0.41-0.529-0.99-0.529-1.762v-10.611c0-0.699,0.156-1.23,0.482-1.592c0.312-0.387,0.746-0.555,1.277-0.555
			c0.506,0,0.916,0.168,1.266,0.506c0.338,0.338,0.508,0.82,0.508,1.424v0.338c0.639-0.773,1.338-1.328,2.061-1.689
			c0.748-0.361,1.568-0.555,2.461-0.555c0.928,0,1.736,0.193,2.412,0.555c0.664,0.387,1.219,0.941,1.652,1.689
			c0.627-0.773,1.291-1.328,2.014-1.689s1.52-0.555,2.387-0.555c1.014,0,1.883,0.217,2.617,0.604
			c0.736,0.385,1.291,0.965,1.652,1.713c0.314,0.674,0.471,1.736,0.471,3.158v7.26c0,0.771-0.182,1.375-0.531,1.762
			c-0.35,0.385-0.818,0.578-1.398,0.578c-0.566,0-1.025-0.193-1.387-0.578c-0.361-0.41-0.531-0.99-0.531-1.762v-6.246
			c0-0.797-0.035-1.447-0.096-1.906c-0.072-0.482-0.254-0.893-0.555-1.229c-0.301-0.314-0.76-0.482-1.375-0.482
			c-0.482,0-0.939,0.145-1.387,0.434c-0.445,0.289-0.783,0.676-1.025,1.182C189.449,120.038,189.305,121.147,189.305,122.716z"/>
	</g>
</g>
</svg>
