<?xml version="1.0" encoding="utf-8"?>
<!-- Generator: Adobe Illustrator 16.0.0, SVG Export Plug-In . SVG Version: 6.00 Build 0)  -->
<!DOCTYPE svg PUBLIC "-//W3C//DTD SVG 1.1//EN" "http://www.w3.org/Graphics/SVG/1.1/DTD/svg11.dtd">
<svg version="1.1" id="图层_1" xmlns="http://www.w3.org/2000/svg" xmlns:xlink="http://www.w3.org/1999/xlink" x="0px" y="0px"
	 width="210px" height="130px" viewBox="0 0 210 130" enable-background="new 0 0 210 130" xml:space="preserve">
<g>
	<g>
		<path fill="#FFFFFF" d="M22.119,127.543c-6.315,0.643-12.223-0.199-17.74-0.199H2.1v-2.873c2.878-3.117,4.952-6.391,6.232-9.828
			H0.065v-2.639h27.57v2.639H13.129c-1.762,3.916-4.115,7.189-7.07,9.828c5.989,0,11.024,1.041,15.104,0.564 M2.583,106.25v-2.762
			h22.535v2.762H2.583z"/>
		<path fill="#FFFFFF" d="M33.628,129.141v-15.826h-2.999v-2.629h6.837v13.42c1.515-0.477,3.034-1.232,4.554-2.273v3.115
			C39.458,126.709,36.664,128.107,33.628,129.141z M34.949,108.41c-0.403-2.004-1.124-4.08-2.162-6.232h3.36
			c1.115,1.918,1.919,3.994,2.396,6.232H34.949z M39.862,113.438v-2.631h7.432v-8.873h4.076v8.873h7.191v2.631H51.37v16.068h-4.076
			v-16.068H39.862z"/>
		<path fill="#FFFFFF" d="M69.23,108.168c-0.082-0.965-0.326-1.875-0.721-2.762h-1.32c-1.041,1.52-2.955,2.639-5.75,3.359v-1.918
			c1.996-1.033,3.272-2.639,3.832-4.801h3.359c-0.082,0.486-0.203,0.93-0.36,1.328h7.192v2.031h-3.716
			c0.239,0.799,0.478,1.719,0.722,2.762H69.23z M64.555,120.633v-11.988h21.576v8.273c0.078,2.24-0.959,3.48-3.116,3.715v2.041
			h6.111v2.273h-6.111V130h-3.716v-5.053h-8.15c-0.564,2.396-2.922,4.08-7.075,5.035v-2.152c1.918-0.807,3.034-1.762,3.359-2.883
			h-5.994v-2.273h6.35c0.083-0.312,0.122-0.6,0.122-0.842v-1.199H64.555z M68.153,110.686v1.432h14.263v-1.432H68.153z
			 M68.153,113.924v1.432h14.263v-1.432H68.153z M68.153,118.592h12.822c1.037,0.08,1.519-0.441,1.44-1.553H68.153V118.592z
			 M71.626,121.596c0,0.322,0,0.678,0,1.078h7.673v-2.041h-7.673V121.596z M82.538,108.168c-0.087-0.965-0.325-1.875-0.721-2.762
			H80.02c-0.964,1.441-2.722,2.439-5.278,3.004v-1.805c1.919-0.955,3.038-2.51,3.36-4.672h3.354
			c-0.083,0.479-0.203,0.965-0.36,1.441h7.908v2.031h-4.192c0.316,0.887,0.599,1.797,0.842,2.762H82.538z"/>
		<path fill="#FFFFFF" d="M99.917,108.41c-0.082-0.963-0.321-1.875-0.721-2.76h-1.44c-1.116,1.52-2.917,2.561-5.391,3.115v-1.918
			c1.996-0.963,3.198-2.561,3.594-4.801h3.359c-0.083,0.564-0.205,1.043-0.36,1.441h7.072v2.162h-3.838
			c0.401,1.041,0.643,1.953,0.721,2.76H99.917z M113.104,108.289c-0.082-1.033-0.283-1.92-0.6-2.639h-1.68
			c-0.482,0.885-1.438,1.676-2.877,2.395v1.562h11.146v4.316h-3.234v2.873c0.078,2.404-0.998,3.559-3.234,3.48H99.44v1.91h17.378
			v3.238c0.082,2.482-1.119,3.68-3.594,3.602H95.602v-15.104h-2.76v-4.316h10.912v-1.562h1.918v-1.197
			c1.836-0.963,2.918-2.561,3.234-4.801h3.355l-0.357,1.441h7.787v2.162h-4.193c0.244,0.799,0.482,1.676,0.723,2.639H113.104z
			 M96.558,111.883v1.918h18.704v-1.918H96.558z M99.44,115.842v2.395h11.623c0.877,0.078,1.281-0.363,1.199-1.318v-1.076H99.44z
			 M113.104,124.348H99.44v2.396h12.343c0.961,0.078,1.398-0.312,1.32-1.197V124.348z"/>
		<path fill="#FFFFFF" d="M122.93,106.006v-2.396h8.994v2.396h-2.639v6.832h2.395v2.518h-2.395v7.916
			c0.803-0.156,1.719-0.398,2.76-0.719v2.395c-2.318,1.121-5.439,1.918-9.354,2.396v-2.873l3-0.479v-8.637h-2.641v-2.518h2.641
			v-6.832H122.93z M133,117.395v-14.262h16.303v10.426c0.082,2.561-1.197,3.836-3.838,3.836h-2.518v2.883h6.598v2.518h-6.598v3.473
			h7.797v2.273h-19.42v-2.273h8.029v-3.473h-6.592v-2.518h6.592v-2.883H133z M136.238,105.65v3.236h3.115v-3.236H136.238z
			 M136.238,114.879h3.115v-3.473h-3.115V114.879z M146.064,105.65h-3.117v3.236h3.117V105.65z M144.389,114.879
			c1.199,0,1.758-0.557,1.676-1.676v-1.797h-3.117v3.473H144.389z"/>
		<path fill="#FFFFFF" d="M154.82,105.885v-2.631h25.053v2.631H169.32v11.633h11.75v2.639h-11.75v9.461h-4.076v-9.461H153.5v-2.639
			h11.744v-11.633H154.82z M156.863,114.998c-1.197-2.229-1.996-4.479-2.396-6.709h3.955c0.316,2.23,0.959,4.48,1.918,6.709H156.863
			z M174.494,114.998c1.033-2.229,1.676-4.479,1.914-6.709h3.842c-0.486,2.475-1.246,4.713-2.283,6.709H174.494z"/>
		<path fill="#FFFFFF" d="M187.064,128.664v-12.223h21.938v8.271c0.078,2.717-1.359,4.027-4.314,3.951H187.064z M190.9,126.389
			h12.346c1.279,0.088,1.879-0.6,1.801-2.041v-5.277H190.9V126.389z"/>
		<rect x="2.1" y="124.471" fill="#FFFFFF" width="22.922" height="3.314"/>
		<path fill="#FFFFFF" d="M22.548,127.785c-0.4-2.43-1.12-4.955-2.157-7.578h3.359c1.115,2.328,1.914,4.863,2.396,7.578H22.548z"/>
		<rect x="156.898" y="111.986" fill="#FFFFFF" width="6.875" height="3.064"/>
		<rect x="171.082" y="111.986" fill="#FFFFFF" width="6.871" height="3.064"/>
		<path fill="#FFFFFF" d="M205.971,113.801c-6.311,0.652-12.227-0.189-17.738-0.189h-2.279v-2.883
			c0.785-0.834,5.174-4.801,6.984-8.682h4.795c-1.758,3.924-7.26,8.691-7.82,8.682c5.988,0.043,11.023,1.049,15.1,0.572"/>
		<rect x="185.953" y="110.729" fill="#FFFFFF" width="22.926" height="3.316"/>
		<path fill="#FFFFFF" d="M206.4,114.045c-0.398-2.432-1.115-4.957-2.156-7.578h3.359c1.119,2.334,1.914,4.861,2.396,7.578H206.4z"
			/>
	</g>
	<g>
		<path fill="#FFFFFF" d="M145.176,16.03c-5.426,0-10.682,1.186-15.467,3.393C125.945,8.018,115.094,0,102.887,0
			c-9.554,0-18.261,4.771-23.521,12.681c-0.539,0.771-1.046,1.562-1.477,2.424c-0.339,0.676-0.07,1.486,0.603,1.831
			c0.198,0.096,0.408,0.147,0.612,0.147c0.501,0,0.979-0.274,1.219-0.752c0.255-0.504,0.539-0.982,0.839-1.455
			c4.107-5.62,10.585-8.937,17.602-8.937c11.282,0,20.588,8.611,21.694,19.608l0.045,1.25c-1.18,1.212-2.244,2.533-3.199,3.98
			c-0.018,0.026-0.037,0.063-0.055,0.095c-0.324,0.593-0.143,1.346,0.432,1.729c0.609,0.396,1.428,0.229,1.828-0.376
			c0.207-0.313,0.551-0.76,0.768-1.06c1.168-1.32,2.303-2.379,3.639-3.476c5.543-3.955,12.146-6.085,19.133-6.085
			c18.266,0,33.129,14.862,33.129,33.125c0,15.384-10.783,28.876-25.711,32.289c-0.365,0.045-0.732,0.096-1.102,0.127
			c-0.729,0.057-1.268,0.695-1.207,1.422c0.059,0.689,0.635,1.207,1.311,1.207c0.039,0,0.074,0,0.113-0.008
			c2.109-0.178,4.135-0.58,6.113-1.225c15.605-4.527,26.375-18.938,26.375-35.624C182.068,32.576,165.52,16.03,145.176,16.03z"/>
		<g>
			<path fill="#FFFFFF" d="M148.908,61.809c-0.789-1.384-1.891-2.532-3.303-3.444c-1.41-0.906-3.125-1.671-5.135-2.309
				c-2.016-0.638-4.264-1.218-6.748-1.742c-1.982-0.453-3.404-0.797-4.266-1.033s-1.713-0.562-2.555-0.982
				c-0.842-0.415-1.498-0.913-1.98-1.492c-0.484-0.581-0.725-1.276-0.725-2.073c0-1.289,0.709-2.386,2.119-3.305
				c1.412-0.912,3.271-1.371,5.574-1.371c2.484,0,4.287,0.42,5.41,1.262c1.119,0.842,2.082,2.016,2.883,3.528
				c0.621,1.052,1.195,1.805,1.729,2.265c0.529,0.465,1.309,0.695,2.328,0.695c1.123,0,2.057-0.383,2.811-1.155
				c0.748-0.771,1.125-1.633,1.125-2.602c0-1.046-0.301-2.124-0.9-3.234c-0.605-1.104-1.555-2.163-2.857-3.17
				c-1.301-1.008-2.939-1.812-4.91-2.424c-1.973-0.605-4.312-0.912-7.018-0.912c-3.383,0-6.328,0.459-8.83,1.377
				c-2.504,0.913-4.418,2.227-5.738,3.93c-1.32,1.709-1.984,3.655-1.984,5.855c0,2.296,0.625,4.229,1.879,5.779
				c1.25,1.55,2.943,2.781,5.078,3.674c2.133,0.899,4.781,1.685,7.947,2.354c2.361,0.491,4.252,0.957,5.66,1.391
				c1.41,0.434,2.564,1.065,3.455,1.888c0.893,0.823,1.336,1.907,1.336,3.227c0,1.672-0.822,3.062-2.475,4.178
				c-1.656,1.117-3.801,1.672-6.445,1.672c-1.924,0-3.477-0.273-4.656-0.83c-1.184-0.555-2.1-1.256-2.75-2.111
				c-0.65-0.848-1.256-1.912-1.818-3.182c-0.461-1.072-1.018-1.875-1.668-2.417s-1.447-0.816-2.389-0.816
				c-1.16,0-2.117,0.351-2.867,1.045c-0.752,0.697-1.129,1.539-1.129,2.521c0,1.684,0.625,3.424,1.879,5.211
				c1.25,1.785,2.879,3.215,4.883,4.279c2.822,1.486,6.408,2.232,10.754,2.232c3.627,0,6.762-0.549,9.402-1.625
				c2.648-1.092,4.654-2.598,6.025-4.523c1.375-1.92,2.061-4.088,2.061-6.5C150.1,64.903,149.703,63.199,148.908,61.809z"/>
			<path fill="#FFFFFF" d="M103.148,45.85c-0.539-1.289-0.982-2.315-1.333-3.087c-0.354-0.771-0.781-1.493-1.296-2.168
				c-0.507-0.67-1.183-1.218-2.012-1.64c-0.833-0.427-1.866-0.644-3.109-0.644c-1.222,0-2.249,0.217-3.081,0.644
				c-0.83,0.421-1.499,0.982-2.013,1.671c-0.507,0.689-0.988,1.557-1.438,2.596c-0.36,0.836-0.666,1.544-0.944,2.182
				c-0.507,1.18-7.808,18.02-9.149,21.113c-0.603,1.385-1.445,2.762-2.204,3.879c-0.728,1.053-1.537,2.027-2.411,2.934
				c-0.552,0.473-1.011,0.918-1.381,1.34c-4.245,3.744-9.753,5.881-15.535,5.881c-12.949,0-23.48-10.537-23.48-23.479
				c0-12.949,10.531-23.48,23.48-23.48c8.075,0,15.49,4.076,19.828,10.908c1.112,1.754,3.438,2.271,5.191,1.161
				c1.755-1.116,2.274-3.438,1.162-5.192c-5.729-9.02-15.517-14.403-26.182-14.403c-17.095,0-31.007,13.905-31.007,31.007
				c0,17.094,13.912,31.006,31.007,31.006c8.739,0.51,17.124-3.055,21.958-8c0.017-0.018,0.036-0.025,0.055-0.051
				C79.261,80.02,79.27,80.008,79.28,80l0.038-0.043c4.727-4.785,7.157-10.596,7.157-10.596h17.908l2.102,5.008
				c0.281,0.617,0.615,1.332,1.008,2.137c0.389,0.803,0.754,1.41,1.094,1.799c0.342,0.389,0.764,0.695,1.268,0.924
				c0.496,0.223,1.096,0.338,1.797,0.338c1.203,0,2.23-0.383,3.082-1.154s1.275-1.619,1.275-2.545c0-0.893-0.449-2.314-1.35-4.268
				L103.148,45.85z M88.819,63.295l6.52-16.463l6.64,16.463H88.819z"/>
		</g>
	</g>
</g>
</svg>
