<?xml version="1.0" encoding="utf-8"?>
<!-- Generator: Adobe Illustrator 16.0.0, SVG Export Plug-In . SVG Version: 6.00 Build 0)  -->
<!DOCTYPE svg PUBLIC "-//W3C//DTD SVG 1.1//EN" "http://www.w3.org/Graphics/SVG/1.1/DTD/svg11.dtd">
<svg version="1.1" id="图层_1" xmlns="http://www.w3.org/2000/svg" xmlns:xlink="http://www.w3.org/1999/xlink" x="0px" y="0px"
	 width="18px" height="18px" viewBox="0 0 18 18" enable-background="new 0 0 18 18" xml:space="preserve">
<rect fill="none" width="18" height="18"/>
<path fill="#696F7F" d="M9,0C4.029,0,0,4.029,0,9s4.029,9,9,9s9-4.029,9-9S13.971,0,9,0z M10.873,13.948
	c-0.463,0.184-0.832,0.322-1.108,0.418s-0.596,0.145-0.961,0.145c-0.561,0-0.998-0.137-1.309-0.412
	c-0.311-0.273-0.466-0.619-0.466-1.04c0-0.164,0.011-0.331,0.035-0.503c0.023-0.17,0.061-0.362,0.112-0.578l0.579-2.049
	c0.052-0.196,0.096-0.383,0.131-0.557C7.921,9.197,7.938,9.036,7.938,8.89c0-0.261-0.054-0.444-0.161-0.546
	C7.668,8.241,7.462,8.19,7.158,8.19c-0.15,0-0.303,0.023-0.461,0.069C6.54,8.306,6.404,8.35,6.292,8.393l0.154-0.632
	c0.379-0.154,0.742-0.286,1.089-0.396C7.882,7.254,8.21,7.2,8.519,7.2c0.557,0,0.987,0.135,1.29,0.404
	c0.301,0.269,0.453,0.618,0.453,1.049c0,0.089-0.012,0.246-0.031,0.47c-0.021,0.225-0.061,0.43-0.116,0.617l-0.577,2.042
	c-0.047,0.164-0.089,0.351-0.126,0.562c-0.038,0.209-0.056,0.369-0.056,0.477c0,0.271,0.06,0.456,0.182,0.555
	c0.122,0.098,0.331,0.147,0.631,0.147c0.141,0,0.299-0.024,0.477-0.074s0.306-0.093,0.386-0.129L10.873,13.948z M10.771,5.66
	c-0.269,0.25-0.594,0.375-0.972,0.375c-0.378,0-0.703-0.125-0.976-0.375C8.555,5.41,8.417,5.107,8.417,4.752
	c0-0.354,0.138-0.66,0.406-0.912C9.097,3.587,9.421,3.461,9.8,3.461c0.378,0,0.703,0.125,0.972,0.379
	c0.269,0.251,0.404,0.557,0.404,0.912C11.176,5.107,11.04,5.41,10.771,5.66z"/>
</svg>
