<?xml version="1.0" encoding="utf-8"?>
<!-- Generator: Adobe Illustrator 16.0.0, SVG Export Plug-In . SVG Version: 6.00 Build 0)  -->
<!DOCTYPE svg PUBLIC "-//W3C//DTD SVG 1.1//EN" "http://www.w3.org/Graphics/SVG/1.1/DTD/svg11.dtd">
<svg version="1.1" id="图层_1" xmlns="http://www.w3.org/2000/svg" xmlns:xlink="http://www.w3.org/1999/xlink" x="0px" y="0px"
	 width="16px" height="16px" viewBox="0 0 16 16" enable-background="new 0 0 16 16" xml:space="preserve">
<g>
	<path fill="#A9ABAE" d="M15.673,12.727L9.396,1.854c-0.768-1.329-2.023-1.329-2.789,0L0.327,12.727
		c-0.767,1.33-0.14,2.415,1.395,2.415h12.557C15.812,15.142,16.439,14.057,15.673,12.727z M7.138,4.939
		C7.362,4.696,7.651,4.573,8,4.573c0.348,0,0.638,0.121,0.862,0.36C9.086,5.175,9.2,5.477,9.2,5.838c0,0.312-0.469,2.602-0.625,4.27
		H7.446C7.31,8.44,6.801,6.15,6.801,5.838C6.801,5.483,6.915,5.182,7.138,4.939z M8.847,12.866C8.61,13.097,8.327,13.212,8,13.212
		s-0.61-0.115-0.847-0.346S6.8,12.354,6.8,12.026c0-0.324,0.117-0.606,0.354-0.844C7.39,10.946,7.673,10.829,8,10.829
		s0.61,0.117,0.847,0.354C9.083,11.42,9.2,11.702,9.2,12.026C9.2,12.354,9.083,12.636,8.847,12.866z"/>
</g>
</svg>
