<?xml version="1.0" encoding="utf-8"?>
<!-- Generator: Adobe Illustrator 16.0.0, SVG Export Plug-In . SVG Version: 6.00 Build 0)  -->
<!DOCTYPE svg PUBLIC "-//W3C//DTD SVG 1.1//EN" "http://www.w3.org/Graphics/SVG/1.1/DTD/svg11.dtd">
<svg version="1.1" id="图层_1" xmlns="http://www.w3.org/2000/svg" xmlns:xlink="http://www.w3.org/1999/xlink" x="0px" y="0px"
	 width="16px" height="16px" viewBox="0 0 16 16" enable-background="new 0 0 16 16" xml:space="preserve">
<g>
	<path fill="#9D9D9D" d="M15.673,12.726L9.396,1.854c-0.768-1.33-2.022-1.33-2.791,0L0.328,12.726
		c-0.769,1.331-0.14,2.416,1.395,2.416h12.556C15.812,15.142,16.439,14.056,15.673,12.726z M7.138,4.939
		C7.364,4.695,7.65,4.573,8,4.573c0.351,0,0.637,0.121,0.862,0.361c0.225,0.241,0.337,0.542,0.337,0.904
		c0,0.312-0.468,2.603-0.625,4.27H7.447C7.311,8.441,6.802,6.15,6.802,5.838C6.802,5.482,6.914,5.182,7.138,4.939z M8.847,12.865
		C8.609,13.097,8.327,13.212,8,13.212c-0.326,0-0.608-0.115-0.847-0.347C6.917,12.636,6.8,12.355,6.8,12.027
		c0-0.325,0.117-0.608,0.354-0.845C7.392,10.946,7.674,10.828,8,10.828c0.327,0,0.609,0.118,0.847,0.354s0.355,0.52,0.355,0.845
		C9.202,12.355,9.084,12.635,8.847,12.865z"/>
</g>
</svg>
