<svg xmlns="http://www.w3.org/2000/svg" xmlns:xlink="http://www.w3.org/1999/xlink" viewBox="0 0 236.96 169"><defs><style>.cls-1{mask:url(#mask);filter:url(#luminosity-noclip-2);}.cls-2{mix-blend-mode:multiply;fill:url(#radial-gradient);}.cls-3{fill:#fff;}.cls-4{mask:url(#mask-2);}.cls-5{filter:url(#luminosity-noclip);}</style><filter id="luminosity-noclip" x="117.99" y="-8019.59" width="118.97" height="32766" filterUnits="userSpaceOnUse" color-interpolation-filters="sRGB"><feFlood flood-color="#fff" result="bg"/><feBlend in="SourceGraphic" in2="bg"/></filter><mask id="mask" x="117.99" y="-8019.59" width="118.97" height="32766" maskUnits="userSpaceOnUse"><g class="cls-5"/></mask><radialGradient id="radial-gradient" cx="73.7" cy="114.12" r="144.5" gradientUnits="userSpaceOnUse"><stop offset="0" stop-color="#fff"/><stop offset="1"/></radialGradient><filter id="luminosity-noclip-2" x="117.99" y="22.81" width="118.97" height="105.6" filterUnits="userSpaceOnUse" color-interpolation-filters="sRGB"><feFlood flood-color="#fff" result="bg"/><feBlend in="SourceGraphic" in2="bg"/></filter><mask id="mask-2" x="117.99" y="22.81" width="118.97" height="105.6" maskUnits="userSpaceOnUse"><g class="cls-1"><path class="cls-2" d="M230.61,127.92H212.38a6.4,6.4,0,0,1-6.35-6.45V103a6.39,6.39,0,0,1,6.35-6.44h18.23A6.39,6.39,0,0,1,237,103v18.47A6.4,6.4,0,0,1,230.61,127.92ZM185.2,91.1H161.84a6.54,6.54,0,0,1-6.54-6.55V61.21a6.54,6.54,0,0,1,6.54-6.55h17.9a6.54,6.54,0,0,0,6.54-6.54V29.36a6.54,6.54,0,0,0-6.54-6.55H161a6.55,6.55,0,0,0-6.55,6.55V47.68a6.54,6.54,0,0,1-6.55,6.54H124.53A6.55,6.55,0,0,0,118,60.77V85a6.54,6.54,0,0,0,6.54,6.55h23.35a6.54,6.54,0,0,1,6.55,6.54v23.78a6.55,6.55,0,0,0,6.55,6.55H185.2a6.54,6.54,0,0,0,6.54-6.55V97.64A6.54,6.54,0,0,0,185.2,91.1Z"/></g></mask></defs><title>【logo】云业务管理中心</title><g id="图层_2" data-name="图层 2"><g id="图层_1-2" data-name="图层 1"><path class="cls-3" d="M230.61,127.92H212.38a6.4,6.4,0,0,1-6.35-6.45V103a6.39,6.39,0,0,1,6.35-6.44h18.23A6.39,6.39,0,0,1,237,103v18.47A6.4,6.4,0,0,1,230.61,127.92ZM185.2,91.1H161.84a6.54,6.54,0,0,1-6.54-6.55V61.21a6.54,6.54,0,0,1,6.54-6.55h17.9a6.54,6.54,0,0,0,6.54-6.54V29.36a6.54,6.54,0,0,0-6.54-6.55H161a6.55,6.55,0,0,0-6.55,6.55V47.68a6.54,6.54,0,0,1-6.55,6.54H124.53A6.55,6.55,0,0,0,118,60.77V85a6.54,6.54,0,0,0,6.54,6.55h23.35a6.54,6.54,0,0,1,6.55,6.54v23.78a6.55,6.55,0,0,0,6.55,6.55H185.2a6.54,6.54,0,0,0,6.54-6.55V97.64A6.54,6.54,0,0,0,185.2,91.1Z"/><g class="cls-4"><path class="cls-3" d="M230.61,127.92H212.38a6.4,6.4,0,0,1-6.35-6.45V103a6.39,6.39,0,0,1,6.35-6.44h18.23A6.39,6.39,0,0,1,237,103v18.47A6.4,6.4,0,0,1,230.61,127.92ZM185.2,91.1H161.84a6.54,6.54,0,0,1-6.54-6.55V61.21a6.54,6.54,0,0,1,6.54-6.55h17.9a6.54,6.54,0,0,0,6.54-6.54V29.36a6.54,6.54,0,0,0-6.54-6.55H161a6.55,6.55,0,0,0-6.55,6.55V47.68a6.54,6.54,0,0,1-6.55,6.54H124.53A6.55,6.55,0,0,0,118,60.77V85a6.54,6.54,0,0,0,6.54,6.55h23.35a6.54,6.54,0,0,1,6.55,6.54v23.78a6.55,6.55,0,0,0,6.55,6.55H185.2a6.54,6.54,0,0,0,6.54-6.55V97.64A6.54,6.54,0,0,0,185.2,91.1Z"/></g><path class="cls-3" d="M230.61,127.92H212.38a6.4,6.4,0,0,1-6.35-6.45V103a6.39,6.39,0,0,1,6.35-6.44h18.23A6.39,6.39,0,0,1,237,103v18.47A6.4,6.4,0,0,1,230.61,127.92ZM185.2,91.1H161.84a6.54,6.54,0,0,1-6.54-6.55V61.21a6.54,6.54,0,0,1,6.54-6.55h17.9a6.54,6.54,0,0,0,6.54-6.54V29.36a6.54,6.54,0,0,0-6.54-6.55H161a6.55,6.55,0,0,0-6.55,6.55V47.68a6.54,6.54,0,0,1-6.55,6.54H124.53A6.55,6.55,0,0,0,118,60.77V85a6.54,6.54,0,0,0,6.54,6.55h23.35a6.54,6.54,0,0,1,6.55,6.54v23.78a6.55,6.55,0,0,0,6.55,6.55H185.2a6.54,6.54,0,0,0,6.54-6.55V97.64A6.54,6.54,0,0,0,185.2,91.1Z"/><path class="cls-3" d="M91.36,54h21.8a7.42,7.42,0,0,0,7.42-7.42V30.69C120.58,13.47,105.74,0,82.71,0,60.39,0,39.58,18.78,38.3,39.64h0A44.63,44.63,0,0,0,9,110.73,97.07,97.07,0,0,0,26.09,85.57a9.21,9.21,0,1,1,7.59,3.27,104.32,104.32,0,0,1-19,28,44.57,44.57,0,0,0,27.93,11.49,153.1,153.1,0,0,0,15-17.29,6.8,6.8,0,1,1,3.81,2,148.5,148.5,0,0,1-12.27,15.31h64a7.42,7.42,0,0,0,7.42-7.43V99a7.42,7.42,0,0,0-7.42-7.43H91.36a7.5,7.5,0,0,1-4-1.16,7.41,7.41,0,0,1-3.24-4.59,7.07,7.07,0,0,1-.19-1.67V61.4A7.42,7.42,0,0,1,91.36,54Z"/><path class="cls-3" d="M37.17,81.31a4.35,4.35,0,1,0-5.68,2.37A4.35,4.35,0,0,0,37.17,81.31Z"/><path class="cls-3" d="M65.61,107.51a3.28,3.28,0,1,0-4.2,1.95A3.29,3.29,0,0,0,65.61,107.51Z"/><path class="cls-3" d="M182.88,73a10,10,0,0,1,.82,4,8.37,8.37,0,0,1-1.12,4.29,6.62,6.62,0,0,1-4.79,3.36,28.1,28.1,0,0,1-4.11.22H161.13V78.45h11.54a6.45,6.45,0,0,0,2.68-.31,1.11,1.11,0,0,0,.58-1.09,1.33,1.33,0,0,0-.75-1.34,4,4,0,0,0-1.93-.3h-.68V69h1.76a14.14,14.14,0,0,1,4.53.55A6.44,6.44,0,0,1,182.88,73Z"/><path class="cls-3" d="M194.69,72,199,84.54l-.15.35h-6.4l-7.81-18.56h-13.5a16.41,16.41,0,0,0-2.75.18c-.23,0-.58.14-.58,1.12,0,.77.28,1,.55,1.06l0,0a6.17,6.17,0,0,0,2.33.28h1v6.41h-2.68c-2.87,0-4.93-.54-6.29-1.66a7.56,7.56,0,0,1-2-2.64,8.15,8.15,0,0,1-.69-3.34,8.6,8.6,0,0,1,1.6-5A7.06,7.06,0,0,1,166.88,60c.73-.07,1.76-.11,3.15-.11H190L194.68,72Z"/><polygon class="cls-3" points="227.88 59.89 229.26 59.89 229.26 75.95 226.15 84.89 219.48 84.89 215.96 74.25 215.96 84.89 208.98 84.89 208.98 61.68 199.47 83.4 196.18 73.78 201.68 59.89 218.08 59.89 222.85 74.87 227.88 59.89"/><rect class="cls-3" x="230.1" y="59.89" width="6.86" height="25"/><path class="cls-3" d="M6.34,154.94H0v-3.83H27.05v3.83H10.91l-3.68,9.37H20.71l-2-5h4.51l3.87,9.52H22.56l-.3-.71H1.14Zm-4.52-12.8h23.4V146H1.82Z"/><path class="cls-3" d="M35,165.24h6.8V142.07H46.1v23.17h4.45V142.07h4.3v23.17h6.8v3.69H35Zm3.89-19.79,2.29,17.37H37.48l-2.29-17.37Zm22.44.48-2.1,16.89H55.53l2.1-16.89Z"/><path class="cls-3" d="M96.22,156.76q-3-.15-6.41-.54A52.55,52.55,0,0,1,82.9,155,51.53,51.53,0,0,1,76,156.22q-3.43.39-6.41.54v-3.68L73,152.8c1-.1,2-.2,3-.32a20.43,20.43,0,0,1-3.23-1.93,14.53,14.53,0,0,1-2.58-2.42H76a28.81,28.81,0,0,0,3.37,1.77,27,27,0,0,0,3.52,1.24,30.16,30.16,0,0,0,4.1-1.52,31.12,31.12,0,0,0,3.91-2.2H69.83l2.35-5.35H76l-.9,2H96.22v3.35a13.29,13.29,0,0,1-2.76,2.85,21.23,21.23,0,0,1-3.57,2.21c.94.12,2,.22,3,.32l3.33.28Zm.47,8.57a4.06,4.06,0,0,1-.23,1.37,4,4,0,0,1-.62,1.11,2.83,2.83,0,0,1-.93.76,2.39,2.39,0,0,1-1.13.28H86.86l1.39-3.27H91.9a.86.86,0,0,0,.68-.33,1.34,1.34,0,0,0,.28-.85v-3.32H79.19l-4.57,7.81H70l4.61-7.81H70v-2.87h6.31l1.05-1.86H82l-1.08,1.86h15.8v7.12Z"/><path class="cls-3" d="M117.57,145.67h-2.88l.81,1.79h-3.59l-.83-1.79h-1.49l-.68,1.79h-4.26l2.1-5.36H111l-.4,1h7Zm10.94,3.5a2.73,2.73,0,0,1,1.28.32,3.17,3.17,0,0,1,1,.85,4.18,4.18,0,0,1,.69,1.27,4.38,4.38,0,0,1,.27,1.54v.67h-2.17v3.65a3.06,3.06,0,0,1-.71,2,2.14,2.14,0,0,1-1.7.86h-16v1.3h18.39V166a3.42,3.42,0,0,1-.18,1.12,3.21,3.21,0,0,1-.51.91,2.36,2.36,0,0,1-.77.61,2.11,2.11,0,0,1-1,.23H107V153.82h-2.38v-4.65h11l-.46-1h4.67l.46,1Zm-19.63,2.49v1.45h18.67v-.48a1,1,0,0,0-.23-.69.73.73,0,0,0-.57-.28H108.88Zm16.54,4.21H111.23v1.75h13.69c.33,0,.5-.2.5-.6Zm-14.19,8.59v1.71h13.69c.33,0,.5-.2.5-.59v-1.12Zm13.54-22.36-.43,1h7v2.53h-2.87l.83,1.79h-3.61l-.84-1.79h-1.48l-.68,1.79H118.4l2.1-5.36Z"/><path class="cls-3" d="M139.75,142.07h9.92v3.68h-2.81v6.84h2.53v3.69h-2.53v9h2.81V169h-9.92v-3.68h2.81v-9h-2.5v-3.69h2.5v-6.84h-2.81Zm27,26.89h-16.1v-3.05h5.9v-3.42h-5.68v-3.13h5.68V157h-5.81V142H166.7v10.86a4.84,4.84,0,0,1-.26,1.6,4.39,4.39,0,0,1-.73,1.31,3.46,3.46,0,0,1-1.08.87,2.9,2.9,0,0,1-1.33.32h-2.41v2.41h5.66v3.13h-5.66v3.42h5.9Zm-12-23.92v2.83h1.85V145Zm1.85,8.86v-3h-1.85v3Zm6.15-8.86h-1.85v2.83h1.85Zm0,5.88h-1.85v3h.9a.89.89,0,0,0,.68-.34,1.31,1.31,0,0,0,.27-.85Z"/><path class="cls-3" d="M190.36,142.14v2.23H201.8v16.45a3.83,3.83,0,0,1-.86,2.52,2.65,2.65,0,0,1-2.11,1h-8.47v4.42h-4.14v-4.42H174.75v-20h11.47v-2.23Zm-4.14,18.79v-13.1H178.9v13.1Zm4.14-13.1v13.1H197a.61.61,0,0,0,.48-.25.88.88,0,0,0,.2-.57V147.83Z"/><path class="cls-3" d="M211.8,144.89h4.14l-2,22.25h-4.17Zm9-2.75v22.4a.83.83,0,0,0,.2.57.6.6,0,0,0,.48.24h8.81l-1.06,3.46h-9.7a2.6,2.6,0,0,1-2.1-1,3.81,3.81,0,0,1-.87-2.53v-23.1Zm8.47,20.61h-4.33l-3-20h4.33Zm7.69,5.51h-4.33l-4-23.37H233Z"/></g></g></svg>