<svg xmlns="http://www.w3.org/2000/svg" xmlns:xlink="http://www.w3.org/1999/xlink" viewBox="0 0 236.96 128.41"><defs><style>.cls-1{mask:url(#mask);filter:url(#luminosity-noclip-2);}.cls-2{mix-blend-mode:multiply;fill:url(#radial-gradient);}.cls-3{fill:#fff;}.cls-4{mask:url(#mask-2);}.cls-5{filter:url(#luminosity-noclip);}</style><filter id="luminosity-noclip" x="117.99" y="-8254.78" width="118.97" height="32766" filterUnits="userSpaceOnUse" color-interpolation-filters="sRGB"><feFlood flood-color="#fff" result="bg"/><feBlend in="SourceGraphic" in2="bg"/></filter><mask id="mask" x="117.99" y="-8254.78" width="118.97" height="32766" maskUnits="userSpaceOnUse"><g class="cls-5"/></mask><radialGradient id="radial-gradient" cx="73.7" cy="114.12" r="144.5" gradientUnits="userSpaceOnUse"><stop offset="0" stop-color="#fff"/><stop offset="1"/></radialGradient><filter id="luminosity-noclip-2" x="117.99" y="22.81" width="118.97" height="105.6" filterUnits="userSpaceOnUse" color-interpolation-filters="sRGB"><feFlood flood-color="#fff" result="bg"/><feBlend in="SourceGraphic" in2="bg"/></filter><mask id="mask-2" x="117.99" y="22.81" width="118.97" height="105.6" maskUnits="userSpaceOnUse"><g class="cls-1"><path class="cls-2" d="M230.61,127.92H212.38a6.4,6.4,0,0,1-6.35-6.45V103a6.39,6.39,0,0,1,6.35-6.44h18.23A6.39,6.39,0,0,1,237,103v18.47A6.4,6.4,0,0,1,230.61,127.92ZM185.2,91.1H161.84a6.54,6.54,0,0,1-6.54-6.55V61.21a6.54,6.54,0,0,1,6.54-6.55h17.9a6.54,6.54,0,0,0,6.54-6.54V29.36a6.54,6.54,0,0,0-6.54-6.55H161a6.54,6.54,0,0,0-6.54,6.55V47.68a6.54,6.54,0,0,1-6.55,6.54H124.53A6.55,6.55,0,0,0,118,60.77V85a6.54,6.54,0,0,0,6.54,6.55h23.35a6.54,6.54,0,0,1,6.55,6.54v23.78a6.54,6.54,0,0,0,6.54,6.55H185.2a6.54,6.54,0,0,0,6.54-6.55V97.64A6.54,6.54,0,0,0,185.2,91.1Z"/></g></mask></defs><title>【logo】SVM单个图像-白</title><g id="图层_2" data-name="图层 2"><g id="图层_1-2" data-name="图层 1"><path class="cls-3" d="M230.61,127.92H212.38a6.4,6.4,0,0,1-6.35-6.45V103a6.39,6.39,0,0,1,6.35-6.44h18.23A6.39,6.39,0,0,1,237,103v18.47A6.4,6.4,0,0,1,230.61,127.92ZM185.2,91.1H161.84a6.54,6.54,0,0,1-6.54-6.55V61.21a6.54,6.54,0,0,1,6.54-6.55h17.9a6.54,6.54,0,0,0,6.54-6.54V29.36a6.54,6.54,0,0,0-6.54-6.55H161a6.54,6.54,0,0,0-6.54,6.55V47.68a6.54,6.54,0,0,1-6.55,6.54H124.53A6.55,6.55,0,0,0,118,60.77V85a6.54,6.54,0,0,0,6.54,6.55h23.35a6.54,6.54,0,0,1,6.55,6.54v23.78a6.54,6.54,0,0,0,6.54,6.55H185.2a6.54,6.54,0,0,0,6.54-6.55V97.64A6.54,6.54,0,0,0,185.2,91.1Z"/><g class="cls-4"><path class="cls-3" d="M230.61,127.92H212.38a6.4,6.4,0,0,1-6.35-6.45V103a6.39,6.39,0,0,1,6.35-6.44h18.23A6.39,6.39,0,0,1,237,103v18.47A6.4,6.4,0,0,1,230.61,127.92ZM185.2,91.1H161.84a6.54,6.54,0,0,1-6.54-6.55V61.21a6.54,6.54,0,0,1,6.54-6.55h17.9a6.54,6.54,0,0,0,6.54-6.54V29.36a6.54,6.54,0,0,0-6.54-6.55H161a6.54,6.54,0,0,0-6.54,6.55V47.68a6.54,6.54,0,0,1-6.55,6.54H124.53A6.55,6.55,0,0,0,118,60.77V85a6.54,6.54,0,0,0,6.54,6.55h23.35a6.54,6.54,0,0,1,6.55,6.54v23.78a6.54,6.54,0,0,0,6.54,6.55H185.2a6.54,6.54,0,0,0,6.54-6.55V97.64A6.54,6.54,0,0,0,185.2,91.1Z"/></g><path class="cls-3" d="M230.61,127.92H212.38a6.4,6.4,0,0,1-6.35-6.45V103a6.39,6.39,0,0,1,6.35-6.44h18.23A6.39,6.39,0,0,1,237,103v18.47A6.4,6.4,0,0,1,230.61,127.92ZM185.2,91.1H161.84a6.54,6.54,0,0,1-6.54-6.55V61.21a6.54,6.54,0,0,1,6.54-6.55h17.9a6.54,6.54,0,0,0,6.54-6.54V29.36a6.54,6.54,0,0,0-6.54-6.55H161a6.54,6.54,0,0,0-6.54,6.55V47.68a6.54,6.54,0,0,1-6.55,6.54H124.53A6.55,6.55,0,0,0,118,60.77V85a6.54,6.54,0,0,0,6.54,6.55h23.35a6.54,6.54,0,0,1,6.55,6.54v23.78a6.54,6.54,0,0,0,6.54,6.55H185.2a6.54,6.54,0,0,0,6.54-6.55V97.64A6.54,6.54,0,0,0,185.2,91.1Z"/><path class="cls-3" d="M91.36,54h21.8a7.42,7.42,0,0,0,7.42-7.42V30.69C120.58,13.47,105.74,0,82.71,0,60.39,0,39.58,18.78,38.3,39.64h0A44.63,44.63,0,0,0,9,110.73,97.07,97.07,0,0,0,26.09,85.57a9.21,9.21,0,1,1,7.59,3.27,104.32,104.32,0,0,1-19,28,44.57,44.57,0,0,0,27.93,11.49,153.1,153.1,0,0,0,15-17.29,6.8,6.8,0,1,1,3.81,2,148.5,148.5,0,0,1-12.27,15.31h64a7.42,7.42,0,0,0,7.42-7.43V99a7.42,7.42,0,0,0-7.42-7.43H91.36a7.5,7.5,0,0,1-4-1.16,7.41,7.41,0,0,1-3.24-4.59,7.07,7.07,0,0,1-.19-1.67V61.4A7.42,7.42,0,0,1,91.36,54Z"/><path class="cls-3" d="M37.17,81.31a4.35,4.35,0,1,0-5.68,2.37A4.35,4.35,0,0,0,37.17,81.31Z"/><path class="cls-3" d="M65.61,107.51a3.28,3.28,0,1,0-4.2,1.95A3.29,3.29,0,0,0,65.61,107.51Z"/><path class="cls-3" d="M182.88,73a10,10,0,0,1,.82,4,8.37,8.37,0,0,1-1.12,4.29,6.62,6.62,0,0,1-4.79,3.36,28.1,28.1,0,0,1-4.11.22H161.13V78.45h11.54a6.45,6.45,0,0,0,2.68-.31,1.11,1.11,0,0,0,.58-1.09,1.33,1.33,0,0,0-.75-1.34,4,4,0,0,0-1.93-.3h-.68V69h1.76a14.14,14.14,0,0,1,4.53.55A6.44,6.44,0,0,1,182.88,73Z"/><path class="cls-3" d="M194.69,72,199,84.54l-.15.35h-6.4l-7.81-18.56h-13.5a16.41,16.41,0,0,0-2.75.18c-.23,0-.58.14-.58,1.12,0,.77.28,1,.55,1.06l0,0a6.17,6.17,0,0,0,2.33.28h1v6.41h-2.68c-2.87,0-4.93-.54-6.29-1.66a7.56,7.56,0,0,1-2-2.64,8.15,8.15,0,0,1-.69-3.34,8.6,8.6,0,0,1,1.6-5A7,7,0,0,1,166.88,60c.73-.07,1.76-.11,3.15-.11H190L194.68,72Z"/><polygon class="cls-3" points="227.88 59.89 229.26 59.89 229.26 75.95 226.15 84.89 219.48 84.89 215.96 74.25 215.96 84.89 208.98 84.89 208.98 61.68 199.47 83.4 196.18 73.78 201.68 59.89 218.08 59.89 222.85 74.87 227.88 59.89"/><rect class="cls-3" x="230.1" y="59.89" width="6.86" height="25"/></g></g></svg>