<?xml version="1.0" encoding="utf-8"?>
<!-- Generator: Adobe Illustrator 16.0.0, SVG Export Plug-In . SVG Version: 6.00 Build 0)  -->
<!DOCTYPE svg PUBLIC "-//W3C//DTD SVG 1.1//EN" "http://www.w3.org/Graphics/SVG/1.1/DTD/svg11.dtd">
<svg version="1.1" id="Layer_1" xmlns="http://www.w3.org/2000/svg" xmlns:xlink="http://www.w3.org/1999/xlink" x="0px" y="0px"
	 width="16px" height="16px" viewBox="0 0 16 16" enable-background="new 0 0 16 16" xml:space="preserve">
<g>
	<rect fill="none" width="16" height="16"/>
	<path fill="#6D7782" d="M4.308,3.077c-0.339,0-0.615-0.277-0.615-0.616V0.615C3.692,0.276,3.969,0,4.308,0l0,0
		c0.339,0,0.615,0.276,0.615,0.615v1.846C4.923,2.8,4.646,3.077,4.308,3.077L4.308,3.077z"/>
	<path fill="#6D7782" d="M14.154,1.231h-1.231v1.23c0,0.679-0.551,1.231-1.23,1.231s-1.231-0.552-1.231-1.231v-1.23H5.539v1.23
		c0,0.679-0.552,1.231-1.231,1.231s-1.23-0.552-1.23-1.231v-1.23H1.846C0.827,1.231,0,2.057,0,3.077v11.077
		C0,15.173,0.827,16,1.846,16h12.308C15.173,16,16,15.173,16,14.154V3.077C16,2.057,15.173,1.231,14.154,1.231z M14.769,14.154
		c0,0.339-0.276,0.615-0.615,0.615H1.846c-0.339,0-0.615-0.276-0.615-0.615V5.539h13.538V14.154z"/>
	<path fill="#6D7782" d="M11.692,3.077c-0.339,0-0.615-0.277-0.615-0.616V0.615C11.077,0.276,11.354,0,11.692,0l0,0
		c0.339,0,0.615,0.276,0.615,0.615v1.846C12.308,2.8,12.031,3.077,11.692,3.077L11.692,3.077z"/>
	
		<rect x="2.769" y="7.077" fill="none" stroke="#6D7782" stroke-width="0.6154" stroke-linecap="round" stroke-linejoin="round" stroke-miterlimit="10" width="10.462" height="6.154"/>
	
		<line fill="none" stroke="#6D7782" stroke-width="0.6154" stroke-miterlimit="10" x1="10.769" y1="7.077" x2="10.769" y2="13.231"/>
	<line fill="none" stroke="#6D7782" stroke-width="0.6154" stroke-miterlimit="10" x1="8.308" y1="7.077" x2="8.308" y2="13.231"/>
	<line fill="none" stroke="#6D7782" stroke-width="0.6154" stroke-miterlimit="10" x1="5.231" y1="7.077" x2="5.231" y2="13.231"/>
	
		<line fill="none" stroke="#6D7782" stroke-width="0.6154" stroke-linecap="round" stroke-linejoin="round" stroke-miterlimit="10" x1="2.769" y1="11.385" x2="13.231" y2="11.385"/>
	
		<line fill="none" stroke="#6D7782" stroke-width="0.6154" stroke-linecap="round" stroke-linejoin="round" stroke-miterlimit="10" x1="2.769" y1="8.923" x2="13.231" y2="8.923"/>
</g>
</svg>
