<?xml version="1.0" encoding="utf-8"?>
<!-- Generator: Adobe Illustrator 19.1.0, SVG Export Plug-In . SVG Version: 6.00 Build 0)  -->
<svg version="1.1" id="图层_1" xmlns="http://www.w3.org/2000/svg" xmlns:xlink="http://www.w3.org/1999/xlink" x="0px" y="0px"
	 viewBox="0 0 156.6 99.5" style="enable-background:new 0 0 156.6 99.5;" xml:space="preserve">
<style type="text/css">
	.st0{fill:#FFFFFF;}
</style>
<g>
	<g>
		<path class="st0" d="M77.6,43.1c-0.8,0-1.6,0.2-2.4,0.5c-0.6-1.7-2.2-3-4.1-3c-1.5,0-2.8,0.7-3.6,1.9c-0.1,0.1-0.2,0.2-0.2,0.4
			c-0.1,0.1,0,0.2,0.1,0.3c0,0,0.1,0,0.1,0c0.1,0,0.1,0,0.2-0.1c0-0.1,0.1-0.2,0.1-0.2c0.6-0.9,1.6-1.4,2.7-1.4c1.7,0,3.2,1.3,3.3,3
			l0,0.2c-0.2,0.2-0.3,0.4-0.5,0.6c0,0,0,0,0,0c0,0.1,0,0.2,0.1,0.3c0.1,0.1,0.2,0,0.3-0.1c0,0,0.1-0.1,0.1-0.2
			c0.2-0.2,0.4-0.4,0.6-0.5c0.8-0.6,1.9-0.9,2.9-0.9c2.8,0,5.1,2.3,5.1,5.1c0,2.4-1.7,4.4-3.9,4.9c-0.1,0-0.1,0-0.2,0
			c-0.1,0-0.2,0.1-0.2,0.2c0,0.1,0.1,0.2,0.2,0.2c0,0,0,0,0,0c0.3,0,0.6-0.1,0.9-0.2c2.4-0.7,4-2.9,4-5.5
			C83.3,45.6,80.8,43.1,77.6,43.1z"/>
		<g>
			<path class="st0" d="M78.2,50.1c-0.1-0.2-0.3-0.4-0.5-0.5c-0.2-0.1-0.5-0.3-0.8-0.4c-0.3-0.1-0.7-0.2-1-0.3
				c-0.3-0.1-0.5-0.1-0.7-0.2c-0.1,0-0.3-0.1-0.4-0.2c-0.1-0.1-0.2-0.1-0.3-0.2c-0.1-0.1-0.1-0.2-0.1-0.3c0-0.2,0.1-0.4,0.3-0.5
				c0.2-0.1,0.5-0.2,0.9-0.2c0.4,0,0.7,0.1,0.8,0.2c0.2,0.1,0.3,0.3,0.4,0.5c0.1,0.2,0.2,0.3,0.3,0.3c0.1,0.1,0.2,0.1,0.4,0.1
				c0.2,0,0.3-0.1,0.4-0.2c0.1-0.1,0.2-0.2,0.2-0.4c0-0.2,0-0.3-0.1-0.5c-0.1-0.2-0.2-0.3-0.4-0.5c-0.2-0.2-0.5-0.3-0.8-0.4
				c-0.3-0.1-0.7-0.1-1.1-0.1c-0.5,0-1,0.1-1.4,0.2c-0.4,0.1-0.7,0.3-0.9,0.6c-0.2,0.3-0.3,0.6-0.3,0.9c0,0.4,0.1,0.6,0.3,0.9
				c0.2,0.2,0.5,0.4,0.8,0.6c0.3,0.1,0.7,0.3,1.2,0.4c0.4,0.1,0.7,0.1,0.9,0.2c0.2,0.1,0.4,0.2,0.5,0.3c0.1,0.1,0.2,0.3,0.2,0.5
				c0,0.3-0.1,0.5-0.4,0.6c-0.3,0.2-0.6,0.3-1,0.3c-0.3,0-0.5,0-0.7-0.1c-0.2-0.1-0.3-0.2-0.4-0.3c-0.1-0.1-0.2-0.3-0.3-0.5
				c-0.1-0.2-0.2-0.3-0.3-0.4c-0.1-0.1-0.2-0.1-0.4-0.1c-0.2,0-0.3,0.1-0.4,0.2C73.1,50.8,73,50.9,73,51c0,0.3,0.1,0.5,0.3,0.8
				c0.2,0.3,0.4,0.5,0.7,0.7c0.4,0.2,1,0.3,1.6,0.3c0.6,0,1-0.1,1.4-0.2c0.4-0.2,0.7-0.4,0.9-0.7c0.2-0.3,0.3-0.6,0.3-1
				C78.4,50.6,78.3,50.3,78.2,50.1z"/>
			<path class="st0" d="M71.2,47.7c-0.1-0.2-0.2-0.4-0.2-0.5c-0.1-0.1-0.1-0.2-0.2-0.3c-0.1-0.1-0.2-0.2-0.3-0.3
				c-0.1-0.1-0.3-0.1-0.5-0.1c-0.2,0-0.3,0-0.5,0.1c-0.1,0.1-0.2,0.2-0.3,0.3c-0.1,0.1-0.2,0.2-0.2,0.4c-0.1,0.1-0.1,0.2-0.1,0.3
				c-0.1,0.2-1.2,2.8-1.4,3.2c-0.1,0.2-0.2,0.4-0.3,0.6c-0.1,0.2-0.2,0.3-0.4,0.4c-0.1,0.1-0.2,0.1-0.2,0.2
				c-0.6,0.6-1.5,0.9-2.4,0.9c-2,0-3.6-1.6-3.6-3.6c0-2,1.6-3.6,3.6-3.6c1.2,0,2.4,0.6,3,1.7c0.2,0.3,0.5,0.3,0.8,0.2
				c0.3-0.2,0.3-0.5,0.2-0.8c-0.9-1.4-2.4-2.2-4-2.2c-2.6,0-4.7,2.1-4.7,4.7c0,2.6,2.1,4.7,4.7,4.7c1.3,0.1,2.6-0.5,3.4-1.2
				c0,0,0,0,0,0c0,0,0,0,0,0l0,0c0.7-0.7,1.1-1.6,1.1-1.6h2.7l0.3,0.8c0,0.1,0.1,0.2,0.2,0.3c0.1,0.1,0.1,0.2,0.2,0.3
				c0.1,0.1,0.1,0.1,0.2,0.1c0.1,0,0.2,0.1,0.3,0.1c0.2,0,0.3-0.1,0.5-0.2c0.1-0.1,0.2-0.2,0.2-0.4c0-0.1-0.1-0.4-0.2-0.7L71.2,47.7
				z M69,50.3l1-2.5l1,2.5H69z"/>
		</g>
	</g>
</g>
</svg>
