<?xml version="1.0" encoding="utf-8"?>
<!-- Generator: Adobe Illustrator 16.0.0, SVG Export Plug-In . SVG Version: 6.00 Build 0)  -->
<!DOCTYPE svg PUBLIC "-//W3C//DTD SVG 1.1//EN" "http://www.w3.org/Graphics/SVG/1.1/DTD/svg11.dtd">
<svg version="1.1" id="图层_1" xmlns="http://www.w3.org/2000/svg" xmlns:xlink="http://www.w3.org/1999/xlink" x="0px" y="0px"
	 width="16px" height="16px" viewBox="0 0 16 16" enable-background="new 0 0 16 16" xml:space="preserve">
<g>
	<path fill="#FFFFFF" d="M15.689,13.335c-0.062-0.089-1.482-2.177-3.334-2.177c-1.854,0-3.275,2.088-3.334,2.177l-0.156,0.231
		l0.156,0.229c0.059,0.094,1.479,2.182,3.334,2.182c1.852,0,3.271-2.088,3.334-2.182l0.156-0.229L15.689,13.335z M12.355,15.143
		c-1.104,0-2.084-1.09-2.477-1.576c0.471-0.588,1.453-1.568,2.477-1.568c1.096,0,2.084,1.091,2.469,1.572
		C14.361,14.157,13.373,15.143,12.355,15.143z"/>
	<path fill="#FFFFFF" d="M8.188,14.352l-0.527-0.783l0.53-0.789c0.127-0.188,0.991-1.399,2.305-2.105
		c-0.785-0.396-1.395-0.664-1.395-0.664L9.039,9.841c0.662-0.733,1.816-2.266,2.039-4.229c0.199-1.707-0.234-3.313-1.195-4.396
		C9.197,0.438,8.292,0.005,7.236,0c-1.042,0.005-1.944,0.406-2.61,1.154C3.725,2.171,3.324,3.799,3.531,5.627
		c0.213,1.813,1.043,3.321,1.82,4.212v0.188c-0.696,0.303-4.31,1.938-4.809,3.24c-0.353,0.916-0.375,1.941-0.376,1.98L0.155,16
		h9.607C8.865,15.316,8.289,14.503,8.188,14.352z"/>
	<circle fill="#FFFFFF" cx="12.355" cy="13.567" r="1.245"/>
</g>
</svg>
