<?xml version="1.0" encoding="utf-8"?>
<!-- Generator: Adobe Illustrator 16.0.0, SVG Export Plug-In . SVG Version: 6.00 Build 0)  -->
<!DOCTYPE svg PUBLIC "-//W3C//DTD SVG 1.1//EN" "http://www.w3.org/Graphics/SVG/1.1/DTD/svg11.dtd">
<svg version="1.1" id="图层_1" xmlns="http://www.w3.org/2000/svg" xmlns:xlink="http://www.w3.org/1999/xlink" x="0px" y="0px"
	 width="16px" height="16px" viewBox="0 0 16 16" enable-background="new 0 0 16 16" xml:space="preserve">
<g>
	<path fill="#FFFFFF" d="M7.638,12.943c0-1.854,1.25-3.396,2.943-3.883V0H1.248v16h7.809C8.195,15.256,7.638,14.168,7.638,12.943z
		 M2.581,1.334h6.667v1.6H2.581V1.334z M2.581,4.268h6.667v1.6H2.581V4.268z M2.581,7.201h6.667v1.6H2.581V7.201z M6.451,14.152
		H5.452L4.72,10.818h0.84l0.397,2.576h0.009l0.401-2.576h0.841L6.451,14.152z"/>
	<path fill="#FFFFFF" d="M11.693,9.887c-1.688,0-3.062,1.367-3.062,3.057c0,1.688,1.369,3.062,3.062,3.062
		c1.688,0,3.059-1.369,3.059-3.062C14.752,11.254,13.383,9.887,11.693,9.887z M13.539,12.471l-0.812,0.793l0.191,1.114
		c0.01,0.058-0.014,0.116-0.061,0.149c-0.025,0.02-0.062,0.029-0.09,0.029c-0.024,0-0.055-0.012-0.072-0.021l-1-0.526l-1.004,0.526
		c-0.051,0.023-0.112,0.021-0.159-0.014c-0.05-0.031-0.071-0.096-0.062-0.147l0.188-1.115l-0.811-0.788
		c-0.041-0.039-0.06-0.103-0.039-0.156c0.02-0.059,0.062-0.098,0.123-0.104l1.118-0.161l0.505-1.017
		c0.051-0.104,0.221-0.104,0.271,0l0.501,1.017l1.117,0.161c0.061,0.014,0.105,0.049,0.123,0.104
		C13.596,12.371,13.58,12.432,13.539,12.471z"/>
</g>
</svg>
