<?xml version="1.0" encoding="utf-8"?>
<!-- Generator: Adobe Illustrator 19.2.1, SVG Export Plug-In . SVG Version: 6.00 Build 0)  -->
<svg version="1.1" id="图层_1" xmlns="http://www.w3.org/2000/svg" xmlns:xlink="http://www.w3.org/1999/xlink" x="0px" y="0px"
	 width="16px" height="16px" viewBox="0 0 16 16" style="enable-background:new 0 0 16 16;" xml:space="preserve">
<g>
	<g>
		<g>
			<g>
				<g>
					<g>
						<path fill="#FFFFFF" d="M3.7,8.4C3.7,8.4,3.7,8.4,3.7,8.4L3.7,9.8c0,0,0,0.1,0.1,0.1h1.4c0,0,0.1,0,0.1-0.1V8.4c0,0,0-0.1-0.1-0.1H3.7z"/>
					</g>
				</g>
			</g>
			<g>
				<g>
					<g>
						<path fill="#FFFFFF" d="M3.7,11C3.7,11,3.7,11,3.7,11l-0.1,1.4c0,0,0,0.1,0.1,0.1h1.4c0,0,0.1,0,0.1-0.1v-1.4c0,0,0-0.1-0.1-0.1"/>
					</g>
				</g>
			</g>
			<polygon fill="#FFFFFF" points="6.1,5.4 5.9,5.2 4.4,6.5 3.9,5.9 3.5,6.3 4.4,7.4 			"/>
		</g>
		<g>
			<rect fill="#FFFFFF" x="6.9" y="8.6" width="5.6" height="1"/>
		</g>
		<g>
			<rect fill="#FFFFFF" x="6.9" y="11.3" width="5.6" height="1"/>
		</g>
		<g>
			<rect fill="#FFFFFF" x="6.9" y="6" width="5.6" height="1"/>
		</g>
	</g>
	<path fill="#FFFFFF" d="M14.2,1.2H1.8C0.8,1.2,0,2.1,0,3.1v9.8c0,1,0.8,1.8,1.8,1.8h12.3c1,0,1.8-0.8,1.8-1.8V3.1C16,2.1,15.2,1.2,14.2,1.2z
		 M14.8,12.9c0,0.3-0.3,0.6-0.6,0.6H1.8c-0.3,0-0.6-0.3-0.6-0.6V4.3h13.5V12.9z"/>
</g>
</svg>
