<?xml version="1.0" encoding="utf-8"?>
<!-- Generator: Adobe Illustrator 16.0.0, SVG Export Plug-In . SVG Version: 6.00 Build 0)  -->
<!DOCTYPE svg PUBLIC "-//W3C//DTD SVG 1.1//EN" "http://www.w3.org/Graphics/SVG/1.1/DTD/svg11.dtd">
<svg version="1.1" id="图层_1" xmlns="http://www.w3.org/2000/svg" xmlns:xlink="http://www.w3.org/1999/xlink" x="0px" y="0px"
	 width="16px" height="16px" viewBox="0 0 16 16" enable-background="new 0 0 16 16" xml:space="preserve">
<g>
	<path fill="#FFFFFF" d="M9,12.896c0-1.121,0.467-2.133,1.213-2.86H0.727V1.433c0-0.329,0.276-0.607,0.604-0.607H14.67
		c0.333,0,0.604,0.278,0.604,0.607v8.176c0.271,0.188,0.515,0.42,0.729,0.668V1.433c0-0.741-0.599-1.33-1.33-1.33H1.331
		C0.596,0.103,0,0.691,0,1.433v10.314c0,0.741,0.596,1.341,1.331,1.341h4.795v1.732H5.047v1.076h5.336
		C9.543,15.164,9,14.098,9,12.896z"/>
	<path fill="#FFFFFF" d="M13,9.896c-1.657,0-3,1.347-3,3.002c0,1.656,1.343,3,3,3c1.658,0,3-1.344,3-3S14.658,9.896,13,9.896z
		 M13.562,14.822h-1.151l-0.847-3.85h0.971l0.459,2.978h0.01l0.463-2.978h0.969L13.562,14.822z"/>
	<g>
		<g>
			<path fill="#FFFFFF" d="M2.979,6.335L3.69,6.254c0.043,0.278,0.13,0.482,0.261,0.612c0.131,0.131,0.308,0.196,0.53,0.196
				c0.235,0,0.413-0.059,0.532-0.175c0.12-0.115,0.18-0.251,0.18-0.406c0-0.1-0.025-0.185-0.075-0.255
				c-0.051-0.069-0.139-0.13-0.264-0.181C4.769,6.01,4.573,5.948,4.269,5.86C3.877,5.747,3.602,5.608,3.443,5.443
				C3.221,5.212,3.109,4.929,3.109,4.596c0-0.215,0.053-0.416,0.157-0.603s0.255-0.329,0.452-0.427
				C3.915,3.468,4.153,3.42,4.432,3.42c0.455,0,0.798,0.116,1.027,0.348S5.81,4.309,5.821,4.696L5.09,4.733
				C5.059,4.517,4.991,4.361,4.888,4.267C4.785,4.172,4.631,4.124,4.425,4.124c-0.213,0-0.379,0.051-0.5,0.152
				C3.848,4.342,3.809,4.429,3.809,4.538c0,0.1,0.037,0.185,0.109,0.256C4.01,4.884,4.234,4.978,4.59,5.075
				c0.356,0.099,0.619,0.199,0.79,0.304s0.304,0.247,0.4,0.429c0.097,0.181,0.145,0.404,0.145,0.671
				c0,0.241-0.058,0.468-0.173,0.679c-0.115,0.211-0.278,0.367-0.489,0.47C5.052,7.731,4.789,7.781,4.474,7.781
				c-0.458,0-0.81-0.124-1.055-0.37C3.173,7.165,3.026,6.807,2.979,6.335z"/>
			<path fill="#FFFFFF" d="M6.355,6.335l0.712-0.081c0.042,0.278,0.129,0.482,0.261,0.612c0.131,0.131,0.308,0.196,0.529,0.196
				c0.236,0,0.414-0.059,0.533-0.175c0.12-0.115,0.178-0.25,0.178-0.406c0-0.1-0.023-0.185-0.074-0.255
				c-0.05-0.069-0.138-0.131-0.263-0.182C8.146,6.01,7.95,5.948,7.646,5.86C7.253,5.747,6.978,5.608,6.819,5.443
				C6.598,5.212,6.486,4.929,6.486,4.596c0-0.215,0.052-0.416,0.156-0.603c0.105-0.187,0.256-0.329,0.453-0.427
				C7.292,3.469,7.53,3.42,7.809,3.42c0.455,0,0.796,0.116,1.026,0.348s0.351,0.541,0.362,0.928L8.466,4.733
				C8.435,4.517,8.367,4.361,8.265,4.267C8.161,4.172,8.007,4.124,7.801,4.124c-0.212,0-0.379,0.051-0.499,0.152
				C7.225,4.342,7.186,4.429,7.186,4.538c0,0.1,0.036,0.185,0.108,0.256c0.093,0.09,0.316,0.184,0.673,0.281
				c0.355,0.099,0.619,0.199,0.789,0.304c0.171,0.104,0.305,0.247,0.401,0.429c0.096,0.181,0.145,0.404,0.145,0.671
				c0,0.241-0.058,0.468-0.174,0.679C9.014,7.368,8.85,7.524,8.639,7.627C8.428,7.73,8.165,7.781,7.851,7.781
				c-0.458,0-0.811-0.124-1.056-0.37S6.402,6.807,6.355,6.335z"/>
			<path fill="#FFFFFF" d="M9.92,7.706V3.491h0.73V5.15h1.435V3.491h0.731v4.215h-0.731V5.863H10.65v1.843H9.92z"/>
		</g>
	</g>
</g>
</svg>
