<?xml version="1.0" encoding="utf-8"?>
<!-- Generator: Adobe Illustrator 16.0.0, SVG Export Plug-In . SVG Version: 6.00 Build 0)  -->
<!DOCTYPE svg PUBLIC "-//W3C//DTD SVG 1.1//EN" "http://www.w3.org/Graphics/SVG/1.1/DTD/svg11.dtd">
<svg version="1.1" id="图层_1" xmlns="http://www.w3.org/2000/svg" xmlns:xlink="http://www.w3.org/1999/xlink" x="0px" y="0px"
	 width="16px" height="16px" viewBox="0 0 16 16" enable-background="new 0 0 16 16" xml:space="preserve">
<g>
	<g>
		<path fill="#FFFFFF" d="M14.932,10.768h-1.402V10.38C14.935,10.116,16,8.888,16,7.403c0-1.174-0.673-2.185-1.648-2.688
			c0.001-0.002,0.003-0.004,0.004-0.005c-0.017-0.009-0.034-0.012-0.051-0.02c-0.044-0.021-0.082-0.047-0.126-0.066
			c-0.004,0.005-0.009,0.01-0.013,0.015c-0.369-0.161-0.769-0.266-1.197-0.266S12.14,4.479,11.771,4.64
			c-0.004-0.005-0.009-0.01-0.012-0.015c-0.044,0.02-0.084,0.045-0.126,0.066c-0.017,0.008-0.035,0.011-0.052,0.02
			c0.002,0.001,0.004,0.003,0.005,0.005c-0.978,0.503-1.649,1.514-1.649,2.688c0,1.484,1.064,2.713,2.471,2.977v0.388h-1.402
			c-0.268,0-0.28,0.282-0.28,0.282v0.561h1.683h1.122h1.683V11.05C15.212,10.895,15.087,10.768,14.932,10.768z M12.969,4.653
			c0.354,0,0.685,0.083,0.997,0.207c-0.264,0.241-0.611,0.391-0.997,0.391s-0.733-0.149-0.997-0.391
			C12.283,4.736,12.614,4.653,12.969,4.653z M11.479,7.403c0-0.821,0.667-1.487,1.49-1.487c0.822,0,1.489,0.666,1.489,1.487
			c0,0.824-0.667,1.49-1.489,1.49C12.146,8.894,11.479,8.228,11.479,7.403z"/>
		<path fill="#FFFFFF" d="M13.757,7.403c0-0.435-0.353-0.788-0.788-0.788c-0.151,0-0.29,0.045-0.408,0.117
			c0.037-0.011,0.076-0.02,0.116-0.02c0.222,0,0.4,0.181,0.4,0.399c0,0.221-0.179,0.399-0.4,0.399c-0.221,0-0.399-0.179-0.399-0.399
			c0-0.041,0.008-0.078,0.021-0.116c-0.074,0.119-0.118,0.259-0.118,0.407c0,0.437,0.354,0.789,0.789,0.789
			S13.757,7.84,13.757,7.403z"/>
	</g>
	<g>
		<path fill="#FFFFFF" d="M12.532,2.631c-0.844-0.844-2.011-1.165-3.102-0.969c-0.14-0.218-0.299-0.427-0.488-0.616
			c-1.397-1.396-3.66-1.396-5.058,0C3.464,1.468,3.177,1.97,3.011,2.501C1.344,2.53,0,3.886,0,5.561
			c0,1.663,1.325,3.007,2.976,3.056v0.008h6.375C9.238,8.265,9.16,7.89,9.16,7.493c0-0.183,0.029-0.356,0.054-0.531H9.073
			C9.054,6.896,9.04,6.802,9.03,6.683c-0.008-0.12-0.012-0.225-0.012-0.315c0-0.127-0.022-0.221-0.067-0.283
			C8.886,5.992,8.768,5.946,8.595,5.946H7.821v1.016H7.502V4.595h1.093C8.822,4.595,9,4.638,9.13,4.724
			C9.292,4.831,9.374,5,9.374,5.231c0,0.155-0.035,0.282-0.105,0.379C9.22,5.676,9.146,5.738,9.044,5.798
			C9.137,5.835,9.2,5.875,9.235,5.916c0.061,0.07,0.093,0.179,0.093,0.327l0.007,0.168c0.47-1.572,1.909-2.727,3.634-2.727
			c0.101,0,0.195,0.022,0.294,0.03C13.093,3.322,12.854,2.952,12.532,2.631z M4.548,6.876c-0.164,0.098-0.37,0.147-0.615,0.147
			c-0.195,0-0.356-0.024-0.482-0.075C3.369,6.915,3.292,6.865,3.217,6.796c-0.093-0.083-0.155-0.174-0.189-0.27
			C2.993,6.43,2.977,6.319,2.977,6.197h0.3c0,0.195,0.07,0.342,0.211,0.438C3.6,6.713,3.746,6.75,3.929,6.75
			c0.214,0,0.374-0.039,0.481-0.118c0.092-0.068,0.138-0.162,0.138-0.28c0-0.12-0.034-0.209-0.104-0.265
			C4.375,6.03,4.242,5.979,4.045,5.934L3.56,5.823C3.43,5.791,3.326,5.747,3.25,5.688C3.12,5.586,3.056,5.445,3.056,5.265
			c0-0.204,0.064-0.373,0.191-0.505c0.146-0.152,0.354-0.228,0.622-0.228c0.363,0,0.62,0.094,0.771,0.28
			c0.102,0.123,0.151,0.281,0.151,0.475h-0.3c0-0.167-0.063-0.293-0.19-0.376c-0.106-0.07-0.237-0.104-0.396-0.104
			c-0.142,0-0.256,0.023-0.347,0.072C3.431,4.948,3.365,5.063,3.365,5.221c0,0.093,0.028,0.163,0.085,0.212
			c0.047,0.039,0.111,0.069,0.195,0.089l0.676,0.154c0.165,0.04,0.292,0.106,0.383,0.202c0.103,0.108,0.154,0.253,0.154,0.431
			C4.858,6.562,4.755,6.75,4.548,6.876z M7.044,6.962H5.296V4.595h1.725v0.284H5.616v0.725h1.296v0.283H5.616v0.791h1.428V6.962z"/>
		<path fill="#FFFFFF" d="M8.618,4.868H7.821v0.804h0.742c0.145,0,0.254-0.022,0.329-0.071c0.101-0.064,0.151-0.177,0.151-0.336
			c0-0.161-0.051-0.271-0.151-0.334C8.823,4.89,8.733,4.868,8.618,4.868z"/>
	</g>
</g>
</svg>
