<?xml version="1.0" encoding="utf-8"?>
<!-- Generator: Adobe Illustrator 16.0.0, SVG Export Plug-In . SVG Version: 6.00 Build 0)  -->
<!DOCTYPE svg PUBLIC "-//W3C//DTD SVG 1.1//EN" "http://www.w3.org/Graphics/SVG/1.1/DTD/svg11.dtd">
<svg version="1.1" id="图层_1" xmlns="http://www.w3.org/2000/svg" xmlns:xlink="http://www.w3.org/1999/xlink" x="0px" y="0px"
	 width="16px" height="16px" viewBox="0 0 16 16" enable-background="new 0 0 16 16" xml:space="preserve">
<g>
	<polygon fill="#FFFFFF" points="12.425,9.785 9.551,13.298 11.609,13.298 11.609,15.948 13.243,15.948 13.243,13.298 
		15.305,13.298 	"/>
	<path fill="#FFFFFF" d="M3.025,7.619h8.225V5.931H3.025V7.619z M13.266,2.392L13.264,0L4.122,0.003l-3.425,3.43L0.7,16l9.829-0.002
		v-1.146l-8.688,0.004L1.839,4.577l3.427-0.002V1.147l6.856-0.003v3.398l0.004-0.004v3.906l0.299-0.366l0.845,1.029v-6.72
		L13.266,2.392z M6.251,4.585h5.032V2.896H6.251V4.585z M3.025,13.688h4.811L9.217,12H3.025V13.688z M3.025,10.652h7.293
		l0.932-1.137V8.965H3.025V10.652z"/>
</g>
</svg>
