<?xml version="1.0" encoding="utf-8"?>
<!-- Generator: Adobe Illustrator 16.0.0, SVG Export Plug-In . SVG Version: 6.00 Build 0)  -->
<!DOCTYPE svg PUBLIC "-//W3C//DTD SVG 1.1//EN" "http://www.w3.org/Graphics/SVG/1.1/DTD/svg11.dtd">
<svg version="1.1" id="图层_1" xmlns="http://www.w3.org/2000/svg" xmlns:xlink="http://www.w3.org/1999/xlink" x="0px" y="0px"
	 width="16px" height="16px" viewBox="0 0 16 16" enable-background="new 0 0 16 16" xml:space="preserve">
<g>
	<g>
		<path fill="#FFFFFF" d="M8.958,11.881c-0.01-0.05-0.021-0.102-0.033-0.15c-0.036-0.123-0.077-0.237-0.129-0.352
			c-0.04-0.088-0.085-0.172-0.133-0.252c-0.004-0.005-0.006-0.012-0.011-0.02v0.002c-0.135-0.228-0.288-0.428-0.446-0.609
			c-0.026-0.032-0.043-0.051-0.065-0.078L7.73,9.927C7.55,9.686,7.419,9.438,7.419,9.148c0-1.604,1.179-1.812,1.179-2.519H5.923
			c0,0.703,1.178,0.911,1.178,2.519c0,0.425-0.269,0.754-0.585,1.108c0,0-0.086,0.099-0.201,0.238
			c-0.159,0.187-0.312,0.387-0.447,0.604H5.867c-0.003,0.01-0.006,0.02-0.011,0.021c-0.047,0.08-0.092,0.163-0.132,0.251
			C5.673,11.48,5.631,11.6,5.596,11.725c-0.014,0.049-0.023,0.104-0.034,0.149c-0.035,0.162-0.06,0.333-0.06,0.522h-0.93
			c0.005-0.215,0.021-0.41,0.044-0.596c0.006-0.055,0.016-0.102,0.023-0.148c0.02-0.131,0.042-0.256,0.069-0.369
			c0.011-0.042,0.021-0.08,0.03-0.12c0.035-0.124,0.072-0.239,0.114-0.347c0.007-0.019,0.013-0.034,0.019-0.051
			c0.053-0.125,0.108-0.242,0.17-0.353l-0.001,0.01c0.579-1.006,1.486-1.11,1.486-2.015c0-0.852-0.806-0.982-1.383-1.837
			C5.145,6.574,5.147,6.574,5.15,6.577C4.997,6.355,4.862,6.085,4.76,5.738C4.757,5.727,4.754,5.714,4.75,5.7
			C4.708,5.551,4.674,5.385,4.645,5.204C4.639,5.166,4.633,5.127,4.628,5.088C4.6,4.883,4.58,4.662,4.573,4.415h5.372
			C9.939,4.662,9.92,4.883,9.893,5.088C9.887,5.127,9.881,5.166,9.874,5.203C9.848,5.385,9.812,5.551,9.77,5.7
			C9.766,5.714,9.764,5.727,9.76,5.738C9.658,6.085,9.521,6.355,9.37,6.577c0.002-0.003,0.005-0.003,0.007-0.005
			C8.8,7.427,7.992,7.558,7.992,8.409c0,0.385,0.17,0.625,0.404,0.853l0.508-0.509C8.738,8.598,8.709,8.531,8.709,8.409
			c0-0.147,0.033-0.205,0.4-0.515c0.604-0.508,1.504-1.278,1.554-3.479h0.147c0.246,0,0.439-0.2,0.439-0.446V3.082H3.26v0.887
			c0,0.246,0.199,0.446,0.443,0.446H3.85C3.902,6.616,4.8,7.387,5.405,7.894c0.368,0.31,0.4,0.367,0.4,0.515
			c0,0.163-0.049,0.227-0.408,0.53c-0.438,0.373-1.031,0.896-1.34,1.998c-0.004,0.02-0.011,0.028-0.016,0.049
			C4,11.154,3.964,11.342,3.934,11.541c-0.005,0.033-0.014,0.062-0.018,0.096c-0.032,0.234-0.054,0.49-0.061,0.768H3.708
			c-0.244,0-0.443,0.201-0.443,0.445v0.443H2.821c-0.246,0-0.444,0.199-0.444,0.443v0.445h6.782l0.001-1.779H9.02
			C9.02,12.214,8.993,12.043,8.958,11.881z"/>
		<polygon fill="#FFFFFF" points="16,13.533 14.646,12.182 14.646,12.896 12.206,12.896 14.131,10.971 14.637,11.477 14.637,9.562 
			12.725,9.562 13.229,10.068 11.292,12.007 11.292,9.566 12.008,9.566 10.652,8.215 9.301,9.566 10.016,9.566 10.016,12.896 
			10.016,12.896 10.016,14.171 14.646,14.171 14.646,14.887 		"/>
	</g>
	<path fill="#FFFFFF" d="M3.738,7.298c-0.124-0.205-0.236-0.446-0.34-0.711C3.356,6.675,3.261,6.77,3.024,6.972
		C2.585,7.344,1.992,7.869,1.683,8.969C1.679,8.988,1.672,9.001,1.667,9.02C1.622,9.188,1.588,9.373,1.558,9.57
		c-0.006,0.035-0.015,0.062-0.02,0.098c-0.031,0.234-0.053,0.49-0.059,0.766H1.331c-0.245,0-0.444,0.203-0.444,0.446v0.444H0.443
		C0.198,11.324,0,11.523,0,11.768v0.444h2.604c0.111-0.192,0.252-0.364,0.441-0.478c0.008-0.071,0.03-0.245,0.03-0.245L3.093,11.4
		c0.034-0.221,0.076-0.438,0.129-0.635l0.026-0.082c0.024-0.088,0.053-0.166,0.081-0.248H2.862v-0.002H2.195
		C2.2,10.217,2.216,10.025,2.239,9.84c0.006-0.054,0.015-0.1,0.023-0.15c0.02-0.129,0.042-0.256,0.069-0.369
		c0.01-0.041,0.021-0.076,0.031-0.116c0.033-0.124,0.07-0.24,0.113-0.349c0.007-0.019,0.013-0.035,0.02-0.051
		C2.548,8.68,2.603,8.561,2.664,8.456L2.662,8.455C2.992,7.883,3.425,7.601,3.738,7.298z M0.887,1.113V2
		c0,0.246,0.199,0.445,0.444,0.445h0.148c0.05,2.202,0.948,2.973,1.553,3.48C3.12,6,3.188,6.059,3.243,6.109
		C3.157,5.802,3.085,5.468,3.045,5.083C2.667,4.855,2.413,4.441,2.413,3.969V3.85c-0.01-0.028-0.021-0.051-0.03-0.081
		c-0.004-0.011-0.006-0.023-0.01-0.037c-0.042-0.15-0.077-0.317-0.104-0.498C2.262,3.196,2.255,3.158,2.25,3.118
		C2.223,2.914,2.202,2.693,2.196,2.445h0.217V2.23h6.392C8.848,2.163,8.878,2.088,8.878,2V1.113H0.887z"/>
</g>
</svg>
