<?xml version="1.0" encoding="utf-8"?>
<!-- Generator: Adobe Illustrator 19.2.1, SVG Export Plug-In . SVG Version: 6.00 Build 0)  -->
<svg version="1.1" id="图层_1" xmlns="http://www.w3.org/2000/svg" xmlns:xlink="http://www.w3.org/1999/xlink" x="0px" y="0px" width="16px" height="16px" 
	 viewBox="0 0 16 16" style="enable-background:new 0 0 16 16;" xml:space="preserve">
<g>
	<path fill="#FFFFFF" d="M14.8,6c-1-1-2.4-1.4-3.7-1.1c-0.2-0.3-0.4-0.5-0.6-0.7c-1.6-1.6-4.3-1.6-6,0c-0.5,0.5-0.8,1.1-1,1.7C1.6,5.9,0,7.5,0,9.5
		c0,2,1.6,3.5,3.5,3.6v0H12v0c1,0,2-0.4,2.8-1.2C16.4,10.3,16.4,7.6,14.8,6z M6.1,7.2c-0.1,0-0.1,0-0.2-0.1L5.8,7
		C5,7.8,4.9,9.1,5.4,10.1c0,0,0,0.1,0,0.1l-0.4,0.3c0,0,0,0,0,0c0,0,0,0,0,0c0,0,0,0,0,0C4.5,9.7,4.4,9,4.6,8.3C4.7,7.6,5,7,5.5,6.5
		L5.3,6.2c0-0.1,0-0.1,0-0.2C5.4,6,5.4,6,5.5,6l0.8,0.1c0.1,0,0.1,0,0.1,0.1c0,0,0,0.1,0,0.1L6.2,7.1C6.2,7.2,6.1,7.2,6.1,7.2z
		 M10.8,10.6C10.8,10.7,10.8,10.7,10.8,10.6c-0.5,0.6-1.1,1-1.8,1.2C8.4,12,7.7,12,7,11.8L6.9,12c0,0.1-0.1,0.1-0.2,0.1
		c-0.1,0-0.1-0.1-0.1-0.1l-0.3-0.8c0,0,0-0.1,0-0.1c0,0,0.1-0.1,0.1-0.1l0.8-0.1c0.1,0,0.1,0,0.2,0.1c0,0.1,0,0.1,0,0.2l-0.1,0.2
		c1.1,0.3,2.3-0.1,3-1c0,0,0.1,0,0.1,0L10.8,10.6C10.8,10.6,10.8,10.6,10.8,10.6C10.8,10.6,10.8,10.6,10.8,10.6z M11.5,8l-0.5,0.6
		c0,0-0.1,0.1-0.1,0.1c-0.1,0-0.1,0-0.1-0.1L10.1,8c0-0.1-0.1-0.1,0-0.2c0-0.1,0.1-0.1,0.2-0.1h0.2c-0.4-1.1-1.3-1.9-2.4-2
		c0,0-0.1,0-0.1-0.1V5.1c0,0,0,0,0,0c0,0,0,0,0,0c0,0,0,0,0,0C8.8,5.2,9.4,5.5,10,6c0.5,0.5,0.9,1.1,1.1,1.7h0.3
		c0.1,0,0.1,0,0.2,0.1C11.5,7.9,11.5,7.9,11.5,8z"/>
</g>
</svg>
