<?xml version="1.0" encoding="utf-8"?>
<!-- Generator: Adobe Illustrator 16.0.0, SVG Export Plug-In . SVG Version: 6.00 Build 0)  -->
<!DOCTYPE svg PUBLIC "-//W3C//DTD SVG 1.1//EN" "http://www.w3.org/Graphics/SVG/1.1/DTD/svg11.dtd">
<svg version="1.1" id="图层_1" xmlns="http://www.w3.org/2000/svg" xmlns:xlink="http://www.w3.org/1999/xlink" x="0px" y="0px"
	 width="16px" height="16px" viewBox="0 0 16 16" enable-background="new 0 0 16 16" xml:space="preserve">
<g>
	<path fill="#FFFFFF" d="M10.227,15.83c-0.756-0.756-1.172-1.76-1.172-2.826c0-0.925,0.328-1.792,0.903-2.501
		c-0.618-0.308-1.063-0.499-1.065-0.499L8.83,9.841c0.663-0.733,1.816-2.266,2.04-4.229c0.198-1.707-0.234-3.313-1.195-4.396
		C8.988,0.438,8.084,0.005,7.027,0C5.985,0.005,5.083,0.406,4.418,1.154C3.517,2.171,3.115,3.799,3.322,5.627
		c0.213,1.813,1.043,3.321,1.82,4.212v0.188c-0.696,0.303-4.31,1.938-4.809,3.24c-0.353,0.916-0.375,1.941-0.376,1.98L-0.054,16
		h10.486C10.365,15.939,10.29,15.895,10.227,15.83z"/>
	<path fill="#FFFFFF" d="M10.934,10.885c-1.173,1.172-1.173,3.066,0,4.238c1.17,1.17,3.063,1.17,4.235-0.002
		c1.179-1.178,1.179-3.071,0.008-4.242C14.005,9.707,12.109,9.707,10.934,10.885z M15.04,12.582l0.002,0.833l-1.575,0.004
		l0.004,1.569l-0.835-0.004l0.001-1.563l-1.566-0.002l-0.002-0.833l1.567,0.002l0.005-1.574l0.832,0.002l0.002,1.566H15.04z"/>
</g>
</svg>
