<?xml version="1.0" encoding="utf-8"?>
<!-- Generator: Adobe Illustrator 16.0.0, SVG Export Plug-In . SVG Version: 6.00 Build 0)  -->
<!DOCTYPE svg PUBLIC "-//W3C//DTD SVG 1.1//EN" "http://www.w3.org/Graphics/SVG/1.1/DTD/svg11.dtd">
<svg version="1.1" id="图层_1" xmlns="http://www.w3.org/2000/svg" xmlns:xlink="http://www.w3.org/1999/xlink" x="0px" y="0px"
	 width="16px" height="16px" viewBox="0 0 16 16" enable-background="new 0 0 16 16" xml:space="preserve">
<g>
	<path fill="#FFFFFF" d="M2.805,9.025C1.256,9.025,0,10.283,0,11.83c0,1.551,1.256,2.807,2.805,2.807
		c1.549,0,2.805-1.256,2.805-2.807C5.609,10.283,4.354,9.025,2.805,9.025z M3.34,13.666h-1.1L1.436,9.998h0.926l0.436,2.832h0.01
		l0.441-2.832h0.926L3.34,13.666z"/>
	<path fill="#FFFFFF" d="M14.084,11.699l1.355-1.355h0.188L16,9.598L15.814,9.41l-0.748,0.375v0.186l-1.404,1.402l-0.498-0.389
		c0.213-0.398,0.156-0.904-0.182-1.24c-0.275-0.275-0.664-0.363-1.021-0.27l0.646,0.643v0.746h-0.746l-0.645-0.643
		c-0.096,0.352-0.01,0.733,0.271,1.016c0.338,0.336,0.844,0.395,1.24,0.18L13,11.758l-1.686,1.324
		c-0.306,0.316-0.113,0.66,0.02,0.809l0.166,0.168c0.146,0.129,0.441,0.188,0.812,0.045l1.265-1.619l1.229,1.568
		c0.316,0.305,0.66,0.113,0.812-0.016l0.17-0.168c0.127-0.146,0.313-0.443,0.045-0.811L14.084,11.699z M15.389,13.643
		c-0.086,0.086-0.227,0.086-0.311,0c-0.088-0.086-0.088-0.227,0-0.311c0.084-0.088,0.225-0.088,0.312,0
		C15.475,13.416,15.475,13.557,15.389,13.643z"/>
	<path fill="#FFFFFF" d="M3.955,8.291C3.986,8.3,4.018,8.308,4.047,8.32h8.363V7.48H3.955V8.291z"/>
	<path fill="#FFFFFF" d="M5.285,6.307v-1.17c0-0.028-0.023-0.052-0.051-0.052h-1.17c-0.029,0-0.053,0.023-0.053,0.052v1.17
		c0,0.028,0.023,0.052,0.053,0.052h1.17C5.262,6.359,5.285,6.335,5.285,6.307z"/>
	<path fill="#FFFFFF" d="M2.535,3.962h11.432v5.562c0.027,0.055,0.053,0.104,0.076,0.147l0.088-0.088V9.207l0.875-0.438V2.922
		c0-0.86-0.699-1.559-1.559-1.559H3.055c-0.859,0-1.559,0.698-1.559,1.559v5.417c0.326-0.123,0.676-0.195,1.039-0.221V3.962z"/>
	<path fill="#FFFFFF" d="M7.66,6.307v-1.17c0-0.028-0.023-0.052-0.053-0.052H6.439c-0.029,0-0.053,0.023-0.053,0.052v1.17
		c0,0.028,0.023,0.052,0.053,0.052h1.168C7.637,6.359,7.66,6.335,7.66,6.307z"/>
	<path fill="#FFFFFF" d="M12.41,5.137c0-0.028-0.023-0.052-0.053-0.052h-1.168c-0.029,0-0.06,0.023-0.06,0.052v1.17
		c0,0.028,0.021,0.052,0.06,0.052h1.168c0.022,0,0.053-0.023,0.053-0.052V5.137z"/>
	<path fill="#FFFFFF" d="M10.035,6.307v-1.17c0-0.028-0.023-0.052-0.053-0.052H8.814c-0.029,0-0.06,0.023-0.06,0.052v1.17
		c0,0.028,0.021,0.052,0.06,0.052h1.168C10.012,6.359,10.035,6.335,10.035,6.307z"/>
	<path fill="#FFFFFF" d="M10.721,11.756H6.537c0,0.025,0.008,0.049,0.008,0.074c0,0.336-0.059,0.656-0.143,0.965h3.991
		c0.063-0.125,0.146-0.248,0.254-0.361l0.043-0.047l0.377-0.295c-0.082-0.061-0.164-0.121-0.23-0.193
		C10.787,11.855,10.76,11.801,10.721,11.756z"/>
	<path fill="#FFFFFF" d="M10.316,9.984l0.154-0.586H5.62c0.22,0.254,0.409,0.531,0.554,0.838h4.111
		C10.297,10.152,10.295,10.066,10.316,9.984z"/>
</g>
</svg>
