<?xml version="1.0" encoding="utf-8"?>
<!-- Generator: Adobe Illustrator 16.0.0, SVG Export Plug-In . SVG Version: 6.00 Build 0)  -->
<!DOCTYPE svg PUBLIC "-//W3C//DTD SVG 1.1//EN" "http://www.w3.org/Graphics/SVG/1.1/DTD/svg11.dtd">
<svg version="1.1" id="图层_1" xmlns="http://www.w3.org/2000/svg" xmlns:xlink="http://www.w3.org/1999/xlink" x="0px" y="0px"
	 width="16px" height="16px" viewBox="0 0 16 16" enable-background="new 0 0 16 16" xml:space="preserve">
<g>
	<g>
		<path fill="#FFFFFF" d="M12.217,4.695c-0.729,1.335-2.699,5.087-3.432,6.43l-2.261,1.381l-0.027-0.003l0.119-2.558l0.357-0.771
			l2.431-4.453l0.533-0.984l0.149-0.286c0.019-0.015-0.21-0.136-0.194-0.141L9.561,3.12L9.168,3.843L5.974,9.688l-0.19,0.352
			l-0.114,3.93l0.034-0.003l3.506-2.218c0.741-1.371,2.241-4.307,3.585-6.751l-0.568-0.318C12.223,4.677,12.227,4.689,12.217,4.695z
			"/>
		<path fill="#FFFFFF" d="M13.848,0.92l-1.461-0.791c-0.256-0.139-0.539-0.164-0.793-0.085c-0.254,0.075-0.482,0.255-0.617,0.506
			l-0.271,0.485l3.272,1.813c0.103-0.194,0.203-0.375,0.271-0.511c0.144-0.254,0.168-0.54,0.092-0.797
			C14.268,1.281,14.094,1.059,13.848,0.92z"/>
		<polygon fill="#FFFFFF" points="9.914,2.572 13.193,4.365 13.674,3.479 10.4,1.687 		"/>
		<polygon fill="#FFFFFF" points="7.892,9.934 8.135,10.568 11.561,4.366 10.68,3.892 7.254,10.083 		"/>
	</g>
	<g>
		<g>
			<rect x="4.68" y="14.527" fill="#FFFFFF" width="8.009" height="1.473"/>
		</g>
		<g>
			<rect x="1.616" y="14.527" fill="#FFFFFF" width="1.859" height="1.473"/>
		</g>
	</g>
</g>
</svg>
