<?xml version="1.0" standalone="no"?>
<!DOCTYPE svg PUBLIC "-//W3C//DTD SVG 1.1//EN"

    "http://www.w3.org/Graphics/SVG/1.1/DTD/svg11.dtd">
<!-- Generator: Adobe Illustrator 16.0.0, SVG Export Plug-In . SVG Version: 6.00 Build 0)  -->
<svg contentScriptType="text/ecmascript" zoomAndPan="magnify" xmlns:xlink="http://www.w3.org/1999/xlink" baseProfile="full"
    contentStyleType="text/css" id="Layer_1" enable-background="new 0 0 126 126" version="1.1" xml:space="preserve"
    width="16px" preserveAspectRatio="xMidYMid meet" viewBox="0 0 126 126" height="16px" xmlns="http://www.w3.org/2000/svg"
    x="0px" y="0px"> 
    <g>  
        <path fill="#FFFFFF" d="M 62.622894 91.01905 c -1.7464561 0.0 -2.8741608 0.12096405 -3.541378 0.24193573 v 
            17.780434 c 0.66864014 0.12097931 1.7464485 0.12097931 2.7201881 0.12097931 c 7.0813255 0.0391922 11.700523 
            -3.0231552 11.700523 -9.515236 C 73.55213 94.00187 69.344955 91.01905 62.622894 91.01905 z"/>  
        <path fill="#FFFFFF" d="M 32.391445 90.939514 c -1.5896282 0.0 -2.6674404 0.11985016 -3.2334328 0.24082947 v 
            8.024376 c 0.66864204 0.11985016 1.4898319 0.16129303 2.614687 0.16129303 c 4.160124 0.0 6.7249165 
            -1.6532593 6.7249165 -4.435585 C 38.49761 92.430374 36.289234 90.939514 32.391445 90.939514 z"/>  
        <path fill="#FFFFFF" d="M 117.47149 32.37856 c -0.008552551 -0.52420616 -0.21955109 -1.0416946 -0.67718506 
            -1.4505272 L 88.75552 5.766148 c -0.0056991577 -0.0067214966 -0.017105103 -0.008961678 -0.02281189 
            -0.015681744 c -0.16680145 -0.1467328 -0.3592682 -0.26770353 -0.56455994 -0.37411308 c -0.061309814 
            -0.03136301 -0.1254654 -0.05936432 -0.18961334 -0.08736706 c -0.17821503 -0.07616663 -0.36497498 -0.13889217 
            -0.56314087 -0.18481636 c -0.0499115 -0.012320995 -0.09980774 -0.029123306 -0.15255737 -0.040323734 C 
            87.05184 5.023523 86.830864 5.0000005 86.61131 5.0000005 H 17.702705 c -3.1436148 0.0 -5.7027035 2.0105762 
            -5.7027035 4.480392 v 105.289215 c 0.0 2.4709396 2.5590887 4.4803925 5.7027035 4.4803925 h 94.0946 c 
            3.1436157 0.0 5.7026978 -2.0094528 5.7026978 -4.4803925 V 32.62946 C 117.5 32.54545 117.482895 32.462563 
            117.47149 32.37856 z M 43.06405 101.218666 c -2.6674385 1.9758453 -6.6194115 2.86409 -11.2386 2.86409 c 
            -1.0250587 0.0 -1.9517498 -0.04144287 -2.6674385 -0.12097931 v 9.71685 H 21.409458 V 86.86572 c 2.410818 
            -0.32147217 5.79965 -0.5645294 10.572813 -0.5645294 c 4.823061 0.0 8.261789 0.72582245 10.569963 2.1774673 c 
            2.2083664 1.3710022 3.6924934 3.6279984 3.6924934 6.2893524 S 45.11845 99.687485 43.06405 101.218666 z M 
            76.06416 110.45276 c -3.6397552 2.3779678 -9.182785 3.5070267 -15.954735 3.5070267 c -4.0546303 0.0 
            -6.9273643 -0.20162201 -8.880543 -0.4021225 v -26.691933 c 2.8741684 -0.36179352 6.6222725 -0.5645294 
            10.572811 -0.5645294 c 6.565239 0.0 10.826584 0.9274368 14.162659 2.9032898 c 3.5927124 2.0968246 5.8509827 
            5.4425583 5.8509827 10.241058 C 81.81391 104.64728 79.40167 108.234955 76.06416 110.45276 z M 108.09339 
            91.54326 h -13.292999 v 6.208702 h 12.41906 v 5.0001144 h -12.41906 v 10.926552 h -7.849762 V 86.50393 h 
            21.142761 V 91.54326 z M 17.702705 81.0737 V 9.480392 h 66.05725 v 22.923927 c 0.0 1.2365837 1.2759857 
            2.2401962 2.8513565 2.2401962 H 111.7973 l 0.0028533936 46.429184 H 17.702705 z"/>  
        <path fill="#FFFFFF" d="M 94.00487 53.150772 c -0.16680908 -0.012321472 -4.185791 -0.30018616 -10.353264 
            -0.30018616 c -1.9317932 0.0 -3.8792648 0.029125214 -5.799652 0.086250305 c -12.179546 -7.18095 -22.156422 
            -14.3675 -27.497002 -18.39537 c 0.0969429 -0.44356155 0.16395187 -0.7941513 0.19531631 -1.062973 c 
            0.70428467 -5.842434 -0.0784111 -9.786301 -2.3195763 -11.722946 c -1.4670181 -1.2657127 -3.6226425 
            -1.6868687 -5.869503 -1.2041054 c -1.3957367 0.28674316 -3.979065 1.3508358 -4.805954 3.5159855 c -0.9138584 
            2.3925285 0.5545883 5.2969456 4.4110374 8.665079 c 0.061306 0.05040741 1.370079 1.1279373 3.748104 2.9536972 
            c -1.545433 5.7897873 -5.591503 18.284481 -7.554657 24.28373 c -4.610634 1.9355278 -8.451405 4.2675705 
            -11.425364 6.941246 l -0.19531822 0.17473602 l -0.12546158 0.21057129 c -0.30652046 0.5051651 -1.770689 
            3.1295624 -0.6714897 5.237587 c 0.5018368 0.9576874 1.4427834 1.6577454 2.7201881 2.0251312 l 0.3421631 
            0.07280731 c 0.0 0.0 0.30937004 0.052642822 0.8525543 0.052642822 c 2.378027 0.0 8.250385 -0.98231506 
            11.3997 -10.099922 l 0.7627373 -2.3107643 c 10.993385 -4.198124 24.735481 -5.5523224 34.69525 -5.9297943 c 
            5.1238785 2.9850616 10.222084 5.7270584 15.162048 8.15543 L 91.837845 64.573524 c 0.23950958 0.095214844 
            2.40654 0.936409 4.9428177 0.9375305 l 0.0 0.0 c 3.6254883 0.0 6.272972 -1.7473526 7.2595367 -4.7940216 l 
            0.04989624 -0.20833588 c 0.2751541 -1.7406349 -0.28085327 -3.3098907 -1.6095886 -4.5364 C 99.68191 53.388233 
            94.472496 53.163094 94.00487 53.150772 z M 29.745388 71.32324 c -0.022813797 -0.02016449 -0.032791138 
            -0.04032135 -0.044200897 -0.06272125 c -0.23666 -0.4469223 0.047052383 -1.5322952 0.46477318 -2.327568 c 
            1.793499 -1.5748596 3.946272 -3.0209045 6.4298 -4.3224564 C 34.176388 70.76207 30.659248 71.293 29.745388 
            71.32324 z M 45.102764 30.449747 L 45.102764 30.449747 c -3.7138824 -3.2482815 -3.6582832 -4.858984 
            -3.4586868 -5.4011116 c 0.32790375 -0.90615845 1.8077545 -1.2489109 1.820591 -1.2522697 c 0.74562836 
            -0.1590538 1.197567 -0.12769127 1.6010284 0.21953964 c 0.9110069 0.7863102 1.6937027 3.1597977 1.3843346 
            7.512497 C 45.57324 30.836185 45.102764 30.449747 45.102764 30.449747 z M 43.18381 58.115047 l 0.06415558 
            -0.19265747 l -0.008552551 0.0022392273 c 1.8605042 -5.7237015 4.542202 -14.104275 6.0847816 -19.487469 l 
            0.055603027 0.041446686 l 0.0057029724 -0.025764465 c 4.9898643 3.691845 12.641464 9.091839 21.80286 
            14.708008 L 71.08428 53.164215 l 0.15254211 0.08961105 C 62.60578 53.82731 52.298153 55.163593 43.18381 
            58.115047 z M 99.860115 59.992336 c -0.6572342 1.8974419 -1.9218063 2.1573029 -3.0794525 2.1573029 l 0.0 0.0 
            c -1.3444214 0.0 -2.6403503 -0.4402008 -2.9354706 -0.546608 c -3.3631668 -1.65662 -6.804756 -3.4610977 
            -10.277702 -5.392147 c 0.028518677 0.0 0.052749634 0.0 0.084121704 0.0 c 5.953621 0.0 9.9184265 0.28338242 
            10.073822 0.29234314 c 0.9936981 0.029125214 4.1401596 0.39427567 5.4959793 1.6465454 C 99.754616 58.640377 
            99.95706 59.227303 99.860115 59.992336 z"/> </g> </svg>