<?xml version="1.0" encoding="utf-8"?>
<!-- Generator: Adobe Illustrator 16.0.0, SVG Export Plug-In . SVG Version: 6.00 Build 0)  -->
<!DOCTYPE svg PUBLIC "-//W3C//DTD SVG 1.1//EN" "http://www.w3.org/Graphics/SVG/1.1/DTD/svg11.dtd">
<svg version="1.1" id="图层_1" xmlns="http://www.w3.org/2000/svg" xmlns:xlink="http://www.w3.org/1999/xlink" x="0px" y="0px"
	 width="16px" height="16px" viewBox="0 0 16 16" enable-background="new 0 0 16 16" xml:space="preserve">
<g>
	<path fill="#FFFFFF" d="M8.893,14.732c-0.676-0.135-1.165-0.73-1.165-1.416v-1.551c0-0.809,0.65-1.459,1.452-1.459h0.672V0H0.518
		v16h9.333v-1.247H9.087C9.021,14.753,8.956,14.746,8.893,14.732z M1.851,1.332h6.667v1.602H1.851V1.332z M1.851,4.266h6.667v1.6
		H1.851V4.266z M1.851,7.199h6.667v1.6H1.851V7.199z M5.721,14.15H4.722L3.99,10.816h0.84l0.397,2.576h0.009l0.401-2.576h0.841
		L5.721,14.15z"/>
	<path fill="#FFFFFF" d="M14.998,9.1h-1.629c-0.268,0-0.484,0.221-0.484,0.489v1.082l-1.762,0.955
		c-0.061-0.183-0.225-0.317-0.424-0.317H9.18c-0.25,0-0.451,0.207-0.451,0.459v1.549c0,0.227,0.155,0.396,0.359,0.438h0.648v0.001
		h0.404v-0.001h0.58c0.172-0.007,0.312-0.104,0.385-0.248l1.315,1.06v1.062c0,0.188,0.14,0.34,0.312,0.375h0.558l0,0h0.346V16h0.496
		c0.205-0.01,0.369-0.164,0.369-0.375v-1.327c0-0.216-0.174-0.394-0.387-0.394h-1.304c-0.146,0-0.266,0.082-0.328,0.197
		l-1.334-1.066v-0.971l1.73-0.939v0.126c0,0.239,0.168,0.426,0.391,0.472h0.691l0,0H14.4l0,0h0.621
		c0.256-0.014,0.461-0.205,0.461-0.472v-1.66C15.482,9.318,15.264,9.1,14.998,9.1z"/>
</g>
</svg>
