<?xml version="1.0" encoding="utf-8"?>
<!-- Generator: Adobe Illustrator 16.0.0, SVG Export Plug-In . SVG Version: 6.00 Build 0)  -->
<!DOCTYPE svg PUBLIC "-//W3C//DTD SVG 1.1//EN" "http://www.w3.org/Graphics/SVG/1.1/DTD/svg11.dtd">
<svg version="1.1" id="图层_1" xmlns="http://www.w3.org/2000/svg" xmlns:xlink="http://www.w3.org/1999/xlink" x="0px" y="0px"
	 width="16px" height="16px" viewBox="0 0 16 16" enable-background="new 0 0 16 16" xml:space="preserve">
<g>
	<path fill="#FFFFFF" d="M10.341,4.443c0.173,0,0.341-0.09,0.435-0.25l0.312-0.541c0.139-0.238,0.057-0.544-0.186-0.682
		c-0.238-0.139-0.545-0.057-0.682,0.183L9.908,3.694c-0.137,0.239-0.055,0.544,0.184,0.683C10.171,4.422,10.257,4.443,10.341,4.443z
		"/>
	<path fill="#FFFFFF" d="M8.5,3.316V2.692c0-0.276-0.224-0.499-0.5-0.499S7.5,2.416,7.5,2.692v0.624c0,0.275,0.224,0.5,0.5,0.5
		S8.5,3.592,8.5,3.316z"/>
	<path fill="#FFFFFF" d="M4.194,5.226L3.653,4.913c-0.24-0.139-0.545-0.056-0.682,0.183C2.833,5.335,2.915,5.641,3.154,5.778
		L3.695,6.09C3.774,6.136,3.86,6.157,3.944,6.157c0.173,0,0.341-0.09,0.434-0.25C4.515,5.669,4.433,5.363,4.194,5.226z"/>
	<path fill="#FFFFFF" d="M6.868,8c0,0.625,0.507,1.131,1.132,1.131c0.574,0,1.045-0.43,1.117-0.985l4.154-3.119l-0.07-0.112
		L8.43,6.953C8.297,6.898,8.152,6.867,8,6.867C7.375,6.867,6.868,7.375,6.868,8z"/>
	<path fill="#FFFFFF" d="M12.184,8c0,0.275,0.229,0.499,0.5,0.499h0.625c0.274,0,0.498-0.224,0.498-0.499
		c0-0.276-0.224-0.5-0.498-0.5h-0.625C12.407,7.5,12.184,7.724,12.184,8z"/>
	<path fill="#FFFFFF" d="M3.404,11.152c0.084,0,0.17-0.021,0.249-0.066l0.541-0.312c0.239-0.138,0.321-0.438,0.183-0.682
		C4.239,9.852,3.934,9.77,3.695,9.908l-0.541,0.312c-0.239,0.137-0.32,0.438-0.183,0.682C3.063,11.062,3.231,11.152,3.404,11.152z"
		/>
	<path fill="#FFFFFF" d="M3.816,8c0-0.276-0.223-0.5-0.5-0.5H2.693c-0.276,0-0.5,0.224-0.5,0.5c0,0.275,0.223,0.499,0.5,0.499h0.624
		C3.593,8.499,3.816,8.275,3.816,8z"/>
	<path fill="#FFFFFF" d="M5.097,2.971C4.858,3.108,4.776,3.414,4.914,3.652l0.312,0.541c0.092,0.16,0.26,0.25,0.433,0.25
		c0.084,0,0.17-0.021,0.249-0.066c0.239-0.139,0.321-0.443,0.183-0.683L5.779,3.153C5.641,2.914,5.336,2.832,5.097,2.971z"/>
	<path fill="#FFFFFF" d="M8,0C3.582,0,0,3.581,0,8c0,4.418,3.582,8,8,8c0.561,0,1.107-0.061,1.637-0.169l-0.238-0.237
		C9.141,15.34,8.998,14.997,9,14.633c0-0.029,0.001-0.06,0.003-0.09c-0.087-0.078-0.157-0.17-0.222-0.268
		C8.523,14.307,8.265,14.328,8,14.328c-3.49,0-6.329-2.839-6.329-6.328C1.671,4.51,4.51,1.671,8,1.671
		c3.489,0,6.329,2.839,6.329,6.329c0,0.51-0.068,1.004-0.183,1.48c0.006,0,0.015,0,0.021,0c0.354,0,0.69,0.133,0.942,0.377
		l0.522,0.531C15.872,9.634,16,8.832,16,8C16,3.581,12.419,0,8,0z"/>
	<path fill="#FFFFFF" d="M15.18,12.139H14.48l0.5-0.498c0.139-0.137,0.139-0.354,0-0.494l-0.564-0.565
		c-0.066-0.062-0.158-0.101-0.248-0.101s-0.18,0.031-0.248,0.101l-0.496,0.498v-0.688c0-0.197-0.158-0.354-0.352-0.354h-1.051
		c-0.197,0-0.354,0.152-0.354,0.354v0.695l-0.496-0.496c-0.067-0.068-0.157-0.104-0.248-0.104c-0.088,0-0.178,0.035-0.246,0.104
		l-0.567,0.562c-0.062,0.063-0.102,0.158-0.102,0.252c0,0.092,0.036,0.182,0.102,0.246l0.492,0.49H9.912
		c-0.193,0-0.354,0.153-0.354,0.354v1.051c0,0.189,0.155,0.354,0.354,0.354H10.6l-0.494,0.496c-0.142,0.138-0.142,0.355,0,0.496
		l0.562,0.562c0.068,0.066,0.158,0.104,0.248,0.104s0.182-0.033,0.248-0.104l0.502-0.5v0.695c0,0.194,0.156,0.354,0.354,0.354h1.051
		c0.193,0,0.354-0.153,0.354-0.354V14.95l0.5,0.504c0.066,0.065,0.154,0.103,0.248,0.103c0.097,0,0.187-0.035,0.248-0.103
		l0.563-0.565c0.064-0.062,0.104-0.154,0.104-0.246c0-0.095-0.037-0.185-0.104-0.248l-0.498-0.498h0.689
		c0.194,0,0.354-0.16,0.354-0.353v-1.051C15.529,12.295,15.373,12.139,15.18,12.139z M12.544,14.502
		c-0.821,0-1.485-0.662-1.485-1.484s0.664-1.488,1.485-1.488c0.822,0,1.485,0.666,1.485,1.488S13.366,14.502,12.544,14.502z"/>
</g>
</svg>
