<?xml version="1.0" encoding="utf-8"?>
<!-- Generator: Adobe Illustrator 16.0.0, SVG Export Plug-In . SVG Version: 6.00 Build 0)  -->
<!DOCTYPE svg PUBLIC "-//W3C//DTD SVG 1.1//EN" "http://www.w3.org/Graphics/SVG/1.1/DTD/svg11.dtd">
<svg version="1.1" id="图层_1" xmlns="http://www.w3.org/2000/svg" xmlns:xlink="http://www.w3.org/1999/xlink" x="0px" y="0px"
	 width="16px" height="16px" viewBox="0 0 16 16" enable-background="new 0 0 16 16" xml:space="preserve">
<g>
	<path fill="#FFFFFF" d="M13.518,0.809l2.325,2.597c0.263,0.271,0.189,0.606-0.159,0.745l-3.178,1.415
		c-0.349,0.141-0.572-0.032-0.499-0.383l0.229-1.087C10.268,3.578,8.991,4.008,8.07,5.354c0.232-1.994,1.89-3.488,4.598-3.281
		l0.239-1.122C12.98,0.603,13.257,0.539,13.518,0.809z"/>
	<path fill="#FFFFFF" d="M3.496,6.803c-0.82,0-1.598,0.671-1.728,1.491L0.65,15.357h12.268l1.118-7.063
		c0.131-0.82-0.437-1.491-1.257-1.491H3.496z"/>
	<g>
		<path fill="#FFFFFF" d="M6.618,4.715H5.457c-0.1-0.671-0.305-1.118-1.093-1.118H1.046C0.472,3.597,0,4.101,0,4.715v7.561
			l0.828-5.229c0.13-0.82,0.908-1.491,1.729-1.491h4.107L6.618,4.715z"/>
	</g>
</g>
</svg>
