<?xml version="1.0" encoding="utf-8"?>
<!-- Generator: Adobe Illustrator 16.0.0, SVG Export Plug-In . SVG Version: 6.00 Build 0)  -->
<!DOCTYPE svg PUBLIC "-//W3C//DTD SVG 1.1//EN" "http://www.w3.org/Graphics/SVG/1.1/DTD/svg11.dtd">
<svg version="1.1" id="图层_1" xmlns="http://www.w3.org/2000/svg" xmlns:xlink="http://www.w3.org/1999/xlink" x="0px" y="0px"
	 width="16px" height="16px" viewBox="0 0 16 16" enable-background="new 0 0 16 16" xml:space="preserve">
<g>
	<rect x="6.402" y="3.353" fill="#FFFFFF" width="4.471" height="1.118"/>
	<g>
		<rect x="3.075" y="5.562" fill="#FFFFFF" width="7.798" height="1.118"/>
		<path fill="#FFFFFF" d="M9.715,11.312l3.475,4.414c0.531,0.51,1.105,0.188,1.354-0.027l0.283-0.279
			c0.213-0.245,0.534-0.745,0.073-1.357l-4.461-3.472c0.354-0.668,0.261-1.514-0.308-2.075c-0.46-0.46-1.108-0.607-1.7-0.454
			L9.51,9.141v1.246H8.262L7.187,9.311C7.03,9.9,7.175,10.552,7.635,11.012C8.199,11.577,9.047,11.674,9.715,11.312z M13.641,15.042
			c-0.143-0.146-0.143-0.381,0-0.522c0.146-0.145,0.379-0.145,0.523,0c0.141,0.146,0.141,0.377,0,0.522
			C14.02,15.184,13.785,15.184,13.641,15.042z"/>
		<path fill="#FFFFFF" d="M5.983,14.529h-4.05V4.471h3.353V1.117h6.707v7.824l0.514-0.52v-0.54l0.604-0.3V0H4.167L0.95,3.353
			l-0.136,0.14v0.978v11.175h5.38C6.017,15.279,5.947,14.896,5.983,14.529z"/>
		<path fill="#FFFFFF" d="M6.477,13.411c0.025-0.028,0.043-0.06,0.07-0.087l0.052-0.055l1.115-0.877
			c-0.063-0.028-0.123-0.066-0.185-0.104H6.874H6.402H3.05v1.116h3.353L6.477,13.411L6.477,13.411z"/>
		<path fill="#FFFFFF" d="M6.044,10.035H3.075v1.117h3.293C6.179,10.809,6.079,10.428,6.044,10.035z"/>
		<polygon fill="#FFFFFF" points="6.432,7.799 3.075,7.799 3.075,8.917 6.135,8.917 		"/>
		<path fill="#FFFFFF" d="M10.803,11.385l0.387-0.059l2.438-2.436V8.58l1.25-0.624l0.312,0.312l-0.625,1.25H14.25l-2.467,2.465
			l-0.049,0.332l-2.721,3.498c-0.619,0.236-1.117,0.145-1.355-0.068L7.379,15.46c-0.219-0.251-0.54-0.827-0.028-1.354L10.803,11.385
			z"/>
	</g>
</g>
</svg>
