<?xml version="1.0" encoding="utf-8"?>
<!-- Generator: Adobe Illustrator 16.0.0, SVG Export Plug-In . SVG Version: 6.00 Build 0)  -->
<!DOCTYPE svg PUBLIC "-//W3C//DTD SVG 1.1//EN" "http://www.w3.org/Graphics/SVG/1.1/DTD/svg11.dtd">
<svg version="1.1" id="图层_1" xmlns="http://www.w3.org/2000/svg" xmlns:xlink="http://www.w3.org/1999/xlink" x="0px" y="0px"
	 width="16px" height="16px" viewBox="0 0 16 16" enable-background="new 0 0 16 16" xml:space="preserve">
<g>
	<path fill="#FFFFFF" d="M15.877,11.875c-0.154-0.4-1.598-1.129-1.986-1.283c-0.021-0.012-0.205-0.076-0.205-0.107V10.1
		c0.33-0.34,0.822-0.998,0.912-1.792c0.139-1.18-0.5-2.137-1.349-2.143h-0.04c-0.898,0.006-1.367,0.799-1.35,1.825
		c0.188,0.106,0.363,0.235,0.516,0.406c0.49,0.558,0.717,1.375,0.616,2.23c-0.084,0.742-0.435,1.354-0.74,1.771
		c0.146,0.063,0.33,0.155,0.526,0.268H16C16,12.654,16.018,12.236,15.877,11.875z"/>
	<path fill="#FFFFFF" d="M4.501,1.105H0v13l2-9h11v-2H6.5L4.501,1.105z M7.32,13.756c0.229-0.598,1.135-1.154,1.809-1.498
		c-0.268-0.482-0.451-1.035-0.516-1.592C8.498,9.643,8.73,8.75,9.268,8.143c0.414-0.465,0.991-0.726,1.631-0.739
		c0.066-0.497,0.234-0.939,0.486-1.299H3l-3,8h7.212C7.24,13.992,7.274,13.873,7.32,13.756z"/>
	<path fill="#FFFFFF" d="M10.266,12.834c-0.387,0.152-1.854,0.881-2.014,1.283c-0.139,0.361-0.146,0.777-0.146,0.777h5.625
		c0,0,0.021-0.416-0.123-0.777c-0.147-0.402-1.598-1.131-1.981-1.283c-0.021-0.014-0.204-0.076-0.204-0.107v-0.385
		c0.33-0.34,0.822-1,0.912-1.797c0.143-1.182-0.5-2.137-1.354-2.145h-0.041C9.95,8.408,9.475,9.371,9.607,10.549
		c0.095,0.797,0.479,1.453,0.812,1.793v0.385C10.421,12.758,10.293,12.82,10.266,12.834z"/>
</g>
</svg>
