<?xml version="1.0" encoding="utf-8"?>
<!-- Generator: Adobe Illustrator 16.0.0, SVG Export Plug-In . SVG Version: 6.00 Build 0)  -->
<!DOCTYPE svg PUBLIC "-//W3C//DTD SVG 1.1//EN" "http://www.w3.org/Graphics/SVG/1.1/DTD/svg11.dtd">
<svg version="1.1" id="图层_1" xmlns="http://www.w3.org/2000/svg" xmlns:xlink="http://www.w3.org/1999/xlink" x="0px" y="0px"
	 width="16px" height="16px" viewBox="0 0 16 16" enable-background="new 0 0 16 16" xml:space="preserve">
<g>
	<path fill="#FFFFFF" d="M0,15.309h7.747V0.217H0V15.309z M3.874,13.785c-0.536,0-0.97-0.434-0.97-0.969
		c0-0.537,0.434-0.977,0.97-0.977c0.535,0,0.969,0.438,0.969,0.977C4.843,13.352,4.409,13.785,3.874,13.785z M1.109,1.474h5.532
		v1.509H1.109V1.474z M1.109,4.242h5.532v1.51H1.109V4.242z M1.109,7.009h5.532v1.509H1.109V7.009z"/>
	<rect x="8.465" y="5.232" fill="#FFFFFF" width="4.393" height="1.254"/>
	<rect x="8.465" y="0.217" fill="#FFFFFF" width="4.393" height="1.253"/>
	<rect x="8.465" y="2.734" fill="#FFFFFF" width="7.535" height="1.253"/>
	<path fill="#FFFFFF" d="M15.604,11.443H14.82l0.562-0.562c0.153-0.152,0.153-0.4,0-0.555l-0.636-0.643
		c-0.076-0.074-0.18-0.107-0.275-0.107c-0.104,0-0.205,0.033-0.281,0.107l-0.559,0.562V9.473c0-0.221-0.178-0.395-0.395-0.395
		h-1.186c-0.221,0-0.396,0.174-0.396,0.395v0.785L11.1,9.699c-0.076-0.078-0.179-0.117-0.274-0.117
		c-0.103,0-0.199,0.039-0.277,0.117L9.91,10.332c-0.072,0.076-0.114,0.178-0.114,0.283c0,0.102,0.042,0.201,0.114,0.275l0.554,0.553
		H9.686c-0.218,0-0.396,0.176-0.396,0.396v1.183c0,0.22,0.181,0.396,0.396,0.396h0.774L9.9,13.975c-0.156,0.154-0.156,0.402,0,0.561
		l0.636,0.633c0.077,0.08,0.178,0.117,0.278,0.117c0.1,0,0.203-0.037,0.274-0.117l0.565-0.562v0.785
		c0,0.219,0.177,0.396,0.396,0.396h1.186c0.217,0,0.395-0.18,0.395-0.396v-0.785l0.562,0.565c0.074,0.074,0.175,0.113,0.281,0.113
		c0.104,0,0.205-0.039,0.273-0.113l0.641-0.639c0.071-0.07,0.113-0.173,0.113-0.275c0-0.104-0.042-0.205-0.113-0.278l-0.562-0.562
		H15.6c0.224,0,0.396-0.178,0.396-0.396V11.84C16,11.619,15.824,11.443,15.604,11.443z M12.645,14.1c-0.924,0-1.67-0.744-1.67-1.668
		c0-0.926,0.746-1.674,1.67-1.674s1.67,0.748,1.67,1.674C14.312,13.355,13.566,14.1,12.645,14.1z"/>
</g>
</svg>
