<?xml version="1.0" encoding="utf-8"?>
<!-- Generator: Adobe Illustrator 16.0.0, SVG Export Plug-In . SVG Version: 6.00 Build 0)  -->
<!DOCTYPE svg PUBLIC "-//W3C//DTD SVG 1.1//EN" "http://www.w3.org/Graphics/SVG/1.1/DTD/svg11.dtd">
<svg version="1.1" id="图层_1" xmlns="http://www.w3.org/2000/svg" xmlns:xlink="http://www.w3.org/1999/xlink" x="0px" y="0px"
	 width="16px" height="16px" viewBox="0 0 16 16" enable-background="new 0 0 16 16" xml:space="preserve">
<g>
	<path fill="#FFFFFF" d="M11.203,9.428l-1.48-2.71l3.086-0.065l-0.271,0.475c0,0,1.771,1.543,0.771,3.517
		c0,0-0.681-1.84-1.699-1.908L11.203,9.428z"/>
	<path fill="#FFFFFF" d="M6.283,14.04c0-1.381,0.949-2.544,2.23-2.87l0.07-0.125c0.209-0.337,0.479-0.605,0.781-0.842V0h-9.33v16
		h6.99C6.566,15.479,6.283,14.796,6.283,14.04z M1.371,1.334h6.668v1.601H1.371V1.334z M1.371,4.267h6.668v1.6H1.371V4.267z
		 M1.371,7.2h6.668v1.601H1.371V7.2z M5.285,14.152h-1l-0.732-3.336h0.84l0.396,2.578h0.01l0.402-2.578h0.84L5.285,14.152z"/>
	<path fill="#FFFFFF" d="M15.961,13.754c0-1.229-0.99-2.225-2.215-2.244c0.16,0.312,0.258,0.66,0.258,1.034
		c0,0.854-0.475,1.591-1.17,1.983c0.42-0.346,0.715-0.834,0.805-1.396c0.021-0.117,0.035-0.238,0.035-0.363
		c0-0.25-0.049-0.481-0.125-0.713c-0.006-0.021-0.01-0.041-0.018-0.062c0,0,0-0.001,0-0.002c-0.021-0.056-0.039-0.108-0.062-0.162
		c0,0,0-0.001,0-0.002c-0.041-0.087-0.088-0.173-0.139-0.257c-0.402-0.651-1.119-1.092-1.943-1.092s-1.543,0.438-1.945,1.09
		c1.037,0.052,1.867,0.896,1.867,1.953c0,0.226-0.045,0.438-0.115,0.64c0.002-0.04,0.018-0.08,0.018-0.122
		c0-0.323-0.086-0.626-0.229-0.895c-0.01-0.021-0.021-0.041-0.028-0.062c-0.341-0.602-0.974-1.008-1.703-1.008
		c-1.082,0-1.961,0.879-1.961,1.962c0,1.062,0.848,1.923,1.899,1.954V16h4.606v-0.008C14.998,15.947,15.961,14.967,15.961,13.754z"
		/>
</g>
</svg>
