<?xml version="1.0" encoding="utf-8"?>
<!-- Generator: Adobe Illustrator 16.0.0, SVG Export Plug-In . SVG Version: 6.00 Build 0)  -->
<!DOCTYPE svg PUBLIC "-//W3C//DTD SVG 1.1//EN" "http://www.w3.org/Graphics/SVG/1.1/DTD/svg11.dtd">
<svg version="1.1" id="图层_1" xmlns="http://www.w3.org/2000/svg" xmlns:xlink="http://www.w3.org/1999/xlink" x="0px" y="0px"
	 width="16px" height="16px" viewBox="0 0 16 16" enable-background="new 0 0 16 16" xml:space="preserve">
<g>
	<path fill="#FFFFFF" d="M11.707,5.312c0.288,0.563,0.467,1.192,0.467,1.871c0,1.548-0.857,2.88-2.116,3.59
		c0.759-0.626,1.29-1.507,1.452-2.521c0.039-0.214,0.068-0.434,0.068-0.66c0-0.25-0.031-0.492-0.074-0.73c0-0.001,0-0.001,0-0.001
		c-0.029-0.161-0.076-0.314-0.124-0.467c-0.022-0.068-0.038-0.138-0.062-0.205L11.314,6.18c-0.035-0.094-0.066-0.192-0.107-0.284
		c-0.002-0.002-0.002-0.005-0.004-0.006c-0.08-0.177-0.174-0.348-0.277-0.513l0,0c-0.064-0.101-0.139-0.196-0.211-0.292L7.433,7.396
		l1.917-3.469C8.777,3.625,8.128,3.448,7.433,3.448c-1.493,0-2.795,0.79-3.524,1.973c1.881,0.091,3.382,1.63,3.382,3.537
		c0,0.407-0.083,0.792-0.208,1.157c0.004-0.075,0.022-0.145,0.022-0.221c0-0.586-0.156-1.13-0.407-1.619
		c-0.02-0.037-0.04-0.075-0.06-0.112C6.028,7.08,4.883,6.341,3.552,6.341C1.589,6.341,0,7.932,0,9.895
		c0,1.926,1.535,3.483,3.448,3.541v0.01h8.349V13.43c2.178-0.079,3.921-1.855,3.921-4.054C15.718,7.15,13.926,5.346,11.707,5.312z"
		/>
	<path fill="#FFFFFF" d="M15.148,0h-4.626c-0.469,0-0.852,0.381-0.852,0.851v2.613c0,0.142,0.034,0.272,0.095,0.39L9.457,4.427
		L8.402,6.392l1.863-1.631l0.51-0.443h4.373C15.619,4.317,16,3.934,16,3.464V0.851C16,0.381,15.619,0,15.148,0z M11.46,2.618
		c-0.302,0-0.545-0.244-0.545-0.545c0-0.3,0.243-0.545,0.545-0.545c0.301,0,0.545,0.245,0.545,0.545
		C12.005,2.374,11.761,2.618,11.46,2.618z M12.935,2.618c-0.302,0-0.545-0.244-0.545-0.545c0-0.3,0.243-0.545,0.545-0.545
		c0.301,0,0.545,0.245,0.545,0.545C13.479,2.374,13.235,2.618,12.935,2.618z M14.409,2.618c-0.303,0-0.545-0.244-0.545-0.545
		c0-0.3,0.242-0.545,0.545-0.545c0.301,0,0.545,0.245,0.545,0.545C14.954,2.374,14.71,2.618,14.409,2.618z"/>
</g>
</svg>
