<?xml version="1.0" encoding="utf-8"?>
<!-- Generator: Adobe Illustrator 16.0.0, SVG Export Plug-In . SVG Version: 6.00 Build 0)  -->
<!DOCTYPE svg PUBLIC "-//W3C//DTD SVG 1.1//EN" "http://www.w3.org/Graphics/SVG/1.1/DTD/svg11.dtd">
<svg version="1.1" id="图层_1" xmlns="http://www.w3.org/2000/svg" xmlns:xlink="http://www.w3.org/1999/xlink" x="0px" y="0px"
	 width="16px" height="16px" viewBox="0 0 16 16" enable-background="new 0 0 16 16" xml:space="preserve">
<g>
	<g>
		<path fill="#FFFFFF" d="M1.834,13.934c-0.476,0.049-0.921-0.016-1.337-0.016H0.325v-0.217c0.217-0.234,0.373-0.48,0.47-0.74H0.172
			v-0.199H2.25v0.199H1.156c-0.133,0.295-0.31,0.543-0.533,0.74c0.452,0,0.832,0.08,1.14,0.043 M0.361,12.328v-0.209H2.06v0.209
			H0.361z"/>
		<path fill="#FFFFFF" d="M2.702,14.055v-1.193H2.476v-0.195h0.516v1.012c0.114-0.031,0.229-0.092,0.344-0.17v0.234
			C3.142,13.871,2.931,13.977,2.702,14.055z M2.802,12.49c-0.03-0.15-0.085-0.307-0.163-0.469h0.253
			c0.084,0.145,0.145,0.301,0.181,0.469H2.802z M3.172,12.869v-0.197h0.561v-0.67H4.04v0.67h0.542v0.197H4.04v1.213H3.732v-1.213
			H3.172z"/>
		<path fill="#FFFFFF" d="M5.387,12.473C5.38,12.4,5.362,12.332,5.332,12.264h-0.1c-0.078,0.115-0.223,0.199-0.434,0.254v-0.145
			c0.15-0.078,0.247-0.199,0.289-0.361H5.34c-0.006,0.037-0.015,0.07-0.026,0.1h0.542v0.152h-0.28
			c0.018,0.062,0.036,0.131,0.055,0.209H5.387z M5.034,13.412v-0.904h1.627v0.625c0.006,0.168-0.072,0.262-0.235,0.279v0.154h0.461
			v0.172H6.426v0.381h-0.28v-0.381H5.531c-0.043,0.18-0.221,0.307-0.533,0.379v-0.162c0.145-0.061,0.229-0.133,0.253-0.217H4.799
			v-0.172h0.479c0.007-0.023,0.01-0.045,0.01-0.062v-0.092H5.034z M5.306,12.662v0.109h1.075v-0.109H5.306z M5.306,12.906v0.109
			h1.075v-0.109H5.306z M5.306,13.26h0.966c0.079,0.006,0.115-0.035,0.109-0.117H5.306V13.26z M5.567,13.484
			c0,0.021,0,0.053,0,0.082h0.578v-0.154H5.567V13.484z M6.39,12.473c-0.007-0.072-0.024-0.141-0.055-0.209H6.2
			c-0.073,0.109-0.205,0.188-0.398,0.229v-0.138c0.145-0.069,0.229-0.188,0.254-0.354h0.253c-0.007,0.037-0.016,0.074-0.027,0.108
			h0.596v0.152H6.562c0.023,0.065,0.045,0.137,0.063,0.209H6.39V12.473z"/>
		<path fill="#FFFFFF" d="M7.7,12.49c-0.006-0.072-0.024-0.141-0.055-0.207H7.537c-0.084,0.115-0.22,0.193-0.406,0.234v-0.146
			c0.15-0.072,0.241-0.191,0.271-0.361h0.254c-0.007,0.045-0.016,0.078-0.027,0.107h0.533v0.164h-0.29
			c0.03,0.076,0.048,0.146,0.054,0.207L7.7,12.49L7.7,12.49z M8.693,12.482c-0.006-0.078-0.021-0.146-0.045-0.199H8.521
			c-0.039,0.066-0.107,0.127-0.216,0.18v0.119h0.841v0.324H8.902v0.217c0.006,0.182-0.075,0.27-0.244,0.264H7.664v0.143h1.311v0.244
			c0.006,0.188-0.084,0.277-0.271,0.271H7.375v-1.139H7.167v-0.324h0.822v-0.119h0.146v-0.09c0.138-0.072,0.22-0.193,0.244-0.361
			h0.252l-0.025,0.107h0.586v0.164H8.875c0.02,0.061,0.036,0.127,0.055,0.199H8.693z M7.447,12.752v0.146h1.411v-0.146H7.447z
			 M7.664,13.051v0.182h0.877c0.064,0.01,0.098-0.023,0.09-0.1v-0.082H7.664z M8.693,13.693H7.664v0.18h0.932
			c0.072,0.006,0.104-0.023,0.1-0.09v-0.09H8.693z"/>
		<path fill="#FFFFFF" d="M9.436,12.311v-0.182h0.682v0.182h-0.2v0.518H10.1v0.188H9.915v0.596c0.062-0.012,0.129-0.025,0.208-0.055
			v0.186c-0.175,0.084-0.41,0.145-0.705,0.18v-0.217l0.227-0.035v-0.65H9.443V12.83h0.199v-0.516H9.436V12.311z M10.193,13.168
			v-1.074h1.229v0.785c0.008,0.193-0.09,0.289-0.289,0.289h-0.188v0.219h0.496v0.189h-0.496v0.262h0.587v0.172h-1.464v-0.172h0.604
			v-0.262h-0.497v-0.189h0.497v-0.219H10.193z M10.438,12.283v0.244h0.235v-0.244H10.438z M10.438,12.979h0.235v-0.262h-0.235
			V12.979z M11.18,12.283h-0.234v0.244h0.234V12.283z M11.055,12.979c0.09,0,0.133-0.041,0.125-0.127v-0.135h-0.234v0.262H11.055z"
			/>
		<path fill="#FFFFFF" d="M11.84,12.301v-0.199h1.889v0.199h-0.795v0.877h0.887v0.199h-0.887v0.713h-0.308v-0.713H11.74v-0.199
			h0.886v-0.877H11.84z M11.994,12.988c-0.092-0.168-0.15-0.338-0.182-0.506h0.299c0.021,0.168,0.072,0.338,0.145,0.506H11.994z
			 M13.323,12.988c0.077-0.168,0.127-0.338,0.145-0.506h0.29c-0.037,0.186-0.095,0.354-0.173,0.506H13.323z"/>
		<path fill="#FFFFFF" d="M14.271,14.018v-0.922h1.649v0.625c0.009,0.205-0.104,0.303-0.321,0.297H14.271z M14.561,13.846h0.935
			c0.097,0.008,0.142-0.045,0.136-0.152v-0.396h-1.062v0.552h-0.004v-0.004H14.561z"/>
		<rect x="0.325" y="13.701" fill="#FFFFFF" width="1.728" height="0.25"/>
		<path fill="#FFFFFF" d="M1.866,13.951c-0.029-0.182-0.084-0.373-0.162-0.57h0.253c0.084,0.176,0.145,0.367,0.181,0.57H1.866z"/>
		<rect x="11.997" y="12.76" fill="#FFFFFF" width="0.519" height="0.232"/>
		<rect x="13.066" y="12.76" fill="#FFFFFF" width="0.519" height="0.232"/>
		<path fill="#FFFFFF" d="M15.697,12.898c-0.477,0.049-0.924-0.02-1.338-0.02h-0.172v-0.217c0.06-0.062,0.39-0.357,0.522-0.654h0.36
			c-0.135,0.299-0.549,0.654-0.592,0.654c0.451,0.004,0.832,0.078,1.142,0.043"/>
		<rect x="14.188" y="12.666" fill="#FFFFFF" width="1.729" height="0.25"/>
		<path fill="#FFFFFF" d="M15.729,12.916c-0.025-0.184-0.082-0.373-0.162-0.572h0.254c0.084,0.178,0.146,0.367,0.184,0.572H15.729z"
			/>
	</g>
	<g>
		<path fill="#FFFFFF" d="M12.205,3.526c-0.557,0-1.096,0.122-1.587,0.348c-0.386-1.17-1.5-1.993-2.752-1.993
			c-0.981,0-1.874,0.489-2.414,1.301c-0.056,0.08-0.107,0.161-0.151,0.249C5.266,3.5,5.293,3.583,5.362,3.619
			c0.021,0.01,0.042,0.015,0.063,0.015c0.051,0,0.1-0.028,0.125-0.077c0.025-0.052,0.055-0.101,0.086-0.149
			c0.421-0.577,1.086-0.917,1.806-0.917c1.158,0,2.113,0.883,2.227,2.012l0.004,0.128c-0.12,0.125-0.229,0.26-0.327,0.408
			c-0.003,0.003-0.005,0.007-0.007,0.01C9.307,5.11,9.325,5.187,9.384,5.227C9.445,5.267,9.529,5.25,9.57,5.188
			C9.593,5.156,9.628,5.11,9.65,5.079c0.119-0.135,0.232-0.244,0.373-0.356c0.564-0.406,1.246-0.625,1.963-0.625
			c1.873,0,3.396,1.525,3.396,3.399c0,1.579-1.104,2.964-2.638,3.313c-0.038,0.004-0.075,0.01-0.113,0.014
			c-0.07,0.006-0.13,0.07-0.124,0.145c0.009,0.07,0.065,0.125,0.14,0.125c0.004,0,0.006,0,0.011-0.002
			c0.217-0.018,0.425-0.059,0.628-0.125c1.601-0.465,2.705-1.943,2.705-3.656C15.99,5.224,14.293,3.526,12.205,3.526z"/>
		<g>
			<path fill="#FFFFFF" d="M12.589,8.224c-0.082-0.142-0.194-0.26-0.34-0.354c-0.146-0.093-0.319-0.171-0.526-0.237
				c-0.207-0.065-0.438-0.125-0.688-0.179c-0.204-0.046-0.353-0.082-0.438-0.106c-0.088-0.024-0.176-0.058-0.263-0.101
				c-0.086-0.042-0.151-0.094-0.203-0.153c-0.049-0.06-0.071-0.131-0.071-0.212c0-0.132,0.069-0.245,0.217-0.339
				c0.146-0.093,0.336-0.141,0.57-0.141c0.258,0,0.439,0.043,0.557,0.13c0.117,0.087,0.214,0.207,0.298,0.362
				c0.062,0.108,0.123,0.185,0.177,0.232c0.057,0.048,0.135,0.071,0.239,0.071c0.114,0,0.211-0.04,0.286-0.119
				c0.078-0.079,0.115-0.167,0.115-0.267c0-0.107-0.028-0.218-0.094-0.332c-0.062-0.113-0.158-0.222-0.293-0.325
				c-0.134-0.104-0.302-0.186-0.504-0.249c-0.202-0.062-0.439-0.094-0.723-0.094c-0.348,0-0.647,0.047-0.903,0.142
				C9.74,6.047,9.544,6.182,9.409,6.357C9.273,6.532,9.205,6.732,9.205,6.958c0,0.236,0.064,0.434,0.193,0.593
				C9.525,7.709,9.7,7.836,9.919,7.928c0.22,0.092,0.49,0.173,0.815,0.242c0.242,0.05,0.437,0.098,0.58,0.143
				c0.145,0.045,0.264,0.109,0.354,0.194c0.091,0.084,0.139,0.195,0.139,0.331c0,0.171-0.084,0.312-0.256,0.43
				c-0.17,0.113-0.39,0.172-0.66,0.172c-0.197,0-0.354-0.026-0.479-0.086c-0.123-0.058-0.217-0.129-0.283-0.218
				c-0.064-0.086-0.128-0.194-0.188-0.325c-0.047-0.108-0.104-0.191-0.17-0.25C9.707,8.505,9.625,8.477,9.529,8.477
				c-0.119,0-0.219,0.037-0.295,0.107c-0.077,0.07-0.115,0.158-0.115,0.259c0,0.173,0.062,0.353,0.191,0.534
				c0.129,0.184,0.297,0.33,0.502,0.439c0.289,0.148,0.658,0.229,1.104,0.229c0.372,0,0.693-0.055,0.965-0.166
				s0.479-0.266,0.618-0.465c0.142-0.196,0.211-0.419,0.211-0.666C12.71,8.541,12.67,8.366,12.589,8.224z"/>
			<path fill="#FFFFFF" d="M7.893,6.586C7.838,6.454,7.792,6.348,7.756,6.269C7.72,6.19,7.676,6.116,7.623,6.046
				C7.571,5.978,7.502,5.921,7.416,5.878C7.331,5.834,7.225,5.812,7.098,5.812c-0.126,0-0.231,0.022-0.316,0.066
				C6.696,5.921,6.627,5.979,6.574,6.05C6.522,6.121,6.473,6.21,6.427,6.317C6.39,6.402,6.358,6.475,6.33,6.54
				C6.278,6.661,5.529,8.389,5.392,8.707C5.329,8.85,5.243,8.99,5.165,9.104C5.091,9.213,5.008,9.312,4.918,9.406
				C4.861,9.454,4.814,9.5,4.776,9.543c-0.436,0.385-1.001,0.604-1.595,0.604c-1.328,0-2.409-1.08-2.409-2.409
				s1.081-2.41,2.409-2.41c0.829,0,1.59,0.418,2.035,1.12c0.114,0.18,0.353,0.233,0.532,0.119c0.182-0.115,0.234-0.354,0.12-0.533
				C5.28,5.108,4.276,4.556,3.182,4.556C1.428,4.556,0,5.982,0,7.737c0,1.754,1.428,3.181,3.182,3.181
				c0.897,0.053,1.758-0.312,2.254-0.82c0.001-0.002,0.003-0.002,0.005-0.004c0.001-0.002,0.002-0.002,0.003-0.004l0.004-0.004
				c0.485-0.49,0.734-1.088,0.734-1.088H8.02l0.216,0.514C8.264,9.576,8.299,9.648,8.34,9.732c0.04,0.082,0.077,0.146,0.111,0.185
				c0.035,0.041,0.078,0.072,0.131,0.097c0.051,0.021,0.111,0.032,0.186,0.032c0.123,0,0.229-0.039,0.314-0.116
				C9.17,9.85,9.213,9.764,9.213,9.667c0-0.092-0.045-0.237-0.139-0.438L7.893,6.586z M6.422,8.376l0.669-1.689l0.682,1.689H6.422z"
				/>
		</g>
	</g>
</g>
</svg>
