<?xml version="1.0" encoding="utf-8"?>
<!-- Generator: Adobe Illustrator 16.0.0, SVG Export Plug-In . SVG Version: 6.00 Build 0)  -->
<!DOCTYPE svg PUBLIC "-//W3C//DTD SVG 1.1//EN" "http://www.w3.org/Graphics/SVG/1.1/DTD/svg11.dtd">
<svg version="1.1" id="图层_1" xmlns="http://www.w3.org/2000/svg" xmlns:xlink="http://www.w3.org/1999/xlink" x="0px" y="0px"
	 width="16px" height="16px" viewBox="0 0 16 16" enable-background="new 0 0 16 16" xml:space="preserve">
<g>
	<g>
		<path fill="#FFFFFF" d="M9.854,11.312l3.479,4.414c0.528,0.51,1.104,0.188,1.354-0.027l0.281-0.279
			c0.215-0.245,0.535-0.745,0.074-1.357l-4.462-3.472c0.354-0.668,0.26-1.514-0.306-2.075C9.812,8.053,9.164,7.906,8.574,8.062
			l1.074,1.079v1.246H8.401L7.327,9.311C7.17,9.9,7.315,10.552,7.775,11.012C8.34,11.577,9.188,11.674,9.854,11.312z M13.781,15.042
			c-0.143-0.146-0.143-0.381,0-0.522c0.145-0.145,0.379-0.145,0.523,0c0.141,0.146,0.141,0.377,0,0.522
			C14.16,15.184,13.926,15.184,13.781,15.042z"/>
		<path fill="#FFFFFF" d="M2.519,14.154h3.804c0.089-0.271,0.233-0.524,0.449-0.747l0.047-0.05l0.63-0.496v-0.844
			c-0.133-0.094-0.264-0.188-0.38-0.304c-0.69-0.688-0.962-1.711-0.707-2.665L6.74,7.635l0.162-0.168l0.547-0.144V4.905h-4.93
			V14.154z M8.682,1.232H6.83V0.53C6.83,0.234,6.589,0,6.298,0H3.672C3.376,0,3.135,0.234,3.135,0.53v0.702H1.291
			c-0.343,0-0.617,0.269-0.617,0.61v13.549C0.674,15.723,0.948,16,1.291,16h5.396c-0.291-0.389-0.446-0.809-0.459-1.223H1.906V2.455
			h6.157v4.707L8.32,7.095c0.233-0.062,0.474-0.093,0.715-0.093c0.089,0,0.175,0.018,0.262,0.025V1.843
			C9.297,1.501,9.016,1.232,8.682,1.232z M8.063,12.378l0.027-0.021c-0.01-0.004-0.018-0.01-0.027-0.017V12.378z"/>
		<path fill="#FFFFFF" d="M10.941,11.385l0.389-0.059l2.434-2.436V8.58l1.25-0.624l0.312,0.312l-0.625,1.25h-0.312l-2.467,2.465
			l-0.047,0.332l-2.721,3.498c-0.615,0.236-1.113,0.143-1.357-0.07L7.518,15.46c-0.219-0.251-0.54-0.827-0.028-1.354L10.941,11.385z
			"/>
	</g>
</g>
</svg>
