<?xml version="1.0" encoding="utf-8"?>
<!-- Generator: Adobe Illustrator 16.0.0, SVG Export Plug-In . SVG Version: 6.00 Build 0)  -->
<!DOCTYPE svg PUBLIC "-//W3C//DTD SVG 1.1//EN" "http://www.w3.org/Graphics/SVG/1.1/DTD/svg11.dtd">
<svg version="1.1" id="图层_1" xmlns="http://www.w3.org/2000/svg" xmlns:xlink="http://www.w3.org/1999/xlink" x="0px" y="0px"
	 width="16px" height="16px" viewBox="0 0 16 16" enable-background="new 0 0 16 16" xml:space="preserve">
<g>
	<path fill="#F74848" d="M11.107,11.807L13.654,16l2.546-4.193h-0.872c0,0-0.729-3.66-4.221-3.854c0,0,1.988,2.396,1.262,3.854
		H11.107z"/>
	<path fill="#FFFFFF" d="M9.332,10.807l-0.586-0.803L8.684,9.841c0.324-0.358,0.762-0.917,1.153-1.613L9.841,8.23
		c0.375-0.578,0.589-1.316,0.589-1.316c0.137-0.408,0.242-0.842,0.295-1.302c0.198-1.707-0.234-3.313-1.195-4.396
		C8.843,0.438,7.938,0.005,6.882,0c-1.043,0.005-1.945,0.406-2.61,1.154C3.37,2.171,2.97,3.799,3.177,5.627
		C3.389,7.44,4.219,8.948,4.996,9.839v0.188c-0.696,0.303-4.31,1.938-4.809,3.24c-0.353,0.916-0.375,1.946-0.376,1.985L-0.2,16
		h12.687L9.332,10.807z"/>
</g>
</svg>
