<?xml version="1.0" encoding="utf-8"?>
<!-- Generator: Adobe Illustrator 16.0.0, SVG Export Plug-In . SVG Version: 6.00 Build 0)  -->
<!DOCTYPE svg PUBLIC "-//W3C//DTD SVG 1.1//EN" "http://www.w3.org/Graphics/SVG/1.1/DTD/svg11.dtd">
<svg version="1.1" id="图层_1" xmlns="http://www.w3.org/2000/svg" xmlns:xlink="http://www.w3.org/1999/xlink" x="0px" y="0px"
	 width="16px" height="16px" viewBox="0 0 16 16" enable-background="new 0 0 16 16" xml:space="preserve">
<g>
	<path fill="#FFFFFF" d="M8.073,12.9c0-0.914,0.307-1.75,0.809-2.438V9.436c0-0.172,0.138-0.308,0.306-0.308h1.351
		c0.512-0.228,1.071-0.36,1.673-0.36c0.062,0,0.119,0.021,0.184,0.021c0.032,0,0.065-0.014,0.104-0.014V0.914
		C12.491,0.408,12.083,0,11.576,0H1.61C1.103,0,0.694,0.408,0.694,0.914v13.479c0,0.506,0.409,0.914,0.916,0.914h7.25
		C8.369,14.628,8.073,13.8,8.073,12.9z M11.271,7.758c0,0.166-0.143,0.303-0.311,0.303H9.188c-0.168,0-0.306-0.137-0.306-0.303
		V6.587c0-0.169,0.138-0.308,0.306-0.308h1.777c0.168,0,0.307,0.138,0.307,0.308V7.758L11.271,7.758z M1.915,1.525
		c0-0.168,0.136-0.305,0.306-0.305h8.745c0.168,0,0.306,0.136,0.306,0.305v3.05c0,0.169-0.138,0.306-0.306,0.306H2.22
		c-0.169,0-0.306-0.136-0.306-0.306L1.915,1.525L1.915,1.525z M4.305,13.453c0,0.167-0.138,0.305-0.307,0.305H2.22
		c-0.169,0-0.306-0.138-0.306-0.305v-1.176c0-0.166,0.136-0.303,0.306-0.303h1.778c0.168,0,0.307,0.137,0.307,0.303V13.453z
		 M4.305,10.605c0,0.166-0.138,0.303-0.307,0.303H2.22c-0.169,0-0.306-0.137-0.306-0.303v-1.17c0-0.172,0.136-0.312,0.306-0.312
		h1.778c0.168,0,0.307,0.14,0.307,0.312V10.605z M4.305,7.758c0,0.166-0.138,0.303-0.307,0.303H2.22
		c-0.169,0-0.306-0.137-0.306-0.303V6.587c0-0.169,0.136-0.308,0.306-0.308h1.778c0.168,0,0.307,0.138,0.307,0.308V7.758z
		 M7.788,13.453c0,0.167-0.138,0.305-0.305,0.305H5.701c-0.167,0-0.305-0.138-0.305-0.305v-1.176c0-0.166,0.138-0.303,0.305-0.303
		h1.782c0.167,0,0.305,0.137,0.305,0.303V13.453z M7.788,10.605c0,0.166-0.138,0.303-0.305,0.303H5.701
		c-0.167,0-0.305-0.137-0.305-0.303v-1.17c0-0.172,0.138-0.312,0.305-0.312h1.782c0.167,0,0.305,0.14,0.305,0.312V10.605z
		 M7.788,7.758c0,0.166-0.138,0.303-0.305,0.303H5.701c-0.167,0-0.305-0.137-0.305-0.303V6.587c0-0.169,0.138-0.308,0.305-0.308
		h1.782c0.167,0,0.305,0.138,0.305,0.308V7.758z"/>
	<path fill="#FFFFFF" d="M12.206,9.8c-1.714,0-3.101,1.388-3.101,3.101c0,1.711,1.387,3.104,3.101,3.104
		c1.711,0,3.101-1.394,3.101-3.104C15.307,11.188,13.917,9.8,12.206,9.8z M13.922,13.41h-1.193v1.167h-1.045V13.41H10.49v-1.02
		h1.193v-1.168h1.045v1.168h1.19L13.922,13.41L13.922,13.41z"/>
</g>
</svg>
