<?xml version="1.0" encoding="utf-8"?>
<!-- Generator: Adobe Illustrator 16.0.0, SVG Export Plug-In . SVG Version: 6.00 Build 0)  -->
<!DOCTYPE svg PUBLIC "-//W3C//DTD SVG 1.1//EN" "http://www.w3.org/Graphics/SVG/1.1/DTD/svg11.dtd">
<svg version="1.1" id="图层_1" xmlns="http://www.w3.org/2000/svg" xmlns:xlink="http://www.w3.org/1999/xlink" x="0px" y="0px"
	 width="16px" height="16px" viewBox="0 0 16 16" enable-background="new 0 0 16 16" xml:space="preserve">
<g>
	<g>
		<g>
			<g>
				<path fill="#FFFFFF" d="M9.6,12.705c-0.5,0-1.045-0.007-1.633-0.016c-0.669-0.008-1.393-0.021-2.171-0.021v-0.5
					c0.781,0,1.507,0.014,2.178,0.021c2.807,0.039,4.662,0.06,5.387-0.655c0.253-0.25,0.371-0.591,0.371-1.072
					c0-1.056-1.726-1.401-3.385-1.735C8.658,8.389,7.064,8.069,7.064,6.934c0-1.52,1.573-1.782,3.112-1.838l0.018,0.5
					C8.326,5.664,7.564,6.052,7.564,6.934c0,0.726,1.463,1.019,2.879,1.303c1.861,0.375,3.787,0.759,3.787,2.225
					c0,0.616-0.17,1.083-0.521,1.429C13.007,12.585,11.68,12.705,9.6,12.705z"/>
			</g>
			<g>
				<g>
					<path fill="#FFFFFF" d="M6.271,2.624H0v10.752h0.447l0,0h5.375l0,0h0.449V2.624z M0.895,3.52h4.48v1.075h-4.48V3.52z
						 M2.443,11.6c0-0.382,0.311-0.688,0.691-0.688c0.383,0,0.691,0.312,0.691,0.688c0,0.381-0.309,0.691-0.691,0.691
						C2.754,12.291,2.443,11.98,2.443,11.6z M0.895,5.492h4.48v1.073h-4.48V5.492z M0.895,7.463h4.48v1.074h-4.48V7.463z"/>
				</g>
			</g>
		</g>
	</g>
	<g>
		<g>
			<path fill="#FFFFFF" d="M10.305,2.938h5.459C15.895,2.938,16,3.046,16,3.175v3.688c0,0.131-0.105,0.236-0.236,0.236
				c-1.82,0-3.641,0-5.459,0c-0.131,0-0.236-0.105-0.236-0.236V3.175C10.068,3.046,10.174,2.938,10.305,2.938L10.305,2.938z
				 M11.775,7.937c0.84,0,1.678,0,2.518,0V7.65h-0.455c-0.033-0.157-0.092-0.325-0.17-0.406H12.4
				c-0.08,0.081-0.137,0.249-0.17,0.406h-0.455V7.937L11.775,7.937z M12.943,6.838V7h0.18V6.838H12.943z M15.689,6.745h-5.312V3.296
				h5.312V6.745z"/>
		</g>
	</g>
	<g>
		<rect x="10.805" y="3.771" fill="#FFFFFF" width="4.479" height="2.513"/>
	</g>
</g>
</svg>
