<?xml version="1.0" encoding="utf-8"?>
<!-- Generator: Adobe Illustrator 16.0.0, SVG Export Plug-In . SVG Version: 6.00 Build 0)  -->
<!DOCTYPE svg PUBLIC "-//W3C//DTD SVG 1.1//EN" "http://www.w3.org/Graphics/SVG/1.1/DTD/svg11.dtd">
<svg version="1.1" id="图层_1" xmlns="http://www.w3.org/2000/svg" xmlns:xlink="http://www.w3.org/1999/xlink" x="0px" y="0px"
	 width="16px" height="16px" viewBox="0 0 16 16" enable-background="new 0 0 16 16" xml:space="preserve">
<polygon fill="#FFFFFF" points="16,4.929 16,1.567 0,1.567 0,4.929 3.314,4.929 3.314,6.319 0,6.319 0,9.619 0,9.682 1.138,9.682 
	1.138,11.07 0,11.07 0,14.434 2.956,14.434 2.956,11.07 1.816,11.07 1.816,9.682 5.483,9.682 5.483,11.07 4.344,11.07 4.344,14.434 
	7.299,14.434 7.299,11.07 6.161,11.07 6.161,9.682 6.624,9.682 7.303,9.682 7.305,9.682 7.305,6.319 7.303,6.319 3.993,6.319 
	3.993,4.929 12.007,4.929 12.007,6.319 8.697,6.319 8.695,6.319 8.695,9.682 8.697,9.682 9.377,9.682 9.839,9.682 9.839,11.07 
	8.701,11.07 8.701,14.434 11.656,14.434 11.656,11.07 10.518,11.07 10.518,9.682 14.184,9.682 14.184,11.07 13.045,11.07 
	13.045,14.434 16,14.434 16,11.07 14.861,11.07 14.861,9.682 16,9.682 16,9.619 16,6.319 12.686,6.319 12.686,4.929 "/>
</svg>
