<?xml version="1.0" encoding="utf-8"?>
<!-- Generator: Adobe Illustrator 16.0.0, SVG Export Plug-In . SVG Version: 6.00 Build 0)  -->
<!DOCTYPE svg PUBLIC "-//W3C//DTD SVG 1.1//EN" "http://www.w3.org/Graphics/SVG/1.1/DTD/svg11.dtd">
<svg version="1.1" id="图层_1" xmlns="http://www.w3.org/2000/svg" xmlns:xlink="http://www.w3.org/1999/xlink" x="0px" y="0px"
	 width="16px" height="16px" viewBox="0 0 16 16" enable-background="new 0 0 16 16" xml:space="preserve">
<g>
	<path fill="#FFFFFF" d="M10.236,5h-3v1h3V5z M9.236,1v1h2v8.152l1,0.595V1H9.236z M10.236,10.047v-1H8.852l0.627,1H10.236z
		 M10.236,7H7.567l0.627,1h2.042V7z M2.237,14h4v-0.829L5.63,13.934l-3.393-1.539V14z M2.237,4h8V3h-2V0h-4v3h-2V4z M5.737,1h1v1h-1
		V1z M11.236,13.771V15h-10V2h2V1h-3v15h12v-1.762l-0.911-0.543L11.236,13.771z M6.237,5h-4v5.725l0.611-1.346l1.892,0.857
		l1.497-1.878V5z"/>
	<polygon fill="#FF8000" points="9.539,13.911 7.264,10.279 5.333,12.701 2.933,11.611 3.346,10.702 5.037,11.469 7.361,8.555 
		9.77,12.396 11.114,11.242 13.074,12.41 15.15,10.801 15.764,11.592 13.148,13.617 11.221,12.469 	"/>
</g>
</svg>
