<?xml version="1.0" encoding="utf-8"?>
<!-- Generator: Adobe Illustrator 16.0.0, SVG Export Plug-In . SVG Version: 6.00 Build 0)  -->
<!DOCTYPE svg PUBLIC "-//W3C//DTD SVG 1.1//EN" "http://www.w3.org/Graphics/SVG/1.1/DTD/svg11.dtd">
<svg version="1.1" id="图层_1" xmlns="http://www.w3.org/2000/svg" xmlns:xlink="http://www.w3.org/1999/xlink" x="0px" y="0px"
	 width="16px" height="16px" viewBox="0 0 16 16" enable-background="new 0 0 16 16" xml:space="preserve">
<g>
	<g>
		<path fill="#FFFFFF" d="M13.938,9.553c0.148,0.291,0.242,0.615,0.242,0.961c0,0.799-0.443,1.484-1.092,1.848
			c0.395-0.318,0.667-0.771,0.75-1.299c0.021-0.105,0.035-0.221,0.035-0.34c0-0.229-0.047-0.455-0.116-0.66
			c-0.007-0.018-0.011-0.041-0.021-0.061c0-0.002,0-0.002,0-0.002c-0.021-0.049-0.033-0.098-0.055-0.15L13.68,9.848
			c-0.037-0.08-0.082-0.16-0.129-0.236c-0.375-0.604-1.042-1.016-1.808-1.016c-0.13,0-0.251,0.016-0.373,0.035
			c0.135,0.432,0.17,0.93-0.003,1.469c-0.023,0.074-0.037,0.111-0.055,0.15l-0.025,0.068c0.234,0.307,0.383,0.688,0.383,1.104
			c0,0.205-0.044,0.406-0.107,0.598c0.002-0.035,0.019-0.076,0.019-0.111c0-0.301-0.082-0.58-0.21-0.832
			c-0.016-0.021-0.021-0.039-0.03-0.057c-0.062-0.104-0.132-0.203-0.21-0.295l-0.229,0.564l-0.504-0.998
			c-0.006-0.008-0.022-0.049-0.062-0.105c-0.185-0.062-0.382-0.104-0.588-0.104c-0.11,0-0.565,0.104-0.565,0.104
			c-0.729,0.236-1.26,0.914-1.26,1.727c0,0.984,0.79,1.783,1.771,1.82v0.004h4.287v-0.012C15.104,13.686,16,12.77,16,11.641
			C16,10.498,15.078,9.568,13.938,9.553z"/>
		<path fill="#FFFFFF" d="M7.925,7.475L9.217,9.34l0.241-0.539c0.575-0.021,1.085,0.732,1.29,1.086
			c0.062,0.109,0.098,0.178,0.098,0.178c0.021-0.037,0.029-0.078,0.045-0.109c0.461-1.453-0.882-2.391-0.882-2.391l0.166-0.372
			L7.925,7.475z"/>
	</g>
	<polygon fill="#FFFFFF" points="2.517,13.734 0,2.266 2.889,2.266 4.25,11.129 4.283,11.129 5.668,2.266 8.555,2.266 5.955,13.734 
			"/>
</g>
</svg>
