<?xml version="1.0" encoding="utf-8"?>
<!-- Generator: Adobe Illustrator 16.0.0, SVG Export Plug-In . SVG Version: 6.00 Build 0)  -->
<!DOCTYPE svg PUBLIC "-//W3C//DTD SVG 1.1//EN" "http://www.w3.org/Graphics/SVG/1.1/DTD/svg11.dtd">
<svg version="1.1" id="图层_1" xmlns="http://www.w3.org/2000/svg" xmlns:xlink="http://www.w3.org/1999/xlink" x="0px" y="0px"
	 width="16px" height="16px" viewBox="0 0 16 16" enable-background="new 0 0 16 16" xml:space="preserve">
<g>
	<polygon fill="#86CC16" points="6.115,12.151 6.202,4.151 11.235,8.198 	"/>
	<path fill="#86CC16" d="M14.7,4.256l-0.245-0.41C13.048,1.474,10.456,0,7.692,0C6.524,0,5.393,0.256,4.33,0.762
		c-1.707,0.811-3.041,2.185-3.802,3.9l1.646,0.674c0.591-1.303,1.611-2.344,2.918-2.967C5.911,1.98,6.78,1.784,7.678,1.784
		c2.046,0,3.942,1.022,5.075,2.737l0.332,0.502l-1.135,0.54l3.428,2.19l0.467-4.042L14.7,4.256z M1.144,11.756l0.246,0.409
		c1.411,2.37,4.003,3.84,6.769,3.835c1.168-0.001,2.298-0.26,3.362-0.766c1.705-0.813,3.037-2.188,3.795-3.906l-1.647-0.671
		c-0.59,1.303-1.607,2.345-2.914,2.971c-0.817,0.39-1.687,0.587-2.584,0.589c-2.045,0.003-3.944-1.017-5.079-2.73l-0.333-0.501
		l1.134-0.542L0.46,8.259L0,12.301L1.144,11.756z"/>
</g>
</svg>
