<?xml version="1.0" encoding="utf-8"?>
<!-- Generator: Adobe Illustrator 16.0.0, SVG Export Plug-In . SVG Version: 6.00 Build 0)  -->
<!DOCTYPE svg PUBLIC "-//W3C//DTD SVG 1.1//EN" "http://www.w3.org/Graphics/SVG/1.1/DTD/svg11.dtd">
<svg version="1.1" id="图层_1" xmlns="http://www.w3.org/2000/svg" xmlns:xlink="http://www.w3.org/1999/xlink" x="0px" y="0px"
	 width="16px" height="16px" viewBox="0 0 16 16" enable-background="new 0 0 16 16" xml:space="preserve">
<g>
	<g>
		<path fill="#FFFFFF" d="M12.591,4.164l-0.774-0.526c-0.215-0.145-0.506-0.089-0.646,0.125l-3.8,5.596L5.623,7.615
			c-0.18-0.181-0.478-0.181-0.661,0L4.3,8.28c-0.185,0.181-0.185,0.479,0,0.662l2.68,2.687c0.153,0.147,0.387,0.271,0.602,0.271
			c0.212,0,0.426-0.14,0.563-0.334l4.571-6.746C12.861,4.602,12.809,4.31,12.591,4.164z"/>
	</g>
	<g>
		<g>
			<path fill="#FFFFFF" d="M8,16c-4.411,0-8-3.589-8-8c0-4.412,3.589-8,8-8s8,3.588,8,8C16,12.411,12.411,16,8,16z M8,1.372
				C4.346,1.372,1.372,4.345,1.372,8c0,3.654,2.974,6.629,6.628,6.629c3.654,0,6.629-2.975,6.629-6.629
				C14.629,4.345,11.654,1.372,8,1.372z"/>
		</g>
	</g>
</g>
</svg>
