<?xml version="1.0" encoding="utf-8"?>
<!-- Generator: Adobe Illustrator 16.0.0, SVG Export Plug-In . SVG Version: 6.00 Build 0)  -->
<!DOCTYPE svg PUBLIC "-//W3C//DTD SVG 1.1//EN" "http://www.w3.org/Graphics/SVG/1.1/DTD/svg11.dtd">
<svg version="1.1" id="图层_1" xmlns="http://www.w3.org/2000/svg" xmlns:xlink="http://www.w3.org/1999/xlink" x="0px" y="0px"
	 width="16px" height="16px" viewBox="0 0 16 16" enable-background="new 0 0 16 16" xml:space="preserve">
<g>
	<path fill="#FFFFFF" d="M8.217,12.643c0-0.979,0.335-1.871,0.881-2.601c-0.052-0.022-0.087-0.038-0.087-0.038L8.947,9.841
		c0.664-0.733,1.816-2.266,2.041-4.229c0.197-1.707-0.234-3.313-1.195-4.396C9.107,0.438,8.202,0.005,7.146,0
		C6.104,0.005,5.201,0.406,4.537,1.154C3.635,2.171,3.234,3.799,3.441,5.627C3.653,7.44,4.483,8.948,5.26,9.839v0.188
		c-0.695,0.303-4.309,1.938-4.809,3.24c-0.352,0.916-0.375,1.946-0.376,1.985L0.065,16h9.767C8.855,15.2,8.217,14,8.217,12.643z"/>
	<path fill="#86CC16" d="M12.576,9.283c-1.855,0-3.359,1.505-3.359,3.357c0,1.856,1.504,3.358,3.359,3.358s3.359-1.502,3.359-3.358
		C15.936,10.788,14.432,9.283,12.576,9.283z"/>
</g>
</svg>
