<?xml version="1.0" encoding="utf-8"?>
<!-- Generator: Adobe Illustrator 19.2.1, SVG Export Plug-In . SVG Version: 6.00 Build 0)  -->
<svg version="1.1" id="图层_1" xmlns="http://www.w3.org/2000/svg" xmlns:xlink="http://www.w3.org/1999/xlink" x="0px" y="0px"  width="16px" height="16px" 
	 viewBox="0 0 16 16" style="enable-background:new 0 0 16 16;" xml:space="preserve">
<style type="text/css">
	.st0{fill-rule:evenodd;clip-rule:evenodd;}
</style>
<g>
	<path fill="#FFFFFF" class="st0" d="M8.8,3.7C7.9,3,6.5,3,5.6,3.9L5.4,4.1l-4-4c-0.2-0.2-0.6-0.2-0.8,0L0.2,0.6c-0.2,0.2-0.2,0.6,0,0.8l4,4
		L3.9,5.6C3,6.5,3,7.9,3.7,8.8L8.8,3.7z"/>
	<path fill="#FFFFFF" class="st0" d="M9.4,4.4C9.4,4.4,9.4,4.3,9.4,4.4l-5.1,5c0,0,0,0,0,0c1.7,1.8,2.3,3.9,2.8,6.6c4.1-0.2,8.6-4.8,8.9-8.9
		C13.3,6.7,11.3,6.1,9.4,4.4z M13.8,10.3c-0.3,0.4-0.6,0.8-0.9,1.2c-0.1,0.1-1.8-1-2.1-1.2c-0.2-0.1,1.4,1.9,1.2,2.1
		c-0.4,0.4-0.8,0.7-1.2,1l-2.2-2.8L9.9,14c-0.7,0.4-1.4,0.7-2,0.8c-0.4-2.2-0.7-3.6-2.2-5.1l3.9-3.9c1.5,1.5,2.9,1.8,5.1,2.2
		c-0.1,0.6-0.3,1.2-0.6,1.8l-2-0.8L13.8,10.3z"/>
</g>
</svg>
