<?xml version="1.0" encoding="utf-8"?>
<!-- Generator: Adobe Illustrator 16.0.0, SVG Export Plug-In . SVG Version: 6.00 Build 0)  -->
<!DOCTYPE svg PUBLIC "-//W3C//DTD SVG 1.1//EN" "http://www.w3.org/Graphics/SVG/1.1/DTD/svg11.dtd">
<svg version="1.1" id="图层_1" xmlns="http://www.w3.org/2000/svg" xmlns:xlink="http://www.w3.org/1999/xlink" x="0px" y="0px"
	 width="16px" height="16px" viewBox="0 0 16 16" enable-background="new 0 0 16 16" xml:space="preserve">
<g>
	<path fill="#FFFFFF" d="M13.95,9.051H13.14l-0.098-0.693c-0.031-0.226-0.243-0.41-0.472-0.41h-2.207
		c-0.229,0-0.439,0.185-0.471,0.41L9.795,9.051H8.984c-0.46,0-0.829,0.371-0.829,0.83v0.275h6.623V9.881
		C14.778,9.422,14.408,9.051,13.95,9.051z M10.431,8.5h2.073l0.078,0.55h-2.23L10.431,8.5z"/>
	<ellipse fill="#FFFFFF" cx="5.878" cy="2.614" rx="5.877" ry="2.615"/>
	<path fill="#FFFFFF" d="M10.625,6.864h0.012c0.7-0.431,1.118-0.959,1.118-1.532c0-0.531,0-1.084,0-2.001
		c0,1.447-2.63,2.617-5.877,2.617C2.63,5.948,0,4.778,0,3.331c0,0.604,0,1.007,0,2.001c0,1.446,2.63,2.616,5.878,2.616
		c1.354,0,2.601-0.206,3.594-0.548C9.762,7.078,10.167,6.864,10.625,6.864z"/>
	<path fill="#FFFFFF" d="M7.925,8.5C7.286,8.605,6.6,8.665,5.878,8.665C2.63,8.665,0,7.494,0,6.049c0,0.603,0,1.007,0,2
		c0,1.447,2.63,2.617,5.878,2.617c0.485,0,0.954-0.029,1.405-0.08v-0.66C7.283,9.357,7.533,8.852,7.925,8.5z"/>
	<path fill="#FFFFFF" d="M7.403,11.291c-0.486,0.059-0.996,0.092-1.525,0.092C2.63,11.383,0,10.213,0,8.766c0,0.605,0,1.007,0,2.001
		c0,1.445,2.63,2.615,5.878,2.615c0.718,0,1.4-0.061,2.035-0.164l-0.176-1.928H7.403z"/>
	<path fill="#FFFFFF" d="M13.895,10.377H9.039c-0.28,0-0.489,0.229-0.465,0.508l0.419,4.604c0.025,0.281,0.276,0.51,0.557,0.51
		h3.834c0.28,0,0.531-0.229,0.557-0.51l0.419-4.604C14.384,10.605,14.176,10.377,13.895,10.377z M10.445,14.975H9.678l-0.255-3.576
		h1.022V14.975z M11.979,14.975h-1.022v-3.576h1.022V14.975z M13.256,14.975h-0.767v-3.576h1.021L13.256,14.975z"/>
</g>
</svg>
