<?xml version="1.0" encoding="utf-8"?>
<!-- Generator: Adobe Illustrator 16.0.0, SVG Export Plug-In . SVG Version: 6.00 Build 0)  -->
<!DOCTYPE svg PUBLIC "-//W3C//DTD SVG 1.1//EN" "http://www.w3.org/Graphics/SVG/1.1/DTD/svg11.dtd">
<svg version="1.1" id="图层_1" xmlns="http://www.w3.org/2000/svg" xmlns:xlink="http://www.w3.org/1999/xlink" x="0px" y="0px"
	 width="16px" height="16px" viewBox="0 0 16 16" enable-background="new 0 0 16 16" xml:space="preserve">
<g>
	<path fill="#FFFFFF" d="M13.171,12.367l2.004-1.959h0.274L16,9.33l-0.275-0.27L14.622,9.6V9.87l-2.07,2.024l-0.735-0.562
		c0.312-0.576,0.229-1.309-0.268-1.791c-0.408-0.396-0.98-0.523-1.501-0.393l0.948,0.934v1.074h-1.1L8.948,10.23
		c-0.14,0.508-0.011,1.064,0.396,1.467c0.497,0.488,1.245,0.57,1.834,0.26l0.396,0.496l-2.483,1.91
		c-0.45,0.455-0.168,0.953,0.025,1.17l0.245,0.242c0.216,0.184,0.654,0.268,1.197,0.062l1.854-2.338l1.819,2.265
		c0.471,0.438,0.977,0.166,1.191-0.021l0.25-0.24c0.188-0.211,0.469-0.646,0.062-1.172L13.171,12.367z M15.1,15.174
		c-0.127,0.123-0.332,0.123-0.459,0c-0.127-0.127-0.127-0.328,0-0.451c0.127-0.125,0.332-0.125,0.459,0
		C15.225,14.846,15.225,15.047,15.1,15.174z"/>
	<path fill="#FFFFFF" d="M9.213,12.783c-0.203-0.111-0.396-0.24-0.566-0.406c-0.249-0.242-0.417-0.539-0.542-0.854
		c-0.39-0.562-0.53-1.268-0.346-1.938L7.886,9.13C7.456,9.346,6.975,9.477,6.46,9.477c-1.754,0-3.174-1.39-3.174-3.104
		c0-1.717,1.42-3.106,3.174-3.106c1.755,0,3.175,1.389,3.175,3.106c0,0.603-0.183,1.159-0.486,1.637l0.314-0.084
		c0.206-0.054,0.418-0.082,0.635-0.082c0.629,0,1.217,0.237,1.67,0.663c0.17,0.104,0.332,0.22,0.479,0.354
		c0.032,0.033,0.062,0.076,0.093,0.111c0.369-0.792,0.587-1.674,0.587-2.604c0-2.596-1.598-4.821-3.883-5.796
		C9.036,0.58,9.029,0.584,9.025,0.59C8.252,0.218,7.384,0,6.461,0C5.54,0,4.671,0.218,3.896,0.59
		C3.892,0.584,3.885,0.58,3.882,0.575C1.597,1.549,0,3.774,0,6.371c0,3.493,2.891,6.32,6.46,6.32c0.111,0,0.218-0.01,0.327-0.021
		v0.711h-4.51c-0.574,0-0.598,0.589-0.598,0.589v1.17h5.107v0.213H7.94c-0.163-0.597-0.016-1.199,0.442-1.662l0.046-0.045
		l0.783-0.604v-0.26L9.213,12.783L9.213,12.783z M6.461,0.529c0.779,0,1.516,0.175,2.182,0.474C8.074,1.538,7.314,1.878,6.46,1.878
		c-0.853,0-1.613-0.34-2.182-0.875C4.947,0.704,5.682,0.529,6.461,0.529z"/>
	<path fill="#FFFFFF" d="M4.78,6.371c0,0.908,0.751,1.644,1.68,1.644c0.929,0,1.681-0.736,1.681-1.644
		c0-0.909-0.752-1.645-1.681-1.645c-0.319,0-0.615,0.091-0.869,0.243C5.67,4.945,5.753,4.928,5.84,4.928
		c0.472,0,0.853,0.373,0.853,0.833c0,0.461-0.381,0.834-0.853,0.834c-0.471,0-0.852-0.373-0.852-0.834
		c0-0.085,0.017-0.165,0.041-0.243C4.875,5.768,4.78,6.058,4.78,6.371z"/>
</g>
</svg>
