<?xml version="1.0" encoding="utf-8"?>
<!-- Generator: Adobe Illustrator 16.0.0, SVG Export Plug-In . SVG Version: 6.00 Build 0)  -->
<!DOCTYPE svg PUBLIC "-//W3C//DTD SVG 1.1//EN" "http://www.w3.org/Graphics/SVG/1.1/DTD/svg11.dtd">
<svg version="1.1" id="图层_1" xmlns="http://www.w3.org/2000/svg" xmlns:xlink="http://www.w3.org/1999/xlink" x="0px" y="0px"
	 width="16px" height="16px" viewBox="0 0 16 16" enable-background="new 0 0 16 16" xml:space="preserve">
<g>
	<path fill="#FFFFFF" d="M8.235,7.13C8.179,7.118,8.067,7.111,7.899,7.111H7.674v0.763h0.255c0.184,0,0.307-0.015,0.369-0.043
		C8.36,7.804,8.408,7.76,8.443,7.699C8.479,7.64,8.496,7.57,8.496,7.491c0-0.098-0.024-0.179-0.074-0.242
		C8.373,7.186,8.311,7.146,8.235,7.13z M3.569,3.521v8.959h8.958V3.521H3.569z M6.462,9.175C6.301,9.316,6.096,9.389,5.849,9.389
		c-0.307,0-0.559-0.121-0.756-0.365c-0.197-0.244-0.296-0.577-0.296-1c0-0.446,0.099-0.794,0.298-1.041
		c0.198-0.247,0.459-0.371,0.783-0.371c0.282,0,0.512,0.098,0.688,0.291c0.105,0.115,0.184,0.28,0.236,0.495L6.34,7.525
		C6.312,7.387,6.255,7.276,6.169,7.196C6.083,7.115,5.977,7.075,5.853,7.075c-0.171,0-0.31,0.071-0.417,0.214
		c-0.106,0.144-0.16,0.375-0.16,0.694c0,0.34,0.052,0.582,0.157,0.726s0.242,0.216,0.41,0.216c0.124,0,0.23-0.046,0.32-0.137
		c0.089-0.093,0.153-0.236,0.192-0.433l0.452,0.167C6.738,8.814,6.623,9.033,6.462,9.175z M8.898,7.899
		C8.848,8.012,8.783,8.1,8.703,8.164C8.624,8.228,8.543,8.27,8.461,8.291C8.35,8.317,8.189,8.33,7.978,8.33H7.674v1.013H7.208V6.657
		h0.748c0.283,0,0.468,0.014,0.554,0.04c0.133,0.041,0.244,0.128,0.333,0.264C8.932,7.096,8.977,7.27,8.977,7.483
		C8.977,7.648,8.951,7.787,8.898,7.899z M11.197,8.067c0,0.323-0.014,0.551-0.038,0.684s-0.071,0.245-0.14,0.337
		c-0.067,0.092-0.158,0.165-0.271,0.219c-0.113,0.055-0.262,0.082-0.443,0.082c-0.221,0-0.389-0.029-0.502-0.089
		S9.6,9.163,9.532,9.07c-0.065-0.096-0.109-0.194-0.13-0.299C9.371,8.617,9.355,8.391,9.355,8.09V6.657h0.467v1.454
		c0,0.231,0.006,0.381,0.018,0.45c0.02,0.109,0.067,0.197,0.143,0.269c0.074,0.062,0.183,0.101,0.312,0.101
		c0.132,0,0.229-0.027,0.301-0.095c0.065-0.062,0.106-0.146,0.12-0.229c0.019-0.095,0.021-0.247,0.021-0.458v-1.49h0.469v1.41
		L11.197,8.067L11.197,8.067z"/>
	<rect x="13.689" y="3.521" fill="#FFFFFF" width="2.311" height="3.638"/>
	<rect x="13.689" y="8.842" fill="#FFFFFF" width="2.311" height="3.639"/>
	<rect y="3.521" fill="#FFFFFF" width="2.31" height="3.638"/>
	<rect y="8.842" fill="#FFFFFF" width="2.31" height="3.639"/>
	<g>
		<rect x="8.891" y="13.689" fill="#FFFFFF" width="3.639" height="2.311"/>
		<rect x="3.569" y="13.689" fill="#FFFFFF" width="3.638" height="2.311"/>
	</g>
	<g>
		<rect x="8.891" fill="#FFFFFF" width="3.639" height="2.31"/>
		<rect x="3.569" fill="#FFFFFF" width="3.638" height="2.31"/>
	</g>
</g>
</svg>
