<?xml version="1.0" encoding="utf-8"?>
<!-- Generator: Adobe Illustrator 16.0.0, SVG Export Plug-In . SVG Version: 6.00 Build 0)  -->
<!DOCTYPE svg PUBLIC "-//W3C//DTD SVG 1.1//EN" "http://www.w3.org/Graphics/SVG/1.1/DTD/svg11.dtd">
<svg version="1.1" id="图层_1" xmlns="http://www.w3.org/2000/svg" xmlns:xlink="http://www.w3.org/1999/xlink" x="0px" y="0px"
	 width="16px" height="16px" viewBox="0 0 16 16" enable-background="new 0 0 16 16" xml:space="preserve">
<g>
	<path fill="#FFFFFF" d="M0,11.004h4.495V3.3H0V11.004z M2.249,10.227c-0.274,0-0.495-0.223-0.495-0.496
		c0-0.271,0.221-0.494,0.495-0.494c0.271,0,0.494,0.227,0.494,0.494C2.742,10.004,2.52,10.227,2.249,10.227z M0.644,3.942h3.208
		v0.772H0.644V3.942z M0.644,5.354h3.208v0.769H0.644V5.354z M0.644,6.766h3.208v0.773H0.644V6.766z M7.479,9.934h0.744V7.431H7.941
		V6.873h0.281V6.41H7.941V5.854h0.281V5.388H7.941V4.832h0.281V4.369H7.479V9.934z M4.73,4.424H5.2v0.654H4.73v0.546H5.2v0.653H4.73
		v0.545H5.2V7.48H4.73v2.944h1.016V3.879H4.73V4.424z M9.745,3.3v7.704h0.453c-0.064-0.262-0.107-0.531-0.107-0.812
		c0-1.074,0.513-2.024,1.3-2.647h-1.002V6.766h3.209v0.036c0.219,0.007,0.438,0.032,0.646,0.079V3.3H9.745z M13.598,6.123h-3.209
		V5.354h3.209V6.123z M13.598,4.714h-3.209V3.942h3.209V4.714z M8.493,10.425h1.016V7.48h-0.47V6.822h0.47V6.277h-0.47V5.624h0.47
		V5.078h-0.47V4.424h0.47V3.879H8.493V10.425z M6.017,4.832h0.282v0.556H6.017v0.466h0.282V6.41H6.017v0.463h0.282v0.558H6.017
		v2.502h0.744V4.369H6.017V4.832z"/>
	<path fill="#FFFFFF" d="M13.491,7.681c-1.388,0-2.511,1.124-2.511,2.51c0,1.386,1.123,2.51,2.511,2.51
		c1.386,0,2.509-1.123,2.509-2.51S14.877,7.681,13.491,7.681z M14.941,10.621H13.93v0.984h-0.883v-0.984h-1.009V9.76h1.009V8.775
		h0.883V9.76h1.012V10.621L14.941,10.621z"/>
</g>
</svg>
