<?xml version="1.0" encoding="utf-8"?>
<!-- Generator: Adobe Illustrator 16.0.0, SVG Export Plug-In . SVG Version: 6.00 Build 0)  -->
<!DOCTYPE svg PUBLIC "-//W3C//DTD SVG 1.1//EN" "http://www.w3.org/Graphics/SVG/1.1/DTD/svg11.dtd">
<svg version="1.1" id="图层_1" xmlns="http://www.w3.org/2000/svg" xmlns:xlink="http://www.w3.org/1999/xlink" x="0px" y="0px"
	 width="16px" height="16px" viewBox="0 0 16 16" enable-background="new 0 0 16 16" xml:space="preserve">
<g>
	<path fill="#FFFFFF" d="M14.718,9.443h-0.764l-0.095-0.655c-0.028-0.213-0.229-0.387-0.442-0.387h-2.084
		c-0.217,0-0.416,0.174-0.444,0.387l-0.093,0.655h-0.767c-0.434,0-0.781,0.35-0.781,0.783v0.26h6.253v-0.26
		C15.501,9.793,15.15,9.443,14.718,9.443z M11.32,9.443l0.074-0.521h1.957l0.069,0.521H11.32z"/>
	<path fill="#FFFFFF" d="M14.667,10.693h-4.585c-0.266,0-0.462,0.217-0.438,0.479l0.396,4.348c0.022,0.269,0.261,0.479,0.526,0.479
		h3.619c0.264,0,0.5-0.217,0.521-0.479l0.396-4.348C15.128,10.91,14.932,10.693,14.667,10.693z M11.409,15.035h-0.724l-0.242-3.377
		h0.966V15.035z M12.855,15.035h-0.965v-3.377h0.965V15.035z M14.062,15.035h-0.729v-3.377H14.3L14.062,15.035z"/>
	<path fill="#FFFFFF" d="M8.668,11.486h-0.42v-1.26c0-0.916,0.693-1.664,1.582-1.771v-8.463H0.499v16h8.64
		C9.092,15.869,9.057,15.74,9.043,15.6L8.668,11.486z M1.83,1.328h6.669v1.605H1.83V1.328z M1.83,4.264h6.669v1.599H1.83V4.264z
		 M1.83,7.199h6.669v1.598H1.83V7.199z M5.971,14.748H4.595l-1.008-4.594h1.156l0.547,3.548h0.014l0.551-3.548h1.16L5.971,14.748z"
		/>
</g>
</svg>
