<?xml version="1.0" encoding="utf-8"?>
<!-- Generator: Adobe Illustrator 16.0.0, SVG Export Plug-In . SVG Version: 6.00 Build 0)  -->
<!DOCTYPE svg PUBLIC "-//W3C//DTD SVG 1.1//EN" "http://www.w3.org/Graphics/SVG/1.1/DTD/svg11.dtd">
<svg version="1.1" id="图层_1" xmlns="http://www.w3.org/2000/svg" xmlns:xlink="http://www.w3.org/1999/xlink" x="0px" y="0px"
	 width="16px" height="16px" viewBox="0 0 16 16" enable-background="new 0 0 16 16" xml:space="preserve">
<g>
	<g>
		<path fill="#FFFFFF" d="M9.096,12.634l0.715-0.6l0.17,0.933l0.17,0.934l-0.457-0.172c0.086,0.438,0.314,0.84,0.678,1.146
			c0.74,0.645,1.854,0.645,2.572,0c0.139-0.116,0.344-0.104,0.455,0.029c0.121,0.14,0.109,0.344-0.021,0.462
			c-0.961,0.85-2.435,0.851-3.424,0.002c-0.574-0.491-0.896-1.181-0.938-1.894l-0.637-0.24L9.096,12.634z"/>
		<path fill="#FFFFFF" d="M13.412,14.727l-0.17-0.936l-0.17-0.934l0.457,0.17c-0.086-0.438-0.314-0.838-0.668-1.146
			c-0.75-0.641-1.859-0.64-2.582,0C10.146,12,9.941,11.986,9.824,11.854c-0.121-0.14-0.109-0.34,0.025-0.459
			c0.957-0.854,2.43-0.853,3.424,0c0.572,0.487,0.896,1.176,0.938,1.893l0.633,0.236l-0.715,0.603L13.412,14.727z"/>
	</g>
	<path fill="#FFFFFF" d="M7.896,13.38c0-1.555,0.956-2.883,2.309-3.437c-0.006-0.604-0.012-1.021-0.012-1.021V0H1.156v15.49h5.649
		c0.724,0,1.287-0.004,1.746-0.01C8.138,14.884,7.896,14.161,7.896,13.38z M2.449,1.293H8.9v1.546H2.449V1.293z M2.449,4.13H8.9
		v1.552H2.449V4.13z M2.449,6.971H8.9v1.55H2.449V6.971z M6.236,13.702H5.268l-0.711-3.229h0.816l0.384,2.498h0.009l0.39-2.498H6.97
		L6.236,13.702z"/>
</g>
</svg>
