<?xml version="1.0" encoding="utf-8"?>
<!-- Generator: Adobe Illustrator 16.0.0, SVG Export Plug-In . SVG Version: 6.00 Build 0)  -->
<!DOCTYPE svg PUBLIC "-//W3C//DTD SVG 1.1//EN" "http://www.w3.org/Graphics/SVG/1.1/DTD/svg11.dtd">
<svg version="1.1" id="图层_1" xmlns="http://www.w3.org/2000/svg" xmlns:xlink="http://www.w3.org/1999/xlink" x="0px" y="0px"
	 width="16px" height="16px" viewBox="0 0 16 16" enable-background="new 0 0 16 16" xml:space="preserve">
<g>
	<path fill="#FFFFFF" d="M11.107,14.695L1.12,14.58l0.116-9.986l3.33,0.038l0.039-3.331l6.661,0.08l-0.062,4.593l1.126-1.146
		l0.061-4.546L3.508,0.179L0.14,3.468L0,15.678l12.206,0.146l0.037-4.375l0.002-0.188c-0.438,0.462-0.824,0.865-1.122,1.175
		L11.107,14.695z"/>
	<path fill="#FFFFFF" d="M9.123,6.222C9.025,5.969,8.119,5.513,7.876,5.417c-0.017-0.009-0.131-0.05-0.131-0.068V5.107
		c0.208-0.213,0.519-0.628,0.574-1.13c0.088-0.741-0.314-1.341-0.845-1.345H7.448C6.825,2.637,6.526,3.241,6.61,3.983
		c0.058,0.499,0.303,0.911,0.512,1.125V5.35c0,0.018-0.08,0.059-0.097,0.067C6.782,5.513,5.858,5.969,5.761,6.222
		c-0.088,0.228-0.092,0.49-0.092,0.49h3.532C9.201,6.712,9.212,6.449,9.123,6.222z"/>
	<polygon fill="#FFFFFF" points="2.038,8 2.038,9.02 8.212,9.02 9.212,8 	"/>
	<polygon fill="#FFFFFF" points="2.038,10.105 2.038,11.124 7.118,11.124 7.438,10.105 	"/>
	<polygon fill="#FFFFFF" points="2.038,12.211 2.038,13.23 6.458,13.23 6.775,12.211 	"/>
	<g>
		<path fill="#FFFFFF" d="M13.844,7.747c-0.793,0.808-2.967,3.093-3.76,3.899l-1.898,0.524L8.169,12.17l0.604-1.805l0.41-0.479
			l2.641-2.689l0.583-0.596l0.172-0.174c0.009-0.008-0.127-0.14-0.119-0.146l-0.2-0.196l-0.426,0.434l-3.469,3.532l-0.207,0.211
			l-0.875,2.786l0.023,0.004l2.954-0.872c0.809-0.828,2.479-2.623,3.93-4.1l-0.336-0.346C13.848,7.737,13.848,7.745,13.844,7.747z"
			/>
		<path fill="#FFFFFF" d="M15.77,5.38l-0.879-0.866c-0.154-0.149-0.353-0.22-0.552-0.217c-0.198,0.001-0.396,0.079-0.546,0.233
			l-0.291,0.292l1.973,1.96c0.115-0.116,0.229-0.227,0.303-0.307C15.927,6.324,16,6.124,16,5.923C16,5.725,15.921,5.53,15.77,5.38z"
			/>
		
			<rect x="12.486" y="6.096" transform="matrix(-0.7126 -0.7016 0.7016 -0.7126 19.2258 20.814)" fill="#FFFFFF" width="2.779" height="0.746"/>
		<polygon fill="#FFFFFF" points="9.688,10.615 9.73,11.121 13.438,7.383 12.906,6.861 9.201,10.598 		"/>
	</g>
</g>
</svg>
