<?xml version="1.0" encoding="utf-8"?>
<!-- Generator: Adobe Illustrator 16.0.0, SVG Export Plug-In . SVG Version: 6.00 Build 0)  -->
<!DOCTYPE svg PUBLIC "-//W3C//DTD SVG 1.1//EN" "http://www.w3.org/Graphics/SVG/1.1/DTD/svg11.dtd">
<svg version="1.1" id="图层_1" xmlns="http://www.w3.org/2000/svg" xmlns:xlink="http://www.w3.org/1999/xlink" x="0px" y="0px"
	 width="16px" height="16px" viewBox="0 0 16 16" enable-background="new 0 0 16 16" xml:space="preserve">
<g>
	<path fill="#fff" d="M9.349,12.972H8.701v-1.529h0.106c0-0.021-0.006-0.039-0.006-0.061v-1.086c0-0.413,0.18-0.785,0.466-1.041
		C9.266,9.227,9.266,9.199,9.266,9.171c0-0.145,0.036-0.282,0.079-0.416H0.642V1.176c0-0.295,0.238-0.539,0.532-0.539h11.751
		c0.294,0,0.532,0.244,0.532,0.539v5.549h0.006c0.229,0,0.443,0.061,0.636,0.161v-5.71C14.099,0.521,13.573,0,12.925,0H1.174
		C0.524,0,0,0.521,0,1.176v9.085c0,0.656,0.524,1.182,1.174,1.182h4.224v1.529h-0.95v0.946h5.206v-0.443
		C9.512,13.329,9.415,13.158,9.349,12.972z"/>
	<path fill="#fff" d="M15.637,9.931h-0.72l0.517-0.514c0.141-0.142,0.141-0.369,0-0.511l-0.583-0.588
		c-0.07-0.067-0.164-0.1-0.256-0.1c-0.096,0-0.188,0.032-0.259,0.1l-0.513,0.515V8.122c0-0.203-0.162-0.364-0.36-0.364h-1.087
		c-0.202,0-0.363,0.161-0.363,0.364v0.72l-0.514-0.513c-0.069-0.071-0.164-0.107-0.257-0.107c-0.091,0-0.184,0.036-0.254,0.107
		L10.401,8.91c-0.066,0.069-0.104,0.163-0.104,0.261c0,0.093,0.037,0.186,0.104,0.254l0.51,0.506h-0.712
		c-0.199,0-0.364,0.161-0.364,0.365v1.086c0,0.198,0.165,0.362,0.364,0.362h0.712l-0.512,0.512c-0.146,0.142-0.146,0.369,0,0.513
		l0.58,0.581c0.071,0.072,0.164,0.106,0.259,0.106c0.093,0,0.186-0.034,0.256-0.106l0.519-0.516v0.722
		c0,0.201,0.161,0.362,0.363,0.362h1.087c0.198,0,0.36-0.161,0.36-0.362v-0.722l0.518,0.521c0.068,0.067,0.158,0.104,0.256,0.104
		c0.097,0,0.191-0.036,0.256-0.104l0.585-0.586c0.068-0.064,0.106-0.158,0.106-0.253c0-0.097-0.038-0.189-0.106-0.257l-0.515-0.515
		h0.714c0.202,0,0.363-0.164,0.363-0.362v-1.086C16,10.092,15.839,9.931,15.637,9.931z M12.916,12.372
		c-0.847,0-1.532-0.685-1.532-1.532c0-0.851,0.686-1.537,1.532-1.537c0.85,0,1.535,0.687,1.535,1.537
		C14.451,11.688,13.766,12.372,12.916,12.372z"/>
</g>
</svg>
