<?xml version="1.0" standalone="no"?>
<!DOCTYPE svg PUBLIC "-//W3C//DTD SVG 1.1//EN"
    "http://www.w3.org/Graphics/SVG/1.1/DTD/svg11.dtd">
<!-- Generator: Adobe Illustrator 16.0.0, SVG Export Plug-In . SVG Version: 6.00 Build 0)  -->
<svg contentScriptType="text/ecmascript" zoomAndPan="magnify" xmlns:xlink="http://www.w3.org/1999/xlink" baseProfile="full"
    contentStyleType="text/css" id="图层_1" enable-background="new 0 0 16 16" version="1.1" width="16px" xml:space="preserve"
    preserveAspectRatio="xMidYMid meet" viewBox="0 0 16 16" height="16px" xmlns="http://www.w3.org/2000/svg" x="0px" y="0px">           
    <g>                      
        <rect x="6.571" fill="none" width="0.411" height="0.269" y="8.913"/>                    
        <path fill="#FFFFFF" d="M 0.6163333 11.220107 V 2.6011295 h 12.122 v 2.1987524 h 0.71100044 V 2.297175 c 0.0 
            -0.3192619 -0.24200058 -0.5915091 -0.5380001 -0.5915091 H 0.43433335 C 0.13233334 1.7056657 -0.10666666 
            1.9779131 -0.10666666 2.297175 v 9.21814 c 0.0 0.32472897 0.239 0.58823013 0.541 0.58823013 c 1.938 0.0 
            3.8779998 0.0 5.816 0.0 V 11.746015 h 0.21399975 V 11.4519 h 0.41100025 v 0.29411507 h 0.21600008 v 
            0.35752964 c 1.1470003 0.0 2.2930002 0.0 3.4399996 0.0 V 11.220107 H 0.6163333 z"/>                    
        <path fill="#FFFFFF" d="M 6.2503333 13.122558 V 12.468727 H 5.2233334 c -0.18200016 0.20445919 -0.3119998 
            0.61993694 -0.3909998 1.0168276 h -1.0400002 v 0.71177864 c 1.9220002 0.0 3.8370001 0.0 5.757 0.0 v 
            -0.71177864 h -1.04 c -0.07499981 -0.39579773 -0.21000004 -0.8123684 -0.3880005 -1.0168276 h -1.0299997 v 
            0.65492535 H 6.2503333 z"/>                    
        <path fill="#FFFFFF" d="M 6.2503333 12.468727 h 0.8410001 V 12.103544 c -0.2800002 0.0 -0.5609999 0.0 -0.8410001 
            0.0 V 12.468727 z"/>                    
        <rect x="6.4643335" fill="#FFFFFF" width="0.41100025" height="0.10933685" y="11.746015"/>                    
        <path fill="#FFFFFF" d="M 6.8753333 11.746015 v 0.1093359 H 6.4643335 v -0.1093359 H 6.2503333 v 0.35752964 c 
            0.2800002 0.0 0.5609999 0.0 0.8410001 0.0 V 11.746015 H 6.8753333 z"/>                    
        <rect x="6.2503333" fill="#FFFFFF" width="0.8410001" height="0.65492535" y="12.468727"/>                      
        <path fill="#FFFFFF" d="M 11.523334 5.966499 V 14.171093 H 15.893333 V 5.966499 H 11.523334 z M 13.707334 
            13.240641 c -0.2659998 0.0 -0.48099995 -0.23507309 -0.48099995 -0.52481365 s 0.2159996 -0.5259075 0.48099995 
            -0.5259075 c 0.2670002 0.0 0.48099995 0.236166 0.48099995 0.5259075 S 13.974334 13.240641 13.707334 
            13.240641 z M 14.372334 10.991593 h -1.316 l -0.96399975 -3.5829487 h 1.1049995 l 0.52299976 2.7694874 h 
            0.012000084 l 0.5290003 -2.7694874 h 1.1070004 L 14.372334 10.991593 z"/> </g>           
    <path fill="#FFFFFF" d="M 6.774093 3.545929 L 6.5832796 3.5230772 L 2.9333332 4.058628 l 0.0011394024 3.2236915 c 
        0.0 0.0 0.0011389256 0.095560074 0.03246665 0.2185421 c 0.22897577 1.2310615 1.8346565 2.0129895 2.7870138 
        2.3752866 l 0.8504019 0.29457283 l 0.8828678 -0.305377 c 0.9301443 -0.3548174 2.5250006 -1.133007 2.7482815 
        -2.3374763 c 0.037023544 -0.15164948 0.037023544 -0.24679375 0.038163185 -0.26382828 V 4.058628 L 6.774093 
        3.545929 z M 9.823119 7.2640395 c 0.0 0.0087246895 -0.0011386871 0.08517313 -0.031327248 0.20607662 c 
        -0.19935799 1.0690236 -1.6603603 1.7778287 -2.5141802 2.1043944 l -0.6738272 0.23308277 l -0.6567397 -0.22726536 
        c -0.870337 -0.33196735 -2.3330493 -1.0407724 -2.534115 -2.1230912 C 3.3861587 7.350043 3.3838801 7.2744255 
        3.3838801 7.2744255 V 4.3266106 l 3.2028174 -0.46907425 l 0.014239311 0.0016620159 l 0.004556656 -0.0012466908 l 
        0.09797001 0.012464762 l 3.1196556 0.45619416 V 7.2640395 z"/>     
    <path fill="#FFFFFF" d="M 6.657118 4.2339206 L 6.6457267 4.231897 L 3.8866217 4.6263275 v 2.5975776 c 0.0 0.0 
        0.0028481483 0.055422783 0.025631905 0.14482737 c 0.17486453 0.9187193 1.5430248 1.5473814 2.2800767 1.8220673 l 
        0.464787 0.15615463 l 0.46421766 -0.15615463 c 0.7376218 -0.27468586 2.1046429 -0.90294456 2.2806473 -1.8220673 
        c 0.02221489 -0.08980942 0.024492264 -0.14482737 0.024492264 -0.14482737 V 4.6263275 L 6.6679406 4.231897 L 
        6.657118 4.2339206 z M 8.782836 6.3755765 v 0.4130392 H 7.0808954 v 1.2091837 H 6.497633 V 6.7886157 H 4.795692 
        V 6.3755765 h 1.7019415 v -1.2095871 h 0.58269215 v 1.2095871 H 8.782836 z"/></svg>