<?xml version="1.0" encoding="utf-8"?>
<!-- Generator: Adobe Illustrator 16.0.0, SVG Export Plug-In . SVG Version: 6.00 Build 0)  -->
<!DOCTYPE svg PUBLIC "-//W3C//DTD SVG 1.1//EN" "http://www.w3.org/Graphics/SVG/1.1/DTD/svg11.dtd">
<svg version="1.1" id="图层_1" xmlns="http://www.w3.org/2000/svg" xmlns:xlink="http://www.w3.org/1999/xlink" x="0px" y="0px"
	 width="16px" height="16px" viewBox="0 0 16 16" enable-background="new 0 0 16 16" xml:space="preserve">
<g>
	<path fill="#FFFFFF" d="M7.91,14.979c-3.849,0-6.979-3.129-6.979-6.979c0-3.849,3.131-6.979,6.979-6.979
		c2.456,0,4.73,1.327,5.98,3.413L12.34,4.009L15.355,8L16,3.041l-1.169,1.167C13.451,1.699,10.79,0.09,7.91,0.09
		C3.548,0.09,0,3.639,0,8c0,4.361,3.548,7.91,7.91,7.91c4.127,0,7.516-3.096,7.878-7.202l-0.927-0.082
		C14.546,12.189,11.491,14.979,7.91,14.979z"/>
	<g>
		<path fill="#FFFFFF" d="M9.508,12.232H5.862v-1.061H4.75V10.17H3.359V4.859h8.653v5.315h-1.391v1.003H9.508V12.232z"/>
	</g>
</g>
</svg>
