<?xml version="1.0" encoding="utf-8"?>
<!-- Generator: Adobe Illustrator 16.0.0, SVG Export Plug-In . SVG Version: 6.00 Build 0)  -->
<!DOCTYPE svg PUBLIC "-//W3C//DTD SVG 1.1//EN" "http://www.w3.org/Graphics/SVG/1.1/DTD/svg11.dtd">
<svg version="1.1" id="图层_1" xmlns="http://www.w3.org/2000/svg" xmlns:xlink="http://www.w3.org/1999/xlink" x="0px" y="0px"
	 width="16px" height="16px" viewBox="0 0 16 16" enable-background="new 0 0 16 16" xml:space="preserve">
<g>
	<polygon fill="#FFFFFF" points="12.932,5.625 15.264,3.693 12.927,1.768 12.93,3.024 9.932,3.028 9.936,4.37 12.932,4.365 	"/>
	<polygon fill="#FFFFFF" points="12.268,4.612 9.938,6.541 12.271,8.468 12.271,7.21 15.268,7.206 15.266,5.866 12.27,5.87 	"/>
	<path fill="#FFFFFF" d="M6.524,14.719c-0.346-0.197-0.582-0.572-0.583-1.004v-0.402c-0.001-0.431,0.233-0.805,0.577-1.002
		c-0.122-0.379-0.043-0.812,0.239-1.136l0.275-0.295c0.219-0.233,0.518-0.362,0.826-0.364c0.09,0.002,0.182,0.014,0.27,0.033
		c0.191-0.355,0.565-0.598,0.994-0.598h0.372c0.031,0,0.059,0.01,0.091,0.012l-0.01-7.42V2.177L9.572,0l-8.84,0.013l0.021,15.152
		l5.73-0.006C6.472,15.01,6.479,14.859,6.524,14.719z M1.998,1.275l6.31-0.008L8.31,2.179v0.366v0.238L2,2.792L1.998,1.275z
		 M2.002,4.05l6.31-0.008l0.002,1.514l-6.31,0.008L2.002,4.05z M2.006,6.831l6.309-0.008l0.003,1.513l-6.31,0.008L2.006,6.831z
		 M5.167,13.193c-0.522,0-0.948-0.42-0.948-0.941c-0.001-0.523,0.423-0.949,0.945-0.949c0.527-0.002,0.952,0.424,0.953,0.945
		C6.117,12.771,5.693,13.193,5.167,13.193z"/>
	<path fill="#FFFFFF" d="M11.555,13.124h-0.229c-0.104,0-0.21-0.081-0.239-0.185l-0.129-0.317c-0.05-0.093-0.03-0.228,0.043-0.306
		l0.157-0.162c0.072-0.071,0.072-0.193-0.001-0.271l-0.265-0.27c-0.074-0.073-0.189-0.071-0.268,0l-0.154,0.162
		c-0.072,0.076-0.207,0.098-0.302,0.045l-0.312-0.129c-0.094-0.031-0.176-0.146-0.178-0.25v-0.229c0-0.104-0.084-0.19-0.188-0.19
		h-0.37c-0.104,0-0.188,0.088-0.188,0.19v0.229c0,0.104-0.08,0.221-0.182,0.25l-0.311,0.132c-0.089,0.052-0.224,0.03-0.297-0.046
		l-0.158-0.16c-0.072-0.073-0.192-0.071-0.264,0L7.46,11.889c-0.073,0.073-0.073,0.195,0,0.271l0.158,0.163
		c0.074,0.073,0.093,0.211,0.046,0.304L7.54,12.943C7.508,13.047,7.4,13.13,7.297,13.13H7.074c-0.101,0-0.185,0.091-0.185,0.188
		v0.386c0,0.104,0.085,0.192,0.186,0.192H7.3c0.102,0,0.211,0.082,0.241,0.184L7.67,14.4c0.048,0.092,0.029,0.229-0.044,0.304
		l-0.157,0.164c-0.073,0.071-0.073,0.192,0,0.271l0.263,0.271c0.074,0.072,0.194,0.072,0.265,0l0.157-0.161
		c0.074-0.077,0.208-0.099,0.298-0.046l0.312,0.13c0.096,0.032,0.18,0.146,0.18,0.25v0.229C8.943,15.916,9.025,16,9.132,16h0.372
		c0.104,0,0.188-0.087,0.188-0.191v-0.227c0-0.105,0.082-0.218,0.182-0.252l0.312-0.13c0.09-0.056,0.227-0.033,0.297,0.044
		l0.154,0.158c0.073,0.076,0.191,0.076,0.268,0l0.265-0.271c0.072-0.076,0.072-0.199,0-0.271L11.002,14.7
		c-0.072-0.076-0.093-0.214-0.043-0.304l0.127-0.32c0.028-0.102,0.139-0.186,0.241-0.186l0.228-0.002
		c0.104,0,0.188-0.084,0.188-0.188l-0.002-0.386C11.741,13.213,11.657,13.124,11.555,13.124 M10.245,13.508
		c0,0.531-0.417,0.961-0.933,0.961c-0.521,0.002-0.937-0.428-0.938-0.957s0.415-0.955,0.936-0.955
		C9.826,12.555,10.244,12.98,10.245,13.508"/>
</g>
</svg>
