<?xml version="1.0" encoding="utf-8"?>
<!-- Generator: Adobe Illustrator 16.0.0, SVG Export Plug-In . SVG Version: 6.00 Build 0)  -->
<!DOCTYPE svg PUBLIC "-//W3C//DTD SVG 1.1//EN" "http://www.w3.org/Graphics/SVG/1.1/DTD/svg11.dtd">
<svg version="1.1" id="图层_1" xmlns="http://www.w3.org/2000/svg" xmlns:xlink="http://www.w3.org/1999/xlink" x="0px" y="0px"
	 width="16px" height="16px" viewBox="0 0 16 16" enable-background="new 0 0 16 16" xml:space="preserve">
<g>
	<path fill="#FFFFFF" d="M8.085,10.047h0.579v-1H8.085V10.047z M8.085,8h0.579V7H8.085V8z M8.085,6h3V5h-3V6z M10.085,1v1h2v4h1V1
		H10.085z M7.085,5h-4v9h4V5z M2.085,2h2V1h-3v15h7.579v-1H2.085V2z M9.085,0h-4v3h-2v1h8V3h-2V0z M7.585,2h-1V1h1V2z M8.085,11.984
		h0.579v-1H8.085V11.984z M8.085,13.922h0.579v-1H8.085V13.922z"/>
	<path fill="#FFFFFF" d="M9.664,7v9h5.251V7H9.664z M12.289,14.833c-0.312,0-0.562-0.249-0.562-0.562
		c0-0.313,0.252-0.562,0.562-0.562c0.312,0,0.562,0.25,0.562,0.562C12.852,14.583,12.602,14.833,12.289,14.833z M14.165,11.949
		h-3.751v-0.9h3.751V11.949z M14.165,10.3h-3.751V9.398h3.751V10.3z M14.165,8.648h-3.751v-0.9h3.751V8.648z"/>
</g>
</svg>
