<?xml version="1.0" encoding="utf-8"?>
<!-- Generator: Adobe Illustrator 16.0.0, SVG Export Plug-In . SVG Version: 6.00 Build 0)  -->
<!DOCTYPE svg PUBLIC "-//W3C//DTD SVG 1.1//EN" "http://www.w3.org/Graphics/SVG/1.1/DTD/svg11.dtd">
<svg version="1.1" id="图层_1" xmlns="http://www.w3.org/2000/svg" xmlns:xlink="http://www.w3.org/1999/xlink" x="0px" y="0px"
	 width="16px" height="16px" viewBox="0 0 16 16" enable-background="new 0 0 16 16" xml:space="preserve">
<g>
	<path fill="#FFFFFF" d="M13.783,6.168c-0.818,0.813-3.061,3.117-3.879,3.934l-1.939,0.517l-0.017-0.007l0.636-1.834l0.423-0.481
		l2.722-2.709l0.604-0.597l0.173-0.175c0.014-0.01-0.126-0.146-0.113-0.15l-0.201-0.206L11.75,4.895L8.173,8.452L7.96,8.663
		l-0.926,2.829l0.024,0.006l3.021-0.857c0.836-0.83,2.56-2.641,4.056-4.13l-0.342-0.356C13.788,6.16,13.788,6.167,13.783,6.168z"/>
	<path fill="#FFFFFF" d="M15.775,3.779l-0.887-0.89c-0.156-0.155-0.359-0.231-0.562-0.231c-0.199-0.001-0.402,0.078-0.559,0.233
		l-0.3,0.294l1.985,2.022c0.113-0.119,0.229-0.229,0.312-0.311C15.922,4.741,16,4.54,16,4.336
		C16.004,4.135,15.93,3.932,15.775,3.779z"/>
	
		<rect x="12.416" y="4.486" transform="matrix(0.7041 0.7101 -0.7101 0.7041 7.5497 -8.3824)" fill="#FFFFFF" width="2.832" height="0.763"/>
	<polygon fill="#FFFFFF" points="9.514,9.044 9.557,9.561 13.374,5.792 12.838,5.253 9.02,9.018 	"/>
	<polygon fill="#FFFFFF" points="1.755,13.7 7.892,13.7 7.892,12.811 1.765,12.811 	"/>
	
		<rect x="4.442" y="5.919" transform="matrix(-0.9999 -0.0114 0.0114 -0.9999 12.2827 12.7765)" fill="#FFFFFF" width="3.472" height="0.869"/>
	<polygon fill="#FFFFFF" points="8.702,11.885 8.686,14.624 0.876,14.535 0.967,6.729 3.571,6.758 3.602,4.154 8.809,4.215 
		8.777,6.691 9.656,5.816 9.686,3.356 2.743,3.275 0.213,5.849 0.111,5.848 0,15.395 9.544,15.505 9.575,11.639 	"/>
	<path fill="#FFFFFF" d="M1.795,10.207l4.786,0.031l0.28-0.856L1.804,9.34L1.795,10.207z M1.826,7.605L1.814,8.473l5.328,0.054
		l0.101-0.312l0.546-0.543L1.826,7.605z M1.774,11.941l4.244,0.019L6.3,11.098l-4.516-0.021L1.774,11.941z"/>
	<path fill="#FFFFFF" d="M11.248,1.955H4.306L3.458,2.816h6.883v2.659l0.907-0.88V1.955z M10.268,11.756l-0.006,0.506v1.912
		l0.846,0.01l0.039-3.326c-0.104,0.104-0.211,0.217-0.312,0.316C10.631,11.379,10.443,11.574,10.268,11.756z"/>
	<path fill="#FFFFFF" d="M12.932,0.495H5.988L5.142,1.358h6.879v2.658l0.908-0.881v-2.64H12.932z M11.95,10.296l-0.007,0.507v1.913
		l0.847,0.011l0.038-3.33c-0.105,0.105-0.209,0.221-0.311,0.318C12.314,9.921,12.127,10.114,11.95,10.296z"/>
</g>
</svg>
