<?xml version="1.0" encoding="utf-8"?>
<!-- Generator: Adobe Illustrator 16.0.0, SVG Export Plug-In . SVG Version: 6.00 Build 0)  -->
<!DOCTYPE svg PUBLIC "-//W3C//DTD SVG 1.1//EN" "http://www.w3.org/Graphics/SVG/1.1/DTD/svg11.dtd">
<svg version="1.1" id="图层_1" xmlns="http://www.w3.org/2000/svg" xmlns:xlink="http://www.w3.org/1999/xlink" x="0px" y="0px"
	 width="16px" height="16px" viewBox="0 0 16 16" enable-background="new 0 0 16 16" xml:space="preserve">
<g>
	<g>
		<g>
			<path fill="#FFFFFF" d="M7.289,10.021h1.564V8.801c0-0.329,0.148-0.64,0.562-0.912c0.412-0.267,1.562-0.815,1.562-2.254
				c0-1.438-1.205-2.426-2.222-2.637c-1.013-0.21-2.109-0.072-2.89,0.781C5.17,4.543,5.022,5.149,5.022,6.482h1.564V6.173
				c0-0.713,0.08-1.463,1.096-1.666c0.554-0.114,1.073,0.062,1.378,0.361c0.354,0.346,0.355,1.123-0.203,1.508L7.978,6.978
				C7.465,7.308,7.29,7.675,7.29,8.212L7.289,10.021L7.289,10.021z"/>
		</g>
		<g>
			<path fill="#FFFFFF" d="M8.072,11.041c0.565,0,1.026,0.459,1.026,1.023c0,0.562-0.461,1.021-1.026,1.021
				c-0.564,0-1.025-0.457-1.025-1.021C7.047,11.5,7.508,11.041,8.072,11.041z"/>
		</g>
	</g>
	<g>
		<path fill="#FFFFFF" d="M8,16c-4.411,0-8-3.589-8-8s3.589-8,8-8c4.412,0,8,3.589,8,8S12.412,16,8,16z M8,1.371
			C4.346,1.371,1.371,4.345,1.371,8c0,3.654,2.975,6.629,6.629,6.629c3.654,0,6.629-2.975,6.629-6.629
			C14.629,4.345,11.654,1.371,8,1.371z"/>
	</g>
</g>
</svg>
