<?xml version="1.0" encoding="utf-8"?>
<!-- Generator: Adobe Illustrator 16.0.0, SVG Export Plug-In . SVG Version: 6.00 Build 0)  -->
<!DOCTYPE svg PUBLIC "-//W3C//DTD SVG 1.1//EN" "http://www.w3.org/Graphics/SVG/1.1/DTD/svg11.dtd">
<svg version="1.1" id="图层_1" xmlns="http://www.w3.org/2000/svg" xmlns:xlink="http://www.w3.org/1999/xlink" x="0px" y="0px"
	 width="16px" height="16px" viewBox="0 0 16 16" enable-background="new 0 0 16 16" xml:space="preserve">
<g>
	<path fill="#FFFFFF" d="M8.458,13.583c0-1.595,1.104-2.929,2.583-3.302V0H1.709v16h7.753C8.842,15.381,8.458,14.525,8.458,13.583z
		 M3.042,1.333h6.667v1.601H3.042V1.333z M3.042,4.267h6.667v1.6H3.042V4.267z M3.042,7.2h6.667v1.6H3.042V7.2z M6.912,14.15H5.913
		l-0.732-3.334h0.84l0.397,2.576h0.009l0.401-2.576h0.841L6.912,14.15z"/>
	<path fill="#F74848" d="M11.875,11.18c-1.328,0-2.404,1.075-2.404,2.403s1.076,2.403,2.404,2.403c1.327,0,2.404-1.075,2.404-2.403
		S13.202,11.18,11.875,11.18z M11.874,15.309c-0.291,0-0.526-0.235-0.526-0.526s0.235-0.529,0.526-0.529
		c0.292,0,0.528,0.238,0.528,0.529S12.166,15.309,11.874,15.309z M12.373,12.98l-0.12,0.961c-0.009,0.072-0.069,0.125-0.144,0.125
		h-0.473c-0.072,0-0.134-0.053-0.143-0.125l-0.118-0.947l-0.03-0.958c-0.002-0.039,0.014-0.076,0.04-0.104
		c0.027-0.027,0.064-0.045,0.104-0.045h0.77c0.039,0,0.076,0.018,0.104,0.045c0.027,0.028,0.041,0.065,0.039,0.104L12.373,12.98z"/>
</g>
</svg>
