<?xml version="1.0" standalone="no"?><!DOCTYPE svg PUBLIC "-//W3C//DTD SVG 1.1//EN" "http://www.w3.org/Graphics/SVG/1.1/DTD/svg11.dtd"><svg t="1496369823844" class="icon" style="" viewBox="0 0 1024 1024" version="1.1" xmlns="http://www.w3.org/2000/svg" p-id="1003" xmlns:xlink="http://www.w3.org/1999/xlink" width="16" height="16"><defs><style type="text/css"></style></defs><path d="M313.661363 1001.868882L571.574002 743.105046a56.093871 56.093871 0 0 0 6.809575-79.161305l-3.404788-4.255984a46.730706 46.730706 0 0 0-65.542156 0L316.214953 852.909437a46.730706 46.730706 0 0 1-65.542156 0l-80.863698-81.714895a46.730706 46.730706 0 0 1 0-65.542156l193.22168-192.370484a46.730706 46.730706 0 0 0 0-65.542155l-3.404788-4.255985a57.966504 57.966504 0 0 0-80.012501 6.809575L20.849653 708.205976a57.796265 57.796265 0 0 0-5.958377 80.012502l218.757585 219.608782a56.945068 56.945068 0 0 0 80.012502-5.958378z m430.705595-430.705595l258.763836-257.912639a56.945068 56.945068 0 0 0 5.958378-80.012502L790.331587 13.629364a56.945068 56.945068 0 0 0-80.012502 5.958377L452.406446 278.351578a56.093871 56.093871 0 0 0-6.809575 79.161305l7.660772 7.660771a40.602089 40.602089 0 0 0 57.881384 0l200.031255-200.031255a40.602089 40.602089 0 0 1 57.881384 0l88.524471 88.52447a40.602089 40.602089 0 0 1 0 57.881385L657.544882 512.430706a40.602089 40.602089 0 0 0 0 57.881384l6.809574 7.660771a57.115307 57.115307 0 0 0 80.012502-6.809574z m143.001068 263.01982l-46.815826 46.815826-170.239366-171.090563 45.964629-45.964629 171.090563 170.239366z m-110.655588-183.858515l13.619149-64.690959 177.048941 36.601464-13.61915 64.690959-177.04894-36.601464z m-83.417289 297.067693l-64.690959 13.61915-36.601464-177.048941 64.690959-13.619149 36.601464 177.04894zM365.584369 312.399451l-46.815825 46.815825-170.239366-171.090562 46.815825-46.815826 170.239366 171.090563zM342.602055 74.915535l64.690959-13.619149 36.601464 177.048941-64.690959 13.619149L342.602055 74.915535z m-83.417289 297.918891l-13.61915 64.690959-177.04894-36.601464 13.619149-64.690959 177.048941 36.601464z" p-id="1004" fill="#ffffff"></path></svg>