<?xml version="1.0" encoding="utf-8"?>
<!-- Generator: Adobe Illustrator 16.0.0, SVG Export Plug-In . SVG Version: 6.00 Build 0)  -->
<!DOCTYPE svg PUBLIC "-//W3C//DTD SVG 1.1//EN" "http://www.w3.org/Graphics/SVG/1.1/DTD/svg11.dtd">
<svg version="1.1" id="图层_1" xmlns="http://www.w3.org/2000/svg" xmlns:xlink="http://www.w3.org/1999/xlink" x="0px" y="0px"
	 width="16px" height="16px" viewBox="0 0 16 16" enable-background="new 0 0 16 16" xml:space="preserve">
<g>
	<path fill="#FFFFFF" d="M14.627,2.731l-0.821-1.252l1.488-0.152l-0.113,0.24c0,0,0.915,0.676,0.508,1.67
		c0,0-0.398-0.864-0.895-0.857L14.627,2.731z"/>
	<rect x="6.571" y="8.913" fill="none" width="0.411" height="0.269"/>
	<path fill="#FFFFFF" d="M0.723,8.701V0.818h12.122v2.011h0.711V0.54c0-0.292-0.242-0.541-0.538-0.541H0.541
		C0.239-0.001,0,0.248,0,0.54v8.431c0,0.297,0.239,0.538,0.541,0.538c1.938,0,3.878,0,5.816,0V9.182h0.214V8.913h0.411v0.269h0.216
		v0.327c1.147,0,2.293,0,3.44,0V8.701H0.723z"/>
	<path fill="#FFFFFF" d="M6.357,10.441V9.843H5.33c-0.182,0.187-0.312,0.567-0.391,0.93h-1.04v0.651c1.922,0,3.837,0,5.757,0v-0.651
		h-1.04c-0.075-0.362-0.21-0.743-0.388-0.93h-1.03v0.599H6.357z"/>
	<path fill="#FFFFFF" d="M6.357,9.843h0.841V9.509c-0.28,0-0.561,0-0.841,0V9.843z"/>
	<rect x="6.571" y="9.182" fill="#FFFFFF" width="0.411" height="0.1"/>
	<path fill="#FFFFFF" d="M6.982,9.182v0.1H6.571v-0.1H6.357v0.327c0.28,0,0.561,0,0.841,0V9.182H6.982z"/>
	<rect x="6.357" y="9.843" fill="#FFFFFF" width="0.841" height="0.599"/>
	<polygon fill="#FFFFFF" points="6.782,6.188 6.764,6.188 5.924,2.125 4.149,2.125 5.697,7.383 7.808,7.383 9.406,2.125 7.63,2.125 
			"/>
	<path fill="#FFFFFF" d="M11.63,3.896V11.4H16V3.896H11.63z M13.814,10.549c-0.266,0-0.481-0.215-0.481-0.48
		s0.216-0.481,0.481-0.481c0.267,0,0.481,0.216,0.481,0.481S14.081,10.549,13.814,10.549z M14.479,8.492h-1.316l-0.964-3.277h1.105
		l0.523,2.533h0.012l0.529-2.533h1.107L14.479,8.492z"/>
</g>
</svg>
