<?xml version="1.0" encoding="utf-8"?>
<!-- Generator: Adobe Illustrator 16.0.0, SVG Export Plug-In . SVG Version: 6.00 Build 0)  -->
<!DOCTYPE svg PUBLIC "-//W3C//DTD SVG 1.1//EN" "http://www.w3.org/Graphics/SVG/1.1/DTD/svg11.dtd">
<svg version="1.1" id="图层_1" xmlns="http://www.w3.org/2000/svg" xmlns:xlink="http://www.w3.org/1999/xlink" x="0px" y="0px"
	 width="16px" height="16px" viewBox="0 0 16 16" enable-background="new 0 0 16 16" xml:space="preserve">
<g>
	<path fill="#FFFFFF" d="M8.059,13.611c0-0.807,0.23-2.312,0.425-3.426l0.168-0.974h2.771V0H2.2v15.812h6.69
		C8.38,15.219,8.059,14.457,8.059,13.611z M3.518,1.317h6.589v1.582H3.518V1.317z M3.518,4.217h6.589v1.58H3.518V4.217z
		 M3.518,7.115h6.589v1.58H3.518V7.115z M6.354,13.984L5.63,10.689h0.83l0.393,2.547h0.009l0.396-2.547H8.09l-0.748,3.295H6.354z"/>
	<path fill="#FFFFFF" d="M13.391,10.355l-0.021-0.149h-1.396l0.035,0.211c0.125,0.72,0.422,2.472,0.422,3.194
		c0,0.556-0.447,1.009-1.002,1.009c-0.553,0-1.002-0.453-1.002-1.009c0-0.729,0.295-2.479,0.424-3.194l0.034-0.211H9.484
		L9.46,10.355c-0.151,0.885-0.41,2.48-0.41,3.256c0,1.312,1.066,2.389,2.377,2.389c1.312,0,2.376-1.07,2.376-2.389
		C13.8,12.842,13.542,11.24,13.391,10.355z M11.424,15.639c-1.111,0-2.016-0.908-2.016-2.021c0-0.457,0.096-1.229,0.205-1.964h0.658
		c-0.113,0.742-0.213,1.521-0.213,1.964c0,0.755,0.606,1.362,1.359,1.362c0.751,0,1.361-0.607,1.361-1.362
		c0-0.44-0.104-1.222-0.213-1.964h0.656c0.107,0.729,0.203,1.507,0.203,1.964C13.438,14.73,12.534,15.639,11.424,15.639z"/>
</g>
</svg>
