<?xml version="1.0" encoding="utf-8"?>
<!-- Generator: Adobe Illustrator 16.0.0, SVG Export Plug-In . SVG Version: 6.00 Build 0)  -->
<!DOCTYPE svg PUBLIC "-//W3C//DTD SVG 1.1//EN" "http://www.w3.org/Graphics/SVG/1.1/DTD/svg11.dtd">
<svg version="1.1" id="图层_1" xmlns="http://www.w3.org/2000/svg" xmlns:xlink="http://www.w3.org/1999/xlink" x="0px" y="0px"
	 width="16px" height="16px" viewBox="0 0 16 16" enable-background="new 0 0 16 16" xml:space="preserve">
<g>
	<path fill="#FFFFFF" d="M7.879,15.257V9.551c0-0.293,0.134-0.562,0.353-0.752H2.004v-1.6h6.667v1.382
		c0.069-0.015,0.138-0.03,0.208-0.03c0.133,0,0.268,0.026,0.395,0.081l0.73,0.312V0H0.671v16h7.545
		C8.007,15.812,7.879,15.547,7.879,15.257z M2.004,1.332h6.667v1.602H2.004V1.332z M2.004,4.266h6.667v1.6H2.004V4.266z
		 M5.874,14.15H4.875l-0.732-3.334h0.84l0.397,2.576h0.009l0.401-2.576h0.841L5.874,14.15z"/>
	<path fill="#FFFFFF" d="M13.84,10.294l-1.736-0.743l-1.482,0.743L8.88,9.551v2.977v2.729L10.615,16l1.488-0.743l1.479,0.634l0,0
		L13.84,16l1.489-0.743V9.551L13.84,10.294z M14.833,13.618l-0.749-0.612l-0.719-0.623l1.468-0.814V13.618z M10.42,10.75
		l0.211,0.092l0.207-0.104l1.282-0.643l1.524,0.648l0.213,0.092l0.205-0.104l0.771-0.385v0.93l-1.668,0.929L12.232,11.4
		l-1.553,0.104l-1.311-0.62v-0.583L10.42,10.75z"/>
</g>
</svg>
