<?xml version="1.0" encoding="utf-8"?>
<!-- Generator: Adobe Illustrator 19.2.1, SVG Export Plug-In . SVG Version: 6.00 Build 0)  -->
<svg version="1.1" id="图层_1" xmlns="http://www.w3.org/2000/svg" xmlns:xlink="http://www.w3.org/1999/xlink" x="0px" y="0px"
	 width="16px" height="16px" viewBox="0 0 16 16" style="enable-background:new 0 0 16 16;" xml:space="preserve">
<g>
	<path fill="#FFFFFF" d="M15.3,10.9L13.4,11c-1,1.9-2.9,3.2-5.2,3.3C4.9,14.5,2,11.9,1.9,8.5C1.7,5.1,4.3,2.2,7.7,2.1c1.4-0.1,2.7,0.3,3.7,1.1
		L9.7,5.1l6.1,1l-1.5-6l-1.8,1.9c-1.4-1-3.1-1.6-4.9-1.5C3.3,0.6,0,4.2,0.2,8.5C0.4,12.8,4,16.2,8.3,16
		C11.6,15.9,14.2,13.8,15.3,10.9z"/>
</g>
</svg>
