<?xml version="1.0" encoding="utf-8"?>
<!-- Generator: Adobe Illustrator 16.0.0, SVG Export Plug-In . SVG Version: 6.00 Build 0)  -->
<!DOCTYPE svg PUBLIC "-//W3C//DTD SVG 1.1//EN" "http://www.w3.org/Graphics/SVG/1.1/DTD/svg11.dtd">
<svg version="1.1" id="图层_1" xmlns="http://www.w3.org/2000/svg" xmlns:xlink="http://www.w3.org/1999/xlink" x="0px" y="0px"
	 width="16px" height="16px" viewBox="0 0 16 16" enable-background="new 0 0 16 16" xml:space="preserve">
<g>
	<g>
		<path fill="#FFFFFF" d="M8.984,14.673c0,0.644,0.453,1.149,1.046,1.272h2.212v-3.292H8.984V14.673z M9.667,13.501l0.303-0.304
			l0.688,0.688l0.688-0.688l0.302,0.304l-0.688,0.687l0.688,0.688l-0.302,0.304l-0.688-0.688L9.97,15.179l-0.303-0.304l0.688-0.688
			L9.667,13.501z"/>
		<path fill="#FFFFFF" d="M8.984,10.187v1.967h3.258V8.861h-1.95C9.57,8.861,8.984,9.457,8.984,10.187z M10.409,9.424h0.431v0.979
			h0.978l0.001,0.432H10.84v0.978h-0.431v-0.978H9.431v-0.432h0.979V9.424z"/>
		<path fill="#FFFFFF" d="M14.692,8.861h-1.95v3.292H16v-1.967C16,9.457,15.411,8.861,14.692,8.861z M15.167,10.817H13.34v-0.44
			h1.827V10.817z"/>
		<path fill="#FFFFFF" d="M12.742,15.945h2.017C15.446,15.909,16,15.39,16,14.673v-2.02h-3.258V15.945z M13.309,13.573h1.89v0.435
			h-1.89V13.573z M13.309,14.479h1.89v0.437h-1.89V14.479z"/>
	</g>
	<path fill="#FFFFFF" d="M8.239,6.042h1.434c0.586-0.031,1.059-0.475,1.059-1.086V1.13c0-0.622-0.502-1.13-1.115-1.13H5.863
		C5.247,0,4.748,0.508,4.748,1.13v3.826c0,0.549,0.386,0.98,0.892,1.086h1.6v1.938H4.255V7.135c0-0.442-0.357-0.804-0.793-0.804
		H0.793C0.355,6.331,0,6.692,0,7.135v2.721c0,0.391,0.275,0.697,0.634,0.772h0.994v1.755H1.021c-0.363,0-0.658,0.3-0.658,0.668
		v2.255c0,0.324,0.228,0.578,0.525,0.64h2.379c0.345-0.018,0.624-0.278,0.624-0.64v-2.255c0-0.368-0.296-0.668-0.658-0.668H2.627
		v-1.755h0.875c0.417-0.022,0.752-0.338,0.752-0.772V8.979h2.984v3.403H6.633c-0.363,0-0.658,0.3-0.658,0.668v2.255
		c0,0.324,0.228,0.578,0.525,0.64h1.739V6.042z"/>
</g>
</svg>
