<?xml version="1.0" encoding="utf-8"?>
<!-- Generator: Adobe Illustrator 16.0.0, SVG Export Plug-In . SVG Version: 6.00 Build 0)  -->
<!DOCTYPE svg PUBLIC "-//W3C//DTD SVG 1.1//EN" "http://www.w3.org/Graphics/SVG/1.1/DTD/svg11.dtd">
<svg version="1.1" id="图层_1" xmlns="http://www.w3.org/2000/svg" xmlns:xlink="http://www.w3.org/1999/xlink" x="0px" y="0px"
	 width="16px" height="16px" viewBox="0 0 16 16" enable-background="new 0 0 16 16" xml:space="preserve">
<g>
	<g>
		<path fill="#FFFFFF" d="M6.209,3.212H0.564C0.254,3.212,0,3.463,0,3.777v4.365c0,0.314,0.254,0.566,0.564,0.566h2.029v0.733H2.137
			v0.457h1.027V8.238C3.135,8.192,3.113,8.145,3.113,8.085c0-0.058,0.021-0.107,0.051-0.151V7.418H0.309V3.777
			c0-0.142,0.115-0.259,0.256-0.259H6.21c0.105,0,0.193,0.063,0.232,0.15h0.312C6.701,3.41,6.484,3.212,6.209,3.212z M15.436,3.212
			H9.791c-0.273,0-0.492,0.198-0.545,0.457h0.312c0.039-0.087,0.129-0.15,0.229-0.15h5.646c0.142,0,0.256,0.117,0.256,0.259v3.641
			h-2.67V9.9h0.847V9.443H13.41V8.709h2.025C15.746,8.709,16,8.457,16,8.143V3.777C16,3.463,15.746,3.212,15.436,3.212z"/>
		<path fill="#FFFFFF" d="M11.676,4.301H8.092H4.51c-0.396,0-0.717,0.317-0.717,0.717v5.541c0,0.398,0.32,0.719,0.717,0.719h2.576
			v0.938h-0.58v0.578h1.586H9.68v-0.58H9.1v-0.936h2.576c0.396,0,0.717-0.317,0.717-0.719V5.018
			C12.393,4.618,12.072,4.301,11.676,4.301z M12,9.639H8.092H4.184V5.018c0-0.18,0.148-0.329,0.326-0.329h3.582h3.584
			c0.18,0,0.324,0.149,0.324,0.329V9.639z"/>
	</g>
	<path fill="#FFFFFF" d="M8,5.349c-1.049,0-1.898,0.852-1.898,1.9S6.952,9.146,8,9.146s1.898-0.854,1.898-1.897
		C9.898,6.2,9.049,5.349,8,5.349z M8.355,8.466H7.627L7.092,6.031h0.613l0.291,1.883h0.006l0.293-1.883h0.613L8.355,8.466z"/>
</g>
</svg>
