<?xml version="1.0" encoding="utf-8"?>
<!-- Generator: Adobe Illustrator 16.0.0, SVG Export Plug-In . SVG Version: 6.00 Build 0)  -->
<!DOCTYPE svg PUBLIC "-//W3C//DTD SVG 1.1//EN" "http://www.w3.org/Graphics/SVG/1.1/DTD/svg11.dtd">
<svg version="1.1" id="图层_1" xmlns="http://www.w3.org/2000/svg" xmlns:xlink="http://www.w3.org/1999/xlink" x="0px" y="0px"
	 width="16px" height="16px" viewBox="0 0 16 16" enable-background="new 0 0 16 16" xml:space="preserve">
<g>
	<path fill="#FFFFFF" d="M0.668,14.105h6.295c-0.25-0.59-0.387-1.239-0.387-1.92c0-1.765,0.931-3.297,2.32-4.173V0H0.668V14.105z
		 M4.782,12.682c-0.502,0-0.906-0.406-0.906-0.906S4.28,10.87,4.782,10.87c0.501,0,0.906,0.405,0.906,0.905
		S5.283,12.682,4.782,12.682z M1.844,1.175h5.877v1.41H1.844V1.175z M1.844,3.762h5.877v1.409H1.844V3.762z M1.844,6.348h5.877
		v1.409H1.844V6.348z"/>
	<path fill="#FFFFFF" d="M11.521,8.374c-2.108,0-3.813,1.706-3.813,3.812c0,2.108,1.705,3.813,3.813,3.813
		c2.104,0,3.811-1.705,3.811-3.813C15.332,10.08,13.627,8.374,11.521,8.374z M13.725,12.841h-1.535v1.496h-1.342v-1.496H9.314
		v-1.309h1.531v-1.494h1.344v1.494h1.533v1.309H13.725z"/>
</g>
</svg>
