<?xml version="1.0" encoding="utf-8"?>
<!-- Generator: Adobe Illustrator 16.0.0, SVG Export Plug-In . SVG Version: 6.00 Build 0)  -->
<!DOCTYPE svg PUBLIC "-//W3C//DTD SVG 1.1//EN" "http://www.w3.org/Graphics/SVG/1.1/DTD/svg11.dtd">
<svg version="1.1" id="图层_1" xmlns="http://www.w3.org/2000/svg" xmlns:xlink="http://www.w3.org/1999/xlink" x="0px" y="0px"
	 width="16px" height="16px" viewBox="0 0 16 16" enable-background="new 0 0 16 16" xml:space="preserve">
<g>
	<path fill="#FFFFFF" d="M13,4.579v-2H6.5l-1.999-2H0v13l2-9H13z M3,5.579l-3,8h8.503c-0.111-0.367-0.188-0.748-0.188-1.149
		c0-2.218,1.806-4.021,4.025-4.021c0.865,0,1.662,0.28,2.319,0.748L16,5.579H3z"/>
	<path fill="#FFFFFF" d="M12.34,9.432c-1.656,0-2.999,1.342-2.999,2.996s1.343,2.994,2.999,2.994c1.648,0,2.993-1.34,2.993-2.994
		S13.988,9.432,12.34,9.432z M12.753,12.82v1.496l-0.839-0.021V12.82h-1.428V12.01h1.428v-1.406l0.839,0.021v1.387h1.431v0.812
		h-1.431V12.82z"/>
</g>
</svg>
