<?xml version="1.0" encoding="utf-8"?>
<!-- Generator: Adobe Illustrator 19.2.1, SVG Export Plug-In . SVG Version: 6.00 Build 0)  -->
<svg version="1.1" id="图层_1" xmlns="http://www.w3.org/2000/svg" xmlns:xlink="http://www.w3.org/1999/xlink" x="0px" y="0px"
	 width="16px" height="16px" viewBox="0 0 16 16" style="enable-background:new 0 0 16 16;" xml:space="preserve">
<g>
	<path fill="#FFFFFF" d="M9.7,7.6l4.5-4.5h0.6L16,0.7l-0.6-0.6l-2.5,1.2v0.6L8.3,6.5L6.6,5.3C7.3,4,7.2,2.3,6,1.2C5.1,0.3,3.8,0,2.7,0.3l2.1,2.1
		v2.5H2.3L0.2,2.7c-0.3,1.2,0,2.4,0.9,3.4c1.1,1.1,2.8,1.3,4.1,0.6l0.9,1.1l-5.6,4.4c-1,1-0.4,2.2,0.1,2.7l0.5,0.6
		c0.5,0.4,1.5,0.6,2.7,0.2L8,10.2l4.1,5.2c1,1,2.2,0.4,2.7-0.1l0.6-0.6c0.4-0.5,1.1-1.5,0.1-2.7L9.7,7.6z M14,14
		c-0.3,0.3-0.7,0.3-1,0c-0.3-0.3-0.3-0.8,0-1c0.3-0.3,0.7-0.3,1,0C14.3,13.3,14.3,13.8,14,14z"/>
</g>
</svg>
