<?xml version="1.0" encoding="utf-8"?>
<!-- Generator: Adobe Illustrator 16.0.0, SVG Export Plug-In . SVG Version: 6.00 Build 0)  -->
<!DOCTYPE svg PUBLIC "-//W3C//DTD SVG 1.1//EN" "http://www.w3.org/Graphics/SVG/1.1/DTD/svg11.dtd">
<svg version="1.1" id="图层_1" xmlns="http://www.w3.org/2000/svg" xmlns:xlink="http://www.w3.org/1999/xlink" x="0px" y="0px"
	 width="16px" height="16px" viewBox="0 0 16 16" enable-background="new 0 0 16 16" xml:space="preserve">
<g>
	<path fill="#FFFFFF" d="M8,0C3.589,0,0,3.588,0,8s3.589,8,8,8s8-3.588,8-8S12.411,0,8,0z M8,14.629
		c-3.655,0-6.629-2.975-6.629-6.629c0-3.655,2.974-6.629,6.629-6.629c3.654,0,6.629,2.974,6.629,6.629
		C14.629,11.654,11.654,14.629,8,14.629z"/>
	<path fill="#FFFFFF" d="M7.499,6.264l-2.69,1.957l1.03,1.417l1.299-0.945v4.238h1.752v-4.24l1.299,0.943l1.031-1.417L8.529,6.263
		C8.222,6.04,7.806,6.04,7.499,6.264z"/>
	<rect x="4.658" y="3.824" fill="#FFFFFF" width="6.684" height="1.752"/>
</g>
</svg>
