<?xml version="1.0" encoding="utf-8"?>
<!-- Generator: Adobe Illustrator 16.0.0, SVG Export Plug-In . SVG Version: 6.00 Build 0)  -->
<!DOCTYPE svg PUBLIC "-//W3C//DTD SVG 1.1//EN" "http://www.w3.org/Graphics/SVG/1.1/DTD/svg11.dtd">
<svg version="1.1" id="图层_1" xmlns="http://www.w3.org/2000/svg" xmlns:xlink="http://www.w3.org/1999/xlink" x="0px" y="0px"
	 width="16px" height="16px" viewBox="0 0 16 16" enable-background="new 0 0 16 16" xml:space="preserve">
<g>
	<path fill="#FFFFFF" d="M14.152,2.249h-0.207V1.91c0-0.377-0.307-0.685-0.688-0.685h-1.364c-0.377,0-0.688,0.308-0.688,0.685v0.339
		h-9.36C0.826,2.249,0,3.075,0,4.094v6.154c0,1.02,0.826,1.846,1.846,1.846h7.488l0.35-0.275c-0.227-0.109-0.436-0.268-0.621-0.447
		c-0.473-0.479-0.713-1.12-0.705-1.78c-0.684,0.792-1.687,1.31-2.819,1.31C3.48,10.9,1.81,9.23,1.81,7.171
		c0-2.06,1.67-3.729,3.729-3.729c2.058,0,3.729,1.67,3.729,3.729c0,0.114-0.021,0.222-0.035,0.333l0.942-0.248
		c0.208-0.054,0.421-0.082,0.634-0.082c0.654,0,1.271,0.255,1.732,0.717c0.32,0.321,0.538,0.712,0.643,1.13l0.527-0.527v-0.46
		l2.229-1.113L16,6.981V4.094C16,3.075,15.174,2.249,14.152,2.249z"/>
	<path fill="#FFFFFF" d="M15.484,9.426L16,8.395l-0.258-0.258l-1.031,0.515v0.256l-1.938,1.939l-0.689-0.537
		c0.292-0.557,0.214-1.248-0.25-1.713c-0.382-0.386-0.918-0.501-1.404-0.375l0.887,0.891v1.025H10.29L9.4,9.254
		c-0.131,0.488-0.01,1.025,0.369,1.404c0.467,0.467,1.164,0.547,1.717,0.25l0.371,0.473l-2.323,1.828
		c-0.423,0.436-0.157,0.912,0.022,1.119l0.229,0.23c0.199,0.176,0.609,0.258,1.119,0.061l1.738-2.236l1.705,2.166
		c0.438,0.42,0.909,0.158,1.113-0.021l0.232-0.229c0.177-0.201,0.439-0.613,0.062-1.121L13.35,11.3l1.875-1.873L15.484,9.426
		L15.484,9.426z M14.727,13.553c0.119-0.119,0.312-0.119,0.437,0c0.11,0.117,0.11,0.312,0,0.432c-0.119,0.117-0.312,0.117-0.437,0
		C14.607,13.863,14.607,13.67,14.727,13.553z"/>
	<path fill="#FFFFFF" d="M5.539,4.672c-1.297,0-2.347,1.051-2.347,2.346c0,1.296,1.05,2.347,2.347,2.347
		c1.295,0,2.346-1.051,2.346-2.347C7.885,5.723,6.834,4.672,5.539,4.672z M6.016,8.652H5.038L4.32,5.383h0.824l0.389,2.529h0.008
		l0.395-2.529h0.822L6.016,8.652z"/>
</g>
</svg>
