<?xml version="1.0" encoding="utf-8"?>
<!-- Generator: Adobe Illustrator 16.0.0, SVG Export Plug-In . SVG Version: 6.00 Build 0)  -->
<!DOCTYPE svg PUBLIC "-//W3C//DTD SVG 1.1//EN" "http://www.w3.org/Graphics/SVG/1.1/DTD/svg11.dtd">
<svg version="1.1" id="图层_1" xmlns="http://www.w3.org/2000/svg" xmlns:xlink="http://www.w3.org/1999/xlink" x="0px" y="0px"
	 width="16px" height="16px" viewBox="0 0 16 16" enable-background="new 0 0 16 16" xml:space="preserve">
<g>
	<polygon fill="#FFFFFF" points="13.192,10.324 15.997,7.99 13.176,5.674 13.178,7.188 9.567,7.204 9.575,8.821 13.186,8.806 	"/>
	<polygon fill="#FFFFFF" points="5.673,13.193 8.007,15.999 10.323,13.178 8.81,13.181 8.794,9.568 7.177,9.577 7.192,13.188 	"/>
	<polygon fill="#FFFFFF" points="2.808,5.672 0,8.006 2.821,10.321 2.818,8.807 6.431,8.792 6.422,7.174 2.81,7.189 	"/>
	<polygon fill="#FFFFFF" points="10.324,2.805 7.991,-0.001 5.674,2.821 7.188,2.817 7.204,6.43 8.821,6.421 8.806,2.811 	"/>
</g>
</svg>
