<?xml version="1.0" encoding="utf-8"?>
<!-- Generator: Adobe Illustrator 16.0.0, SVG Export Plug-In . SVG Version: 6.00 Build 0)  -->
<!DOCTYPE svg PUBLIC "-//W3C//DTD SVG 1.1//EN" "http://www.w3.org/Graphics/SVG/1.1/DTD/svg11.dtd">
<svg version="1.1" id="图层_1" xmlns="http://www.w3.org/2000/svg" xmlns:xlink="http://www.w3.org/1999/xlink" x="0px" y="0px"
	 width="16px" height="16px" viewBox="0 0 16 16" enable-background="new 0 0 16 16" xml:space="preserve">
<g>
	<path fill="#FFFFFF" d="M8.458,13.583c0-1.595,1.104-2.929,2.583-3.302V0H1.709v16h7.753C8.842,15.381,8.458,14.525,8.458,13.583z
		 M3.042,1.333h6.667v1.601H3.042V1.333z M3.042,4.267h6.667v1.6H3.042V4.267z M3.042,7.2h6.667v1.6H3.042V7.2z M6.912,14.15H5.913
		l-0.732-3.334h0.84l0.397,2.576h0.009l0.401-2.576h0.841L6.912,14.15z"/>
	<path fill="#FF8518" d="M11.875,11.169c-1.334,0-2.415,1.081-2.415,2.415c0,1.331,1.081,2.413,2.415,2.413
		c1.332,0,2.414-1.082,2.414-2.413C14.289,12.25,13.207,11.169,11.875,11.169z M11.895,15.244c-0.246,0-0.447-0.203-0.447-0.452
		c0-0.246,0.201-0.448,0.447-0.448c0.25,0,0.451,0.202,0.451,0.448C12.346,15.041,12.145,15.244,11.895,15.244z M12.412,13.648
		c-0.125,0.08-0.139,0.131-0.139,0.172v0.363c0,0.08-0.064,0.146-0.145,0.146h-0.466c-0.08,0-0.146-0.063-0.146-0.146v-0.537
		c0-0.219,0.084-0.369,0.271-0.489l0.26-0.177c0.055-0.037,0.066-0.094,0.069-0.123c0.005-0.049-0.011-0.086-0.028-0.104
		c-0.051-0.049-0.128-0.078-0.209-0.078c-0.238,0.041-0.283,0.117-0.283,0.363c0,0.079-0.063,0.236-0.145,0.236H10.99
		c-0.08,0-0.145-0.065-0.145-0.146c0-0.405,0.04-0.631,0.286-0.901c0.183-0.199,0.433-0.306,0.726-0.306
		c0.088,0,0.18,0.011,0.272,0.029c0.375,0.077,0.772,0.43,0.772,0.926C12.904,13.35,12.559,13.561,12.412,13.648z"/>
</g>
</svg>
