<?xml version="1.0" encoding="utf-8"?>
<!-- Generator: Adobe Illustrator 16.0.0, SVG Export Plug-In . SVG Version: 6.00 Build 0)  -->
<!DOCTYPE svg PUBLIC "-//W3C//DTD SVG 1.1//EN" "http://www.w3.org/Graphics/SVG/1.1/DTD/svg11.dtd">
<svg version="1.1" id="图层_1" xmlns="http://www.w3.org/2000/svg" xmlns:xlink="http://www.w3.org/1999/xlink" x="0px" y="0px"
	 width="16px" height="16px" viewBox="0 0 16 16" enable-background="new 0 0 16 16" xml:space="preserve">
<g>
	<path fill="#FFFFFF" d="M14.154,1.23H1.846C0.827,1.23,0,2.057,0,3.076v9.847c0,1.019,0.827,1.847,1.846,1.847h12.308
		c1.02,0,1.847-0.828,1.847-1.847V3.076C16,2.057,15.173,1.23,14.154,1.23z M3.029,3.471c0-0.244,0.197-0.442,0.441-0.442h0.442
		c0.245,0,0.442,0.198,0.442,0.442v0.442c0,0.245-0.197,0.442-0.442,0.442H3.471c-0.244,0-0.441-0.197-0.441-0.442L3.029,3.471
		L3.029,3.471z M1.183,3.471c0-0.244,0.198-0.442,0.442-0.442h0.442c0.244,0,0.442,0.198,0.442,0.442v0.442
		c0,0.245-0.198,0.442-0.442,0.442H1.625c-0.244,0-0.442-0.197-0.442-0.442V3.471z M14.77,12.923c0,0.339-0.271,0.615-0.615,0.615
		H1.846c-0.339,0-0.615-0.276-0.615-0.615V5.538H14.77V12.923z M14.77,4.308H4.923V3.076h9.847V4.308z"/>
	<g>
		<g>
			<rect x="2.597" y="6.27" fill="#FFFFFF" width="3.727" height="1.014"/>
		</g>
		<g>
			<rect x="4.404" y="8.077" fill="#FFFFFF" width="3.727" height="1.015"/>
		</g>
		<g>
			<rect x="5.76" y="9.885" fill="#FFFFFF" width="3.727" height="1.016"/>
		</g>
		<g>
			<rect x="2.597" y="11.693" fill="#FFFFFF" width="3.727" height="1.014"/>
		</g>
	</g>
</g>
</svg>
