<?xml version="1.0" encoding="utf-8"?>
<!-- Generator: Adobe Illustrator 16.0.0, SVG Export Plug-In . SVG Version: 6.00 Build 0)  -->
<!DOCTYPE svg PUBLIC "-//W3C//DTD SVG 1.1//EN" "http://www.w3.org/Graphics/SVG/1.1/DTD/svg11.dtd">
<svg version="1.1" id="图层_1" xmlns="http://www.w3.org/2000/svg" xmlns:xlink="http://www.w3.org/1999/xlink" x="0px" y="0px"
	 width="16px" height="16px" viewBox="0 0 16 16" enable-background="new 0 0 16 16" xml:space="preserve">
<g>
	<path fill="#FFFFFF" d="M11.021,12.303l2.742,3.481c0.418,0.401,0.867,0.151,1.064-0.022l0.227-0.221
		c0.168-0.191,0.422-0.586,0.057-1.068l-3.521-2.74c0.281-0.522,0.206-1.189-0.236-1.64c-0.362-0.362-0.877-0.479-1.345-0.356
		l0.851,0.854v0.979H9.875l-0.85-0.848c-0.123,0.465-0.006,0.979,0.354,1.342C9.827,12.51,10.495,12.586,11.021,12.303z
		 M14.12,15.243c-0.113-0.115-0.113-0.3,0-0.412c0.112-0.114,0.298-0.114,0.412,0c0.11,0.112,0.11,0.297,0,0.412
		C14.418,15.355,14.232,15.355,14.12,15.243z"/>
	<path fill="#FFFFFF" d="M8.033,10.46l0.262-0.991l0.466-0.463l0.987-0.262c0.204-0.055,0.416-0.081,0.627-0.081
		c0.223,0,0.438,0.04,0.645,0.097C10.296,8.049,9.79,6.354,9.79,4.362c0-1.561-1.004-2.884-2.399-3.372C7.291,0.433,6.804,0,6.216,0
		C5.627,0,5.139,0.433,5.045,0.989C3.647,1.478,2.646,2.801,2.646,4.361c0,2.064-0.546,3.821-1.311,4.481
		C0.907,9.21,0.662,9.746,0.662,10.312c0,0.652,0.532,1.188,1.189,1.188h3.175c0,0.657,0.532,1.188,1.189,1.188
		c0.656,0,1.188-0.528,1.188-1.188h0.604C7.947,11.161,7.941,10.809,8.033,10.46z M6.216,9.992c-0.582,0-1.056-0.473-1.056-1.051
		c0-0.583,0.474-1.062,1.056-1.062S7.27,8.359,7.27,8.941C7.27,9.521,6.798,9.992,6.216,9.992z M7.211,4.884L6.972,6.802
		C6.955,6.945,6.831,7.049,6.686,7.049H5.744c-0.147,0-0.27-0.104-0.285-0.247L5.223,4.91L5.16,2.996
		c-0.001-0.079,0.025-0.153,0.081-0.21c0.056-0.054,0.13-0.087,0.205-0.087h1.539c0.075,0,0.15,0.033,0.204,0.087
		c0.056,0.057,0.082,0.131,0.08,0.21L7.211,4.884z"/>
	<path fill="#FFFFFF" d="M11.88,12.357l0.306-0.045l1.92-1.924v-0.244l0.987-0.492L15.338,9.9l-0.492,0.98H14.6l-1.945,1.944
		l-0.033,0.262l-2.146,2.765c-0.485,0.188-0.882,0.106-1.07-0.062L9.18,15.57c-0.174-0.197-0.427-0.652-0.021-1.068L11.88,12.357z"
		/>
</g>
</svg>
