<?xml version="1.0" encoding="utf-8"?>
<!-- Generator: Adobe Illustrator 16.0.0, SVG Export Plug-In . SVG Version: 6.00 Build 0)  -->
<!DOCTYPE svg PUBLIC "-//W3C//DTD SVG 1.1//EN" "http://www.w3.org/Graphics/SVG/1.1/DTD/svg11.dtd">
<svg version="1.1" id="图层_1" xmlns="http://www.w3.org/2000/svg" xmlns:xlink="http://www.w3.org/1999/xlink" x="0px" y="0px"
	 width="16px" height="16px" viewBox="0 0 16 16" enable-background="new 0 0 16 16" xml:space="preserve">
<g>
	<g>
		<ellipse fill="#FFFFFF" cx="5.656" cy="4.587" rx="5.678" ry="1.388"/>
		<path fill="#FFFFFF" d="M5.656,9.311c3.135,0,5.678-0.623,5.678-1.389V5.555c0,0.766-2.543,1.387-5.678,1.387
			c-3.135,0-5.677-0.621-5.677-1.387v2.366C-0.021,8.688,2.521,9.311,5.656,9.311z"/>
		<path fill="#FFFFFF" d="M5.656,12.605c0.391,0,0.772-0.01,1.142-0.027c0.096-0.959,0.517-1.822,1.173-2.459
			c-0.708,0.078-1.489,0.121-2.314,0.121c-3.135,0-5.677-0.621-5.677-1.387v2.359C-0.021,11.986,2.521,12.605,5.656,12.605z"/>
		<path fill="#FFFFFF" d="M5.656,13.539c-3.135,0-5.677-0.621-5.677-1.389v2.367c0,0.77,2.542,1.387,5.677,1.387
			c0.808,0,1.575-0.041,2.271-0.115c-0.601-0.602-0.994-1.396-1.114-2.279C6.438,13.529,6.052,13.539,5.656,13.539z"/>
		<path fill="#FFFFFF" d="M12.016,3.724c0.195,0.248,0.318,0.53,0.318,0.864c0,0.038,0,1.476,0,1.476
			c2.152-0.197,3.688-0.704,3.688-1.299V2.399C16.021,3.022,14.334,3.55,12.016,3.724z"/>
		<path fill="#FFFFFF" d="M12.334,6.995v2.33c0.02,0.008,0.035,0.021,0.055,0.03c2.123-0.201,3.633-0.703,3.633-1.292V5.698
			C16.021,6.292,14.486,6.797,12.334,6.995z"/>
		<path fill="#FFFFFF" d="M13.535,10.137c0.572,0.564,0.969,1.299,1.119,2.121c0.846-0.24,1.367-0.553,1.367-0.896V8.994
			C16.021,9.471,15.029,9.887,13.535,10.137z"/>
		<path fill="#FFFFFF" d="M5.617,2.2h0.039c1.202,0,3.354,0.087,4.891,0.616c3.041-0.026,5.475-0.634,5.475-1.384
			c0-0.769-2.543-1.389-5.678-1.389s-5.677,0.62-5.677,1.389C4.667,1.716,5.017,1.98,5.617,2.2z"/>
		<path fill="#FFFFFF" d="M10.742,9.988c-1.648,0-2.985,1.334-2.985,2.984c0,1.646,1.336,2.979,2.985,2.979
			c1.648,0,2.984-1.338,2.984-2.979C13.727,11.322,12.391,9.988,10.742,9.988z M12.395,13.463h-1.146v1.123H10.24v-1.123H9.09V12.48
			h1.15v-1.123h1.006v1.123h1.148V13.463L12.395,13.463z"/>
	</g>
</g>
</svg>
