<?xml version="1.0" encoding="utf-8"?>
<!-- Generator: Adobe Illustrator 16.0.0, SVG Export Plug-In . SVG Version: 6.00 Build 0)  -->
<!DOCTYPE svg PUBLIC "-//W3C//DTD SVG 1.1//EN" "http://www.w3.org/Graphics/SVG/1.1/DTD/svg11.dtd">
<svg version="1.1" id="图层_1" xmlns="http://www.w3.org/2000/svg" xmlns:xlink="http://www.w3.org/1999/xlink" x="0px" y="0px"
	 width="13px" height="16px" viewBox="0 0 13 16" enable-background="new 0 0 13 16" xml:space="preserve">
<g>
	<path fill="#FF8000" d="M9.745,10.039c-1.647,0-2.982,1.334-2.982,2.98S8.098,16,9.745,16c1.646,0,2.979-1.334,2.979-2.98
		S11.391,10.039,9.745,10.039z M9.744,13.554l-1.213,1.214l-0.534-0.534l1.214-1.214l0.533-0.533l1.213-1.213l0.533,0.533
		l-1.213,1.213L9.744,13.554z"/>
	<path fill="#FF8000" d="M0,0v15.336h6.709C6.215,14.69,5.91,13.894,5.91,13.02c0-1.84,1.304-3.379,3.035-3.748V0H0z M4.472,13.621
		c-0.542,0-0.985-0.441-0.985-0.985S3.93,11.65,4.472,11.65c0.546,0,0.986,0.441,0.986,0.985S5.018,13.621,4.472,13.621z
		 M5.834,9.41H3.14L1.165,2.701H3.43l1.072,5.185h0.023l1.083-5.185h2.268L5.834,9.41z"/>
</g>
</svg>
