<?xml version="1.0" encoding="utf-8"?>
<!-- Generator: Adobe Illustrator 16.0.0, SVG Export Plug-In . SVG Version: 6.00 Build 0)  -->
<!DOCTYPE svg PUBLIC "-//W3C//DTD SVG 1.1//EN" "http://www.w3.org/Graphics/SVG/1.1/DTD/svg11.dtd">
<svg version="1.1" id="图层_1" xmlns="http://www.w3.org/2000/svg" xmlns:xlink="http://www.w3.org/1999/xlink" x="0px" y="0px"
	 width="16px" height="16px" viewBox="0 0 16 16" enable-background="new 0 0 16 16" xml:space="preserve">
<g>
	<path fill="#FFFFFF" d="M10.677,11.857l3.072,3.896c0.469,0.452,0.978,0.17,1.196-0.021l0.25-0.248
		c0.188-0.213,0.474-0.655,0.062-1.197l-3.942-3.069c0.313-0.59,0.229-1.339-0.271-1.837c-0.405-0.408-0.979-0.537-1.503-0.398
		l0.95,0.951v1.104H9.391L8.44,10.086c-0.138,0.521-0.009,1.096,0.398,1.504C9.338,12.089,10.087,12.173,10.677,11.857z
		 M14.148,15.152c-0.129-0.129-0.129-0.336,0-0.463c0.125-0.127,0.332-0.127,0.461,0c0.125,0.127,0.125,0.334-0.002,0.463
		C14.48,15.277,14.273,15.277,14.148,15.152z"/>
	<path fill="#FFFFFF" d="M7.487,8h1.916c0.186-0.04,0.363-0.071,0.555-0.071c0.186,0,0.355,0.021,0.529,0.059V7h-3V8z M7.487,6h3V5
		h-3V6z M9.486,1v1h2v6.453c0.093,0.07,0.187,0.138,0.269,0.221c0.371,0.37,0.593,0.832,0.688,1.317l0.045-0.046V1H9.486z M6.487,5
		h-4v9h4V5z M1.487,15V2h2V1h-3v15h7.245c-0.224-0.318-0.348-0.661-0.372-1H1.487z M8.487,0h-4v3h-2v1h8V3h-2V0z M6.987,2h-1V1h1V2z
		"/>
	<path fill="#FFFFFF" d="M11.639,11.918l0.342-0.052l2.151-2.15V9.439l1.104-0.559L15.51,9.16l-0.553,1.104h-0.273l-2.182,2.182
		l-0.043,0.298l-2.402,3.092c-0.543,0.208-0.981,0.123-1.199-0.062l-0.246-0.25c-0.193-0.223-0.479-0.729-0.023-1.193L11.639,11.918
		z"/>
</g>
</svg>
