<?xml version="1.0" encoding="utf-8"?>
<!-- Generator: Adobe Illustrator 16.0.0, SVG Export Plug-In . SVG Version: 6.00 Build 0)  -->
<!DOCTYPE svg PUBLIC "-//W3C//DTD SVG 1.1//EN" "http://www.w3.org/Graphics/SVG/1.1/DTD/svg11.dtd">
<svg version="1.1" id="图层_1" xmlns="http://www.w3.org/2000/svg" xmlns:xlink="http://www.w3.org/1999/xlink" x="0px" y="0px"
	 width="16px" height="16px" viewBox="0 0 16 16" enable-background="new 0 0 16 16" xml:space="preserve">
<path fill="#FFFFFF" d="M11.998,6.629c0-0.189-0.07-0.315-0.307-0.315h-0.178v0.643h0.182C11.936,6.956,11.998,6.777,11.998,6.629z
	 M9.723,6.355L9.516,7.472h0.428L9.729,6.355H9.723z M13.438,10.213c-1.416,0-2.562,1.146-2.562,2.562
	c0,1.414,1.146,2.562,2.562,2.562c1.414,0,2.562-1.147,2.562-2.562C16,11.357,14.852,10.213,13.438,10.213z M14.855,13.197h-0.986
	v0.964h-0.864v-0.964h-0.987v-0.844h0.987v-0.965h0.864v0.965h0.986V13.197z M13.438,9.213c0.519,0,0.996,0.112,1.438,0.309
	c1.521-1.625,1.498-4.167-0.088-5.75c-0.995-0.995-2.371-1.374-3.66-1.143c-0.163-0.257-0.354-0.504-0.573-0.728
	c-1.646-1.647-4.32-1.647-5.969,0C4.089,2.397,3.75,2.989,3.555,3.616C1.584,3.649,0,5.249,0,7.225c0,1.962,1.562,3.548,3.51,3.605
	v0.01h6.943C11.09,9.863,12.188,9.213,13.438,9.213z M12.939,5.899h1.449v0.478h-0.859v0.502h0.807v0.477h-0.807v0.572h0.896v0.478
	h-1.485V5.899L12.939,5.899z M2.683,8.405H1.932L1.38,5.899h0.632l0.299,1.938h0.007L2.62,5.899h0.632L2.683,8.405z M5.79,8.405
	H5.242V6.454H5.235L4.853,8.405H4.396L3.993,6.454H3.986v1.951H3.46V5.899h0.863l0.309,1.646h0.007l0.299-1.646H5.79V8.405z
	 M8.267,8.405H7.614L7.357,6.626H7.351L7.108,8.405H6.456L6.014,5.899h0.59L6.82,7.682h0.008L7.087,5.9h0.548l0.281,1.782h0.007
	L8.133,5.9h0.569L8.267,8.405z M10.122,8.405l-0.091-0.478h-0.6L9.343,8.405h-0.61l0.646-2.506h0.729l0.625,2.506H10.122z
	 M10.924,5.899h0.99c0.501,0,0.674,0.31,0.674,0.653c0,0.365-0.148,0.543-0.422,0.61V7.17c0.375,0.053,0.396,0.287,0.404,0.625
	c0.01,0.494,0.027,0.543,0.111,0.578v0.032H12.04C12,8.32,11.982,8.18,11.982,7.896c0-0.436-0.062-0.526-0.244-0.526h-0.225v1.035
	H10.92L10.924,5.899L10.924,5.899z"/>
</svg>
