<?xml version="1.0" encoding="utf-8"?>
<!-- Generator: Adobe Illustrator 16.0.0, SVG Export Plug-In . SVG Version: 6.00 Build 0)  -->
<!DOCTYPE svg PUBLIC "-//W3C//DTD SVG 1.1//EN" "http://www.w3.org/Graphics/SVG/1.1/DTD/svg11.dtd">
<svg version="1.1" id="图层_1" xmlns="http://www.w3.org/2000/svg" xmlns:xlink="http://www.w3.org/1999/xlink" x="0px" y="0px"
	 width="16px" height="16px" viewBox="0 0 16 16" enable-background="new 0 0 16 16" xml:space="preserve">
<g>
	<circle fill="#FF0000" cx="11.716" cy="12.223" r="0.543"/>
	<polygon fill="#FF0000" points="11.717,8.96 11.717,12.223 13.893,10.047 13.893,9.504 12.805,8.96 	"/>
	<path fill="#FFFFFF" d="M6.641,12.193c0-1.017,0.3-1.998,0.867-2.838c0.608-0.899,1.477-1.562,2.467-1.923
		C9.661,6.6,9.469,5.506,9.469,4.299c0-1.538-0.989-2.842-2.364-3.323C7.011,0.426,6.53,0,5.951,0C5.37,0,4.889,0.426,4.797,0.976
		C3.419,1.457,2.432,2.761,2.432,4.299c0,2.034-0.538,3.767-1.292,4.419c-0.421,0.361-0.663,0.892-0.663,1.448
		c0,0.646,0.525,1.174,1.173,1.174h3.129c0,0.646,0.524,1.171,1.173,1.171c0.266,0,0.499-0.104,0.695-0.254
		C6.646,12.236,6.641,12.215,6.641,12.193z M4.99,2.747c0.054-0.055,0.128-0.084,0.202-0.084h1.517c0.074,0,0.148,0.029,0.201,0.084
		c0.055,0.056,0.082,0.129,0.08,0.208l-0.059,1.86l-0.235,1.89C6.679,6.847,6.557,6.95,6.414,6.95H5.485
		c-0.146,0-0.265-0.104-0.281-0.245L4.972,4.842L4.91,2.955C4.909,2.876,4.936,2.803,4.99,2.747z M4.91,8.814
		c0-0.573,0.466-1.044,1.041-1.044c0.573,0,1.039,0.471,1.039,1.044c0,0.571-0.466,1.037-1.039,1.037
		C5.376,9.852,4.91,9.387,4.91,8.814z"/>
	<path fill="#FFFFFF" d="M15.469,11.656c0.004,0,0.008-0.002,0.012-0.002c-0.004-0.031-0.016-0.061-0.021-0.092
		c-0.022-0.133-0.058-0.261-0.093-0.39c-0.028-0.103-0.057-0.202-0.094-0.3c-0.045-0.124-0.099-0.241-0.155-0.357
		c-0.048-0.096-0.097-0.188-0.152-0.279c-0.063-0.106-0.132-0.209-0.206-0.311c-0.068-0.089-0.139-0.173-0.213-0.258
		c-0.08-0.088-0.158-0.173-0.244-0.254c-0.089-0.083-0.184-0.156-0.279-0.229c-0.088-0.068-0.172-0.137-0.266-0.195
		c-0.111-0.072-0.232-0.133-0.352-0.191c-0.09-0.044-0.176-0.094-0.27-0.131c-0.146-0.059-0.298-0.1-0.451-0.141
		c-0.078-0.021-0.152-0.051-0.233-0.065c-0.237-0.047-0.483-0.074-0.735-0.074l0,0l0,0c-1.314,0-2.473,0.665-3.156,1.678
		c-0.411,0.606-0.65,1.338-0.65,2.127c0,0.255,0.027,0.502,0.074,0.742C8,13.018,8.032,13.096,8.055,13.18
		c0.04,0.15,0.079,0.301,0.138,0.445c0.038,0.094,0.09,0.182,0.136,0.271c0.061,0.119,0.119,0.242,0.192,0.354
		c0.06,0.092,0.129,0.175,0.194,0.262c0.077,0.1,0.152,0.198,0.237,0.287c0.079,0.085,0.164,0.158,0.249,0.233
		c0.09,0.079,0.18,0.157,0.276,0.229c0.095,0.068,0.192,0.13,0.293,0.188c0.104,0.062,0.207,0.119,0.314,0.172
		c0.105,0.05,0.213,0.093,0.323,0.134c0.116,0.042,0.233,0.078,0.354,0.109c0.111,0.028,0.226,0.055,0.342,0.073
		c0.055,0.008,0.104,0.027,0.16,0.033c0.002-0.006,0.006-0.011,0.01-0.018C11.422,15.973,11.564,16,11.717,16
		c2.102,0,3.807-1.703,3.807-3.807C15.523,12.01,15.494,11.834,15.469,11.656z M8.479,11.922c0.006-0.068,0.011-0.137,0.021-0.203
		c0.014-0.087,0.023-0.174,0.043-0.258c0.033-0.146,0.079-0.286,0.131-0.424c0.031-0.08,0.065-0.158,0.102-0.235
		c0.062-0.126,0.125-0.25,0.199-0.366c0.039-0.062,0.086-0.119,0.129-0.178c0.041-0.056,0.088-0.107,0.133-0.16l0.207,0.207
		l0.384-0.384L9.621,9.713c0.055-0.048,0.107-0.096,0.167-0.138c0.054-0.04,0.104-0.082,0.161-0.118
		c0.138-0.088,0.283-0.167,0.434-0.234c0.026-0.012,0.051-0.027,0.076-0.037c0.171-0.071,0.352-0.125,0.537-0.168
		c0.07-0.017,0.146-0.022,0.221-0.035c0.061-0.01,0.123-0.012,0.186-0.02V9.99h0.043v0.027h0.544V8.959
		c0.075,0.006,0.153,0.012,0.229,0.023c0.072,0.012,0.146,0.019,0.219,0.035c0.187,0.041,0.369,0.096,0.541,0.168
		c0.021,0.01,0.043,0.021,0.063,0.031c0.149,0.067,0.29,0.146,0.427,0.232c0.068,0.046,0.137,0.095,0.201,0.146
		c0.036,0.026,0.069,0.057,0.104,0.086l-0.209,0.209l0.384,0.385l0.007-0.008l0.036,0.037l0.204-0.205
		c0.052,0.062,0.097,0.131,0.143,0.196c0.073,0.103,0.137,0.209,0.197,0.317c0.111,0.207,0.203,0.426,0.27,0.656
		c0.018,0.057,0.032,0.114,0.047,0.174c0.033,0.146,0.061,0.296,0.073,0.449H13.85v0.543h1.074c-0.058,0.696-0.334,1.332-0.76,1.834
		l-0.217-0.217l-0.385,0.385l0.217,0.217c-0.492,0.418-1.111,0.687-1.791,0.75v-1.036h-0.043V14.34h-0.543v1.073
		c-0.459-0.037-0.887-0.179-1.272-0.386c-0.06-0.033-0.123-0.062-0.181-0.098c-0.057-0.037-0.108-0.078-0.162-0.117
		c-0.059-0.043-0.112-0.092-0.167-0.139l0.206-0.207l-0.385-0.386l-0.006,0.008l-0.037-0.036L9.202,14.25
		c-0.034-0.044-0.072-0.085-0.104-0.129c-0.016-0.021-0.031-0.04-0.045-0.062c-0.056-0.076-0.102-0.158-0.15-0.24
		c-0.047-0.084-0.096-0.166-0.135-0.252c-0.031-0.065-0.062-0.133-0.088-0.2c-0.054-0.14-0.1-0.284-0.134-0.433
		c-0.002-0.004-0.003-0.011-0.005-0.016c-0.02-0.082-0.027-0.166-0.04-0.249c-0.01-0.067-0.015-0.138-0.021-0.206h1.062v-0.544
		H8.479V11.922z"/>
</g>
</svg>
