<?xml version="1.0" encoding="utf-8"?>
<!-- Generator: Adobe Illustrator 16.0.0, SVG Export Plug-In . SVG Version: 6.00 Build 0)  -->
<!DOCTYPE svg PUBLIC "-//W3C//DTD SVG 1.1//EN" "http://www.w3.org/Graphics/SVG/1.1/DTD/svg11.dtd">
<svg version="1.1" id="图层_1" xmlns="http://www.w3.org/2000/svg" xmlns:xlink="http://www.w3.org/1999/xlink" x="0px" y="0px"
	 width="16px" height="16px" viewBox="0 0 16 16" enable-background="new 0 0 16 16" xml:space="preserve">
<path fill="#FFFFFF" d="M8.069,7.789L7.708,9.734h0.746L8.081,7.789H8.069z M14.786,6.017c-0.996-0.995-2.372-1.374-3.66-1.143
	c-0.164-0.257-0.353-0.504-0.575-0.728c-1.648-1.647-4.319-1.647-5.967,0c-0.497,0.498-0.836,1.09-1.032,1.717
	C1.584,5.898,0,7.498,0,9.475c0,1.961,1.563,3.547,3.51,3.604v0.01h8.499v-0.013c1.009-0.037,2.007-0.43,2.776-1.199
	C16.402,10.259,16.404,7.636,14.786,6.017z M6.224,9.802c0,0.942-0.263,1.646-1.536,1.646c-1.315,0-1.419-0.985-1.419-2.302
	c0-1.122,0.061-2.238,1.518-2.238c0.906,0,1.401,0.392,1.401,1.419v0.184H5.196c0-0.636-0.073-0.918-0.416-0.918
	c-0.41,0-0.446,0.392-0.446,1.536c0,1.297,0.042,1.635,0.471,1.635c0.379,0,0.422-0.436,0.429-1.113h0.991L6.224,9.802L6.224,9.802z
	 M8.768,11.361l-0.16-0.832H7.561l-0.153,0.832H6.343l1.114-4.368h1.284l1.09,4.368H8.768z M11.456,11.448
	c-0.747,0-1.438-0.228-1.438-1.14v-0.281h0.991v0.154c0,0.327,0.093,0.578,0.447,0.578c0.36,0,0.465-0.27,0.465-0.521
	c0-0.942-1.879-0.416-1.879-2.05c0-0.697,0.373-1.284,1.433-1.284c1.027,0,1.396,0.52,1.396,1.192v0.104H11.88
	c0-0.208-0.022-0.361-0.086-0.459c-0.062-0.104-0.158-0.153-0.312-0.153c-0.256,0-0.408,0.153-0.408,0.472
	c0,0.914,1.878,0.455,1.878,1.996C12.948,11.05,12.396,11.448,11.456,11.448z"/>
</svg>
