<?xml version="1.0" encoding="utf-8"?>
<!-- Generator: Adobe Illustrator 16.0.0, SVG Export Plug-In . SVG Version: 6.00 Build 0)  -->
<!DOCTYPE svg PUBLIC "-//W3C//DTD SVG 1.1//EN" "http://www.w3.org/Graphics/SVG/1.1/DTD/svg11.dtd">
<svg version="1.1" id="图层_1" xmlns="http://www.w3.org/2000/svg" xmlns:xlink="http://www.w3.org/1999/xlink" x="0px" y="0px"
	 width="16px" height="16px" viewBox="0 0 16 16" enable-background="new 0 0 16 16" xml:space="preserve">
<g>
	<path fill="#FFFFFF" d="M13.805,11.798h-0.783V9.646h0.783V11.798z M15.891,10.877v4.199c0,0.51-0.35,0.924-0.781,0.924H9.895
		c-0.435,0-0.785-0.414-0.785-0.924V9.953c0-0.51,0.354-0.924,0.785-0.924h4.438c0.217,0,0.336,0.013,0.939,0.729
		C15.881,10.479,15.891,10.62,15.891,10.877z M10.414,11.798c0,0.171,0.117,0.31,0.26,0.31h3.393c0.146,0,0.266-0.139,0.266-0.31
		V9.646c0-0.17-0.117-0.312-0.266-0.312h-3.393c-0.143,0-0.26,0.143-0.26,0.312V11.798z M15.109,13.338
		c0-0.171-0.117-0.311-0.262-0.311h-4.695c-0.146,0-0.26,0.14-0.26,0.311v2.045c0,0.172,0.109,0.309,0.26,0.309h4.695
		c0.145,0,0.262-0.137,0.262-0.309V13.338z"/>
	<g>
		<path fill="#FFFFFF" d="M8.376,12.425V9.01V8.007V6.302v-0.24h1.438c0.588-0.031,1.062-0.476,1.062-1.089v-3.84
			C10.877,0.511,10.373,0,9.758,0H5.992C5.374,0,4.873,0.511,4.873,1.134v3.84c0,0.551,0.387,0.983,0.895,1.089h1.605v1.944H4.378
			V7.159c0-0.444-0.359-0.807-0.796-0.807H0.905c-0.439,0-0.796,0.362-0.796,0.807v2.729c0,0.393,0.276,0.694,0.636,0.771h0.997
			v1.761H1.133c-0.364,0-0.66,0.305-0.66,0.67v2.268c0,0.324,0.229,0.58,0.527,0.644h2.388c0.346-0.021,0.625-0.278,0.625-0.644
			V13.09c0-0.365-0.297-0.67-0.66-0.67H2.745v-1.76h0.878c0.418-0.021,0.755-0.34,0.755-0.771V9.01h2.995v3.415H6.764
			c-0.364,0-0.66,0.302-0.66,0.671v2.262c0,0.326,0.229,0.58,0.527,0.646h1.745V12.425z"/>
	</g>
</g>
</svg>
