<?xml version="1.0" encoding="utf-8"?>
<svg version="1.1" xmlns:xlink="http://www.w3.org/1999/xlink" width="13px" height="14px" xmlns="http://www.w3.org/2000/svg">
  <g transform="matrix(1 0 0 1 -12 -346 )">
    <path d="M 12.943253968254 3.81696428571429  C 12.9408834159683 1.74030254755456  11.3198550605753 0.0577258920042789  9.32010582010582 0.05625  C 7.3206923231293 0.0582180127716696  5.700187221886 1.74065079531101  5.69781746031746 3.81696428571429  C 5.69781746031746 4.55178571428571  5.91018518518518 5.23303571428571  6.26269841269841 5.8125  L 0.401521164021164 11.9  C 0.181055615801367 12.1288265521377  0.0571897681910874 12.4392530543728  0.0571897681910874 12.7629464285714  C 0.0571897681910874 13.4367751955979  0.583204573551242 13.9830213396257  1.23207671957672 13.9830213396257  C 1.54357077798708 13.9830213396257  1.84231573326178 13.8545647519682  2.06263227513228 13.6258928571429  L 2.92242063492064 12.7330357142857  C 2.95509259259259 12.7892857142857  2.98174603174603 12.8491071428571  3.02903439153439 12.8982142857143  L 3.69794973544973 13.5928571428571  C 3.84471667485679 13.7455216907091  4.04392148595711 13.8313090176969  4.25165343915344 13.8313090176969  C 4.45938539234977 13.8313090176969  4.65859020345009 13.7455216907091  4.80535714285714 13.5928571428571  L 6.58253968253968 11.7482142857143  C 6.72960217063615 11.5956499514492  6.81223352665275 11.3886356150774  6.81223352665275 11.1727678571429  C 6.81223352665275 10.9569000992083  6.72960217063615 10.7498857628365  6.58253968253968 10.5973214285714  L 5.91362433862434 9.90267857142857  C 5.86633597883598 9.85357142857143  5.80873015873016 9.82678571428571  5.7537037037037 9.79196428571429  L 8.03042328042328 7.42946428571429  C 8.05621693121693 7.40267857142857  8.06481481481481 7.36696428571429  8.0880291005291 7.33839285714286  C 8.47493386243386 7.48482142857143  8.8859126984127 7.57857142857143  9.32096560846561 7.57857142857143  C 11.3205181931769 7.57611145861736  12.9408851082982 5.89342273906832  12.943253968254 3.81696428571429  Z M 9.32010582010582 5.65089285714286  C 8.34502130576363 5.64990940418921  7.55466237852826 4.82955145197847  7.55324074074074 3.81696428571429  C 7.55324074074074 2.80535714285714  8.34596560846561 1.98303571428571  9.31924603174603 1.98303571428571  C 10.294246031746 1.98303571428571  11.0869708994709 2.80535714285714  11.0869708994709 3.81696428571429  C 11.0855484274348 4.82989972245056  10.2946662636437 5.65040150035255  9.31924603174603 5.65089285714286  Z " fill-rule="nonzero" fill="#ffffff" stroke="none" transform="matrix(1 0 0 1 12 346 )" />
  </g>
</svg>