<?xml version="1.0" encoding="utf-8"?>
<!-- Generator: Adobe Illustrator 16.0.0, SVG Export Plug-In . SVG Version: 6.00 Build 0)  -->
<!DOCTYPE svg PUBLIC "-//W3C//DTD SVG 1.1//EN" "http://www.w3.org/Graphics/SVG/1.1/DTD/svg11.dtd">
<svg version="1.1" id="图层_1" xmlns="http://www.w3.org/2000/svg" xmlns:xlink="http://www.w3.org/1999/xlink" x="0px" y="0px"
	 width="16px" height="16px" viewBox="0 0 16 16" enable-background="new 0 0 16 16" xml:space="preserve">
<g>
	<g>
		<path fill="#FFFFFF" d="M8.984,14.703c0,0.645,0.453,1.148,1.047,1.273h2.213v-3.295h-3.26V14.703z M9.668,13.529l0.303-0.303
			l0.688,0.688l0.688-0.688l0.303,0.303l-0.688,0.688l0.688,0.688l-0.303,0.308l-0.688-0.688L9.971,15.21l-0.303-0.304l0.688-0.688
			L9.668,13.529z"/>
		<path fill="#FFFFFF" d="M8.984,10.215v1.969h3.26V8.889h-1.951C9.57,8.889,8.984,9.484,8.984,10.215z M10.41,9.452h0.432v0.979
			h0.977l0.002,0.432h-0.979v0.979H10.41v-0.979H9.432v-0.432h0.979L10.41,9.452L10.41,9.452z"/>
		<path fill="#FFFFFF" d="M14.695,8.889h-1.951v3.295h3.26v-1.969C16.004,9.484,15.414,8.889,14.695,8.889z M15.17,10.846h-1.828
			v-0.438h1.828V10.846z"/>
		<path fill="#FFFFFF" d="M12.744,15.977h2.018c0.688-0.037,1.242-0.557,1.242-1.271v-2.021h-3.26V15.977z M13.311,13.604h1.896
			v0.438h-1.896V13.604z M13.311,14.51h1.896v0.438h-1.896V14.51z"/>
	</g>
	<path fill="#FFFFFF" d="M8.239,6.068h1.435c0.586-0.031,1.059-0.475,1.059-1.086V1.154c0-0.622-0.502-1.131-1.11-1.131h-3.76
		c-0.616,0-1.116,0.509-1.116,1.131v3.828c0,0.549,0.386,0.98,0.892,1.086h1.601v1.938H4.253V7.162c0-0.443-0.357-0.805-0.793-0.805
		H0.79c-0.438,0-0.793,0.361-0.793,0.805v2.722c0,0.392,0.275,0.697,0.634,0.772h0.994v1.756H1.018c-0.363,0-0.658,0.3-0.658,0.668
		v2.256c0,0.324,0.229,0.578,0.526,0.641h2.38C3.611,15.958,3.89,15.7,3.89,15.336V13.08c0-0.368-0.296-0.668-0.658-0.668H2.625
		v-1.756H3.5c0.417-0.022,0.753-0.338,0.753-0.772V9.007h2.986v3.405H6.632c-0.363,0-0.658,0.3-0.658,0.668v2.256
		c0,0.324,0.229,0.578,0.526,0.641h1.739V6.068z"/>
</g>
</svg>
