<?xml version="1.0" encoding="utf-8"?>
<!-- Generator: Adobe Illustrator 16.0.0, SVG Export Plug-In . SVG Version: 6.00 Build 0)  -->
<!DOCTYPE svg PUBLIC "-//W3C//DTD SVG 1.1//EN" "http://www.w3.org/Graphics/SVG/1.1/DTD/svg11.dtd">
<svg version="1.1" id="图层_1" xmlns="http://www.w3.org/2000/svg" xmlns:xlink="http://www.w3.org/1999/xlink" x="0px" y="0px"
	 width="16px" height="16px" viewBox="0 0 16 16" enable-background="new 0 0 16 16" xml:space="preserve">
<path fill="#FFFFFF" d="M16,8.945c0-2.265-1.823-4.104-4.083-4.136c0.294,0.574,0.476,1.215,0.476,1.904
	c0,1.578-0.877,2.938-2.158,3.66c0.774-0.639,1.316-1.54,1.483-2.575c0.038-0.219,0.067-0.439,0.067-0.669
	c0-0.462-0.094-0.9-0.23-1.316c-0.014-0.036-0.021-0.076-0.035-0.112c0-0.001,0-0.001,0-0.002C11.482,5.597,11.45,5.497,11.407,5.4
	c0-0.001-0.001-0.003-0.003-0.004c-0.073-0.162-0.161-0.319-0.256-0.472C10.407,3.72,9.086,2.91,7.567,2.91
	c-1.52,0-2.846,0.806-3.588,2.01c1.916,0.093,3.443,1.66,3.443,3.6c0,0.416-0.084,0.812-0.213,1.185
	c0.004-0.077,0.023-0.149,0.023-0.229c0-0.598-0.16-1.15-0.416-1.646c-0.02-0.038-0.039-0.074-0.06-0.11
	c-0.618-1.107-1.785-1.86-3.141-1.86C1.619,5.857,0,7.475,0,9.473c0,1.961,1.562,3.549,3.51,3.605v0.011h8.498v-0.016
	C14.225,12.991,16,11.184,16,8.945z"/>
</svg>
