<?xml version="1.0" encoding="utf-8"?>
<!-- Generator: Adobe Illustrator 16.0.0, SVG Export Plug-In . SVG Version: 6.00 Build 0)  -->
<!DOCTYPE svg PUBLIC "-//W3C//DTD SVG 1.1//EN" "http://www.w3.org/Graphics/SVG/1.1/DTD/svg11.dtd">
<svg version="1.1" id="图层_1" xmlns="http://www.w3.org/2000/svg" xmlns:xlink="http://www.w3.org/1999/xlink" x="0px" y="0px"
	 width="16px" height="16px" viewBox="0 0 16 16" enable-background="new 0 0 16 16" xml:space="preserve">
<g>
	<path fill="#FFFFFF" d="M-0.017,3.672v8.656h5.05V3.672H-0.017z M2.51,11.454c-0.308,0-0.557-0.25-0.557-0.558
		c0-0.311,0.249-0.559,0.557-0.559c0.305,0,0.555,0.249,0.555,0.559C3.064,11.204,2.814,11.454,2.51,11.454z M4.312,8.435H0.706
		V7.566h3.605L4.312,8.435L4.312,8.435z M4.312,6.845H0.706V5.981h3.605L4.312,6.845L4.312,6.845z M4.312,5.261H0.706V4.394h3.605
		L4.312,5.261L4.312,5.261z"/>
	<polygon fill="#FFFFFF" points="5.299,4.935 5.827,4.935 5.827,5.67 5.299,5.67 5.299,6.283 5.827,6.283 5.827,7.018 5.299,7.018 
		5.299,7.63 5.827,7.63 5.827,8.369 5.299,8.369 5.299,11.678 6.44,11.678 6.44,4.322 5.299,4.322 	"/>
	<polygon fill="#FFFFFF" points="6.744,5.394 7.061,5.394 7.061,6.019 6.744,6.019 6.744,6.542 7.061,6.542 7.061,7.167 
		6.744,7.167 6.744,7.687 7.061,7.687 7.061,8.313 6.744,8.313 6.744,11.126 7.58,11.126 7.58,4.873 6.744,4.873 	"/>
	<path fill="#FFFFFF" d="M10.968,3.672v8.656h5.05V3.672H10.968z M13.491,11.454c-0.306,0-0.556-0.25-0.556-0.558
		c0-0.311,0.25-0.56,0.556-0.56c0.307,0,0.557,0.249,0.557,0.56C14.048,11.204,13.798,11.454,13.491,11.454z M15.294,8.435h-3.604
		V7.566h3.604V8.435z M15.294,6.845h-3.604V5.981h3.604V6.845z M15.294,5.261h-3.604V4.394h3.604V5.261z"/>
	<polygon fill="#FFFFFF" points="10.702,4.322 9.561,4.322 9.561,11.678 10.702,11.678 10.702,8.369 10.173,8.369 10.173,7.63 
		10.702,7.63 10.702,7.018 10.173,7.018 10.173,6.283 10.702,6.283 10.702,5.67 10.173,5.67 10.173,4.935 10.702,4.935 	"/>
	<polygon fill="#FFFFFF" points="9.257,4.873 8.421,4.873 8.421,11.126 9.257,11.126 9.257,8.313 8.939,8.313 8.939,7.687 
		9.257,7.687 9.257,7.167 8.939,7.167 8.939,6.542 9.257,6.542 9.257,6.019 8.939,6.019 8.939,5.394 9.257,5.394 	"/>
</g>
</svg>
