<?xml version="1.0" encoding="utf-8"?>
<!-- Generator: Adobe Illustrator 16.0.0, SVG Export Plug-In . SVG Version: 6.00 Build 0)  -->
<!DOCTYPE svg PUBLIC "-//W3C//DTD SVG 1.1//EN" "http://www.w3.org/Graphics/SVG/1.1/DTD/svg11.dtd">
<svg version="1.1" id="图层_1" xmlns="http://www.w3.org/2000/svg" xmlns:xlink="http://www.w3.org/1999/xlink" x="0px" y="0px"
	 width="16px" height="16px" viewBox="0 0 16 16" enable-background="new 0 0 16 16" xml:space="preserve">
<g>
	<g>
		<path fill="#FFFFFF" d="M14.01,11.114c-0.006,0.003-0.006,0.008-0.01,0.012c-0.729,0.741-2.727,2.842-3.454,3.585l-1.743,0.482
			l-0.016-0.004l0.555-1.656l0.377-0.442l2.424-2.469l0.537-0.546l0.157-0.16c0.007-0.008-0.116-0.128-0.108-0.135L12.545,9.6
			l-0.391,0.399l-3.188,3.244l-0.188,0.192l-0.799,2.56L7.995,16l2.713-0.805c0.743-0.76,2.278-2.407,3.61-3.764L14.01,11.114z"/>
		<path fill="#FFFFFF" d="M15.77,8.951l-0.809-0.793c-0.143-0.138-0.324-0.204-0.506-0.202c-0.184,0.002-0.365,0.075-0.502,0.215
			L13.686,8.44l1.813,1.802c0.104-0.107,0.201-0.208,0.274-0.282c0.138-0.142,0.207-0.324,0.205-0.508
			C15.98,9.27,15.908,9.089,15.77,8.951z"/>
	</g>
	
		<rect x="12.758" y="9.61" transform="matrix(0.7124 0.7017 -0.7017 0.7124 11.0193 -6.9855)" fill="#FFFFFF" width="2.55" height="0.686"/>
	<path fill="#FFFFFF" d="M7.101,0c-1.042,0.005-1.946,0.406-2.61,1.154C3.59,2.171,3.188,3.799,3.396,5.627
		C3.607,7.44,4.438,8.948,5.215,9.839v0.188c-0.695,0.303-4.309,1.938-4.809,3.24c-0.352,0.916-0.375,1.941-0.376,1.98L0.02,16
		h6.905l0.972-3.094l2.285-2.328c-0.688-0.35-1.215-0.574-1.217-0.574L8.902,9.841c0.664-0.733,1.812-2.266,2.039-4.229
		c0.199-1.707-0.234-3.313-1.194-4.396C9.062,0.438,8.156,0.005,7.101,0z"/>
	<polygon fill="#FFFFFF" points="9.736,13.744 13.141,10.311 13.627,10.791 10.223,14.227 10.184,13.761 	"/>
</g>
</svg>
