<?xml version="1.0" encoding="utf-8"?>
<!-- Generator: Adobe Illustrator 16.0.0, SVG Export Plug-In . SVG Version: 6.00 Build 0)  -->
<!DOCTYPE svg PUBLIC "-//W3C//DTD SVG 1.1//EN" "http://www.w3.org/Graphics/SVG/1.1/DTD/svg11.dtd">
<svg version="1.1" id="图层_1" xmlns="http://www.w3.org/2000/svg" xmlns:xlink="http://www.w3.org/1999/xlink" x="0px" y="0px"
	 width="16px" height="16px" viewBox="0 0 16 16" enable-background="new 0 0 16 16" xml:space="preserve">
<g>
	<path fill="#FFFFFF" d="M13.438,9.213c0.515,0,0.996,0.112,1.438,0.309c1.521-1.625,1.498-4.167-0.088-5.751
		c-0.995-0.995-2.371-1.374-3.66-1.143c-0.163-0.257-0.354-0.504-0.573-0.728c-1.646-1.647-4.32-1.647-5.969,0
		C4.089,2.397,3.75,2.989,3.555,3.616C1.584,3.649,0,5.249,0,7.225c0,1.962,1.562,3.548,3.51,3.605v0.01h6.943
		C11.09,9.863,12.188,9.213,13.438,9.213z M6.224,7.553c0,0.943-0.263,1.646-1.536,1.646c-1.315,0-1.419-0.984-1.419-2.301
		c0-1.12,0.061-2.239,1.518-2.239c0.905,0,1.401,0.392,1.401,1.419v0.184H5.195c0-0.636-0.073-0.918-0.416-0.918
		c-0.409,0-0.446,0.392-0.446,1.537c0,1.297,0.043,1.633,0.471,1.633c0.38,0,0.423-0.434,0.429-1.113h0.991V7.553z M8.766,9.113
		L8.607,8.281H7.561L7.407,9.113H6.343l1.114-4.369h1.284L9.83,9.113H8.766z M10.018,8.061V7.779h0.99v0.154
		c0,0.33,0.092,0.581,0.447,0.581c0.361,0,0.465-0.271,0.465-0.521c0-0.943-1.878-0.416-1.878-2.051
		c0-0.697,0.373-1.284,1.433-1.284c1.027,0,1.396,0.52,1.396,1.192v0.104h-0.992c0-0.208-0.021-0.361-0.086-0.459
		c-0.062-0.104-0.158-0.153-0.312-0.153c-0.258,0-0.41,0.153-0.41,0.472c0,0.911,1.881,0.452,1.881,1.995
		c0,0.99-0.553,1.389-1.493,1.389C10.709,9.199,10.018,8.973,10.018,8.061z"/>
	<polygon fill="#FFFFFF" points="8.068,5.54 7.708,7.486 8.454,7.486 8.081,5.54 	"/>
	<path fill="#FFFFFF" d="M13.438,10.213c-1.416,0-2.562,1.146-2.562,2.562c0,1.414,1.146,2.562,2.562,2.562
		c1.414,0,2.562-1.147,2.562-2.562C16,11.357,14.852,10.213,13.438,10.213z M14.855,13.197h-0.986v0.964h-0.864v-0.964h-0.987
		v-0.844h0.987v-0.965h0.864v0.965h0.986V13.197z"/>
</g>
</svg>
