<?xml version="1.0" encoding="utf-8"?>
<!-- Generator: Adobe Illustrator 16.0.0, SVG Export Plug-In . SVG Version: 6.00 Build 0)  -->
<!DOCTYPE svg PUBLIC "-//W3C//DTD SVG 1.1//EN" "http://www.w3.org/Graphics/SVG/1.1/DTD/svg11.dtd">
<svg version="1.1" id="图层_1" xmlns="http://www.w3.org/2000/svg" xmlns:xlink="http://www.w3.org/1999/xlink" x="0px" y="0px"
	 width="16px" height="16px" viewBox="0 0 16 16" enable-background="new 0 0 16 16" xml:space="preserve">
<g>
	<path fill="#FFFFFF" d="M12.934,2.193h-1.604l-0.193-1.379C11.068,0.366,10.648,0,10.193,0H5.806C5.352,0,4.932,0.366,4.871,0.814
		L4.675,2.193H3.068c-0.915,0-1.649,0.735-1.649,1.649V4.39h13.164V3.843C14.582,2.929,13.846,2.193,12.934,2.193z M5.94,1.098
		h4.121l0.156,1.096H5.784L5.94,1.098z"/>
	<path fill="#FFFFFF" d="M12.826,4.827H3.174c-0.558,0-0.973,0.455-0.923,1.008l0.83,9.151C3.133,15.544,3.632,16,4.19,16h7.621
		c0.562,0,1.058-0.456,1.105-1.014l0.832-9.151C13.799,5.282,13.383,4.827,12.826,4.827z M5.968,13.967H4.445l-0.508-7.11h2.031
		V13.967z M9.016,13.967H6.984v-7.11h2.032V13.967z M11.555,13.967h-1.521v-7.11h2.028L11.555,13.967z"/>
</g>
</svg>
