<?xml version="1.0" encoding="utf-8"?>
<!-- Generator: Adobe Illustrator 16.0.0, SVG Export Plug-In . SVG Version: 6.00 Build 0)  -->
<!DOCTYPE svg PUBLIC "-//W3C//DTD SVG 1.1//EN" "http://www.w3.org/Graphics/SVG/1.1/DTD/svg11.dtd">
<svg version="1.1" id="图层_1" xmlns="http://www.w3.org/2000/svg" xmlns:xlink="http://www.w3.org/1999/xlink" x="0px" y="0px"
	 width="16px" height="16px" viewBox="0 0 16 16" enable-background="new 0 0 16 16" xml:space="preserve">
<g>
	<path fill="#FFFFFF" d="M8,0C3.589,0,0,3.589,0,8s3.589,8,8,8c4.412,0,8-3.589,8-8S12.412,0,8,0z M8,14.629
		c-3.654,0-6.629-2.975-6.629-6.629c0-3.654,2.975-6.629,6.629-6.629c3.654,0,6.629,2.975,6.629,6.629
		C14.629,11.654,11.654,14.629,8,14.629z"/>
	<path fill="#FFFFFF" d="M11.67,5.92l-0.594,0.595l0.754,0.753h-1.547C10.109,6.323,9.364,5.58,8.421,5.406V3.859l0.753,0.752
		l0.594-0.593L8,2.25L6.233,4.019l0.594,0.593L7.58,3.859v1.546C6.637,5.579,5.892,6.322,5.719,7.268H4.171l0.754-0.753L4.331,5.92
		L2.563,7.688l1.768,1.768l0.594-0.597L4.171,8.107h1.548C5.892,9.052,6.637,9.796,7.58,9.971v1.545l-0.753-0.752l-0.594,0.594
		L8,13.125l1.359-1.359c-0.121-0.263-0.19-0.554-0.19-0.861c0-0.047,0.003-0.094,0.007-0.139l-0.002-0.002l-0.753,0.752V9.971
		c0.943-0.175,1.688-0.919,1.862-1.863h1.547l-0.752,0.751c0.047-0.002,0.094-0.006,0.143-0.006c0.307,0,0.598,0.062,0.859,0.188
		l1.357-1.356L11.67,5.92z M8,9.17c-0.816,0-1.481-0.665-1.481-1.482S7.184,6.205,8,6.205c0.816,0,1.482,0.665,1.482,1.482
		S8.816,9.17,8,9.17z"/>
	<polygon fill="#FFFFFF" points="11.307,12.281 11.297,12.281 10.934,9.924 10.164,9.924 10.836,12.975 11.751,12.975 12.443,9.924 
		11.674,9.924 	"/>
</g>
</svg>
