<?xml version="1.0" encoding="utf-8"?>
<!-- Generator: Adobe Illustrator 16.0.0, SVG Export Plug-In . SVG Version: 6.00 Build 0)  -->
<!DOCTYPE svg PUBLIC "-//W3C//DTD SVG 1.1//EN" "http://www.w3.org/Graphics/SVG/1.1/DTD/svg11.dtd">
<svg version="1.1" id="图层_1" xmlns="http://www.w3.org/2000/svg" xmlns:xlink="http://www.w3.org/1999/xlink" x="0px" y="0px"
	 width="16px" height="16px" viewBox="0 0 16 16" enable-background="new 0 0 16 16" xml:space="preserve">
<g>
	<path fill="#FFFFFF" d="M7.19,8.121c-1.254,0-2.326-0.93-2.493-2.162C4.695,5.948,4.695,5.936,4.693,5.926H4.227l0.781-1.269
		l0.783,1.269H5.353C5.499,6.807,6.289,7.47,7.19,7.47c1.028,0,1.862-0.828,1.862-1.846S8.219,3.776,7.19,3.776
		c-0.664,0-1.283,0.355-1.615,0.929L5.443,4.932L5.058,4.296l0.058-0.083c0.472-0.68,1.247-1.088,2.075-1.088
		c1.389,0,2.517,1.12,2.517,2.499C9.707,7,8.579,8.121,7.19,8.121z"/>
	<path fill="#FFFFFF" d="M9.514,13.941H8.602V12.43h0.355c-0.032-0.201-0.062-0.404-0.062-0.613c0-0.748,0.223-1.438,0.572-2.041
		H0.635V2.284c0-0.292,0.236-0.533,0.525-0.533h11.613c0.289,0,0.521,0.242,0.521,0.533v5.524c0.221,0.02,0.434,0.05,0.639,0.104
		V2.284c0-0.647-0.521-1.162-1.16-1.162H1.16C0.52,1.122,0,1.637,0,2.284v8.979c0,0.646,0.52,1.168,1.16,1.168h4.174v1.512H4.396
		v0.936h5.142V13.99C9.527,13.975,9.521,13.957,9.514,13.941z"/>
	<path fill="#FFFFFF" d="M12.938,8.754c-1.688,0-3.062,1.371-3.062,3.062c0,1.688,1.371,3.062,3.062,3.062
		c1.691,0,3.062-1.371,3.062-3.062C16,10.125,14.629,8.754,12.938,8.754z M13.514,13.779h-1.179l-0.86-3.926h0.986l0.469,3.035
		h0.012l0.477-3.035h0.984L13.514,13.779z"/>
</g>
</svg>
