<?xml version="1.0" encoding="utf-8"?>
<!-- Generator: Adobe Illustrator 16.0.0, SVG Export Plug-In . SVG Version: 6.00 Build 0)  -->
<!DOCTYPE svg PUBLIC "-//W3C//DTD SVG 1.1//EN" "http://www.w3.org/Graphics/SVG/1.1/DTD/svg11.dtd">
<svg version="1.1" id="图层_1" xmlns="http://www.w3.org/2000/svg" xmlns:xlink="http://www.w3.org/1999/xlink" x="0px" y="0px"
	 width="16px" height="16px" viewBox="0 0 16 16" enable-background="new 0 0 16 16" xml:space="preserve">
<g>
	<path fill="#FFFFFF" d="M7.667,12.943c0-1.851,1.25-3.396,2.942-3.883V0H1.277v16h7.809C8.224,15.256,7.667,14.168,7.667,12.943z
		 M2.61,1.334h6.667v1.6H2.61V1.334z M2.61,4.268h6.667v1.6H2.61V4.268z M2.61,7.201h6.667v1.6H2.61V7.201z M6.48,14.152H5.481
		l-0.732-3.334h0.84l0.397,2.576h0.009l0.401-2.576h0.841L6.48,14.152z"/>
	<path fill="#86CC16" d="M11.723,9.943c-1.654,0-3,1.346-3,3s1.346,3,3,3s3-1.346,3-3S13.377,9.943,11.723,9.943z M13.229,13.988
		l-0.459,0.461l-1.047-1.045l-1.045,1.045l-0.461-0.461l1.047-1.045l-1.047-1.045l0.461-0.461l1.045,1.045l1.047-1.045l0.459,0.461
		l-1.045,1.045L13.229,13.988z"/>
</g>
</svg>
