<?xml version="1.0" encoding="utf-8"?>
<!-- Generator: Adobe Illustrator 16.0.0, SVG Export Plug-In . SVG Version: 6.00 Build 0)  -->
<!DOCTYPE svg PUBLIC "-//W3C//DTD SVG 1.1//EN" "http://www.w3.org/Graphics/SVG/1.1/DTD/svg11.dtd">
<svg version="1.1" id="图层_1" xmlns="http://www.w3.org/2000/svg" xmlns:xlink="http://www.w3.org/1999/xlink" x="0px" y="0px"
	 width="16px" height="16px" viewBox="0 0 16 16" enable-background="new 0 0 16 16" xml:space="preserve">
<g>
	<circle fill="#FFFFFF" cx="12.68" cy="10.462" r="0.256"/>
	<circle fill="#FFFFFF" cx="13.833" cy="10.771" r="0.255"/>
	<path fill="#FFFFFF" d="M14.898,11.484c-0.069-0.123-0.229-0.166-0.354-0.096c-0.123,0.067-0.164,0.228-0.095,0.35
		c0.066,0.121,0.229,0.164,0.354,0.094C14.93,11.761,14.973,11.607,14.898,11.484z"/>
	<circle fill="#FFFFFF" cx="14.986" cy="12.757" r="0.255"/>
	<circle fill="#FFFFFF" cx="11.525" cy="10.771" r="0.257"/>
	<circle fill="#FFFFFF" cx="10.682" cy="11.61" r="0.256"/>
	<circle fill="#FFFFFF" cx="10.372" cy="12.757" r="0.255"/>
	<path fill="#FFFFFF" d="M12.729,12.509c-0.418-0.495-1.045-0.979-1.045-0.979s0.209,0.768,0.508,1.341
		c-0.015,0.049-0.021,0.096-0.021,0.146c0,0.283,0.229,0.514,0.517,0.514c0.1,0,0.188-0.026,0.271-0.075
		c0.006-0.003,0.01-0.009,0.018-0.011l0,0c0.137-0.094,0.229-0.245,0.229-0.428C13.191,12.749,12.988,12.534,12.729,12.509z"/>
	<path fill="#FFFFFF" d="M13.016-0.002H2.983C1.335-0.002,0,1.343,0,2.996v8.102l5.125-5.837l4.127,2.517l4.125-5.849l1.225,4.311
		H16V2.996C16,1.343,14.656-0.002,13.016-0.002z M12.986,4.216L9.529,9.117L5.322,6.552L0,12.611v0.512
		c0,1.453,1.031,2.595,2.383,2.875h7.463c-0.979-0.803-1.623-2.004-1.623-3.364c0-1.429,0.701-2.688,1.768-3.483l0.118-0.099
		c0.709-0.493,1.57-0.788,2.5-0.788c1.373,0,2.586,0.646,3.392,1.632V7.239h-2.153L12.986,4.216z"/>
	<path fill="#FFFFFF" d="M12.607,9.264c-1.867,0-3.385,1.512-3.385,3.37c0,1.857,1.518,3.368,3.385,3.368s3.387-1.511,3.387-3.368
		C15.994,10.775,14.477,9.264,12.607,9.264z M12.607,15.389c-1.527,0-2.771-1.236-2.771-2.755c0-1.521,1.242-2.757,2.771-2.757
		c1.524,0,2.771,1.234,2.771,2.757C15.378,14.15,14.137,15.389,12.607,15.389z"/>
</g>
</svg>
