<?xml version="1.0" encoding="utf-8"?>
<!-- Generator: Adobe Illustrator 16.0.0, SVG Export Plug-In . SVG Version: 6.00 Build 0)  -->
<!DOCTYPE svg PUBLIC "-//W3C//DTD SVG 1.1//EN" "http://www.w3.org/Graphics/SVG/1.1/DTD/svg11.dtd">
<svg version="1.1" id="图层_1" xmlns="http://www.w3.org/2000/svg" xmlns:xlink="http://www.w3.org/1999/xlink" x="0px" y="0px"
	 width="16px" height="16px" viewBox="0 0 16 16" enable-background="new 0 0 16 16" xml:space="preserve">
<g>
	<path fill="#FFFFFF" d="M4.029,12.982h5.139c-0.204-0.48-0.314-1.01-0.314-1.565c0-1.437,0.758-2.69,1.896-3.407V1.47H4.03
		L4.029,12.982L4.029,12.982z M7.388,11.818c-0.409,0-0.74-0.329-0.74-0.737c0-0.409,0.331-0.741,0.74-0.741
		c0.409,0,0.739,0.332,0.739,0.741C8.127,11.489,7.797,11.818,7.388,11.818z M4.989,2.429h4.798V3.58H4.989V2.429z M4.989,4.54
		h4.798v1.15H4.989V4.54z M4.989,6.65h4.798v1.151H4.989V6.65z M11.298,2.332v0.816h2.662v0.979h-2.662v0.816h2.662v0.979h-2.662
		v0.814h2.662v0.808c0.287,0.08,0.558,0.19,0.815,0.328v-5.54H11.298z M0,12.119h3.478v-1.564c-0.025,0.321-0.292,0.577-0.623,0.577
		c-0.348,0-0.629-0.28-0.629-0.629s0.281-0.63,0.629-0.63c0.33,0,0.597,0.256,0.623,0.579V7.715H0.815V6.736h2.662V5.922H0.815
		V4.943h2.662V4.127H0.815V3.148h2.662V2.332H0V12.119z"/>
	<path fill="#FFFFFF" d="M12.889,8.304c-1.721,0-3.113,1.394-3.113,3.113c0,1.722,1.396,3.112,3.113,3.112
		c1.719,0,3.111-1.396,3.111-3.112S14.607,8.304,12.889,8.304z M14.688,11.951h-1.252v1.221h-1.098v-1.221h-1.249v-1.069h1.249
		V9.663h1.098v1.219h1.252V11.951z"/>
</g>
</svg>
