<?xml version="1.0" encoding="utf-8"?>
<!-- Generator: Adobe Illustrator 16.0.0, SVG Export Plug-In . SVG Version: 6.00 Build 0)  -->
<!DOCTYPE svg PUBLIC "-//W3C//DTD SVG 1.1//EN" "http://www.w3.org/Graphics/SVG/1.1/DTD/svg11.dtd">
<svg version="1.1" id="图层_1" xmlns="http://www.w3.org/2000/svg" xmlns:xlink="http://www.w3.org/1999/xlink" x="0px" y="0px"
	 width="16px" height="16px" viewBox="0 0 16 16" enable-background="new 0 0 16 16" xml:space="preserve">
<g>
	<g>
		<path fill="#FFFFFF" d="M3.69,7.598h4.392c0.35-0.227,0.729-0.429,1.141-0.574v-1.27H3.69V7.598z M0,11.285h1.843V9.441H0V11.285z
			 M3.69,2.066v1.845h8.688V2.066H3.69z M3.69,11.289h2.08l-0.458-0.684l0.535-0.797C5.883,9.75,5.976,9.619,6.114,9.441H3.69
			V11.289z M0,7.598h1.843V5.754H0V7.598z M0,3.909h1.843V2.065H0V3.909z"/>
	</g>
	<path fill="#FFFFFF" d="M15.785,10.303c-0.082-0.123-2.039-2.995-4.586-2.995c-2.545,0-4.504,2.872-4.586,2.995l-0.214,0.318
		l0.214,0.318c0.082,0.123,2.042,2.996,4.586,2.996c2.547,0,4.504-2.873,4.586-2.996L16,10.621L15.785,10.303z M11.199,12.789
		c-1.508,0-2.865-1.5-3.397-2.17c0.638-0.809,1.999-2.165,3.397-2.165c1.508,0,2.867,1.5,3.396,2.172
		C13.96,11.432,12.6,12.789,11.199,12.789z"/>
	<circle fill="#FFFFFF" cx="11.199" cy="10.622" r="1.493"/>
</g>
</svg>
