<?xml version="1.0" encoding="utf-8"?>
<!-- Generator: Adobe Illustrator 16.0.0, SVG Export Plug-In . SVG Version: 6.00 Build 0)  -->
<!DOCTYPE svg PUBLIC "-//W3C//DTD SVG 1.1//EN" "http://www.w3.org/Graphics/SVG/1.1/DTD/svg11.dtd">
<svg version="1.1" id="图层_1" xmlns="http://www.w3.org/2000/svg" xmlns:xlink="http://www.w3.org/1999/xlink" x="0px" y="0px"
	 width="16px" height="16px" viewBox="0 0 16 16" enable-background="new 0 0 16 16" xml:space="preserve">
<path fill="#FFFFFF" d="M12.837,9.562c0.503,0,0.976,0.191,1.33,0.549c0.033,0.033,0.058,0.07,0.086,0.104l1.097-0.547
	c1.021-1.603,0.838-3.749-0.562-5.148c-0.997-0.994-2.373-1.373-3.661-1.143c-0.164-0.256-0.354-0.504-0.575-0.727
	c-1.647-1.648-4.318-1.648-5.967,0c-0.499,0.5-0.837,1.092-1.033,1.719C1.584,4.404,0,6.004,0,7.979c0,1.96,1.563,3.548,3.511,3.607
	v0.01h7.457c-0.016-0.209-0.01-0.421,0.046-0.63l0.115-0.437l0.783-0.787l0.439-0.115C12.511,9.585,12.674,9.562,12.837,9.562z
	 M6.464,7.907C6.377,8.25,6.216,8.514,5.983,8.698c-0.234,0.186-0.52,0.278-0.852,0.278c-0.334,0-0.613-0.069-0.83-0.213
	C4.08,8.62,3.914,8.415,3.8,8.147c-0.103-0.25-0.16-0.526-0.16-0.813c0-0.315,0.061-0.595,0.186-0.835
	c0.128-0.247,0.312-0.441,0.55-0.57c0.233-0.129,0.487-0.19,0.761-0.19c0.317,0,0.593,0.085,0.815,0.25
	c0.222,0.166,0.38,0.401,0.465,0.695l0.06,0.211l-0.76,0.181L5.656,6.889C5.609,6.735,5.542,6.624,5.455,6.558
	C5.374,6.499,5.267,6.467,5.13,6.467c-0.168,0-0.296,0.038-0.402,0.112c-0.105,0.073-0.177,0.17-0.22,0.298
	C4.459,7.024,4.434,7.18,4.434,7.334c0,0.204,0.029,0.382,0.086,0.531c0.052,0.13,0.126,0.221,0.229,0.282
	C4.86,8.214,4.976,8.248,5.101,8.248c0.155,0,0.277-0.042,0.378-0.128c0.104-0.083,0.175-0.221,0.216-0.402l0.046-0.207l0.78,0.191
	L6.464,7.907z M12.046,8.932h-0.771V7.69L10.84,8.93h-0.619L9.792,7.675v1.257H9.021V6.319L7.999,8.932h-0.66L6.12,5.783h0.845
	l0.707,1.972l0.735-1.972h1.52l0.628,1.874L11.2,5.783h0.847L12.046,8.932L12.046,8.932z M14.389,12.467l1.146-1.141h0.152
	L16,10.699l-0.157-0.158l-0.628,0.312v0.153l-1.181,1.185l-0.42-0.326c0.178-0.336,0.131-0.762-0.152-1.045
	c-0.231-0.23-0.56-0.305-0.854-0.229l0.541,0.542v0.627h-0.627l-0.541-0.537c-0.078,0.295-0.006,0.623,0.229,0.854
	c0.283,0.284,0.709,0.334,1.045,0.151l0.229,0.289l-1.416,1.108c-0.258,0.271-0.098,0.56,0.015,0.687l0.142,0.142
	c0.123,0.106,0.373,0.153,0.684,0.037l1.062-1.362L15,14.447c0.268,0.255,0.555,0.097,0.68-0.014l0.146-0.146
	c0.104-0.122,0.27-0.374,0.035-0.686L14.389,12.467z M15.486,14.104c-0.073,0.071-0.19,0.071-0.262,0
	c-0.074-0.074-0.074-0.188,0-0.264c0.066-0.072,0.188-0.072,0.262,0C15.559,13.912,15.559,14.029,15.486,14.104z"/>
</svg>
