<?xml version="1.0" encoding="utf-8"?>
<!-- Generator: Adobe Illustrator 16.0.0, SVG Export Plug-In . SVG Version: 6.00 Build 0)  -->
<!DOCTYPE svg PUBLIC "-//W3C//DTD SVG 1.1//EN" "http://www.w3.org/Graphics/SVG/1.1/DTD/svg11.dtd">
<svg version="1.1" id="图层_1" xmlns="http://www.w3.org/2000/svg" xmlns:xlink="http://www.w3.org/1999/xlink" x="0px" y="0px"
	 width="16px" height="16px" viewBox="0 0 16 16" enable-background="new 0 0 16 16" xml:space="preserve">
<g>
	<path fill="#FFFFFF" d="M8.285,12.818c0-1.489,0.917-2.762,2.213-3.293C10.492,8.95,10.486,8.55,10.486,8.55V0h-8.66v14.841H7.24
		c0.692,0,1.232-0.003,1.672-0.009C8.516,14.26,8.285,13.566,8.285,12.818z M3.066,1.238h6.182V2.72H3.066V1.238z M3.066,3.957
		h6.182v1.486H3.066V3.957z M3.066,6.679h6.182v1.484H3.066V6.679z M6.694,13.128H5.767l-0.682-3.095h0.782l0.368,2.393h0.008
		l0.373-2.393h0.78L6.694,13.128z"/>
	<g>
		<path fill="#FFFFFF" d="M11.605,14.033l-0.09,0.002C11.545,14.036,11.574,14.036,11.605,14.033z"/>
		<polygon fill="#FFFFFF" points="11.441,13.818 11.467,16 13.09,14.891 		"/>
		<path fill="#FFFFFF" d="M14.004,13.624l-0.422-0.413c0.168-0.652-0.008-1.373-0.521-1.877c-0.77-0.748-1.998-0.734-2.746,0.031
			c-0.75,0.768-0.73,1.996,0.029,2.748c0.396,0.381,0.904,0.562,1.41,0.551l0.482,0.471c-0.785,0.176-1.646-0.039-2.262-0.645
			C9,13.535,8.98,11.973,9.936,10.995c0.953-0.976,2.521-0.993,3.494-0.04C14.162,11.672,14.354,12.729,14.004,13.624z"/>
	</g>
</g>
</svg>
