<?xml version="1.0" encoding="utf-8"?>
<!-- Generator: Adobe Illustrator 16.0.0, SVG Export Plug-In . SVG Version: 6.00 Build 0)  -->
<!DOCTYPE svg PUBLIC "-//W3C//DTD SVG 1.1//EN" "http://www.w3.org/Graphics/SVG/1.1/DTD/svg11.dtd">
<svg version="1.1" id="图层_1" xmlns="http://www.w3.org/2000/svg" xmlns:xlink="http://www.w3.org/1999/xlink" x="0px" y="0px"
	 width="16px" height="16px" viewBox="0 0 16 16" enable-background="new 0 0 16 16" xml:space="preserve">
<g>
	<g>
		<polygon fill="#FFFFFF" points="8.601,4.048 9.173,4.048 8.901,3.24 		"/>
		<path fill="#FFFFFF" d="M11.669,1.951c-0.626-0.625-1.489-0.863-2.3-0.718C9.267,1.072,9.15,0.917,9.007,0.775
			c-1.036-1.035-2.712-1.035-3.748,0C4.944,1.089,4.732,1.461,4.61,1.854C3.373,1.877,2.377,2.882,2.377,4.124
			c0,1.233,0.98,2.229,2.207,2.266v0.007h5.341V6.389c0.634-0.024,1.26-0.27,1.744-0.754C12.687,4.617,12.687,2.968,11.669,1.951z
			 M4.203,4.801H3.939L3.271,2.967l0.275,0.001l0.523,1.563l0.525-1.563L4.87,2.967L4.203,4.801z M6.269,4.802L5.776,4.049
			L5.27,4.801H4.971l0.655-0.939L5.011,2.967l0.311,0.001l0.465,0.701L6.25,2.967h0.298L5.933,3.862l0.643,0.939L6.269,4.802z
			 M7.994,4.801H6.818V2.967h0.247v1.614h0.929V4.801z M9.443,4.8L9.262,4.268H8.526L8.335,4.801H8.08L8.77,2.967h0.28l0.663,1.833
			L9.443,4.8z M11.396,4.801h-0.278l-0.933-1.48l-0.005,1.48H9.941V2.967h0.294l0.915,1.479l0.004-1.479h0.241V4.801z"/>
	</g>
	<path fill="#FFFFFF" d="M14.41,6.85h-2.54c-0.416,0-0.754,0.344-0.754,0.765v0.804H7.84l-0.029-2.2H6.859l0.029,2.2h-2.84V7.615
		c0-0.421-0.34-0.765-0.755-0.765h-2.54C0.338,6.85,0,7.194,0,7.615v2.589c0,0.372,0.262,0.663,0.604,0.735H1.55v1.67H0.972
		c-0.346,0-0.626,0.285-0.626,0.635v2.146c0,0.309,0.218,0.55,0.5,0.609H3.11c0.328-0.018,0.593-0.266,0.593-0.609v-2.146
		c0-0.35-0.281-0.635-0.626-0.635H2.501v-1.67h0.832c0.396-0.021,0.716-0.322,0.716-0.735V9.37h2.84v3.239H6.312
		c-0.346,0-0.626,0.285-0.626,0.635v2.146c0,0.309,0.218,0.55,0.501,0.609H8.45c0.327-0.018,0.593-0.266,0.593-0.609v-2.146
		c0-0.35-0.282-0.635-0.626-0.635H7.84V9.37h3.276v0.834c0,0.372,0.262,0.663,0.604,0.735h0.946v1.67h-0.578
		c-0.346,0-0.626,0.285-0.626,0.635v2.146c0,0.309,0.218,0.55,0.5,0.609h2.265c0.328-0.018,0.593-0.266,0.593-0.609v-2.146
		c0-0.35-0.281-0.635-0.626-0.635h-0.576v-1.67h0.832c0.396-0.021,0.716-0.322,0.716-0.735V7.615
		C15.165,7.194,14.825,6.85,14.41,6.85z"/>
</g>
</svg>
