<?xml version="1.0" encoding="utf-8"?>
<!-- Generator: Adobe Illustrator 16.0.0, SVG Export Plug-In . SVG Version: 6.00 Build 0)  -->
<!DOCTYPE svg PUBLIC "-//W3C//DTD SVG 1.1//EN" "http://www.w3.org/Graphics/SVG/1.1/DTD/svg11.dtd">
<svg version="1.1" id="图层_1" xmlns="http://www.w3.org/2000/svg" xmlns:xlink="http://www.w3.org/1999/xlink" x="0px" y="0px"
	 width="16px" height="16px" viewBox="0 0 16 16" enable-background="new 0 0 16 16" xml:space="preserve">
<g>
	<path fill="#FFFFFF" d="M14.154,11.691H1.846C0.827,11.691,0,12.52,0,13.538v0.614C0,15.174,0.827,16,1.846,16h12.308
		C15.173,16,16,15.174,16,14.152v-0.614C16,12.52,15.173,11.691,14.154,11.691z M13.23,14.77c-0.51,0-0.924-0.414-0.924-0.924
		c0-0.509,0.414-0.923,0.924-0.923s0.924,0.414,0.924,0.923C14.154,14.355,13.74,14.77,13.23,14.77z"/>
	<g>
		<ellipse fill="#FFFFFF" cx="8" cy="5.25" rx="1.178" ry="0.876"/>
		<path fill="#FFFFFF" d="M14.154,1.846c0-1.02-0.827-1.846-1.848-1.846H3.692c-1.02,0-1.847,0.826-1.847,1.846L0,11.708
			c0.516-0.392,1.15-0.631,1.846-0.631h12.308c0.695,0,1.33,0.239,1.847,0.631L14.154,1.846z M8,9.182
			c-2.658,0-4.817-1.621-4.817-3.618c0-1.998,2.159-3.619,4.817-3.619s4.816,1.621,4.816,3.619C12.816,7.561,10.658,9.182,8,9.182z"
			/>
		<path fill="#FFFFFF" d="M5.104,4.673C4.944,4.94,4.855,5.235,4.855,5.544c0,1.234,1.409,2.018,3.145,2.018
			C7.229,7.476,4.916,6.474,5.104,4.673z"/>
	</g>
</g>
</svg>
