<?xml version="1.0" encoding="utf-8"?>
<!-- Generator: Adobe Illustrator 16.0.0, SVG Export Plug-In . SVG Version: 6.00 Build 0)  -->
<!DOCTYPE svg PUBLIC "-//W3C//DTD SVG 1.1//EN" "http://www.w3.org/Graphics/SVG/1.1/DTD/svg11.dtd">
<svg version="1.1" id="图层_1" xmlns="http://www.w3.org/2000/svg" xmlns:xlink="http://www.w3.org/1999/xlink" x="0px" y="0px"
	 width="16px" height="16px" viewBox="0 0 16 16" enable-background="new 0 0 16 16" xml:space="preserve">
<g>
	<path fill="#FFFFFF" d="M13.613,9.443H12.85l-0.094-0.655c-0.029-0.213-0.229-0.387-0.443-0.387h-2.084
		c-0.217,0-0.416,0.174-0.439,0.387L9.691,9.443H8.926c-0.434,0-0.781,0.35-0.781,0.783v0.26h6.251v-0.26
		C14.396,9.793,14.047,9.443,13.613,9.443z M10.291,8.923h1.957l0.074,0.521h-2.105L10.291,8.923z"/>
	<path fill="#FFFFFF" d="M3.626,5.977h6.978v-1H3.626V5.977z M6.604,3.999h4v-1h-4V3.999z M4.604-0.001l-2.879,3L1.604,3.125v10.874
		h6l0.173-0.173l-0.075-0.827H2.604v-9h3v-3h6v6.402h0.709c0.104,0,0.195,0.028,0.291,0.049v-7.451H4.604z M3.604,10.999v1H7.61
		l-0.047-0.513h-0.42v-0.487H3.604z M3.626,8.979v1h3.542c0.055-0.387,0.228-0.729,0.489-1H3.626z M3.626,7.978h5.458
		c0.268-0.348,0.682-0.576,1.145-0.576h0.375V6.978H3.626V7.978z"/>
	<path fill="#FFFFFF" d="M13.562,10.693H8.979c-0.266,0-0.463,0.217-0.438,0.479l0.396,4.348C8.959,15.784,9.195,16,9.461,16h3.619
		c0.264,0,0.5-0.217,0.525-0.48L14,11.174C14.023,10.91,13.826,10.693,13.562,10.693z M10.305,15.035H9.582L9.34,11.658h0.965
		V15.035z M11.752,15.035h-0.965v-3.377h0.965V15.035z M12.959,15.035h-0.725v-3.377h0.965L12.959,15.035z"/>
</g>
</svg>
