<?xml version="1.0" encoding="utf-8"?>
<!-- Generator: Adobe Illustrator 16.0.0, SVG Export Plug-In . SVG Version: 6.00 Build 0)  -->
<!DOCTYPE svg PUBLIC "-//W3C//DTD SVG 1.1//EN" "http://www.w3.org/Graphics/SVG/1.1/DTD/svg11.dtd">
<svg version="1.1" id="图层_1" xmlns="http://www.w3.org/2000/svg" xmlns:xlink="http://www.w3.org/1999/xlink" x="0px" y="0px"
	 width="16px" height="16px" viewBox="0 0 16 16" enable-background="new 0 0 16 16" xml:space="preserve">
<g>
	<path fill="#FFFFFF" d="M8.744,14.857H1.17V4.572H4.6v-3.43h6.857v7.104c0.158-0.062,0.325-0.103,0.505-0.103H12.6V0H3.457
		L0.166,3.429L0.027,3.574V16h9.645l-0.604-0.604C8.914,15.245,8.812,15.059,8.744,14.857z"/>
	<path fill="#FFFFFF" d="M8.663,10.707c0-0.361,0.137-0.706,0.385-0.971l0.088-0.088V9.602H5.898v1.146h2.767
		C8.665,10.73,8.663,10.721,8.663,10.707z"/>
	<path fill="#FFFFFF" d="M15.57,11.549h-0.797l0.572-0.568c0.15-0.15,0.15-0.402,0-0.562L14.7,9.766
		c-0.078-0.076-0.181-0.111-0.283-0.111s-0.206,0.035-0.284,0.111l-0.566,0.567V9.547c0-0.224-0.182-0.402-0.396-0.402h-1.203
		c-0.223,0-0.397,0.185-0.397,0.402v0.797L11,9.777c-0.077-0.075-0.182-0.116-0.283-0.116c-0.104,0-0.203,0.041-0.281,0.116
		L9.777,10.42c-0.072,0.077-0.114,0.182-0.114,0.287c0,0.104,0.042,0.206,0.114,0.281l0.562,0.561H9.555
		c-0.222,0-0.404,0.18-0.404,0.404v1.201c0,0.22,0.188,0.402,0.404,0.402h0.786L9.775,14.12c-0.158,0.153-0.158,0.405,0,0.563
		l0.646,0.646c0.078,0.081,0.185,0.119,0.285,0.119s0.206-0.038,0.284-0.119l0.57-0.569v0.801c0,0.226,0.182,0.399,0.398,0.399
		h1.203c0.22,0,0.398-0.181,0.398-0.399V14.76l0.567,0.576c0.075,0.074,0.181,0.114,0.283,0.114c0.104,0,0.212-0.04,0.284-0.114
		l0.646-0.646c0.074-0.067,0.116-0.176,0.116-0.277c0-0.105-0.042-0.209-0.116-0.284l-0.566-0.565h0.785
		c0.228,0,0.402-0.186,0.402-0.398V11.96C15.973,11.729,15.793,11.549,15.57,11.549z M12.561,14.251c-0.938,0-1.69-0.757-1.69-1.694
		s0.758-1.701,1.69-1.701c0.94,0,1.698,0.764,1.698,1.701S13.501,14.251,12.561,14.251z"/>
	<polygon fill="#FFFFFF" points="3.823,7.001 2.268,7.001 4.129,8.864 2.269,10.725 3.824,10.725 5.686,8.864 	"/>
	<path fill="#FFFFFF" d="M2.312,13.715h5.959c-0.076-0.172-0.121-0.359-0.121-0.561v-0.582H2.312V13.715z"/>
	<rect x="9.572" y="3.144" fill="#FFFFFF" width="1.143" height="3.547"/>
	<rect x="5.422" y="3.144" fill="#FFFFFF" width="1.145" height="3.547"/>
	<rect x="7.498" y="2.001" fill="#FFFFFF" width="1.143" height="4.689"/>
</g>
</svg>
