<?xml version="1.0" encoding="utf-8"?>
<!-- Generator: Adobe Illustrator 16.0.0, SVG Export Plug-In . SVG Version: 6.00 Build 0)  -->
<!DOCTYPE svg PUBLIC "-//W3C//DTD SVG 1.1//EN" "http://www.w3.org/Graphics/SVG/1.1/DTD/svg11.dtd">
<svg version="1.1" id="图层_1" xmlns="http://www.w3.org/2000/svg" xmlns:xlink="http://www.w3.org/1999/xlink" x="0px" y="0px"
	 width="16px" height="16px" viewBox="0 0 16 16" enable-background="new 0 0 16 16" xml:space="preserve">
<g>
	<g>
		<g>
			<path fill="#FFFFFF" d="M11.973,10.148L9.842,8.02l2.083-2.08l-1.866-1.866L7.975,6.156L5.847,4.027l-1.822,1.82l2.13,2.132
				l-2.08,2.08l1.862,1.867l2.084-2.084l2.127,2.131L11.973,10.148z"/>
		</g>
	</g>
	<g>
		<g>
			<path fill="#FFFFFF" d="M8,16c-4.411,0-8-3.588-8-8s3.589-8,8-8c4.412,0,8,3.588,8,8S12.412,16,8,16z M8,1.371
				C4.346,1.371,1.371,4.345,1.371,8c0,3.654,2.975,6.629,6.629,6.629c3.654,0,6.629-2.975,6.629-6.629
				C14.629,4.345,11.654,1.371,8,1.371z"/>
		</g>
	</g>
</g>
</svg>
