<?xml version="1.0" encoding="utf-8"?>
<!-- Generator: Adobe Illustrator 16.0.0, SVG Export Plug-In . SVG Version: 6.00 Build 0)  -->
<!DOCTYPE svg PUBLIC "-//W3C//DTD SVG 1.1//EN" "http://www.w3.org/Graphics/SVG/1.1/DTD/svg11.dtd">
<svg version="1.1" id="图层_1" xmlns="http://www.w3.org/2000/svg" xmlns:xlink="http://www.w3.org/1999/xlink" x="0px" y="0px"
	 width="16px" height="16px" viewBox="0 0 16 16" enable-background="new 0 0 16 16" xml:space="preserve">
<g>
	<path fill="#FFFFFF" d="M9.514,2.008L6.182,0.582L3.325,2.008l-3.331-1.426v10.947l3.331,1.425l2.856-1.425l2.842,1.216
		l0.018,0.008c-0.01-0.112-0.034-0.221-0.034-0.335c0-1.984,1.46-3.626,3.362-3.934V0.582L9.514,2.008z M8.986,8.753h-5.61v-0.98
		h5.61V8.753z M8.986,7.237h-5.61v-0.98h5.61V7.237z M8.986,5.765h-5.61v-0.98h5.61V5.765z"/>
	<path fill="#FFFFFF" d="M13.006,9.42c-1.654,0-3,1.342-3,2.998s1.346,3,3,3c1.656,0,3-1.344,3-3S14.662,9.42,13.006,9.42z
		 M14.791,12.948h-1.242v1.209h-1.086v-1.209h-1.24v-1.058h1.24v-1.209h1.086v1.209h1.242V12.948z"/>
</g>
</svg>
