<?xml version="1.0" encoding="utf-8"?>
<!-- Generator: Adobe Illustrator 16.0.0, SVG Export Plug-In . SVG Version: 6.00 Build 0)  -->
<!DOCTYPE svg PUBLIC "-//W3C//DTD SVG 1.1//EN" "http://www.w3.org/Graphics/SVG/1.1/DTD/svg11.dtd">
<svg version="1.1" id="图层_1" xmlns="http://www.w3.org/2000/svg" xmlns:xlink="http://www.w3.org/1999/xlink" x="0px" y="0px"
	 width="16px" height="16px" viewBox="0 0 16 16" enable-background="new 0 0 16 16" xml:space="preserve">
<path fill="#FFFFFF" d="M15.18,6.357h-2.671c-0.438,0-0.793,0.361-0.793,0.805v0.845H8.271V6.068h1.435
	c0.586-0.031,1.06-0.475,1.06-1.086V1.154c0-0.622-0.504-1.131-1.115-1.131H5.894c-0.616,0-1.115,0.509-1.115,1.131v3.828
	c0,0.549,0.386,0.98,0.892,1.086h1.601v1.938H4.285V7.162c0-0.443-0.357-0.805-0.794-0.805h-2.67c-0.438,0-0.793,0.361-0.793,0.805
	v2.722c0,0.392,0.274,0.697,0.634,0.772h0.994v1.756H1.05c-0.363,0-0.658,0.3-0.658,0.668v2.256c0,0.324,0.229,0.578,0.525,0.641
	h2.381c0.345-0.019,0.624-0.273,0.624-0.641V13.08c0-0.368-0.297-0.668-0.658-0.668H2.656v-1.756h0.876
	c0.417-0.022,0.753-0.338,0.753-0.772V9.007H7.27v3.405H6.664c-0.363,0-0.658,0.3-0.658,0.668v2.256
	c0,0.324,0.229,0.578,0.525,0.641h2.381c0.345-0.019,0.624-0.273,0.624-0.641V13.08c0-0.368-0.297-0.668-0.658-0.668H8.271V9.007
	h3.445v0.877c0,0.392,0.274,0.697,0.634,0.772h0.994v1.756H12.74c-0.363,0-0.658,0.3-0.658,0.668v2.256
	c0,0.324,0.229,0.578,0.523,0.641h2.381c0.347-0.019,0.623-0.273,0.623-0.641V13.08c0-0.368-0.297-0.668-0.656-0.668H14.35v-1.756
	h0.875c0.416-0.022,0.752-0.338,0.752-0.772V7.162C15.973,6.719,15.614,6.357,15.18,6.357z"/>
</svg>
