<?xml version="1.0" standalone="no"?>
<!DOCTYPE svg PUBLIC "-//W3C//DTD SVG 1.1//EN"
    "http://www.w3.org/Graphics/SVG/1.1/DTD/svg11.dtd">
<!-- Generator: Adobe Illustrator 16.0.0, SVG Export Plug-In . SVG Version: 6.00 Build 0)  -->
<svg contentScriptType="text/ecmascript" zoomAndPan="magnify" xmlns:xlink="http://www.w3.org/1999/xlink" baseProfile="full"
    contentStyleType="text/css" id="图层_1" enable-background="new 0 0 16 16" version="1.1" xml:space="preserve" width="16px"
    preserveAspectRatio="xMidYMid meet" viewBox="0 0 16 16" height="16px" xmlns="http://www.w3.org/2000/svg" x="0px" y="0px"> 
    <g>    
        <path fill="#FFFFFF" d="M6.435-0.001C2.88-0.001,0,1.281,0,2.863s2.88,2.864,6.435,2.864s6.436-1.282,6.436-2.864 
            S9.989-0.001,6.435-0.001z"/>  
        <g>   
            <path fill="#FFFFFF" d="M12.87,7.034c0-0.134,0-0.259,0-0.409c0,0.137-0.029,0.27-0.071,0.402 
                C12.823,7.027,12.846,7.033,12.87,7.034z"/>   
            <path fill="#FFFFFF" d="M8.383,11.349c0-0.761,0.213-1.464,0.557-2.085C8.17,9.408,7.323,9.489,6.435,9.489 
                C2.88,9.489,0,8.207,0,6.625c0,0.661,0,1.102,0,2.189c0,1.583,2.88,2.864,6.435,2.864c0.688,0,1.348-0.05,1.968-0.138 
                C8.399,11.476,8.383,11.415,8.383,11.349z"/>  </g>  
        <path fill="#FFFFFF" d=
            "M8.499,12.312c-0.648,0.098-1.342,0.153-2.064,0.153C2.88,12.465,0,11.183,0,9.601c0,0.661,0,1.103,0,2.189 
            c0,1.583,2.88,2.864,6.435,2.864c1.134,0,2.196-0.131,3.121-0.359C9.044,13.746,8.672,13.068,8.499,12.312z"/>  
        <path fill="#FFFFFF" d="M12.244,7.065c0.396-0.372,0.626-0.787,0.626-1.227c0-0.581,0-1.188,0-2.19 
            c0,1.584-2.881,2.864-6.436,2.864S0,5.232,0,3.648c0,0.661,0,1.103,0,2.19c0,1.583,2.88,2.864,6.435,2.864 
            c1.159,0,2.244-0.139,3.184-0.376C10.3,7.627,11.22,7.178,12.244,7.065z"/> </g> 
    <path fill="#FFFFFF" d="M 14.538139 14.842359 h -1.568634 v -0.41703033 C 14.542878 14.142442 15.733334 12.818349 
        15.733334 11.221409 c 0.0 -1.2656898 -0.75161743 -2.3534346 -1.8435011 -2.8945684 c 0.0018978119 -0.0018262863 
        0.0037927628 -0.0036506653 0.00568676 -0.0054769516 c -0.018956184 -0.009124756 -0.04075432 -0.0127744675 
        -0.058764458 -0.02007389 c -0.04738903 -0.022813797 -0.091937065 -0.051103592 -0.13932896 -0.07117939 c 
        -0.0056858063 0.005475998 -0.011372566 0.010038376 -0.015164375 0.01551342 C 13.269015 8.073154 12.823544 7.96 
        12.343 7.96 c -0.47959518 0.0 -0.9269638 0.113155365 -1.339262 0.28562355 C 10.999947 8.239237 10.994259 
        8.2346735 10.98952 8.229198 c -0.04928589 0.020075798 -0.09383297 0.04836464 -0.139328 0.07117748 c -0.01990509 
        0.008213043 -0.040758133 0.011864662 -0.058764458 0.020075798 c 9.469986E-4 0.0018262863 0.0028419495 
        0.0036506653 0.004737854 0.0054769516 c -1.0918827 0.5420456 -1.8434992 1.6297903 -1.8434992 2.8945684 c 0.0 
        1.59694 1.1904554 2.9192076 2.7628803 3.2057428 v 0.41703033 h -1.5667381 c -0.2957182 0.0 -0.31467533 
        0.30478764 -0.31467533 0.30478764 v 0.6022749 h 1.8814135 h 1.2539587 h 1.8804646 v -0.6022749 C 14.84997 
        14.98015 14.711588 14.842359 14.538139 14.842359 z M 12.343 8.259311 c 0.39618587 0.0 0.76772976 0.089429855 
        1.1155777 0.22266006 c -0.29571915 0.259161 -0.68432236 0.42068005 -1.1155777 0.42068005 s -0.82080746 
        -0.16151905 -1.1155787 -0.42068005 C 11.57527 8.348741 11.945865 8.259311 12.343 8.259311 z M 10.676742 
        11.221409 c 0.0 -0.88607407 0.7459297 -1.602417 1.6662588 -1.602417 c 0.92127514 0.0 1.6672058 0.7172556 
        1.6672058 1.602417 c 0.0 0.88607407 -0.7459307 1.6042404 -1.6672058 1.6042404 C 11.422671 12.82565 10.676742 
        12.10657 10.676742 11.221409 z"/>
    <path fill="#FFFFFF" d="M 13.2115345 11.292097 c 0.0 -0.45619965 -0.38808918 -0.82719517 -0.8685341 -0.82719517 c 
        -0.16605759 0.0 -0.31905365 0.048815727 -0.44872856 0.12337017 c 0.041981697 -0.010651588 0.089559555 
        -0.020415306 0.13340569 -0.020415306 c 0.24628735 0.0 0.44499588 0.19437408 0.44499588 0.42513657 c 0.0 
        0.23431301 -0.19870853 0.42336082 -0.44499588 0.42336082 c -0.24815273 0.0 -0.44499493 -0.18904781 -0.44499493 
        -0.42336082 c 0.0 -0.043489456 0.013994217 -0.08342934 0.021456718 -0.12159443 c -0.08116245 0.12514496 
        -0.12967396 0.27070236 -0.12967396 0.4251356 c 0.0 0.4562006 0.38902187 0.8254204 0.86853504 0.8254204 C 
        12.823445 12.11663 13.2115345 11.74741 13.2115345 11.292097 z"/></svg>