<?xml version="1.0" encoding="utf-8"?>
<!-- Generator: Adobe Illustrator 16.0.0, SVG Export Plug-In . SVG Version: 6.00 Build 0)  -->
<!DOCTYPE svg PUBLIC "-//W3C//DTD SVG 1.1//EN" "http://www.w3.org/Graphics/SVG/1.1/DTD/svg11.dtd">
<svg version="1.1" id="图层_1" xmlns="http://www.w3.org/2000/svg" xmlns:xlink="http://www.w3.org/1999/xlink" x="0px" y="0px"
	 width="16px" height="16px" viewBox="0 0 16 16" enable-background="new 0 0 16 16" xml:space="preserve">
<g>
	<path fill="#FFFFFF" d="M15.77,11.995c-0.088-0.134-2.188-3.218-4.926-3.218c-2.735,0-4.84,3.084-4.928,3.218l-0.229,0.343
		l0.229,0.342c0.088,0.133,2.192,3.219,4.928,3.219c2.734,0,4.838-3.086,4.926-3.219L16,12.338L15.77,11.995z M10.844,14.665
		c-1.621,0-3.079-1.61-3.651-2.33c0.687-0.869,2.147-2.325,3.651-2.325c1.619,0,3.078,1.612,3.648,2.333
		C13.809,13.209,12.348,14.665,10.844,14.665z"/>
	<circle fill="#FFFFFF" cx="10.844" cy="12.338" r="1.604"/>
	<path fill="#FFFFFF" d="M7.378,0.103C3.304,0.103,0,3.405,0,7.48c0,3.745,2.791,6.829,6.404,7.307
		c-0.801-0.779-1.278-1.49-1.322-1.557l-0.291-0.438C2.815,11.834,1.44,9.824,1.44,7.48c0-3.275,2.663-5.938,5.938-5.938
		c3.274,0,5.938,2.663,5.938,5.938c0,0.311-0.033,0.613-0.082,0.911c0.476,0.241,0.912,0.531,1.301,0.839
		c0.141-0.562,0.221-1.146,0.221-1.75C14.756,3.405,11.453,0.103,7.378,0.103z M8.283,7.48c0-0.314-0.161-0.592-0.405-0.754
		L7.75,3.849c-0.006-0.132-0.114-0.37-0.374-0.37S7.01,3.717,7.001,3.849L6.853,6.747C6.624,6.91,6.474,7.178,6.474,7.48
		c0,0.499,0.405,0.905,0.904,0.905c0.037,0,0.071-0.007,0.108-0.011l0.389,0.347c0.312-0.197,0.643-0.373,0.993-0.52L8.279,7.523
		C8.279,7.509,8.283,7.495,8.283,7.48z"/>
</g>
</svg>
