<?xml version="1.0" encoding="utf-8"?>
<!-- Generator: Adobe Illustrator 16.0.0, SVG Export Plug-In . SVG Version: 6.00 Build 0)  -->
<!DOCTYPE svg PUBLIC "-//W3C//DTD SVG 1.1//EN" "http://www.w3.org/Graphics/SVG/1.1/DTD/svg11.dtd">
<svg version="1.1" id="图层_1" xmlns="http://www.w3.org/2000/svg" xmlns:xlink="http://www.w3.org/1999/xlink" x="0px" y="0px"
	 width="16px" height="16px" viewBox="0 0 16 16" enable-background="new 0 0 16 16" xml:space="preserve">
<g>
	<path fill="#FFFFFF" d="M15.92,6.128c-0.1-0.261-1.037-0.734-1.29-0.832c-0.017-0.01-0.134-0.053-0.134-0.071v-0.25
		c0.216-0.222,0.534-0.649,0.594-1.167c0.089-0.767-0.325-1.387-0.877-1.393h-0.025c-0.327,0.003-0.567,0.166-0.713,0.426
		c0.019,0.02,0.039,0.033,0.058,0.055c0.396,0.447,0.577,1.101,0.496,1.789c-0.063,0.562-0.317,1.032-0.552,1.355
		c0.274,0.132,0.676,0.346,1.004,0.592H16C16,6.632,16.012,6.363,15.92,6.128z"/>
	<path fill="#FFFFFF" d="M11.816,6.356c-0.302,0.12-1.458,0.691-1.579,1.008c-0.108,0.282-0.114,0.608-0.114,0.608h4.41
		c0,0,0.014-0.326-0.097-0.608c-0.12-0.316-1.252-0.888-1.558-1.008c-0.02-0.01-0.161-0.06-0.161-0.084V5.97
		c0.261-0.265,0.646-0.783,0.716-1.408c0.108-0.926-0.391-1.676-1.057-1.681h-0.032c-0.777,0.005-1.149,0.761-1.045,1.686
		c0.073,0.623,0.379,1.139,0.639,1.403v0.303C11.938,6.297,11.838,6.347,11.816,6.356z"/>
	<path fill="none" d="M7.563,4.996C7.549,4.825,7.503,4.66,7.424,4.5C7.209,4.051,6.809,3.828,6.226,3.831
		C5.382,3.876,4.937,4.37,4.889,5.313C4.878,6.298,5.323,6.785,6.226,6.774c0.78,0,1.206-0.297,1.277-0.893H6.75
		C6.672,6.128,6.497,6.247,6.226,6.239C5.892,6.25,5.732,6.015,5.747,5.531h1.839C7.586,5.297,7.579,5.119,7.563,4.996z
		 M5.747,4.974C5.758,4.58,5.918,4.385,6.226,4.389C6.561,4.385,6.725,4.58,6.717,4.974H5.747z"/>
	<path fill="none" d="M3.573,4.422H3.562L3.551,3.909H2.793c0.015,0.275,0.022,0.465,0.022,0.568l0.011,2.229h0.825V5.325
		c0.007-0.223,0.044-0.39,0.111-0.502c0.089-0.101,0.227-0.169,0.413-0.206h0.355V3.876C4.057,3.857,3.737,4.039,3.573,4.422z"/>
	<path fill="none" d="M10.406,5.882c-0.123-0.568-0.478-0.878-1.064-0.931C8.98,4.855,8.801,4.751,8.801,4.64
		c-0.008-0.171,0.106-0.255,0.34-0.251c0.227,0.011,0.35,0.103,0.368,0.272h0.752c-0.037-0.546-0.41-0.822-1.12-0.83
		C8.372,3.887,7.968,4.168,7.932,4.673C7.898,5.148,8.243,5.449,8.968,5.576C9.34,5.65,9.527,5.766,9.531,5.921
		C9.523,6.126,9.394,6.231,9.141,6.239c-0.282-0.011-0.435-0.124-0.457-0.34H7.898C7.92,6.468,8.334,6.76,9.141,6.774
		C9.937,6.707,10.357,6.41,10.406,5.882z"/>
	<path fill="#FFFFFF" d="M6.226,4.389C5.918,4.385,5.758,4.58,5.747,4.974h0.97C6.725,4.58,6.561,4.385,6.226,4.389z"/>
	<path fill="#FFFFFF" d="M9.554,7.16c0.194-0.509,0.985-0.983,1.553-1.267c-0.215-0.373-0.396-0.841-0.456-1.366
		c-0.097-0.851,0.096-1.592,0.54-2.094c0.081-0.091,0.17-0.17,0.265-0.241C10.701,1.61,9.753,1.4,8.858,1.562
		C8.729,1.357,8.578,1.16,8.4,0.982c-1.312-1.312-3.438-1.312-4.75,0C3.253,1.379,2.983,1.85,2.828,2.35C1.262,2.377,0,3.65,0,5.224
		c0,1.562,1.244,2.825,2.795,2.871v0.008h6.582V8.088C9.379,8.006,9.395,7.576,9.554,7.16z M4.531,4.617H4.176
		C3.989,4.654,3.852,4.723,3.763,4.823C3.695,4.936,3.658,5.103,3.651,5.325v1.382H2.826L2.815,4.478
		c0-0.104-0.008-0.293-0.022-0.568h0.758l0.011,0.513h0.012c0.164-0.383,0.483-0.564,0.958-0.546V4.617z M6.226,6.239
		C6.497,6.247,6.672,6.128,6.75,5.882h0.753C7.432,6.478,7.006,6.774,6.226,6.774C5.323,6.785,4.878,6.298,4.889,5.313
		C4.937,4.37,5.382,3.876,6.226,3.831C6.809,3.828,7.209,4.051,7.424,4.5c0.079,0.16,0.125,0.325,0.14,0.496
		c0.016,0.123,0.022,0.301,0.022,0.535H5.747C5.732,6.015,5.892,6.25,6.226,6.239z M7.898,5.899h0.785
		c0.022,0.216,0.175,0.329,0.457,0.34c0.253-0.008,0.383-0.113,0.391-0.318C9.527,5.766,9.34,5.65,8.968,5.576
		C8.243,5.449,7.898,5.148,7.932,4.673c0.036-0.505,0.44-0.786,1.209-0.842c0.71,0.008,1.083,0.284,1.12,0.83H9.509
		C9.49,4.491,9.367,4.399,9.141,4.389c-0.233-0.004-0.348,0.08-0.34,0.251c0,0.111,0.18,0.216,0.541,0.312
		c0.587,0.053,0.941,0.362,1.064,0.931c-0.049,0.528-0.47,0.825-1.266,0.893C8.334,6.76,7.92,6.468,7.898,5.899z"/>
</g>
</svg>
