<?xml version="1.0" encoding="utf-8"?>
<!-- Generator: Adobe Illustrator 16.0.0, SVG Export Plug-In . SVG Version: 6.00 Build 0)  -->
<!DOCTYPE svg PUBLIC "-//W3C//DTD SVG 1.1//EN" "http://www.w3.org/Graphics/SVG/1.1/DTD/svg11.dtd">
<svg version="1.1" id="图层_1" xmlns="http://www.w3.org/2000/svg" xmlns:xlink="http://www.w3.org/1999/xlink" x="0px" y="0px"
	 width="16px" height="16px" viewBox="0 0 16 16" enable-background="new 0 0 16 16" xml:space="preserve">
<g>
	<path fill="#FFFFFF" d="M4.796,6.334c-0.941,0-1.708,0.771-1.708,1.709c0,0.946,0.767,1.708,1.708,1.708
		c0.942,0,1.709-0.762,1.709-1.708C6.505,7.105,5.738,6.334,4.796,6.334z"/>
	<path fill="#FFFFFF" d="M13.001,6.856c0.229,0,0.447,0.03,0.664,0.067v-2.51c0-0.629-0.508-1.134-1.133-1.134h-0.677
		c0-0.631-0.51-1.136-1.142-1.136h-1.14c-0.631,0-1.135,0.505-1.135,1.136H1.136c-0.624,0-1.137,0.505-1.137,1.134v6.836
		c0,0.636,0.513,1.146,1.137,1.146h8.175c-0.192-0.474-0.31-0.992-0.31-1.537C9.001,8.65,10.796,6.856,13.001,6.856z M4.802,10.896
		c-1.574,0-2.853-1.28-2.853-2.854c0-1.573,1.278-2.847,2.853-2.847c1.57,0,2.845,1.274,2.845,2.847
		C7.647,9.616,6.372,10.896,4.802,10.896z"/>
	<path fill="#FFFFFF" d="M13.001,7.856c-1.655,0-3,1.343-3,3c0,1.658,1.345,3,3,3c1.658,0,3-1.342,3-3
		C16.001,9.199,14.659,7.856,13.001,7.856z M13.573,12.818h-1.175l-0.86-3.924h0.987l0.467,3.024h0.012l0.471-3.024h0.991
		L13.573,12.818z"/>
</g>
</svg>
