<?xml version="1.0" encoding="utf-8"?>
<!-- Generator: Adobe Illustrator 16.0.0, SVG Export Plug-In . SVG Version: 6.00 Build 0)  -->
<!DOCTYPE svg PUBLIC "-//W3C//DTD SVG 1.1//EN" "http://www.w3.org/Graphics/SVG/1.1/DTD/svg11.dtd">
<svg version="1.1" id="图层_1" xmlns="http://www.w3.org/2000/svg" xmlns:xlink="http://www.w3.org/1999/xlink" x="0px" y="0px"
	 width="16px" height="16px" viewBox="0 0 16 16" enable-background="new 0 0 16 16" xml:space="preserve">
<g>
	<path fill="#FFFFFF" d="M12.229,7.978c-2.08,0-3.771,1.693-3.771,3.772s1.69,3.771,3.771,3.771c2.082,0,3.771-1.692,3.771-3.771
		S14.309,7.978,12.229,7.978z M12.229,8.607c0.291,0,0.666,0.558,0.891,1.494c-0.299-0.031-0.596-0.054-0.891-0.054
		s-0.594,0.021-0.887,0.054C11.561,9.165,11.938,8.607,12.229,8.607z M9.085,11.75c0-0.293,0.558-0.667,1.494-0.886
		c-0.03,0.293-0.048,0.591-0.048,0.886s0.018,0.596,0.048,0.886C9.643,12.417,9.085,12.043,9.085,11.75z M9.289,12.838
		c0.382,0.207,0.861,0.362,1.388,0.464c0.104,0.524,0.259,1.007,0.464,1.386C10.283,14.37,9.607,13.693,9.289,12.838z
		 M10.677,10.199c-0.526,0.101-1.006,0.256-1.388,0.462c0.318-0.854,0.994-1.528,1.852-1.849
		C10.936,9.191,10.779,9.673,10.677,10.199z M12.229,14.895c-0.291,0-0.668-0.56-0.887-1.496c0.293,0.031,0.592,0.054,0.887,0.054
		s0.592-0.021,0.891-0.054C12.895,14.335,12.52,14.895,12.229,14.895z M13.229,12.751c-0.31,0.039-0.64,0.067-1,0.067
		c-0.356,0-0.688-0.028-1.002-0.067c-0.037-0.31-0.062-0.64-0.062-1.001s0.024-0.691,0.062-1.001
		c0.312-0.039,0.646-0.067,1.002-0.067c0.36,0,0.69,0.028,1,0.067c0.039,0.31,0.066,0.64,0.066,1.001S13.268,12.441,13.229,12.751z
		 M13.314,14.688c0.207-0.379,0.355-0.855,0.463-1.386c0.527-0.102,1.007-0.257,1.389-0.464
		C14.848,13.693,14.172,14.37,13.314,14.688z M15.37,11.75c0,0.293-0.558,0.667-1.493,0.886c0.029-0.29,0.047-0.591,0.047-0.886
		s-0.018-0.593-0.047-0.886C14.812,11.083,15.37,11.457,15.37,11.75z M13.777,10.199c-0.104-0.526-0.256-1.008-0.463-1.387
		c0.854,0.314,1.533,0.992,1.852,1.849C14.784,10.455,14.305,10.3,13.777,10.199z"/>
	<g>
		<path fill="#FFFFFF" d="M7.772,12.16V8.949V8.007V6.815V6.179h1.353c0.553-0.029,0.998-0.447,0.998-1.024v-3.61
			c0-0.587-0.475-1.066-1.053-1.066H5.531c-0.581,0-1.053,0.479-1.053,1.066v3.609c0,0.518,0.364,0.925,0.842,1.024h1.509v1.828
			H4.014V7.21c0-0.418-0.337-0.759-0.748-0.759H0.748C0.335,6.451,0,6.792,0,7.21v2.565c0,0.369,0.259,0.658,0.598,0.729h0.938
			v1.655H0.963c-0.343,0-0.621,0.282-0.621,0.63v2.128c0,0.308,0.216,0.545,0.496,0.604h2.245c0.325-0.021,0.588-0.268,0.588-0.604
			V12.79c0-0.347-0.279-0.63-0.62-0.63H2.479v-1.655h0.825c0.394-0.021,0.71-0.317,0.71-0.729V8.949h2.815v3.211H6.257
			c-0.343,0-0.62,0.283-0.62,0.63v2.128c0,0.307,0.215,0.545,0.495,0.604h1.641L7.772,12.16L7.772,12.16z"/>
	</g>
</g>
</svg>
