<?xml version="1.0" encoding="utf-8"?>
<!-- Generator: Adobe Illustrator 16.0.0, SVG Export Plug-In . SVG Version: 6.00 Build 0)  -->
<!DOCTYPE svg PUBLIC "-//W3C//DTD SVG 1.1//EN" "http://www.w3.org/Graphics/SVG/1.1/DTD/svg11.dtd">
<svg version="1.1" id="图层_1" xmlns="http://www.w3.org/2000/svg" xmlns:xlink="http://www.w3.org/1999/xlink" x="0px" y="0px"
	 width="16px" height="16px" viewBox="0 0 16 16" enable-background="new 0 0 16 16" xml:space="preserve">
<path fill="#FFFFFF" d="M12.332,8.027c-0.059-0.023-0.186-0.035-0.385-0.035h-0.352v0.67h0.397c0.151,0,0.256-0.004,0.299-0.016
	c0.062-0.019,0.117-0.049,0.158-0.104c0.039-0.053,0.062-0.124,0.062-0.213c0-0.075-0.019-0.139-0.05-0.191
	C12.438,8.09,12.391,8.051,12.332,8.027z M12.197,7.566c0.074-0.01,0.133-0.04,0.176-0.089s0.062-0.114,0.062-0.196
	c0-0.078-0.021-0.141-0.06-0.189c-0.037-0.048-0.09-0.077-0.164-0.087c-0.043-0.006-0.166-0.009-0.366-0.009h-0.25v0.578h0.28
	C12.051,7.574,12.156,7.572,12.197,7.566z M3.529,4.889v5.921h5.917v1.062h3.859v-1.062H16V4.889H3.529z M5.618,7.003H4.577v0.594
	h0.899v0.424H4.577v1.064H4.141V6.579h1.477V7.003z M7.455,8.928C7.303,9.061,7.113,9.127,6.881,9.127
	c-0.286,0-0.521-0.113-0.705-0.34C5.993,8.559,5.9,8.248,5.9,7.854c0-0.417,0.093-0.739,0.277-0.972
	c0.188-0.23,0.429-0.346,0.73-0.346c0.265,0,0.478,0.091,0.643,0.271c0.097,0.108,0.171,0.26,0.221,0.461L7.34,7.389
	c-0.026-0.13-0.079-0.232-0.16-0.307C7.1,7.006,7.001,6.97,6.886,6.97c-0.16,0-0.29,0.066-0.389,0.198
	c-0.1,0.135-0.149,0.35-0.149,0.647c0,0.317,0.049,0.543,0.146,0.677C6.593,8.627,6.72,8.693,6.876,8.693
	c0.116,0,0.216-0.043,0.299-0.127c0.084-0.087,0.143-0.219,0.18-0.403l0.422,0.155C7.711,8.593,7.604,8.795,7.455,8.928z
	 M10.6,11.372h-0.593v-1.244H10.6V11.372z M10.709,9.085h-0.436V7.988H9.423v1.097H8.988V6.579h0.436v0.985h0.85V6.579h0.438
	L10.709,9.085L10.709,9.085z M11.686,11.372h-0.593v-1.244h0.593V11.372z M12.771,11.372H12.18v-1.244h0.592V11.372L12.771,11.372z
	 M12.896,8.689c-0.045,0.104-0.107,0.189-0.188,0.259c-0.08,0.062-0.176,0.104-0.291,0.118c-0.071,0.01-0.248,0.016-0.522,0.019
	H11.16V6.579h0.861c0.172,0,0.299,0.008,0.383,0.024c0.082,0.018,0.156,0.051,0.225,0.103c0.066,0.053,0.121,0.122,0.164,0.211
	c0.045,0.086,0.066,0.185,0.066,0.293c0,0.116-0.027,0.225-0.082,0.322c-0.053,0.099-0.127,0.171-0.221,0.221
	c0.131,0.044,0.229,0.12,0.303,0.228c0.07,0.106,0.104,0.231,0.104,0.377C12.967,8.473,12.941,8.583,12.896,8.689z M14.803,9.085
	l-0.188-0.569h-0.861l-0.178,0.569h-0.461l0.84-2.506h0.459l0.861,2.506H14.803z M0,3.751h2.831v9.206h0.461V3.043L0,3.046V3.751z
	 M13.887,8.093h0.588l-0.297-0.93L13.887,8.093z"/>
</svg>
