<?xml version="1.0" encoding="utf-8"?>
<!-- Generator: Adobe Illustrator 16.0.0, SVG Export Plug-In . SVG Version: 6.00 Build 0)  -->
<!DOCTYPE svg PUBLIC "-//W3C//DTD SVG 1.1//EN" "http://www.w3.org/Graphics/SVG/1.1/DTD/svg11.dtd">
<svg version="1.1" id="图层_1" xmlns="http://www.w3.org/2000/svg" xmlns:xlink="http://www.w3.org/1999/xlink" x="0px" y="0px"
	 width="16px" height="16px" viewBox="0 0 16 16" enable-background="new 0 0 16 16" xml:space="preserve">
<g>
	<path fill="#FFFFFF" d="M5.742,5.811C2.57,5.811,0,4.668,0,3.255c0,0.59,0,0.983,0,1.955c0,1.412,2.57,2.556,5.742,2.556
		s5.742-1.144,5.742-2.556c0-0.519,0-1.06,0-1.955C11.484,4.668,8.914,5.811,5.742,5.811z"/>
	<g>
		<path fill="#FFFFFF" d="M11.484,7.722c0-0.478,0-0.997,0-1.811c0,0.708-0.646,1.348-1.69,1.811H11.484z"/>
		<path fill="#FFFFFF" d="M9.404,7.879C8.41,8.247,7.135,8.466,5.742,8.466C2.57,8.466,0,7.323,0,5.911c0,0.59,0,0.983,0,1.954
			c0,1.413,2.57,2.557,5.742,2.557c1.393,0,2.668-0.221,3.662-0.588V7.879z"/>
	</g>
	<path fill="#FFFFFF" d="M9.404,10.535c-0.994,0.367-2.27,0.588-3.662,0.588C2.57,11.123,0,9.979,0,8.566c0,0.59,0,0.985,0,1.956
		c0,1.412,2.57,2.555,5.742,2.555c1.393,0,2.668-0.221,3.662-0.588V10.535z"/>
	<path fill="#FFFFFF" d="M16,8.54h-5.778v4.537H16V8.54z M15.111,8.984h0.445V9.43h-0.445V8.984z M14.224,8.984h0.443V9.43h-0.443
		V8.984z M13.333,8.984h0.446V9.43h-0.446V8.984z M10.668,12.631V9.873h4.889v2.758H10.668z"/>
	<path fill="#FFFFFF" d="M5.742-0.001C2.57-0.001,0,1.143,0,2.555S2.57,5.11,5.742,5.11s5.742-1.144,5.742-2.556
		S8.914-0.001,5.742-0.001z M6.463,4.394H4.985L3.903,0.716h1.241l0.588,2.842h0.013l0.593-2.842h1.243L6.463,4.394z"/>
</g>
</svg>
