<?xml version="1.0" encoding="utf-8"?>
<!-- Generator: Adobe Illustrator 16.0.0, SVG Export Plug-In . SVG Version: 6.00 Build 0)  -->
<!DOCTYPE svg PUBLIC "-//W3C//DTD SVG 1.1//EN" "http://www.w3.org/Graphics/SVG/1.1/DTD/svg11.dtd">
<svg version="1.1" id="图层_1" xmlns="http://www.w3.org/2000/svg" xmlns:xlink="http://www.w3.org/1999/xlink" x="0px" y="0px"
	 width="16px" height="16px" viewBox="0 0 16 16" enable-background="new 0 0 16 16" xml:space="preserve">
<g>
	<path fill="#FFFFFF" d="M8.957,10.234C8.338,9.615,8.094,8.699,8.322,7.843c0.092-0.346,0.362-0.615,0.708-0.708
		C9.117,7.113,9.204,7.101,9.29,7.101c0.019,0,0.03,0,0.048,0.001C9.331,6.999,9.342,6.894,9.37,6.791
		c0.094-0.346,0.364-0.615,0.711-0.705c0.208-0.055,0.423-0.083,0.64-0.083c0.66,0,1.281,0.257,1.748,0.722
		c0.332,0.333,0.555,0.74,0.658,1.172l0.158-0.157V4.668c0-0.848-0.686-1.533-1.533-1.533H11.58V2.853
		c0-0.313-0.256-0.567-0.569-0.567H9.875c-0.312,0-0.566,0.254-0.566,0.567v0.282H1.532C0.686,3.135,0,3.82,0,4.668v5.109
		c0,0.847,0.686,1.533,1.532,1.533H8.84l0.77-0.605C9.371,10.587,9.15,10.43,8.957,10.234z M4.599,10.316
		c-1.71,0-3.096-1.385-3.096-3.095s1.386-3.097,3.096-3.097c1.709,0,3.096,1.387,3.096,3.097C7.694,8.934,6.308,10.316,4.599,10.316
		z"/>
	<path fill="#FFFFFF" d="M13.309,10.182l1.904-1.906h0.262L16,7.227l-0.264-0.262l-1.049,0.523v0.261l-1.976,1.972l-0.694-0.545
		c0.297-0.561,0.217-1.27-0.261-1.742c-0.389-0.388-0.933-0.511-1.429-0.381l0.896,0.906v1.046H10.18L9.288,8.102
		C9.156,8.596,9.279,9.143,9.665,9.529c0.474,0.474,1.185,0.555,1.744,0.253l0.378,0.479L9.425,12.12
		c-0.43,0.442-0.159,0.927,0.023,1.138l0.235,0.236c0.198,0.178,0.621,0.26,1.137,0.062l1.77-2.273l1.735,2.201
		c0.444,0.428,0.927,0.162,1.136-0.022l0.238-0.235c0.178-0.203,0.447-0.623,0.061-1.138L13.309,10.182z M15.143,12.91
		c-0.121,0.119-0.312,0.119-0.438,0c-0.121-0.122-0.121-0.319,0-0.438c0.12-0.121,0.316-0.121,0.438,0
		C15.261,12.591,15.261,12.788,15.143,12.91z"/>
	<path fill="#FFFFFF" d="M4.599,5.146c-1.076,0-1.948,0.873-1.948,1.949c0,1.074,0.872,1.947,1.948,1.947
		c1.076,0,1.948-0.872,1.948-1.946C6.547,6.02,5.675,5.146,4.599,5.146z M4.973,8.373H4.207L3.646,5.816H4.29l0.305,1.978h0.006
		L4.91,5.816h0.643L4.973,8.373z"/>
</g>
</svg>
