<?xml version="1.0" encoding="utf-8"?>
<!-- Generator: Adobe Illustrator 16.0.0, SVG Export Plug-In . SVG Version: 6.00 Build 0)  -->
<!DOCTYPE svg PUBLIC "-//W3C//DTD SVG 1.1//EN" "http://www.w3.org/Graphics/SVG/1.1/DTD/svg11.dtd">
<svg version="1.1" id="图层_1" xmlns="http://www.w3.org/2000/svg" xmlns:xlink="http://www.w3.org/1999/xlink" x="0px" y="0px"
	 width="16px" height="16px" viewBox="0 0 16 16" enable-background="new 0 0 16 16" xml:space="preserve">
<g>
	<path fill="#FFFFFF" d="M7.726,10.984h-0.73v1h0.73V10.984z M9.995,9.062V9.047h-3v1h0.841c0.226-0.574,0.78-0.982,1.43-0.982
		h0.729V9.062z M6.995,8h3V7h-3V8z M6.995,12.922v0.38h0.464l0.343-0.351c-0.003-0.01-0.002-0.021-0.004-0.029H6.995z M1.995,4h8V3
		h-2V0h-4v3h-2V4z M5.495,1h1v1h-1V1z M9.995,5h-3v1h3V5z M8.995,1v1h2v7.062h0.093c0.34,0,0.652,0.11,0.907,0.304V1H8.995z
		 M5.285,15h-4.29V2h2V1h-3v15H5.35c-0.028-0.105-0.065-0.208-0.065-0.323V15z M1.995,14h3.46c0.124-0.23,0.309-0.416,0.54-0.537V5
		h-4V14z"/>
	<path fill="#FFFFFF" d="M14.834,11.171c-0.646,0-1.17,0.535-1.17,1.19c0,0.267,0.102,0.496,0.244,0.688l-0.867,0.891
		c-0.031-0.018-0.059-0.041-0.096-0.041H11.93L11.07,13.02h0.019c0.297,0,0.542-0.246,0.542-0.553v-1.854
		c0-0.303-0.245-0.551-0.542-0.551H9.266c-0.298,0-0.539,0.248-0.539,0.551v1.854c0,0.27,0.188,0.477,0.438,0.527l-1.35,1.38
		c-0.05-0.038-0.105-0.073-0.175-0.073h-1.05c-0.169,0-0.301,0.139-0.301,0.309v1.066c0,0.17,0.132,0.307,0.301,0.307h1.048
		c0.168,0,0.303-0.137,0.303-0.307v-0.963c0.02-0.01,0.041-0.01,0.057-0.027l1.64-1.666h0.944l1.062,1.08
		c-0.021,0.039-0.05,0.064-0.05,0.105v1.062c0,0.172,0.14,0.311,0.306,0.311h1.053c0.166,0,0.304-0.139,0.304-0.311V14.23
		l0.902-0.924c0.192,0.146,0.42,0.25,0.682,0.25c0.647,0,1.171-0.535,1.171-1.195C16.005,11.706,15.482,11.171,14.834,11.171z"/>
</g>
</svg>
