<?xml version="1.0" encoding="utf-8"?>
<!-- Generator: Adobe Illustrator 16.0.0, SVG Export Plug-In . SVG Version: 6.00 Build 0)  -->
<!DOCTYPE svg PUBLIC "-//W3C//DTD SVG 1.1//EN" "http://www.w3.org/Graphics/SVG/1.1/DTD/svg11.dtd">
<svg version="1.1" id="图层_1" xmlns="http://www.w3.org/2000/svg" xmlns:xlink="http://www.w3.org/1999/xlink" x="0px" y="0px"
	 width="16px" height="16px" viewBox="0 0 16 16" enable-background="new 0 0 16 16" xml:space="preserve">
<g>
	<path fill="#FFFFFF" d="M11.48,8.902l0.095-0.021c-0.034-0.014-0.065-0.031-0.103-0.044C11.475,8.859,11.48,8.882,11.48,8.902z"/>
	<path fill="#FFFFFF" d="M7.024,8.117c0.173,0.337,0.279,0.716,0.279,1.121c0,0.93-0.516,1.732-1.272,2.156
		c0.457-0.377,0.777-0.906,0.874-1.521c0.023-0.129,0.041-0.26,0.041-0.396c0-0.271-0.055-0.528-0.137-0.773
		C6.804,8.688,6.798,8.664,6.79,8.645C6.789,8.643,6.789,8.643,6.789,8.643c-0.021-0.062-0.041-0.121-0.067-0.18V8.462
		C6.68,8.366,6.627,8.273,6.572,8.185C6.484,8.044,6.373,7.919,6.26,7.797C6.188,7.72,6.111,7.652,6.029,7.585
		C5.811,7.402,5.564,7.261,5.292,7.162C5.029,7.066,4.756,6.998,4.459,6.998c-0.015,0-0.028,0.006-0.044,0.006
		C4.164,7.009,3.927,7.057,3.7,7.131c-0.402,0.13-0.758,0.358-1.04,0.66C2.546,7.914,2.434,8.04,2.346,8.183
		c1.13,0.052,2.029,0.977,2.029,2.12c0,0.245-0.051,0.477-0.127,0.696c0.004-0.046,0.014-0.088,0.014-0.134
		c0-0.354-0.094-0.68-0.244-0.973C4.006,9.872,3.994,9.85,3.982,9.829C3.618,9.18,2.93,8.732,2.131,8.732
		C0.955,8.732,0,9.688,0,10.865c0,1.154,0.922,2.092,2.068,2.124v0.006h5.009v-0.009c1.308-0.049,2.353-1.113,2.353-2.432
		C9.43,9.221,8.357,8.137,7.024,8.117z"/>
	<path fill="#FFFFFF" d="M6.977,3.146C5.191,3.552,3.811,4.768,3.108,6.313C3.204,6.272,3.291,6.212,3.39,6.18
		c0.287-0.094,0.563-0.145,0.843-0.164c0.658-0.996,1.675-1.754,2.932-2.04c1.292-0.293,2.575-0.034,3.612,0.618
		c0.768,0.483,1.393,1.182,1.787,2.031c0.022,0,0.053-0.01,0.08-0.01c0.312,0,0.612,0.062,0.896,0.165
		C12.609,4.108,9.802,2.505,6.977,3.146z M7.244,4.735c-0.89,0.202-1.629,0.688-2.187,1.326C5.243,6.098,5.434,6.15,5.635,6.224
		c0.104,0.038,0.201,0.092,0.301,0.139c0.411-0.377,0.912-0.665,1.497-0.798c0.894-0.202,1.781-0.026,2.5,0.43
		c0.459,0.289,0.834,0.697,1.104,1.182c0.229-0.172,0.47-0.307,0.734-0.399C10.902,5.205,9.088,4.318,7.244,4.735z M7.619,6.36
		C7.261,6.442,6.943,6.604,6.674,6.821c0.108,0.09,0.217,0.187,0.318,0.296l0.047,0.001C7.177,7.12,7.308,7.146,7.44,7.165
		c0.108-0.05,0.209-0.113,0.33-0.141c0.511-0.117,1.02-0.003,1.434,0.272C9.494,7.492,9.73,7.77,9.893,8.102
		c0.149-0.084,0.311-0.159,0.478-0.21c0.021-0.04,0.062-0.069,0.088-0.108C9.923,6.718,8.771,6.099,7.619,6.36z"/>
	<path fill="#FFFFFF" d="M16,10.016c0-0.896-0.727-1.634-1.624-1.646c0.115,0.229,0.188,0.483,0.188,0.758
		c0,0.629-0.354,1.169-0.858,1.458c0.31-0.255,0.524-0.611,0.59-1.025c0.017-0.086,0.027-0.175,0.027-0.267
		c0-0.185-0.037-0.356-0.093-0.522c-0.006-0.016-0.008-0.026-0.018-0.043c0-0.002,0-0.002,0-0.002
		c-0.016-0.039-0.023-0.08-0.045-0.119V8.604c-0.025-0.062-0.062-0.125-0.104-0.188c-0.295-0.479-0.818-0.802-1.424-0.802
		c-0.604,0-1.136,0.32-1.43,0.8c0.764,0.036,1.369,0.66,1.369,1.434c0,0.163-0.031,0.318-0.086,0.467
		c0.002-0.026,0.012-0.06,0.012-0.09c0-0.231-0.062-0.457-0.166-0.656c-0.007-0.014-0.017-0.024-0.021-0.043
		C12.074,9.088,11.607,8.79,11.07,8.79c-0.797,0-1.438,0.646-1.438,1.438c0,0.777,0.622,1.412,1.396,1.437v0.004h3.383V11.66
		C15.293,11.624,16,10.904,16,10.016z"/>
</g>
</svg>
