<?xml version="1.0" encoding="utf-8"?>
<!-- Generator: Adobe Illustrator 16.0.0, SVG Export Plug-In . SVG Version: 6.00 Build 0)  -->
<!DOCTYPE svg PUBLIC "-//W3C//DTD SVG 1.1//EN" "http://www.w3.org/Graphics/SVG/1.1/DTD/svg11.dtd">
<svg version="1.1" id="图层_1" xmlns="http://www.w3.org/2000/svg" xmlns:xlink="http://www.w3.org/1999/xlink" x="0px" y="0px"
	 width="16px" height="16px" viewBox="0 0 16 16" enable-background="new 0 0 16 16" xml:space="preserve">
<g>
	<path fill="#FFFFFF" d="M11.598,8.367c-2.104,0-3.813,1.709-3.813,3.816c0,2.104,1.71,3.813,3.813,3.813
		c2.108,0,3.817-1.709,3.817-3.813C15.415,10.077,13.706,8.367,11.598,8.367z M10.882,14.568l-1.58-2.061l0.701-0.729l0.879,1.117
		l2.759-2.25l0.344,0.343L10.882,14.568z"/>
	<path fill="#FFFFFF" d="M6.298,4.572h4.572V3.43H6.298V4.572z M2.87,6.857h8V5.715h-8V6.857z M2.87,12.572v1.143h3.984
		c-0.119-0.365-0.193-0.746-0.225-1.143H2.87z M4.013,0L0.724,3.43H0.585V16h7.807c-0.393-0.33-0.738-0.709-1.014-1.143h-5.65V4.572
		h3.428v-3.43h6.857v6.076c0.396,0.033,0.773,0.109,1.143,0.23V0H4.013z M2.87,10.285v1.143h3.797
		c0.061-0.396,0.152-0.781,0.301-1.143H2.87z M8.855,8H2.87v1.143h4.775C7.987,8.701,8.388,8.309,8.855,8z"/>
</g>
</svg>
