<?xml version="1.0" encoding="utf-8"?>
<!-- Generator: Adobe Illustrator 16.0.0, SVG Export Plug-In . SVG Version: 6.00 Build 0)  -->
<!DOCTYPE svg PUBLIC "-//W3C//DTD SVG 1.1//EN" "http://www.w3.org/Graphics/SVG/1.1/DTD/svg11.dtd">
<svg version="1.1" id="图层_1" xmlns="http://www.w3.org/2000/svg" xmlns:xlink="http://www.w3.org/1999/xlink" x="0px" y="0px"
	 width="16px" height="16px" viewBox="0 0 16 16" enable-background="new 0 0 16 16" xml:space="preserve">
<g>
	<path fill="#FFFFFF" d="M7.638,12.941c0-1.849,1.25-3.395,2.943-3.881V0H1.248v16h7.809C8.195,15.255,7.638,14.168,7.638,12.941z
		 M2.581,1.333h6.667v1.601H2.581V1.333z M2.581,4.267h6.667v1.6H2.581V4.267z M2.581,7.2h6.667v1.6H2.581V7.2z M6.451,14.15H5.452
		L4.72,10.816h0.84l0.397,2.576h0.009l0.401-2.576h0.841L6.451,14.15z"/>
	<path fill="#86CC16" d="M11.693,9.886c-1.688,0-3.057,1.367-3.057,3.058c0,1.688,1.369,3.058,3.057,3.058
		c1.688,0,3.059-1.369,3.059-3.058C14.752,11.253,13.383,9.886,11.693,9.886z M10.918,14.613l0.036-3.342l2.101,1.69L10.918,14.613z
		"/>
</g>
</svg>
