<?xml version="1.0" encoding="utf-8"?>
<!-- Generator: Adobe Illustrator 16.0.0, SVG Export Plug-In . SVG Version: 6.00 Build 0)  -->
<!DOCTYPE svg PUBLIC "-//W3C//DTD SVG 1.1//EN" "http://www.w3.org/Graphics/SVG/1.1/DTD/svg11.dtd">
<svg version="1.1" id="图层_1" xmlns="http://www.w3.org/2000/svg" xmlns:xlink="http://www.w3.org/1999/xlink" x="0px" y="0px"
	 width="16px" height="16px" viewBox="0 0 16 16" enable-background="new 0 0 16 16" xml:space="preserve">
<g>
	<path fill="#FFFFFF" d="M9.07,13.691C8.715,14.316,8.332,14.668,8,14.668c-0.617,0-1.414-1.184-1.879-3.171
		C6.742,11.561,7.375,11.598,8,11.598c0.43,0,0.859-0.037,1.289-0.068c0.406-1.021,1.219-1.834,2.24-2.235
		C11.561,8.859,11.6,8.43,11.6,8c0-0.626-0.037-1.26-0.102-1.878C13.484,6.584,14.666,7.38,14.666,8c0,0.333-0.35,0.715-0.971,1.07
		c0.771,0.137,1.468,0.496,2.021,1.011C15.896,9.416,16,8.721,16,8c0-4.41-3.588-8-8-8S0,3.59,0,8s3.588,8,8,8
		c0.721,0,1.416-0.104,2.082-0.284C9.566,15.163,9.207,14.468,9.07,13.691z M14.23,5.691c-0.812-0.437-1.824-0.765-2.941-0.978
		c-0.217-1.119-0.545-2.139-0.982-2.945C12.123,2.442,13.557,3.877,14.23,5.691z M8,1.332c0.618,0,1.414,1.184,1.881,3.171
		C9.258,4.438,8.627,4.403,8,4.403c-0.625,0-1.258,0.035-1.879,0.1C6.586,2.516,7.383,1.332,8,1.332z M1.334,8
		c0-0.62,1.182-1.416,3.172-1.878C4.439,6.74,4.402,7.374,4.402,8s0.037,1.26,0.104,1.878C2.516,9.416,1.334,8.62,1.334,8z
		 M1.771,10.309c0.805,0.438,1.823,0.771,2.941,0.979c0.217,1.119,0.545,2.139,0.98,2.944C3.877,13.559,2.445,12.123,1.771,10.309z
		 M4.713,4.714C3.595,4.927,2.576,5.255,1.771,5.691c0.674-1.814,2.105-3.249,3.922-3.923C5.258,2.575,4.929,3.595,4.713,4.714z
		 M5.736,8c0-0.768,0.061-1.466,0.145-2.122C6.537,5.796,7.232,5.735,8,5.735c0.768,0,1.465,0.061,2.123,0.143
		C10.205,6.534,10.266,7.232,10.266,8c0,0.768-0.061,1.466-0.143,2.122C9.465,10.204,8.768,10.266,8,10.266
		c-0.768,0-1.463-0.062-2.119-0.144C5.797,9.466,5.736,8.768,5.736,8z"/>
	<path fill="#FFFFFF" d="M13,10c-1.656,0-3,1.343-3,3c0,1.656,1.344,3,3,3c1.658,0,3-1.344,3-3C16,11.343,14.658,10,13,10z
		 M14.662,13.494h-1.155v1.129h-1.012v-1.129h-1.156v-0.988h1.156v-1.129h1.012v1.129h1.155V13.494z"/>
</g>
</svg>
