<?xml version="1.0" encoding="utf-8"?>
<!-- Generator: Adobe Illustrator 16.0.0, SVG Export Plug-In . SVG Version: 6.00 Build 0)  -->
<!DOCTYPE svg PUBLIC "-//W3C//DTD SVG 1.1//EN" "http://www.w3.org/Graphics/SVG/1.1/DTD/svg11.dtd">
<svg version="1.1" id="图层_1" xmlns="http://www.w3.org/2000/svg" xmlns:xlink="http://www.w3.org/1999/xlink" x="0px" y="0px"
	 width="16px" height="16px" viewBox="0 0 16 16" enable-background="new 0 0 16 16" xml:space="preserve">
<g>
	<g>
		<path fill="#FFFFFF" d="M15.973,10.003H8.334V16h7.639V10.003z M14.798,10.591h0.587v0.589h-0.587V10.591z M13.623,10.591h0.587
			v0.589h-0.587V10.591z M12.447,10.591h0.588v0.589h-0.588V10.591z M8.922,15.412v-3.646h6.463v3.646H8.922z"/>
		<path fill="#FFFFFF" d="M7.334,9.003h2.025V0H0.027v16h7.307V9.003z M1.36,1.333h6.667v1.601H1.36V1.333z M1.36,4.267h6.667v1.6
			H1.36V4.267z M1.36,7.2h6.667v1.6H1.36V7.2z M4.231,14.15l-0.732-3.334h0.84l0.397,2.576h0.009l0.401-2.576h0.841L5.23,14.15
			H4.231z"/>
		<g>
			<path fill="#FFFFFF" d="M9.547,13.684c0-0.209,0.028-0.384,0.087-0.521c0.043-0.104,0.103-0.198,0.177-0.281
				s0.156-0.146,0.246-0.188c0.117-0.053,0.254-0.08,0.408-0.08c0.279,0,0.504,0.097,0.672,0.281
				c0.168,0.188,0.252,0.446,0.252,0.78c0,0.331-0.084,0.593-0.25,0.777c-0.166,0.188-0.39,0.28-0.668,0.28
				c-0.283,0-0.508-0.094-0.674-0.278C9.63,14.268,9.547,14.011,9.547,13.684z M9.941,13.67c0,0.232,0.05,0.408,0.146,0.528
				c0.103,0.12,0.228,0.18,0.378,0.18c0.152,0,0.278-0.06,0.376-0.179c0.103-0.118,0.147-0.297,0.147-0.535
				c0-0.234-0.051-0.41-0.146-0.525c-0.097-0.115-0.223-0.175-0.381-0.175s-0.285,0.06-0.382,0.177
				C9.988,13.257,9.941,13.434,9.941,13.67z"/>
			<path fill="#FFFFFF" d="M12.172,14.697l-0.679-2.053h0.416l0.479,1.52l0.465-1.52h0.402l-0.68,2.053H12.172z"/>
			<path fill="#FFFFFF" d="M13.459,14.697v-2.053h1.302v0.348h-0.918v0.486h0.792v0.347h-0.792v0.872H13.459z"/>
		</g>
	</g>
	<path fill="#FFFFFF" d="M14.464,6.7h-0.211c-0.094,0-0.192-0.074-0.22-0.164l-0.117-0.288c-0.046-0.084-0.027-0.204,0.039-0.272
		L14.1,5.828c0.066-0.063,0.066-0.173,0-0.243l-0.242-0.241c-0.062-0.065-0.174-0.064-0.236,0L13.473,5.49
		c-0.062,0.068-0.188,0.086-0.271,0.04l-0.287-0.116c-0.086-0.029-0.161-0.13-0.162-0.225V4.984c0-0.095-0.077-0.175-0.173-0.175
		h-0.34c-0.098,0-0.174,0.081-0.174,0.175v0.207c0,0.093-0.072,0.196-0.162,0.224L11.62,5.532c-0.082,0.046-0.206,0.028-0.271-0.041
		l-0.146-0.146c-0.066-0.064-0.178-0.063-0.242,0l-0.238,0.243c-0.063,0.069-0.063,0.181,0,0.244l0.146,0.146
		c0.064,0.068,0.085,0.189,0.042,0.272l-0.116,0.287C10.77,6.63,10.667,6.703,10.57,6.703h-0.203c-0.096,0-0.172,0.079-0.172,0.172
		V7.22c0,0.096,0.076,0.174,0.173,0.174h0.206c0.094,0,0.191,0.073,0.221,0.166l0.118,0.287c0.044,0.08,0.024,0.205-0.04,0.273
		l-0.146,0.145c-0.064,0.068-0.064,0.178,0,0.246l0.239,0.242c0.066,0.067,0.179,0.065,0.241-0.001l0.146-0.145
		c0.062-0.069,0.188-0.088,0.271-0.041l0.285,0.117c0.088,0.024,0.163,0.127,0.163,0.225v0.205c0.001,0.096,0.074,0.172,0.173,0.171
		l0.34-0.001c0.099,0,0.173-0.077,0.173-0.172L12.756,8.91c-0.001-0.098,0.075-0.196,0.162-0.227l0.286-0.115
		c0.082-0.049,0.205-0.03,0.272,0.037l0.145,0.146c0.066,0.065,0.174,0.065,0.242-0.001l0.238-0.242
		c0.063-0.068,0.063-0.179,0-0.246l-0.146-0.144c-0.064-0.068-0.085-0.193-0.04-0.273l0.116-0.289
		c0.023-0.091,0.128-0.164,0.221-0.164l0.21-0.002c0.097,0,0.17-0.079,0.17-0.171l-0.001-0.347C14.635,6.779,14.559,6.7,14.464,6.7
		 M13.266,7.046c0,0.476-0.383,0.863-0.854,0.863c-0.473,0.001-0.854-0.384-0.854-0.861S11.939,6.19,12.41,6.19
		C12.881,6.188,13.266,6.57,13.266,7.046"/>
</g>
</svg>
