<?xml version="1.0" encoding="utf-8"?>
<!-- Generator: Adobe Illustrator 16.0.0, SVG Export Plug-In . SVG Version: 6.00 Build 0)  -->
<!DOCTYPE svg PUBLIC "-//W3C//DTD SVG 1.1//EN" "http://www.w3.org/Graphics/SVG/1.1/DTD/svg11.dtd">
<svg version="1.1" id="图层_1" xmlns="http://www.w3.org/2000/svg" xmlns:xlink="http://www.w3.org/1999/xlink" x="0px" y="0px"
	 width="16px" height="16px" viewBox="0 0 16 16" enable-background="new 0 0 16 16" xml:space="preserve">
<g>
	<path fill="#FFFFFF" d="M6.542,13.312"/>
	<path fill="#FFFFFF" d="M0.332,0v16h9.332V2.684V2.299V0H0.332z M1.667,4.265h6.662v1.599H1.667V4.265z M4.995,13.925
		c-0.552,0-1-0.446-1-0.999c0-0.552,0.448-1,1-1c0.557,0,1.005,0.448,1.005,1C6,13.479,5.552,13.925,4.995,13.925z M1.667,8.799
		V7.201h6.662v1.598H1.667z M8.329,2.684v0.253H1.667V1.335h6.662v0.964V2.684z"/>
	<polygon fill="#FFFFFF" points="13.205,5.941 15.668,3.908 13.205,1.87 13.205,3.197 10.041,3.197 10.041,4.614 13.205,4.614 	"/>
	<polygon fill="#FFFFFF" points="12.504,4.872 10.041,6.906 12.504,8.943 12.504,7.616 15.668,7.616 15.668,6.2 12.504,6.2 	"/>
</g>
</svg>
