<?xml version="1.0" encoding="utf-8"?>
<!-- Generator: Adobe Illustrator 19.1.0, SVG Export Plug-In . SVG Version: 6.00 Build 0)  -->
<svg version="1.1" id="图层_1" xmlns="http://www.w3.org/2000/svg" xmlns:xlink="http://www.w3.org/1999/xlink" x="0px" y="0px"
	 viewBox="0 0 16 16" style="enable-background:new 0 0 16 16;" xml:space="preserve">
<style type="text/css">
	.st0{fill:#FFFFFF;}
</style>
<g>
	<g>
		<rect x="0" y="2.1" class="st0" width="1.4" height="2.2"/>
		<rect x="0" y="5.4" class="st0" width="1.4" height="2.2"/>
		<g>
			<rect x="5.4" y="0" class="st0" width="2.2" height="1.4"/>
			<rect x="2.2" y="0" class="st0" width="2.2" height="1.4"/>
		</g>
		<path class="st0" d="M2.2,2.1v5.4h5.4V2.1H2.2z"/>
	</g>
	<g>
		<path class="st0" d="M8.5,2.1v5.4h5.4V2.1H8.5z"/>
		<rect x="14.6" y="2.1" class="st0" width="1.4" height="2.2"/>
		<rect x="14.6" y="5.4" class="st0" width="1.4" height="2.2"/>
		<rect x="11.7" class="st0" width="2.2" height="1.4"/>
		<rect x="8.5" class="st0" width="2.2" height="1.4"/>
	</g>
	<g>
		<rect x="0" y="8.4" class="st0" width="1.4" height="2.2"/>
		<rect x="0" y="11.7" class="st0" width="1.4" height="2.2"/>
		<g>
			<rect x="5.4" y="14.6" class="st0" width="2.2" height="1.4"/>
			<rect x="2.2" y="14.6" class="st0" width="2.2" height="1.4"/>
		</g>
		<path class="st0" d="M2.2,8.4v5.4h5.4V8.4H2.2z"/>
	</g>
	<g>
		<rect x="14.6" y="8.4" class="st0" width="1.4" height="2.2"/>
		<rect x="14.6" y="11.7" class="st0" width="1.4" height="2.2"/>
		<g>
			<rect x="11.7" y="14.6" class="st0" width="2.2" height="1.4"/>
			<rect x="8.5" y="14.6" class="st0" width="2.2" height="1.4"/>
		</g>
		<path class="st0" d="M8.5,8.4v5.4h5.4V8.4H8.5z"/>
	</g>
</g>
</svg>
