<?xml version="1.0" encoding="utf-8"?>
<!-- Generator: Adobe Illustrator 16.0.0, SVG Export Plug-In . SVG Version: 6.00 Build 0)  -->
<!DOCTYPE svg PUBLIC "-//W3C//DTD SVG 1.1//EN" "http://www.w3.org/Graphics/SVG/1.1/DTD/svg11.dtd">
<svg version="1.1" id="图层_1" xmlns="http://www.w3.org/2000/svg" xmlns:xlink="http://www.w3.org/1999/xlink" x="0px" y="0px"
	 width="16px" height="16px" viewBox="0 0 16 16" enable-background="new 0 0 16 16" xml:space="preserve">
<g>
	<path fill="#FFFFFF" d="M8.881,14.051c0.034-0.033,0.069-0.066,0.107-0.096l0.268-0.211c-0.062-0.051-0.121-0.104-0.179-0.163
		c-0.55-0.552-0.764-1.36-0.563-2.112c0.101-0.369,0.389-0.656,0.756-0.755c0.012-0.005,0.021-0.007,0.031-0.009
		c0.004-0.012,0.006-0.021,0.008-0.029c0.1-0.367,0.385-0.656,0.754-0.755c0.088-0.024,0.182-0.024,0.271-0.037V9.234V0h-8.97
		v15.375h5.798c-0.004-0.004,0.584-0.004,1.254-0.004c-0.001-0.021,0.011-0.04,0.011-0.061C8.392,14.854,8.542,14.402,8.881,14.051z
		 M2.641,1.285h6.416V2.82H2.641V1.285z M2.641,4.104h6.416V5.64H2.641V4.104z M5.853,13.391c-0.534,0-0.968-0.436-0.968-0.959
		c0-0.535,0.434-0.969,0.968-0.969c0.525,0,0.959,0.434,0.959,0.969C6.812,12.955,6.378,13.391,5.853,13.391z M2.641,8.459V6.924
		h6.416v1.535H2.641z"/>
	<path fill="#86CC16" d="M12.593,13.32l1.448-1.445h0.195l0.398-0.795l-0.199-0.198l-0.795,0.399v0.197l-1.494,1.492l-0.53-0.412
		c0.226-0.423,0.165-0.963-0.193-1.322c-0.295-0.295-0.708-0.389-1.081-0.285l0.684,0.685v0.796H10.23l-0.686-0.688
		c-0.1,0.376-0.006,0.788,0.287,1.084c0.357,0.359,0.896,0.418,1.32,0.191l0.287,0.363l-1.789,1.41
		c-0.325,0.336-0.121,0.703,0.019,0.861l0.177,0.178c0.154,0.139,0.473,0.197,0.862,0.05l1.342-1.725l1.315,1.669
		c0.337,0.322,0.703,0.123,0.863-0.018l0.179-0.181c0.135-0.153,0.34-0.471,0.047-0.862L12.593,13.32z M13.984,15.391
		c-0.094,0.092-0.24,0.092-0.332,0c-0.092-0.093-0.092-0.242,0-0.334s0.238-0.092,0.332,0
		C14.077,15.146,14.077,15.298,13.984,15.391z"/>
</g>
</svg>
