<?xml version="1.0" encoding="utf-8"?>
<!-- Generator: Adobe Illustrator 16.0.0, SVG Export Plug-In . SVG Version: 6.00 Build 0)  -->
<!DOCTYPE svg PUBLIC "-//W3C//DTD SVG 1.1//EN" "http://www.w3.org/Graphics/SVG/1.1/DTD/svg11.dtd">
<svg version="1.1" id="图层_1" xmlns="http://www.w3.org/2000/svg" xmlns:xlink="http://www.w3.org/1999/xlink" x="0px" y="0px"
	 width="16px" height="16px" viewBox="0 0 16 16" enable-background="new 0 0 16 16" xml:space="preserve">
<g>
	<path fill="#FFFFFF" d="M6.743,0.054L6.408-0.001L0,1.288l0.002,7.759c0,0,0.002,0.23,0.057,0.526
		c0.402,2.963,3.221,4.845,4.893,5.717l1.493,0.709l1.55-0.735c1.633-0.854,4.433-2.727,4.825-5.626
		c0.065-0.365,0.065-0.594,0.067-0.635V1.288L6.743,0.054z M12.096,9.003c0,0.021-0.002,0.205-0.055,0.496
		c-0.35,2.573-2.915,4.279-4.414,5.065l-1.183,0.561l-1.153-0.547c-1.528-0.799-4.096-2.505-4.449-5.11
		C0.795,9.21,0.791,9.028,0.791,9.028V1.933l5.623-1.129l0.025,0.004l0.008-0.003l0.172,0.03l5.477,1.098V9.003z"/>
	<path fill="#FFFFFF" d="M6.444,1.612L6.424,1.607L1.58,2.582v6.421c0,0,0.005,0.137,0.045,0.358
		c0.307,2.271,2.709,3.825,4.003,4.504l0.816,0.386l0.815-0.386c1.295-0.679,3.695-2.232,4.004-4.504
		c0.039-0.222,0.043-0.358,0.043-0.358V2.582L6.463,1.607L6.444,1.612z M10.176,6.906v1.021H7.188v2.989H6.164V7.927H3.176V6.906
		h2.988v-2.99h1.023v2.99H10.176z"/>
</g>
</svg>
