<?xml version="1.0" encoding="utf-8"?>
<!-- Generator: Adobe Illustrator 19.2.1, SVG Export Plug-In . SVG Version: 6.00 Build 0)  -->
<svg version="1.1" id="图层_1" xmlns="http://www.w3.org/2000/svg" xmlns:xlink="http://www.w3.org/1999/xlink" x="0px" y="0px" width="16px" height="16px" 
	 viewBox="0 0 16 16" style="enable-background:new 0 0 16 16;" xml:space="preserve">
<g>
	<g>
		<g>
			<path fill="#FFFFFF" d="M9.4,3.7l0-2.7l4.1,4.2L9.3,9.3l0-2.7C4.5,6.4,4.7,9.8,5.9,12C2.9,8.8,3.6,3.5,9.4,3.7z"/>
		</g>
	</g>
	<path fill="#FFFFFF" d="M14.4,10.9v2.3c0,0.3-0.3,0.6-0.6,0.6H2.2c-0.3,0-0.6-0.3-0.6-0.6v-2.3H0.5v2.3c0,1,0.8,1.7,1.7,1.7h11.5
		c1,0,1.7-0.8,1.7-1.7v-2.3H14.4z"/>
</g>
</svg>
