<?xml version="1.0" encoding="utf-8"?>
<!-- Generator: Adobe Illustrator 16.0.0, SVG Export Plug-In . SVG Version: 6.00 Build 0)  -->
<!DOCTYPE svg PUBLIC "-//W3C//DTD SVG 1.1//EN" "http://www.w3.org/Graphics/SVG/1.1/DTD/svg11.dtd">
<svg version="1.1" id="图层_1" xmlns="http://www.w3.org/2000/svg" xmlns:xlink="http://www.w3.org/1999/xlink" x="0px" y="0px"
	 width="16px" height="16px" viewBox="0 0 16 16" enable-background="new 0 0 16 16" xml:space="preserve">
<g>
	<path fill="#FFFFFF" d="M14.033,1.511H3.353c-1.08,0-1.963,0.877-1.963,1.963V9.51c0,0.324,0.078,0.627,0.219,0.9L0,14.488
		l3.938-3.008h6.869c0.086-0.187,0.213-0.34,0.375-0.457c-0.076-0.359,0.021-0.752,0.276-1.043l0.245-0.269
		c0.227-0.235,0.533-0.366,0.852-0.366c0.053,0,0.107,0.004,0.16,0.012c0.211-0.312,0.562-0.519,0.963-0.519h0.33
		c0.398,0,0.752,0.203,0.963,0.519c0.053-0.008,0.106-0.012,0.16-0.012c0.314,0,0.619,0.129,0.838,0.354l0.012,0.012
		C15.986,9.646,16,9.58,16,9.51V3.474C16,2.388,15.119,1.511,14.033,1.511z M4.891,8.153H4.256V4.494h0.635V8.153z M7.146,7.951
		C6.972,8.125,6.714,8.212,6.372,8.212c-0.311,0-0.557-0.073-0.737-0.22c-0.181-0.146-0.3-0.345-0.355-0.596L5.885,7.29
		C5.91,7.425,5.963,7.529,6.041,7.6C6.12,7.67,6.23,7.707,6.372,7.707c0.155,0,0.273-0.034,0.352-0.101
		C6.776,7.56,6.803,7.498,6.803,7.419c0-0.054-0.014-0.098-0.042-0.133C6.73,7.253,6.663,7.223,6.559,7.195
		C6.072,7.07,5.764,6.956,5.634,6.852C5.453,6.709,5.363,6.51,5.363,6.256c0-0.23,0.078-0.423,0.233-0.579
		C5.753,5.52,5.995,5.442,6.322,5.442c0.312,0,0.544,0.06,0.695,0.178C7.168,5.738,7.273,5.913,7.33,6.144L6.763,6.266
		c-0.024-0.104-0.07-0.183-0.139-0.237C6.555,5.975,6.459,5.947,6.333,5.947c-0.158,0-0.272,0.025-0.341,0.077
		C5.946,6.06,5.923,6.108,5.923,6.167c0,0.05,0.021,0.092,0.061,0.127C6.038,6.34,6.226,6.406,6.547,6.491
		C6.868,6.576,7.092,6.679,7.22,6.802c0.126,0.125,0.188,0.299,0.188,0.521C7.408,7.567,7.321,7.776,7.146,7.951z M9.6,7.97
		C9.425,8.132,9.191,8.212,8.896,8.212c-0.332,0-0.603-0.122-0.796-0.366C7.902,7.601,7.804,7.262,7.804,6.83
		c0-0.438,0.099-0.778,0.298-1.021C8.301,5.565,8.57,5.443,8.909,5.443c0.276,0,0.498,0.07,0.661,0.209
		c0.164,0.139,0.281,0.351,0.354,0.635L9.329,6.411C9.309,6.273,9.264,6.168,9.191,6.099c-0.069-0.07-0.162-0.105-0.274-0.105
		c-0.149,0-0.271,0.061-0.358,0.182C8.468,6.296,8.424,6.498,8.424,6.78c0,0.314,0.045,0.537,0.137,0.667
		c0.09,0.13,0.213,0.194,0.365,0.194c0.114,0,0.208-0.038,0.281-0.113c0.072-0.076,0.124-0.206,0.154-0.391l0.592,0.117
		C9.893,7.571,9.773,7.809,9.6,7.97z M12.035,7.951c-0.174,0.175-0.434,0.262-0.774,0.262c-0.311,0-0.556-0.073-0.737-0.22
		c-0.181-0.146-0.299-0.345-0.354-0.596l0.604-0.107c0.025,0.136,0.078,0.239,0.156,0.311c0.079,0.07,0.189,0.106,0.331,0.106
		c0.155,0,0.273-0.034,0.354-0.101c0.053-0.046,0.076-0.108,0.076-0.187c0-0.054-0.017-0.098-0.041-0.133
		c-0.029-0.033-0.102-0.063-0.201-0.092c-0.486-0.125-0.797-0.239-0.926-0.343c-0.185-0.143-0.271-0.342-0.271-0.596
		c0-0.23,0.078-0.423,0.232-0.579c0.156-0.157,0.396-0.235,0.727-0.235c0.312,0,0.544,0.06,0.695,0.178
		c0.15,0.118,0.256,0.293,0.312,0.524l-0.569,0.122c-0.021-0.104-0.066-0.183-0.14-0.237c-0.065-0.055-0.163-0.082-0.288-0.082
		c-0.16,0-0.271,0.025-0.344,0.077c-0.046,0.036-0.066,0.084-0.066,0.143c0,0.05,0.021,0.092,0.062,0.127
		c0.054,0.047,0.241,0.112,0.562,0.197c0.318,0.085,0.545,0.188,0.672,0.312c0.127,0.125,0.188,0.299,0.188,0.521
		C12.297,7.567,12.21,7.776,12.035,7.951z M13.428,8.153h-0.603v-2.65h0.603V8.153z M13.428,5.143h-0.603V4.494h0.603V5.143z"/>
	<path fill="#FFFFFF" d="M15.836,11.826h-0.205c-0.091,0-0.188-0.072-0.214-0.162l-0.112-0.283c-0.045-0.08-0.027-0.199,0.039-0.268
		l0.139-0.143c0.064-0.064,0.064-0.177,0-0.24l-0.229-0.238c-0.062-0.064-0.17-0.064-0.229,0l-0.145,0.143
		c-0.062,0.068-0.188,0.086-0.27,0.041l-0.272-0.115c-0.085-0.022-0.157-0.127-0.157-0.221v-0.201c0-0.094-0.07-0.17-0.166-0.17
		h-0.328c-0.096,0-0.168,0.076-0.168,0.17v0.201c0,0.094-0.072,0.193-0.158,0.221l-0.275,0.115c-0.08,0.045-0.199,0.027-0.266-0.041
		l-0.144-0.143c-0.062-0.064-0.171-0.064-0.231,0l-0.232,0.238c-0.062,0.063-0.062,0.176,0,0.24l0.143,0.143
		c0.063,0.068,0.08,0.188,0.039,0.268l-0.113,0.283c-0.023,0.09-0.122,0.162-0.215,0.162h-0.2c-0.091,0-0.163,0.076-0.163,0.17
		v0.336c0,0.096,0.072,0.172,0.163,0.172h0.2c0.093,0,0.188,0.072,0.213,0.162l0.115,0.283c0.041,0.08,0.024,0.201-0.039,0.27
		l-0.143,0.143c-0.062,0.064-0.062,0.177,0,0.24l0.232,0.238c0.062,0.066,0.172,0.066,0.231,0l0.144-0.143
		c0.062-0.066,0.186-0.084,0.266-0.039l0.275,0.115c0.086,0.024,0.158,0.125,0.158,0.221v0.201c0,0.092,0.072,0.168,0.168,0.168
		h0.326c0.096,0,0.166-0.076,0.166-0.168v-0.201c0-0.096,0.073-0.191,0.158-0.221l0.273-0.115c0.08-0.045,0.199-0.027,0.269,0.039
		l0.144,0.143c0.062,0.066,0.17,0.066,0.23,0l0.23-0.238c0.063-0.063,0.063-0.176,0-0.24l-0.14-0.143
		c-0.065-0.068-0.084-0.189-0.038-0.27l0.111-0.283c0.025-0.09,0.123-0.162,0.214-0.162h0.205c0.09,0,0.164-0.076,0.164-0.168v-0.34
		C16,11.902,15.926,11.826,15.836,11.826z M13.842,13.012c-0.457,0-0.826-0.379-0.826-0.848c0-0.467,0.369-0.844,0.826-0.844
		s0.829,0.377,0.829,0.844C14.671,12.633,14.299,13.012,13.842,13.012z"/>
</g>
</svg>
