<?xml version="1.0" encoding="utf-8"?>
<!-- Generator: Adobe Illustrator 16.0.0, SVG Export Plug-In . SVG Version: 6.00 Build 0)  -->
<!DOCTYPE svg PUBLIC "-//W3C//DTD SVG 1.1//EN" "http://www.w3.org/Graphics/SVG/1.1/DTD/svg11.dtd">
<svg version="1.1" id="图层_1" xmlns="http://www.w3.org/2000/svg" xmlns:xlink="http://www.w3.org/1999/xlink" x="0px" y="0px"
	 width="16px" height="16px" viewBox="0 0 16 16" enable-background="new 0 0 16 16" xml:space="preserve">
<g>
	<rect x="10.212" y="9.639" fill="#FFFFFF" width="3.593" height="0.875"/>
	<rect x="10.212" y="11.396" fill="#FFFFFF" width="5.788" height="0.873"/>
	<path fill="#FFFFFF" d="M6.381,7.107v-1.21c0-0.031-0.025-0.056-0.055-0.056H5.117c-0.031,0-0.057,0.024-0.057,0.056v1.21
		c0,0.029,0.025,0.054,0.057,0.054h1.209C6.355,7.161,6.381,7.137,6.381,7.107z M8.839,7.107v-1.21c0-0.031-0.024-0.056-0.055-0.056
		H7.575c-0.029,0-0.057,0.024-0.057,0.056v1.21c0,0.029,0.027,0.054,0.057,0.054h1.209C8.812,7.161,8.839,7.137,8.839,7.107z
		 M2.546,9.189h6.667V8.322H2.546V9.189z M3.923,7.107v-1.21c0-0.031-0.025-0.056-0.055-0.056H2.657
		c-0.029,0-0.055,0.024-0.055,0.056v1.21c0,0.029,0.025,0.054,0.055,0.054h1.211C3.897,7.161,3.923,7.137,3.923,7.107z M12.37,1.991
		H1.615C0.724,1.991,0,2.712,0,3.604v8.606c0,0.89,0.724,1.612,1.615,1.612h7.598v-1.076H1.615c-0.298,0-0.541-0.242-0.541-0.536
		V4.68h11.833v3.958h1.075V3.604C13.982,2.712,13.261,1.991,12.37,1.991z M10.032,5.841c-0.029,0-0.054,0.024-0.054,0.056v1.21
		c0,0.029,0.021,0.054,0.054,0.054h1.21c0.029,0,0.055-0.024,0.055-0.054v-1.21c0-0.031-0.025-0.056-0.055-0.056H10.032z
		 M2.546,11.174h6.667v-0.867H2.546V11.174z"/>
	<rect x="10.212" y="13.134" fill="#FFFFFF" width="4.243" height="0.875"/>
</g>
</svg>
