<?xml version="1.0" encoding="utf-8"?>
<!-- Generator: Adobe Illustrator 16.0.0, SVG Export Plug-In . SVG Version: 6.00 Build 0)  -->
<!DOCTYPE svg PUBLIC "-//W3C//DTD SVG 1.1//EN" "http://www.w3.org/Graphics/SVG/1.1/DTD/svg11.dtd">
<svg version="1.1" id="图层_1" xmlns="http://www.w3.org/2000/svg" xmlns:xlink="http://www.w3.org/1999/xlink" x="0px" y="0px"
	 width="16px" height="16px" viewBox="0 0 16 16" enable-background="new 0 0 16 16" xml:space="preserve">
<g>
	<g>
		<path fill="#FFFFFF" d="M12.582,14.135c-0.062,0-0.127-0.021-0.171-0.061l-0.716-0.635c-0.016,0.004-0.031,0.004-0.049,0.004
			c-0.211,0-0.396-0.197-0.396-0.438c0-0.146,0.068-0.28,0.191-0.371l0.021-1.11c0.011-0.103,0.093-0.244,0.254-0.244
			c0.163,0,0.245,0.146,0.252,0.244l0.054,1.097c0.123,0.062,0.166,0.233,0.166,0.391l0.604,0.687c0.077,0.09,0.1,0.248-0.021,0.363
			C12.723,14.105,12.654,14.135,12.582,14.135z"/>
		<path fill="#FFFFFF" d="M7.724,12.943c0-1.818,1.226-3.34,2.889-3.824V0H1.276v16h7.898C8.296,15.266,7.724,14.176,7.724,12.943z
			 M2.61,1.334h6.666v1.599H2.61V1.334z M2.61,4.266h6.666v1.601H2.61V4.266z M2.61,7.201h6.666v1.598H2.61V7.201z M5.944,13.346
			c-0.552,0-1-0.449-1-1c0-0.553,0.448-1,1-1c0.553,0,1,0.447,1,1C6.944,12.896,6.497,13.346,5.944,13.346z"/>
		<path fill="#FFFFFF" d="M11.725,9.943c-1.658,0-3,1.344-3,3s1.342,3,3,3c1.656,0,3-1.344,3-3S13.381,9.943,11.725,9.943z
			 M12.087,15.098V15.05c0-0.198-0.163-0.362-0.362-0.362c-0.201,0-0.363,0.164-0.363,0.362v0.048
			c-0.918-0.154-1.639-0.875-1.793-1.791H9.62c0.196,0,0.358-0.164,0.358-0.363c0-0.195-0.162-0.357-0.358-0.357H9.568
			c0.154-0.918,0.875-1.645,1.791-1.793v0.049c0,0.199,0.164,0.361,0.363,0.361c0.196,0,0.359-0.162,0.359-0.361v-0.05
			c0.916,0.149,1.643,0.875,1.792,1.793H13.83c-0.199,0-0.361,0.162-0.361,0.358c0,0.199,0.162,0.363,0.361,0.363h0.049
			C13.725,14.223,13.003,14.943,12.087,15.098z"/>
	</g>
</g>
</svg>
