<?xml version="1.0" encoding="utf-8"?>
<!-- Generator: Adobe Illustrator 16.0.0, SVG Export Plug-In . SVG Version: 6.00 Build 0)  -->
<!DOCTYPE svg PUBLIC "-//W3C//DTD SVG 1.1//EN" "http://www.w3.org/Graphics/SVG/1.1/DTD/svg11.dtd">
<svg version="1.1" id="图层_1" xmlns="http://www.w3.org/2000/svg" xmlns:xlink="http://www.w3.org/1999/xlink" x="0px" y="0px"
	 width="16px" height="16px" viewBox="0 0 16 16" enable-background="new 0 0 16 16" xml:space="preserve">
<g>
	<g>
		<path fill="#FFFFFF" d="M11.685,15.111h-1.477v-0.408c1.48-0.277,2.602-1.572,2.602-3.133c0-1.238-0.708-2.301-1.735-2.832
			c0.001-0.001,0.003-0.003,0.005-0.005c-0.018-0.009-0.037-0.012-0.055-0.02c-0.045-0.023-0.086-0.05-0.133-0.07
			c-0.003,0.005-0.008,0.01-0.013,0.015c-0.389-0.169-0.81-0.279-1.261-0.279S8.745,8.49,8.357,8.659
			c-0.005-0.005-0.01-0.01-0.013-0.015c-0.047,0.021-0.089,0.047-0.133,0.07c-0.018,0.008-0.037,0.011-0.054,0.02
			c0.001,0.002,0.003,0.004,0.004,0.005C7.133,9.27,6.427,10.332,6.427,11.57c0,1.561,1.12,2.855,2.601,3.133v0.408H7.552
			c-0.283,0-0.296,0.297-0.296,0.297v0.59h1.771h1.181h1.771v-0.59C11.979,15.244,11.848,15.111,11.685,15.111z M9.618,8.674
			c0.373,0,0.722,0.087,1.05,0.218c-0.278,0.252-0.644,0.411-1.05,0.411s-0.772-0.158-1.05-0.411
			C8.896,8.761,9.245,8.674,9.618,8.674z M8.05,11.57c0-0.865,0.702-1.568,1.568-1.568s1.568,0.703,1.568,1.568
			s-0.702,1.568-1.568,1.568S8.05,12.436,8.05,11.57z"/>
		<path fill="#FFFFFF" d="M10.447,11.57c0-0.459-0.371-0.832-0.829-0.832c-0.158,0-0.305,0.049-0.43,0.125
			c0.039-0.012,0.08-0.021,0.122-0.021c0.233,0,0.422,0.189,0.422,0.42c0,0.234-0.188,0.422-0.422,0.422
			c-0.231,0-0.42-0.188-0.42-0.422c0-0.041,0.008-0.082,0.021-0.121c-0.077,0.125-0.123,0.271-0.123,0.43
			c0,0.459,0.372,0.83,0.83,0.83S10.447,12.029,10.447,11.57z"/>
	</g>
	<rect x="4.907" y="0.891" fill="none" width="0.893" height="0.892"/>
	<polygon fill="#FFFFFF" points="6.246,7.137 7.264,7.137 7.955,7.137 8.923,7.137 8.923,7.125 8.923,6.696 8.923,6.245 
		6.246,6.245 	"/>
	<rect x="1.784" y="4.459" fill="#FFFFFF" width="3.569" height="8.031"/>
	<path fill="#FFFFFF" d="M0.893,13.383v-11.6h1.784V0.891H0v13.384h6.466c-0.201-0.285-0.311-0.59-0.333-0.893H0.893z"/>
	<rect x="6.246" y="4.459" fill="#FFFFFF" width="2.677" height="0.893"/>
	<path fill="#FFFFFF" d="M10.707,0.891H8.03v0.892h1.785v5.709c0.312,0.019,0.61,0.081,0.892,0.184V0.891z"/>
	<path fill="#FFFFFF" d="M1.784,3.568h7.139V2.675H7.139v-2.677H3.569v2.677H1.784V3.568z M4.907,0.891H5.8v0.892H4.907V0.891z"/>
</g>
</svg>
