<?xml version="1.0" encoding="utf-8"?>
<!-- Generator: Adobe Illustrator 16.0.0, SVG Export Plug-In . SVG Version: 6.00 Build 0)  -->
<!DOCTYPE svg PUBLIC "-//W3C//DTD SVG 1.1//EN" "http://www.w3.org/Graphics/SVG/1.1/DTD/svg11.dtd">
<svg version="1.1" id="图层_1" xmlns="http://www.w3.org/2000/svg" xmlns:xlink="http://www.w3.org/1999/xlink" x="0px" y="0px"
	 width="16px" height="16px" viewBox="0 0 16 16" enable-background="new 0 0 16 16" xml:space="preserve">
<g>
	<g>
		<path fill="#FFFFFF" d="M15.977,10.768H9.309V16h6.668V10.768z M14.951,11.279h0.512v0.514h-0.512V11.279z M13.926,11.279h0.512
			v0.514h-0.512V11.279z M12.9,11.279h0.512v0.514H12.9V11.279z M9.824,15.486v-3.182h5.639v3.182H9.824z"/>
		<rect x="10.248" y="12.645" fill="#FFFFFF" width="0.939" height="0.938"/>
		<rect x="10.248" y="14.051" fill="#FFFFFF" width="0.939" height="0.938"/>
		<rect x="12.125" y="12.645" fill="#FFFFFF" width="0.938" height="0.938"/>
		<rect x="12.125" y="14.051" fill="#FFFFFF" width="0.938" height="0.938"/>
		<rect x="14" y="12.645" fill="#FFFFFF" width="0.939" height="0.938"/>
		<path fill="#FFFFFF" d="M8.437,9.895h1.769V2.037H2.06V16h6.376L8.437,9.895L8.437,9.895z M3.223,3.2h5.82v1.397h-5.82V3.2z
			 M3.223,5.76h5.82v1.396h-5.82V5.76z M3.223,8.32h5.82v1.396h-5.82V8.32z M5.729,14.386l-0.64-2.909h0.734l0.346,2.25h0.008
			l0.351-2.25h0.733l-0.66,2.909H5.729z"/>
		<rect x="14" y="14.051" fill="#FFFFFF" width="0.939" height="0.938"/>
		<polygon fill="#FFFFFF" points="1.187,1.164 8.168,1.164 8.168,0 0.024,0 0.024,13.963 1.188,13.963 		"/>
	</g>
</g>
</svg>
