<?xml version="1.0" encoding="utf-8"?>
<!-- Generator: Adobe Illustrator 16.0.0, SVG Export Plug-In . SVG Version: 6.00 Build 0)  -->
<!DOCTYPE svg PUBLIC "-//W3C//DTD SVG 1.1//EN" "http://www.w3.org/Graphics/SVG/1.1/DTD/svg11.dtd">
<svg version="1.1" id="图层_1" xmlns="http://www.w3.org/2000/svg" xmlns:xlink="http://www.w3.org/1999/xlink" x="0px" y="0px"
	 width="16px" height="16px" viewBox="0 0 16 16" enable-background="new 0 0 16 16" xml:space="preserve">
<g>
	<polygon fill="#FFFFFF" points="6.026,8.436 7.026,8.436 12.025,2.436 11.025,1.436 6.026,7.436 	"/>
	<path fill="#FFFFFF" d="M7.876,14.432c0-0.055,0.004-0.106,0.01-0.162c-0.315-0.258-0.517-0.646-0.517-1.086v-1.207
		c0-0.438,0.205-0.836,0.524-1.095c-0.006-0.051-0.009-0.104-0.009-0.155c0-0.359,0.137-0.707,0.385-0.972l0.678-0.672
		C9.21,8.82,9.562,8.674,9.934,8.674c0.058,0,0.109,0.003,0.164,0.01c0.006-0.008,0.014-0.013,0.021-0.021V6.288L8.784,7.889V8.8
		h-0.76L7.495,9.436H5.026V8.8H2.117V7.2h2.909V7.073l1.006-1.207H2.117v-1.6h5.248l1.11-1.333H2.117v-1.6h6.667v1.23l1.333-1.6V0
		H0.784v16h8.075l-0.57-0.568C8.021,15.164,7.874,14.809,7.876,14.432z M5.45,13.928c-0.553,0-1-0.447-1-1s0.447-1,1-1
		c0.553,0,1,0.447,1,1S6.003,13.928,5.45,13.928z"/>
	<path fill="#FFFFFF" d="M14.812,11.57H14.01l0.574-0.569c0.157-0.157,0.157-0.409,0-0.565l-0.646-0.651
		c-0.078-0.075-0.182-0.111-0.283-0.111c-0.104,0-0.207,0.036-0.285,0.111l-0.568,0.567V9.562c0-0.228-0.182-0.404-0.402-0.404
		h-1.207c-0.224,0-0.401,0.18-0.401,0.404v0.799l-0.567-0.567c-0.076-0.079-0.184-0.12-0.283-0.12c-0.104,0-0.207,0.041-0.285,0.12
		l-0.651,0.646c-0.071,0.076-0.114,0.184-0.114,0.287c0,0.104,0.043,0.207,0.114,0.282l0.565,0.562H8.773
		c-0.223,0-0.404,0.184-0.404,0.406v1.207c0,0.219,0.186,0.401,0.404,0.401h0.791l-0.568,0.567c-0.16,0.156-0.16,0.41,0,0.568
		l0.646,0.646c0.078,0.081,0.183,0.118,0.283,0.118c0.104,0,0.207-0.037,0.285-0.118l0.574-0.571v0.801
		c0,0.225,0.181,0.403,0.402,0.403h1.207c0.223,0,0.401-0.181,0.401-0.403v-0.801l0.572,0.578c0.075,0.074,0.179,0.113,0.284,0.113
		s0.213-0.039,0.285-0.113l0.646-0.65c0.076-0.07,0.119-0.177,0.119-0.281c0-0.105-0.043-0.211-0.119-0.283l-0.568-0.57h0.791
		c0.225,0,0.401-0.186,0.401-0.4V11.98C15.216,11.752,15.036,11.57,14.812,11.57z M11.792,14.282c-0.94,0-1.702-0.759-1.702-1.7
		c0-0.946,0.762-1.707,1.702-1.707c0.942,0,1.704,0.761,1.704,1.707C13.496,13.523,12.734,14.282,11.792,14.282z"/>
</g>
</svg>
