<?xml version="1.0" encoding="utf-8"?>
<!-- Generator: Adobe Illustrator 16.0.0, SVG Export Plug-In . SVG Version: 6.00 Build 0)  -->
<!DOCTYPE svg PUBLIC "-//W3C//DTD SVG 1.1//EN" "http://www.w3.org/Graphics/SVG/1.1/DTD/svg11.dtd">
<svg version="1.1" id="图层_1" xmlns="http://www.w3.org/2000/svg" xmlns:xlink="http://www.w3.org/1999/xlink" x="0px" y="0px"
	 width="16px" height="16px" viewBox="0 0 16 16" enable-background="new 0 0 16 16" xml:space="preserve">
<g>
	<path fill="#FFFFFF" d="M12.734,3.172l1.781,1.553l0.557-2.296l-0.399,0.127c0,0-0.861-1.575-2.503-1.153
		c0,0,1.265,0.81,1.148,1.584L12.734,3.172z"/>
	<g>
		<rect x="12.482" y="9.618" fill="none" width="0.208" height="0.186"/>
		<path fill="none" d="M9.538,9.512h6.104v-3.97H9.538V9.512z M10.021,6.092h5.156v2.89h-5.156V6.092z"/>
		<path fill="#FFFFFF" d="M15.729,5.13H9.446c-0.152,0-0.272,0.125-0.272,0.272v4.245c0,0.149,0.12,0.271,0.272,0.271
			c2.092,0,4.188,0,6.282,0C15.878,9.918,16,9.797,16,9.647V5.402C16,5.255,15.878,5.13,15.729,5.13z M12.69,9.804h-0.208V9.618
			h0.208V9.804z M15.642,9.512H9.538v-3.97h6.104V9.512z"/>
		<path fill="#FFFFFF" d="M13.317,10.086h-1.459c-0.092,0.094-0.157,0.286-0.197,0.469h-0.523v0.328c0.968,0,1.932,0,2.898,0v-0.328
			h-0.523C13.475,10.372,13.406,10.18,13.317,10.086z"/>
		<rect x="12.375" y="9.754" fill-rule="evenodd" clip-rule="evenodd" fill="#FFFFFF" width="0.424" height="0.634"/>
		<path fill="#FFFFFF" d="M13.168,9.056h-1.191l-0.874-2.969h1.002l0.475,2.294h0.01l0.479-2.294h1.003L13.168,9.056z"/>
	</g>
	<rect x="5.757" y="7.807" fill="none" width="0.359" height="0.235"/>
	<path fill="none" d="M0.63,7.622h10.625V0.715H0.63V7.622z M1.475,1.668h8.968v5.03H1.475V1.668z"/>
	<path fill="#FFFFFF" d="M6.057,2.466c-0.058-0.101-0.11-0.126-0.118-0.13C5.93,2.34,5.879,2.365,5.821,2.466l-1.92,3.319
		c-0.06,0.105-0.056,0.161-0.051,0.17c0.002,0.008,0.056,0.039,0.171,0.039h3.834c0.118,0,0.165-0.031,0.173-0.039
		c0.004-0.009,0.006-0.064-0.051-0.17L6.057,2.466z M5.938,5.796c-0.138,0-0.246-0.107-0.246-0.241c0-0.139,0.108-0.249,0.246-0.249
		c0.137,0,0.247,0.11,0.247,0.249C6.186,5.688,6.075,5.796,5.938,5.796z M6.357,3.722L6.335,3.833L6.101,4.949
		C6.095,4.984,6.065,5.007,6.03,5.007c0,0-0.005,0-0.006,0c-0.003,0-0.003,0-0.003,0H6.016H5.844c-0.034,0-0.063-0.022-0.07-0.058
		L5.537,3.83L5.516,3.732V3.681C5.529,3.479,5.7,3.317,5.93,3.317c0.23,0,0.419,0.165,0.428,0.372c0,0.004,0.003,0.008,0.003,0.016
		C6.36,3.709,6.357,3.715,6.357,3.722z"/>
	<path fill="#FFFFFF" d="M5.569,8.621h0.739V8.329c-0.248,0-0.493,0-0.739,0V8.621z"/>
	<rect x="5.757" y="8.042" fill="#FFFFFF" width="0.359" height="0.088"/>
	<path fill="#FFFFFF" d="M6.116,8.042V8.13H5.757V8.042H5.569v0.287c0.246,0,0.491,0,0.739,0V8.042H6.116z"/>
	<path fill="#FFFFFF" d="M7.548,9.433C7.48,9.119,7.364,8.783,7.208,8.621H6.309H5.569H4.67C4.51,8.783,4.396,9.119,4.328,9.433
		H3.417v0.574c1.683,0,3.361,0,5.042,0V9.433H7.548z"/>
	<polygon fill="none" points="0.63,0.715 0.63,7.622 8.187,7.622 8.187,4.553 11.255,4.553 11.255,0.715 	"/>
	<path fill="#FFFFFF" d="M0.63,7.622V0.715h10.625v3.838h0.622v-4.08c0-0.26-0.211-0.474-0.476-0.474H0.474
		C0.211-0.001,0,0.213,0,0.473v7.383c0,0.262,0.211,0.474,0.474,0.474c1.697,0,3.396,0,5.096,0V8.042h0.188V7.807h0.359v0.235h0.192
		v0.287c0.626,0,1.252,0,1.878,0V7.622H0.63z"/>
	<path fill="none" d="M5.938,1.971c-0.158,0-0.313,0.104-0.434,0.313l-1.92,3.32C3.346,6.021,3.543,6.358,4.021,6.358h3.834
		c0.137,0,0.243-0.034,0.331-0.083V5.424l-1.812-3.14C6.253,2.075,6.097,1.971,5.938,1.971z"/>
	<path fill="#FFFFFF" d="M8.073,6.608H3.799c-0.534,0-0.754-0.377-0.486-0.84l2.14-3.703C5.586,1.832,5.76,1.717,5.936,1.717
		c0.178,0,0.352,0.115,0.486,0.349l2.021,3.501V4.596h2.516V1.378h-10v5.609h7.484V6.516C8.345,6.57,8.227,6.608,8.073,6.608z"/>
</g>
</svg>
