<?xml version="1.0" encoding="utf-8"?>
<!-- Generator: Adobe Illustrator 16.0.0, SVG Export Plug-In . SVG Version: 6.00 Build 0)  -->
<!DOCTYPE svg PUBLIC "-//W3C//DTD SVG 1.1//EN" "http://www.w3.org/Graphics/SVG/1.1/DTD/svg11.dtd">
<svg version="1.1" id="图层_1" xmlns="http://www.w3.org/2000/svg" xmlns:xlink="http://www.w3.org/1999/xlink" x="0px" y="0px"
	 width="16px" height="16px" viewBox="0 0 16 16" enable-background="new 0 0 16 16" xml:space="preserve">
<g>
	<path fill="#FFFFFF" d="M5.891,11.292c0-1.267,0.826-2.352,1.967-2.755C7.63,8.432,7.487,8.37,7.487,8.37L7.434,8.233
		C7.988,7.62,8.954,6.338,9.141,4.695c0.166-1.429-0.196-2.772-1-3.679C7.567,0.365,6.81,0.003,5.926-0.001
		c-0.872,0.004-1.627,0.34-2.183,0.966C2.987,1.815,2.652,3.178,2.826,4.708c0.177,1.517,0.872,2.778,1.522,3.524V8.39
		c-0.583,0.254-3.606,1.623-4.024,2.712c-0.295,0.767-0.313,1.629-0.314,1.662L0,13.388h6.769
		C6.226,12.857,5.891,12.116,5.891,11.292z"/>
	<g>
		<circle fill="#FFFFFF" cx="12.58" cy="12.049" r="0.162"/>
		<path fill="#FFFFFF" d="M15.297,9.289c-0.577-0.577-1.375-0.796-2.122-0.662c-0.095-0.148-0.203-0.293-0.333-0.422
			c-0.955-0.954-2.503-0.954-3.458,0C9.095,8.494,8.899,8.837,8.786,9.2c-1.141,0.02-2.059,0.947-2.059,2.092
			c0,1.137,0.906,2.057,2.033,2.09v0.006h4.926V13.38c0.585-0.021,1.163-0.248,1.609-0.694
			C16.233,11.747,16.235,10.227,15.297,9.289z M13.02,11.734c0.202,0.269,0.061,0.488-0.034,0.594l-0.123,0.124
			c-0.109,0.097-0.362,0.237-0.595,0.013l-0.908-1.152l-0.926,1.19c-0.27,0.104-0.489,0.061-0.596-0.033l-0.122-0.123
			c-0.096-0.109-0.236-0.363-0.012-0.595l1.236-0.974l-0.198-0.251c-0.292,0.157-0.666,0.115-0.913-0.132
			c-0.203-0.202-0.266-0.488-0.197-0.747l0.472,0.472h0.549V9.572L10.181,9.1c0.257-0.068,0.543-0.005,0.746,0.199
			c0.247,0.246,0.289,0.62,0.133,0.912l0.367,0.285l1.032-1.032V9.327l0.547-0.274l0.139,0.136l-0.274,0.55h-0.138l-0.997,0.998
			L13.02,11.734z"/>
	</g>
</g>
</svg>
