<?xml version="1.0" encoding="utf-8"?>
<!-- Generator: Adobe Illustrator 16.0.0, SVG Export Plug-In . SVG Version: 6.00 Build 0)  -->
<!DOCTYPE svg PUBLIC "-//W3C//DTD SVG 1.1//EN" "http://www.w3.org/Graphics/SVG/1.1/DTD/svg11.dtd">
<svg version="1.1" id="图层_1" xmlns="http://www.w3.org/2000/svg" xmlns:xlink="http://www.w3.org/1999/xlink" x="0px" y="0px"
	 width="16px" height="16px" viewBox="0 0 16 16" enable-background="new 0 0 16 16" xml:space="preserve">
<g>
	<path fill="#FFFFFF" d="M12.32,11.674l2.337,2.969c0.356,0.344,0.743,0.129,0.911-0.02l0.188-0.189
		c0.146-0.162,0.36-0.5,0.053-0.91l-3.002-2.336c0.238-0.441,0.176-1.02-0.203-1.396c-0.312-0.312-0.748-0.408-1.146-0.303
		l0.728,0.723v0.84H11.34l-0.723-0.725c-0.104,0.397-0.008,0.836,0.303,1.146C11.301,11.852,11.871,11.914,12.32,11.674z
		 M14.962,14.182c-0.099-0.098-0.099-0.256,0-0.352c0.097-0.098,0.253-0.098,0.351,0c0.102,0.096,0.102,0.254,0,0.352
		C15.215,14.277,15.059,14.277,14.962,14.182z"/>
	<path fill="#FFFFFF" d="M8.426,12.254h2.107c-0.076-0.055-0.148-0.111-0.215-0.18c-0.51-0.51-0.711-1.264-0.524-1.967l0.121-0.455
		H0.622v-7.34c0-0.285,0.23-0.521,0.515-0.521h11.378c0.28,0,0.516,0.236,0.516,0.521v6.729c0.06,0.049,0.121,0.092,0.176,0.145
		c0.212,0.211,0.35,0.463,0.445,0.729V2.312c0-0.634-0.508-1.139-1.137-1.139H1.137C0.509,1.173,0,1.678,0,2.312v8.797
		c0,0.637,0.509,1.145,1.137,1.145h4.09v1.48h-0.92v0.918h5.041v-0.918H8.426V12.254z"/>
	<path fill="#FFFFFF" d="M13.051,11.721l0.262-0.037l1.643-1.639V9.836l0.841-0.422L16,9.623l-0.421,0.842H15.37l-1.659,1.658
		l-0.031,0.225L11.85,14.7c-0.414,0.157-0.75,0.094-0.914-0.05l-0.187-0.188c-0.149-0.168-0.362-0.558-0.019-0.91L13.051,11.721z"/>
</g>
</svg>
