<?xml version="1.0" encoding="utf-8"?>
<!-- Generator: Adobe Illustrator 16.0.0, SVG Export Plug-In . SVG Version: 6.00 Build 0)  -->
<!DOCTYPE svg PUBLIC "-//W3C//DTD SVG 1.1//EN" "http://www.w3.org/Graphics/SVG/1.1/DTD/svg11.dtd">
<svg version="1.1" id="图层_1" xmlns="http://www.w3.org/2000/svg" xmlns:xlink="http://www.w3.org/1999/xlink" x="0px" y="0px"
	 width="10px" height="16px" viewBox="0 0 10 16" enable-background="new 0 0 10 16" xml:space="preserve">
<g>
	<g>
		<path fill="#FFFFFF" d="M4.203,11.178h2.458V9.26c0-0.518,0.241-1.006,0.888-1.434C8.197,7.407,10,6.545,10,4.282
			c0-2.26-1.895-3.813-3.488-4.146C4.919-0.194,3.195,0.023,1.969,1.365C0.874,2.566,0.642,3.519,0.642,5.614h2.459V5.129
			c0-1.121,0.126-2.3,1.724-2.619c0.87-0.18,1.687,0.097,2.169,0.568c0.557,0.543,0.562,1.765-0.32,2.372L5.287,6.393
			c-0.808,0.519-1.084,1.096-1.084,1.94V11.178L4.203,11.178z"/>
	</g>
	<g>
		<path fill="#FFFFFF" d="M5.435,12.781c0.888,0,1.61,0.721,1.61,1.609c0,0.891-0.723,1.609-1.61,1.609
			c-0.888,0-1.613-0.719-1.613-1.609C3.822,13.502,4.546,12.781,5.435,12.781z"/>
	</g>
</g>
</svg>
