<?xml version="1.0" encoding="utf-8"?>
<!-- Generator: Adobe Illustrator 16.0.0, SVG Export Plug-In . SVG Version: 6.00 Build 0)  -->
<!DOCTYPE svg PUBLIC "-//W3C//DTD SVG 1.1//EN" "http://www.w3.org/Graphics/SVG/1.1/DTD/svg11.dtd">
<svg version="1.1" id="图层_1" xmlns="http://www.w3.org/2000/svg" xmlns:xlink="http://www.w3.org/1999/xlink" x="0px" y="0px"
	 width="16px" height="16px" viewBox="0 0 16 16" enable-background="new 0 0 16 16" xml:space="preserve">
<g>
	<path fill="#FFFFFF" d="M6.739,3.04c2.706,0,4.907-0.678,4.907-1.517C11.646,0.695,9.445,0,6.739,0
		C4.027,0,1.817,0.695,1.817,1.523C1.817,2.361,4.027,3.04,6.739,3.04z M6.739,1C7.886,1,8.82,1.238,8.82,1.523
		c0,0.294-0.938,0.531-2.081,0.531c-1.147,0-2.071-0.237-2.071-0.531C4.668,1.238,5.592,1,6.739,1z"/>
	<g>
		<path fill="#FFFFFF" d="M6.554,12.589c0-2.399,1.953-4.352,4.352-4.352c0.346,0,0.677,0.05,0.998,0.126V2.03
			c0,0.866-2.297,1.578-5.106,1.578c-2.823,0-5.116-0.712-5.116-1.578v12.019c0,0.87,2.293,1.574,5.116,1.574
			c0.333,0,0.658-0.01,0.974-0.029C7.021,14.812,6.554,13.756,6.554,12.589z"/>
		<path fill="#FFFFFF" d="M10.906,9.177c-1.885,0-3.412,1.527-3.412,3.412c0,1.886,1.527,3.411,3.412,3.411
			c1.883,0,3.41-1.525,3.41-3.411C14.316,10.704,12.789,9.177,10.906,9.177z M12.667,13.176h-1.175v1.174h-1.174v-1.174H9.146
			v-1.175h1.174v-1.174h1.173v1.174h1.175L12.667,13.176L12.667,13.176z"/>
	</g>
</g>
</svg>
