<?xml version="1.0" encoding="utf-8"?>
<!-- Generator: Adobe Illustrator 16.0.0, SVG Export Plug-In . SVG Version: 6.00 Build 0)  -->
<!DOCTYPE svg PUBLIC "-//W3C//DTD SVG 1.1//EN" "http://www.w3.org/Graphics/SVG/1.1/DTD/svg11.dtd">
<svg version="1.1" id="图层_1" xmlns="http://www.w3.org/2000/svg" xmlns:xlink="http://www.w3.org/1999/xlink" x="0px" y="0px"
	 width="16px" height="16px" viewBox="0 0 16 16" enable-background="new 0 0 16 16" xml:space="preserve">
<g>
	<path fill="#FFFFFF" d="M14.76,10.336H14.1l-0.08-0.564c-0.021-0.185-0.191-0.334-0.385-0.334h-1.799
		c-0.188,0-0.359,0.149-0.385,0.334l-0.08,0.564h-0.66c-0.375,0-0.676,0.303-0.676,0.678v0.229h5.4v-0.229
		C15.436,10.639,15.133,10.336,14.76,10.336z M11.891,9.887h1.689l0.064,0.449h-1.818L11.891,9.887z"/>
	<path fill="#FFFFFF" d="M9.723,15.68L9.41,12.236H9.035V11.01c0-0.431,0.164-0.822,0.432-1.119L9.447,9.84
		c0.664-0.732,1.816-2.266,2.041-4.229c0.197-1.707-0.236-3.313-1.195-4.396C9.605,0.438,8.701,0.005,7.645,0
		C6.603,0.005,5.701,0.406,5.036,1.154C4.134,2.171,3.733,3.799,3.94,5.627C4.153,7.44,4.983,8.948,5.76,9.839v0.188
		c-0.696,0.303-4.31,1.938-4.809,3.24c-0.353,0.916-0.375,1.941-0.376,1.98L0.564,16h9.252C9.779,15.895,9.732,15.794,9.723,15.68z"
		/>
	<path fill="#FFFFFF" d="M14.715,11.416h-3.959c-0.229,0-0.398,0.188-0.379,0.414l0.34,3.755C10.738,15.812,10.943,16,11.172,16
		h3.127c0.229,0,0.432-0.188,0.453-0.415l0.342-3.755C15.115,11.604,14.943,11.416,14.715,11.416z M11.902,15.167h-0.625
		l-0.209-2.917h0.834V15.167z M13.152,15.167h-0.834V12.25h0.834V15.167z M14.193,15.167h-0.625V12.25h0.834L14.193,15.167z"/>
</g>
</svg>
