<?xml version="1.0" encoding="utf-8"?>
<!-- Generator: Adobe Illustrator 16.0.0, SVG Export Plug-In . SVG Version: 6.00 Build 0)  -->
<!DOCTYPE svg PUBLIC "-//W3C//DTD SVG 1.1//EN" "http://www.w3.org/Graphics/SVG/1.1/DTD/svg11.dtd">
<svg version="1.1" id="图层_1" xmlns="http://www.w3.org/2000/svg" xmlns:xlink="http://www.w3.org/1999/xlink" x="0px" y="0px"
	 width="16px" height="16px" viewBox="0 0 16 16" enable-background="new 0 0 16 16" xml:space="preserve">
<g>
	<g>
		<path fill="#FFFFFF" d="M15.973,10.003h-7.64V16h7.64V10.003L15.973,10.003z M14.797,10.591h0.588v0.589h-0.588V10.591z
			 M13.623,10.591h0.588v0.589h-0.588V10.591z M12.447,10.591h0.588v0.589h-0.588V10.591z M8.922,15.412v-3.646h6.463v3.646H8.922z"
			/>
		<path fill="#FFFFFF" d="M7.333,9.003h2.026V0H0.027v16h7.307L7.333,9.003L7.333,9.003z M1.36,1.333h6.667v1.601H1.36V1.333z
			 M1.36,4.267h6.667v1.6H1.36V4.267z M1.36,7.2h6.667v1.6H1.36V7.2z M4.231,14.15l-0.732-3.334h0.84l0.397,2.576h0.009l0.401-2.576
			h0.841L5.23,14.15H4.231z"/>
		<g>
			<path fill="#FFFFFF" d="M9.547,13.684c0-0.209,0.027-0.384,0.086-0.521c0.043-0.104,0.102-0.198,0.178-0.281
				c0.074-0.083,0.156-0.146,0.244-0.188c0.119-0.053,0.256-0.079,0.41-0.079c0.279,0,0.504,0.097,0.672,0.28
				c0.166,0.188,0.25,0.446,0.25,0.78c0,0.331-0.082,0.593-0.248,0.777c-0.168,0.188-0.391,0.28-0.67,0.28
				c-0.281,0-0.506-0.094-0.672-0.278C9.629,14.268,9.547,14.011,9.547,13.684z M9.941,13.67c0,0.232,0.049,0.408,0.146,0.528
				s0.228,0.18,0.379,0.18c0.152,0,0.277-0.06,0.375-0.179c0.103-0.118,0.148-0.297,0.148-0.535c0-0.234-0.052-0.41-0.146-0.525
				c-0.094-0.115-0.221-0.175-0.379-0.175c-0.157,0-0.284,0.06-0.383,0.177C9.99,13.257,9.941,13.434,9.941,13.67z"/>
			<path fill="#FFFFFF" d="M12.172,14.697l-0.68-2.053h0.416l0.48,1.52l0.465-1.52h0.4l-0.68,2.053H12.172z"/>
			<path fill="#FFFFFF" d="M13.459,14.697v-2.053h1.301v0.348h-0.918v0.486h0.793v0.347h-0.793v0.872H13.459z"/>
		</g>
	</g>
	<path fill="#FFFFFF" d="M11.48,7.614l3.711,1.61l-0.287-4.041L14.318,5.6c0,0-2.234-2.114-4.674-0.581c0,0,2.479,0.666,2.684,1.991
		L11.48,7.614z"/>
</g>
</svg>
