<?xml version="1.0" encoding="utf-8"?>
<!-- Generator: Adobe Illustrator 16.0.0, SVG Export Plug-In . SVG Version: 6.00 Build 0)  -->
<!DOCTYPE svg PUBLIC "-//W3C//DTD SVG 1.1//EN" "http://www.w3.org/Graphics/SVG/1.1/DTD/svg11.dtd">
<svg version="1.1" id="图层_1" xmlns="http://www.w3.org/2000/svg" xmlns:xlink="http://www.w3.org/1999/xlink" x="0px" y="0px"
	 width="16px" height="16px" viewBox="0 0 16 16" enable-background="new 0 0 16 16" xml:space="preserve">
<g>
	<g>
		<path fill="#FFFFFF" d="M12.648,10.609l1.615,2.051c0.241,0.238,0.514,0.09,0.629-0.014l0.133-0.129
			c0.098-0.113,0.248-0.351,0.033-0.636l-2.074-1.608c0.166-0.312,0.123-0.705-0.146-0.967c-0.215-0.218-0.516-0.281-0.791-0.209
			l0.5,0.5v0.576h-0.575l-0.5-0.5c-0.072,0.273-0.009,0.575,0.211,0.79C11.945,10.73,12.338,10.775,12.648,10.609z M14.475,12.342
			c-0.063-0.066-0.063-0.176,0-0.242c0.066-0.063,0.174-0.063,0.242,0c0.066,0.066,0.066,0.176,0,0.242
			C14.648,12.408,14.541,12.408,14.475,12.342z"/>
		<path fill="#FFFFFF" d="M13.154,10.643l0.18-0.023l1.131-1.135V9.339l0.582-0.291l0.145,0.146L14.9,9.773h-0.146l-1.146,1.146
			l-0.021,0.154L12.322,12.7c-0.285,0.108-0.518,0.063-0.631-0.035l-0.129-0.131c-0.104-0.115-0.25-0.384-0.019-0.63L13.154,10.643z
			"/>
	</g>
	<path fill="#FFFFFF" d="M15.436,3.212H9.791c-0.273,0-0.492,0.198-0.545,0.457h0.312C9.598,3.582,9.688,3.52,9.791,3.52h5.645
		c0.146,0,0.256,0.117,0.256,0.258v3.641H13.02v0.819c0.195,0.089,0.375,0.207,0.531,0.362c0.018,0.021,0.029,0.039,0.045,0.062
		l1.648-0.826l0.639,0.641C15.951,8.377,16,8.268,16,8.143V3.777C16,3.463,15.746,3.212,15.436,3.212z M0.309,3.777
		c0-0.141,0.115-0.258,0.256-0.258H6.21c0.105,0,0.193,0.062,0.232,0.149h0.312C6.701,3.41,6.484,3.212,6.209,3.212H0.564
		C0.254,3.212,0,3.463,0,3.777v4.365c0,0.314,0.254,0.566,0.564,0.566h2.029v0.733H2.137v0.457h1.027V8.238
		C3.135,8.192,3.113,8.145,3.113,8.085c0-0.058,0.021-0.108,0.051-0.151V7.418H0.309V3.777z M11.676,4.301H4.51
		c-0.396,0-0.717,0.317-0.717,0.717v5.541c0,0.398,0.32,0.719,0.717,0.719h2.576v0.938h-0.58v0.576H9.68v-0.576H9.1v-0.938h1.688
		c0.021-0.021,0.022-0.047,0.045-0.062l0.047-0.049l0.058-0.043c-0.369-0.396-0.525-0.94-0.453-1.479H4.185V5.018
		c0-0.18,0.148-0.328,0.326-0.328h7.166C11.855,4.69,12,4.838,12,5.018v3.087c0.09-0.013,0.178-0.034,0.268-0.034
		c0.043,0,0.082,0.009,0.125,0.012V5.018C12.393,4.618,12.072,4.301,11.676,4.301z M6.102,7.248c0,1.049,0.85,1.898,1.898,1.898
		s1.898-0.854,1.898-1.898S9.049,5.35,8,5.35S6.102,6.2,6.102,7.248z M8.295,6.031h0.613L8.355,8.465H7.627L7.092,6.031h0.613
		l0.291,1.883h0.006L8.295,6.031z"/>
</g>
</svg>
