<?xml version="1.0" encoding="utf-8"?>
<!-- Generator: Adobe Illustrator 16.0.0, SVG Export Plug-In . SVG Version: 6.00 Build 0)  -->
<!DOCTYPE svg PUBLIC "-//W3C//DTD SVG 1.1//EN" "http://www.w3.org/Graphics/SVG/1.1/DTD/svg11.dtd">
<svg version="1.1" id="图层_1" xmlns="http://www.w3.org/2000/svg" xmlns:xlink="http://www.w3.org/1999/xlink" x="0px" y="0px"
	 width="16px" height="16px" viewBox="0 0 16 16" enable-background="new 0 0 16 16" xml:space="preserve">
<g>
	<path fill="#FFFFFF" d="M7.999,2.477c-4.247,0-7.512,4.783-7.641,4.986L0,7.995l0.358,0.53c0.129,0.214,3.394,4.996,7.641,4.996
		c0.489,0,0.964-0.068,1.424-0.187c-0.303-0.646-0.2-1.346,0.3-1.854l0.047-0.049l0.551-0.438c-0.018-0.015-0.026-0.022-0.049-0.038
		C9.549,11.348,8.779,11.613,8,11.613c-2.515,0-4.778-2.499-5.658-3.621C3.404,6.646,5.67,4.385,8,4.385
		c2.516,0,4.779,2.5,5.658,3.621c-0.03,0.038-0.071,0.084-0.104,0.123c0.023,0.062,0.062,0.119,0.09,0.182l0.248-0.248V7.639
		l1.375-0.687C14.284,5.678,11.477,2.477,7.999,2.477z M9.582,7.674l0.521-0.53l0.562-0.146C10.258,5.92,9.223,5.146,7.999,5.146
		c-1.576,0-2.856,1.28-2.856,2.849c0,1.577,1.28,2.856,2.856,2.856c0.617,0,1.187-0.201,1.653-0.533
		c-0.34-0.526-0.461-1.178-0.295-1.801L9.582,7.674z"/>
	<path fill="#FFFFFF" d="M13.723,10.534l1.613-1.611h0.223L16,8.036l-0.223-0.222l-0.887,0.442v0.221l-1.666,1.667L12.63,9.684
		c0.252-0.475,0.187-1.074-0.215-1.475c-0.328-0.328-0.789-0.432-1.208-0.322l0.766,0.765v0.886h-0.888L10.32,8.773
		c-0.11,0.418-0.008,0.881,0.318,1.207c0.396,0.396,1.002,0.471,1.478,0.215l0.319,0.406l-2,1.567
		c-0.361,0.375-0.14,0.784,0.021,0.962l0.196,0.2c0.175,0.147,0.527,0.224,0.964,0.052l1.497-1.923l1.467,1.86
		c0.376,0.359,0.784,0.138,0.961-0.021l0.201-0.198c0.148-0.175,0.379-0.524,0.052-0.963L13.723,10.534z M15.273,12.844
		c-0.104,0.1-0.271,0.1-0.369,0c-0.104-0.104-0.104-0.271,0-0.371c0.103-0.103,0.269-0.103,0.369,0
		C15.376,12.573,15.376,12.739,15.273,12.844z"/>
</g>
</svg>
