<?xml version="1.0" encoding="utf-8"?>
<!-- Generator: Adobe Illustrator 16.0.0, SVG Export Plug-In . SVG Version: 6.00 Build 0)  -->
<!DOCTYPE svg PUBLIC "-//W3C//DTD SVG 1.1//EN" "http://www.w3.org/Graphics/SVG/1.1/DTD/svg11.dtd">
<svg version="1.1" id="图层_1" xmlns="http://www.w3.org/2000/svg" xmlns:xlink="http://www.w3.org/1999/xlink" x="0px" y="0px"
	 width="16px" height="16px" viewBox="0 0 16 16" enable-background="new 0 0 16 16" xml:space="preserve">
<g>
	<path fill="#FFFFFF" d="
	M5.113,
	4.092 h4.093V3.069H5.113V4.092z M2.046,
	6.137 h7.16 V5.114h-7.16V6.137z M2.046,
	11.253v1.021h6.987 c-0-0-0-0-0-1H2.046z M3.068-0.001l-2.944,
	3.07H0V14.32h8.987c-0-0-0-0-0-1H1.022 V4.092h3.068V1.022h6.138v5.438c0.355,
	0.4,0.205,0.205,1,0.206v-6.668
	"/>
	<g>
	<rect x="2" y="9.2" fill="#FFFFFF" width="7.1" height="1.1"/>
	<rect x="2" y="7.2" fill="#FFFFFF" width="7.1" height="1.1"/>	
	<path fill="#FFFFFF" d="M9.664,7v9h5.25V7H9.664z M14.164,11.949h-3.75v-0.9h3.75V11.949z M14.164,10.3h-3.75V9.398h3.75V10.3z
	 M14.164,8.649h-3.75V7.748h3.75V8.649z M12.742,15.296h-0.773l-0.566-2.584h0.65l0.307,1.996h0.008l0.311-1.996h0.652
	L12.742,15.296z"/>
	</g>
</g>
</svg>
