<?xml version="1.0" encoding="utf-8"?>
<!-- Generator: Adobe Illustrator 16.0.0, SVG Export Plug-In . SVG Version: 6.00 Build 0)  -->
<!DOCTYPE svg PUBLIC "-//W3C//DTD SVG 1.1//EN" "http://www.w3.org/Graphics/SVG/1.1/DTD/svg11.dtd">
<svg version="1.1" id="图层_1" xmlns="http://www.w3.org/2000/svg" xmlns:xlink="http://www.w3.org/1999/xlink" x="0px" y="0px"
	 width="16px" height="16px" viewBox="0 0 16 16" enable-background="new 0 0 16 16" xml:space="preserve">
<g>
	<path fill="#FFFFFF" d="M9.777,0.707c0.002-0.005,0.006-0.008,0.009-0.011C9.725,0.665,9.654,0.64,9.591,0.609
		C9.533,0.582,9.48,0.546,9.422,0.521C9.42,0.524,9.415,0.527,9.414,0.531C8.648,0.197,7.813,0,6.924,0
		C6.037,0,5.199,0.197,4.436,0.531c-0.001-0.004-0.005-0.007-0.008-0.01C4.369,0.546,4.316,0.582,4.26,0.609
		C4.195,0.64,4.126,0.665,4.062,0.696c0.004,0.003,0.007,0.006,0.01,0.011C2.057,1.745,0.671,3.829,0.671,6.254
		c0,3.061,2.197,5.594,5.097,6.137v0.805H2.876c-0.555,0-0.578,0.578-0.578,0.578v1.156H8.35c-0.005-0.041,0.116-0.225,0.257-0.402
		c-0.201-0.477-0.312-1-0.312-1.549c0-2.213,1.801-4.015,4.016-4.015c0.104,0,0.194,0.022,0.295,0.03
		c0.242-0.719,0.574-2.037,0.574-2.74C13.178,3.829,11.792,1.745,9.777,0.707z M6.924,0.579c0.731,0,1.416,0.171,2.059,0.427
		C8.438,1.502,7.722,1.81,6.924,1.81c-0.796,0-1.512-0.308-2.056-0.804C5.509,0.75,6.193,0.579,6.924,0.579z M6.924,9.326
		c-1.699,0-3.071-1.375-3.071-3.072c0-1.698,1.372-3.073,3.071-3.073c1.697,0,3.072,1.375,3.072,3.073
		C9.996,7.952,8.621,9.326,6.924,9.326z M6.924,4.626c-0.31,0-0.595,0.092-0.842,0.241c0.078-0.022,0.157-0.039,0.24-0.039
		c0.456,0,0.827,0.369,0.827,0.824c0,0.458-0.371,0.825-0.827,0.825c-0.454,0-0.823-0.368-0.823-0.825
		c0-0.083,0.017-0.163,0.04-0.241C5.388,5.659,5.298,5.944,5.298,6.254c0,0.898,0.727,1.625,1.626,1.625
		c0.899,0,1.628-0.727,1.628-1.625C8.552,5.355,7.823,4.626,6.924,4.626z"/>
	<path fill="#FFFFFF" d="M12.309,9.957c-1.668,0-3.021,1.354-3.021,3.021c0,1.666,1.353,3.021,3.021,3.021s3.021-1.354,3.021-3.021
		C15.33,11.311,13.977,9.957,12.309,9.957z M14.055,13.497h-1.217v1.185h-1.062v-1.185h-1.215v-1.036h1.215v-1.186h1.062v1.186
		h1.217V13.497z"/>
</g>
</svg>
