<?xml version="1.0" encoding="utf-8"?>
<!-- Generator: Adobe Illustrator 16.0.0, SVG Export Plug-In . SVG Version: 6.00 Build 0)  -->
<!DOCTYPE svg PUBLIC "-//W3C//DTD SVG 1.1//EN" "http://www.w3.org/Graphics/SVG/1.1/DTD/svg11.dtd">
<svg version="1.1" id="图层_1" xmlns="http://www.w3.org/2000/svg" xmlns:xlink="http://www.w3.org/1999/xlink" x="0px" y="0px"
	 width="16px" height="16px" viewBox="0 0 16 16" enable-background="new 0 0 16 16" xml:space="preserve">
<g>
	<g>
		<polygon fill="#FFFFFF" points="8.001,12.927 12.827,7.03 9.369,7.03 9.369,3.073 6.632,3.073 6.632,7.03 3.174,7.03 		"/>
	</g>
	<g>
		<g>
			<path fill="#FFFFFF" d="M0,8c0-4.412,3.589-8,8-8c4.412,0,8,3.588,8,8s-3.588,8-8,8C3.589,16,0,12.412,0,8z M1.371,8
				c0,3.654,2.975,6.629,6.629,6.629c3.654,0,6.629-2.975,6.629-6.629c0-3.655-2.975-6.629-6.629-6.629
				C4.346,1.371,1.371,4.345,1.371,8z"/>
		</g>
	</g>
</g>
</svg>
