<?xml version="1.0" encoding="utf-8"?>
<!-- Generator: Adobe Illustrator 16.0.0, SVG Export Plug-In . SVG Version: 6.00 Build 0)  -->
<!DOCTYPE svg PUBLIC "-//W3C//DTD SVG 1.1//EN" "http://www.w3.org/Graphics/SVG/1.1/DTD/svg11.dtd">
<svg version="1.1" id="图层_1" xmlns="http://www.w3.org/2000/svg" xmlns:xlink="http://www.w3.org/1999/xlink" x="0px" y="0px"
	 width="16px" height="16px" viewBox="0 0 16 16" enable-background="new 0 0 16 16" xml:space="preserve">
<path fill="#FFFFFF" d="M14.786,6.017c-0.995-0.995-2.371-1.374-3.66-1.143c-0.163-0.257-0.353-0.504-0.574-0.728
	c-1.647-1.647-4.319-1.647-5.968,0c-0.497,0.498-0.837,1.09-1.032,1.717C1.585,5.898,0,7.498,0,9.475
	c0,1.961,1.563,3.547,3.511,3.604v0.01h8.499v-0.013c1.008-0.037,2.006-0.43,2.776-1.199C16.402,10.259,16.406,7.636,14.786,6.017z
	 M2.683,10.652H1.932L1.381,8.147h0.632l0.298,1.938h0.007L2.62,8.147h0.631L2.683,10.652z M5.79,10.652H5.243v-1.95H5.236
	l-0.383,1.95H4.397l-0.404-1.95H3.986v1.95H3.46V8.147h0.863l0.309,1.646H4.64l0.298-1.646H5.79V10.652z M8.268,10.652H7.614
	L7.358,8.874H7.352L7.11,10.652H6.456L6.014,8.147h0.59L6.822,9.93h0.007l0.26-1.783h0.548l0.28,1.783h0.007l0.211-1.783h0.568
	L8.268,10.652z M10.123,10.652l-0.091-0.479H9.432l-0.088,0.479H8.732l0.64-2.505h0.735l0.625,2.505H10.123z M12.684,10.652h-0.636
	c-0.046-0.084-0.063-0.229-0.063-0.508c0-0.438-0.06-0.526-0.238-0.526h-0.229v1.034h-0.592V8.147h0.99
	c0.501,0,0.674,0.31,0.674,0.653c0,0.365-0.146,0.544-0.422,0.61v0.008c0.375,0.053,0.396,0.287,0.402,0.624
	c0.012,0.495,0.027,0.544,0.111,0.579v0.031H12.684z M14.43,10.652h-1.49V8.147h1.449v0.479h-0.859v0.501h0.812v0.479h-0.812v0.571
	h0.898v0.476H14.43L14.43,10.652z M9.723,8.604L9.516,9.721h0.43L9.729,8.604H9.723z M11.693,8.562h-0.18v0.643h0.182
	c0.24,0,0.304-0.18,0.304-0.326C11.999,8.688,11.93,8.562,11.693,8.562z"/>
</svg>
