<?xml version="1.0" encoding="utf-8"?>
<!-- Generator: Adobe Illustrator 16.0.0, SVG Export Plug-In . SVG Version: 6.00 Build 0)  -->
<!DOCTYPE svg PUBLIC "-//W3C//DTD SVG 1.1//EN" "http://www.w3.org/Graphics/SVG/1.1/DTD/svg11.dtd">
<svg version="1.1" id="图层_1" xmlns="http://www.w3.org/2000/svg" xmlns:xlink="http://www.w3.org/1999/xlink" x="0px" y="0px"
	 width="16px" height="16px" viewBox="0 0 16 16" enable-background="new 0 0 16 16" xml:space="preserve">
<g>
	<path fill="#FFFFFF" d="M9.087,9.996c-1.641,0.324-2.71,1.916-2.386,3.559c0.322,1.641,1.915,2.711,3.558,2.387
		c1.641-0.324,2.71-1.916,2.386-3.559C12.322,10.742,10.729,9.674,9.087,9.996z M11.894,13.145l-1.672,1.176
		c-0.187,0.121-0.335,0.049-0.332-0.164l0.01-0.654c-1.197-0.072-1.884,0.32-2.261,1.201c-0.094-1.178,0.693-2.229,2.278-2.416
		l0.012-0.674c0.004-0.211,0.155-0.277,0.336-0.152l1.637,1.234C12.084,12.822,12.079,13.023,11.894,13.145z"/>
	<path fill="#FFFFFF" d="M0-0.001v14.888h6.514c-0.479-0.627-0.776-1.4-0.776-2.248c0-1.787,1.266-3.281,2.947-3.639v-9.001H0z
		 M4.342,13.223c-0.526,0-0.956-0.43-0.956-0.957c0-0.529,0.43-0.957,0.956-0.957c0.53,0,0.957,0.428,0.957,0.957
		C5.299,12.793,4.872,13.223,4.342,13.223z M5.663,9.135H3.048L1.131,2.621H3.33l1.04,5.033h0.022l1.051-5.033h2.201L5.663,9.135z"
		/>
</g>
</svg>
