<?xml version="1.0" encoding="utf-8"?>
<!-- Generator: Adobe Illustrator 16.0.0, SVG Export Plug-In . SVG Version: 6.00 Build 0)  -->
<!DOCTYPE svg PUBLIC "-//W3C//DTD SVG 1.1//EN" "http://www.w3.org/Graphics/SVG/1.1/DTD/svg11.dtd">
<svg version="1.1" id="图层_1" xmlns="http://www.w3.org/2000/svg" xmlns:xlink="http://www.w3.org/1999/xlink" x="0px" y="0px"
	 width="16px" height="16px" viewBox="0 0 16 16" enable-background="new 0 0 16 16" xml:space="preserve">
<g>
	<g>
		<g>
			<g>
				<g>
					<g>
						<path fill="#FFFFFF" d="M3.749,8.367c-0.033,0-0.062,0.027-0.062,0.062v1.385c0,0.033,0.029,0.062,0.062,0.062h1.385
							c0.033,0,0.062-0.026,0.062-0.062V8.429c0-0.034-0.029-0.062-0.062-0.062H3.749z"/>
					</g>
				</g>
			</g>
			<g>
				<g>
					<g>
						<path fill="#FFFFFF" d="M3.749,10.998c-0.033,0-0.062,0.027-0.062,0.062v1.385c0,0.033,0.029,0.062,0.062,0.062h1.385
							c0.033,0,0.062-0.026,0.062-0.062v-1.385c0-0.035-0.029-0.062-0.062-0.062"/>
					</g>
				</g>
			</g>
			<polygon fill="#FFFFFF" points="6.063,5.432 5.874,5.244 4.36,6.48 3.876,5.866 3.491,6.268 4.36,7.398 			"/>
		</g>
		<g>
			<rect x="6.87" y="8.625" fill="#FFFFFF" width="5.639" height="0.993"/>
		</g>
		<g>
			<rect x="6.87" y="11.256" fill="#FFFFFF" width="5.639" height="0.992"/>
		</g>
		<g>
			<rect x="6.87" y="5.994" fill="#FFFFFF" width="5.639" height="0.994"/>
		</g>
	</g>
	<path fill="#FFFFFF" d="M14.154,1.23H1.847C0.827,1.23,0,2.057,0,3.076v9.847c0,1.019,0.827,1.847,1.847,1.847h12.307
		c1.02,0,1.847-0.828,1.847-1.847V3.076C16,2.057,15.173,1.23,14.154,1.23z M14.77,12.923c0,0.339-0.272,0.615-0.615,0.615H1.847
		c-0.34,0-0.616-0.276-0.616-0.615V4.308H14.77V12.923z"/>
</g>
</svg>
