<?xml version="1.0" encoding="utf-8"?>
<!-- Generator: Adobe Illustrator 16.0.0, SVG Export Plug-In . SVG Version: 6.00 Build 0)  -->
<!DOCTYPE svg PUBLIC "-//W3C//DTD SVG 1.1//EN" "http://www.w3.org/Graphics/SVG/1.1/DTD/svg11.dtd">
<svg version="1.1" id="图层_1" xmlns="http://www.w3.org/2000/svg" xmlns:xlink="http://www.w3.org/1999/xlink" x="0px" y="0px"
	 width="16px" height="16px" viewBox="0 0 16 16" enable-background="new 0 0 16 16" xml:space="preserve">
<g>
	<path fill="#FFFFFF" d="M8,0C3.589,0,0,3.589,0,8s3.589,8,8,8c4.41,0,8-3.589,8-8S12.41,0,8,0z M8,14.629
		c-3.655,0-6.629-2.975-6.629-6.629c0-3.654,2.974-6.629,6.629-6.629c3.654,0,6.629,2.975,6.629,6.629
		C14.629,11.654,11.654,14.629,8,14.629z"/>
	<polygon fill="#FFFFFF" points="12.275,7.184 10.863,6.369 10.863,7.524 8.475,7.524 8.475,5.136 9.631,5.136 8.814,3.724 8,2.312 
		7.184,3.724 6.368,5.136 7.524,5.136 7.524,7.524 5.137,7.524 5.137,6.369 3.725,7.184 2.312,8 3.725,8.816 5.137,9.631 
		5.137,8.476 7.524,8.476 7.524,10.863 6.368,10.863 7.184,12.275 8,13.688 8.814,12.275 9.631,10.863 8.475,10.863 8.475,8.476 
		10.863,8.476 10.863,9.631 12.275,8.816 13.688,8 	"/>
</g>
</svg>
