<?xml version="1.0" encoding="utf-8"?>
<!-- Generator: Adobe Illustrator 16.0.0, SVG Export Plug-In . SVG Version: 6.00 Build 0)  -->
<!DOCTYPE svg PUBLIC "-//W3C//DTD SVG 1.1//EN" "http://www.w3.org/Graphics/SVG/1.1/DTD/svg11.dtd">
<svg version="1.1" id="图层_1" xmlns="http://www.w3.org/2000/svg" xmlns:xlink="http://www.w3.org/1999/xlink" x="0px" y="0px"
	 width="16px" height="16px" viewBox="0 0 16 16" enable-background="new 0 0 16 16" xml:space="preserve">
<g>
	<path fill="#FFFFFF" d="M12.316,14.025l-0.562-2.295l2.295,0.561l-0.297,0.297c0,0,0.998,1.494-0.126,2.75
		c0,0-0.14-1.494-0.883-1.742L12.316,14.025z"/>
	<path fill="#FFFFFF" d="M14.154,12.186l-0.562-2.295l2.297,0.562L15.59,10.75c0,0,0.998,1.494-0.126,2.748
		c0,0-0.139-1.494-0.882-1.74L14.154,12.186z"/>
	<path fill="#FFFFFF" d="M10.504,10.814l-0.107-0.443l1.701,0.416c0.229-0.016,0.446-0.041,0.666-0.092l-0.529-2.164l2.822,0.691
		c1.275-1.625,1.188-3.972-0.311-5.468c-0.993-0.991-2.366-1.369-3.65-1.14c-0.162-0.255-0.35-0.502-0.574-0.725
		c-1.644-1.644-4.306-1.644-5.951,0c-0.496,0.5-0.834,1.09-1.029,1.716C1.58,3.643,0,5.238,0,7.208c0,1.955,1.559,3.539,3.501,3.597
		v0.01H10.504L10.504,10.814z M6.946,5.018l0.705,1.966l0.733-1.966h1.515l0.627,1.868l0.646-1.868h0.848v3.139h-0.77V6.919
		l-0.436,1.237h-0.623L9.766,6.904v1.253h-0.77V5.552l-1.02,2.604H7.319L6.104,5.018H6.946z M3.816,5.732
		c0.127-0.247,0.311-0.44,0.548-0.569c0.233-0.128,0.486-0.19,0.759-0.19c0.316,0,0.591,0.085,0.813,0.249
		c0.221,0.167,0.378,0.4,0.463,0.693l0.06,0.211l-0.758,0.18l-0.06-0.185C5.594,5.968,5.527,5.856,5.44,5.791
		C5.359,5.732,5.253,5.7,5.116,5.7c-0.168,0-0.295,0.038-0.4,0.111C4.61,5.884,4.539,5.981,4.497,6.109
		c-0.05,0.146-0.075,0.302-0.075,0.455c0,0.204,0.029,0.381,0.086,0.53c0.052,0.129,0.125,0.22,0.228,0.281
		c0.111,0.066,0.226,0.101,0.351,0.101c0.154,0,0.276-0.042,0.377-0.128c0.104-0.083,0.175-0.22,0.215-0.401l0.046-0.206l0.778,0.19
		L6.446,7.136C6.36,7.478,6.199,7.741,5.967,7.925C5.733,8.11,5.448,8.203,5.117,8.203c-0.333,0-0.611-0.069-0.827-0.213
		c-0.222-0.143-0.387-0.348-0.5-0.614c-0.103-0.25-0.16-0.525-0.16-0.812C3.63,6.25,3.691,5.971,3.816,5.732z"/>
</g>
</svg>
