<?xml version="1.0" encoding="utf-8"?>
<!-- Generator: Adobe Illustrator 16.0.0, SVG Export Plug-In . SVG Version: 6.00 Build 0)  -->
<!DOCTYPE svg PUBLIC "-//W3C//DTD SVG 1.1//EN" "http://www.w3.org/Graphics/SVG/1.1/DTD/svg11.dtd">
<svg version="1.1" id="图层_1" xmlns="http://www.w3.org/2000/svg" xmlns:xlink="http://www.w3.org/1999/xlink" x="0px" y="0px"
	 width="16px" height="16px" viewBox="0 0 16 16" enable-background="new 0 0 16 16" xml:space="preserve">
<g>
	<path fill="#FFFFFF" d="M8.975,3.426c0.512,0,1.002,0.031,1.469,0.09c0.062-0.141,0.098-0.281,0.098-0.43
		c0-1.279-2.326-2.312-5.196-2.312c-2.872,0-5.197,1.033-5.197,2.312c0,0.991,1.398,1.832,3.364,2.162
		C4.39,4.156,6.45,3.426,8.975,3.426z"/>
	<path fill="#FFFFFF" d="M0.142,3.721v1.77c0,0.91,1.182,1.693,2.896,2.071c0,0,0-0.864,0-1.086c0-0.224,0.046-0.446,0.129-0.654
		C1.383,5.453,0.142,4.654,0.142,3.721z"/>
	<path fill="#FFFFFF" d="M7.788,14.168c-2.297-0.238-4.01-1.152-4.01-2.25v1.77C3.778,14.967,6.105,16,8.975,16
		c0.066,0,0.129-0.004,0.194-0.005C8.562,15.52,8.079,14.896,7.788,14.168z"/>
	<path fill="#FFFFFF" d="M0.142,8.527v1.771c0,0.906,1.182,1.692,2.896,2.069v-1.77C1.324,10.223,0.142,9.436,0.142,8.527z"/>
	<path fill="#FFFFFF" d="M0.142,6.124v1.768c0,0.911,1.182,1.694,2.896,2.074V8.197C1.324,7.817,0.142,7.033,0.142,6.124z"/>
	<path fill="#FFFFFF" d="M9.643,8.77c0.658-0.391,1.414-0.625,2.232-0.625c0.195,0,0.379,0.032,0.566,0.057
		c1.061-0.424,1.729-1.036,1.729-1.722c0-1.277-2.324-2.312-5.195-2.312c-2.872,0-5.199,1.034-5.199,2.312
		c0,1.279,2.327,2.315,5.199,2.315C9.201,8.791,9.424,8.782,9.643,8.77z"/>
	<path fill="#FFFFFF" d="M3.778,9.516v1.771c0,1.062,1.612,1.958,3.806,2.229C7.514,13.2,7.47,12.879,7.47,12.547
		c0-0.277,0.033-0.545,0.082-0.808C5.375,11.463,3.778,10.57,3.778,9.516z"/>
	<path fill="#FFFFFF" d="M8.777,9.419c-2.777-0.046-5-1.058-5-2.307v1.77c0,1.086,1.683,1.993,3.949,2.242
		C7.949,10.477,8.302,9.893,8.777,9.419z"/>
	<path fill="#FFFFFF" d="M11.488,3.086c0,0.128-0.014,0.254-0.039,0.382c0.623,0.135,1.199,0.328,1.709,0.566
		c1.594-0.345,2.699-1.064,2.699-1.907C15.857,0.951,13.719,0,11.078,0c-0.885,0-1.705,0.114-2.416,0.301
		C10.295,0.82,11.488,1.756,11.488,3.086z"/>
	<path fill="#FFFFFF" d="M13.867,4.434c0.477,0.324,0.84,0.712,1.047,1.162c0.586-0.354,0.943-0.785,0.943-1.258V2.711
		C15.857,3.422,15.068,4.047,13.867,4.434z"/>
	<path fill="#FFFFFF" d="M15.072,6.086c0.023,0.128,0.051,0.254,0.051,0.39c0,0.395-0.137,1.003-0.738,1.604
		c0.904-0.387,1.473-0.929,1.473-1.531V4.921C15.857,5.352,15.566,5.751,15.072,6.086z"/>
	<path fill="#FFFFFF" d="M14.094,8.77c0.447,0.269,0.846,0.602,1.174,0.992c0.365-0.301,0.59-0.639,0.59-1.004V7.131
		C15.857,7.795,15.162,8.379,14.094,8.77z"/>
	<path fill="#FFFFFF" d="M11.875,9.092c-1.907,0-3.454,1.547-3.454,3.455c0,1.907,1.546,3.453,3.454,3.453s3.455-1.546,3.455-3.453
		C15.33,10.639,13.783,9.092,11.875,9.092z M13.658,13.141h-1.189v1.188h-1.188v-1.188h-1.188v-1.188h1.188v-1.188h1.188v1.188
		h1.189V13.141z"/>
</g>
</svg>
