<?xml version="1.0" encoding="utf-8"?>
<!-- Generator: Adobe Illustrator 16.0.0, SVG Export Plug-In . SVG Version: 6.00 Build 0)  -->
<!DOCTYPE svg PUBLIC "-//W3C//DTD SVG 1.1//EN" "http://www.w3.org/Graphics/SVG/1.1/DTD/svg11.dtd">
<svg version="1.1" id="图层_1" xmlns="http://www.w3.org/2000/svg" xmlns:xlink="http://www.w3.org/1999/xlink" x="0px" y="0px"
	 width="16px" height="16px" viewBox="0 0 16 16" enable-background="new 0 0 16 16" xml:space="preserve">
<g>
	<g>
		<g>
			<path fill="#F74848" d="M11.322,10.646v0.426v1.279v0.422c0,0.274,0.223,0.5,0.498,0.5s0.498-0.226,0.498-0.5v-0.422v-1.279
				v-0.426c0-0.272-0.223-0.496-0.498-0.496S11.322,10.373,11.322,10.646z"/>
			<path fill="#FFFFFF" d="M9.215,15.77c-0.737-0.691-1.163-1.635-1.198-2.65c-0.037-1.194,0.471-2.311,1.393-3.064
				c0.23-0.197,0.55-0.314,0.88-0.314c0.108,0,0.215,0.014,0.317,0.037c0.019-0.023,0.041-0.043,0.062-0.066V0.033H1.374v15.934
				h8.095C9.385,15.898,9.294,15.844,9.215,15.77z M2.701,1.36h6.64v1.595h-6.64V1.36z M2.701,4.283h6.64v1.591h-6.64V4.283z
				 M2.701,7.204h6.64v1.593h-6.64V7.204z M6.02,13.902c-0.55,0-0.995-0.445-0.995-0.994c0-0.551,0.445-0.996,0.995-0.996
				c0.552,0,0.997,0.445,0.997,0.996C7.017,13.457,6.571,13.902,6.02,13.902z"/>
			<path fill="#F74848" d="M11.816,15.803c-0.713,0-1.396-0.271-1.916-0.762c-0.545-0.512-0.858-1.207-0.885-1.957
				c-0.026-0.878,0.346-1.699,1.026-2.256c0.067-0.059,0.157-0.09,0.246-0.09c0.119,0,0.229,0.054,0.303,0.145
				c0.066,0.082,0.101,0.184,0.089,0.286c-0.013,0.104-0.062,0.198-0.144,0.265c-0.488,0.403-0.757,0.994-0.736,1.627
				c0.017,0.537,0.243,1.039,0.636,1.41c0.379,0.354,0.869,0.547,1.385,0.547c0.6-0.016,1.102-0.242,1.473-0.637
				c0.371-0.393,0.564-0.906,0.547-1.445c-0.02-0.59-0.289-1.14-0.75-1.511c-0.166-0.135-0.193-0.383-0.057-0.552
				c0.076-0.092,0.188-0.145,0.305-0.145c0.092,0,0.178,0.031,0.248,0.086c0.635,0.516,1.012,1.279,1.039,2.094
				c0.023,0.751-0.246,1.465-0.762,2.009c-0.512,0.547-1.207,0.86-1.955,0.884L11.816,15.803z"/>
		</g>
	</g>
</g>
</svg>
