<?xml version="1.0" encoding="utf-8"?>
<!-- Generator: Adobe Illustrator 16.0.0, SVG Export Plug-In . SVG Version: 6.00 Build 0)  -->
<!DOCTYPE svg PUBLIC "-//W3C//DTD SVG 1.1//EN" "http://www.w3.org/Graphics/SVG/1.1/DTD/svg11.dtd">
<svg version="1.1" id="图层_1" xmlns="http://www.w3.org/2000/svg" xmlns:xlink="http://www.w3.org/1999/xlink" x="0px" y="0px"
	 width="16px" height="16px" viewBox="0 0 16 16" enable-background="new 0 0 16 16" xml:space="preserve">
<g>
	<path fill="#FFFFFF" d="M6.711,11.678c0-0.492,0.214-0.937,0.556-1.24c-0.002-0.035-0.003-0.063-0.003-0.102
		c0-0.436,0.166-0.85,0.466-1.163l0.723-0.717c0.301-0.305,0.73-0.485,1.17-0.485c0.037,0,0.072,0.002,0.109,0.004
		C9.844,7.85,9.979,7.75,10.123,7.663C9.709,6.826,9.443,5.58,9.443,4.18c0-1.495-0.962-2.764-2.299-3.23
		C7.054,0.415,6.587,0,6.022,0C5.458,0,4.99,0.415,4.901,0.949c-1.339,0.467-2.3,1.735-2.3,3.23c0,1.979-0.523,3.663-1.256,4.296
		c-0.409,0.353-0.644,0.867-0.644,1.41c0,0.629,0.51,1.141,1.14,1.141h3.043c0,0.629,0.51,1.144,1.139,1.144
		c0.264,0,0.495-0.104,0.688-0.255V11.678z M5.089,2.671c0.052-0.053,0.124-0.083,0.196-0.083h1.474c0.073,0,0.145,0.03,0.196,0.083
		c0.054,0.055,0.08,0.125,0.077,0.201l-0.056,1.81L6.748,6.519C6.73,6.656,6.612,6.757,6.473,6.757H5.57
		c-0.142,0-0.257-0.101-0.273-0.238L5.071,4.707l-0.06-1.835C5.01,2.796,5.036,2.726,5.089,2.671z M5.011,8.568
		c0-0.562,0.453-1.014,1.011-1.014s1.01,0.457,1.01,1.014c0,0.557-0.452,1.009-1.01,1.009S5.011,9.126,5.011,8.568z"/>
	<path fill="#FFFFFF" d="M14.867,11.242h-0.861l0.617-0.613c0.168-0.168,0.168-0.439,0-0.607l-0.697-0.703
		C13.844,9.239,13.732,9.2,13.621,9.2c-0.112,0-0.223,0.039-0.307,0.118l-0.611,0.615V9.083c0-0.242-0.195-0.437-0.432-0.437h-1.297
		c-0.24,0-0.438,0.189-0.438,0.437v0.858L9.93,9.332C9.846,9.246,9.734,9.203,9.623,9.203c-0.107,0-0.219,0.043-0.303,0.129
		l-0.7,0.693c-0.079,0.082-0.125,0.189-0.125,0.311c0,0.109,0.045,0.221,0.125,0.303l0.606,0.604H8.378
		c-0.238,0-0.435,0.192-0.435,0.437v1.295c0,0.236,0.197,0.438,0.435,0.438h0.849L8.618,14.02c-0.173,0.168-0.173,0.438,0,0.61
		l0.692,0.692c0.084,0.087,0.192,0.128,0.309,0.128c0.111,0,0.222-0.041,0.306-0.128l0.618-0.614v0.858
		c0,0.242,0.191,0.435,0.436,0.435h1.297c0.234,0,0.435-0.192,0.435-0.435v-0.858l0.617,0.62c0.077,0.081,0.188,0.124,0.305,0.124
		c0.117,0,0.229-0.043,0.31-0.124l0.694-0.698c0.08-0.077,0.128-0.188,0.128-0.303c0-0.115-0.048-0.226-0.128-0.308l-0.61-0.612
		h0.854c0.236,0,0.434-0.196,0.434-0.433v-1.301C15.299,11.436,15.105,11.242,14.867,11.242z M11.621,14.154
		c-1.012,0-1.83-0.815-1.83-1.828c0-1.014,0.818-1.833,1.83-1.833s1.83,0.819,1.83,1.833C13.451,13.339,12.633,14.154,11.621,14.154
		z"/>
</g>
</svg>
