<?xml version="1.0" encoding="utf-8"?>
<!-- Generator: Adobe Illustrator 16.0.0, SVG Export Plug-In . SVG Version: 6.00 Build 0)  -->
<!DOCTYPE svg PUBLIC "-//W3C//DTD SVG 1.1//EN" "http://www.w3.org/Graphics/SVG/1.1/DTD/svg11.dtd">
<svg version="1.1" id="图层_1" xmlns="http://www.w3.org/2000/svg" xmlns:xlink="http://www.w3.org/1999/xlink" x="0px" y="0px"
	 width="16px" height="16px" viewBox="0 0 16 16" enable-background="new 0 0 16 16" xml:space="preserve">
<g>
	<path fill="#FFFFFF" d="M12.273,12.848l2.336,2.969c0.354,0.349,0.744,0.129,0.912-0.021l0.188-0.188
		c0.146-0.162,0.357-0.5,0.051-0.905l-3.001-2.343c0.24-0.441,0.177-1.019-0.202-1.396c-0.312-0.312-0.748-0.407-1.146-0.303
		l0.725,0.724v0.84h-0.842L10.572,11.5c-0.105,0.396-0.006,0.835,0.303,1.145C11.254,13.023,11.824,13.088,12.273,12.848z
		 M14.914,15.354c-0.098-0.098-0.098-0.254,0-0.352c0.096-0.098,0.254-0.098,0.352,0c0.096,0.098,0.096,0.254-0.002,0.352
		C15.168,15.45,15.01,15.45,14.914,15.354z"/>
	<path fill="#FFFFFF" d="M7.129,0C6.086,0.007,5.185,0.407,4.52,1.154C3.618,2.171,3.219,3.801,3.424,5.628
		c0.212,1.813,1.043,3.317,1.819,4.209v0.188c-0.696,0.305-4.308,1.938-4.807,3.242c-0.353,0.916-0.375,1.939-0.376,1.981L0.047,16
		H9.75c-0.393-0.669-0.314-1.428,0.217-1.975l0.045-0.047l0.469-0.369c-0.104-0.075-0.217-0.161-0.312-0.258
		c-0.546-0.547-0.762-1.354-0.562-2.107l0.203-0.771L9.63,10.295c-0.385-0.182-0.637-0.29-0.638-0.29L8.932,9.841
		c0.662-0.733,1.816-2.266,2.039-4.228C11.17,3.904,10.736,2.3,9.775,1.216C9.09,0.438,8.186,0.007,7.129,0z"/>
	<path fill="#FFFFFF" d="M13.004,12.895l0.262-0.037l1.637-1.639V11.01l0.846-0.422l0.211,0.209l-0.422,0.842h-0.209l-1.658,1.658
		l-0.033,0.225l-1.826,2.354c-0.41,0.158-0.746,0.093-0.91-0.05l-0.188-0.188c-0.147-0.173-0.36-0.562-0.019-0.91L13.004,12.895z"/>
</g>
</svg>
