<?xml version="1.0" encoding="utf-8"?>
<!-- Generator: Adobe Illustrator 16.0.0, SVG Export Plug-In . SVG Version: 6.00 Build 0)  -->
<!DOCTYPE svg PUBLIC "-//W3C//DTD SVG 1.1//EN" "http://www.w3.org/Graphics/SVG/1.1/DTD/svg11.dtd">
<svg version="1.1" id="图层_1" xmlns="http://www.w3.org/2000/svg" xmlns:xlink="http://www.w3.org/1999/xlink" x="0px" y="0px"
	 width="16px" height="16px" viewBox="0 0 16 16" enable-background="new 0 0 16 16" xml:space="preserve">
<g>
	<g>
		<g>
			<path fill="#FFFFFF" d="M9.314,6.959l3.992,1.771l-0.271-4.356l-0.637,0.442c0,0-2.395-2.302-5.042-0.669
				c0,0,2.671,0.739,2.878,2.172L9.314,6.959z"/>
		</g>
	</g>
	<g>
		<g>
			<path fill="#FFFFFF" d="M6.109,12.602l-3.992-1.771l0.271,4.356l0.637-0.441c0,0,2.391,2.302,5.041,0.669
				c0,0-2.672-0.739-2.879-2.173L6.109,12.602z"/>
		</g>
	</g>
	<path fill="#FFFFFF" d="M14.096,11.443h-0.701l0.502-0.498c0.143-0.137,0.143-0.357,0-0.494l-0.562-0.57
		c-0.062-0.064-0.158-0.097-0.248-0.097s-0.184,0.03-0.248,0.097L12.34,10.38v-0.69c0-0.192-0.156-0.353-0.354-0.353h-1.051
		c-0.197,0-0.354,0.156-0.354,0.353v0.699l-0.498-0.498c-0.067-0.065-0.158-0.104-0.248-0.104c-0.088,0-0.178,0.035-0.246,0.104
		L9.02,10.455c-0.062,0.066-0.102,0.158-0.102,0.252c0,0.09,0.037,0.182,0.102,0.247l0.492,0.489H8.822
		c-0.193,0-0.354,0.156-0.354,0.354v1.055c0,0.19,0.16,0.354,0.354,0.354H9.51L9.016,13.7c-0.142,0.137-0.142,0.356,0,0.495
		l0.563,0.562c0.067,0.07,0.157,0.104,0.248,0.104c0.09,0,0.182-0.032,0.248-0.104l0.504-0.5v0.699c0,0.192,0.155,0.354,0.354,0.354
		h1.051c0.195,0,0.354-0.156,0.354-0.354v-0.699l0.5,0.507c0.066,0.063,0.154,0.103,0.248,0.103s0.184-0.035,0.248-0.103
		l0.568-0.568c0.062-0.062,0.104-0.151,0.104-0.243c0-0.095-0.037-0.185-0.104-0.249l-0.5-0.499h0.693
		c0.189,0,0.35-0.159,0.35-0.353v-1.056C14.445,11.602,14.289,11.443,14.096,11.443z M11.457,13.812
		c-0.822,0-1.486-0.664-1.486-1.486c0-0.824,0.664-1.49,1.486-1.49c0.824,0,1.488,0.666,1.488,1.49
		C12.945,13.146,12.281,13.812,11.457,13.812z"/>
	<g>
		<rect x="1.561" y="7.203" fill="#FFFFFF" width="3.824" height="0.992"/>
		<rect x="1.561" y="8.757" fill="#FFFFFF" width="5.484" height="0.989"/>
	</g>
	<g>
		<path fill="#FFFFFF" d="M3.641,4.283C3.27,4.432,1.846,5.135,1.699,5.523C1.562,5.871,1.555,6.272,1.555,6.272H6.99
			c0,0,0.018-0.401-0.119-0.749c-0.15-0.389-1.543-1.092-1.92-1.24C4.926,4.271,4.754,4.208,4.754,4.179v-0.37
			c0.32-0.329,0.795-0.967,0.883-1.738C5.768,0.93,5.154,0.004,4.332,0H4.293C3.336,0.004,2.877,0.937,3.004,2.076
			c0.092,0.769,0.467,1.403,0.789,1.732v0.37C3.793,4.208,3.668,4.271,3.641,4.283z"/>
	</g>
</g>
</svg>
