<?xml version="1.0" encoding="utf-8"?>
<!-- Generator: Adobe Illustrator 16.0.0, SVG Export Plug-In . SVG Version: 6.00 Build 0)  -->
<!DOCTYPE svg PUBLIC "-//W3C//DTD SVG 1.1//EN" "http://www.w3.org/Graphics/SVG/1.1/DTD/svg11.dtd">
<svg version="1.1" id="图层_1" xmlns="http://www.w3.org/2000/svg" xmlns:xlink="http://www.w3.org/1999/xlink" x="0px" y="0px"
	 width="16px" height="16px" viewBox="0 0 16 16" enable-background="new 0 0 16 16" xml:space="preserve">
<g>
	<path fill="#FFFFFF" d="M5.882,10.312l0.109-0.07c-0.807-0.069-1.442-0.739-1.442-1.565c0-0.872,0.706-1.579,1.577-1.579
		c0.872,0,1.579,0.707,1.579,1.579c0,0.179-0.036,0.349-0.091,0.509l0.86-0.562l1.189,1.897c0.291-0.56,0.471-1.176,0.471-1.851
		c0-2.213-1.793-4.008-4.008-4.008c-2.213,0-4.008,1.795-4.008,4.008c0,2.218,1.795,4.013,4.008,4.013
		c0.413,0,0.803-0.08,1.178-0.195L5.882,10.312z M8.155,5.708C8.525,5.962,8.848,6.285,9.1,6.655L7.808,7.536
		C7.665,7.325,7.484,7.145,7.275,7.001L8.155,5.708z M4.106,11.65c-0.372-0.252-0.693-0.575-0.947-0.945L4.45,9.824
		c0.145,0.209,0.327,0.394,0.537,0.535L4.106,11.65z"/>
	<path fill="#FFFFFF" d="M9.127,1v1h2v8.152l1,0.595V1H9.127z M2.126,4h8V3h-2V0h-4v3h-2V4z M5.626,1h1v1h-1V1z M1.126,15V2h2V1h-3
		v15h11.528c-0.262-0.289-0.463-0.626-0.596-1H1.126z"/>
	<path fill="#FFFFFF" d="M13.873,11.999c-1.104,0-2,0.896-2,2S12.77,16,13.873,16c1.105,0,2-0.896,2-2.001
		S14.979,11.999,13.873,11.999z M14.244,15.27h-0.762l-0.562-2.541h0.645l0.303,1.965h0.008l0.305-1.965h0.646L14.244,15.27z"/>
	<path fill="#FFFFFF" d="M9.658,12.396l-1.49-2.379l-0.901,0.588l2.161,3.307l1.682-1.441l0.148,0.088
		c0.166-0.298,0.375-0.562,0.629-0.789l-0.883-0.521L9.658,12.396z"/>
</g>
</svg>
