<?xml version="1.0" encoding="utf-8"?>
<!-- Generator: Adobe Illustrator 16.0.0, SVG Export Plug-In . SVG Version: 6.00 Build 0)  -->
<!DOCTYPE svg PUBLIC "-//W3C//DTD SVG 1.1//EN" "http://www.w3.org/Graphics/SVG/1.1/DTD/svg11.dtd">
<svg version="1.1" id="图层_1" xmlns="http://www.w3.org/2000/svg" xmlns:xlink="http://www.w3.org/1999/xlink" x="0px" y="0px"
	 width="16px" height="16px" viewBox="0 0 16 16" enable-background="new 0 0 16 16" xml:space="preserve">
<g>
	<path fill="#FFFFFF" d="M8.185,12.643c0-0.988,0.344-1.89,0.898-2.621c-0.021-0.01-0.041-0.018-0.041-0.018L8.979,9.841
		c0.664-0.733,1.816-2.266,2.041-4.229c0.197-1.707-0.233-3.313-1.194-4.396C9.141,0.438,8.233,0.005,7.179,0
		c-1.043,0.005-1.946,0.406-2.61,1.154C3.667,2.171,3.267,3.799,3.474,5.627C3.686,7.44,4.516,8.948,5.293,9.839v0.188
		c-0.696,0.303-4.31,1.938-4.809,3.24c-0.353,0.916-0.375,1.946-0.376,1.985L0.097,16H9.8C8.823,15.2,8.185,14,8.185,12.643z"/>
	<path fill="#86CC16" d="M12.544,9.283c-1.854,0-3.358,1.505-3.358,3.357c0,1.856,1.504,3.358,3.358,3.358s3.358-1.502,3.358-3.358
		C15.902,10.788,14.398,9.283,12.544,9.283z"/>
</g>
</svg>
