<?xml version="1.0" encoding="utf-8"?>
<!-- Generator: Adobe Illustrator 16.0.0, SVG Export Plug-In . SVG Version: 6.00 Build 0)  -->
<!DOCTYPE svg PUBLIC "-//W3C//DTD SVG 1.1//EN" "http://www.w3.org/Graphics/SVG/1.1/DTD/svg11.dtd">
<svg version="1.1" id="图层_1" xmlns="http://www.w3.org/2000/svg" xmlns:xlink="http://www.w3.org/1999/xlink" x="0px" y="0px"
	 width="16px" height="16px" viewBox="0 0 16 16" enable-background="new 0 0 16 16" xml:space="preserve">
<g>
	<g>
		<path fill="#FFFFFF" d="M9.084,12.084l1.396-1.254c0.711-0.637,1.578-0.973,2.508-0.973c0.652,0,1.229,0.162,1.658,0.334
			l1.146-1.148l0.019,0.07c0.416-1.409,0.088-2.99-1.021-4.104c-0.996-0.995-2.372-1.374-3.66-1.143
			c-0.164-0.257-0.354-0.504-0.574-0.728c-1.646-1.647-4.32-1.647-5.968,0C4.089,3.638,3.75,4.23,3.554,4.857
			C1.584,4.893,0,6.492,0,8.468c0,1.959,1.563,3.548,3.511,3.606v0.01H9.084L9.084,12.084z M11.016,6.136
			c0.311,0.742,0.338,1.562,0.086,2.331c-0.156,0.48-0.412,0.906-0.756,1.27c-0.818,0.856-2.041,1.229-3.192,0.967l-0.2-0.049
			l-0.17,0.52l-1.117-1.34l1.693-0.42L7.191,9.926l0.255,0.047c0.867,0.154,1.744-0.133,2.349-0.768
			c0.266-0.279,0.461-0.607,0.581-0.975c0.192-0.59,0.172-1.214-0.058-1.782L11.016,6.136z M9.352,8.306H9.035L8.82,7.673v0.633
			H8.431V6.99L7.916,8.306H7.583L6.969,6.719h0.426l0.356,0.994l0.371-0.994h0.767l0.316,0.945l0.324-0.945h0.428v1.587H9.568V7.681
			L9.352,8.306z M7.119,7.173l0.03,0.106L6.766,7.371L6.735,7.277C6.711,7.2,6.677,7.143,6.633,7.11
			C6.592,7.081,6.539,7.064,6.47,7.064c-0.085,0-0.149,0.02-0.203,0.057c-0.054,0.037-0.089,0.086-0.111,0.15
			c-0.025,0.074-0.038,0.152-0.038,0.23c0,0.103,0.015,0.192,0.043,0.268C6.188,7.834,6.226,7.88,6.277,7.912
			c0.056,0.033,0.114,0.051,0.177,0.051c0.078,0,0.14-0.021,0.191-0.064c0.052-0.042,0.088-0.111,0.109-0.203L6.777,7.59
			l0.394,0.097L7.142,7.791C7.099,7.963,7.017,8.096,6.9,8.189C6.782,8.283,6.638,8.33,6.47,8.33c-0.168,0-0.309-0.035-0.418-0.107
			C5.94,8.15,5.856,8.046,5.799,7.912c-0.052-0.126-0.081-0.266-0.081-0.41c0-0.159,0.031-0.3,0.094-0.421
			c0.064-0.125,0.157-0.223,0.277-0.288c0.118-0.064,0.246-0.096,0.384-0.096c0.16,0,0.299,0.043,0.411,0.126
			C6.996,6.907,7.076,7.025,7.119,7.173z M4.702,6.368c0.157-0.479,0.411-0.906,0.757-1.269c0.817-0.857,2.04-1.227,3.191-0.963
			L8.85,4.181l0.17-0.516l1.115,1.338L8.444,5.421l0.167-0.51L8.356,4.867C7.489,4.711,6.612,4.998,6.008,5.632
			C5.743,5.91,5.548,6.237,5.426,6.606C5.233,7.195,5.255,7.819,5.484,8.388L4.789,8.697C4.482,7.956,4.449,7.135,4.702,6.368z"/>
		<path fill="#FFFFFF" d="M12.913,13.34L16,14.094l-0.755-3.086l-0.399,0.398c0,0-2.01-1.342-3.695,0.17
			c0,0,2.012,0.186,2.346,1.186L12.913,13.34z"/>
	</g>
</g>
</svg>
