<?xml version="1.0" encoding="utf-8"?>
<!-- Generator: Adobe Illustrator 16.0.0, SVG Export Plug-In . SVG Version: 6.00 Build 0)  -->
<!DOCTYPE svg PUBLIC "-//W3C//DTD SVG 1.1//EN" "http://www.w3.org/Graphics/SVG/1.1/DTD/svg11.dtd">
<svg version="1.1" id="图层_1" xmlns="http://www.w3.org/2000/svg" xmlns:xlink="http://www.w3.org/1999/xlink" x="0px" y="0px"
	 width="16px" height="16px" viewBox="0 0 16 16" enable-background="new 0 0 16 16" xml:space="preserve">
<path fill="#FFFFFF" d="M11.992,14.057c-1.276,0.865-2.76,1.321-4.302,1.321C3.45,15.378,0,11.93,0,7.69S3.45,0,7.69,0
	s7.688,3.45,7.688,7.69c0,1.542-0.457,3.025-1.321,4.301L16,13.938L13.938,16L11.992,14.057z M7.69,1.775
	c-3.262,0-5.915,2.653-5.915,5.915c0,3.26,2.653,5.914,5.915,5.914c3.262,0,5.916-2.648,5.916-5.914
	C13.605,4.429,10.952,1.775,7.69,1.775z"/>
</svg>
