<?xml version="1.0" encoding="utf-8"?>
<!-- Generator: Adobe Illustrator 16.0.0, SVG Export Plug-In . SVG Version: 6.00 Build 0)  -->
<!DOCTYPE svg PUBLIC "-//W3C//DTD SVG 1.1//EN" "http://www.w3.org/Graphics/SVG/1.1/DTD/svg11.dtd">
<svg version="1.1" id="图层_1" xmlns="http://www.w3.org/2000/svg" xmlns:xlink="http://www.w3.org/1999/xlink" x="0px" y="0px"
	 width="16px" height="16px" viewBox="0 0 16 16" enable-background="new 0 0 16 16" xml:space="preserve">
<path fill="#FFFFFF" d="M8.3,0.055L7.965,0L1.557,1.289l0.001,7.759c0,0,0.002,0.229,0.057,0.526
	c0.402,2.963,3.222,4.845,4.894,5.717L8.001,16l1.549-0.734c1.634-0.854,4.435-2.728,4.826-5.627
	c0.065-0.365,0.065-0.594,0.067-0.635V1.289L8.3,0.055z M13.652,9.004c0,0.021-0.002,0.205-0.055,0.496
	c-0.354,2.573-2.916,4.279-4.414,5.064L8,15.126l-1.153-0.547c-1.528-0.8-4.096-2.505-4.45-5.11c-0.047-0.258-0.05-0.439-0.05-0.439
	V1.934L7.97,0.805l0.025,0.004l0.008-0.003l0.172,0.03l5.478,1.098V9.004L13.652,9.004z M8.001,1.613L7.979,1.608L3.137,2.583v6.421
	c0,0,0.005,0.137,0.044,0.357c0.308,2.271,2.709,3.826,4.004,4.505l0.816,0.386l0.815-0.386c1.295-0.679,3.69-2.232,4.004-4.505
	c0.039-0.221,0.043-0.357,0.043-0.357V2.583L8.02,1.608L8.001,1.613z M11.576,6.108L9.809,7.872l0.451,2.457L8.035,9.191
	L5.839,10.38l0.394-2.466L4.424,6.191l2.467-0.387L7.97,3.552l1.131,2.227L11.576,6.108z"/>
</svg>
