<?xml version="1.0" encoding="utf-8"?>
<!-- Generator: Adobe Illustrator 16.0.0, SVG Export Plug-In . SVG Version: 6.00 Build 0)  -->
<!DOCTYPE svg PUBLIC "-//W3C//DTD SVG 1.1//EN" "http://www.w3.org/Graphics/SVG/1.1/DTD/svg11.dtd">
<svg version="1.1" id="图层_1" xmlns="http://www.w3.org/2000/svg" xmlns:xlink="http://www.w3.org/1999/xlink" x="0px" y="0px"
	 width="16px" height="16px" viewBox="0 0 16 16" enable-background="new 0 0 16 16" xml:space="preserve">
<g>
	<path fill="#FFFFFF" d="M3.446,0L0.019,3.429V16h9.479c-0.225-0.37-0.303-0.768-0.246-1.145H1.161V4.572h3.428v-3.43h6.856v8.189
		c0.021,0,0.048-0.009,0.07-0.009c0.383,0,0.741,0.104,1.067,0.281V0H3.446z M5.731,4.569C5.918,4.54,6.107,4.521,6.304,4.521
		c0.154,0,0.297,0.034,0.444,0.052h3.557V3.429H5.731V4.569z M10.305,6.726V5.715H9.275C9.699,6.061,10.046,6.422,10.305,6.726z
		 M9.283,11.428c0.009-0.145,0.018-0.289,0.056-0.433l0.157-0.591c-0.43,0.381-0.939,0.759-1.543,1.021L9.283,11.428L9.283,11.428z
		 M2.304,11.428h2.365c-0.663-0.293-1.235-0.719-1.69-1.143H2.304V11.428z M9.508,12.57H2.304v1.144h7.693l0.304-0.239
		c-0.138-0.088-0.267-0.188-0.385-0.31C9.742,12.991,9.613,12.787,9.508,12.57z M6.304,6.795c-0.753,0-1.364,0.612-1.364,1.361
		c0,0.753,0.611,1.363,1.364,1.363c0.753,0,1.364-0.61,1.364-1.363C7.668,7.407,7.057,6.795,6.304,6.795z M2.304,6.724
		c0.253-0.297,0.602-0.661,1.028-1.009H2.304V6.724z M10.123,8.156L9.951,7.901C9.885,7.804,8.331,5.52,6.304,5.52
		c-2.027,0-3.587,2.285-3.648,2.381L2.484,8.156l0.172,0.253c0.061,0.103,1.62,2.385,3.647,2.385c2.027,0,3.581-2.282,3.647-2.385
		L10.123,8.156z M6.304,9.884c-1.2,0-2.281-1.192-2.702-1.729C4.109,7.512,5.19,6.433,6.304,6.433c1.2,0,2.281,1.193,2.701,1.729
		C8.498,8.803,7.416,9.884,6.304,9.884z"/>
	<path fill="#FFFFFF" d="M13.704,13.011l1.612-1.61h0.223l0.441-0.887l-0.227-0.223l-0.887,0.441v0.222L13.2,12.622l-0.599-0.461
		c0.254-0.474,0.188-1.075-0.215-1.474c-0.328-0.328-0.789-0.438-1.207-0.322l0.769,0.766v0.885h-0.892l-0.764-0.763
		c-0.111,0.418-0.007,0.88,0.318,1.206c0.399,0.4,1.003,0.471,1.477,0.215l0.32,0.406l-1.999,1.572
		c-0.362,0.375-0.136,0.783,0.021,0.962l0.199,0.2c0.172,0.146,0.525,0.22,0.961,0.052l1.498-1.923l1.467,1.861
		c0.375,0.356,0.783,0.137,0.961-0.021l0.201-0.198c0.149-0.174,0.379-0.526,0.051-0.963L13.704,13.011z M15.256,15.32
		c-0.102,0.1-0.268,0.1-0.369,0c-0.103-0.104-0.103-0.271,0-0.371c0.104-0.104,0.268-0.104,0.369,0
		C15.357,15.05,15.357,15.216,15.256,15.32z"/>
</g>
</svg>
