<?xml version="1.0" encoding="utf-8"?>
<!-- Generator: Adobe Illustrator 16.0.0, SVG Export Plug-In . SVG Version: 6.00 Build 0)  -->
<!DOCTYPE svg PUBLIC "-//W3C//DTD SVG 1.1//EN" "http://www.w3.org/Graphics/SVG/1.1/DTD/svg11.dtd">
<svg version="1.1" id="图层_1" xmlns="http://www.w3.org/2000/svg" xmlns:xlink="http://www.w3.org/1999/xlink" x="0px" y="0px"
	 width="16px" height="16px" viewBox="0 0 16 16" enable-background="new 0 0 16 16" xml:space="preserve">
<path fill="#FFFFFF" d="M1.363,10.189v3.312c0,0.999,0.81,1.81,1.808,1.81h3l0.012-5.422c0-0.332,0.271-0.604,0.603-0.604h2.409
	c0.332,0,0.604,0.271,0.604,0.604l-0.001,5.422h3.013c0.998,0,1.812-0.811,1.812-1.81v-3.312L7.99,3.563L1.363,10.189z M15.73,8.051
	l-2.319-2.32l-1.808-1.806L8.639,0.958c-0.354-0.357-0.938-0.357-1.297,0L0.269,8.031c-0.358,0.358-0.358,0.938,0,1.296
	s0.938,0.358,1.296,0L7.99,2.902l6.443,6.444c0.181,0.18,0.414,0.271,0.646,0.271s0.469-0.092,0.646-0.271
	C16.089,8.988,16.089,8.408,15.73,8.051z"/>
</svg>
