<?xml version="1.0" encoding="utf-8"?>
<!-- Generator: Adobe Illustrator 16.0.0, SVG Export Plug-In . SVG Version: 6.00 Build 0)  -->
<!DOCTYPE svg PUBLIC "-//W3C//DTD SVG 1.1//EN" "http://www.w3.org/Graphics/SVG/1.1/DTD/svg11.dtd">
<svg version="1.1" id="图层_1" xmlns="http://www.w3.org/2000/svg" xmlns:xlink="http://www.w3.org/1999/xlink" x="0px" y="0px"
	 width="16px" height="16px" viewBox="0 0 16 16" enable-background="new 0 0 16 16" xml:space="preserve">
<g>
	<path fill="#FFFFFF" d="M13.811,9.408c0.158,0.308,0.256,0.65,0.256,1.02c0,0.848-0.469,1.575-1.15,1.963
		c0.414-0.342,0.705-0.824,0.795-1.381c0.021-0.115,0.035-0.234,0.035-0.357c0-0.248-0.055-0.479-0.123-0.707
		c-0.014-0.019-0.018-0.034-0.021-0.06c0,0,0,0,0-0.001c-0.021-0.054-0.037-0.109-0.061-0.16h-0.002
		c-0.041-0.089-0.088-0.173-0.141-0.254c-0.396-0.646-1.104-1.08-1.92-1.08c-0.812,0-1.521,0.432-1.922,1.077
		c1.023,0.05,1.846,0.89,1.846,1.929c0,0.228-0.045,0.438-0.111,0.633c0.002-0.035,0.012-0.075,0.012-0.116
		c0-0.32-0.086-0.617-0.223-0.89c-0.012-0.019-0.021-0.039-0.033-0.059c-0.332-0.592-0.957-0.994-1.686-0.994
		c-1.068,0-1.938,0.864-1.938,1.938c0,1.052,0.838,1.899,1.886,1.932v0.009h4.555v-0.012C15.049,13.793,16,12.824,16,11.625
		C16,10.412,15.021,9.427,13.811,9.408z"/>
	<path fill="#FFFFFF" d="M2.322,8.725h6.682c0.252-0.327,0.559-0.594,0.902-0.792H2.322V8.725z"/>
	<path fill="#FFFFFF" d="M3.578,6.822V5.719c0-0.027-0.023-0.051-0.049-0.051H2.426c-0.029,0-0.051,0.023-0.051,0.051v1.104
		c0,0.027,0.021,0.05,0.051,0.05H3.53C3.555,6.872,3.578,6.85,3.578,6.822z"/>
	<path fill="#FFFFFF" d="M1.473,11.969c-0.271,0-0.492-0.222-0.492-0.49V4.608h10.796v2.931c0.343,0.032,0.677,0.105,0.979,0.242
		V3.627c0-0.813-0.656-1.473-1.473-1.473h-9.81C0.66,2.154,0,2.813,0,3.627v7.852c0,0.812,0.66,1.477,1.473,1.477h5.273
		c-0.121-0.311-0.193-0.639-0.199-0.979H1.473V11.969z"/>
	<path fill="#FFFFFF" d="M8.064,6.822V5.719c0-0.027-0.023-0.051-0.051-0.051H6.91c-0.025,0-0.049,0.023-0.049,0.051v1.104
		c0,0.027,0.023,0.05,0.049,0.05h1.104C8.041,6.872,8.064,6.85,8.064,6.822z"/>
	<path fill="#FFFFFF" d="M10.307,6.822V5.719c0-0.027-0.021-0.051-0.049-0.051H9.152c-0.025,0-0.049,0.023-0.049,0.051v1.104
		c0,0.027,0.021,0.05,0.049,0.05h1.104C10.283,6.872,10.307,6.85,10.307,6.822z"/>
	<path fill="#FFFFFF" d="M2.322,9.741v0.793h4.576C7.07,10.227,7.3,9.963,7.566,9.741H2.322z"/>
	<path fill="#FFFFFF" d="M5.822,6.822V5.719c0-0.027-0.023-0.051-0.051-0.051H4.666c-0.025,0-0.049,0.023-0.049,0.051v1.104
		c0,0.027,0.023,0.05,0.049,0.05h1.105C5.799,6.872,5.822,6.85,5.822,6.822z"/>
</g>
</svg>
