<?xml version="1.0" encoding="utf-8"?>
<!-- Generator: Adobe Illustrator 19.2.1, SVG Export Plug-In . SVG Version: 6.00 Build 0)  -->
<svg version="1.1" id="图层_1" xmlns="http://www.w3.org/2000/svg" xmlns:xlink="http://www.w3.org/1999/xlink" x="0px" y="0px" width="16px" height="16px" 
	 viewBox="0 0 16 16" style="enable-background:new 0 0 16 16;" xml:space="preserve">
<g>
	<g>
		<g>
			<path fill="#FFFFFF" d="M10,5.4L12.7,4l-2,6.2l-6.2-2l2.7-1.4C4.9,2,1.6,3.9,0,6.3C1.7,1.6,7.3-0.4,10,5.4z"/>
		</g>
	</g>
	<path fill="#FFFFFF" d="M14.8,10.1v2.3c0,0.3-0.3,0.6-0.6,0.6H2.7c-0.3,0-0.6-0.3-0.6-0.6v-2.3H1v2.3c0,1,0.8,1.7,1.7,1.7h11.5
		c1,0,1.7-0.8,1.7-1.7v-2.3H14.8z"/>
</g>
</svg>
