<?xml version="1.0" encoding="utf-8"?>
<!-- Generator: Adobe Illustrator 16.0.0, SVG Export Plug-In . SVG Version: 6.00 Build 0)  -->
<!DOCTYPE svg PUBLIC "-//W3C//DTD SVG 1.1//EN" "http://www.w3.org/Graphics/SVG/1.1/DTD/svg11.dtd">
<svg version="1.1" id="图层_1" xmlns="http://www.w3.org/2000/svg" xmlns:xlink="http://www.w3.org/1999/xlink" x="0px" y="0px"
	 width="16px" height="16px" viewBox="0 0 16 16" enable-background="new 0 0 16 16" xml:space="preserve">
<g>
	<path fill="#FFFFFF" d="M11.221,10.062H9.398c-0.299,0-0.541,0.25-0.541,0.552v1.854c0,0.269,0.188,0.478,0.434,0.527l-1.351,1.38
		c-0.05-0.038-0.105-0.073-0.175-0.073H6.718c-0.17,0-0.302,0.14-0.302,0.308v1.067c0,0.171,0.132,0.308,0.302,0.308h1.047
		c0.168,0,0.303-0.137,0.303-0.308v-0.963c0.02-0.01,0.041-0.01,0.057-0.026l1.641-1.666h0.943l0.26,0.269
		c0.135-0.543,0.408-1.031,0.793-1.412V10.62C11.762,10.312,11.518,10.062,11.221,10.062z"/>
	<g>
		<path fill="#FFFFFF" d="M7.126,13.302h0.465l0.342-0.351c-0.002-0.01-0.002-0.021-0.004-0.029H7.126V13.302z"/>
		<path fill="#FFFFFF" d="M9.127,1v1h2v7.062h0.094c0.34,0,0.65,0.11,0.906,0.304V1H9.127z"/>
		<rect x="7.126" y="10.984" fill="#FFFFFF" width="0.73" height="1"/>
		<path fill="#FFFFFF" d="M8.126,3V0h-4v3h-2v1h8V3H8.126z M6.626,2h-1V1h1V2z"/>
		<rect x="7.126" y="7" fill="#FFFFFF" width="3" height="1"/>
		<path fill="#FFFFFF" d="M9.398,9.062h0.729V9.047h-3v1h0.842C8.193,9.473,8.748,9.062,9.398,9.062z"/>
		<path fill="#FFFFFF" d="M2.126,14h3.461c0.123-0.23,0.309-0.416,0.539-0.537V5h-4V14z"/>
		<rect x="7.126" y="5" fill="#FFFFFF" width="3" height="1"/>
		<path fill="#FFFFFF" d="M5.417,15h-4.29V2h2V1h-3v15h5.355c-0.027-0.105-0.065-0.208-0.065-0.323V15z"/>
	</g>
	<path fill="#FFFFFF" d="M13.873,11.999c-1.104,0-2,0.896-2,2S12.77,16,13.873,16c1.105,0,2-0.896,2-2.001
		S14.979,11.999,13.873,11.999z M14.244,15.27h-0.762l-0.562-2.541h0.645l0.303,1.965h0.008l0.305-1.965h0.646L14.244,15.27z"/>
</g>
</svg>
