<?xml version="1.0" encoding="utf-8"?>
<!-- Generator: Adobe Illustrator 16.0.0, SVG Export Plug-In . SVG Version: 6.00 Build 0)  -->
<!DOCTYPE svg PUBLIC "-//W3C//DTD SVG 1.1//EN" "http://www.w3.org/Graphics/SVG/1.1/DTD/svg11.dtd">
<svg version="1.1" id="图层_1" xmlns="http://www.w3.org/2000/svg" xmlns:xlink="http://www.w3.org/1999/xlink" x="0px" y="0px"
	 width="16px" height="16px" viewBox="0 0 16 16" enable-background="new 0 0 16 16" xml:space="preserve">
<g>
	<path fill="#FFFFFF" d="M5.979,5.2V3.968c0-0.03-0.062-0.054-0.133-0.054H2.783c-0.071,0-0.139,0.023-0.139,0.054V5.2
		c0,0.029,0.067,0.055,0.139,0.055h3.063C5.917,5.254,5.979,5.229,5.979,5.2z"/>
	<path fill="none" d="M1.093,2.733v7.654c0,0.299,0.246,0.545,0.548,0.545h8.365V5.139h3.115V2.733H1.093z"/>
	<path fill="#FFFFFF" d="M1.641,10.932c-0.302,0-0.548-0.246-0.548-0.545V2.733h12.028v2.406h1.093V1.638
		c0-0.906-0.733-1.64-1.639-1.64H1.641C0.735-0.001,0,0.732,0,1.638v8.749c0,0.904,0.735,1.639,1.641,1.639h8.365v-1.094H1.641z"/>
	<path fill="#FFFFFF" d="M12.376,5.257v-1.41c0-0.036-0.075-0.065-0.155-0.065H8.783c-0.086,0-0.156,0.029-0.156,0.065V5.33
		c0,0.036,0.07,0.066,0.156,0.066h1.814V5.257H12.376z"/>
	<rect x="2.588" y="8.452" fill="#FFFFFF" width="7.418" height="0.882"/>
	<rect x="2.588" y="6.434" fill="#FFFFFF" width="7.418" height="0.882"/>
	<path fill="#FFFFFF" d="M12.376,5.33V5.257h-1.778v0.139h1.623C12.301,5.396,12.376,5.366,12.376,5.33z"/>
	<path fill="#FFFFFF" d="M10.8,6.522v9.476h5.519V6.522H10.8z M13.558,14.924c-0.334,0-0.607-0.271-0.607-0.607
		s0.273-0.609,0.607-0.609c0.337,0,0.608,0.273,0.608,0.609S13.895,14.924,13.558,14.924z M14.397,12.326h-1.661l-1.218-4.138h1.396
		l0.661,3.199h0.015l0.667-3.199h1.398L14.397,12.326z"/>
</g>
</svg>
