<?xml version="1.0" encoding="utf-8"?>
<!-- Generator: Adobe Illustrator 16.0.0, SVG Export Plug-In . SVG Version: 6.00 Build 0)  -->
<!DOCTYPE svg PUBLIC "-//W3C//DTD SVG 1.1//EN" "http://www.w3.org/Graphics/SVG/1.1/DTD/svg11.dtd">
<svg version="1.1" id="图层_1" xmlns="http://www.w3.org/2000/svg" xmlns:xlink="http://www.w3.org/1999/xlink" x="0px" y="0px"
	 width="16px" height="16px" viewBox="0 0 16 16" enable-background="new 0 0 16 16" xml:space="preserve">
<g>
	<path fill="#FFFFFF" d="M10.975,6.731h-0.857l0.613-0.612c0.17-0.169,0.17-0.439,0-0.608l-0.691-0.702
		C9.951,4.729,9.841,4.69,9.73,4.69c-0.112,0-0.227,0.039-0.31,0.118L8.812,5.422V4.575c0-0.242-0.194-0.435-0.434-0.435H7.087
		c-0.242,0-0.434,0.192-0.434,0.435v0.858l-0.612-0.61c-0.083-0.087-0.195-0.13-0.306-0.13c-0.108,0-0.219,0.043-0.303,0.13
		L4.733,5.516c-0.08,0.081-0.124,0.194-0.124,0.31c0,0.111,0.044,0.222,0.124,0.304L5.34,6.731H4.492
		c-0.238,0-0.435,0.193-0.435,0.436v1.294c0,0.234,0.197,0.434,0.435,0.434H5.34L4.73,9.504c-0.173,0.169-0.173,0.439,0,0.61
		l0.693,0.692c0.084,0.086,0.195,0.127,0.307,0.127c0.11,0,0.221-0.041,0.305-0.127l0.618-0.615v0.857
		c0,0.24,0.192,0.436,0.434,0.436h1.294c0.237,0,0.432-0.192,0.432-0.436v-0.857l0.614,0.619c0.083,0.082,0.19,0.125,0.306,0.125
		c0.117,0,0.229-0.043,0.309-0.125l0.695-0.696c0.082-0.077,0.13-0.19,0.13-0.302c0-0.115-0.048-0.229-0.13-0.31l-0.611-0.61h0.854
		c0.237,0,0.433-0.197,0.433-0.435V7.167C11.406,6.925,11.214,6.731,10.975,6.731z M7.731,9.641c-1.011,0-1.828-0.812-1.828-1.827
		c0-1.012,0.817-1.832,1.828-1.832c1.011,0,1.83,0.82,1.83,1.832S8.742,9.641,7.731,9.641z"/>
	<path fill="#FFFFFF" d="M7.543,13.152c-1.886,0-3.637-0.944-4.683-2.527L2.554,10.16l1.043-0.495L0.431,7.643L0,11.375l1.058-0.503
		l0.225,0.38c1.299,2.188,3.691,3.549,6.244,3.551c0.001,0,0.001,0,0.001,0c0.656,0,1.298-0.098,1.922-0.271
		c0-0.031,0.018-0.062,0.019-0.093c-0.225-0.463-0.357-0.974-0.385-1.516C8.584,13.07,8.07,13.152,7.543,13.152z M13.979,4.217
		l-0.226-0.38c-1.299-2.19-3.69-3.551-6.244-3.551c-1.078,0-2.123,0.236-3.105,0.703c-1.575,0.749-2.807,2.017-3.51,3.602
		l1.52,0.622C2.96,4.011,3.902,3.049,5.109,2.474c0.755-0.358,1.558-0.54,2.387-0.54c1.888,0,3.64,0.944,4.686,2.526l0.31,0.464
		l-1.052,0.499l3.166,2.022l0.433-3.731L13.979,4.217z"/>
	<path fill="#FFFFFF" d="M13.018,9.746c-1.646,0-2.982,1.334-2.982,2.982c0,1.646,1.336,2.982,2.982,2.982S16,14.375,16,12.729
		C16,11.08,14.664,9.746,13.018,9.746z M14.741,13.242H13.54v1.17h-1.051v-1.17h-1.2v-1.024h1.2v-1.17h1.051v1.17h1.201V13.242z"/>
</g>
</svg>
