<?xml version="1.0" encoding="utf-8"?>
<!-- Generator: Adobe Illustrator 16.0.0, SVG Export Plug-In . SVG Version: 6.00 Build 0)  -->
<!DOCTYPE svg PUBLIC "-//W3C//DTD SVG 1.1//EN" "http://www.w3.org/Graphics/SVG/1.1/DTD/svg11.dtd">
<svg version="1.1" id="图层_1" xmlns="http://www.w3.org/2000/svg" xmlns:xlink="http://www.w3.org/1999/xlink" x="0px" y="0px"
	 width="16px" height="16px" viewBox="0 0 16 16" enable-background="new 0 0 16 16" xml:space="preserve">
<g>
	<path fill="#FFFFFF" d="M8-0.001c-4.412,0-8,3.59-8,8s3.588,8,8,8s8-3.59,8-8S12.412-0.001,8-0.001z M8,14.629
		c-3.655,0-6.629-2.975-6.629-6.629C1.371,4.346,4.345,1.37,8,1.37c3.657,0,6.63,2.976,6.63,6.629
		C14.63,11.654,11.657,14.629,8,14.629z"/>
	<g>
		<path fill="#FFFFFF" d="M7.12,12.938c-2.043,0-3.702-1.66-3.702-3.703c0-0.229,0.182-0.412,0.41-0.412
			c0.228,0,0.411,0.183,0.411,0.412c0,1.588,1.293,2.881,2.881,2.881c0.508,0,1.004-0.133,1.44-0.385
			c0.197-0.115,0.449-0.047,0.562,0.148c0.113,0.197,0.047,0.449-0.15,0.564C8.411,12.766,7.771,12.938,7.12,12.938"/>
		<path fill="#FFFFFF" d="M10.34,11.703c-0.103,0-0.209-0.039-0.288-0.121c-0.161-0.16-0.161-0.42,0-0.58l2.327-2.329
			c0.079-0.078,0.122-0.181,0.122-0.29c0-0.111-0.043-0.214-0.122-0.292c-0.156-0.156-0.427-0.156-0.582,0l-1.093,1.092
			c-0.161,0.16-0.422,0.16-0.583,0c-0.16-0.16-0.16-0.421,0-0.581l1.095-1.093c0.464-0.467,1.278-0.467,1.746,0
			c0.231,0.232,0.359,0.542,0.359,0.874c0,0.33-0.128,0.639-0.359,0.871l-2.327,2.328C10.552,11.664,10.448,11.703,10.34,11.703"/>
		<path fill="#FFFFFF" d="M10.412,9.234c-0.227,0-0.411-0.184-0.411-0.412V4.295c0-0.227-0.185-0.411-0.412-0.411
			c-0.227,0-0.409,0.184-0.409,0.411v3.292C9.18,7.815,8.993,8,8.767,8C8.538,8,8.354,7.815,8.354,7.588V4.295
			c0-0.681,0.555-1.234,1.235-1.234c0.682,0,1.234,0.554,1.234,1.234v4.527C10.823,9.051,10.64,9.234,10.412,9.234"/>
		<path fill="#FFFFFF" d="M3.828,9.646c-0.229,0-0.41-0.184-0.41-0.412V8c0-0.68,0.553-1.235,1.231-1.235
			c0.683,0,1.234,0.555,1.234,1.235c0,0.228-0.183,0.412-0.409,0.412C5.246,8.412,5.062,8.228,5.062,8
			c0-0.227-0.185-0.412-0.413-0.412c-0.226,0-0.41,0.185-0.41,0.412v1.235C4.239,9.463,4.056,9.646,3.828,9.646"/>
		<path fill="#FFFFFF" d="M5.475,8.412C5.246,8.412,5.062,8.228,5.062,8V7.588c0-0.681,0.554-1.234,1.234-1.234
			s1.235,0.554,1.235,1.234C7.532,7.815,7.349,8,7.12,8C6.893,8,6.708,7.815,6.708,7.588S6.524,7.176,6.297,7.176
			S5.884,7.361,5.884,7.588V8C5.884,8.228,5.701,8.412,5.475,8.412"/>
		<path fill="#FFFFFF" d="M7.12,8C6.893,8,6.708,7.815,6.708,7.588V7.176c0-0.681,0.555-1.235,1.236-1.235
			c0.68,0,1.235,0.554,1.235,1.235c0,0.228-0.187,0.412-0.413,0.412c-0.229,0-0.413-0.184-0.413-0.412S8.17,6.764,7.944,6.764
			c-0.227,0-0.412,0.185-0.412,0.412v0.412C7.532,7.815,7.349,8,7.12,8"/>
	</g>
</g>
</svg>
