<?xml version="1.0" encoding="utf-8"?>
<!-- Generator: Adobe Illustrator 16.0.0, SVG Export Plug-In . SVG Version: 6.00 Build 0)  -->
<!DOCTYPE svg PUBLIC "-//W3C//DTD SVG 1.1//EN" "http://www.w3.org/Graphics/SVG/1.1/DTD/svg11.dtd">
<svg version="1.1" id="图层_1" xmlns="http://www.w3.org/2000/svg" xmlns:xlink="http://www.w3.org/1999/xlink" x="0px" y="0px"
	 width="16px" height="16px" viewBox="0 0 16 16" enable-background="new 0 0 16 16" xml:space="preserve">
<g>
	<g>
		<path fill="#FFFFFF" d="M13.657,13.656c-3.119,3.119-8.194,3.119-11.313,0c-3.119-3.119-3.119-8.194,0-11.313
			c3.119-3.119,8.194-3.119,11.313,0C16.775,5.462,16.775,10.537,13.657,13.656z M3.312,3.312c-2.584,2.584-2.584,6.79,0,9.375
			c2.585,2.584,6.792,2.584,9.375,0c2.584-2.586,2.584-6.792,0-9.375S5.897,0.728,3.312,3.312z"/>
	</g>
	<polygon fill="#FFFFFF" points="7.132,12.811 7.132,8.867 3.188,8.867 3.188,7.131 7.132,7.131 7.132,3.188 8.869,3.188 
		8.869,7.131 12.812,7.131 12.812,8.867 8.869,8.867 8.869,12.811 	"/>
</g>
</svg>
