<?xml version="1.0" encoding="utf-8"?>
<!-- Generator: Adobe Illustrator 16.0.0, SVG Export Plug-In . SVG Version: 6.00 Build 0)  -->
<!DOCTYPE svg PUBLIC "-//W3C//DTD SVG 1.1//EN" "http://www.w3.org/Graphics/SVG/1.1/DTD/svg11.dtd">
<svg version="1.1" id="图层_1" xmlns="http://www.w3.org/2000/svg" xmlns:xlink="http://www.w3.org/1999/xlink" x="0px" y="0px"
	 width="16px" height="16px" viewBox="0 0 16 16" enable-background="new 0 0 16 16" xml:space="preserve">
<g>
	<g>
		<g>
			<path fill="#FFFFFF" d="M0.598,7.23V0.679h10.077v3.296h0.59V0.449c0-0.246-0.199-0.45-0.448-0.45H0.45
				C0.2-0.001,0,0.203,0,0.449v7.003C0,7.7,0.2,7.9,0.45,7.9c1.609,0,3.222,0,4.832,0v0.276H4.429
				C4.277,8.331,4.17,8.65,4.104,8.947H3.242v0.545c1.594,0,3.186,0,4.782,0V8.947H7.159C7.096,8.65,6.985,8.331,6.836,8.177H5.983
				V7.9c0.769,0,1.537,0,2.306,0V7.23H0.598z"/>
			<polygon fill="#FFFFFF" points="5.755,5.31 5.737,5.31 4.941,1.458 3.259,1.458 4.727,6.442 6.728,6.442 8.243,1.458 6.56,1.458 
							"/>
		</g>
		<g>
			<path fill="#FFFFFF" d="M15.72,4.77H9.241c-0.156,0-0.281,0.128-0.281,0.281v4.377c0,0.155,0.125,0.28,0.281,0.28
				c1.006,0,2.014,0,3.021,0v0.173h-0.533c-0.095,0.097-0.162,0.296-0.203,0.481h-0.539v0.341c0.996,0,1.991,0,2.989,0v-0.341
				h-0.541c-0.04-0.186-0.108-0.385-0.202-0.481h-0.533V9.708c1.007,0,2.014,0,3.021,0c0.156,0,0.28-0.125,0.28-0.28V5.051
				C16,4.897,15.876,4.77,15.72,4.77z M15.632,9.289H9.334V5.194h6.298V9.289z"/>
			<polygon fill="#FFFFFF" points="13.165,8.797 14.112,5.682 13.06,5.682 12.557,8.089 12.546,8.089 12.049,5.682 10.997,5.682 
				11.914,8.797 			"/>
		</g>
	</g>
	<path fill="#FFFFFF" d="M13.747,3.808l0.021-0.617l0.021-0.616l0.267,0.172c0.006-0.287-0.083-0.575-0.266-0.817
		c-0.388-0.511-1.093-0.663-1.64-0.356c-0.101,0.057-0.229,0.02-0.285-0.083c-0.058-0.104-0.022-0.23,0.079-0.287
		c0.725-0.409,1.661-0.205,2.175,0.471c0.296,0.391,0.409,0.871,0.335,1.33l0.369,0.239l-0.537,0.282L13.747,3.808z"/>
</g>
</svg>
