<?xml version="1.0" encoding="utf-8"?>
<!-- Generator: Adobe Illustrator 16.0.0, SVG Export Plug-In . SVG Version: 6.00 Build 0)  -->
<!DOCTYPE svg PUBLIC "-//W3C//DTD SVG 1.1//EN" "http://www.w3.org/Graphics/SVG/1.1/DTD/svg11.dtd">
<svg version="1.1" id="图层_1" xmlns="http://www.w3.org/2000/svg" xmlns:xlink="http://www.w3.org/1999/xlink" x="0px" y="0px"
	 width="16px" height="16px" viewBox="0 0 16 16" enable-background="new 0 0 16 16" xml:space="preserve">
<g>
	<path fill="#FFFFFF" d="M8.701,14.014v-1.529h0.105c0-0.021-0.011-0.039-0.011-0.062v-1.086c0-0.413,0.185-0.785,0.472-1.041
		c-0.002-0.028-0.002-0.056-0.002-0.084c0-0.146,0.03-0.282,0.073-0.416h-8.7V2.217c0-0.295,0.238-0.539,0.532-0.539h11.75
		c0.295,0,0.533,0.244,0.533,0.539v5.549h0.006c0.229,0,0.44,0.061,0.638,0.16V2.217c0-0.655-0.521-1.176-1.177-1.176H1.174
		C0.524,1.041,0,1.562,0,2.217v9.085c0,0.656,0.524,1.183,1.174,1.183h4.223v1.529h-0.95v0.945h5.206v-0.443
		C9.511,14.37,9.415,14.2,9.348,14.014H8.701z"/>
	<path fill="#FFFFFF" d="M15.637,10.973h-0.72l0.517-0.515c0.146-0.142,0.146-0.369,0-0.511l-0.582-0.588
		c-0.072-0.067-0.164-0.104-0.258-0.104c-0.095,0-0.188,0.032-0.258,0.104l-0.512,0.515V9.163c0-0.203-0.164-0.364-0.361-0.364
		h-1.087c-0.202,0-0.362,0.161-0.362,0.364v0.72L11.498,9.37c-0.068-0.071-0.163-0.106-0.256-0.106
		c-0.092,0-0.184,0.035-0.254,0.106L10.4,9.951c-0.065,0.068-0.104,0.163-0.104,0.261c0,0.093,0.037,0.187,0.104,0.254l0.511,0.507
		h-0.712c-0.199,0-0.365,0.16-0.365,0.364v1.086c0,0.198,0.166,0.362,0.365,0.362h0.712l-0.513,0.513
		c-0.146,0.142-0.146,0.368,0,0.513l0.58,0.58c0.066,0.072,0.164,0.106,0.26,0.106c0.093,0,0.186-0.034,0.256-0.106l0.52-0.516
		v0.723c0,0.2,0.16,0.361,0.362,0.361h1.087c0.197,0,0.361-0.161,0.361-0.361v-0.723l0.516,0.521
		c0.068,0.062,0.159,0.104,0.258,0.104c0.096,0,0.19-0.036,0.256-0.104l0.584-0.586c0.068-0.064,0.106-0.158,0.106-0.254
		c0-0.102-0.038-0.188-0.106-0.262l-0.515-0.516h0.714c0.202,0,0.363-0.163,0.363-0.361v-1.086
		C16,11.133,15.839,10.973,15.637,10.973z M12.916,13.413c-0.848,0-1.532-0.685-1.532-1.532c0-0.852,0.687-1.537,1.532-1.537
		c0.85,0,1.535,0.688,1.535,1.537C14.451,12.729,13.766,13.413,12.916,13.413z"/>
</g>
</svg>
