<?xml version="1.0" encoding="utf-8"?>
<!-- Generator: Adobe Illustrator 16.0.0, SVG Export Plug-In . SVG Version: 6.00 Build 0)  -->
<!DOCTYPE svg PUBLIC "-//W3C//DTD SVG 1.1//EN" "http://www.w3.org/Graphics/SVG/1.1/DTD/svg11.dtd">
<svg version="1.1" id="图层_1" xmlns="http://www.w3.org/2000/svg" xmlns:xlink="http://www.w3.org/1999/xlink" x="0px" y="0px"
	 width="16px" height="16px" viewBox="0 0 16 16" enable-background="new 0 0 16 16" xml:space="preserve">
<g>
	<path fill="#FFFFFF" d="M7.993,10.511h1.875l1.426-2.471H6.476H0.587V1.075c0-0.267,0.225-0.492,0.49-0.492h5.398h5.399
		c0.27,0,0.488,0.226,0.488,0.492v5.61c0.184-0.096,0.38-0.156,0.589-0.156V1.075c0-0.6-0.481-1.076-1.077-1.076H6.476H1.077
		C0.481-0.001,0,0.476,0,1.075v8.35c0,0.6,0.481,1.086,1.077,1.086h3.882v1.402H4.085v0.871h2.391h2.391v-0.871H7.993V10.511z"/>
	<path fill="#FFFFFF" d="M15.873,11.847l-2.38-4.121c-0.149-0.258-0.345-0.387-0.541-0.387s-0.393,0.129-0.541,0.387l-2.38,4.121
		c-0.298,0.516-0.054,0.938,0.541,0.938h4.76C15.927,12.784,16.17,12.362,15.873,11.847z M15.545,12.282
		c-0.008,0.009-0.068,0.049-0.213,0.049h-4.76c-0.145,0-0.206-0.04-0.212-0.049c-0.005-0.011-0.009-0.082,0.063-0.208l2.381-4.122
		c0.071-0.125,0.136-0.158,0.146-0.16c0.013,0.002,0.076,0.035,0.148,0.16l2.381,4.122C15.552,12.2,15.549,12.271,15.545,12.282z"/>
	<path fill="#FFFFFF" d="M12.429,9.458c0.016-0.25,0.229-0.448,0.513-0.448c0.287,0,0.522,0.204,0.533,0.459
		c0,0.007,0.001,0.014,0.001,0.021c0,0.006-0.001,0.013-0.001,0.02l-0.029,0.138l-0.292,1.388c-0.009,0.041-0.046,0.07-0.087,0.07
		c0,0-0.005,0-0.009,0l0,0c-0.004,0-0.007,0-0.01,0h-0.214c-0.042,0-0.078-0.029-0.088-0.07l-0.291-1.39l-0.026-0.12V9.458z"/>
	<circle fill="#FFFFFF" cx="12.952" cy="11.782" r="0.308"/>
	<g>
		<path fill="#FFFFFF" d="M3.489,3.184H2.426v3.421H1.83V3.184H0.771V2.675h2.718V3.184z"/>
		<path fill="#FFFFFF" d="M6.07,6.604H3.929v-3.93h2.055v0.499H4.525v1.135h1.376v0.493H4.525v1.305H6.07V6.604z"/>
		<path fill="#FFFFFF" d="M8.514,3.286C8.385,3.214,8.139,3.112,7.814,3.112c-0.468,0-0.662,0.272-0.662,0.523
			c0,0.334,0.221,0.498,0.719,0.714c0.631,0.277,0.935,0.622,0.935,1.161c0,0.657-0.488,1.15-1.372,1.15
			c-0.369,0-0.76-0.107-0.95-0.235l0.135-0.499c0.21,0.129,0.529,0.231,0.852,0.231c0.468,0,0.729-0.242,0.729-0.596
			c0-0.334-0.2-0.54-0.667-0.734C6.946,4.591,6.551,4.236,6.551,3.702c0-0.621,0.498-1.089,1.279-1.089
			c0.375,0,0.657,0.093,0.826,0.18L8.514,3.286z"/>
		<path fill="#FFFFFF" d="M11.778,3.184h-1.063v3.421h-0.597V3.184H9.061V2.675h2.718V3.184z"/>
	</g>
</g>
</svg>
