<?xml version="1.0" encoding="utf-8"?>
<!-- Generator: Adobe Illustrator 16.0.0, SVG Export Plug-In . SVG Version: 6.00 Build 0)  -->
<!DOCTYPE svg PUBLIC "-//W3C//DTD SVG 1.1//EN" "http://www.w3.org/Graphics/SVG/1.1/DTD/svg11.dtd">
<svg version="1.1" id="图层_1" xmlns="http://www.w3.org/2000/svg" xmlns:xlink="http://www.w3.org/1999/xlink" x="0px" y="0px"
	 width="16px" height="16px" viewBox="0 0 16 16" enable-background="new 0 0 16 16" xml:space="preserve">
<g>
	<path fill="#FFFFFF" d="M0-0.001v14.949h6.541c-0.482-0.629-0.78-1.406-0.78-2.258c0-1.793,1.271-3.293,2.96-3.652v-9.039H0z
		 M4.36,13.277c-0.529,0-0.961-0.432-0.961-0.961c0-0.531,0.432-0.961,0.961-0.961c0.531,0,0.96,0.43,0.96,0.961
		C5.32,12.846,4.892,13.277,4.36,13.277z M5.688,9.172H3.061L1.136,2.631h2.208l1.045,5.054h0.022l1.056-5.054h2.21L5.688,9.172z"/>
	<g>
		<path fill="#FFFFFF" d="M9.017,13.998H8.925C8.954,14,8.984,14,9.017,13.998z"/>
		<polygon fill="#FFFFFF" stroke="#FFFFFF" stroke-width="0.1791" stroke-miterlimit="10" points="8.849,13.779 8.876,15.998 
			10.527,14.869 		"/>
		<path fill="#FFFFFF" stroke="#FFFFFF" stroke-width="0.1791" stroke-miterlimit="10" d="M11.456,13.58l-0.429-0.42
			c0.171-0.664-0.007-1.396-0.531-1.91c-0.781-0.76-2.031-0.746-2.793,0.033c-0.764,0.779-0.75,2.031,0.03,2.795
			c0.4,0.389,0.919,0.574,1.435,0.561l0.49,0.479c-0.799,0.178-1.671-0.039-2.301-0.654C6.365,13.49,6.345,11.9,7.316,10.906
			c0.971-0.992,2.561-1.012,3.556-0.041C11.617,11.594,11.812,12.67,11.456,13.58z"/>
	</g>
</g>
</svg>
