<?xml version="1.0" encoding="utf-8"?>
<!-- Generator: Adobe Illustrator 16.0.0, SVG Export Plug-In . SVG Version: 6.00 Build 0)  -->
<!DOCTYPE svg PUBLIC "-//W3C//DTD SVG 1.1//EN" "http://www.w3.org/Graphics/SVG/1.1/DTD/svg11.dtd">
<svg version="1.1" id="图层_1" xmlns="http://www.w3.org/2000/svg" xmlns:xlink="http://www.w3.org/1999/xlink" x="0px" y="0px"
	 width="16px" height="16px" viewBox="0 0 16 16" enable-background="new 0 0 16 16" xml:space="preserve">
<path fill="#FFFFFF" d="M4.82,11.396H4.623v2.176h0.188c0.328,0,0.441-0.146,0.441-1.146C5.253,11.615,5.193,11.396,4.82,11.396z
	 M11.25,11.396h-0.18v0.873h0.188c0.281,0,0.354-0.197,0.354-0.42C11.611,11.592,11.535,11.396,11.25,11.396z M3.334,0v16h9.332V0
	H3.334z M4.667,1.333h6.667v1.601H4.667V1.333z M4.667,4.267h6.667v1.6H4.667V4.267z M4.667,7.2h6.667v1.6H4.667V7.2z M4.892,14.15
	H3.918v-3.334h1.045c0.696,0,0.994,0.397,0.994,1.561C5.957,13.586,5.819,14.15,4.892,14.15z M8.091,14.15H7.386v-1.424H6.824v1.424
	H6.119v-3.334h0.705v1.248h0.562v-1.248h0.705V14.15z M10.279,12.961c0,0.719-0.182,1.256-1.055,1.256
	c-0.901,0-0.978-0.752-0.978-1.756c0-0.855,0.042-1.709,1.041-1.709c0.621,0,0.961,0.299,0.961,1.082v0.141H9.57
	c0-0.479-0.053-0.699-0.284-0.699c-0.281,0-0.31,0.304-0.31,1.177c0,0.983,0.027,1.241,0.322,1.241c0.262,0,0.288-0.332,0.293-0.85
	h0.682v0.117H10.279z M11.381,12.848H11.07v1.303h-0.705v-3.334h1.09c0.743,0,0.887,0.603,0.887,1.019
	C12.342,12.428,12.085,12.848,11.381,12.848z"/>
</svg>
