<?xml version="1.0" encoding="utf-8"?>
<!-- Generator: Adobe Illustrator 16.0.0, SVG Export Plug-In . SVG Version: 6.00 Build 0)  -->
<!DOCTYPE svg PUBLIC "-//W3C//DTD SVG 1.1//EN" "http://www.w3.org/Graphics/SVG/1.1/DTD/svg11.dtd">
<svg version="1.1" id="图层_1" xmlns="http://www.w3.org/2000/svg" xmlns:xlink="http://www.w3.org/1999/xlink" x="0px" y="0px"
	 width="16px" height="16px" viewBox="0 0 16 16" enable-background="new 0 0 16 16" xml:space="preserve">
<g>
	<path fill="#FFFFFF" d="M10.718,6.227c0.054,0,0.109,0.003,0.162,0.01c0.259-0.32,0.653-0.525,1.097-0.525h0.455V3.877
		c0-0.793-0.644-1.435-1.435-1.435H1.434C0.644,2.443,0,3.084,0,3.877v5.738c0,0.791,0.644,1.434,1.434,1.434h6.752
		c-0.022-0.1-0.035-0.201-0.035-0.309V9.533c0-0.441,0.204-0.836,0.523-1.094C8.668,8.387,8.665,8.335,8.665,8.284
		c0-0.128,0.037-0.249,0.071-0.37L7.68,7.159L6.216,8.112L4.752,7.159L1.016,9.826L4.08,6.692L0.376,3.804l5.84,3.151l5.841-3.151
		L8.353,6.692l0.661,0.677C9.029,7.351,9.035,7.328,9.052,7.31L9.73,6.637C9.988,6.375,10.342,6.227,10.718,6.227z"/>
	<path fill="#FFFFFF" d="M15.598,9.129h-0.801l0.574-0.57c0.156-0.158,0.156-0.41,0-0.562L14.723,7.34
		c-0.078-0.075-0.18-0.111-0.283-0.111c-0.103,0-0.207,0.036-0.285,0.111L13.59,7.91V7.12c0-0.225-0.186-0.404-0.398-0.404H11.98
		c-0.228,0-0.403,0.18-0.403,0.404v0.8l-0.569-0.568c-0.076-0.079-0.182-0.12-0.283-0.12c-0.103,0-0.205,0.041-0.283,0.12
		L9.783,7.996C9.711,8.073,9.669,8.177,9.669,8.284c0,0.104,0.042,0.207,0.114,0.282l0.564,0.562H9.559
		c-0.222,0-0.406,0.181-0.406,0.404v1.207c0,0.219,0.188,0.401,0.406,0.401h0.789l-0.568,0.565c-0.155,0.155-0.155,0.41,0,0.565
		l0.646,0.646c0.079,0.082,0.184,0.119,0.286,0.119s0.207-0.037,0.285-0.119l0.573-0.568v0.801c0,0.226,0.182,0.402,0.404,0.402
		h1.207c0.221,0,0.398-0.182,0.398-0.402V12.35l0.568,0.578c0.074,0.072,0.183,0.111,0.283,0.111c0.107,0,0.213-0.039,0.287-0.111
		l0.647-0.652c0.075-0.067,0.118-0.176,0.118-0.278c0-0.104-0.043-0.209-0.118-0.285l-0.569-0.567h0.791
		c0.223,0,0.402-0.187,0.402-0.4v-1.21C16,9.309,15.82,9.129,15.598,9.129z M12.576,11.84c-0.941,0-1.702-0.76-1.702-1.701
		c0-0.945,0.761-1.707,1.702-1.707c0.943,0,1.703,0.761,1.703,1.707C14.279,11.08,13.52,11.84,12.576,11.84z"/>
</g>
</svg>
