<?xml version="1.0" encoding="utf-8"?>
<!-- Generator: Adobe Illustrator 16.0.0, SVG Export Plug-In . SVG Version: 6.00 Build 0)  -->
<!DOCTYPE svg PUBLIC "-//W3C//DTD SVG 1.1//EN" "http://www.w3.org/Graphics/SVG/1.1/DTD/svg11.dtd">
<svg version="1.1" id="图层_1" xmlns="http://www.w3.org/2000/svg" xmlns:xlink="http://www.w3.org/1999/xlink" x="0px" y="0px"
	 width="16px" height="16px" viewBox="0 0 16 16" enable-background="new 0 0 16 16" xml:space="preserve">
<g>
	<path fill="#FFFFFF" d="M2.386,6.978h6.979v-1H2.386V6.978z M5.363,5h4V4h-4V5z M2.386,8.979H8.74c0.193-0.158,0.4-0.293,0.623-0.4
		V7.979H2.386V8.979z M2.363,12v1h3.184c0-0.02-0.004-0.035-0.004-0.055c0-0.33,0.058-0.646,0.156-0.945H2.363z M2.386,10.979H6.27
		C6.679,10.5,7.23,10.137,7.863,9.98V9.979H2.386V10.979z M3.363,1L0.484,4L0.363,4.126V15h5.975c-0.262-0.288-0.467-0.626-0.604-1
		H1.363V5h3V2h6v6.277c0.16-0.023,0.312-0.062,0.479-0.062c0.178,0,0.35,0.027,0.521,0.054V1H3.363z"/>
	<path fill="#FFFFFF" d="M15.637,12.646c0-1.287-1.037-2.332-2.32-2.354c0.168,0.326,0.271,0.69,0.271,1.084
		c0,0.896-0.499,1.669-1.229,2.078c0.438-0.361,0.748-0.874,0.844-1.462c0.021-0.125,0.039-0.249,0.039-0.383
		c0-0.262-0.055-0.512-0.131-0.748c-0.008-0.021-0.012-0.041-0.021-0.062l0,0c-0.021-0.06-0.041-0.113-0.066-0.17v-0.003
		c-0.039-0.091-0.09-0.181-0.146-0.269c-0.422-0.688-1.172-1.146-2.035-1.146c-0.86,0-1.614,0.46-2.036,1.146
		c1.09,0.052,1.954,0.938,1.954,2.045c0,0.231-0.048,0.459-0.118,0.668c0.002-0.043,0.015-0.084,0.015-0.127
		c0-0.338-0.093-0.654-0.235-0.938c-0.012-0.021-0.021-0.043-0.033-0.062c-0.354-0.627-1.018-1.055-1.783-1.055
		c-1.137,0-2.059,0.918-2.059,2.055c0,1.115,0.889,2.019,1.995,2.05V15h4.83v-0.01C14.626,14.945,15.637,13.918,15.637,12.646z"/>
</g>
</svg>
