<?xml version="1.0" encoding="utf-8"?>
<!-- Generator: Adobe Illustrator 16.0.0, SVG Export Plug-In . SVG Version: 6.00 Build 0)  -->
<!DOCTYPE svg PUBLIC "-//W3C//DTD SVG 1.1//EN" "http://www.w3.org/Graphics/SVG/1.1/DTD/svg11.dtd">
<svg version="1.1" id="图层_1" xmlns="http://www.w3.org/2000/svg" xmlns:xlink="http://www.w3.org/1999/xlink" x="0px" y="0px"
	 width="16px" height="16px" viewBox="0 0 16 16" enable-background="new 0 0 16 16" xml:space="preserve">
<g>
	<g>
		<path fill="#FFFFFF" d="M15.973,10.003h-7.64V16h7.64V10.003L15.973,10.003z M14.797,10.591h0.588v0.589h-0.588V10.591z
			 M13.623,10.591h0.588v0.589h-0.588V10.591z M12.447,10.591h0.588v0.589h-0.588V10.591z M8.922,15.412v-3.646h6.463v3.646H8.922z"
			/>
		<rect x="9.41" y="12.152" fill="#FFFFFF" width="1.074" height="1.074"/>
		<rect x="9.41" y="13.766" fill="#FFFFFF" width="1.074" height="1.074"/>
		<rect x="11.559" y="12.152" fill="#FFFFFF" width="1.076" height="1.074"/>
		<rect x="11.559" y="13.766" fill="#FFFFFF" width="1.076" height="1.074"/>
		<rect x="13.709" y="12.152" fill="#FFFFFF" width="1.076" height="1.074"/>
		<path fill="#FFFFFF" d="M7.333,9.003h2.026V0H0.027v16h7.307L7.333,9.003L7.333,9.003z M1.36,1.333h6.667v1.601H1.36V1.333z
			 M1.36,4.267h6.667v1.6H1.36V4.267z M1.36,7.2h6.667v1.6H1.36V7.2z M4.231,14.15l-0.732-3.334h0.84l0.397,2.576h0.009l0.401-2.576
			h0.841L5.23,14.15H4.231z"/>
		<rect x="13.709" y="13.766" fill="#FFFFFF" width="1.076" height="1.074"/>
	</g>
	<path fill="#FFFFFF" d="M11.48,7.614l3.711,1.61l-0.287-4.041L14.318,5.6c0,0-2.234-2.114-4.674-0.581c0,0,2.479,0.666,2.684,1.991
		L11.48,7.614z"/>
</g>
</svg>
