<?xml version="1.0" encoding="utf-8"?>
<!-- Generator: Adobe Illustrator 16.0.0, SVG Export Plug-In . SVG Version: 6.00 Build 0)  -->
<!DOCTYPE svg PUBLIC "-//W3C//DTD SVG 1.1//EN" "http://www.w3.org/Graphics/SVG/1.1/DTD/svg11.dtd">
<svg version="1.1" id="图层_1" xmlns="http://www.w3.org/2000/svg" xmlns:xlink="http://www.w3.org/1999/xlink" x="0px" y="0px"
	 width="16px" height="16px" viewBox="0 0 16 16" enable-background="new 0 0 16 16" xml:space="preserve">
<g>
	<path fill="#FFFFFF" d="M13.061,6.803l-0.428,0.218l1.59,0.984l0.139-1.864l-0.295,0.148c0,0-0.879-1.115-2.1-0.578
		C11.967,5.711,13.057,6.181,13.061,6.803z"/>
	<path fill="#FFFFFF" d="M14.176,9.5c0,0-1.089-0.471-1.094-1.087l0.429-0.219l-1.589-0.985L11.781,9.07l0.296-0.147
		C12.077,8.923,12.957,10.039,14.176,9.5z"/>
	<polygon fill="#FFFFFF" points="8.734,0 0.58,0 0.58,13.979 1.739,13.979 1.739,1.147 8.734,1.147 	"/>
	<path fill="#FFFFFF" d="M9.785,9.492c0.117,0,0.232,0.021,0.344,0.07l0.639,0.271V2.021H2.613V16h6.593
		c-0.183-0.164-0.295-0.396-0.295-0.648V10.37c0-0.261,0.116-0.493,0.31-0.657H3.778v-1.4h5.826V9.52
		C9.663,9.506,9.725,9.492,9.785,9.492z M6.381,11.473l0.348,2.25h0.008l0.35-2.25h0.735l-0.662,2.91H6.286l-0.64-2.91H6.381z
		 M3.778,3.184h5.826v1.4H3.778V3.184z M3.778,7.146V5.747h5.826v1.398L3.778,7.146L3.778,7.146z"/>
	<path fill="#FFFFFF" d="M14.12,11.016l-1.517-0.646L11.3,11.016L9.783,10.37v2.601v2.389L11.302,16l1.302-0.648l1.293,0.553
		L14.12,16l1.3-0.648V10.37L14.12,11.016z M14.986,13.919l-0.653-0.536l-0.628-0.544l1.281-0.712V13.919z M14.986,11.878
		l-1.457,0.81l-0.814-0.705l-1.355,0.096l-1.141-0.541v-0.514l0.913,0.396l0.185,0.078l0.186-0.096l1.121-0.562l1.332,0.573
		l0.188,0.078l0.183-0.09l0.673-0.336v0.812H14.986z"/>
</g>
</svg>
