<?xml version="1.0" encoding="utf-8"?>
<!-- Generator: Adobe Illustrator 16.0.0, SVG Export Plug-In . SVG Version: 6.00 Build 0)  -->
<!DOCTYPE svg PUBLIC "-//W3C//DTD SVG 1.1//EN" "http://www.w3.org/Graphics/SVG/1.1/DTD/svg11.dtd">
<svg version="1.1" id="图层_1" xmlns="http://www.w3.org/2000/svg" xmlns:xlink="http://www.w3.org/1999/xlink" x="0px" y="0px"
	 width="16px" height="16px" viewBox="0 0 16 16" enable-background="new 0 0 16 16" xml:space="preserve">
<g>
	<g>
		<path fill="#FFFFFF" d="M8.871,11.375l0.812-0.678l0.181,1.042l0.183,1.042l-0.513-0.188c0.093,0.484,0.344,0.935,0.741,1.271
			c0.832,0.708,2.078,0.698,2.896-0.026c0.147-0.132,0.379-0.117,0.513,0.033c0.133,0.148,0.117,0.379-0.031,0.512
			c-1.088,0.959-2.736,0.975-3.848,0.035c-0.639-0.543-0.998-1.305-1.033-2.104l-0.708-0.26L8.871,11.375z"/>
		<path fill="#FFFFFF" d="M13.699,13.67l-0.182-1.042l-0.188-1.042l0.518,0.188c-0.097-0.479-0.349-0.934-0.742-1.271
			c-0.832-0.707-2.078-0.696-2.896,0.024c-0.148,0.135-0.381,0.119-0.512-0.03c-0.135-0.149-0.119-0.378,0.029-0.513
			c1.086-0.959,2.737-0.979,3.849-0.034c0.639,0.543,0.999,1.305,1.032,2.104l0.713,0.26l-0.812,0.68L13.699,13.67z"/>
	</g>
	<path fill="#FFFFFF" d="M8.949,8H2.963v1.143h4.775C8.08,8.701,8.48,8.309,8.949,8z M2.963,10.285v1.143H6.76
		c0.061-0.396,0.152-0.781,0.301-1.143H2.963z M2.963,12.572v1.143h3.984c-0.119-0.365-0.193-0.746-0.225-1.143H2.963z M4.105,0
		L0.678,3.43V16h7.807c-0.393-0.33-0.738-0.709-1.014-1.143H1.82V5.863h10.286v1.355c0.396,0.033,0.776,0.109,1.146,0.23V0H4.105z
		 M5.252,4.706C5.05,4.869,4.794,4.952,4.484,4.952c-0.385,0-0.7-0.142-0.948-0.424C3.289,4.243,3.165,3.855,3.165,3.362
		c0-0.521,0.125-0.925,0.374-1.213c0.248-0.286,0.575-0.431,0.979-0.431c0.354,0,0.642,0.113,0.864,0.341
		c0.131,0.133,0.23,0.323,0.294,0.575L5.1,2.784C5.065,2.62,4.994,2.495,4.885,2.399C4.776,2.306,4.645,2.258,4.49,2.258
		c-0.215,0-0.389,0.083-0.521,0.249C3.834,2.676,3.767,2.945,3.767,3.315c0,0.396,0.067,0.679,0.198,0.846
		c0.131,0.168,0.301,0.252,0.512,0.252c0.156,0,0.29-0.054,0.401-0.159C4.99,4.146,5.071,3.979,5.119,3.75l0.566,0.194
		C5.599,4.284,5.455,4.538,5.252,4.706z M7.548,4.899H6.925L5.89,1.771h0.634l0.732,2.315l0.708-2.315h0.62L7.548,4.899z
		 M11.668,4.899h-0.542V2.438L10.553,4.9H9.989L9.417,2.438V4.9H8.875V1.771h0.873l0.525,2.135l0.52-2.135h0.875V4.899z"/>
</g>
</svg>
