<?xml version="1.0" encoding="utf-8"?>
<!-- Generator: Adobe Illustrator 16.0.0, SVG Export Plug-In . SVG Version: 6.00 Build 0)  -->
<!DOCTYPE svg PUBLIC "-//W3C//DTD SVG 1.1//EN" "http://www.w3.org/Graphics/SVG/1.1/DTD/svg11.dtd">
<svg version="1.1" id="图层_1" xmlns="http://www.w3.org/2000/svg" xmlns:xlink="http://www.w3.org/1999/xlink" x="0px" y="0px"
	 width="16px" height="16px" viewBox="0 0 16 16" enable-background="new 0 0 16 16" xml:space="preserve">
<g>
	<path fill="#FFFFFF" d="M14.111,6.507c-0.451,1.336-1.646,5.073-2.096,6.407l-1.843,1.623l-0.021,0.002l-0.301-2.348l0.195-0.76
		l1.5-4.441l0.331-0.984l0.099-0.288c0.006-0.012-0.219-0.088-0.211-0.099l-0.332-0.114l-0.24,0.718l-1.967,5.837l-0.119,0.347
		L9.643,16l0.025-0.006l2.835-2.581c0.456-1.366,1.354-4.281,2.179-6.721l-0.562-0.206C14.109,6.494,14.113,6.502,14.111,6.507z"/>
	<path fill="#FFFFFF" d="M14.982,2.812L13.527,2.32c-0.252-0.083-0.519-0.054-0.734,0.057c-0.223,0.108-0.398,0.303-0.484,0.557
		l-0.166,0.485l3.272,1.124c0.063-0.192,0.124-0.373,0.17-0.507c0.085-0.252,0.062-0.515-0.052-0.74
		C15.428,3.073,15.232,2.897,14.982,2.812z"/>
	
		<rect x="11.73" y="4.592" transform="matrix(-0.9472 -0.3205 0.3205 -0.9472 24.5824 14.1599)" fill="#FFFFFF" width="3.454" height="0.93"/>
	<path fill="#FFFFFF" d="M7.601,8.908h1.568l0.356-1.059H7.601V8.908z M7.601,6.773h2.288l0.356-1.06H7.601V6.773z M8.814,9.954
		H2.52v1.06h5.939L8.814,9.954z M11.305,2.589c0.064-0.188,0.162-0.358,0.273-0.517L9.507,0H0.365v16H8.57L8.4,14.857H1.507V1.143
		h6.857v3.429h2.266L11.305,2.589z M8.023,12.309l0.073-0.219H2.52v1.061h5.627L8.023,12.309z M7.436,4.944L7.071,4.582L4.149,6.966
		L3.218,5.782L2.475,6.557l1.674,2.179L7.436,4.944z"/>
	<polygon fill="#FFFFFF" points="11.014,11.973 11.338,12.518 13.46,6.32 12.58,6.024 10.459,12.217 	"/>
</g>
</svg>
