<?xml version="1.0" encoding="utf-8"?>
<!-- Generator: Adobe Illustrator 19.2.1, SVG Export Plug-In . SVG Version: 6.00 Build 0)  -->
<svg version="1.1" id="图层_1" xmlns="http://www.w3.org/2000/svg" xmlns:xlink="http://www.w3.org/1999/xlink" x="0px" y="0px"
	 viewBox="0 0 16 16" style="enable-background:new 0 0 16 16;"  width="16px" height="16px" xml:space="preserve">
<g>
	<path fill="#FFFFFF" d="M6.5,0.6C6.5,0.3,6.2,0,5.9,0C5.5,0,5.2,0.3,5.2,0.6v2.5h1.3V0.6z"/>
	<path fill="#FFFFFF" d="M10.8,0.6c0-0.4-0.3-0.6-0.6-0.6C9.8,0,9.5,0.3,9.5,0.6v2.5h1.3V0.6z"/>
	<path fill="#FFFFFF" d="M11.6,3.5H4.4c-0.2,0-0.4,0.1-0.4,0.3v0.6c0,0.2,0.2,0.3,0.4,0.3h7.3c0.2,0,0.4-0.1,0.4-0.3V3.8
		C12.1,3.6,11.9,3.5,11.6,3.5z"/>
	<path fill="#FFFFFF" d="M3.9,7.9c0,1.9,1.4,3.4,3.2,3.7v4.2c0,0.1,0.2,0.3,0.4,0.3h0.8c0.2,0,0.4-0.1,0.4-0.3v-4.2c1.8-0.3,3.2-1.8,3.2-3.7v-3H3.9
		V7.9z M8.2,5.8H9L8.3,7.6l1.2,0l-2.2,2.8L8,8.3H7.1L8.2,5.8z"/>
</g>
</svg>
