<?xml version="1.0" encoding="utf-8"?>
<!-- Generator: Adobe Illustrator 16.0.0, SVG Export Plug-In . SVG Version: 6.00 Build 0)  -->
<!DOCTYPE svg PUBLIC "-//W3C//DTD SVG 1.1//EN" "http://www.w3.org/Graphics/SVG/1.1/DTD/svg11.dtd">
<svg version="1.1" id="图层_1" xmlns="http://www.w3.org/2000/svg" xmlns:xlink="http://www.w3.org/1999/xlink" x="0px" y="0px"
	 width="16px" height="16px" viewBox="0 0 16 16" enable-background="new 0 0 16 16" xml:space="preserve">
<g>
	<path fill="#FFFFFF" d="M8.584,0.665c0.002-0.005,0.003-0.007,0.008-0.01c-0.059-0.03-0.123-0.053-0.186-0.082
		C8.354,0.547,8.305,0.514,8.247,0.489C8.246,0.492,8.242,0.496,8.24,0.499c-0.721-0.314-1.508-0.5-2.347-0.5
		c-0.835,0-1.625,0.186-2.346,0.5c-0.001-0.003-0.005-0.007-0.007-0.01C3.487,0.514,3.436,0.547,3.383,0.573
		C3.321,0.602,3.255,0.625,3.197,0.655c0.004,0.003,0.005,0.005,0.01,0.01C1.307,1.644,0,3.607,0,5.893
		c0,2.884,2.07,5.273,4.805,5.785v0.756H2.078c-0.522,0-0.544,0.545-0.544,0.545v1.092h5.704c-0.005-0.039,0.109-0.211,0.241-0.379
		c-0.19-0.449-0.294-0.941-0.294-1.461c0-2.086,1.696-3.784,3.782-3.784c0.095,0,0.186,0.021,0.278,0.029
		c0.229-0.678,0.543-1.92,0.543-2.583C11.789,3.607,10.481,1.644,8.584,0.665z M5.894,0.545c0.689,0,1.335,0.161,1.938,0.401
		C7.32,1.415,6.646,1.704,5.894,1.704c-0.751,0-1.426-0.289-1.937-0.757C4.559,0.707,5.205,0.545,5.894,0.545z M5.894,8.789
		c-1.601,0-2.896-1.296-2.896-2.896s1.295-2.896,2.896-2.896c1.6,0,2.897,1.297,2.897,2.896S7.493,8.789,5.894,8.789z M5.894,4.36
		c-0.292,0-0.561,0.086-0.793,0.226c0.073-0.021,0.148-0.037,0.227-0.037c0.431,0,0.779,0.349,0.779,0.777
		c0,0.432-0.349,0.778-0.779,0.778c-0.429,0-0.776-0.347-0.776-0.778c0-0.079,0.017-0.154,0.038-0.227
		C4.446,5.332,4.36,5.601,4.36,5.893c0,0.847,0.686,1.531,1.533,1.531c0.847,0,1.535-0.685,1.535-1.531
		C7.429,5.045,6.74,4.36,5.894,4.36z"/>
	<g>
		<ellipse fill="#FFFFFF" cx="11.347" cy="12.695" rx="0.827" ry="0.846"/>
		<path fill="#FFFFFF" d="M11.347,9.391c-1.822,0-3.301,1.479-3.301,3.305c0,1.824,1.479,3.303,3.301,3.303
			c1.824,0,3.306-1.479,3.306-3.303C14.652,10.869,13.171,9.391,11.347,9.391z M13.505,12.865c0,0.092-0.075,0.168-0.165,0.168
			h-0.204c-0.092,0-0.188,0.072-0.215,0.162l-0.113,0.283c-0.044,0.08-0.026,0.201,0.04,0.27l0.139,0.143
			c0.064,0.064,0.064,0.172,0,0.24l-0.233,0.238c-0.065,0.066-0.17,0.066-0.235,0l-0.14-0.143c-0.064-0.066-0.184-0.084-0.264-0.039
			l-0.278,0.115c-0.085,0.029-0.157,0.125-0.157,0.221v0.201c0,0.092-0.075,0.168-0.167,0.168h-0.33
			c-0.092,0-0.167-0.076-0.167-0.168v-0.201c0-0.096-0.072-0.191-0.158-0.221l-0.277-0.115c-0.08-0.045-0.199-0.027-0.264,0.039
			l-0.141,0.143c-0.063,0.066-0.17,0.066-0.234,0l-0.234-0.238c-0.063-0.068-0.063-0.176,0-0.24l0.141-0.143
			c0.066-0.068,0.082-0.189,0.04-0.27l-0.114-0.283c-0.026-0.09-0.123-0.162-0.215-0.162H9.358c-0.091,0-0.165-0.076-0.165-0.172
			v-0.336c0-0.094,0.074-0.17,0.165-0.17h0.199c0.092,0,0.188-0.072,0.215-0.162l0.114-0.283c0.042-0.08,0.026-0.199-0.04-0.268
			L9.706,11.5c-0.063-0.064-0.063-0.172,0-0.24l0.234-0.238c0.064-0.064,0.171-0.064,0.234,0l0.141,0.143
			c0.064,0.068,0.184,0.086,0.264,0.041l0.277-0.115c0.086-0.027,0.158-0.127,0.158-0.221v-0.201c0-0.094,0.075-0.17,0.167-0.17
			h0.33c0.092,0,0.167,0.076,0.167,0.17v0.201c0,0.094,0.072,0.193,0.157,0.221l0.277,0.115c0.081,0.045,0.2,0.027,0.265-0.041
			l0.14-0.143c0.065-0.064,0.17-0.064,0.235,0l0.233,0.238c0.064,0.068,0.064,0.176,0,0.24l-0.139,0.143
			c-0.066,0.068-0.084,0.188-0.04,0.268l0.113,0.283c0.026,0.09,0.123,0.162,0.215,0.162h0.204c0.09,0,0.165,0.076,0.165,0.17
			V12.865z"/>
	</g>
</g>
<g>
	<path fill="#FFFFFF" d="M8.584,0.665c0.002-0.005,0.003-0.007,0.008-0.01c-0.059-0.03-0.123-0.053-0.186-0.082
		C8.354,0.547,8.305,0.514,8.247,0.489C8.246,0.492,8.242,0.496,8.24,0.499c-0.721-0.314-1.508-0.5-2.347-0.5
		c-0.835,0-1.625,0.186-2.346,0.5c-0.001-0.003-0.005-0.007-0.007-0.01C3.487,0.514,3.436,0.547,3.383,0.573
		C3.321,0.602,3.255,0.625,3.197,0.655c0.004,0.003,0.005,0.005,0.01,0.01C1.307,1.644,0,3.607,0,5.893
		c0,2.884,2.07,5.273,4.805,5.785v0.756H2.078c-0.522,0-0.544,0.545-0.544,0.545v1.092h5.704c-0.005-0.039,0.109-0.211,0.241-0.379
		c-0.19-0.449-0.294-0.941-0.294-1.461c0-2.086,1.696-3.784,3.782-3.784c0.095,0,0.186,0.021,0.278,0.029
		c0.229-0.678,0.543-1.92,0.543-2.583C11.789,3.607,10.481,1.644,8.584,0.665z M5.894,0.545c0.689,0,1.335,0.161,1.938,0.401
		C7.32,1.415,6.646,1.704,5.894,1.704c-0.751,0-1.426-0.289-1.937-0.757C4.559,0.707,5.205,0.545,5.894,0.545z M5.894,8.789
		c-1.601,0-2.896-1.296-2.896-2.896s1.295-2.896,2.896-2.896c1.6,0,2.897,1.297,2.897,2.896S7.493,8.789,5.894,8.789z M5.894,4.36
		c-0.292,0-0.561,0.086-0.793,0.226c0.073-0.021,0.148-0.037,0.227-0.037c0.431,0,0.779,0.349,0.779,0.777
		c0,0.432-0.349,0.778-0.779,0.778c-0.429,0-0.776-0.347-0.776-0.778c0-0.079,0.017-0.154,0.038-0.227
		C4.446,5.332,4.36,5.601,4.36,5.893c0,0.847,0.686,1.531,1.533,1.531c0.847,0,1.535-0.685,1.535-1.531
		C7.429,5.045,6.74,4.36,5.894,4.36z"/>
	<path fill="#FFFFFF" d="M11.348,9.391c-1.823,0-3.302,1.479-3.302,3.305c0,1.824,1.479,3.303,3.302,3.303s3.305-1.479,3.305-3.303
		C14.652,10.869,13.171,9.391,11.348,9.391z"/>
	<path fill="#6F7985" d="M12.989,10.941h-1.642h-1.64c-0.181,0-0.329,0.146-0.329,0.328v2.537c0,0.184,0.148,0.33,0.329,0.33h1.179
		v0.426h-0.265v0.266h0.726h0.727v-0.266H11.81v-0.426h1.18c0.181,0,0.328-0.146,0.328-0.33V11.27
		C13.317,11.088,13.17,10.941,12.989,10.941z M13.138,13.385h-1.79H9.559V11.27c0-0.082,0.068-0.15,0.149-0.15h1.64h1.642
		c0.082,0,0.148,0.068,0.148,0.15V13.385z"/>
</g>
</svg>
