<?xml version="1.0" encoding="utf-8"?>
<!-- Generator: Adobe Illustrator 16.0.0, SVG Export Plug-In . SVG Version: 6.00 Build 0)  -->
<!DOCTYPE svg PUBLIC "-//W3C//DTD SVG 1.1//EN" "http://www.w3.org/Graphics/SVG/1.1/DTD/svg11.dtd">
<svg version="1.1" id="图层_1" xmlns="http://www.w3.org/2000/svg" xmlns:xlink="http://www.w3.org/1999/xlink" x="0px" y="0px"
	 width="16px" height="16px" viewBox="0 0 16 16" enable-background="new 0 0 16 16" xml:space="preserve">
<g>
	<path fill="#FFFFFF" d="M9.133,2.769h0.012L9.139,10.04L9.32,9.857c0.229-0.234,0.545-0.362,0.869-0.387V1.723H2.871V2.74h6.262
		V2.769z"/>
	<path fill="#FFFFFF" d="M10.855,1.046h0.012l-0.008,8.063C11.021,9.041,11.199,9,11.387,9h0.525V0H4.594v1.018h6.262V1.046
		L10.855,1.046z"/>
	<path fill="#FFFFFF" d="M1.088,16h7.32v-1.113c-0.018-0.087-0.053-0.17-0.051-0.262c0-0.031,0-0.062,0.002-0.092
		c-0.273-0.248-0.447-0.605-0.447-1.004v-1.057c0-0.402,0.176-0.767,0.455-1.015c-0.002-0.026-0.004-0.06-0.004-0.085
		c0-0.079,0.031-0.15,0.045-0.229V3.451h-7.32V16z M5.203,14.549H4.418l-0.574-2.613h0.66l0.311,2.021h0.008l0.314-2.021h0.66
		L5.203,14.549z M2.133,4.496h5.23v1.256h-5.23V4.496z M2.133,6.797h5.23v1.255h-5.23V6.797z M2.133,9.098h5.23v1.256h-5.23V9.098z"
		/>
	<path fill="#FFFFFF" d="M14.561,12.117h-0.703l0.504-0.502c0.142-0.137,0.142-0.359,0-0.496l-0.565-0.572
		c-0.004-0.006-0.012-0.004-0.021-0.008c-0.062-0.057-0.146-0.09-0.229-0.09c-0.092,0-0.182,0.031-0.25,0.098l-0.498,0.5v-0.691
		c0-0.196-0.158-0.354-0.354-0.354h-0.03h-0.498h-0.526c-0.197,0-0.354,0.156-0.354,0.354v0.701l-0.484-0.481l-0.016-0.019
		c-0.068-0.07-0.158-0.104-0.248-0.104c-0.091,0-0.182,0.033-0.25,0.104l-0.012,0.012l-0.562,0.558
		c-0.062,0.063-0.102,0.158-0.102,0.253c0,0.092,0.038,0.184,0.102,0.247l0.496,0.494H9.268c-0.19,0-0.354,0.153-0.354,0.354v1.057
		c0,0.193,0.162,0.354,0.354,0.354h0.693l-0.5,0.498c-0.139,0.141-0.139,0.359,0,0.5l0.223,0.223l0.346,0.345
		c0.068,0.069,0.158,0.104,0.25,0.104c0.093,0,0.185-0.035,0.248-0.104l0.509-0.503v0.703c0,0.197,0.153,0.354,0.354,0.354h1.057
		c0.193,0,0.354-0.154,0.354-0.354v-0.703l0.502,0.509c0.066,0.063,0.154,0.103,0.25,0.103s0.186-0.035,0.248-0.103l0.568-0.57
		c0.064-0.062,0.104-0.153,0.104-0.247c0-0.095-0.039-0.185-0.104-0.25l-0.5-0.5h0.693c0.194,0,0.354-0.16,0.354-0.354v-1.058
		C14.912,12.273,14.756,12.117,14.561,12.117z M11.914,14.494c-0.826,0-1.494-0.666-1.494-1.492c0-0.216,0.047-0.419,0.129-0.604
		c0.23-0.527,0.754-0.896,1.365-0.896c0.174,0,0.342,0.037,0.498,0.094c0.09,0.031,0.178,0.072,0.26,0.121
		c0.438,0.262,0.734,0.734,0.734,1.283C13.406,13.828,12.738,14.494,11.914,14.494z"/>
</g>
</svg>
