<?xml version="1.0" encoding="utf-8"?>
<!-- Generator: Adobe Illustrator 16.0.0, SVG Export Plug-In . SVG Version: 6.00 Build 0)  -->
<!DOCTYPE svg PUBLIC "-//W3C//DTD SVG 1.1//EN" "http://www.w3.org/Graphics/SVG/1.1/DTD/svg11.dtd">
<svg version="1.1" id="图层_1" xmlns="http://www.w3.org/2000/svg" xmlns:xlink="http://www.w3.org/1999/xlink" x="0px" y="0px"
	 width="16px" height="16px" viewBox="0 0 16 16" enable-background="new 0 0 16 16" xml:space="preserve">
<g>
	<path fill="#FFFFFF" d="M11.281,6.866h-0.887l0.635-0.633c0.176-0.175,0.176-0.455,0-0.629l-0.717-0.726
		c-0.088-0.082-0.201-0.122-0.316-0.122s-0.23,0.04-0.316,0.122L9.049,5.513V4.638c0-0.251-0.201-0.449-0.445-0.449H7.265
		c-0.25,0-0.448,0.198-0.448,0.449v0.887L6.184,4.894C6.098,4.804,5.982,4.76,5.868,4.76c-0.111,0-0.226,0.044-0.313,0.134
		L4.832,5.609C4.75,5.693,4.704,5.811,4.704,5.93c0,0.114,0.046,0.229,0.128,0.313l0.627,0.623H4.583c-0.246,0-0.45,0.199-0.45,0.45
		v1.336c0,0.244,0.204,0.447,0.45,0.447H5.46L4.829,9.73c-0.179,0.174-0.179,0.455,0,0.631l0.717,0.717
		c0.087,0.089,0.201,0.132,0.317,0.132c0.114,0,0.229-0.043,0.315-0.132l0.639-0.637v0.89c0,0.249,0.199,0.446,0.448,0.446h1.338
		c0.244,0,0.443-0.197,0.443-0.446v-0.89l0.637,0.642C9.77,11.167,9.881,11.212,10,11.212s0.234-0.045,0.316-0.129l0.721-0.722
		c0.084-0.078,0.131-0.195,0.131-0.312s-0.047-0.232-0.131-0.314l-0.635-0.633h0.879c0.248,0,0.447-0.205,0.447-0.447V7.316
		C11.729,7.065,11.529,6.866,11.281,6.866z M7.931,9.873c-1.045,0-1.89-0.844-1.89-1.889c0-1.046,0.845-1.894,1.89-1.894
		S9.82,6.938,9.82,7.984C9.82,9.029,8.977,9.873,7.931,9.873z"/>
	<path fill="#FFFFFF" d="M14.389,4.267l-0.234-0.393c-1.342-2.264-3.812-3.67-6.451-3.67c-1.114,0-2.194,0.244-3.209,0.727
		c-1.63,0.774-2.904,2.085-3.63,3.722l1.571,0.643C3,4.054,3.973,3.06,5.22,2.465C6,2.095,6.831,1.907,7.687,1.907
		c1.952,0,3.762,0.976,4.842,2.611l0.318,0.479l-1.084,0.516l3.271,2.09l0.444-3.856L14.389,4.267z M10.172,12.956
		c-0.771,0.362-1.59,0.547-2.435,0.547c-1.949,0-3.759-0.978-4.84-2.612L2.58,10.41l1.078-0.514L0.386,7.807l-0.445,3.857
		l1.094-0.52l0.232,0.393c1.343,2.263,3.815,3.669,6.454,3.67c0.001,0,0.001,0,0.001,0c0.678,0,1.34-0.102,1.986-0.281
		c0.006-0.393,0.158-0.771,0.457-1.08l0.047-0.049l0.44-0.348c-0.104-0.072-0.198-0.154-0.291-0.246
		C10.287,13.13,10.234,13.04,10.172,12.956z"/>
	<path fill="#FFFFFF" d="M15.646,11.514l0.414-0.826l-0.207-0.207l-0.826,0.414V11.1l-1.551,1.553l-0.556-0.43
		c0.233-0.439,0.175-1-0.196-1.373c-0.31-0.306-0.736-0.398-1.125-0.3l0.709,0.714v0.823h-0.824l-0.709-0.711
		c-0.104,0.39-0.008,0.819,0.295,1.123c0.373,0.375,0.934,0.438,1.375,0.2l0.297,0.378l-1.859,1.465
		c-0.338,0.351-0.127,0.729,0.018,0.896l0.188,0.188c0.16,0.144,0.49,0.206,0.896,0.049l1.396-1.791l1.365,1.734
		c0.352,0.337,0.729,0.126,0.895-0.021l0.188-0.185c0.141-0.162,0.354-0.493,0.049-0.897l-1.932-1.502l1.502-1.5H15.646z
		 M15.039,14.816c0.096-0.096,0.25-0.096,0.346,0c0.094,0.095,0.094,0.248,0,0.347c-0.096,0.094-0.25,0.094-0.346,0
		C14.945,15.064,14.945,14.911,15.039,14.816z"/>
</g>
</svg>
