<?xml version="1.0" encoding="utf-8"?>
<!-- Generator: Adobe Illustrator 16.0.0, SVG Export Plug-In . SVG Version: 6.00 Build 0)  -->
<!DOCTYPE svg PUBLIC "-//W3C//DTD SVG 1.1//EN" "http://www.w3.org/Graphics/SVG/1.1/DTD/svg11.dtd">
<svg version="1.1" id="图层_1" xmlns="http://www.w3.org/2000/svg" xmlns:xlink="http://www.w3.org/1999/xlink" x="0px" y="0px"
	 width="14px" height="14px" viewBox="0 0 14 14" enable-background="new 0 0 14 14" xml:space="preserve">
<g>
	<g>
		<path fill="#ffffff" d="M6.022,9.781h2.151v-1.68c0-0.452,0.211-0.88,0.776-1.253c0.567-0.368,2.145-1.121,2.145-3.101
			c0-1.978-1.658-3.337-3.052-3.627C6.649-0.169,5.141,0.021,4.067,1.194c-0.958,1.051-1.16,1.884-1.16,3.718h2.151V4.488
			c0-0.98,0.11-2.012,1.509-2.292c0.761-0.157,1.476,0.085,1.896,0.497c0.488,0.476,0.493,1.544-0.279,2.075L6.972,5.594
			C6.265,6.047,6.022,6.553,6.022,7.292V9.781L6.022,9.781z"/>
	</g>
	<g>
		<path fill="#ffffff" d="M7.101,11.184c0.776,0,1.409,0.631,1.409,1.407c0,0.779-0.633,1.408-1.409,1.408
			c-0.777,0-1.411-0.629-1.411-1.408C5.689,11.814,6.323,11.184,7.101,11.184z"/>
	</g>
</g>
</svg>
