<?xml version="1.0" encoding="utf-8"?>
<!-- Generator: Adobe Illustrator 16.0.0, SVG Export Plug-In . SVG Version: 6.00 Build 0)  -->
<!DOCTYPE svg PUBLIC "-//W3C//DTD SVG 1.1//EN" "http://www.w3.org/Graphics/SVG/1.1/DTD/svg11.dtd">
<svg version="1.1" id="图层_1" xmlns="http://www.w3.org/2000/svg" xmlns:xlink="http://www.w3.org/1999/xlink" x="0px" y="0px"
	 width="16px" height="16px" viewBox="0 0 16 16" enable-background="new 0 0 16 16" xml:space="preserve">
<g>
	<path fill="#6F7985" d="M7.025,0C3.144,0,0,1.399,0,3.127s3.145,3.127,7.025,3.127c3.88,0,7.025-1.399,7.025-3.127
		S10.905,0,7.025,0z"/>
	<g>
		<path fill="#6F7985" d="M7.025,7.111C3.144,7.111,0,5.713,0,3.984c0,0.722,0,1.203,0,2.392c0,1.728,3.145,3.127,7.025,3.127
			c3.88,0,7.025-1.399,7.025-3.127c0-0.635,0-1.297,0-2.392C14.05,5.713,10.905,7.111,7.025,7.111z"/>
	</g>
	<g>
		<path fill="#6F7985" d="M7.025,10.36C3.144,10.36,0,8.961,0,7.233c0,0.722,0,1.203,0,2.391c0,1.729,3.145,3.127,7.025,3.127
			c3.88,0,7.025-1.398,7.025-3.127c0-0.634,0-1.296,0-2.391C14.05,8.961,10.905,10.36,7.025,10.36z"/>
	</g>
	<g>
		<path fill="#6F7985" d="M7.025,13.609C3.144,13.609,0,12.21,0,10.482c0,0.722,0,1.203,0,2.391C0,14.601,3.144,16,7.025,16
			c3.88,0,7.025-1.399,7.025-3.127c0-0.635,0-1.296,0-2.391C14.05,12.21,10.905,13.609,7.025,13.609z"/>
	</g>
</g>
</svg>
