<?xml version="1.0" encoding="utf-8"?>
<!-- Generator: Adobe Illustrator 16.0.0, SVG Export Plug-In . SVG Version: 6.00 Build 0)  -->
<!DOCTYPE svg PUBLIC "-//W3C//DTD SVG 1.1//EN" "http://www.w3.org/Graphics/SVG/1.1/DTD/svg11.dtd">
<svg version="1.1" id="图层_1" xmlns="http://www.w3.org/2000/svg" xmlns:xlink="http://www.w3.org/1999/xlink" x="0px" y="0px"
	 width="16px" height="16px" viewBox="0 0 16 16" enable-background="new 0 0 16 16" xml:space="preserve">
<g>
	<path fill="#6F7985" d="M16,9.975H8.381v5.98H16V9.975z M14.828,10.562h0.586v0.587h-0.586V10.562z M13.656,10.562h0.586v0.587
		h-0.586V10.562z M12.484,10.562h0.586v0.587h-0.586V10.562z M8.968,15.369v-3.637h6.446v3.637H8.968z"/>
	<path fill="#6F7985" d="M7.381,14.298c-0.472-0.475-0.955-1.452-1.278-2.833c0.422,0.044,0.851,0.054,1.278,0.068v-1.318
		c-0.532-0.022-1.042-0.062-1.521-0.121C5.779,9.439,5.719,8.743,5.719,7.978s0.061-1.462,0.142-2.116
		C6.516,5.779,7.211,5.72,7.977,5.72c0.767,0,1.46,0.06,2.117,0.142c0.082,0.654,0.143,1.351,0.143,2.116
		c0,0.347-0.016,0.676-0.037,0.997h1.312c0.018-0.333,0.053-0.665,0.053-0.997c0-0.624-0.035-1.257-0.1-1.872
		c1.982,0.46,3.16,1.253,3.16,1.872c0,0.31-0.297,0.664-0.842,0.997h2.104c0.039-0.327,0.068-0.658,0.068-0.997
		C15.955,3.58,12.377,0,7.977,0S0,3.58,0,7.978c0,4.196,3.261,7.64,7.382,7.947V14.298z M14.191,5.676
		c-0.805-0.437-1.82-0.763-2.936-0.976c-0.217-1.115-0.543-2.132-0.979-2.938C12.088,2.435,13.518,3.866,14.191,5.676z M7.977,1.329
		c0.616,0,1.41,1.179,1.875,3.161c-0.619-0.064-1.25-0.1-1.875-0.1s-1.253,0.035-1.874,0.1C6.567,2.508,7.362,1.329,7.977,1.329z
		 M1.33,7.978c0-0.619,1.18-1.412,3.16-1.872C4.425,6.721,4.391,7.354,4.391,7.978S4.425,9.234,4.49,9.85
		C2.509,9.39,1.33,8.597,1.33,7.978z M1.763,10.28c0.805,0.436,1.821,0.762,2.935,0.975c0.217,1.115,0.543,2.132,0.979,2.938
		C3.866,13.521,2.438,12.089,1.763,10.28z M4.698,4.7c-1.114,0.213-2.13,0.539-2.935,0.976c0.675-1.81,2.103-3.241,3.914-3.913
		C5.242,2.568,4.915,3.585,4.698,4.7z"/>
</g>
</svg>
