<?xml version="1.0" encoding="utf-8"?>
<!-- Generator: Adobe Illustrator 16.0.0, SVG Export Plug-In . SVG Version: 6.00 Build 0)  -->
<!DOCTYPE svg PUBLIC "-//W3C//DTD SVG 1.1//EN" "http://www.w3.org/Graphics/SVG/1.1/DTD/svg11.dtd">
<svg version="1.1" id="图层_1" xmlns="http://www.w3.org/2000/svg" xmlns:xlink="http://www.w3.org/1999/xlink" x="0px" y="0px"
	 width="16px" height="16px" viewBox="0 0 16 16" enable-background="new 0 0 16 16" xml:space="preserve">
<g>
	<path fill="#6F7985" d="M8,0C3.588,0,0,3.589,0,8s3.589,8,8,8c4.412,0,8-3.589,8-8S12.411,0,8,0z M8,14.629
		c-3.655,0-6.629-2.975-6.629-6.629S4.345,1.371,8,1.371S14.628,4.346,14.628,8S11.654,14.629,8,14.629z"/>
	<path fill="#6F7985" d="M11.669,5.92l-0.594,0.595l0.754,0.753h-1.547C10.108,6.322,9.364,5.579,8.42,5.405V3.859l0.753,0.752
		l0.594-0.593L8,2.25L6.232,4.019l0.594,0.593l0.753-0.752v1.546C6.636,5.579,5.891,6.322,5.718,7.268H4.17l0.753-0.753L4.33,5.92
		L2.562,7.688L4.33,9.455L4.924,8.86L4.17,8.107h1.547C5.891,9.052,6.636,9.796,7.579,9.97v1.546l-0.753-0.752l-0.594,0.593
		L8,13.125l1.359-1.36c-0.121-0.262-0.19-0.553-0.19-0.861c0-0.047,0.003-0.093,0.007-0.139l-0.002-0.001L8.42,11.516V9.97
		c0.944-0.174,1.688-0.918,1.862-1.862h1.547l-0.752,0.752c0.047-0.003,0.094-0.006,0.142-0.006c0.308,0,0.599,0.068,0.86,0.19
		l1.357-1.356L11.669,5.92z M8,9.17c-0.817,0-1.482-0.665-1.482-1.482S7.183,6.205,8,6.205c0.818,0,1.482,0.665,1.482,1.482
		S8.817,9.17,8,9.17z"/>
	<polygon fill="#6F7985" points="11.305,12.281 11.296,12.281 10.933,9.924 10.163,9.924 10.835,12.974 11.75,12.974 12.442,9.924 
		11.673,9.924 	"/>
</g>
</svg>
