<?xml version="1.0" encoding="utf-8"?>
<!-- Generator: Adobe Illustrator 16.0.0, SVG Export Plug-In . SVG Version: 6.00 Build 0)  -->
<!DOCTYPE svg PUBLIC "-//W3C//DTD SVG 1.1//EN" "http://www.w3.org/Graphics/SVG/1.1/DTD/svg11.dtd">
<svg version="1.1" id="图层_1" xmlns="http://www.w3.org/2000/svg" xmlns:xlink="http://www.w3.org/1999/xlink" x="0px" y="0px"
	 width="16px" height="16px" viewBox="0 0 16 16" enable-background="new 0 0 16 16" xml:space="preserve">
<g>
	<g>
		<path fill="#6686B9" d="M15.807,10.124c-0.242-0.635-2.515-1.78-3.13-2.021c-0.038-0.02-0.321-0.12-0.321-0.168V7.328
			c0.521-0.534,1.297-1.572,1.438-2.829c0.217-1.858-0.789-3.365-2.124-3.375h-0.062c-1.418,0.009-2.149,1.258-2.125,2.874
			c0.295,0.167,0.569,0.372,0.812,0.641c0.771,0.877,1.128,2.158,0.973,3.511c-0.137,1.167-0.687,2.135-1.166,2.777
			c0.229,0.108,0.521,0.255,0.826,0.421H16C15.999,11.348,16.027,10.691,15.807,10.124z"/>
		<path fill="#6686B9" d="M5.94,10.939c-0.479-0.695-0.917-1.668-1.048-2.783c-0.165-1.456,0.156-2.72,0.9-3.562
			c0.254-0.284,0.552-0.5,0.878-0.665C6.643,2.344,5.721,1.133,4.524,1.125H4.461c-1.562,0.01-2.308,1.528-2.099,3.384
			C2.509,5.76,3.123,6.794,3.644,7.328v0.606c0,0.048-0.2,0.149-0.244,0.168c-0.608,0.242-2.927,1.387-3.168,2.021
			C0.012,10.691,0,11.348,0,11.348h5.131C5.424,11.189,5.707,11.05,5.94,10.939z"/>
	</g>
	<path fill="#6686B9" d="M6.972,11.63c-0.607,0.242-2.927,1.388-3.168,2.022c-0.22,0.562-0.232,1.223-0.232,1.223h8.855
		c0,0,0.027-0.654-0.192-1.223c-0.235-0.635-2.514-1.78-3.127-2.022c-0.043-0.021-0.318-0.119-0.318-0.168v-0.604
		c0.521-0.53,1.295-1.57,1.438-2.83C10.443,6.17,9.439,4.663,8.1,4.653H8.033C6.471,4.663,5.725,6.18,5.935,8.037
		c0.146,1.25,0.76,2.285,1.282,2.82v0.604C7.217,11.511,7.016,11.609,6.972,11.63z"/>
</g>
</svg>
