<?xml version="1.0" encoding="utf-8"?>
<!-- Generator: Adobe Illustrator 16.0.0, SVG Export Plug-In . SVG Version: 6.00 Build 0)  -->
<!DOCTYPE svg PUBLIC "-//W3C//DTD SVG 1.1//EN" "http://www.w3.org/Graphics/SVG/1.1/DTD/svg11.dtd">
<svg version="1.1" id="图层_1" xmlns="http://www.w3.org/2000/svg" xmlns:xlink="http://www.w3.org/1999/xlink" x="0px" y="0px"
	 width="16px" height="16px" viewBox="0 0 16 16" enable-background="new 0 0 16 16" xml:space="preserve">
<path fill="#217BCC" d="M12.837,9.563c0.503,0,0.975,0.195,1.33,0.549c0.033,0.032,0.057,0.07,0.086,0.104l1.096-0.547
	c1.02-1.603,0.838-3.749-0.562-5.148c-0.997-0.994-2.373-1.373-3.661-1.143c-0.164-0.256-0.352-0.504-0.575-0.727
	c-1.648-1.648-4.318-1.648-5.967,0C4.086,3.15,3.748,3.742,3.552,4.369C1.584,4.404,0,6.004,0,7.979
	c0,1.961,1.563,3.549,3.511,3.607v0.01h7.457c-0.016-0.209-0.01-0.421,0.045-0.63l0.116-0.437l0.783-0.787l0.44-0.115
	C12.511,9.585,12.674,9.563,12.837,9.563z M6.464,7.907C6.377,8.25,6.216,8.514,5.983,8.698c-0.234,0.186-0.52,0.278-0.852,0.278
	c-0.334,0-0.613-0.069-0.83-0.213C4.08,8.62,3.914,8.415,3.8,8.147c-0.103-0.25-0.16-0.526-0.16-0.813
	c0-0.315,0.061-0.595,0.186-0.835c0.128-0.247,0.312-0.441,0.55-0.57c0.233-0.129,0.487-0.19,0.761-0.19
	c0.317,0,0.593,0.085,0.815,0.25C6.174,6.155,6.332,6.39,6.417,6.684l0.06,0.211l-0.76,0.181L5.656,6.889
	C5.609,6.735,5.542,6.624,5.455,6.558C5.374,6.499,5.267,6.467,5.13,6.467c-0.168,0-0.296,0.038-0.402,0.112
	c-0.105,0.073-0.177,0.17-0.22,0.298C4.459,7.024,4.434,7.18,4.434,7.334c0,0.204,0.029,0.382,0.086,0.531
	c0.052,0.13,0.126,0.221,0.229,0.282C4.86,8.214,4.976,8.248,5.101,8.248c0.155,0,0.277-0.042,0.378-0.128
	c0.104-0.083,0.175-0.221,0.216-0.402l0.046-0.207l0.78,0.191L6.464,7.907z M12.046,8.931h-0.77V7.69l-0.432,1.24H10.22L9.792,7.675
	v1.256H9.021V6.319L7.999,8.931H7.339L6.12,5.783h0.845l0.707,1.972l0.735-1.972h1.52l0.627,1.874l0.646-1.874h0.847V8.931z
	 M14.388,12.467l1.143-1.141h0.156L16,10.699l-0.157-0.158l-0.628,0.313v0.157l-1.181,1.181l-0.42-0.327
	c0.178-0.335,0.131-0.761-0.152-1.044c-0.232-0.231-0.559-0.306-0.855-0.228l0.541,0.542v0.627h-0.627l-0.541-0.54
	c-0.078,0.296-0.006,0.623,0.227,0.854c0.283,0.285,0.709,0.334,1.045,0.153l0.227,0.288l-1.416,1.112
	c-0.258,0.267-0.096,0.557,0.014,0.683l0.141,0.141c0.123,0.107,0.373,0.155,0.683,0.037l1.06-1.362l1.039,1.319
	c0.268,0.255,0.555,0.097,0.68-0.014l0.144-0.142c0.106-0.122,0.269-0.374,0.037-0.682L14.388,12.467z M15.487,14.104
	c-0.074,0.071-0.191,0.071-0.262,0c-0.074-0.074-0.074-0.191,0-0.264c0.07-0.072,0.188-0.072,0.262,0
	C15.558,13.912,15.558,14.029,15.487,14.104z"/>
</svg>
