<?xml version="1.0" encoding="utf-8"?>
<!-- Generator: Adobe Illustrator 19.2.1, SVG Export Plug-In . SVG Version: 6.00 Build 0)  -->
<svg version="1.1" id="图层_1" xmlns="http://www.w3.org/2000/svg" xmlns:xlink="http://www.w3.org/1999/xlink" x="0px" y="0px"
	 viewBox="0 0 16 16" style="enable-background:new 0 0 16 16;" xml:space="preserve">
<g>
	<path fill="#9e83a9" d="M12.3,7.9c-1.4,1.4-5.1,5.2-6.5,6.6l-4.2-0.1l0,0l0.1-4l0.7-0.8L7,5l1-1l0.3-0.3c0,0-0.2-0.2-0.2-0.3L7.7,3.1L7,3.9l-6,6
		l-0.4,0.4L0,15.9l0,0l6-0.5c1.4-1.4,4.3-4.4,6.8-6.9L12.3,7.9C12.3,7.8,12.3,7.9,12.3,7.9z"/>
	<path fill="#9e83a9" d="M15.6,3.8l-3.3-3.4c-0.3-0.3-0.6-0.4-0.9-0.4c-0.3,0-0.7,0.1-0.9,0.4L9.9,1l5.2,5.3c0.2-0.2,0.4-0.4,0.5-0.5
		C15.9,5.5,16,5.1,16,4.8C16,4.4,15.9,4.1,15.6,3.8z"/>
	<polygon fill="#9e83a9" points="8.4,2.6 13.6,7.8 14.5,6.9 9.3,1.7 	"/>
	<polygon fill="#9e83a9" points="4.2,11.8 5.2,13.6 11.6,7.2 8.8,4.5 2.4,10.8 	"/>
</g>
</svg>
