<?xml version="1.0" encoding="utf-8"?>
<!-- Generator: Adobe Illustrator 16.0.0, SVG Export Plug-In . SVG Version: 6.00 Build 0)  -->
<!DOCTYPE svg PUBLIC "-//W3C//DTD SVG 1.1//EN" "http://www.w3.org/Graphics/SVG/1.1/DTD/svg11.dtd">
<svg version="1.1" id="图层_1" xmlns="http://www.w3.org/2000/svg" xmlns:xlink="http://www.w3.org/1999/xlink" x="0px" y="0px"
	 width="16px" height="16px" viewBox="0 0 16 16" enable-background="new 0 0 16 16" xml:space="preserve">
<g>
	<path fill="#6686B9" d="M5.912,5.141V3.923c0-0.029-0.062-0.053-0.132-0.053H2.752c-0.071,0-0.138,0.023-0.138,0.053v1.218
		c0,0.029,0.066,0.054,0.138,0.054H5.78C5.851,5.195,5.912,5.17,5.912,5.141z"/>
	<path fill="none" d="M1.081,2.702v7.568c0,0.295,0.242,0.539,0.541,0.539h8.271V5.082h3.079v-2.38H1.081z"/>
	<path fill="#6686B9" d="M1.622,10.809c-0.299,0-0.541-0.244-0.541-0.539V2.702h11.891v2.38h1.081V1.621
		c0-0.896-0.726-1.622-1.62-1.622H1.622C0.728-0.001,0,0.725,0,1.621v8.649c0,0.895,0.728,1.619,1.622,1.619h8.271v-1.08H1.622z"/>
	<path fill="#6686B9" d="M12.235,5.198V3.804c0-0.036-0.074-0.064-0.153-0.064H8.684c-0.085,0-0.154,0.028-0.154,0.064V5.27
		c0,0.035,0.069,0.065,0.154,0.065h1.794V5.198H12.235z"/>
	<rect x="2.559" y="8.356" fill="#6686B9" width="7.334" height="0.873"/>
	<rect x="2.559" y="6.362" fill="#6686B9" width="7.334" height="0.872"/>
	<path fill="#6686B9" d="M12.235,5.27V5.198h-1.758v0.138h1.604C12.161,5.335,12.235,5.305,12.235,5.27z"/>
	<path fill="#6686B9" d="M10.81,6.684v8.898H16V6.684H10.81z M13.405,14.43c-0.308,0-0.557-0.25-0.557-0.557
		s0.249-0.557,0.557-0.557c0.307,0,0.556,0.25,0.556,0.557S13.712,14.43,13.405,14.43z M15.259,11.578h-3.708v-0.891h3.708V11.578z
		 M15.259,9.947h-3.708V9.057h3.708V9.947z M15.259,8.315h-3.708v-0.89h3.708V8.315z"/>
</g>
</svg>
