<?xml version="1.0" encoding="utf-8"?>
<!-- Generator: Adobe Illustrator 19.1.0, SVG Export Plug-In . SVG Version: 6.00 Build 0)  -->
<svg version="1.1" id="图层_1" xmlns="http://www.w3.org/2000/svg" xmlns:xlink="http://www.w3.org/1999/xlink" x="0px" y="0px"
	 viewBox="0 0 16 16" style="enable-background:new 0 0 16 16;" xml:space="preserve">
<style type="text/css">
	.st0{fill:#9e83a9;}
</style>
<g>
	<path class="st0" d="M11.9,8.1c-0.2-0.2-0.6-0.4-1.4,0.1c0.1-0.3-0.2-0.6-0.5-0.6C9.6,7.6,9.3,7.7,9,8C8.7,7.5,8.3,7.5,7.5,8
		C7.2,8.2,7,8.3,6.8,8.4c-0.1,0-0.1,0.1-0.1,0.1c0.1,0,0.2,0,0.2,0c1.1,0,1.9,0,1.9,0.9c0,0.7-0.8,0.9-1.3,0.9h-2
		c-0.8,0-1.6-0.9-1.6-0.9s0.9,0.4,1.6,0.4h2c0,0,0.8,0,0.8-0.5C8.3,9.1,8.1,9,6.9,9C6.1,9,5.3,8.5,5.3,8.5S4.4,7.9,4.2,7.8
		C3.6,7.4,3.1,7.1,2.1,7.5C1.4,7.7,0,8.4,0,8.4l1.3,2.9L2,10.9c0.4-0.2,0.6-0.3,1.1,0c0.5,0.2,1.9,1,2.3,1.2
		c1.1,0.5,1.6,0.1,2.1-0.3c0.5-0.3,3.7-2.4,4-2.6C11.9,8.8,12.1,8.4,11.9,8.1z"/>
	<rect x="8.1" y="4.8" class="st0" width="2.3" height="1.4"/>
	<rect x="3.7" y="4.8" class="st0" width="2.3" height="1.4"/>
	<rect x="12.4" y="4.8" class="st0" width="2.3" height="1.4"/>
	<g>
		<path class="st0" d="M16,4.8V4H2.4v0.9c0,0,0.3,0.1,0.3,0.5c0,0.5-0.3,0.5-0.3,0.5v1c0.2,0,0.4-0.1,0.6-0.1c0.6,0,1,0.2,1.4,0.5
			V7.3h0.1v0.1l0,0c0,0,0,0,0.1,0V7.3h0.1v0.2c0,0,0.1,0,0.1,0.1V7.3h0.1v0.4c0,0,0.1,0,0.1,0.1V7.3H5v0.5c0,0,0.1,0,0.1,0.1V7.3
			h0.1v0.6c0,0,0,0,0.1,0V7.3h0.1V8c0,0,0.1,0,0.1,0.1V7.3h0.1v0.9c0,0,0,0,0,0c0,0,0.1,0,0.1,0.1h0V7.3h0.1v0.9h0.1V7.3h0.1v0.9H6
			V7.3h0.1v0.9h0.1V7.3h0.1v0.9l0.1,0V7.3h0.1v0.8l0.1,0V7.3h0.1V8c0,0,0.1,0,0.1,0V7.3h0.1v0.6c0,0,0.1-0.1,0.1-0.1V7.3H7v0.5
			c0,0,0.1,0,0.1,0V7.3h0.1v0.4c0,0,0,0,0.1,0c0,0,0,0,0,0V7.3h0.1v0.3c0,0,0.1,0,0.1,0V7.3h0.1v0.2c0,0,0.1,0,0.1,0V7.3h0.1v0.1
			c0,0,0,0,0.1,0V7.3h0.1v0c0.2-0.1,0.4-0.1,0.5-0.1c0.2,0,0.4,0.1,0.6,0.2l0-0.1h0.3c0.2-0.1,0.4-0.1,0.6-0.1c0.2,0,0.3,0,0.5,0.1
			h0.1v0c0,0,0.1,0,0.1,0.1V7.3h0.1v0.2c0,0,0.1,0,0.1,0.1V7.3h0.1v0.2c0,0,0.1,0,0.1,0V7.3H11v0.2c0,0,0.1,0,0.1,0V7.3h0.1v0.2
			c0,0,0.1,0,0.1,0V7.3h0.1v0.2c0,0,0,0,0.1,0V7.3h0.1v0.2c0,0,0.1,0,0.1,0V7.3h0.1v0.2c0,0,0.1,0,0.1,0.1V7.3H12v0.3
			c0,0,0.1,0,0.1,0V7.3h0.1v0.5c0,0,0.1,0.1,0.1,0.1V7.3h0.1V8c0,0.1,0.1,0.1,0.1,0.2V7.3h0.1v0.9h0.1V7.3h0.1v0.9h0.1V7.3h0.1v0.9
			h0.1V7.3H13v0.9h0.1V7.3h0.1v0.9h0.1V7.3h0.1v0.9h0.1V7.3h0.1v0.9h0.1V7.3h0.1v0.9h0.1V7.3H14v0.9H14V7.3h0.1v0.9h0.1V7.3h0.1v0.9
			h0.1V7.3h0.1v0.9h0.1V7.3h0.1v0.9h0.1V7.3h0.1v0.9H15V7.3h0.1v0.9h0.1V7.3h0.1v0.9h0.1V7.3h0.1v0.9h0.1V7.3h0.1v0.9H16V5.8
			c0,0-0.3-0.1-0.3-0.5C15.7,4.8,16,4.8,16,4.8z M6.2,6.5H3.5V4.6h2.8V6.5z M10.6,6.5H7.8V4.6h2.8V6.5z M14.9,6.5h-2.8V4.6h2.8V6.5z
			"/>
	</g>
</g>
</svg>
