<?xml version="1.0" encoding="utf-8"?>
<!-- Generator: Adobe Illustrator 16.0.0, SVG Export Plug-In . SVG Version: 6.00 Build 0)  -->
<!DOCTYPE svg PUBLIC "-//W3C//DTD SVG 1.1//EN" "http://www.w3.org/Graphics/SVG/1.1/DTD/svg11.dtd">
<svg version="1.1" id="图层_1" xmlns="http://www.w3.org/2000/svg" xmlns:xlink="http://www.w3.org/1999/xlink" x="0px" y="0px"
	 width="16px" height="16px" viewBox="0 0 16 16" enable-background="new 0 0 16 16" xml:space="preserve">
<g>
	<path fill="#217BCC" d="M8.744,14.857H1.17V4.572H4.6v-3.43h6.857v7.104c0.158-0.062,0.325-0.103,0.505-0.103H12.6V0H3.457
		L0.166,3.429L0.027,3.574V16h9.645l-0.604-0.603C8.914,15.245,8.813,15.058,8.744,14.857z"/>
	<path fill="#217BCC" d="M8.663,10.707c0-0.361,0.137-0.706,0.385-0.971l0.088-0.087V9.601H5.898v1.144h2.767
		C8.665,10.731,8.663,10.72,8.663,10.707z"/>
	<path fill="#217BCC" d="M15.57,11.549h-0.796l0.572-0.568c0.155-0.156,0.155-0.408,0-0.564L14.7,9.765
		c-0.078-0.075-0.18-0.11-0.283-0.11c-0.103,0-0.206,0.035-0.284,0.11l-0.566,0.568V9.547c0-0.224-0.182-0.403-0.401-0.403h-1.203
		c-0.223,0-0.402,0.18-0.402,0.403v0.797l-0.567-0.566c-0.077-0.079-0.182-0.12-0.283-0.12c-0.103,0-0.204,0.041-0.282,0.12
		L9.777,10.42c-0.072,0.077-0.114,0.181-0.114,0.287c0,0.104,0.042,0.206,0.114,0.281l0.563,0.561H9.554
		c-0.221,0-0.404,0.18-0.404,0.404v1.202c0,0.219,0.184,0.401,0.404,0.401h0.787l-0.566,0.566c-0.16,0.156-0.16,0.408,0,0.566
		l0.644,0.643c0.078,0.081,0.182,0.119,0.285,0.119c0.103,0,0.206-0.038,0.284-0.119l0.572-0.569v0.798
		c0,0.223,0.18,0.402,0.402,0.402h1.203c0.22,0,0.401-0.18,0.401-0.402v-0.798l0.57,0.576c0.075,0.074,0.178,0.114,0.283,0.114
		c0.107,0,0.212-0.04,0.285-0.114l0.646-0.649c0.075-0.07,0.117-0.175,0.117-0.28c0-0.107-0.042-0.209-0.117-0.284l-0.568-0.568
		h0.787c0.223,0,0.402-0.183,0.402-0.401v-1.202C15.973,11.729,15.793,11.549,15.57,11.549z M12.561,14.251
		c-0.938,0-1.696-0.757-1.696-1.695c0-0.942,0.758-1.701,1.696-1.701c0.94,0,1.698,0.759,1.698,1.701
		C14.259,13.494,13.501,14.251,12.561,14.251z"/>
	<polygon fill="#217BCC" points="3.823,7.001 2.268,7.001 4.129,8.864 2.269,10.725 3.824,10.725 5.686,8.864 	"/>
	<path fill="#217BCC" d="M2.312,13.715h5.959c-0.076-0.172-0.121-0.36-0.121-0.56v-0.583H2.312V13.715z"/>
	<rect x="9.572" y="3.144" fill="#217BCC" width="1.143" height="3.547"/>
	<rect x="5.422" y="3.144" fill="#217BCC" width="1.145" height="3.547"/>
	<rect x="7.498" y="2.001" fill="#217BCC" width="1.143" height="4.689"/>
</g>
</svg>
