<svg xmlns="http://www.w3.org/2000/svg" viewBox="0 0 242.59 256"><defs><style>.cls-1{fill:#0a0;}</style></defs><title>资源 1</title><g id="图层_2" data-name="图层 2"><g id="图层_1-2" data-name="图层 1"><path class="cls-1" d="M192.79,0h10A10.5,10.5,0,0,0,205,1c21.35,4.31,35.54,19.85,37.44,41,1.7,19-10.16,37.32-29.32,44.77-3.21,1.25-3.63,3-3.62,6,.09,23.16.15,46.32,0,69.48,0,4.1,1.16,6,5.07,7.49,17.56,6.86,29,24.88,28,43.26A44.73,44.73,0,0,1,209.37,254c-2.21.61-4.39,1.3-6.59,2h-10a10.48,10.48,0,0,0-2.21-1c-21.46-4.32-35.37-19.57-37.4-41-1.79-18.9,10.11-37.24,29.32-44.77,2.89-1.13,3.6-2.64,3.58-5.49-.09-23.5,0-47-.06-70.5,0-2.59.54-5.14-3.16-6.29-3.49-1.09-5.89-1.93-9.13,1.35-30.11,30.46-60.47,60.68-90.75,91-1.14,1.14-2.17,2.39-3.3,3.64l2.09,3.19a44.65,44.65,0,0,1-26.35,68.32c-1.9.48-3.76,1.08-5.64,1.62h-10a10.46,10.46,0,0,0-2.21-1C16.14,250.67,2.26,235.48.18,214c-1.83-18.86,10.12-37.34,29.2-44.81,2.77-1.09,3.75-2.44,3.72-5.4-.16-12-.35-24,.12-36a18.58,18.58,0,0,1,3.92-10.25c3.05-3.78,7.79-4.3,12.33-2.21,4.89,2.25,7,6.37,7.06,11.66,0,12.32,0,24.64.08,37,0,1.42.85,3.95,1.51,4,1.5.15,3.13-.86,4.67-1.49.43-.18.72-.68,1.07-1q46.44-46.45,92.94-92.84c2.5-2.49,2.94-4.23,1.26-7.56A44.5,44.5,0,0,1,187.15,1.63C189,1.14,190.91.54,192.79,0Z"/><path class="cls-1" d="M16.34,47H0A44.19,44.19,0,0,0,10,72.54a82.81,82.81,0,0,1,10-2.85A83.88,83.88,0,0,1,16.34,47Zm3.6-27.85a83.35,83.35,0,0,1-10-2.85A44.35,44.35,0,0,0,0,41.83H16.33A84.68,84.68,0,0,1,19.93,19.14ZM24.08,9a43.51,43.51,0,0,1,3.69-5.85,44.66,44.66,0,0,0-13.95,9,80.51,80.51,0,0,0,7.85,2.09A54.62,54.62,0,0,1,24.08,9Zm4.56,2.41c-.63,1.21-1.23,2.47-1.79,3.78a111.59,111.59,0,0,0,15,1.31V0c-1.2.07-2.38.18-3.55.35C34.75,2.36,31.44,6.13,28.64,11.42ZM21.5,41.83H41.84V21.67A116.6,116.6,0,0,1,25,20.13,78.51,78.51,0,0,0,21.5,41.83ZM25,68.69a116.6,116.6,0,0,1,16.82-1.54V47H21.5A78.51,78.51,0,0,0,25,68.69Zm3.62,8.71c2.8,5.29,6.11,9.05,9.66,11.08,1.16.16,2.35.28,3.55.35V72.32a111.59,111.59,0,0,0-15,1.31C27.41,74.94,28,76.19,28.64,77.4Zm-7-2.82a79,79,0,0,0-7.85,2.09,44.66,44.66,0,0,0,13.95,9,43.51,43.51,0,0,1-3.69-5.85A54.62,54.62,0,0,1,21.67,74.58ZM47,72.32V88.83c1.2-.07,2.38-.18,3.55-.35,3.56-2,6.87-5.78,9.66-11.08.63-1.21,1.23-2.47,1.79-3.78A110.09,110.09,0,0,0,47,72.32ZM67.35,47H47V67.15a116.6,116.6,0,0,1,16.82,1.54A78.51,78.51,0,0,0,67.35,47ZM63.82,20.13A116.6,116.6,0,0,1,47,21.67V41.83H67.35A78.51,78.51,0,0,0,63.82,20.13ZM60.2,11.42C57.4,6.13,54.09,2.37,50.55.35,49.38.18,48.2.07,47,0V16.51A111.59,111.59,0,0,0,62,15.2C61.43,13.89,60.84,12.63,60.2,11.42Zm7,2.82A79,79,0,0,0,75,12.15a44.66,44.66,0,0,0-13.95-9A43.51,43.51,0,0,1,64.76,9,54.62,54.62,0,0,1,67.17,14.24Zm5.33,27.59H88.83a44.19,44.19,0,0,0-10-25.54,82.81,82.81,0,0,1-10,2.85A83.88,83.88,0,0,1,72.51,41.83Zm-3.6,27.85a83.9,83.9,0,0,1,10,2.85A44.35,44.35,0,0,0,88.84,47H72.51A84.28,84.28,0,0,1,68.91,69.69ZM64.76,79.81a43.51,43.51,0,0,1-3.69,5.85,44.66,44.66,0,0,0,13.95-9,80.51,80.51,0,0,0-7.85-2.09A54.62,54.62,0,0,1,64.76,79.81Z"/></g></g></svg>