<?xml version="1.0" encoding="utf-8"?>
<!-- Generator: Adobe Illustrator 16.0.0, SVG Export Plug-In . SVG Version: 6.00 Build 0)  -->
<!DOCTYPE svg PUBLIC "-//W3C//DTD SVG 1.1//EN" "http://www.w3.org/Graphics/SVG/1.1/DTD/svg11.dtd">
<svg version="1.1" id="图层_1" xmlns="http://www.w3.org/2000/svg" xmlns:xlink="http://www.w3.org/1999/xlink" x="0px" y="0px"
	 width="16px" height="16px" viewBox="0 0 16 16" enable-background="new 0 0 16 16" xml:space="preserve">
<path fill="#76a794" d="M8,0C3.588,0,0,3.59,0,8s3.588,8,8,8s8-3.59,8-8S12.412,0,8,0z M8,14.668c-0.617,0-1.414-1.184-1.879-3.171
	c0.621,0.064,1.254,0.1,1.879,0.1c0.627,0,1.258-0.035,1.881-0.1C9.414,13.484,8.618,14.668,8,14.668z M8,10.265
	c-0.768,0-1.463-0.061-2.119-0.143C5.797,9.466,5.736,8.768,5.736,8s0.061-1.466,0.145-2.122C6.537,5.796,7.232,5.735,8,5.735
	s1.465,0.061,2.123,0.143C10.205,6.534,10.266,7.232,10.266,8s-0.061,1.466-0.143,2.122C9.465,10.204,8.768,10.265,8,10.265z
	 M4.506,9.878C2.516,9.416,1.334,8.62,1.334,8s1.182-1.416,3.172-1.878C4.439,6.74,4.402,7.374,4.402,8S4.439,9.26,4.506,9.878z
	 M8,1.332c0.618,0,1.414,1.184,1.881,3.171C9.258,4.438,8.627,4.403,8,4.403c-0.625,0-1.258,0.035-1.879,0.1
	C6.586,2.516,7.383,1.332,8,1.332z M11.498,6.122C13.484,6.584,14.666,7.38,14.666,8s-1.182,1.416-3.168,1.878
	C11.562,9.26,11.6,8.626,11.6,8S11.562,6.74,11.498,6.122z M14.23,5.691c-0.806-0.437-1.824-0.765-2.941-0.978
	c-0.217-1.119-0.545-2.139-0.982-2.945C12.123,2.442,13.556,3.877,14.23,5.691z M5.693,1.769c-0.436,0.807-0.765,1.826-0.98,2.945
	C3.595,4.927,2.576,5.255,1.771,5.691C2.445,3.877,3.877,2.442,5.693,1.769z M1.771,10.309c0.805,0.437,1.823,0.765,2.941,0.978
	c0.217,1.119,0.545,2.139,0.98,2.945C3.877,13.558,2.445,12.123,1.771,10.309z M10.307,14.231c0.438-0.807,0.766-1.826,0.982-2.945
	c1.117-0.213,2.136-0.541,2.941-0.978C13.556,12.123,12.123,13.558,10.307,14.231z"/>
</svg>
