<?xml version="1.0" standalone="no"?>
<!DOCTYPE svg PUBLIC "-//W3C//DTD SVG 1.1//EN"
    "http://www.w3.org/Graphics/SVG/1.1/DTD/svg11.dtd">
<!-- Generator: Adobe Illustrator 16.0.0, SVG Export Plug-In . SVG Version: 6.00 Build 0)  -->
<svg contentScriptType="text/ecmascript" zoomAndPan="magnify" xmlns:xlink="http://www.w3.org/1999/xlink" baseProfile="full"
    contentStyleType="text/css" id="图层_1" enable-background="new 0 0 16 16" version="1.1" width="16px" xml:space="preserve"
    preserveAspectRatio="xMidYMid meet" viewBox="0 0 16 16" height="16px" xmlns="http://www.w3.org/2000/svg" x="0px" y="0px">      
    <g>           
        <path fill="#6686B9" d="M 3.3113334 5.1266665 V 3.9226665 c 0.0 -0.029 -0.025 -0.054 -0.053 -0.054 H 2.0553334 c 
            -0.029 0.0 -0.055 0.024 -0.055 0.054 V 5.1266665 c 0.0 0.029 0.025 0.052 0.055 0.052 h 1.203 C 3.2863333 
            5.1786666 3.3113334 5.155667 3.3113334 5.1266665 z"/>           
        <path fill="#6686B9" d="M 9.070667 8.464668 H 1.3556668 v 0.864 h 7.864 c -0.061 -0.219 -0.115 -0.451 -0.145 
            -0.705 C 9.068666 8.568668 9.074667 8.518667 9.070667 8.464668 z"/>           
        <path fill="#6686B9" d="M 0.93860465 10.195667 V 2.7146668 h 10.315878 v 2.1350002 c 0.014035225 0.0 0.025439262 
            -0.0050001144 0.037719727 -0.0050001144 c 0.3219328 0.00399971 0.62368965 0.08099985 0.8991308 0.21799994 V 
            1.6446667 c 0.0 -0.8859999 -0.6307068 -1.604 -1.4070292 -1.604 H 1.4079069 C 0.62982994 0.0406667 0.0 
            0.75866675 0.0 1.6446667 v 8.5529995 c 0.0 0.8850002 0.63070714 1.6040001 1.4079069 1.6040001 h 6.3570724 c 
            0.02719307 -0.12999916 0.06140423 -0.26799965 0.107895374 -0.40200043 c 0.037719727 -0.11699867 0.12807226 
            -0.35099792 0.411407 -0.66799927 H 1.4079069 C 1.1473783 10.731667 0.93860465 10.490667 0.93860465 10.195667 
            z"/>           
        <path fill="#6686B9" d="M 1.3556668 6.4926667 v 0.863 h 7.774 c 0.057 -0.312 0.141 -0.604 0.268 -0.863 H 
            1.3556668 z"/>           
        <path fill="#6686B9" d="M 5.4876666 5.1266665 V 3.9226665 c 0.0 -0.029 -0.025 -0.054 -0.055 -0.054 H 4.2316666 c 
            -0.029 0.0 -0.055 0.024 -0.055 0.054 V 5.1266665 c 0.0 0.029 0.025 0.052 0.055 0.052 h 1.201 C 5.4626665 
            5.1786666 5.4876666 5.155667 5.4876666 5.1266665 z"/>           
        <path fill="#6686B9" d="M 7.7183332 5.1266665 V 3.9226665 c 0.0 -0.029 -0.025 -0.054 -0.055 -0.054 H 6.462333 c 
            -0.029 0.0 -0.055 0.024 -0.055 0.054 V 5.1266665 c 0.0 0.029 0.025 0.052 0.055 0.052 H 7.663333 C 7.6933336 
            5.1786666 7.7183332 5.155667 7.7183332 5.1266665 z"/>           
        <path fill="#6686B9" d="M 9.682334 5.18 V 3.9759998 c 0.0 -0.029 -0.021 -0.054 -0.055 -0.054 H 8.424334 c -0.029 
            0.0 -0.053 0.024 -0.053 0.054 V 5.18 c 0.0 0.029 0.023 0.052 0.053 0.052 h 1.203 C 9.656334 5.232 9.682334 
            5.209 9.682334 5.18 z"/>   </g>      
    <path fill="#6686B9" d="M 15.814541 11.488625 c -0.11637211 -0.38132572 -1.209403 -1.0689144 -1.5051422 -1.2136374 c 
        -0.018274307 -0.012012482 -0.15436172 -0.072063446 -0.15436172 -0.1008873 V 9.809589 c 0.25053692 -0.3206749 
        0.6236973 -0.9440088 0.69150066 -1.6988544 c 0.10434914 -1.1157551 -0.3794117 -2.0207286 -1.0213804 -2.0267348 h 
        -0.02981472 c -0.6818819 0.005404949 -1.0334024 0.75544643 -1.021862 1.7258768 c 0.14185905 0.10028696 0.2736187 
        0.22339201 0.39047146 0.38493013 c 0.3707552 0.5266504 0.542429 1.2959089 0.46789265 2.1084042 c -0.06587982 
        0.700799 -0.33036232 1.2820978 -0.5607014 1.6676264 c 0.11012077 0.06485462 0.25053596 0.15313244 0.39720345 
        0.25281715 H 15.90735 C 15.906869 12.223655 15.920335 11.829117 15.814541 11.488625 z"/>     
    <path fill="#6686B9" d="M 11.0697365 11.9780445 c -0.23034 -0.4173584 -0.44096375 -1.0016575 -0.50395775 -1.6712303 
        c -0.079343796 -0.8743477 0.07501602 -1.633399 0.4327879 -2.1390314 c 0.12214279 -0.17054558 0.2654438 
        -0.3002572 0.42220974 -0.39934254 C 11.407793 6.816627 10.964425 6.089405 10.388817 6.0846 H 10.358522 c 
        -0.75112915 0.006005287 -1.1098623 0.9175854 -1.0093594 2.0321403 C 9.419851 8.867982 9.715109 9.4889145 
        9.965646 9.809589 v 0.36391163 c 0.0 0.028823853 -0.096175194 0.08947563 -0.11733341 0.10088444 c -0.2923727 
        0.14532661 -1.4075241 0.83291435 -1.5234156 1.2136393 C 8.219105 11.829117 8.213334 12.223655 8.213334 12.223655 
        h 2.4673748 C 10.821605 12.128171 10.957693 12.044701 11.0697365 11.9780445 z"/>     
    <path fill="#6686B9" d="M 11.566002 12.392999 c -0.291893 0.1453228 -1.4075241 0.83351326 -1.5234165 1.2142382 c 
        -0.105792046 0.33749008 -0.11156273 0.7344303 -0.11156273 0.7344303 h 4.258157 c 0.0 0.0 0.012984276 -0.39273548 
        -0.09232807 -0.7344303 c -0.11300564 -0.38132572 -1.2089214 -1.0689154 -1.5036993 -1.2142382 c -0.020677567 
        -0.012611389 -0.15291786 -0.071460724 -0.15291786 -0.100886345 v -0.36270905 c 0.250535 -0.31827354 0.62273407 
        -0.9428091 0.69149876 -1.6994572 C 13.235121 9.114193 12.752322 8.209219 12.10843 8.203214 H 12.07621 C 
        11.325083 8.209219 10.96635 9.120198 11.067332 10.2353525 c 0.070207596 0.7506418 0.36546516 1.3721743 
        0.61648273 1.693449 v 0.36271095 C 11.683816 12.321537 11.587159 12.380387 11.566002 12.392999 z"/></svg>