<?xml version="1.0" standalone="no"?>
<!DOCTYPE svg PUBLIC "-//W3C//DTD SVG 1.1//EN"
    "http://www.w3.org/Graphics/SVG/1.1/DTD/svg11.dtd">
<!-- Generator: Adobe Illustrator 16.0.0, SVG Export Plug-In . SVG Version: 6.00 Build 0)  -->
<svg contentScriptType="text/ecmascript" zoomAndPan="magnify" xmlns:xlink="http://www.w3.org/1999/xlink" baseProfile="full"
    contentStyleType="text/css" id="图层_1" enable-background="new 0 0 16 16" version="1.1" xml:space="preserve" width="16px"
    preserveAspectRatio="xMidYMid meet" viewBox="0 0 16 16" height="16px" xmlns="http://www.w3.org/2000/svg" x="0px" y="0px"> 
    <g>        
        <path fill="#6686B9" d="M9.127,1v1h2v8.152l1,0.595V1H9.127z M2.126,4h8V3h-2V0h-4v3h-2V4z M5.626,1h1v1h-1V1z 
            M1.126,15V2h2V1h-3 v15h11.528c-0.262-0.289-0.463-0.626-0.596-1H1.126z"/>    
        <path fill="#6686B9" d="M5.565,4.608C4.553,4.611,3.542,4.607,2.529,4.614c-0.134,0.001-0.275,0.03-0.401,0.079 
            C1.811,4.813,1.661,5.052,1.661,5.39c0,1.033,0.001,2.066,0,3.1c0,0.188,0.063,0.346,0.196,0.476 
            c0.184,0.181,0.414,0.267,0.661,0.269C3.538,9.245,4.556,9.24,5.575,9.24h0.113c0.003-0.033,0.005-0.053,0.005-0.068 
            c0-1.479-0.001-2.957,0.002-4.436C5.695,4.632,5.658,4.608,5.565,4.608z M5.335,8.705H4.507v-3.5h0.828V8.705z 
            M10.404,4.873 
            C10.215,4.687,9.98,4.611,9.719,4.61H6.716c-0.153,0-0.153,0-0.153,0.157c0,0.194-0.004,0.39,0.002,0.583 
            c0.003,0.096-0.021,0.134-0.122,0.127C6.302,5.469,6.162,5.476,6.019,5.476v2.875h0.398c0.146,0,0.146,0,0.146,0.145 
            c0.001,0.243,0,0.486,0,0.742h0.146c0.275,0,0.551-0.002,0.826-0.002l0.94-0.611l0.382,0.611c0.258-0.002,0.514,0,0.77-0.002 
            c0.139,0,0.281-0.023,0.416-0.062c0.33-0.092,0.547-0.349,0.547-0.646c0.004-1.068,0.002-2.146,0.002-3.211 
            C10.592,5.138,10.525,4.993,10.404,4.873z 
            M9.916,7.687c-0.27,0.662-0.875,0.99-1.593,0.915C7.594,8.525,7.111,7.987,6.999,7.276 
            C6.98,7.158,6.973,7.038,6.965,6.969c0.011-0.541,0.14-0.984,0.497-1.341c0.657-0.657,2.134-0.59,2.515,0.689 
            C10.113,6.779,10.098,7.239,9.916,7.687z 
            M8.551,5.882C8.216,5.87,7.949,5.998,7.792,6.301c-0.202,0.393-0.204,0.8-0.02,1.197 
            c0.142,0.311,0.403,0.46,0.742,0.46c0.336-0.001,0.588-0.15,0.74-0.453C9.348,7.321,9.38,7.122,9.382,6.927 
            C9.381,6.719,9.35,6.528,9.264,6.35C9.119,6.052,8.881,5.894,8.551,5.882z"/> </g> 
    <path fill="#6686B9" d="M 5.498477 13.301878 C 5.2122154 13.029125 5.0076656 12.304289 5.0076656 11.452362 c 0.0 
        -0.64358807 -0.37693882 -1.189681 -0.89990807 -1.3904753 C 4.0729647 9.832077 3.8900309 9.653334 3.6696672 
        9.653334 S 3.2658415 9.832077 3.2310467 10.061888 C 2.70755 10.263262 2.331666 10.808775 2.331666 11.452942 c 
        0.0 0.85192776 -0.20454788 1.5767612 -0.49133778 1.8495169 C 1.6805906 13.453926 1.5883331 13.675034 1.5883331 
        13.908325 c 0.0 0.27101612 0.19927692 0.49154186 0.44547272 0.49154186 h 1.1898603 c 0.0 0.27101517 0.19927692 
        0.48979855 0.44547272 0.48979855 c 0.24619675 0.0 0.44547272 -0.21878338 0.44547272 -0.48979855 h 1.1909151 c 
        0.24514198 0.0 0.4449463 -0.22052574 0.4449463 -0.49154186 C 5.7509985 13.675034 5.6592684 13.453926 5.498477 
        13.301878 z M 3.6696672 13.7760105 c -0.21825504 0.0 -0.3953905 -0.19441032 -0.3953905 -0.43408775 s 0.17713547 
        -0.436409 0.3953905 -0.436409 s 0.39538956 0.19673252 0.39538956 0.436409 S 3.8879213 13.7760105 3.6696672 
        13.7760105 z M 4.0429144 11.668827 l -0.0896225 0.79099274 c -0.0068531036 0.05919361 -0.052718163 0.10271835 
        -0.10701847 0.10271835 h -0.35321522 c -0.055355072 0.0 -0.10069275 -0.043524742 -0.107019424 -0.10271835 L 
        3.297473 11.679272 l -0.02319622 -0.7892513 c -5.273819E-4 -0.033078194 0.009489059 -0.0638361 0.030576706 
        -0.087049484 C 3.3254137 10.780338 3.352827 10.7675705 3.3812952 10.7675705 H 3.9580383 c 0.028468132 0.0 
        0.056408882 0.012767792 0.07696915 0.035980225 c 0.021087646 0.02321434 0.031104088 0.05397129 0.030049324 
        0.08646965 L 4.0429144 11.668827 z"/>
    <polygon fill="#6686B9" points="9.539,13.911 7.264,10.279 5.333,12.701 2.933,11.611 3.346,10.702 5.037,11.469 
        7.361,8.555 9.77,12.396 11.114,11.242 13.074,12.41 15.15,10.801 15.764,11.592 13.148,13.617 11.221,12.469"
        transform="matrix(18.75 0.0 0.0 18.75 0.0 0.0)"/>
    <polygon fill="#6686B9" points="9.885947,14.444334 8.244518,10.812334 6.851286,13.234334 5.1196675,12.144334 
        5.4176507,11.235333 6.63772,12.002334 8.314505,9.088334 10.052615,12.929334 11.022323,11.775333 
        12.436477,12.943334 13.934327,11.334333 14.377333,12.125334 12.489869,14.150333 11.099524,13.002334"/></svg>