<?xml version="1.0" standalone="no"?>
<!DOCTYPE svg PUBLIC "-//W3C//DTD SVG 1.1//EN"
    "http://www.w3.org/Graphics/SVG/1.1/DTD/svg11.dtd">
<!-- Generator: Adobe Illustrator 16.0.0, SVG Export Plug-In . SVG Version: 6.00 Build 0)  -->
<svg contentScriptType="text/ecmascript" zoomAndPan="magnify" xmlns:xlink="http://www.w3.org/1999/xlink" baseProfile="full"
    contentStyleType="text/css" id="图层_1" enable-background="new 0 0 16 16" version="1.1" width="16px" xml:space="preserve"
    preserveAspectRatio="xMidYMid meet" viewBox="0 0 16 16" height="16px" xmlns="http://www.w3.org/2000/svg" x="0px" y="0px">           
    <g>                    
        <path fill="#6686B9" d=
            "M5.912,5.141V3.923c0-0.029-0.062-0.053-0.132-0.053H2.752c-0.071,0-0.138,0.023-0.138,0.053v1.218 
            c0,0.029,0.066,0.054,0.138,0.054H5.78C5.851,5.195,5.912,5.17,5.912,5.141z"/>                    
        <path fill="none" d="M1.081,2.702v7.568c0,0.295,0.242,0.539,0.541,0.539h8.271V5.082h3.079v-2.38H1.081z"/>                    
        <path fill="#6686B9" d="M1.622,10.809c-0.299,0-0.541-0.244-0.541-0.539V2.702h11.891v2.38h1.081V1.621 
            c0-0.896-0.726-1.622-1.62-1.622H1.622C0.728-0.001,0,0.725,0,1.621v8.649c0,0.895,0.728,1.619,1.622,1.619h8.271v-1.08H1.622z"/>                    
        <path fill="#6686B9" d=
            "M12.235,5.198V3.804c0-0.036-0.074-0.064-0.153-0.064H8.684c-0.085,0-0.154,0.028-0.154,0.064V5.27 
            c0,0.035,0.069,0.065,0.154,0.065h1.794V5.198H12.235z"/>                    
        <rect x="2.559" fill="#6686B9" width="7.334" height="0.873" y="8.356"/>                    
        <rect x="2.559" fill="#6686B9" width="7.334" height="0.872" y="6.362"/>                    
        <path fill="#6686B9" d="M12.235,5.27V5.198h-1.758v0.138h1.604C12.161,5.335,12.235,5.305,12.235,5.27z"/>   </g>           
    <path fill="#6686B9" d="M 13.066667 6.026667 C 11.60174 6.026667 10.415001 6.782128 10.415001 7.715248 S 11.60174 
        9.403825 13.066667 9.403825 s 2.6516676 -0.7554579 2.6516676 -1.6885781 S 14.531594 6.026667 13.066667 6.026667 
        z"/>          
    <path fill="#6686B9" d="M 13.066667 9.866605 c -1.4649267 0.0 -2.6516666 -0.75491905 -2.6516666 -1.6885796 c 0.0 
        0.38988018 0.0 0.649621 0.0 1.2916803 C 10.415001 10.402824 11.602117 11.158285 13.066667 11.158285 s 2.6516676 
        -0.75546074 2.6516676 -1.6885796 c 0.0 -0.34289932 0.0 -0.7003803 0.0 -1.2916803 C 15.718334 9.111686 14.531594 
        9.866605 13.066667 9.866605 z"/>          
    <path fill="#6686B9" d="M 13.066667 11.620527 c -1.4649267 0.0 -2.6516666 -0.7549219 -2.6516666 -1.6880407 c 0.0 
        0.38988018 0.0 0.6496191 0.0 1.2911415 c 0.0 0.9336586 1.1871166 1.6885796 2.6516666 1.6885796 s 2.6516676 
        -0.75438213 2.6516676 -1.6885796 c 0.0 -0.34236145 0.0 -0.69984055 0.0 -1.2911415 C 15.718334 10.865604 
        14.531594 11.620527 13.066667 11.620527 z"/>          
    <path fill="#6686B9" d="M 13.066667 13.375526 c -1.4649267 0.0 -2.6516666 -0.75546074 -2.6516666 -1.6885805 c 0.0 
        0.38987923 0.0 0.649621 0.0 1.2911415 C 10.415001 13.911746 11.60174 14.666666 13.066667 14.666666 s 2.6516676 
        -0.75491905 2.6516676 -1.6885786 c 0.0 -0.34290123 0.0 -0.6998415 0.0 -1.2911415 C 15.718334 12.620065 14.531594 
        13.375526 13.066667 13.375526 z"/></svg>