<?xml version="1.0" encoding="utf-8"?>
<!-- Generator: Adobe Illustrator 16.0.0, SVG Export Plug-In . SVG Version: 6.00 Build 0)  -->
<!DOCTYPE svg PUBLIC "-//W3C//DTD SVG 1.1//EN" "http://www.w3.org/Graphics/SVG/1.1/DTD/svg11.dtd">
<svg version="1.1" id="图层_1" xmlns="http://www.w3.org/2000/svg" xmlns:xlink="http://www.w3.org/1999/xlink" x="0px" y="0px"
	 width="16px" height="16px" viewBox="0 0 16 16" enable-background="new 0 0 16 16" xml:space="preserve">
<g>
	<rect x="10.729" y="10.967" fill="#76a794" width="2.898" height="1.008"/>
	<rect x="10.729" y="12.99" fill="#76a794" width="4.975" height="1.009"/>
	<rect x="10.729" y="6.935" fill="#76a794" width="2.898" height="1.007"/>
	<rect x="10.729" y="8.958" fill="#76a794" width="4.975" height="1.008"/>
	<rect x="10.729" y="14.99" fill="#76a794" width="2.906" height="1.01"/>
	<path fill="#76a794" d="M0.296,16h9.333V0H0.296V16z M5.5,14.151H4.5l-0.732-3.334h0.84l0.397,2.576h0.009l0.401-2.576h0.841
		L5.5,14.151z M1.629,1.333h6.667v1.601H1.629V1.333z M1.629,4.267h6.667v1.6H1.629V4.267z M1.629,7.2h6.667v1.6H1.629V7.2z"/>
</g>
</svg>
