<?xml version="1.0" encoding="utf-8"?>
<!-- Generator: Adobe Illustrator 16.0.0, SVG Export Plug-In . SVG Version: 6.00 Build 0)  -->
<!DOCTYPE svg PUBLIC "-//W3C//DTD SVG 1.1//EN" "http://www.w3.org/Graphics/SVG/1.1/DTD/svg11.dtd">
<svg version="1.1" id="图层_1" xmlns="http://www.w3.org/2000/svg" xmlns:xlink="http://www.w3.org/1999/xlink" x="0px" y="0px"
	 width="16px" height="16px" viewBox="0 0 16 16" enable-background="new 0 0 16 16" xml:space="preserve">
<g>
	<path fill="#76a794" d="M2.179,8.307v1.873c0,3.217,2.605,5.821,5.821,5.82c3.213,0,5.82-2.607,5.82-5.82V8.307H2.179z"/>
	<g>
		<path fill="#76a794" d="M6.224,4.283V2.896c0-0.668,0.435-1.226,1.034-1.428V0.002C4.397,0.369,2.179,2.789,2.179,5.75v1.344
			h5.079V5.713C6.657,5.511,6.225,4.953,6.224,4.283z"/>
		<path fill="#76a794" d="M8.729,0v1.516C9.259,1.75,9.627,2.28,9.627,2.897L9.63,4.283C9.631,4.901,9.259,5.431,8.73,5.666v1.429
			l5.09-0.001V5.75C13.82,2.787,11.596,0.361,8.729,0z"/>
	</g>
	<path fill="#76a794" d="M8.739,2.897l0.002,1.386C8.74,4.452,8.675,4.608,8.557,4.727c-0.119,0.117-0.271,0.18-0.438,0.181H7.735
		c-0.344,0-0.624-0.28-0.624-0.622l0.003-1.389C7.111,2.729,7.179,2.572,7.296,2.455C7.413,2.338,7.57,2.273,7.734,2.272
		l0.383,0.001c0.165,0,0.321,0.064,0.439,0.182C8.674,2.573,8.74,2.729,8.739,2.897z"/>
</g>
</svg>
