<?xml version="1.0" encoding="utf-8"?>
<!-- Generator: Adobe Illustrator 16.0.0, SVG Export Plug-In . SVG Version: 6.00 Build 0)  -->
<!DOCTYPE svg PUBLIC "-//W3C//DTD SVG 1.1//EN" "http://www.w3.org/Graphics/SVG/1.1/DTD/svg11.dtd">
<svg version="1.1" id="图层_1" xmlns="http://www.w3.org/2000/svg" xmlns:xlink="http://www.w3.org/1999/xlink" x="0px" y="0px"
	 width="16px" height="16px" viewBox="0 0 16 16" enable-background="new 0 0 16 16" xml:space="preserve">
<g>
	<circle fill="#FF0000" cx="11.716" cy="12.223" r="0.543"/>
	<polygon fill="#FF0000" points="11.717,8.96 11.717,12.223 13.893,10.047 13.893,9.504 12.805,8.96 	"/>
	<path fill="#6686B9" d="M6.641,12.193c0-1.016,0.3-1.998,0.867-2.838c0.609-0.899,1.477-1.562,2.466-1.923
		C9.662,6.6,9.469,5.506,9.469,4.299c0-1.538-0.989-2.842-2.364-3.323C7.012,0.426,6.53,0,5.951,0c-0.58,0-1.062,0.426-1.154,0.976
		C3.42,1.457,2.432,2.761,2.432,4.299c0,2.034-0.538,3.767-1.291,4.419c-0.422,0.361-0.664,0.891-0.664,1.448
		c0,0.646,0.525,1.174,1.173,1.174h3.13c0,0.647,0.523,1.171,1.172,1.171c0.266,0,0.499-0.104,0.695-0.254
		C6.646,12.236,6.641,12.215,6.641,12.193z M4.99,2.747c0.055-0.055,0.128-0.084,0.203-0.084h1.516c0.074,0,0.148,0.029,0.201,0.084
		c0.055,0.056,0.082,0.129,0.08,0.208l-0.059,1.86l-0.235,1.89C6.679,6.847,6.557,6.95,6.414,6.95H5.486
		c-0.146,0-0.266-0.104-0.281-0.245L4.973,4.842L4.91,2.955C4.91,2.876,4.936,2.803,4.99,2.747z M4.91,8.814
		c0-0.573,0.466-1.044,1.041-1.044c0.574,0,1.039,0.471,1.039,1.044c0,0.572-0.465,1.037-1.039,1.037
		C5.376,9.852,4.91,9.387,4.91,8.814z"/>
	<path fill="#6686B9" d="M15.469,11.656c0.004,0,0.008-0.002,0.012-0.002c-0.004-0.031-0.016-0.06-0.021-0.091
		c-0.022-0.134-0.057-0.261-0.093-0.39c-0.028-0.102-0.057-0.202-0.094-0.3c-0.045-0.124-0.098-0.241-0.155-0.357
		c-0.048-0.096-0.097-0.188-0.152-0.28c-0.064-0.106-0.132-0.209-0.206-0.31c-0.068-0.089-0.139-0.173-0.213-0.258
		c-0.08-0.088-0.158-0.173-0.244-0.254c-0.089-0.083-0.184-0.156-0.279-0.229c-0.088-0.068-0.173-0.136-0.266-0.195
		c-0.112-0.072-0.232-0.132-0.352-0.191c-0.09-0.044-0.176-0.094-0.269-0.131c-0.146-0.059-0.298-0.1-0.451-0.141
		c-0.079-0.021-0.153-0.051-0.234-0.065c-0.237-0.047-0.483-0.074-0.735-0.074l0,0l0,0c-1.314,0-2.473,0.665-3.157,1.678
		c-0.41,0.607-0.649,1.339-0.649,2.128c0,0.254,0.027,0.501,0.074,0.741c0.016,0.083,0.048,0.161,0.07,0.244
		c0.04,0.151,0.08,0.302,0.139,0.446c0.037,0.094,0.09,0.181,0.135,0.271c0.061,0.12,0.119,0.242,0.192,0.354
		c0.06,0.092,0.129,0.175,0.196,0.262c0.076,0.1,0.151,0.198,0.236,0.287c0.079,0.085,0.164,0.158,0.25,0.233
		c0.09,0.079,0.18,0.158,0.276,0.229c0.095,0.068,0.192,0.129,0.292,0.188c0.104,0.062,0.207,0.12,0.316,0.172
		c0.105,0.05,0.212,0.093,0.322,0.134c0.117,0.042,0.234,0.078,0.355,0.109c0.111,0.029,0.225,0.055,0.341,0.074
		c0.055,0.007,0.104,0.027,0.16,0.033c0.003-0.006,0.007-0.011,0.01-0.018C11.422,15.973,11.565,16,11.717,16
		c2.102,0,3.807-1.703,3.807-3.807C15.523,12.01,15.494,11.834,15.469,11.656z M8.48,11.922c0.006-0.068,0.01-0.137,0.02-0.203
		c0.014-0.087,0.023-0.174,0.043-0.258c0.033-0.146,0.079-0.286,0.131-0.424c0.031-0.08,0.065-0.158,0.102-0.235
		c0.061-0.126,0.124-0.25,0.199-0.367c0.039-0.062,0.085-0.118,0.129-0.177c0.041-0.056,0.087-0.107,0.132-0.16l0.207,0.207
		l0.384-0.384L9.621,9.713C9.676,9.665,9.73,9.617,9.788,9.575c0.054-0.04,0.106-0.082,0.161-0.118
		c0.139-0.088,0.283-0.167,0.434-0.234c0.026-0.012,0.05-0.027,0.076-0.038c0.171-0.071,0.352-0.125,0.537-0.167
		c0.071-0.017,0.146-0.023,0.221-0.035c0.061-0.01,0.123-0.012,0.186-0.02V9.99h0.043v0.027h0.543V8.959
		c0.076,0.006,0.154,0.012,0.23,0.023c0.072,0.012,0.146,0.019,0.219,0.035c0.186,0.042,0.368,0.096,0.541,0.168
		c0.021,0.01,0.042,0.022,0.063,0.032c0.149,0.067,0.29,0.146,0.427,0.232c0.068,0.046,0.136,0.095,0.201,0.146
		c0.036,0.027,0.069,0.058,0.104,0.086l-0.21,0.209l0.384,0.385l0.007-0.007l0.036,0.036l0.204-0.204
		c0.052,0.062,0.097,0.131,0.143,0.196c0.073,0.103,0.137,0.209,0.197,0.317c0.111,0.207,0.203,0.426,0.269,0.656
		c0.018,0.057,0.033,0.115,0.047,0.175c0.034,0.146,0.061,0.295,0.074,0.448H13.85v0.544h1.074c-0.058,0.696-0.334,1.331-0.76,1.834
		l-0.217-0.217l-0.384,0.384l0.217,0.218c-0.493,0.417-1.112,0.686-1.792,0.75v-1.037h-0.043v-0.028h-0.543v1.073
		c-0.459-0.037-0.887-0.178-1.272-0.385c-0.06-0.034-0.123-0.062-0.181-0.099c-0.056-0.036-0.107-0.077-0.162-0.116
		c-0.058-0.044-0.111-0.092-0.167-0.139l0.206-0.207l-0.384-0.386l-0.007,0.008l-0.036-0.036l-0.196,0.197
		c-0.035-0.044-0.073-0.085-0.105-0.129c-0.016-0.021-0.031-0.04-0.045-0.062c-0.055-0.077-0.102-0.159-0.15-0.241
		c-0.047-0.083-0.096-0.165-0.136-0.252c-0.03-0.065-0.061-0.132-0.087-0.2c-0.054-0.14-0.1-0.284-0.134-0.432
		c-0.001-0.005-0.003-0.011-0.005-0.016c-0.018-0.082-0.027-0.166-0.04-0.249c-0.01-0.068-0.015-0.138-0.021-0.206h1.061v-0.544
		H8.48z"/>
</g>
</svg>
