<?xml version="1.0" encoding="utf-8"?>
<!-- Generator: Adobe Illustrator 16.0.0, SVG Export Plug-In . SVG Version: 6.00 Build 0)  -->
<!DOCTYPE svg PUBLIC "-//W3C//DTD SVG 1.1//EN" "http://www.w3.org/Graphics/SVG/1.1/DTD/svg11.dtd">
<svg version="1.1" id="图层_1" xmlns="http://www.w3.org/2000/svg" xmlns:xlink="http://www.w3.org/1999/xlink" x="0px" y="0px"
	 width="16px" height="16px" viewBox="0 0 16 16" enable-background="new 0 0 16 16" xml:space="preserve">
<g>
	<path fill="#228B22" d="M6.604,2.455L2.973,3.3V8.94c0,0,0.003,0.121,0.033,0.315c0.233,1.999,2.05,3.361,3.029,3.956l0.01,0.02
		c0.072,0.042,0.153,0.082,0.229,0.121c0.23,0.129,0.378,0.201,0.378,0.201s0.009-0.006,0.023-0.012
		C6.69,13.548,6.7,13.554,6.7,13.554s0.147-0.072,0.377-0.201c0.076-0.039,0.157-0.079,0.229-0.121l0.011-0.02
		c0.476-0.289,1.149-0.764,1.743-1.401c-0.001-0.188,0.022-0.379,0.072-0.565l0.203-0.772c0,0,0.344-0.432,0.577-0.575
		c0.082-0.05,0.199-0.087,0.318-0.117c0.047-0.171,0.094-0.343,0.115-0.524C10.376,9.062,10.38,8.94,10.38,8.94V3.3L6.637,2.446
		L6.604,2.455z M6.676,3.307l2.968,0.849V8.18H6.676v4.505c-0.008,0.004-0.023,0.014-0.023,0.014S4.108,11.22,3.753,9.143
		C3.749,9.119,3.744,9.091,3.741,9.069C3.721,8.938,3.709,8.804,3.709,8.667V8.18h2.967V3.307z"/>
	<path fill="#228B22" d="M9.364,12.918c-1.301,1.153-2.688,1.849-2.688,1.849s-4.257-2.128-4.851-5.124
		C1.817,9.61,1.81,9.576,1.808,9.545c-0.037-0.199-0.054-0.389-0.054-0.59L1.753,2.456l4.923-1.224l4.923,1.224v6.499
		c0,0.201-0.018,0.391-0.055,0.59c-0.002,0.031-0.01,0.065-0.018,0.098c0,0.002,0,0.004,0,0.004c0.439,0.057,0.846,0.24,1.178,0.539
		c0.027-0.123,0.056-0.247,0.072-0.374c0.049-0.28,0.055-0.454,0.055-0.454V1.232L6.7,0L6.676,0.002L6.651,0L0.521,1.232v8.125
		c0,0,0.007,0.174,0.055,0.454c0.391,2.876,3.43,4.843,5.068,5.692l0.017,0.029c0.124,0.062,0.258,0.121,0.383,0.173
		C6.427,15.894,6.676,16,6.676,16s0.249-0.106,0.633-0.294c0.125-0.052,0.259-0.111,0.383-0.173l0.017-0.029
		c0.401-0.208,0.887-0.484,1.396-0.822c0.073-0.236,0.199-0.46,0.389-0.655l0.046-0.047l0.468-0.368
		c-0.111-0.076-0.215-0.163-0.312-0.26C9.564,13.221,9.456,13.074,9.364,12.918z"/>
	<path fill="#228B22" d="M13.322,13.166l1.528-1.528h0.209l0.42-0.841l-0.209-0.209L14.43,11.01v0.209l-1.579,1.58l-0.563-0.438
		c0.24-0.447,0.176-1.019-0.204-1.396c-0.311-0.311-0.748-0.407-1.144-0.303l0.724,0.724v0.84h-0.84L10.1,11.5
		c-0.104,0.397-0.007,0.835,0.303,1.145c0.38,0.38,0.949,0.443,1.398,0.203l0.303,0.384l-1.894,1.492
		c-0.344,0.354-0.13,0.742,0.02,0.911l0.187,0.188c0.163,0.143,0.499,0.208,0.913,0.05l1.418-1.823l1.391,1.766
		c0.356,0.344,0.744,0.129,0.911-0.02l0.19-0.189c0.143-0.161,0.359-0.499,0.049-0.91L13.322,13.166z M14.792,15.354
		c-0.097,0.096-0.254,0.096-0.35,0c-0.098-0.098-0.098-0.255,0-0.352c0.096-0.098,0.253-0.098,0.35,0
		C14.889,15.1,14.889,15.257,14.792,15.354z"/>
</g>
</svg>
