<?xml version="1.0" encoding="utf-8"?>
<!-- Generator: Adobe Illustrator 16.0.0, SVG Export Plug-In . SVG Version: 6.00 Build 0)  -->
<!DOCTYPE svg PUBLIC "-//W3C//DTD SVG 1.1//EN" "http://www.w3.org/Graphics/SVG/1.1/DTD/svg11.dtd">
<svg version="1.1" id="图层_1" xmlns="http://www.w3.org/2000/svg" xmlns:xlink="http://www.w3.org/1999/xlink" x="0px" y="0px"
	 width="16px" height="16px" viewBox="0 0 16 16" enable-background="new 0 0 16 16" xml:space="preserve">
<g>
	<g>
		<path fill="#76a794" d="M13.656,13.657c-3.119,3.119-8.194,3.119-11.313,0s-3.119-8.195,0-11.314s8.194-3.119,11.313,0
			S16.775,10.538,13.656,13.657z M3.313,3.313c-2.584,2.584-2.584,6.789,0,9.375c2.584,2.584,6.791,2.584,9.375,0
			c2.584-2.586,2.584-6.791,0-9.375S5.897,0.729,3.313,3.313z"/>
	</g>
	<path fill="#76a794" d="M13.076,8.743L10.324,6.54v1.27h-1.18c-0.395,0-0.771,0.08-1.116,0.221V5.405h1.303L7.129,2.653
		L4.927,5.405H6.19v5.359v2.582h1.839v-2.582c0-0.615,0.5-1.115,1.116-1.115h1.18v1.295L13.076,8.743z"/>
</g>
</svg>
